<?xml version="1.0" encoding="utf-8"?>
<!-- Generator: Adobe Illustrator 22.0.0, SVG Export Plug-In . SVG Version: 6.00 Build 0)  -->
<svg version="1.0" id="Ebene_1" xmlns="http://www.w3.org/2000/svg" xmlns:xlink="http://www.w3.org/1999/xlink" x="0px" y="0px"
	 width="300px" height="auto" viewBox="0 0 300 379.2" enable-background="new 0 0 300 379.2" xml:space="preserve">
<g>
	<g>
		<g>
			<path fill="#FFFFFF" d="M65.2,108.8l-25.9,14.9c-1,0.6-2.1-0.1-2.1-1.2v-7.3c0-0.5,0.3-1,0.7-1.2l25.9-14.9
				c1-0.5,2.1,0.1,2.1,1.2v7.3C65.9,108.1,65.7,108.6,65.2,108.8"/>
			<polygon fill="#FFBC00" points="22.1,177.3 0,177.5 0,190 			"/>
		</g>
		<g>
			<defs>
				<polygon id="SVGID_1_" points="6.5,180.8 6.5,181.2 204,68.5 204,68.1 105.3,54.7 				"/>
			</defs>
			<linearGradient id="SVGID_2_" gradientUnits="userSpaceOnUse" x1="105.7802" y1="126.1973" x2="53.852" y2="-28.7695">
				<stop  offset="0" style="stop-color:#167E3D"/>
				<stop  offset="1" style="stop-color:#084823"/>
			</linearGradient>
			<use xlink:href="#SVGID_1_"  overflow="visible" fill="url(#SVGID_2_)"/>
			<clipPath id="SVGID_3_">
				<use xlink:href="#SVGID_1_"  overflow="visible"/>
			</clipPath>
		</g>
		<g>
			<defs>
				<polygon id="SVGID_4_" points="6.5,181.2 28.7,181 31.3,181 117.4,176 178.6,97.9 182.9,93 204,68.5 				"/>
			</defs>
			<linearGradient id="SVGID_5_" gradientUnits="userSpaceOnUse" x1="107.8112" y1="129.7181" x2="147.4729" y2="205.3615">
				<stop  offset="0" style="stop-color:#167E3D"/>
				<stop  offset="1" style="stop-color:#084823"/>
			</linearGradient>
			<use xlink:href="#SVGID_4_"  overflow="visible" fill="url(#SVGID_5_)"/>
			<clipPath id="SVGID_6_">
				<use xlink:href="#SVGID_4_"  overflow="visible"/>
			</clipPath>
		</g>
		<g>
			<defs>
				<polygon id="SVGID_7_" points="182.9,93 117.4,176 28.7,181 6.5,181.2 6.5,193.7 6.5,285 204,172.3 204,80.9 204,68.5 				"/>
			</defs>
			<linearGradient id="SVGID_8_" gradientUnits="userSpaceOnUse" x1="6.5408" y1="176.7447" x2="203.9867" y2="176.7447">
				<stop  offset="0" style="stop-color:#6ECA44"/>
				<stop  offset="1" style="stop-color:#86D776"/>
			</linearGradient>
			<use xlink:href="#SVGID_7_"  overflow="visible" fill="url(#SVGID_8_)"/>
			<clipPath id="SVGID_9_">
				<use xlink:href="#SVGID_7_"  overflow="visible"/>
			</clipPath>
		</g>
		<g>
			<defs>
				<polygon id="SVGID_10_" points="0,281.3 6.5,285 6.5,181.2 0,177.5 				"/>
			</defs>
			<linearGradient id="SVGID_11_" gradientUnits="userSpaceOnUse" x1="3.2704" y1="283.1991" x2="3.2704" y2="176.9567">
				<stop  offset="0" style="stop-color:#6ECA44"/>
				<stop  offset="1" style="stop-color:#86D776"/>
			</linearGradient>
			<use xlink:href="#SVGID_10_"  overflow="visible" fill="url(#SVGID_11_)"/>
			<clipPath id="SVGID_12_">
				<use xlink:href="#SVGID_10_"  overflow="visible"/>
			</clipPath>
		</g>
		<g>
			<defs>
				<polygon id="SVGID_13_" points="0,177.5 6.5,181.2 105.3,54.7 98.7,51 				"/>
			</defs>
			<linearGradient id="SVGID_14_" gradientUnits="userSpaceOnUse" x1="9.167915e-04" y1="116.1129" x2="105.2642" y2="116.1129">
				<stop  offset="0" style="stop-color:#6ECA44"/>
				<stop  offset="1" style="stop-color:#86D776"/>
			</linearGradient>
			<use xlink:href="#SVGID_13_"  overflow="visible" fill="url(#SVGID_14_)"/>
			<clipPath id="SVGID_15_">
				<use xlink:href="#SVGID_13_"  overflow="visible"/>
			</clipPath>
		</g>
		<g>
			<defs>
				<polygon id="SVGID_16_" points="105.3,54.7 204,68.1 197.4,64.4 98.7,51 				"/>
			</defs>
			<linearGradient id="SVGID_17_" gradientUnits="userSpaceOnUse" x1="98.7215" y1="59.5385" x2="203.9867" y2="59.5385">
				<stop  offset="0" style="stop-color:#6ECA44"/>
				<stop  offset="1" style="stop-color:#86D776"/>
			</linearGradient>
			<use xlink:href="#SVGID_16_"  overflow="visible" fill="url(#SVGID_17_)"/>
			<clipPath id="SVGID_18_">
				<use xlink:href="#SVGID_16_"  overflow="visible"/>
			</clipPath>
		</g>
		<g>
			<defs>
				<polygon id="SVGID_19_" points="31.6,84.1 31.6,181 117.4,176 178.9,97.9 178.9,0 				"/>
			</defs>
			<use xlink:href="#SVGID_19_"  overflow="visible" fill="#EBEBEB"/>
			<clipPath id="SVGID_20_">
				<use xlink:href="#SVGID_19_"  overflow="visible"/>
			</clipPath>
		</g>
		<g>
			<path fill="#878787" d="M98.7,94.6l-48.9,28.2c-0.6,0.4-1.4-0.1-1.4-0.8v-8.5c0-0.3,0.2-0.6,0.5-0.8l49-28.3
				c0.6-0.4,1.4,0.1,1.4,0.8v8.5C99.2,94.1,99,94.4,98.7,94.6"/>
			<path fill="#878787" d="M161.6,87.5L52.9,150.3c-0.6,0.4-1.4-0.1-1.4-0.8V141c0-0.3,0.2-0.6,0.5-0.8l108.7-62.8
				c0.6-0.4,1.4,0.1,1.4,0.8v8.5C162.1,87,161.9,87.3,161.6,87.5"/>
			<path fill="#878787" d="M161.6,112.6L52.9,175.4c-0.6,0.4-1.4-0.1-1.4-0.8v-8.5c0-0.3,0.2-0.6,0.5-0.8l108.7-62.8
				c0.6-0.4,1.4,0.1,1.4,0.8v8.5C162.1,112.2,161.9,112.5,161.6,112.6"/>
			<polygon fill="#878787" points="67.3,178.9 87.7,177.7 140,147.5 155.1,128.2 			"/>
		</g>
	</g>
	<g>
		<g>
			<defs>
				<path id="SVGID_21_" d="M151.6,240.4l-92,53.1c-2.4,1.4-2.4,3.6,0,5l138,79.7c2.4,1.4,6.2,1.4,8.6,0l92-53.1
					c2.4-1.4,2.4-3.6,0-5l-138-79.7c-1.2-0.7-2.7-1-4.3-1C154.3,239.4,152.8,239.7,151.6,240.4"/>
			</defs>
			<use xlink:href="#SVGID_21_"  overflow="visible" fill="#EBEBEB"/>
			<clipPath id="SVGID_22_">
				<use xlink:href="#SVGID_21_"  overflow="visible"/>
			</clipPath>
		</g>
		<g>
			<defs>
				<path id="SVGID_23_" d="M77.5,297.4c0,0.1,0,0.2,0,0.4c-0.1,0.2-0.1,0.4-0.3,0.7c-0.1,0.2-0.3,0.5-0.4,0.7
					c-0.2,0.2-0.4,0.4-0.6,0.5l1.8,1c0.2-0.1,0.4-0.3,0.6-0.5c0.2-0.2,0.4-0.4,0.5-0.6c0.1-0.2,0.3-0.4,0.4-0.6
					c0.1-0.2,0.1-0.3,0.1-0.5l4.3,2.5l-2.3,1.3l1.7,1l6.7-3.8l-1.7-1l-2.1,1.2l-6.3-3.7L77.5,297.4z"/>
			</defs>
			<linearGradient id="SVGID_24_" gradientUnits="userSpaceOnUse" x1="75.9966" y1="300.8366" x2="201.5239" y2="275.4858">
				<stop  offset="0" style="stop-color:#003366"/>
				<stop  offset="1" style="stop-color:#0066BA"/>
			</linearGradient>
			<use xlink:href="#SVGID_23_"  overflow="visible" fill="url(#SVGID_24_)"/>
			<clipPath id="SVGID_25_">
				<use xlink:href="#SVGID_23_"  overflow="visible"/>
			</clipPath>
		</g>
		<g>
			<defs>
				<path id="SVGID_26_" d="M95.5,293.6c-0.4,0-0.8-0.1-1.2-0.2c-0.4-0.1-0.8-0.3-1.2-0.5c-0.4-0.2-0.7-0.4-0.9-0.7
					c-0.2-0.2-0.3-0.5-0.4-0.7c0-0.2,0-0.5,0.1-0.7c0.1-0.2,0.3-0.4,0.6-0.6c0.3-0.2,0.6-0.3,1-0.4c0.4-0.1,0.8-0.1,1.2-0.1
					c0.4,0,0.8,0.1,1.2,0.2c0.4,0.1,0.8,0.3,1.2,0.5c0.4,0.2,0.7,0.4,0.9,0.7c0.2,0.2,0.3,0.5,0.4,0.7c0,0.2,0,0.5-0.1,0.7
					c-0.1,0.2-0.3,0.4-0.6,0.6c-0.3,0.2-0.6,0.3-1,0.4c-0.3,0.1-0.5,0.1-0.8,0.1C95.7,293.7,95.6,293.7,95.5,293.6 M92.8,288.5
					c-0.7,0.2-1.4,0.4-2,0.8c-0.6,0.4-1.1,0.7-1.4,1.2c-0.3,0.4-0.4,0.8-0.4,1.3c0,0.4,0.2,0.9,0.5,1.3c0.3,0.4,0.8,0.8,1.4,1.2
					c0.6,0.4,1.3,0.6,2,0.8c0.7,0.2,1.5,0.3,2.2,0.3c0.8,0,1.5-0.1,2.2-0.3c0.7-0.2,1.4-0.4,2-0.8c0.6-0.3,1.1-0.7,1.4-1.2
					c0.3-0.4,0.5-0.9,0.5-1.3c0-0.4-0.2-0.9-0.5-1.3c-0.3-0.4-0.8-0.8-1.4-1.2c-0.6-0.4-1.3-0.6-2-0.8c-0.7-0.2-1.5-0.3-2.2-0.3
					c0,0,0,0,0,0C94.3,288.2,93.6,288.3,92.8,288.5"/>
			</defs>
			<linearGradient id="SVGID_27_" gradientUnits="userSpaceOnUse" x1="74.981" y1="295.8077" x2="200.5083" y2="270.4569">
				<stop  offset="0" style="stop-color:#003366"/>
				<stop  offset="1" style="stop-color:#0066BA"/>
			</linearGradient>
			<use xlink:href="#SVGID_26_"  overflow="visible" fill="url(#SVGID_27_)"/>
			<clipPath id="SVGID_28_">
				<use xlink:href="#SVGID_26_"  overflow="visible"/>
			</clipPath>
		</g>
		<g>
			<defs>
				<path id="SVGID_29_" d="M103.5,282.4c0,0.1,0,0.2,0,0.4c-0.1,0.2-0.1,0.4-0.3,0.7c-0.1,0.2-0.3,0.5-0.4,0.7
					c-0.2,0.2-0.4,0.4-0.6,0.5l1.8,1c0.2-0.1,0.4-0.3,0.6-0.5c0.2-0.2,0.4-0.4,0.5-0.6c0.1-0.2,0.3-0.4,0.4-0.6
					c0.1-0.2,0.1-0.3,0.1-0.5l4.3,2.5l-2.3,1.3l1.7,1l6.7-3.8l-1.7-1l-2.1,1.2l-6.3-3.7L103.5,282.4z"/>
			</defs>
			<linearGradient id="SVGID_30_" gradientUnits="userSpaceOnUse" x1="74.1015" y1="291.4524" x2="199.6287" y2="266.1016">
				<stop  offset="0" style="stop-color:#003366"/>
				<stop  offset="1" style="stop-color:#0066BA"/>
			</linearGradient>
			<use xlink:href="#SVGID_29_"  overflow="visible" fill="url(#SVGID_30_)"/>
			<clipPath id="SVGID_31_">
				<use xlink:href="#SVGID_29_"  overflow="visible"/>
			</clipPath>
		</g>
		<g>
			<defs>
				<path id="SVGID_32_" d="M115.5,275.4c0,0.1,0,0.2,0,0.4c-0.1,0.2-0.1,0.4-0.3,0.7c-0.1,0.2-0.3,0.5-0.4,0.7
					c-0.2,0.2-0.4,0.4-0.6,0.5l1.8,1c0.2-0.1,0.4-0.3,0.6-0.5c0.2-0.2,0.4-0.4,0.5-0.6c0.1-0.2,0.3-0.4,0.4-0.6
					c0.1-0.2,0.1-0.3,0.1-0.5l4.3,2.5l-2.3,1.3l1.7,1l6.7-3.8l-1.7-1l-2.1,1.2l-6.3-3.7L115.5,275.4z"/>
			</defs>
			<linearGradient id="SVGID_33_" gradientUnits="userSpaceOnUse" x1="73.2255" y1="287.115" x2="198.7527" y2="261.7642">
				<stop  offset="0" style="stop-color:#003366"/>
				<stop  offset="1" style="stop-color:#0066BA"/>
			</linearGradient>
			<use xlink:href="#SVGID_32_"  overflow="visible" fill="url(#SVGID_33_)"/>
			<clipPath id="SVGID_34_">
				<use xlink:href="#SVGID_32_"  overflow="visible"/>
			</clipPath>
		</g>
		<g>
			<defs>
				<path id="SVGID_35_" d="M133.5,271.7c-0.4,0-0.8-0.1-1.2-0.2c-0.4-0.1-0.8-0.3-1.2-0.5c-0.4-0.2-0.7-0.4-0.9-0.7
					c-0.2-0.2-0.3-0.5-0.4-0.7c0-0.2,0-0.5,0.1-0.7c0.1-0.2,0.3-0.4,0.6-0.6c0.3-0.2,0.6-0.3,1-0.4c0.4-0.1,0.8-0.1,1.2-0.1
					c0.4,0,0.8,0.1,1.2,0.2c0.4,0.1,0.8,0.3,1.2,0.5c0.4,0.2,0.7,0.4,0.9,0.7c0.2,0.2,0.3,0.5,0.4,0.7c0,0.2,0,0.5-0.1,0.7
					c-0.1,0.2-0.3,0.4-0.6,0.6c-0.3,0.2-0.6,0.3-1,0.4c-0.3,0.1-0.5,0.1-0.8,0.1C133.7,271.7,133.6,271.7,133.5,271.7 M130.9,266.5
					c-0.7,0.2-1.4,0.4-2,0.8c-0.6,0.4-1.1,0.7-1.4,1.2c-0.3,0.4-0.4,0.8-0.4,1.3c0,0.4,0.2,0.9,0.5,1.3c0.3,0.4,0.8,0.8,1.4,1.2
					c0.6,0.4,1.3,0.6,2,0.8c0.7,0.2,1.5,0.3,2.2,0.3c0.8,0,1.5-0.1,2.2-0.3c0.7-0.2,1.4-0.4,2-0.8c0.6-0.3,1.1-0.7,1.4-1.2
					c0.3-0.4,0.5-0.9,0.5-1.3c0-0.4-0.2-0.9-0.5-1.3c-0.3-0.4-0.8-0.8-1.4-1.2c-0.6-0.4-1.3-0.6-2-0.8c-0.7-0.2-1.5-0.3-2.2-0.3
					c0,0,0,0,0,0C132.3,266.3,131.6,266.4,130.9,266.5"/>
			</defs>
			<linearGradient id="SVGID_36_" gradientUnits="userSpaceOnUse" x1="72.2099" y1="282.086" x2="197.7371" y2="256.7352">
				<stop  offset="0" style="stop-color:#003366"/>
				<stop  offset="1" style="stop-color:#0066BA"/>
			</linearGradient>
			<use xlink:href="#SVGID_35_"  overflow="visible" fill="url(#SVGID_36_)"/>
			<clipPath id="SVGID_37_">
				<use xlink:href="#SVGID_35_"  overflow="visible"/>
			</clipPath>
		</g>
		<g>
			<defs>
				<path id="SVGID_38_" d="M141.6,260.4c0,0.1,0,0.2,0,0.4c-0.1,0.2-0.1,0.4-0.3,0.7c-0.1,0.2-0.3,0.5-0.4,0.7
					c-0.2,0.2-0.4,0.4-0.6,0.5l1.8,1c0.2-0.1,0.4-0.3,0.6-0.5c0.2-0.2,0.4-0.4,0.5-0.6c0.1-0.2,0.3-0.4,0.4-0.6
					c0.1-0.2,0.1-0.3,0.1-0.5l4.3,2.5l-2.3,1.3l1.7,1l6.7-3.8l-1.7-1l-2.1,1.2l-6.3-3.7L141.6,260.4z"/>
			</defs>
			<linearGradient id="SVGID_39_" gradientUnits="userSpaceOnUse" x1="71.3303" y1="277.7306" x2="196.8575" y2="252.3798">
				<stop  offset="0" style="stop-color:#003366"/>
				<stop  offset="1" style="stop-color:#0066BA"/>
			</linearGradient>
			<use xlink:href="#SVGID_38_"  overflow="visible" fill="url(#SVGID_39_)"/>
			<clipPath id="SVGID_40_">
				<use xlink:href="#SVGID_38_"  overflow="visible"/>
			</clipPath>
		</g>
		<g>
			<defs>
				<path id="SVGID_41_" d="M159.5,256.7c-0.4,0-0.8-0.1-1.2-0.2c-0.4-0.1-0.8-0.3-1.2-0.5c-0.4-0.2-0.7-0.4-0.9-0.7
					c-0.2-0.2-0.3-0.5-0.4-0.7c0-0.2,0-0.5,0.1-0.7c0.1-0.2,0.3-0.4,0.6-0.6c0.3-0.2,0.6-0.3,1-0.4c0.4-0.1,0.8-0.1,1.2-0.1
					c0.4,0,0.8,0.1,1.2,0.2c0.4,0.1,0.8,0.3,1.2,0.5c0.4,0.2,0.7,0.4,0.9,0.7c0.2,0.2,0.3,0.5,0.4,0.7c0,0.2,0,0.5-0.1,0.7
					c-0.1,0.2-0.3,0.4-0.6,0.6c-0.3,0.2-0.6,0.3-1,0.4c-0.3,0.1-0.6,0.1-0.8,0.1C159.7,256.7,159.6,256.7,159.5,256.7 M156.9,251.5
					c-0.7,0.2-1.4,0.4-2,0.8c-0.6,0.4-1.1,0.7-1.4,1.2c-0.3,0.4-0.4,0.9-0.4,1.3c0,0.4,0.2,0.9,0.5,1.3c0.3,0.4,0.8,0.8,1.4,1.2
					c0.6,0.4,1.3,0.6,2,0.8c0.7,0.2,1.5,0.3,2.2,0.3c0.8,0,1.5-0.1,2.2-0.3c0.7-0.2,1.4-0.4,2-0.8c0.6-0.3,1.1-0.7,1.4-1.2
					c0.3-0.4,0.5-0.9,0.5-1.3c0-0.4-0.2-0.9-0.5-1.3c-0.3-0.4-0.8-0.8-1.4-1.2c-0.6-0.4-1.3-0.6-2-0.8c-0.7-0.2-1.5-0.3-2.2-0.3
					c0,0,0,0,0,0C158.3,251.2,157.6,251.3,156.9,251.5"/>
			</defs>
			<linearGradient id="SVGID_42_" gradientUnits="userSpaceOnUse" x1="70.3147" y1="272.7019" x2="195.8419" y2="247.3511">
				<stop  offset="0" style="stop-color:#003366"/>
				<stop  offset="1" style="stop-color:#0066BA"/>
			</linearGradient>
			<use xlink:href="#SVGID_41_"  overflow="visible" fill="url(#SVGID_42_)"/>
			<clipPath id="SVGID_43_">
				<use xlink:href="#SVGID_41_"  overflow="visible"/>
			</clipPath>
		</g>
		<g>
			<defs>
				<path id="SVGID_44_" d="M94.4,307.1c0,0.1,0,0.2,0,0.4c-0.1,0.2-0.1,0.4-0.3,0.7c-0.1,0.2-0.3,0.5-0.4,0.7
					c-0.2,0.2-0.4,0.4-0.6,0.5l1.8,1c0.2-0.1,0.4-0.3,0.6-0.5c0.2-0.2,0.4-0.4,0.5-0.6c0.1-0.2,0.3-0.4,0.4-0.6
					c0.1-0.2,0.1-0.3,0.1-0.5l4.3,2.5l-2.3,1.3l1.7,1l6.7-3.8l-1.7-1l-2.1,1.2l-6.3-3.7L94.4,307.1z"/>
			</defs>
			<linearGradient id="SVGID_45_" gradientUnits="userSpaceOnUse" x1="78.55" y1="313.48" x2="204.0773" y2="288.1293">
				<stop  offset="0" style="stop-color:#003366"/>
				<stop  offset="1" style="stop-color:#0066BA"/>
			</linearGradient>
			<use xlink:href="#SVGID_44_"  overflow="visible" fill="url(#SVGID_45_)"/>
			<clipPath id="SVGID_46_">
				<use xlink:href="#SVGID_44_"  overflow="visible"/>
			</clipPath>
		</g>
		<g>
			<defs>
				<path id="SVGID_47_" d="M112.3,303.4c-0.4,0-0.8-0.1-1.2-0.2c-0.4-0.1-0.8-0.3-1.2-0.5c-0.4-0.2-0.7-0.4-0.9-0.7
					c-0.2-0.2-0.3-0.5-0.4-0.7c0-0.2,0-0.5,0.1-0.7c0.1-0.2,0.3-0.4,0.6-0.6c0.3-0.2,0.6-0.3,1-0.4c0.4-0.1,0.8-0.1,1.2-0.1
					c0.4,0,0.8,0.1,1.2,0.2c0.4,0.1,0.8,0.3,1.2,0.5c0.4,0.2,0.7,0.4,0.9,0.7c0.2,0.2,0.3,0.5,0.4,0.7c0,0.2,0,0.5-0.1,0.7
					c-0.1,0.2-0.3,0.4-0.6,0.6c-0.3,0.2-0.6,0.3-1,0.4c-0.3,0.1-0.6,0.1-0.8,0.1C112.6,303.4,112.5,303.4,112.3,303.4 M109.7,298.2
					c-0.7,0.2-1.4,0.4-2,0.8c-0.6,0.4-1.1,0.7-1.4,1.2c-0.3,0.4-0.4,0.9-0.4,1.3c0,0.4,0.2,0.9,0.5,1.3c0.3,0.4,0.8,0.8,1.4,1.2
					c0.6,0.4,1.3,0.6,2,0.8c0.7,0.2,1.5,0.3,2.2,0.3c0.8,0,1.5-0.1,2.2-0.3c0.7-0.2,1.4-0.4,2-0.8c0.6-0.3,1.1-0.7,1.4-1.2
					c0.3-0.4,0.5-0.9,0.5-1.3c0-0.4-0.2-0.9-0.5-1.3c-0.3-0.4-0.8-0.8-1.4-1.2c-0.6-0.4-1.3-0.6-2-0.8c-0.7-0.2-1.5-0.3-2.2-0.3
					c0,0,0,0,0,0C111.2,298,110.4,298.1,109.7,298.2"/>
			</defs>
			<linearGradient id="SVGID_48_" gradientUnits="userSpaceOnUse" x1="77.5344" y1="308.4512" x2="203.0617" y2="283.1004">
				<stop  offset="0" style="stop-color:#003366"/>
				<stop  offset="1" style="stop-color:#0066BA"/>
			</linearGradient>
			<use xlink:href="#SVGID_47_"  overflow="visible" fill="url(#SVGID_48_)"/>
			<clipPath id="SVGID_49_">
				<use xlink:href="#SVGID_47_"  overflow="visible"/>
			</clipPath>
		</g>
		<g>
			<defs>
				<path id="SVGID_50_" d="M120.4,292.1c0,0.1,0,0.2,0,0.4c-0.1,0.2-0.1,0.4-0.3,0.7c-0.1,0.2-0.3,0.5-0.4,0.7
					c-0.2,0.2-0.4,0.4-0.6,0.5l1.8,1c0.2-0.1,0.4-0.3,0.6-0.5c0.2-0.2,0.4-0.4,0.5-0.6c0.1-0.2,0.3-0.4,0.4-0.6
					c0.1-0.2,0.1-0.3,0.1-0.5l4.3,2.5l-2.3,1.3l1.7,1l6.7-3.8l-1.7-1l-2.1,1.2l-6.3-3.7L120.4,292.1z"/>
			</defs>
			<linearGradient id="SVGID_51_" gradientUnits="userSpaceOnUse" x1="76.6548" y1="304.0957" x2="202.1821" y2="278.745">
				<stop  offset="0" style="stop-color:#003366"/>
				<stop  offset="1" style="stop-color:#0066BA"/>
			</linearGradient>
			<use xlink:href="#SVGID_50_"  overflow="visible" fill="url(#SVGID_51_)"/>
			<clipPath id="SVGID_52_">
				<use xlink:href="#SVGID_50_"  overflow="visible"/>
			</clipPath>
		</g>
		<g>
			<defs>
				<path id="SVGID_53_" d="M138.4,288.4c-0.4,0-0.8-0.1-1.2-0.2c-0.4-0.1-0.8-0.3-1.2-0.5c-0.4-0.2-0.7-0.4-0.9-0.7
					c-0.2-0.2-0.3-0.5-0.4-0.7c0-0.2,0-0.5,0.1-0.7c0.1-0.2,0.3-0.4,0.6-0.6c0.3-0.2,0.6-0.3,1-0.4c0.4-0.1,0.8-0.1,1.2-0.1
					c0.4,0,0.8,0.1,1.2,0.2c0.4,0.1,0.8,0.3,1.2,0.5c0.4,0.2,0.7,0.4,0.9,0.7c0.2,0.2,0.3,0.5,0.4,0.7c0,0.2,0,0.5-0.1,0.7
					c-0.1,0.2-0.3,0.4-0.6,0.6c-0.3,0.2-0.6,0.3-1,0.4c-0.3,0.1-0.6,0.1-0.8,0.1C138.6,288.4,138.5,288.4,138.4,288.4 M135.7,283.2
					c-0.7,0.2-1.4,0.4-2,0.8c-0.6,0.4-1.1,0.7-1.4,1.2c-0.3,0.4-0.4,0.9-0.4,1.3c0,0.4,0.2,0.9,0.5,1.3c0.3,0.4,0.8,0.8,1.4,1.2
					c0.6,0.4,1.3,0.6,2,0.8c0.7,0.2,1.5,0.3,2.2,0.3c0.8,0,1.5-0.1,2.2-0.3c0.7-0.2,1.4-0.4,2-0.8c0.6-0.3,1.1-0.7,1.4-1.2
					c0.3-0.4,0.5-0.9,0.5-1.3c0-0.4-0.2-0.9-0.5-1.3c-0.3-0.4-0.8-0.8-1.4-1.2c-0.6-0.4-1.3-0.6-2-0.8c-0.7-0.2-1.5-0.3-2.2-0.3
					c0,0,0,0,0,0C137.2,283,136.5,283,135.7,283.2"/>
			</defs>
			<linearGradient id="SVGID_54_" gradientUnits="userSpaceOnUse" x1="75.6392" y1="299.0668" x2="201.1665" y2="273.716">
				<stop  offset="0" style="stop-color:#003366"/>
				<stop  offset="1" style="stop-color:#0066BA"/>
			</linearGradient>
			<use xlink:href="#SVGID_53_"  overflow="visible" fill="url(#SVGID_54_)"/>
			<clipPath id="SVGID_55_">
				<use xlink:href="#SVGID_53_"  overflow="visible"/>
			</clipPath>
		</g>
		<g>
			<defs>
				<path id="SVGID_56_" d="M146.4,277.1c0,0.1,0,0.2,0,0.4c-0.1,0.2-0.1,0.4-0.3,0.7c-0.1,0.2-0.3,0.5-0.4,0.7
					c-0.2,0.2-0.4,0.4-0.6,0.5l1.8,1c0.2-0.1,0.4-0.3,0.6-0.5c0.2-0.2,0.4-0.4,0.5-0.6c0.1-0.2,0.3-0.4,0.4-0.6
					c0.1-0.2,0.1-0.3,0.1-0.5l4.3,2.5l-2.3,1.3l1.7,1l6.7-3.8l-1.7-1l-2.1,1.2l-6.3-3.7L146.4,277.1z"/>
			</defs>
			<linearGradient id="SVGID_57_" gradientUnits="userSpaceOnUse" x1="74.7597" y1="294.7117" x2="200.2869" y2="269.3609">
				<stop  offset="0" style="stop-color:#003366"/>
				<stop  offset="1" style="stop-color:#0066BA"/>
			</linearGradient>
			<use xlink:href="#SVGID_56_"  overflow="visible" fill="url(#SVGID_57_)"/>
			<clipPath id="SVGID_58_">
				<use xlink:href="#SVGID_56_"  overflow="visible"/>
			</clipPath>
		</g>
		<g>
			<defs>
				<path id="SVGID_59_" d="M158.5,270.1c0,0.1,0,0.2,0,0.4c-0.1,0.2-0.1,0.4-0.3,0.7c-0.1,0.2-0.3,0.5-0.4,0.7
					c-0.2,0.2-0.4,0.4-0.6,0.5l1.8,1c0.2-0.1,0.4-0.3,0.6-0.5c0.2-0.2,0.4-0.4,0.5-0.6c0.1-0.2,0.3-0.4,0.4-0.6
					c0.1-0.2,0.1-0.3,0.1-0.5l4.3,2.5l-2.3,1.3l1.7,1l6.7-3.8l-1.7-1l-2.1,1.2l-6.3-3.7L158.5,270.1z"/>
			</defs>
			<linearGradient id="SVGID_60_" gradientUnits="userSpaceOnUse" x1="73.8837" y1="290.3741" x2="199.4109" y2="265.0233">
				<stop  offset="0" style="stop-color:#003366"/>
				<stop  offset="1" style="stop-color:#0066BA"/>
			</linearGradient>
			<use xlink:href="#SVGID_59_"  overflow="visible" fill="url(#SVGID_60_)"/>
			<clipPath id="SVGID_61_">
				<use xlink:href="#SVGID_59_"  overflow="visible"/>
			</clipPath>
		</g>
		<g>
			<defs>
				<path id="SVGID_62_" d="M170.5,263.2c0,0.1,0,0.2,0,0.4c-0.1,0.2-0.1,0.4-0.3,0.7c-0.1,0.2-0.3,0.5-0.4,0.7
					c-0.2,0.2-0.4,0.4-0.6,0.5l1.8,1c0.2-0.1,0.4-0.3,0.6-0.5c0.2-0.2,0.4-0.4,0.5-0.6c0.1-0.2,0.3-0.4,0.4-0.6
					c0.1-0.2,0.1-0.3,0.1-0.5l4.3,2.5l-2.3,1.3l1.7,1l6.7-3.8l-1.7-1l-2.1,1.2l-6.3-3.7L170.5,263.2z"/>
			</defs>
			<linearGradient id="SVGID_63_" gradientUnits="userSpaceOnUse" x1="73.0077" y1="286.0365" x2="198.5349" y2="260.6858">
				<stop  offset="0" style="stop-color:#003366"/>
				<stop  offset="1" style="stop-color:#0066BA"/>
			</linearGradient>
			<use xlink:href="#SVGID_62_"  overflow="visible" fill="url(#SVGID_63_)"/>
			<clipPath id="SVGID_64_">
				<use xlink:href="#SVGID_62_"  overflow="visible"/>
			</clipPath>
		</g>
		<g>
			<defs>
				<path id="SVGID_65_" d="M111.3,316.9c0,0.1,0,0.2,0,0.4c-0.1,0.2-0.1,0.4-0.3,0.7c-0.1,0.2-0.3,0.5-0.4,0.7
					c-0.2,0.2-0.4,0.4-0.6,0.5l1.8,1c0.2-0.1,0.4-0.3,0.6-0.5c0.2-0.2,0.4-0.4,0.5-0.6c0.1-0.2,0.3-0.4,0.4-0.6
					c0.1-0.2,0.1-0.3,0.1-0.5l4.3,2.5l-2.3,1.3l1.7,1l6.7-3.8l-1.7-1l-2.1,1.2l-6.3-3.7L111.3,316.9z"/>
			</defs>
			<linearGradient id="SVGID_66_" gradientUnits="userSpaceOnUse" x1="81.1035" y1="326.1239" x2="206.6308" y2="300.7731">
				<stop  offset="0" style="stop-color:#003366"/>
				<stop  offset="1" style="stop-color:#0066BA"/>
			</linearGradient>
			<use xlink:href="#SVGID_65_"  overflow="visible" fill="url(#SVGID_66_)"/>
			<clipPath id="SVGID_67_">
				<use xlink:href="#SVGID_65_"  overflow="visible"/>
			</clipPath>
		</g>
		<g>
			<defs>
				<path id="SVGID_68_" d="M129.2,313.1c-0.4,0-0.8-0.1-1.2-0.2c-0.4-0.1-0.8-0.3-1.2-0.5c-0.4-0.2-0.7-0.4-0.9-0.7
					c-0.2-0.2-0.3-0.5-0.4-0.7c0-0.2,0-0.5,0.1-0.7c0.1-0.2,0.3-0.4,0.6-0.6c0.3-0.2,0.6-0.3,1-0.4c0.4-0.1,0.8-0.1,1.2-0.1
					c0.4,0,0.8,0.1,1.2,0.2c0.4,0.1,0.8,0.3,1.2,0.5c0.4,0.2,0.7,0.4,0.9,0.7c0.2,0.2,0.3,0.5,0.4,0.7c0,0.2,0,0.5-0.1,0.7
					c-0.1,0.2-0.3,0.4-0.6,0.6c-0.3,0.2-0.6,0.3-1,0.4c-0.3,0.1-0.6,0.1-0.8,0.1C129.4,313.2,129.3,313.2,129.2,313.1 M126.6,308
					c-0.7,0.2-1.4,0.4-2,0.8c-0.6,0.4-1.1,0.7-1.4,1.2c-0.3,0.4-0.4,0.8-0.4,1.3c0,0.4,0.2,0.9,0.5,1.3c0.3,0.4,0.8,0.8,1.4,1.2
					c0.6,0.4,1.3,0.6,2,0.8c0.7,0.2,1.5,0.3,2.2,0.3c0.8,0,1.5-0.1,2.2-0.3c0.7-0.2,1.4-0.4,2-0.8c0.6-0.3,1.1-0.7,1.4-1.2
					c0.3-0.4,0.5-0.9,0.5-1.3c0-0.4-0.2-0.9-0.5-1.3c-0.3-0.4-0.8-0.8-1.4-1.2c-0.6-0.4-1.3-0.6-2-0.8c-0.7-0.2-1.5-0.3-2.2-0.3
					c0,0,0,0,0,0C128.1,307.7,127.3,307.8,126.6,308"/>
			</defs>
			<linearGradient id="SVGID_69_" gradientUnits="userSpaceOnUse" x1="80.0879" y1="321.0948" x2="205.6151" y2="295.744">
				<stop  offset="0" style="stop-color:#003366"/>
				<stop  offset="1" style="stop-color:#0066BA"/>
			</linearGradient>
			<use xlink:href="#SVGID_68_"  overflow="visible" fill="url(#SVGID_69_)"/>
			<clipPath id="SVGID_70_">
				<use xlink:href="#SVGID_68_"  overflow="visible"/>
			</clipPath>
		</g>
		<g>
			<defs>
				<path id="SVGID_71_" d="M137.3,301.9c0,0.1,0,0.2,0,0.4c-0.1,0.2-0.1,0.4-0.3,0.7c-0.1,0.2-0.3,0.5-0.4,0.7
					c-0.2,0.2-0.4,0.4-0.6,0.5l1.8,1c0.2-0.1,0.4-0.3,0.6-0.5c0.2-0.2,0.4-0.4,0.5-0.6c0.1-0.2,0.3-0.4,0.4-0.6
					c0.1-0.2,0.1-0.3,0.1-0.5l4.3,2.5l-2.3,1.3l1.7,1l6.7-3.8l-1.7-1l-2.1,1.2l-6.3-3.7L137.3,301.9z"/>
			</defs>
			<linearGradient id="SVGID_72_" gradientUnits="userSpaceOnUse" x1="79.2083" y1="316.7397" x2="204.7356" y2="291.3889">
				<stop  offset="0" style="stop-color:#003366"/>
				<stop  offset="1" style="stop-color:#0066BA"/>
			</linearGradient>
			<use xlink:href="#SVGID_71_"  overflow="visible" fill="url(#SVGID_72_)"/>
			<clipPath id="SVGID_73_">
				<use xlink:href="#SVGID_71_"  overflow="visible"/>
			</clipPath>
		</g>
		<g>
			<defs>
				<path id="SVGID_74_" d="M149.3,294.9c0,0.1,0,0.2,0,0.4c-0.1,0.2-0.1,0.4-0.3,0.7c-0.1,0.2-0.3,0.5-0.4,0.7
					c-0.2,0.2-0.4,0.4-0.6,0.5l1.8,1c0.2-0.1,0.4-0.3,0.6-0.5c0.2-0.2,0.4-0.4,0.5-0.6c0.1-0.2,0.3-0.4,0.4-0.6
					c0.1-0.2,0.1-0.3,0.1-0.5l4.3,2.5l-2.3,1.3l1.7,1l6.7-3.8l-1.7-1l-2.1,1.2l-6.3-3.7L149.3,294.9z"/>
			</defs>
			<linearGradient id="SVGID_75_" gradientUnits="userSpaceOnUse" x1="78.3324" y1="312.4022" x2="203.8596" y2="287.0514">
				<stop  offset="0" style="stop-color:#003366"/>
				<stop  offset="1" style="stop-color:#0066BA"/>
			</linearGradient>
			<use xlink:href="#SVGID_74_"  overflow="visible" fill="url(#SVGID_75_)"/>
			<clipPath id="SVGID_76_">
				<use xlink:href="#SVGID_74_"  overflow="visible"/>
			</clipPath>
		</g>
		<g>
			<defs>
				<path id="SVGID_77_" d="M161.3,288c0,0.1,0,0.2,0,0.4c-0.1,0.2-0.1,0.4-0.3,0.7c-0.1,0.2-0.3,0.5-0.4,0.7
					c-0.2,0.2-0.4,0.4-0.6,0.5l1.8,1c0.2-0.1,0.4-0.3,0.6-0.5c0.2-0.2,0.4-0.4,0.5-0.6c0.1-0.2,0.3-0.4,0.4-0.6
					c0.1-0.2,0.1-0.3,0.1-0.5l4.3,2.5l-2.3,1.3l1.7,1l6.7-3.8l-1.7-1l-2.1,1.2l-6.3-3.7L161.3,288z"/>
			</defs>
			<linearGradient id="SVGID_78_" gradientUnits="userSpaceOnUse" x1="77.4564" y1="308.0648" x2="202.9836" y2="282.714">
				<stop  offset="0" style="stop-color:#003366"/>
				<stop  offset="1" style="stop-color:#0066BA"/>
			</linearGradient>
			<use xlink:href="#SVGID_77_"  overflow="visible" fill="url(#SVGID_78_)"/>
			<clipPath id="SVGID_79_">
				<use xlink:href="#SVGID_77_"  overflow="visible"/>
			</clipPath>
		</g>
		<g>
			<defs>
				<path id="SVGID_80_" d="M179.3,284.2c-0.4,0-0.8-0.1-1.2-0.2c-0.4-0.1-0.8-0.3-1.2-0.5c-0.4-0.2-0.7-0.4-0.9-0.7
					c-0.2-0.2-0.3-0.5-0.4-0.7c0-0.2,0-0.5,0.1-0.7c0.1-0.2,0.3-0.4,0.6-0.6c0.3-0.2,0.6-0.3,1-0.4c0.4-0.1,0.8-0.1,1.2-0.1
					c0.4,0,0.8,0.1,1.2,0.2c0.4,0.1,0.8,0.3,1.2,0.5c0.4,0.2,0.7,0.4,0.9,0.7c0.2,0.2,0.3,0.5,0.4,0.7c0,0.2,0,0.5-0.1,0.7
					c-0.1,0.2-0.3,0.4-0.6,0.6c-0.3,0.2-0.6,0.3-1,0.4c-0.3,0.1-0.5,0.1-0.8,0.1C179.5,284.2,179.4,284.2,179.3,284.2 M176.7,279.1
					c-0.7,0.2-1.4,0.4-2,0.8c-0.6,0.4-1.1,0.7-1.4,1.2c-0.3,0.4-0.4,0.8-0.4,1.3c0,0.4,0.2,0.9,0.5,1.3c0.3,0.4,0.8,0.8,1.4,1.2
					c0.6,0.4,1.3,0.6,2,0.8c0.7,0.2,1.5,0.3,2.2,0.3c0.8,0,1.5-0.1,2.2-0.3c0.7-0.2,1.4-0.4,2-0.8c0.6-0.3,1.1-0.7,1.4-1.2
					c0.3-0.4,0.5-0.9,0.5-1.3c0-0.4-0.2-0.9-0.5-1.3c-0.3-0.4-0.8-0.8-1.4-1.2c-0.6-0.4-1.3-0.6-2-0.8c-0.7-0.2-1.5-0.3-2.2-0.3
					c0,0,0,0,0,0C178.1,278.8,177.4,278.9,176.7,279.1"/>
			</defs>
			<linearGradient id="SVGID_81_" gradientUnits="userSpaceOnUse" x1="76.4408" y1="303.0358" x2="201.968" y2="277.6851">
				<stop  offset="0" style="stop-color:#003366"/>
				<stop  offset="1" style="stop-color:#0066BA"/>
			</linearGradient>
			<use xlink:href="#SVGID_80_"  overflow="visible" fill="url(#SVGID_81_)"/>
			<clipPath id="SVGID_82_">
				<use xlink:href="#SVGID_80_"  overflow="visible"/>
			</clipPath>
		</g>
		<g>
			<defs>
				<path id="SVGID_83_" d="M193.3,276.2c-0.4,0-0.8-0.1-1.2-0.2c-0.4-0.1-0.8-0.3-1.2-0.5c-0.4-0.2-0.7-0.4-0.9-0.7
					c-0.2-0.2-0.3-0.5-0.4-0.7c0-0.2,0-0.5,0.1-0.7c0.1-0.2,0.3-0.4,0.6-0.6c0.3-0.2,0.6-0.3,1-0.4c0.4-0.1,0.8-0.1,1.2-0.1
					c0.4,0,0.8,0.1,1.2,0.2c0.4,0.1,0.8,0.3,1.2,0.5c0.4,0.2,0.7,0.4,0.9,0.7c0.2,0.2,0.3,0.5,0.4,0.7c0,0.2,0,0.5-0.1,0.7
					c-0.1,0.2-0.3,0.4-0.6,0.6c-0.3,0.2-0.6,0.3-1,0.4c-0.3,0.1-0.6,0.1-0.8,0.1C193.5,276.2,193.4,276.2,193.3,276.2 M190.7,271
					c-0.7,0.2-1.4,0.4-2,0.8c-0.6,0.4-1.1,0.7-1.4,1.2c-0.3,0.4-0.4,0.9-0.4,1.3c0,0.4,0.2,0.9,0.5,1.3c0.3,0.4,0.8,0.8,1.4,1.2
					c0.6,0.4,1.3,0.6,2,0.8c0.7,0.2,1.5,0.3,2.2,0.3c0.8,0,1.5-0.1,2.2-0.3c0.7-0.2,1.4-0.4,2-0.8c0.6-0.3,1.1-0.7,1.4-1.2
					c0.3-0.4,0.5-0.9,0.5-1.3c0-0.4-0.2-0.9-0.5-1.3c-0.3-0.4-0.8-0.8-1.4-1.2c-0.6-0.4-1.3-0.6-2-0.8c-0.7-0.2-1.5-0.3-2.2-0.3
					c0,0,0,0,0,0C192.1,270.7,191.4,270.8,190.7,271"/>
			</defs>
			<linearGradient id="SVGID_84_" gradientUnits="userSpaceOnUse" x1="75.4216" y1="297.9891" x2="200.9488" y2="272.6383">
				<stop  offset="0" style="stop-color:#003366"/>
				<stop  offset="1" style="stop-color:#0066BA"/>
			</linearGradient>
			<use xlink:href="#SVGID_83_"  overflow="visible" fill="url(#SVGID_84_)"/>
			<clipPath id="SVGID_85_">
				<use xlink:href="#SVGID_83_"  overflow="visible"/>
			</clipPath>
		</g>
		<g>
			<defs>
				<path id="SVGID_86_" d="M162.4,308.6c-0.8,0.5-1.6,0.9-2.3,1.4h-10v15.6v0v0.7h0c0.3,5.9,4.4,11.8,12.2,16.3
					c16.3,9.4,42.8,9.4,59.1,0c7.8-4.5,11.9-10.4,12.2-16.3h0v-16.4h-10c-0.7-0.5-1.5-1-2.3-1.4c-8.2-4.7-18.9-7.1-29.6-7.1
					C181.3,301.6,170.6,303.9,162.4,308.6"/>
			</defs>
			<linearGradient id="SVGID_87_" gradientUnits="userSpaceOnUse" x1="150.187" y1="325.7051" x2="233.8219" y2="325.7051">
				<stop  offset="0" style="stop-color:#003366"/>
				<stop  offset="1" style="stop-color:#0066BA"/>
			</linearGradient>
			<use xlink:href="#SVGID_86_"  overflow="visible" fill="url(#SVGID_87_)"/>
			<clipPath id="SVGID_88_">
				<use xlink:href="#SVGID_86_"  overflow="visible"/>
			</clipPath>
		</g>
		<g>
			<defs>
				<path id="SVGID_89_" d="M162.4,293c-16.3,9.4-16.3,24.7,0,34.1c16.3,9.4,42.8,9.4,59.1,0c16.3-9.4,16.3-24.7,0-34.1
					c-8.2-4.7-18.9-7.1-29.6-7.1C181.3,285.9,170.6,288.3,162.4,293"/>
			</defs>
			<linearGradient id="SVGID_90_" gradientUnits="userSpaceOnUse" x1="150.1873" y1="310.0718" x2="233.8216" y2="310.0718">
				<stop  offset="0" style="stop-color:#003366"/>
				<stop  offset="1" style="stop-color:#0066BA"/>
			</linearGradient>
			<use xlink:href="#SVGID_89_"  overflow="visible" fill="url(#SVGID_90_)"/>
			<clipPath id="SVGID_91_">
				<use xlink:href="#SVGID_89_"  overflow="visible"/>
			</clipPath>
		</g>
		<g>
			<linearGradient id="SVGID_92_" gradientUnits="userSpaceOnUse" x1="155.8744" y1="310.0718" x2="228.1344" y2="310.0718">
				<stop  offset="0" style="stop-color:#6E788C"/>
				<stop  offset="1" style="stop-color:#C8C8C8"/>
			</linearGradient>
			<path fill="url(#SVGID_92_)" d="M166.5,295.3c-14.1,8.1-14.1,21.4,0,29.5c14.1,8.1,37,8.1,51.1,0c14.1-8.1,14.1-21.4,0-29.5
				C203.4,287.2,180.6,287.2,166.5,295.3"/>
			<path fill="#EBEBEB" d="M168.1,298.7c0,1.8,4.8,3.2,10.8,3.2c6,0,10.8-1.4,10.8-3.2c0-1.8-4.8-3.2-10.8-3.2
				C173,295.5,168.1,297,168.1,298.7"/>
		</g>
		<g>
			<defs>
				<path id="SVGID_93_" d="M158.4,329.4c-0.1,0-0.2,0.1-0.3,0.2c0,0,0,0,0,0l-64.6,37.2v4.7c0.7,1.3,1.8,2.5,3,3.2
					c1.1,0.6,2.1,0.7,2.8,0.4l0.2-0.1l64.5-37.1v0c0,0,0,0,0.1,0l0.2-0.1c0.5-0.3,0.9-1,0.9-1.9c0-1-0.4-2.2-1.1-3.3
					c-0.7-1.1-1.7-2.1-2.7-2.7c-0.7-0.4-1.3-0.6-1.9-0.6C158.9,329.2,158.7,329.3,158.4,329.4"/>
			</defs>
			<linearGradient id="SVGID_94_" gradientUnits="userSpaceOnUse" x1="93.4337" y1="352.2789" x2="164.962" y2="352.2789">
				<stop  offset="0" style="stop-color:#6E788C"/>
				<stop  offset="1" style="stop-color:#C8C8C8"/>
			</linearGradient>
			<use xlink:href="#SVGID_93_"  overflow="visible" fill="url(#SVGID_94_)"/>
			<clipPath id="SVGID_95_">
				<use xlink:href="#SVGID_93_"  overflow="visible"/>
			</clipPath>
		</g>
		<g>
			<linearGradient id="SVGID_96_" gradientUnits="userSpaceOnUse" x1="92.6431" y1="370.9112" x2="100.2833" y2="370.9112">
				<stop  offset="0" style="stop-color:#6E788C"/>
				<stop  offset="1" style="stop-color:#C8C8C8"/>
			</linearGradient>
			<path fill="url(#SVGID_96_)" d="M92.6,368.7c0,0.9,0.3,1.9,0.8,2.8c0.7,1.3,1.8,2.5,3,3.2c1.1,0.6,2.1,0.7,2.8,0.4l0.2-0.1
				c0.5-0.3,0.9-1,0.9-1.9c0-2.1-1.7-4.8-3.8-6c-1.2-0.7-2.3-0.8-3-0.3C92.9,367.2,92.6,367.8,92.6,368.7"/>
		</g>
		<g>
			<defs>
				<path id="SVGID_97_" d="M93.4,366.8c-0.5,0.4-0.8,1-0.8,1.9c0,0.9,0.3,1.9,0.8,2.8c0.7,1.3,1.8,2.5,3,3.2
					c1.1,0.6,2.1,0.7,2.8,0.4l0.2-0.1c0.5-0.3,0.9-1,0.9-1.9c0-2.1-1.7-4.8-3.8-6c-0.7-0.4-1.3-0.6-1.9-0.6
					C94.1,366.5,93.7,366.6,93.4,366.8"/>
			</defs>
			<clipPath id="SVGID_98_">
				<use xlink:href="#SVGID_97_"  overflow="visible"/>
			</clipPath>
		</g>
	</g>
	<g>
		<g>
			<defs>
				<path id="SVGID_99_" d="M167.2,171.2v26.7c0,8.9,3.5,14.9,9.2,17.5l0,0l12.5,7.2l0,0c-5.2-2.8-8.3-8.7-8.3-17.1v-29
					c0-1.2,0.3-2.4,0.9-3.4l-13.1-6.9C167.6,167.7,167.2,169.4,167.2,171.2"/>
			</defs>
			<linearGradient id="SVGID_100_" gradientUnits="userSpaceOnUse" x1="178.0618" y1="215.5907" x2="178.0618" y2="170.8638">
				<stop  offset="0" style="stop-color:#6E788C"/>
				<stop  offset="1" style="stop-color:#C8C8C8"/>
			</linearGradient>
			<use xlink:href="#SVGID_99_"  overflow="visible" fill="url(#SVGID_100_)"/>
			<clipPath id="SVGID_101_">
				<use xlink:href="#SVGID_99_"  overflow="visible"/>
			</clipPath>
		</g>
		<g>
			<defs>
				<path id="SVGID_102_" d="M223.6,132.4l-50.9,29.3c-1.9,1.1-3.3,2.6-4.3,4.5l13.1,6.9c0.6-1.1,1.5-2,2.6-2.6l54.1-31.2
					c0.7-0.4,1.4-0.5,2.1-0.4l-11.4-6.5c-0.8-0.5-1.7-0.7-2.6-0.7C225.4,131.7,224.5,131.9,223.6,132.4"/>
			</defs>
			<linearGradient id="SVGID_103_" gradientUnits="userSpaceOnUse" x1="234.2096" y1="136.3414" x2="171.9395" y2="168.5828">
				<stop  offset="0" style="stop-color:#6E788C"/>
				<stop  offset="1" style="stop-color:#C8C8C8"/>
			</linearGradient>
			<use xlink:href="#SVGID_102_"  overflow="visible" fill="url(#SVGID_103_)"/>
			<clipPath id="SVGID_104_">
				<use xlink:href="#SVGID_102_"  overflow="visible"/>
			</clipPath>
		</g>
		<g>
			<defs>
				<path id="SVGID_105_" d="M238.2,139.3l-54.1,31.2c-1.1,0.6-2,1.5-2.6,2.6c-0.6,1-0.9,2.2-0.9,3.4v29c0,8.4,3.1,14.3,8.3,17.1
					c6.1,3.3,14.9,2.5,24.7-3.1c18.2-10.5,29.4-31.7,29.4-49.9V142c0-1.7-1.2-2.9-2.7-3.2c-0.2,0-0.3,0-0.5,0
					C239.3,138.8,238.7,139,238.2,139.3"/>
			</defs>
			<linearGradient id="SVGID_106_" gradientUnits="userSpaceOnUse" x1="180.6119" y1="181.7061" x2="242.996" y2="181.7061">
				<stop  offset="0" style="stop-color:#6ECA44"/>
				<stop  offset="1" style="stop-color:#86D776"/>
			</linearGradient>
			<use xlink:href="#SVGID_105_"  overflow="visible" fill="url(#SVGID_106_)"/>
			<clipPath id="SVGID_107_">
				<use xlink:href="#SVGID_105_"  overflow="visible"/>
			</clipPath>
		</g>
		<g>
			<defs>
				<path id="SVGID_108_" d="M214.1,170.6c-5.4,3.1-9.8,10-9.8,15.4c0,3.2,1.5,5.2,3.9,5.6v7.8c0,3.2,2.6,4.4,5.9,2.5
					c3.2-1.9,5.9-6,5.9-9.3v-7.8c2.4-3.2,3.9-6.9,3.9-10.1c0-3.6-2-5.7-4.9-5.7C217.5,169.1,215.9,169.6,214.1,170.6"/>
			</defs>
			<linearGradient id="SVGID_109_" gradientUnits="userSpaceOnUse" x1="221.4586" y1="189.2234" x2="205.7393" y2="180.7772">
				<stop  offset="0" style="stop-color:#167E3D"/>
				<stop  offset="1" style="stop-color:#084823"/>
			</linearGradient>
			<use xlink:href="#SVGID_108_"  overflow="visible" fill="url(#SVGID_109_)"/>
			<clipPath id="SVGID_110_">
				<use xlink:href="#SVGID_108_"  overflow="visible"/>
			</clipPath>
		</g>
		<g>
			<defs>
				<path id="SVGID_111_" d="M203.9,100.5c-9.7,4.4-14.8,10.1-19.6,17.6c-4.8,7.5-6.7,16.6-6.7,23.9v20c0,0.8,0.5,1.6,1.6,2.2
					c0.6,0.3,1.2,0.6,1.9,0.7c0.6,0.1,1.2,0.2,1.9,0.2h0c1.4,0,2.8-0.3,3.9-0.9c1.1-0.6,1.6-1.5,1.6-2.3c0,0,0,0,0,0v-26.2
					c0-4.2,1.7-9.1,4.5-13.5c2.8-4.4,6.6-8.3,10.9-10.8c3.7-2.1,7-2.8,9.7-2.2h0c1.4,0.3,2.7,1,3.6,2.1c1.3,1.5,2.1,3.7,2.1,6.6V138
					c0,0.8,0.5,1.6,1.6,2.2c0.6,0.3,1.2,0.6,1.9,0.7c0.6,0.1,1.2,0.2,1.9,0.2c1.4,0,2.9-0.3,4-0.9c1.1-0.6,1.6-1.5,1.6-2.3h0v-21.3
					c0-5.6-2.9-10.3-7-13.4c-3.6-2.7-8-4.2-12.4-4.2C208.4,99,206,99.5,203.9,100.5"/>
			</defs>
			<linearGradient id="SVGID_112_" gradientUnits="userSpaceOnUse" x1="177.5365" y1="132.0922" x2="230.1667" y2="132.0922">
				<stop  offset="0" style="stop-color:#6E788C"/>
				<stop  offset="1" style="stop-color:#C8C8C8"/>
			</linearGradient>
			<use xlink:href="#SVGID_111_"  overflow="visible" fill="url(#SVGID_112_)"/>
			<clipPath id="SVGID_113_">
				<use xlink:href="#SVGID_111_"  overflow="visible"/>
			</clipPath>
		</g>
		<g>
			<defs>
				<path id="SVGID_114_" d="M217.1,111.3c1.3,1.5,2.1,3.7,2.1,6.6V138c0,0.8,0.5,1.6,1.6,2.2v-23.3c0-4.1-3.2-7.5-7.3-7.6
					C215,109.5,216.2,110.3,217.1,111.3"/>
			</defs>
			<linearGradient id="SVGID_115_" gradientUnits="userSpaceOnUse" x1="217.1757" y1="106.0977" x2="217.1757" y2="133.494">
				<stop  offset="0" style="stop-color:#6E788C"/>
				<stop  offset="1" style="stop-color:#C8C8C8"/>
			</linearGradient>
			<use xlink:href="#SVGID_114_"  overflow="visible" fill="url(#SVGID_115_)"/>
			<clipPath id="SVGID_116_">
				<use xlink:href="#SVGID_114_"  overflow="visible"/>
			</clipPath>
		</g>
	</g>
</g>
</svg>
