<?xml version="1.0" encoding="utf-8"?>
<!-- Generator: Adobe Illustrator 22.0.0, SVG Export Plug-In . SVG Version: 6.00 Build 0)  -->
<svg version="1.0" id="Ebene_1" xmlns="http://www.w3.org/2000/svg" xmlns:xlink="http://www.w3.org/1999/xlink" x="0px" y="0px"
	 width="350px" height="auto" viewBox="0 0 300 254" enable-background="new 0 0 300 254" xml:space="preserve">
<g>
	<g>
		<linearGradient id="SVGID_1_" gradientUnits="userSpaceOnUse" x1="3.3653" y1="197.537" x2="3.3653" y2="106.395">
			<stop  offset="0" style="stop-color:#003366"/>
			<stop  offset="1" style="stop-color:#0066BA"/>
		</linearGradient>
		<path fill="url(#SVGID_1_)" d="M6.7,200.9l-4.6-2.7c-1.3-0.6-2.1-1.9-2.1-3.9v-87.7c0-1.8,0.6-3.7,1.6-5.6l5.1,3.1
			c-1,1.8-1.6,3.7-1.6,5.4v87.7C5.2,199,5.7,200.2,6.7,200.9"/>
		<linearGradient id="SVGID_2_" gradientUnits="userSpaceOnUse" x1="140.4668" y1="22.5" x2="15.8487" y2="94.42">
			<stop  offset="0" style="stop-color:#003366"/>
			<stop  offset="1" style="stop-color:#0066BA"/>
		</linearGradient>
		<path fill="url(#SVGID_2_)" d="M148.4,21.7c-1.3-0.6-3.2-0.4-5.3,0.8L12.5,97.9c-2.3,1.4-4.4,3.7-5.8,6.2L1.6,101
			c1.4-2.4,3.4-4.7,5.7-6l130.6-75.4c2.3-1.3,4.4-1.5,5.7-0.6L148.4,21.7z"/>
	</g>
	<g>
		<defs>
			<path id="SVGID_3_" d="M137.9,19.6L7.4,95c-2.3,1.3-4.4,3.6-5.7,6l5.1,3.1c1.3-2.5,3.4-4.8,5.8-6.2l130.6-75.4
				c2.1-1.2,4-1.4,5.3-0.8l-4.7-2.7c-0.6-0.4-1.3-0.6-2.1-0.6C140.5,18.4,139.3,18.8,137.9,19.6"/>
		</defs>
		<clipPath id="SVGID_4_">
			<use xlink:href="#SVGID_3_"  overflow="visible"/>
		</clipPath>
	</g>
	<g>
		<defs>
			<path id="SVGID_5_" d="M0,106.6v87.7c0,2,0.8,3.4,2.1,3.9l4.6,2.7c-1-0.7-1.6-1.9-1.6-3.6v-87.7c0-1.7,0.6-3.6,1.6-5.4L1.6,101
				C0.6,102.9,0,104.8,0,106.6"/>
		</defs>
		<clipPath id="SVGID_6_">
			<use xlink:href="#SVGID_5_"  overflow="visible"/>
		</clipPath>
	</g>
	<g>
		<defs>
			<path id="SVGID_7_" d="M143.1,22.5L12.5,97.9c-2.3,1.4-4.4,3.7-5.8,6.2c-1,1.8-1.6,3.7-1.6,5.4v87.7c0,1.7,0.6,2.9,1.6,3.6
				c0.2,0.1,0.3,0.2,0.5,0.3c0.7,0.3,1.5,0.4,2.4,0.3c0.9-0.1,1.9-0.5,2.9-1.1L143.1,125c4.1-2.3,7.4-7.5,7.4-11.6V25.6
				c0-0.1,0-0.3,0-0.4c-0.1-1.5-0.6-2.6-1.5-3.2l0,0c-0.2-0.1-0.3-0.2-0.5-0.3c-0.5-0.2-1-0.3-1.6-0.3
				C145.7,21.4,144.4,21.7,143.1,22.5"/>
		</defs>
		<linearGradient id="SVGID_8_" gradientUnits="userSpaceOnUse" x1="5.1593" y1="111.4553" x2="150.4329" y2="111.4553">
			<stop  offset="0" style="stop-color:#003366"/>
			<stop  offset="1" style="stop-color:#0066BA"/>
		</linearGradient>
		<use xlink:href="#SVGID_7_"  overflow="visible" fill="url(#SVGID_8_)"/>
		<clipPath id="SVGID_9_">
			<use xlink:href="#SVGID_7_"  overflow="visible"/>
		</clipPath>
	</g>
	<g>
		<path fill="#FFFFFF" d="M117.8,96l-18.4,10.6c-0.7,0.4-1.5-0.1-1.5-0.9v-5.2c0-0.4,0.2-0.7,0.5-0.9l18.4-10.6
			c0.7-0.4,1.5,0.1,1.5,0.9v5.2C118.3,95.5,118.1,95.8,117.8,96"/>
		<path fill="#FFFFFF" d="M141.9,68L98,93.3c-0.4,0.3-1-0.1-1-0.6v-6c0-0.2,0.1-0.4,0.3-0.6l43.9-25.3c0.4-0.3,1,0.1,1,0.6v6
			C142.2,67.6,142.1,67.8,141.9,68"/>
	</g>
	<g>
		<defs>
			<path id="SVGID_10_" d="M15.7,114.3v24.6c0,8.2,3.2,13.7,8.5,16.2l0,0l11.5,6.6l0,0c-4.8-2.6-7.6-8-7.6-15.7v-26.7
				c0-1.1,0.3-2.2,0.8-3.1l-12-6.4C16.1,111.1,15.7,112.7,15.7,114.3"/>
		</defs>
		<linearGradient id="SVGID_11_" gradientUnits="userSpaceOnUse" x1="25.7129" y1="155.1929" x2="25.7129" y2="114.0197">
			<stop  offset="0" style="stop-color:#6E788C"/>
			<stop  offset="1" style="stop-color:#C8C8C8"/>
		</linearGradient>
		<use xlink:href="#SVGID_10_"  overflow="visible" fill="url(#SVGID_11_)"/>
		<clipPath id="SVGID_12_">
			<use xlink:href="#SVGID_10_"  overflow="visible"/>
		</clipPath>
	</g>
	<g>
		<defs>
			<path id="SVGID_13_" d="M67.7,78.6l-46.9,27c-1.7,1-3.1,2.4-3.9,4.1l12,6.4c0.6-1,1.4-1.8,2.4-2.4l49.8-28.7
				c0.6-0.4,1.3-0.5,1.9-0.4l-10.5-6c-0.7-0.4-1.6-0.6-2.4-0.6C69.3,77.9,68.4,78.2,67.7,78.6"/>
		</defs>
		<linearGradient id="SVGID_14_" gradientUnits="userSpaceOnUse" x1="77.3995" y1="82.2403" x2="20.077" y2="111.9199">
			<stop  offset="0" style="stop-color:#6E788C"/>
			<stop  offset="1" style="stop-color:#C8C8C8"/>
		</linearGradient>
		<use xlink:href="#SVGID_13_"  overflow="visible" fill="url(#SVGID_14_)"/>
		<clipPath id="SVGID_15_">
			<use xlink:href="#SVGID_13_"  overflow="visible"/>
		</clipPath>
	</g>
	<g>
		<defs>
			<path id="SVGID_16_" d="M81.1,84.9l-49.8,28.7c-1,0.6-1.8,1.4-2.4,2.4c-0.5,0.9-0.8,2-0.8,3.1v26.7c0,7.7,2.9,13.1,7.6,15.7
				c5.6,3.1,13.7,2.3,22.8-2.9c16.8-9.7,27-29.2,27-46V87.5c0-1.5-1.1-2.7-2.5-2.9c-0.2,0-0.3,0-0.5,0
				C82.1,84.5,81.6,84.7,81.1,84.9"/>
		</defs>
		<linearGradient id="SVGID_17_" gradientUnits="userSpaceOnUse" x1="28.0604" y1="124.0006" x2="85.4879" y2="124.0006">
			<stop  offset="0" style="stop-color:#6ECA44"/>
			<stop  offset="1" style="stop-color:#86D776"/>
		</linearGradient>
		<use xlink:href="#SVGID_16_"  overflow="visible" fill="url(#SVGID_17_)"/>
		<clipPath id="SVGID_18_">
			<use xlink:href="#SVGID_16_"  overflow="visible"/>
		</clipPath>
	</g>
	<g>
		<defs>
			<path id="SVGID_19_" d="M58.9,113.8c-5,2.9-9,9.2-9,14.2c0,2.9,1.4,4.7,3.6,5.1v7.2c0,3,2.4,4,5.4,2.3c3-1.7,5.4-5.5,5.4-8.5
				v-7.2c2.2-2.9,3.6-6.3,3.6-9.3c0-3.3-1.8-5.2-4.5-5.2C62,112.4,60.5,112.8,58.9,113.8"/>
		</defs>
		<linearGradient id="SVGID_20_" gradientUnits="userSpaceOnUse" x1="65.6617" y1="130.9206" x2="51.1913" y2="123.1454">
			<stop  offset="0" style="stop-color:#167E3D"/>
			<stop  offset="1" style="stop-color:#084823"/>
		</linearGradient>
		<use xlink:href="#SVGID_19_"  overflow="visible" fill="url(#SVGID_20_)"/>
		<clipPath id="SVGID_21_">
			<use xlink:href="#SVGID_19_"  overflow="visible"/>
		</clipPath>
	</g>
	<g>
		<defs>
			<path id="SVGID_22_" d="M49.5,49.2c-9,4.1-13.6,9.3-18,16.2c-4.4,6.9-6.2,15.3-6.2,22v18.4c0,0.7,0.5,1.5,1.5,2.1
				c0.5,0.3,1.1,0.5,1.8,0.7c0.6,0.1,1.1,0.2,1.7,0.2h0c1.3,0,2.6-0.3,3.6-0.8c1-0.6,1.5-1.3,1.5-2.1c0,0,0,0,0,0V81.6
				c0-3.9,1.6-8.4,4.1-12.4c2.6-4,6.1-7.7,10-9.9c3.4-1.9,6.5-2.6,8.9-2h0c1.3,0.3,2.5,1,3.3,1.9c1.2,1.4,1.9,3.4,1.9,6.1v18.5
				c0,0.7,0.5,1.5,1.5,2.1c0.5,0.3,1.1,0.5,1.8,0.7c0.6,0.1,1.1,0.2,1.7,0.2c1.3,0,2.6-0.3,3.6-0.8c1-0.6,1.5-1.3,1.5-2.1h0V64.1
				c0-5.2-2.6-9.5-6.4-12.3c-3.3-2.5-7.4-3.9-11.4-3.9C53.6,47.9,51.4,48.3,49.5,49.2"/>
		</defs>
		<linearGradient id="SVGID_23_" gradientUnits="userSpaceOnUse" x1="25.2293" y1="78.3287" x2="73.6779" y2="78.3287">
			<stop  offset="0" style="stop-color:#6E788C"/>
			<stop  offset="1" style="stop-color:#C8C8C8"/>
		</linearGradient>
		<use xlink:href="#SVGID_22_"  overflow="visible" fill="url(#SVGID_23_)"/>
		<clipPath id="SVGID_24_">
			<use xlink:href="#SVGID_22_"  overflow="visible"/>
		</clipPath>
	</g>
	<g>
		<defs>
			<path id="SVGID_25_" d="M61.7,59.2c1.2,1.4,1.9,3.4,1.9,6.1v18.5c0,0.7,0.5,1.5,1.5,2.1V64.3c0-3.8-3-6.9-6.8-7
				C59.7,57.6,60.8,58.2,61.7,59.2"/>
		</defs>
		<linearGradient id="SVGID_26_" gradientUnits="userSpaceOnUse" x1="61.7191" y1="54.3996" x2="61.7191" y2="79.6191">
			<stop  offset="0" style="stop-color:#6E788C"/>
			<stop  offset="1" style="stop-color:#C8C8C8"/>
		</linearGradient>
		<use xlink:href="#SVGID_25_"  overflow="visible" fill="url(#SVGID_26_)"/>
		<clipPath id="SVGID_27_">
			<use xlink:href="#SVGID_25_"  overflow="visible"/>
		</clipPath>
	</g>
	<g>
		<g>
			<defs>
				<path id="SVGID_28_" d="M170.2,190.1c-0.6,0.3-1.1,0.7-1.6,1h-7.1v11.1v0v0.5h0c0.2,4.2,3.1,8.4,8.7,11.6
					c11.6,6.7,30.5,6.7,42.1,0c5.6-3.2,8.5-7.4,8.7-11.6h0v-11.7h-7.1c-0.5-0.4-1.1-0.7-1.6-1c-5.8-3.4-13.4-5-21-5
					C183.6,185.1,176,186.8,170.2,190.1"/>
			</defs>
			<linearGradient id="SVGID_29_" gradientUnits="userSpaceOnUse" x1="161.4397" y1="202.2679" x2="220.9574" y2="202.2679">
				<stop  offset="0" style="stop-color:#003366"/>
				<stop  offset="1" style="stop-color:#0066BA"/>
			</linearGradient>
			<use xlink:href="#SVGID_28_"  overflow="visible" fill="url(#SVGID_29_)"/>
			<clipPath id="SVGID_30_">
				<use xlink:href="#SVGID_28_"  overflow="visible"/>
			</clipPath>
		</g>
		<g>
			<defs>
				<path id="SVGID_31_" d="M170.2,179c-11.6,6.7-11.6,17.6,0,24.3c11.6,6.7,30.5,6.7,42.1,0c11.6-6.7,11.6-17.6,0-24.3
					c-5.8-3.4-13.4-5-21-5C183.6,174,176,175.6,170.2,179"/>
			</defs>
			<linearGradient id="SVGID_32_" gradientUnits="userSpaceOnUse" x1="161.4399" y1="191.1427" x2="220.9572" y2="191.1427">
				<stop  offset="0" style="stop-color:#003366"/>
				<stop  offset="1" style="stop-color:#0066BA"/>
			</linearGradient>
			<use xlink:href="#SVGID_31_"  overflow="visible" fill="url(#SVGID_32_)"/>
			<clipPath id="SVGID_33_">
				<use xlink:href="#SVGID_31_"  overflow="visible"/>
			</clipPath>
		</g>
		<g>
			<linearGradient id="SVGID_34_" gradientUnits="userSpaceOnUse" x1="165.487" y1="191.1426" x2="216.91" y2="191.1426">
				<stop  offset="0" style="stop-color:#6E788C"/>
				<stop  offset="1" style="stop-color:#C8C8C8"/>
			</linearGradient>
			<path fill="url(#SVGID_34_)" d="M173,180.6c-10,5.8-10,15.2,0,21c10,5.8,26.3,5.8,36.4,0c10-5.8,10-15.2,0-21
				C199.3,174.8,183.1,174.8,173,180.6"/>
			<path fill="#EBEBEB" d="M174.2,183.1c0,1.3,3.4,2.3,7.7,2.3c4.2,0,7.7-1,7.7-2.3c0-1.3-3.4-2.3-7.7-2.3
				C177.6,180.8,174.2,181.8,174.2,183.1"/>
		</g>
		<g>
			<defs>
				<path id="SVGID_35_" d="M167.3,204.9c-0.1,0-0.2,0.1-0.2,0.1c0,0,0,0,0,0l-46,26.5v3.3c0.5,0.9,1.3,1.8,2.2,2.3
					c0.8,0.5,1.5,0.5,2,0.3l0.1-0.1l45.9-26.4v0c0,0,0,0,0,0l0.1-0.1c0.4-0.2,0.6-0.7,0.6-1.4c0-0.7-0.3-1.6-0.8-2.3
					c-0.5-0.8-1.2-1.5-2-2c-0.5-0.3-1-0.4-1.4-0.4C167.7,204.8,167.5,204.8,167.3,204.9"/>
			</defs>
			<linearGradient id="SVGID_36_" gradientUnits="userSpaceOnUse" x1="121.0518" y1="221.1787" x2="171.9541" y2="221.1787">
				<stop  offset="0" style="stop-color:#6E788C"/>
				<stop  offset="1" style="stop-color:#C8C8C8"/>
			</linearGradient>
			<use xlink:href="#SVGID_35_"  overflow="visible" fill="url(#SVGID_36_)"/>
			<clipPath id="SVGID_37_">
				<use xlink:href="#SVGID_35_"  overflow="visible"/>
			</clipPath>
		</g>
		<g>
			<linearGradient id="SVGID_38_" gradientUnits="userSpaceOnUse" x1="120.4892" y1="234.4382" x2="125.9262" y2="234.4382">
				<stop  offset="0" style="stop-color:#6E788C"/>
				<stop  offset="1" style="stop-color:#C8C8C8"/>
			</linearGradient>
			<path fill="url(#SVGID_38_)" d="M120.5,232.9c0,0.6,0.2,1.3,0.6,2c0.5,0.9,1.3,1.8,2.2,2.3c0.8,0.5,1.5,0.5,2,0.3l0.1-0.1
				c0.4-0.2,0.6-0.7,0.6-1.4c0-1.5-1.2-3.4-2.7-4.3c-0.9-0.5-1.7-0.5-2.2-0.2C120.7,231.8,120.5,232.2,120.5,232.9"/>
		</g>
		<g>
			<defs>
				<path id="SVGID_39_" d="M121.1,231.5c-0.4,0.3-0.6,0.7-0.6,1.3s0.2,1.3,0.6,2c0.5,0.9,1.3,1.8,2.2,2.3c0.8,0.5,1.5,0.5,2,0.3
					l0.1-0.1c0.4-0.2,0.6-0.7,0.6-1.4c0-1.5-1.2-3.4-2.7-4.3c-0.5-0.3-1-0.4-1.4-0.4C121.5,231.3,121.3,231.4,121.1,231.5"/>
			</defs>
			<clipPath id="SVGID_40_">
				<use xlink:href="#SVGID_39_"  overflow="visible"/>
			</clipPath>
		</g>
	</g>
	<g>
		<g>
			<defs>
				<path id="SVGID_41_" d="M98.6,121.6v45.7c0,0.5,0.3,0.9,0.6,1.1l0,0c0,0,0,0,0.1,0l1.9,1.1c-0.3-0.2-0.6-0.6-0.6-1l0,0
					c0,0,0,0,0,0v-45.7c0-0.2,0.1-0.4,0.2-0.6l-2-1.1C98.6,121.1,98.6,121.3,98.6,121.6"/>
			</defs>
			<linearGradient id="SVGID_42_" gradientUnits="userSpaceOnUse" x1="99.8591" y1="165.0681" x2="99.8591" y2="121.3608">
				<stop  offset="0" style="stop-color:#6E788C"/>
				<stop  offset="1" style="stop-color:#C8C8C8"/>
			</linearGradient>
			<use xlink:href="#SVGID_41_"  overflow="visible" fill="url(#SVGID_42_)"/>
			<clipPath id="SVGID_43_">
				<use xlink:href="#SVGID_41_"  overflow="visible"/>
			</clipPath>
		</g>
		<g>
			<defs>
				<path id="SVGID_44_" d="M241.7,38L99.2,120.4c-0.2,0.1-0.4,0.3-0.5,0.5l2,1.1c0.1-0.2,0.3-0.4,0.5-0.5l142.5-82.4c0,0,0,0,0,0v0
					h0c0.4-0.2,0.9-0.2,1.3,0L243,38c0,0,0,0,0,0l0,0c-0.2-0.1-0.4-0.2-0.6-0.2C242.1,37.9,241.9,37.9,241.7,38"/>
			</defs>
			<linearGradient id="SVGID_45_" gradientUnits="userSpaceOnUse" x1="201.2045" y1="62.9039" x2="116.4658" y2="111.7814">
				<stop  offset="0" style="stop-color:#6E788C"/>
				<stop  offset="1" style="stop-color:#C8C8C8"/>
			</linearGradient>
			<use xlink:href="#SVGID_44_"  overflow="visible" fill="url(#SVGID_45_)"/>
			<clipPath id="SVGID_46_">
				<use xlink:href="#SVGID_44_"  overflow="visible"/>
			</clipPath>
		</g>
		<g>
			<defs>
				<path id="SVGID_47_" d="M243.7,39.2C243.7,39.2,243.7,39.2,243.7,39.2C243.7,39.2,243.7,39.2,243.7,39.2l-142.5,82.4
					c-0.2,0.1-0.4,0.3-0.5,0.5c-0.1,0.2-0.2,0.4-0.2,0.6v45.7c0,0,0,0,0,0c0,0.4,0.2,0.8,0.6,1l0.2,0.1c0.4,0.2,0.8,0.2,1.2-0.1
					L245,87.2c0.4-0.2,0.7-0.7,0.7-1.2V40.3c0-0.5-0.3-0.9-0.7-1.2l0,0c-0.2-0.1-0.4-0.2-0.6-0.2C244.1,39,243.9,39.1,243.7,39.2"/>
			</defs>
			<linearGradient id="SVGID_48_" gradientUnits="userSpaceOnUse" x1="100.5646" y1="104.3684" x2="245.6962" y2="104.3684">
				<stop  offset="0" style="stop-color:#6E788C"/>
				<stop  offset="1" style="stop-color:#C8C8C8"/>
			</linearGradient>
			<use xlink:href="#SVGID_47_"  overflow="visible" fill="url(#SVGID_48_)"/>
			<clipPath id="SVGID_49_">
				<use xlink:href="#SVGID_47_"  overflow="visible"/>
			</clipPath>
		</g>
		<g>
			<g>
				<defs>
					<path id="SVGID_50_" d="M125.7,135.5v45.7c0,0.5,0.3,0.9,0.6,1.1l0,0c0,0,0,0,0.1,0l1.9,1.1c-0.3-0.2-0.6-0.6-0.6-1l0,0
						c0,0,0,0,0,0v-45.7c0-0.2,0.1-0.4,0.2-0.6l-2-1.1C125.7,135.1,125.7,135.3,125.7,135.5"/>
				</defs>
				<linearGradient id="SVGID_51_" gradientUnits="userSpaceOnUse" x1="125.6525" y1="159.202" x2="128.2252" y2="159.202">
					<stop  offset="0" style="stop-color:#003366"/>
					<stop  offset="1" style="stop-color:#0066BA"/>
				</linearGradient>
				<use xlink:href="#SVGID_50_"  overflow="visible" fill="url(#SVGID_51_)"/>
				<clipPath id="SVGID_52_">
					<use xlink:href="#SVGID_50_"  overflow="visible"/>
				</clipPath>
			</g>
			<g>
				<defs>
					<path id="SVGID_53_" d="M268.8,52l-142.5,82.4c-0.2,0.1-0.4,0.3-0.5,0.5l2,1.1c0.1-0.2,0.3-0.4,0.5-0.5l142.5-82.4c0,0,0,0,0,0
						v0h0c0.4-0.2,0.9-0.2,1.3,0l-1.9-1.1c0,0,0,0,0,0l0,0c-0.2-0.1-0.4-0.2-0.6-0.2C269.2,51.8,269,51.9,268.8,52"/>
				</defs>
				<linearGradient id="SVGID_54_" gradientUnits="userSpaceOnUse" x1="125.8003" y1="93.9592" x2="272.058" y2="93.9592">
					<stop  offset="0" style="stop-color:#003366"/>
					<stop  offset="1" style="stop-color:#0066BA"/>
				</linearGradient>
				<use xlink:href="#SVGID_53_"  overflow="visible" fill="url(#SVGID_54_)"/>
				<clipPath id="SVGID_55_">
					<use xlink:href="#SVGID_53_"  overflow="visible"/>
				</clipPath>
			</g>
			<g>
				<defs>
					<path id="SVGID_56_" d="M270.8,53.2C270.8,53.2,270.8,53.2,270.8,53.2C270.8,53.2,270.8,53.2,270.8,53.2l-142.5,82.4
						c-0.2,0.1-0.4,0.3-0.5,0.5c-0.1,0.2-0.2,0.4-0.2,0.6v45.7c0,0,0,0,0,0c0,0.4,0.2,0.8,0.6,1l0.2,0.1c0.4,0.2,0.8,0.2,1.2-0.1
						l142.5-82.4c0.4-0.2,0.7-0.7,0.7-1.2V54.3c0-0.5-0.3-0.9-0.7-1.2c0,0,0,0,0,0c-0.2-0.1-0.4-0.2-0.6-0.2
						C271.2,53,271,53,270.8,53.2"/>
				</defs>
				<linearGradient id="SVGID_57_" gradientUnits="userSpaceOnUse" x1="127.6444" y1="118.3522" x2="272.776" y2="118.3522">
					<stop  offset="0" style="stop-color:#003366"/>
					<stop  offset="1" style="stop-color:#0066BA"/>
				</linearGradient>
				<use xlink:href="#SVGID_56_"  overflow="visible" fill="url(#SVGID_57_)"/>
				<clipPath id="SVGID_58_">
					<use xlink:href="#SVGID_56_"  overflow="visible"/>
				</clipPath>
			</g>
			<path fill="#FFFFFF" d="M162.6,140.5c0,3.9-3.1,8.8-7,11c-3.9,2.2-7,0.9-7-3c0-3.9,3.1-8.8,7-11
				C159.5,135.3,162.6,136.6,162.6,140.5"/>
			<path fill="#FFFFFF" d="M185.6,127.9c0,3.9-3.1,8.8-7,11c-3.9,2.2-7,0.9-7-3c0-3.9,3.1-8.8,7-11
				C182.5,122.7,185.6,124,185.6,127.9"/>
			<path fill="#FFFFFF" d="M208.6,114.7c0,3.9-3.1,8.8-7,11c-3.9,2.2-7,0.9-7-3c0-3.9,3.1-8.8,7-11
				C205.5,109.5,208.6,110.8,208.6,114.7"/>
			<path fill="#FFFFFF" d="M231.6,101.3c0,3.9-3.1,8.8-7,11c-3.9,2.2-7,0.9-7-3s3.1-8.8,7-11C228.5,96.1,231.6,97.5,231.6,101.3"/>
			<path fill="#FFFFFF" d="M254.6,88.1c0,3.9-3.1,8.8-7,11c-3.9,2.2-7,0.9-7-3c0-3.9,3.1-8.8,7-11C251.5,83,254.6,84.3,254.6,88.1"
				/>
			<g>
				<defs>
					<path id="SVGID_59_" d="M239.9,110.1v30.2c0,0.3,0.2,0.6,0.4,0.7l0,0c0,0,0,0,0,0l1.9,1.1c-0.2-0.2-0.4-0.4-0.4-0.7v-30.2
						c0-0.2,0.1-0.3,0.1-0.5l-2.1-1.1C240,109.8,239.9,109.9,239.9,110.1"/>
				</defs>
				<linearGradient id="SVGID_60_" gradientUnits="userSpaceOnUse" x1="241.1267" y1="141.502" x2="241.1267" y2="111.6946">
					<stop  offset="0" style="stop-color:#6ECA44"/>
					<stop  offset="1" style="stop-color:#86D776"/>
				</linearGradient>
				<use xlink:href="#SVGID_59_"  overflow="visible" fill="url(#SVGID_60_)"/>
				<clipPath id="SVGID_61_">
					<use xlink:href="#SVGID_59_"  overflow="visible"/>
				</clipPath>
			</g>
			<g>
				<defs>
					<path id="SVGID_62_" d="M287.9,81.7l-47.5,27.7c-0.2,0.1-0.3,0.2-0.3,0.4l2.1,1.1c0.1-0.1,0.2-0.2,0.3-0.3l47.5-27.7
						c0.3-0.2,0.6-0.2,0.8,0l-1.9-1.1c0,0,0,0,0,0l0,0v0c-0.1-0.1-0.3-0.1-0.4-0.1C288.2,81.5,288.1,81.6,287.9,81.7"/>
				</defs>
				<linearGradient id="SVGID_63_" gradientUnits="userSpaceOnUse" x1="285.7638" y1="84.2845" x2="240.7881" y2="110.388">
					<stop  offset="0" style="stop-color:#6ECA44"/>
					<stop  offset="1" style="stop-color:#86D776"/>
				</linearGradient>
				<use xlink:href="#SVGID_62_"  overflow="visible" fill="url(#SVGID_63_)"/>
				<clipPath id="SVGID_64_">
					<use xlink:href="#SVGID_62_"  overflow="visible"/>
				</clipPath>
			</g>
			<g>
				<defs>
					<path id="SVGID_65_" d="M289.9,82.8l-47.5,27.7c-0.1,0.1-0.2,0.2-0.3,0.3c-0.1,0.1-0.1,0.3-0.1,0.5v30.2c0,0.3,0.1,0.6,0.4,0.7
						l0.2,0.1c0,0,0,0,0,0c0.2,0.1,0.5,0.1,0.8,0l47.5-27.7c0.3-0.2,0.4-0.5,0.4-0.8V83.6c0-0.4-0.2-0.7-0.5-0.8
						c-0.1,0-0.2-0.1-0.4-0.1C290.2,82.7,290.1,82.7,289.9,82.8"/>
				</defs>
				<linearGradient id="SVGID_66_" gradientUnits="userSpaceOnUse" x1="241.9565" y1="112.5146" x2="291.2717" y2="112.5146">
					<stop  offset="0" style="stop-color:#6ECA44"/>
					<stop  offset="1" style="stop-color:#86D776"/>
				</linearGradient>
				<use xlink:href="#SVGID_65_"  overflow="visible" fill="url(#SVGID_66_)"/>
				<clipPath id="SVGID_67_">
					<use xlink:href="#SVGID_65_"  overflow="visible"/>
				</clipPath>
			</g>
			<linearGradient id="SVGID_68_" gradientUnits="userSpaceOnUse" x1="285.0897" y1="108.5894" x2="285.0897" y2="133.9371">
				<stop  offset="0" style="stop-color:#969696"/>
				<stop  offset="1" style="stop-color:#C8C8C8"/>
			</linearGradient>
			<path fill="url(#SVGID_68_)" d="M297.5,113.7l-1.2-0.6c0,0-0.1,0-0.1-0.1l-21.8-6.1c-0.7-0.2-1.7,0.9-1.7,1.8v27.8
				c0,0.3,0.1,0.5,0.4,0.6l0,0l3.5,1l-0.2-1c0.2-0.1,0.3-0.3,0.4-0.5l1.1-18.1c0.2-0.3,2.1-3.7,2.4-3.8l15.2,0.7
				c0.6-0.3,0.9-0.9,1-1.4C297,113.8,297.5,113.7,297.5,113.7"/>
			<g>
				<defs>
					<path id="SVGID_69_" d="M276.1,109.7v27.8c0,1,1.2,0.7,1.8-0.4l7.6-12.8c0.2-0.3,0.5-0.6,0.8-0.8l12.6-7.3c1-0.6,1.4-2,0.7-2.2
						l-21.8-6.1c-0.1,0-0.1,0-0.2,0C277,107.9,276.1,108.9,276.1,109.7"/>
				</defs>
				<linearGradient id="SVGID_70_" gradientUnits="userSpaceOnUse" x1="276.083" y1="123.0296" x2="300.0002" y2="123.0296">
					<stop  offset="0" style="stop-color:#969696"/>
					<stop  offset="1" style="stop-color:#C8C8C8"/>
				</linearGradient>
				<use xlink:href="#SVGID_69_"  overflow="visible" fill="url(#SVGID_70_)"/>
				<clipPath id="SVGID_71_">
					<use xlink:href="#SVGID_69_"  overflow="visible"/>
				</clipPath>
			</g>
		</g>
	</g>
	<g>
		<defs>
			<path id="SVGID_72_" d="M249.5,172c-1.1,0.6-2.1,1.4-3,2.2c-0.1,0.1-0.2,0.2-0.3,0.3c-3,2.7-3,6.4-2,9.8
				c1.8,6.3,6.9,11.1,13.2,12.8c4.4,1.2,10.2,1.5,16.6-1.1c2.9-1.2,4.7-2.7,5.8-4.5c4.1-6.9-3.7-16.9-9.5-19.9l-0.3-0.1
				c-3.1-1.6-6.5-2.4-9.9-2.4C256.5,169.1,252.8,170.1,249.5,172"/>
		</defs>
		<linearGradient id="SVGID_73_" gradientUnits="userSpaceOnUse" x1="243.5811" y1="183.5782" x2="280.9112" y2="183.5782">
			<stop  offset="0" style="stop-color:#6ECA44"/>
			<stop  offset="1" style="stop-color:#86D776"/>
		</linearGradient>
		<use xlink:href="#SVGID_72_"  overflow="visible" fill="url(#SVGID_73_)"/>
		<clipPath id="SVGID_74_">
			<use xlink:href="#SVGID_72_"  overflow="visible"/>
		</clipPath>
	</g>
	<g>
		<defs>
			<path id="SVGID_75_" d="M278.8,187.1v12.4c0,0.4,0.3,0.7,0.7,0.7c0.4,0,0.7-0.3,0.7-0.7v-12.4c0-0.4-0.3-0.7-0.7-0.7
				C279.1,186.5,278.8,186.8,278.8,187.1"/>
		</defs>
		<linearGradient id="SVGID_76_" gradientUnits="userSpaceOnUse" x1="278.7993" y1="193.3292" x2="280.1627" y2="193.3292">
			<stop  offset="0" style="stop-color:#003366"/>
			<stop  offset="1" style="stop-color:#0066BA"/>
		</linearGradient>
		<use xlink:href="#SVGID_75_"  overflow="visible" fill="url(#SVGID_76_)"/>
		<clipPath id="SVGID_77_">
			<use xlink:href="#SVGID_75_"  overflow="visible"/>
		</clipPath>
	</g>
	<g>
		<defs>
			<path id="SVGID_78_" d="M270,188.7c0,3.8,3.1,6.9,6.9,6.9s6.9-3.1,6.9-6.9c0-3.8-3.1-6.9-6.9-6.9S270,185,270,188.7"/>
		</defs>
		<linearGradient id="SVGID_79_" gradientUnits="userSpaceOnUse" x1="269.9574" y1="188.7386" x2="283.6621" y2="188.7386">
			<stop  offset="0" style="stop-color:#167E3D"/>
			<stop  offset="1" style="stop-color:#084823"/>
		</linearGradient>
		<use xlink:href="#SVGID_78_"  overflow="visible" fill="url(#SVGID_79_)"/>
		<clipPath id="SVGID_80_">
			<use xlink:href="#SVGID_78_"  overflow="visible"/>
		</clipPath>
	</g>
	<g>
		<defs>
			<path id="SVGID_81_" d="M261.3,192.7l-8.1,4c-0.2,0.1-0.4,0.4-0.4,0.6v7.2c0,0.4,0.3,0.7,0.7,0.7s0.7-0.3,0.7-0.7v-6.8l7.7-3.8
				c0.3-0.2,0.5-0.6,0.3-0.9c-0.1-0.2-0.4-0.4-0.6-0.4C261.5,192.6,261.4,192.7,261.3,192.7"/>
		</defs>
		<linearGradient id="SVGID_82_" gradientUnits="userSpaceOnUse" x1="259.4614" y1="193.267" x2="250.4447" y2="204.6505">
			<stop  offset="0" style="stop-color:#003366"/>
			<stop  offset="1" style="stop-color:#0066BA"/>
		</linearGradient>
		<use xlink:href="#SVGID_81_"  overflow="visible" fill="url(#SVGID_82_)"/>
		<clipPath id="SVGID_83_">
			<use xlink:href="#SVGID_81_"  overflow="visible"/>
		</clipPath>
	</g>
	<g>
		<defs>
			<path id="SVGID_84_" d="M252.5,189.3l-6.2,3c-0.2,0.1-0.4,0.4-0.4,0.6v8.4c0,0.4,0.3,0.7,0.7,0.7c0.4,0,0.7-0.3,0.7-0.7v-8
				l5.8-2.8c0.3-0.2,0.5-0.6,0.3-0.9c-0.1-0.2-0.4-0.4-0.6-0.4C252.7,189.2,252.6,189.2,252.5,189.3"/>
		</defs>
		<linearGradient id="SVGID_85_" gradientUnits="userSpaceOnUse" x1="253.1497" y1="188.8441" x2="244.133" y2="200.2276">
			<stop  offset="0" style="stop-color:#003366"/>
			<stop  offset="1" style="stop-color:#0066BA"/>
		</linearGradient>
		<use xlink:href="#SVGID_84_"  overflow="visible" fill="url(#SVGID_85_)"/>
		<clipPath id="SVGID_86_">
			<use xlink:href="#SVGID_84_"  overflow="visible"/>
		</clipPath>
	</g>
	<g>
		<defs>
			<path id="SVGID_87_" d="M247,183.5l-6.2,3c-0.2,0.1-0.4,0.4-0.4,0.6v11.1c0,0.4,0.3,0.7,0.7,0.7c0.4,0,0.7-0.3,0.7-0.7v-10.7
				l5.8-2.8c0.3-0.2,0.5-0.6,0.3-0.9c-0.1-0.2-0.4-0.4-0.6-0.4C247.2,183.4,247.1,183.4,247,183.5"/>
		</defs>
		<linearGradient id="SVGID_88_" gradientUnits="userSpaceOnUse" x1="247.7024" y1="184.4156" x2="238.6857" y2="195.7992">
			<stop  offset="0" style="stop-color:#003366"/>
			<stop  offset="1" style="stop-color:#0066BA"/>
		</linearGradient>
		<use xlink:href="#SVGID_87_"  overflow="visible" fill="url(#SVGID_88_)"/>
		<clipPath id="SVGID_89_">
			<use xlink:href="#SVGID_87_"  overflow="visible"/>
		</clipPath>
	</g>
	<g>
		<defs>
			<path id="SVGID_90_" d="M81.5,198c0.6,0.3,1.1,0.7,1.6,1.2c0.1,0.1,0.1,0.1,0.2,0.2c1.5,1.4,1.6,3.3,1.1,5.1
				c-0.9,3.3-3.6,5.8-6.8,6.6c-2.3,0.6-5.3,0.8-8.6-0.6c-1.5-0.6-2.4-1.4-3-2.3c-2.1-3.5,1.9-8.7,4.9-10.3l0.1-0.1
				c1.6-0.8,3.4-1.3,5.1-1.3C77.9,196.5,79.8,197,81.5,198"/>
		</defs>

			<linearGradient id="SVGID_91_" gradientUnits="userSpaceOnUse" x1="-229.0281" y1="203.9619" x2="-209.7024" y2="203.9619" gradientTransform="matrix(-1 0 0 1 -144.4408 0)">
			<stop  offset="0" style="stop-color:#6E788C"/>
			<stop  offset="1" style="stop-color:#C8C8C8"/>
		</linearGradient>
		<use xlink:href="#SVGID_90_"  overflow="visible" fill="url(#SVGID_91_)"/>
		<clipPath id="SVGID_92_">
			<use xlink:href="#SVGID_90_"  overflow="visible"/>
		</clipPath>
	</g>
	<g>
		<defs>
			<path id="SVGID_93_" d="M66.4,205.8v6.4c0,0.2-0.2,0.4-0.4,0.4c-0.2,0-0.4-0.2-0.4-0.4v-6.4c0-0.2,0.2-0.4,0.4-0.4
				C66.2,205.5,66.4,205.6,66.4,205.8"/>
		</defs>

			<linearGradient id="SVGID_94_" gradientUnits="userSpaceOnUse" x1="-210.7957" y1="209.01" x2="-210.0898" y2="209.01" gradientTransform="matrix(-1 0 0 1 -144.4408 0)">
			<stop  offset="0" style="stop-color:#003366"/>
			<stop  offset="1" style="stop-color:#0066BA"/>
		</linearGradient>
		<use xlink:href="#SVGID_93_"  overflow="visible" fill="url(#SVGID_94_)"/>
		<clipPath id="SVGID_95_">
			<use xlink:href="#SVGID_93_"  overflow="visible"/>
		</clipPath>
	</g>
	<g>
		<defs>
			<path id="SVGID_96_" d="M70.9,206.6c0,2-1.6,3.5-3.5,3.5c-2,0-3.5-1.6-3.5-3.5s1.6-3.5,3.5-3.5C69.3,203.1,70.9,204.7,70.9,206.6
				"/>
		</defs>

			<linearGradient id="SVGID_97_" gradientUnits="userSpaceOnUse" x1="-215.3731" y1="206.6335" x2="-208.2782" y2="206.6335" gradientTransform="matrix(-1 0 0 1 -144.4408 0)">
			<stop  offset="0" style="stop-color:#6E788C"/>
			<stop  offset="1" style="stop-color:#C8C8C8"/>
		</linearGradient>
		<use xlink:href="#SVGID_96_"  overflow="visible" fill="url(#SVGID_97_)"/>
		<clipPath id="SVGID_98_">
			<use xlink:href="#SVGID_96_"  overflow="visible"/>
		</clipPath>
	</g>
	<g>
		<defs>
			<path id="SVGID_99_" d="M75.4,208.7l4.2,2c0.1,0.1,0.2,0.2,0.2,0.3v3.7c0,0.2-0.2,0.4-0.4,0.4c-0.2,0-0.4-0.2-0.4-0.4v-3.5l-4-2
				c-0.2-0.1-0.2-0.3-0.2-0.5c0.1-0.1,0.2-0.2,0.3-0.2C75.3,208.7,75.4,208.7,75.4,208.7"/>
		</defs>

			<linearGradient id="SVGID_100_" gradientUnits="userSpaceOnUse" x1="-220.8069" y1="208.9778" x2="-225.4748" y2="214.8711" gradientTransform="matrix(-1 0 0 1 -144.4408 0)">
			<stop  offset="0" style="stop-color:#003366"/>
			<stop  offset="1" style="stop-color:#0066BA"/>
		</linearGradient>
		<use xlink:href="#SVGID_99_"  overflow="visible" fill="url(#SVGID_100_)"/>
		<clipPath id="SVGID_101_">
			<use xlink:href="#SVGID_99_"  overflow="visible"/>
		</clipPath>
	</g>
	<g>
		<defs>
			<path id="SVGID_102_" d="M80,206.9l3.2,1.6c0.1,0.1,0.2,0.2,0.2,0.3v4.4c0,0.2-0.2,0.4-0.4,0.4c-0.2,0-0.4-0.2-0.4-0.4V209
				l-3-1.5c-0.2-0.1-0.2-0.3-0.2-0.5c0.1-0.1,0.2-0.2,0.3-0.2C79.9,206.9,79.9,206.9,80,206.9"/>
		</defs>

			<linearGradient id="SVGID_103_" gradientUnits="userSpaceOnUse" x1="-224.0744" y1="206.6881" x2="-228.7424" y2="212.5813" gradientTransform="matrix(-1 0 0 1 -144.4408 0)">
			<stop  offset="0" style="stop-color:#003366"/>
			<stop  offset="1" style="stop-color:#0066BA"/>
		</linearGradient>
		<use xlink:href="#SVGID_102_"  overflow="visible" fill="url(#SVGID_103_)"/>
		<clipPath id="SVGID_104_">
			<use xlink:href="#SVGID_102_"  overflow="visible"/>
		</clipPath>
	</g>
	<g>
		<defs>
			<path id="SVGID_105_" d="M82.8,203.9l3.2,1.6c0.1,0.1,0.2,0.2,0.2,0.3v5.8c0,0.2-0.2,0.4-0.4,0.4c-0.2,0-0.4-0.2-0.4-0.4V206
				l-3-1.5c-0.2-0.1-0.2-0.3-0.2-0.5c0.1-0.1,0.2-0.2,0.3-0.2C82.7,203.9,82.8,203.9,82.8,203.9"/>
		</defs>

			<linearGradient id="SVGID_106_" gradientUnits="userSpaceOnUse" x1="-226.8945" y1="204.3955" x2="-231.5625" y2="210.2887" gradientTransform="matrix(-1 0 0 1 -144.4408 0)">
			<stop  offset="0" style="stop-color:#003366"/>
			<stop  offset="1" style="stop-color:#0066BA"/>
		</linearGradient>
		<use xlink:href="#SVGID_105_"  overflow="visible" fill="url(#SVGID_106_)"/>
		<clipPath id="SVGID_107_">
			<use xlink:href="#SVGID_105_"  overflow="visible"/>
		</clipPath>
	</g>
</g>
</svg>
