<?xml version="1.0" encoding="utf-8"?>
<!-- Generator: Adobe Illustrator 19.2.0, SVG Export Plug-In . SVG Version: 6.00 Build 0)  -->
<svg version="1.1" id="Capa_1" xmlns="http://www.w3.org/2000/svg" xmlns:xlink="http://www.w3.org/1999/xlink" x="0px" y="0px"
	 width="451.8px" height="451.8px" viewBox="0 0 451.8 451.8" style="enable-background:new 0 0 451.8 451.8;" xml:space="preserve"
	>
<style type="text/css">
	.st0{fill:#CCCCCC;}
</style>
<g>
	<path class="st0" d="M430.5,143.1L241.7,332c-6.4,6.4-16.8,6.4-23.3,0c-6.4-6.4-6.4-16.8,0-23.3l188.9-188.9
		c6.4-6.4,16.8-6.4,23.3,0C437,126.3,436.9,136.7,430.5,143.1z"/>
	<path class="st0" d="M29.2,119.8c6.4-6.4,16.8-6.4,23.3,0l188.9,188.9c6.4,6.4,6.4,16.8,0,23.3c-6.4,6.4-16.8,6.4-23.3,0
		L29.2,143.1C22.8,136.7,22.8,126.3,29.2,119.8z"/>
</g>
</svg>
