<?xml version="1.0" encoding="utf-8"?>
<!-- Generator: Adobe Illustrator 22.0.0, SVG Export Plug-In . SVG Version: 6.00 Build 0)  -->
<svg version="1.0" id="Ebene_1" xmlns="http://www.w3.org/2000/svg" xmlns:xlink="http://www.w3.org/1999/xlink" x="0px" y="0px"
	 width="320px" height="auto" viewBox="0 0 300 310" enable-background="new 0 0 300 310" xml:space="preserve">
<g>
	<g>
		<defs>
			<path id="SVGID_1_" d="M131.9,280.9c0.6,0.4,1.2,0.8,1.7,1.3c0.1,0.1,0.1,0.1,0.2,0.2c1.7,1.5,1.7,3.6,1.2,5.5
				c-1,3.6-3.9,6.3-7.5,7.2c-2.5,0.7-5.8,0.9-9.4-0.6c-1.6-0.7-2.7-1.5-3.3-2.5c-2.3-3.9,2.1-9.5,5.3-11.2l0.1-0.1
				c1.8-0.9,3.7-1.4,5.6-1.4C127.9,279.2,130,279.8,131.9,280.9"/>
		</defs>

			<linearGradient id="SVGID_2_" gradientUnits="userSpaceOnUse" x1="-279.6575" y1="287.3788" x2="-258.603" y2="287.3788" gradientTransform="matrix(-1 0 0 1 -144.4408 0)">
			<stop  offset="0" style="stop-color:#167E3D"/>
			<stop  offset="1" style="stop-color:#084823"/>
		</linearGradient>
		<use xlink:href="#SVGID_1_"  overflow="visible" fill="url(#SVGID_2_)"/>
		<clipPath id="SVGID_3_">
			<use xlink:href="#SVGID_1_"  overflow="visible"/>
		</clipPath>
	</g>
	<g>
		<defs>
			<path id="SVGID_4_" d="M115.4,289.4v7c0,0.2-0.2,0.4-0.4,0.4c-0.2,0-0.4-0.2-0.4-0.4v-7c0-0.2,0.2-0.4,0.4-0.4
				C115.2,289,115.4,289.2,115.4,289.4"/>
		</defs>
		<use xlink:href="#SVGID_4_"  overflow="visible" fill="#0A5429"/>
		<clipPath id="SVGID_5_">
			<use xlink:href="#SVGID_4_"  overflow="visible"/>
		</clipPath>
	</g>
	<g>
		<defs>
			<path id="SVGID_6_" d="M120.3,290.3c0,2.1-1.7,3.9-3.9,3.9c-2.1,0-3.9-1.7-3.9-3.9c0-2.1,1.7-3.9,3.9-3.9
				C118.6,286.4,120.3,288.2,120.3,290.3"/>
		</defs>
		<linearGradient id="SVGID_7_" gradientUnits="userSpaceOnUse" x1="112.6107" y1="290.2894" x2="120.3403" y2="290.2894">
			<stop  offset="0" style="stop-color:#6ECA44"/>
			<stop  offset="1" style="stop-color:#86D776"/>
		</linearGradient>
		<use xlink:href="#SVGID_6_"  overflow="visible" fill="url(#SVGID_7_)"/>
		<clipPath id="SVGID_8_">
			<use xlink:href="#SVGID_6_"  overflow="visible"/>
		</clipPath>
	</g>
	<g>
		<defs>
			<path id="SVGID_9_" d="M125.2,292.5l4.6,2.2c0.1,0.1,0.2,0.2,0.2,0.3v4.1c0,0.2-0.2,0.4-0.4,0.4s-0.4-0.2-0.4-0.4v-3.8l-4.4-2.1
				c-0.2-0.1-0.3-0.3-0.2-0.5c0.1-0.1,0.2-0.2,0.3-0.2C125.1,292.5,125.2,292.5,125.2,292.5"/>
		</defs>
		<use xlink:href="#SVGID_9_"  overflow="visible" fill="#0A5429"/>
		<clipPath id="SVGID_10_">
			<use xlink:href="#SVGID_9_"  overflow="visible"/>
		</clipPath>
	</g>
	<g>
		<defs>
			<path id="SVGID_11_" d="M130.2,290.6l3.5,1.7c0.1,0.1,0.2,0.2,0.2,0.3v4.8c0,0.2-0.2,0.4-0.4,0.4c-0.2,0-0.4-0.2-0.4-0.4v-4.5
				l-3.3-1.6c-0.2-0.1-0.3-0.3-0.2-0.5c0.1-0.1,0.2-0.2,0.3-0.2C130.1,290.5,130.1,290.6,130.2,290.6"/>
		</defs>
		<use xlink:href="#SVGID_11_"  overflow="visible" fill="#0A5429"/>
		<clipPath id="SVGID_12_">
			<use xlink:href="#SVGID_11_"  overflow="visible"/>
		</clipPath>
	</g>
	<g>
		<defs>
			<path id="SVGID_13_" d="M133.1,287.4l3.5,1.7c0.1,0.1,0.2,0.2,0.2,0.3v4.8c0,0.2-0.2,0.4-0.4,0.4c-0.2,0-0.4-0.2-0.4-0.4v-4.5
				l-3.3-1.6c-0.2-0.1-0.3-0.3-0.2-0.5c0.1-0.1,0.2-0.2,0.3-0.2C133,287.4,133,287.4,133.1,287.4"/>
		</defs>
		<use xlink:href="#SVGID_13_"  overflow="visible" fill="#0A5429"/>
		<clipPath id="SVGID_14_">
			<use xlink:href="#SVGID_13_"  overflow="visible"/>
		</clipPath>
	</g>
	<g>
		<path fill="#B2B2B2" d="M115,144.5l0.8-9c-6.9-4.5-15.2-40.5-11.5-45.4c3.7-5,5.5-16.2-0.9-17.8c-9-2.2-18.1,14-11.7,18.2
			c4.5,2.9,5.4,2.2,6.2,6.3c-0.7,5.8-10.6,47.7,12,53.7c1.4,3.1,2.8,4.7,4.1,4l0.3-3.3c0.5,0,1,0.1,1.5,0.1
			C116,149.3,115.6,146.8,115,144.5 M96.6,87.7c-1.2-1-0.6-3.6,1.3-5.8c1.9-2.3,4.3-3.4,5.5-2.4c1.1,1,0.6,3.6-1.3,5.8
			C100.2,87.6,97.7,88.7,96.6,87.7"/>
		<g>
			<g>
				<defs>
					<polygon id="SVGID_15_" points="36.1,213.6 36.1,213.9 189.2,126.5 189.2,126.2 112.6,115.8 					"/>
				</defs>
				<use xlink:href="#SVGID_15_"  overflow="visible" fill="#003266"/>
				<clipPath id="SVGID_16_">
					<use xlink:href="#SVGID_15_"  overflow="visible"/>
				</clipPath>
			</g>
			<g>
				<defs>
					<polyline id="SVGID_17_" points="189.2,126.5 36.1,213.9 53.2,213.7 55.3,213.7 122,209.9 169.7,149.3 					"/>
				</defs>
				<use xlink:href="#SVGID_17_"  overflow="visible" fill="#003266"/>
				<clipPath id="SVGID_18_">
					<use xlink:href="#SVGID_17_"  overflow="visible"/>
				</clipPath>
			</g>
			<g>
				<defs>
					<polygon id="SVGID_19_" points="169.7,149.3 122,209.9 53.2,213.7 36.1,213.9 36.1,223.5 36.1,294.3 189.2,206.9 189.2,136.1
						189.2,126.5 					"/>
				</defs>
				<linearGradient id="SVGID_20_" gradientUnits="userSpaceOnUse" x1="172.5417" y1="220.0599" x2="63.9364" y2="202.5755">
					<stop  offset="0" style="stop-color:#003366"/>
					<stop  offset="1" style="stop-color:#0066BA"/>
				</linearGradient>
				<use xlink:href="#SVGID_19_"  overflow="visible" fill="url(#SVGID_20_)"/>
				<clipPath id="SVGID_21_">
					<use xlink:href="#SVGID_19_"  overflow="visible"/>
				</clipPath>
			</g>
			<g>
				<defs>
					<polygon id="SVGID_22_" points="31,291.5 36.1,294.3 36.1,213.9 31,211 					"/>
				</defs>
				<linearGradient id="SVGID_23_" gradientUnits="userSpaceOnUse" x1="33.5355" y1="290.6645" x2="33.5355" y2="212.1407">
					<stop  offset="0" style="stop-color:#003366"/>
					<stop  offset="1" style="stop-color:#0066BA"/>
				</linearGradient>
				<use xlink:href="#SVGID_22_"  overflow="visible" fill="url(#SVGID_23_)"/>
				<clipPath id="SVGID_24_">
					<use xlink:href="#SVGID_22_"  overflow="visible"/>
				</clipPath>
			</g>
			<g>
				<defs>
					<polygon id="SVGID_25_" points="31,211 36.1,213.9 112.6,115.8 107.5,112.9 					"/>
				</defs>
				<linearGradient id="SVGID_26_" gradientUnits="userSpaceOnUse" x1="111.3687" y1="113.5731" x2="33.4584" y2="211.7032">
					<stop  offset="0" style="stop-color:#003366"/>
					<stop  offset="1" style="stop-color:#0066BA"/>
				</linearGradient>
				<use xlink:href="#SVGID_25_"  overflow="visible" fill="url(#SVGID_26_)"/>
				<clipPath id="SVGID_27_">
					<use xlink:href="#SVGID_25_"  overflow="visible"/>
				</clipPath>
			</g>
			<g>
				<defs>
					<polygon id="SVGID_28_" points="112.6,115.8 189.2,126.2 184.1,123.3 107.5,112.9 					"/>
				</defs>
				<linearGradient id="SVGID_29_" gradientUnits="userSpaceOnUse" x1="107.5385" y1="119.542" x2="189.1503" y2="119.542">
					<stop  offset="0" style="stop-color:#003366"/>
					<stop  offset="1" style="stop-color:#0066BA"/>
				</linearGradient>
				<use xlink:href="#SVGID_28_"  overflow="visible" fill="url(#SVGID_29_)"/>
				<clipPath id="SVGID_30_">
					<use xlink:href="#SVGID_28_"  overflow="visible"/>
				</clipPath>
			</g>
			<g>
				<defs>
					<polygon id="SVGID_31_" points="55.5,138.6 55.5,213.7 122,209.9 169.7,149.3 169.7,73.4 					"/>
				</defs>
				<use xlink:href="#SVGID_31_"  overflow="visible" fill="#EBEBEB"/>
				<clipPath id="SVGID_32_">
					<use xlink:href="#SVGID_31_"  overflow="visible"/>
				</clipPath>
			</g>
			<g>
				<path fill="#878787" d="M107.5,168.6l-37.9,21.9c-0.5,0.3-1.1-0.1-1.1-0.6v-6.6c0-0.3,0.1-0.5,0.4-0.6l38-21.9
					c0.5-0.3,1.1,0.1,1.1,0.6v6.6C107.9,168.2,107.8,168.4,107.5,168.6"/>
				<path fill="#878787" d="M156.3,160.7L72,209.4c-0.5,0.3-1.1-0.1-1.1-0.6v-6.6c0-0.3,0.1-0.5,0.4-0.6l84.3-48.7
					c0.5-0.3,1.1,0.1,1.1,0.6v6.6C156.7,160.4,156.5,160.6,156.3,160.7"/>
				<polygon fill="#878787" points="83.2,212.1 99,211.2 139.5,187.7 151.3,172.8 				"/>
			</g>
		</g>
		<path fill="#575756" d="M115.9,135.5c-2.8,3.3-3.8,19-1.8,19c2.1,0,5.6-2.9,5.6-2.9s0.8-13.6,0-14.6
			C118.8,135.9,115.9,135.5,115.9,135.5"/>
		<path fill="#B2B2B2" d="M144.2,103.3c-4.3,6.7-9.3,12.6-14.8,17.6c2.3,0.3,4.7,0.7,7,1c-2.8,15.8-11,19.4-18.5,16.7
			c-1.3,4.4-1.9,8.9-2,12.7C133,154.8,148.2,127.3,144.2,103.3"/>
		<polygon fill="#575756" points="129.4,120.9 135.8,124.7 138.3,120.9 137.1,117.2 		"/>
		<path fill="none" stroke="#575756" stroke-width="1.902" stroke-miterlimit="10" d="M62.6,3.3c11.1,20.5,16.7,43.5,25.1,65.2
			c1.7,4.3,3.6,8.8,7.1,11.7c3.6,2.9,9.3,3.8,12.7,0.6c2-1.8,2.8-4.9,1.9-7.5s-3.6-4.4-6.3-4.2c-4.9,0.3-7.4,7.4-4.2,11.2
			c3.1,3.8,16.7,4.9,20.2,1.4"/>
		<path fill="#B2B2B2" d="M104.4,90.1c3.7-5,5.5-16.2-0.9-17.8l-0.1,7.2c1.1,1,0.6,3.6-1.3,5.8"/>
	</g>
	<g>
		<g>
			<defs>
				<path id="SVGID_33_" d="M212.3,279.9L212.3,279.9l-5.8,3.4l3.6-0.2c-0.2,0.7-0.3,1.4-0.3,2.3c0,5.8,4.7,13.2,10.5,16.6
					c1.4,0.8,2.8,1.3,4.1,1.5l-2,2.8l5.7-3.3c0.1-0.1,0.3-0.1,0.4-0.2l0,0l0,0c1.5-1,2.4-2.8,2.4-5.3c0-5.8-4.7-13.2-10.5-16.6
					c-1.9-1.1-3.7-1.6-5.2-1.6C214,279.3,213.1,279.5,212.3,279.9"/>
			</defs>
			<use xlink:href="#SVGID_33_"  overflow="visible" fill="#707A8D"/>
			<clipPath id="SVGID_34_">
				<use xlink:href="#SVGID_33_"  overflow="visible"/>
			</clipPath>
		</g>
		<g>
			<path fill="#FF4B5F" d="M221.9,299c0,4.1-3.3,5.5-7.4,3.1c-4.1-2.4-7.4-7.6-7.4-11.7c0-4.1,3.3-5.5,7.4-3.1
				C218.6,289.7,221.9,295,221.9,299"/>
		</g>
		<g>
			<defs>
				<path id="SVGID_35_" d="M252.5,260.7L252.5,260.7l-5.8,3.4l3.6-0.2c-0.2,0.7-0.3,1.4-0.3,2.3c0,5.8,4.7,13.2,10.5,16.6
					c1.4,0.8,2.8,1.3,4.1,1.5l-2,2.8l5.7-3.3c0.1-0.1,0.3-0.1,0.4-0.2l0,0l0,0c1.5-1,2.4-2.8,2.4-5.3c0-5.8-4.7-13.2-10.5-16.6
					c-1.9-1.1-3.7-1.6-5.2-1.6C254.2,260.1,253.3,260.3,252.5,260.7"/>
			</defs>
			<use xlink:href="#SVGID_35_"  overflow="visible" fill="#707A8D"/>
			<clipPath id="SVGID_36_">
				<use xlink:href="#SVGID_35_"  overflow="visible"/>
			</clipPath>
		</g>
		<g>
			<defs>
				<path id="SVGID_37_" d="M247.3,271.3c0,4.1,3.3,9.3,7.4,11.7c4.1,2.4,7.4,1,7.4-3.1c0-4.1-3.3-9.3-7.4-11.7
					c-1.3-0.8-2.6-1.1-3.7-1.1C248.8,267,247.3,268.6,247.3,271.3"/>
			</defs>
			<clipPath id="SVGID_38_">
				<use xlink:href="#SVGID_37_"  overflow="visible"/>
			</clipPath>
		</g>
		<g>
			<defs>
				<path id="SVGID_39_" d="M244.2,269.5c0,5.8,4.7,13.2,10.5,16.6c5.8,3.4,10.5,1.4,10.5-4.4c0-5.8-4.7-13.2-10.5-16.6
					c-1.9-1.1-3.7-1.6-5.3-1.6C246.3,263.4,244.2,265.6,244.2,269.5"/>
			</defs>
			<use xlink:href="#SVGID_39_"  overflow="visible" fill="#707A8D"/>
			<clipPath id="SVGID_40_">
				<use xlink:href="#SVGID_39_"  overflow="visible"/>
			</clipPath>
		</g>
		<g>
			<defs>
				<path id="SVGID_41_" d="M155.7,247.2L155.7,247.2l-5.8,3.4l3.6-0.2c-0.2,0.7-0.3,1.4-0.3,2.3c0,5.8,4.7,13.2,10.5,16.6
					c1.4,0.8,2.8,1.3,4.1,1.5l-2,2.8l5.7-3.3c0.1-0.1,0.3-0.1,0.4-0.2l0,0l0,0c1.5-1,2.4-2.8,2.4-5.3c0-5.8-4.7-13.2-10.5-16.6
					c-1.9-1.1-3.7-1.6-5.2-1.6C157.4,246.5,156.4,246.7,155.7,247.2"/>
			</defs>
			<use xlink:href="#SVGID_41_"  overflow="visible" fill="#707A8D"/>
			<clipPath id="SVGID_42_">
				<use xlink:href="#SVGID_41_"  overflow="visible"/>
			</clipPath>
		</g>
		<g>
			<defs>
				<path id="SVGID_43_" d="M147.3,255.9c0,5.8,4.7,13.2,10.5,16.6c5.8,3.4,10.5,1.4,10.5-4.4c0-5.8-4.7-13.2-10.5-16.6
					c-1.9-1.1-3.7-1.6-5.3-1.6C149.4,249.8,147.3,252,147.3,255.9"/>
			</defs>
			<use xlink:href="#SVGID_43_"  overflow="visible" fill="#707A8D"/>
			<clipPath id="SVGID_44_">
				<use xlink:href="#SVGID_43_"  overflow="visible"/>
			</clipPath>
		</g>
		<g>
			<defs>
				<path id="SVGID_45_" d="M203.8,288.8c0,5.8,4.7,13.2,10.5,16.6c5.8,3.4,10.5,1.4,10.5-4.4c0-5.8-4.7-13.2-10.5-16.6
					c-1.9-1.1-3.7-1.6-5.3-1.6C205.9,282.7,203.8,284.9,203.8,288.8"/>
			</defs>
			<use xlink:href="#SVGID_45_"  overflow="visible" fill="#707A8D"/>
			<clipPath id="SVGID_46_">
				<use xlink:href="#SVGID_45_"  overflow="visible"/>
			</clipPath>
		</g>
		<g>
			<defs>
				<path id="SVGID_47_" d="M150.4,257.7c0,4.1,3.3,9.3,7.4,11.7c4.1,2.4,7.4,1,7.4-3.1c0-4.1-3.3-9.3-7.4-11.7
					c-1.3-0.8-2.6-1.1-3.7-1.1C151.9,253.4,150.4,255,150.4,257.7"/>
			</defs>

				<linearGradient id="SVGID_48_" gradientUnits="userSpaceOnUse" x1="183.3164" y1="261.9919" x2="198.1342" y2="261.9919" gradientTransform="matrix(1 0 0 1 -32.8782 0)">
				<stop  offset="0" style="stop-color:#6E788C"/>
				<stop  offset="1" style="stop-color:#C8C8C8"/>
			</linearGradient>
			<use xlink:href="#SVGID_47_"  overflow="visible" fill="url(#SVGID_48_)"/>
			<clipPath id="SVGID_49_">
				<use xlink:href="#SVGID_47_"  overflow="visible"/>
			</clipPath>
		</g>
		<g>
			<defs>
				<path id="SVGID_50_" d="M207.1,290.5c0,4.1,3.3,9.3,7.4,11.7c4.1,2.4,7.4,1,7.4-3.1c0-4.1-3.3-9.3-7.4-11.7
					c-1.3-0.8-2.6-1.1-3.7-1.1C208.6,286.2,207.1,287.7,207.1,290.5"/>
			</defs>

				<linearGradient id="SVGID_51_" gradientUnits="userSpaceOnUse" x1="239.9621" y1="294.7697" x2="254.7797" y2="294.7697" gradientTransform="matrix(1 0 0 1 -32.8782 0)">
				<stop  offset="0" style="stop-color:#6E788C"/>
				<stop  offset="1" style="stop-color:#C8C8C8"/>
			</linearGradient>
			<use xlink:href="#SVGID_50_"  overflow="visible" fill="url(#SVGID_51_)"/>
			<clipPath id="SVGID_52_">
				<use xlink:href="#SVGID_50_"  overflow="visible"/>
			</clipPath>
		</g>
		<g>
			<defs>
				<path id="SVGID_53_" d="M247.3,271.3c0,4.1,3.3,9.3,7.4,11.7c4.1,2.4,7.4,1,7.4-3.1c0-4.1-3.3-9.3-7.4-11.7
					c-1.3-0.8-2.6-1.1-3.7-1.1C248.8,267,247.3,268.6,247.3,271.3"/>
			</defs>

				<linearGradient id="SVGID_54_" gradientUnits="userSpaceOnUse" x1="280.1698" y1="275.572" x2="294.9875" y2="275.572" gradientTransform="matrix(1 0 0 1 -32.8782 0)">
				<stop  offset="0" style="stop-color:#6E788C"/>
				<stop  offset="1" style="stop-color:#C8C8C8"/>
			</linearGradient>
			<use xlink:href="#SVGID_53_"  overflow="visible" fill="url(#SVGID_54_)"/>
			<clipPath id="SVGID_55_">
				<use xlink:href="#SVGID_53_"  overflow="visible"/>
			</clipPath>
		</g>
		<g>
			<defs>
				<path id="SVGID_56_" d="M152.1,245L152.1,245c0,1,0.5,1.9,1.5,2.5l70.2,40.6c1.6,0.9,3.4,1.4,5.2,1.4v-3.7
					c-1.8,0-3.6-0.4-5.2-1.4l-70.2-40.6c-1-0.6-1.5-1.6-1.5-2.6V245z"/>
			</defs>

				<linearGradient id="SVGID_57_" gradientUnits="userSpaceOnUse" x1="184.9768" y1="265.2981" x2="261.9463" y2="265.2981" gradientTransform="matrix(1 0 0 1 -32.8782 0)">
				<stop  offset="0" style="stop-color:#6E788C"/>
				<stop  offset="1" style="stop-color:#C8C8C8"/>
			</linearGradient>
			<use xlink:href="#SVGID_56_"  overflow="visible" fill="url(#SVGID_57_)"/>
			<clipPath id="SVGID_58_">
				<use xlink:href="#SVGID_56_"  overflow="visible"/>
			</clipPath>
		</g>
		<g>

				<linearGradient id="SVGID_59_" gradientUnits="userSpaceOnUse" x1="276.3847" y1="236.3624" x2="244.9822" y2="253.9265" gradientTransform="matrix(1 0 0 1 -32.8782 0)">
				<stop  offset="0" style="stop-color:#6E788C"/>
				<stop  offset="1" style="stop-color:#C8C8C8"/>
			</linearGradient>
			<path fill="url(#SVGID_59_)" d="M154.7,241.6l-2.6-0.5h0v0.1c0,1,0.5,2,1.5,2.6l70.2,40.6c1.6,0.9,3.4,1.4,5.2,1.4v3.7
				c1.7,0,3.4-0.5,4.9-1.4l33.2-19.2c0.9-0.5,1.4-1.4,1.5-2.4l0,0v-3.9l-4.9-0.9l-67.6-39c-1.3-0.8-2.8-1.2-4.3-1.2
				c-1.5,0-3,0.4-4.3,1.2"/>
		</g>
		<g>
			<defs>
				<path id="SVGID_60_" d="M187.6,219l-34,19.6c-2,1.1-2,4,0,5.2l70.2,40.6c3.1,1.8,7,1.8,10.2,0l33.2-19.2c2-1.1,2-4,0-5.2l-71-41
					c-1.3-0.8-2.8-1.2-4.3-1.2S188.9,218.2,187.6,219"/>
			</defs>

				<linearGradient id="SVGID_61_" gradientUnits="userSpaceOnUse" x1="184.9763" y1="251.7893" x2="301.5521" y2="251.7893" gradientTransform="matrix(1 0 0 1 -32.8782 0)">
				<stop  offset="0" style="stop-color:#6E788C"/>
				<stop  offset="1" style="stop-color:#C8C8C8"/>
			</linearGradient>
			<use xlink:href="#SVGID_60_"  overflow="visible" fill="url(#SVGID_61_)"/>
			<clipPath id="SVGID_62_">
				<use xlink:href="#SVGID_60_"  overflow="visible"/>
			</clipPath>
		</g>
		<g>
			<defs>
				<path id="SVGID_63_" d="M158.8,207.7c0,1.4,0.1,2.9,0.3,4.6l5.1-3.1c2.5-1.5,5.5-2.4,9-2.7c1.7-0.1,3.5-0.1,5.1,0.2
					c5.1,1,7.4-1.1,7.8-2.6c0.2-0.7-0.1-2.2-1.3-3.8c-1.5-2-4.4-4.2-9.7-5.6c-1.6-0.4-3.2-0.7-4.7-0.7
					C164,194,159,198.1,158.8,207.7"/>
			</defs>

				<linearGradient id="SVGID_64_" gradientUnits="userSpaceOnUse" x1="191.7222" y1="203.0939" x2="219.0626" y2="203.0939" gradientTransform="matrix(1 0 0 1 -32.8782 0)">
				<stop  offset="0" style="stop-color:#167E3D"/>
				<stop  offset="1" style="stop-color:#084823"/>
			</linearGradient>
			<use xlink:href="#SVGID_63_"  overflow="visible" fill="url(#SVGID_64_)"/>
			<clipPath id="SVGID_65_">
				<use xlink:href="#SVGID_63_"  overflow="visible"/>
			</clipPath>
		</g>
		<g>
			<defs>
				<path id="SVGID_66_" d="M158.8,207.7l4.1-2.4c2.5-1.5,5.5-2.4,9-2.7c1.7-0.1,3.5-0.1,5.1,0.2c4.9,1,7.2-0.9,7.7-2.5
					c-1.5-2-4.4-4.2-9.7-5.6c-1.6-0.4-3.2-0.7-4.7-0.7C164,194,159,198.1,158.8,207.7"/>
			</defs>

				<linearGradient id="SVGID_67_" gradientUnits="userSpaceOnUse" x1="191.7242" y1="200.8112" x2="217.6709" y2="200.8112" gradientTransform="matrix(1 0 0 1 -32.8782 0)">
				<stop  offset="0" style="stop-color:#6ECA44"/>
				<stop  offset="1" style="stop-color:#86D776"/>
			</linearGradient>
			<use xlink:href="#SVGID_66_"  overflow="visible" fill="url(#SVGID_67_)"/>
			<clipPath id="SVGID_68_">
				<use xlink:href="#SVGID_66_"  overflow="visible"/>
			</clipPath>
		</g>
		<g>
			<defs>
				<path id="SVGID_69_" d="M235.9,225.8l1.8,8.3c0.6,2.7,0.5,5.5-0.3,8.1c0.3,0.4,0.5,0.8,0.7,1.2l0.6,1.1c1.2-2.5,1.7-5.3,1.7-8.1
					c0-1.9-0.2-3.9-0.7-5.8l-0.8-3.5l-1.4-1.5c-0.4-0.4-0.7-0.6-1-0.6C236.1,224.9,235.8,225.2,235.9,225.8"/>
			</defs>
			<use xlink:href="#SVGID_69_"  overflow="visible" fill="#116632"/>
			<clipPath id="SVGID_70_">
				<use xlink:href="#SVGID_69_"  overflow="visible"/>
			</clipPath>
		</g>
		<g>
			<defs>
				<path id="SVGID_71_" d="M182.8,201.4c-0.7,0-1.4,0.2-2,0.5l-0.9,0.5l-0.4,0.3l0,0l0.4,0.4c-1.8,2.4-2,5.9-1.4,8
					c1.4,2.8,2.2,5.6,2.2,7.8c0,2.2-0.8,3.9-2.7,4.4c-0.2,0.1-0.4,0.1-0.5,0.2c-0.1,0-0.2,0.1-0.2,0.1c-0.2,0.1-0.4,0.2-0.6,0.3
					l-2,1.2c0,0,0,0,0,0l-0.6,0.4c0,0,0,0,0,0l1.6,0.1c-0.1,0.7-0.1,1.6-0.1,2.8l-2.2,8.4c0,1.5-0.4,1.5,1.1,2.2l0.4,0.2l-0.3,1.7v0
					l0,0l2.3-1.3l0,0c0.3-0.1,0.5-0.4,0.6-0.8l1.1-2.8c0-0.2,0.2-0.6,0.4-1.1c0.4-0.9,1-2,1.3-2.2c0,0,0,0,0,0l0.8-0.5
					c0.5-0.7,1-1.3,1.4-1.7c0.2-0.2,0.4-0.4,0.6-0.5c0.6-0.5,1.3-0.9,2-1c1.2-1.1,2.4-1.7,4.2-1.2c0.1,0,0.3,0.1,0.4,0.1
					c0.8,0.3,1.7,0.7,2.7,1.4c0,0,20.9,12.5,31.9,15.9l1.2,0.4c1.3,0.4,2.8,1.8,3.6,3.4l3,6.2c0.3,0.6,0.5,1.3,0.6,1.9l0.8,10
					c0.2,1.8,1.6,3.9,3.3,4.9c0,0,0,0,0,0v1.7c0,0,0,0,0,0l0.1-0.1l2.3-1.3c0.1,0,0.1-0.1,0.2-0.1l0,0l0,0c0.6-0.4,0.9-1.2,0.7-2.3
					l-1.6-11.1c0-0.2-0.1-0.4-0.1-0.6l-1.6-8c-0.3-1,0.2-2,0.5-2.5c0.1-0.3,0.3-0.4,0.3-0.4c0.5-0.8,1-1.6,1.4-2.4l-0.6-1.1
					c-0.2-0.4-0.4-0.8-0.7-1.2c0.8-2.6,0.9-5.4,0.3-8.1l-1.8-8.3c-0.2-1,0.7-1.2,1.6-0.3l1.4,1.5l-0.6-2.6c-0.2-1,0.7-1.2,1.6-0.3
					l2.5,2.7c0.6,0.6,1,1.4,1.2,2.1l1.2,4.4c0.2,0.6,0.5,1.2,0.9,1.7l1.1,1.4l0.8,1c0.2,0.3,0.5,0.6,0.8,0.8c0.5,0.4,1,0.7,1.5,0.8
					l-0.1,1.5l0.3-0.2c0.3-0.2,0.5-0.6,0.5-1.2v-3.5c0-0.7-0.3-1.6-0.9-2.4c0,0,0,0,0-0.1c-1-1.4-1.8-3-2.4-4.4
					c-0.6-1.5-0.9-3-0.9-4.3V224c0-1.3-0.3-2.8-0.8-4.3c-0.4-1.2-0.9-2.4-1.6-3.6l-0.8-1.4c-1.6-2.8-3.7-5.2-6-7
					c-1-0.8-2.1-1.5-3.2-2l-0.4-0.2c-0.3-0.1-0.5-0.2-0.8-0.3c-0.5-0.2-1-0.3-1.5-0.4c-1.3-0.3-2.5-0.2-3.5,0.2c0,0-0.1,0-0.1,0.1
					c-0.8,0.6-1.6,1.3-2.2,2.2c-0.7,0.9-1.3,2-1.8,3.2c-0.2,0.6-0.4,1.2-0.6,1.9c-0.1,0.2-0.1,0.4-0.2,0.6l-0.8,3.7
					c-0.2,0.8-0.9,1.2-1.8,0.9l-0.4-0.1l-0.1,0.6c-0.2,0.8-0.9,1.2-1.8,0.9l-4.2-1.3c-10.2-3.3-11-2.6-21-11.7
					c-0.6-0.5-1.2-1-1.8-1.5c-1.1-0.8-2.3-1.5-3.4-2c-0.6-0.3-1.2-0.5-1.8-0.6c-0.1,0-0.1,0-0.2-0.1c-0.8-0.2-1.5-0.3-2.2-0.3
					C183.1,201.4,183,201.4,182.8,201.4"/>
			</defs>
			<use xlink:href="#SVGID_71_"  overflow="visible" fill="#116632"/>
			<clipPath id="SVGID_72_">
				<use xlink:href="#SVGID_71_"  overflow="visible"/>
			</clipPath>
		</g>
		<g>
			<path fill="#FFBC00" d="M189.1,197.2C189,197.2,189,197.3,189.1,197.2c-0.1,0-0.1,0.1-0.1,0.1L189.1,197.2z"/>
			<path fill="#FFBC00" d="M190.9,204.4l-3.4-1.7l-1.8-0.9c0.6,0.2,1.2,0.4,1.8,0.6C188.6,202.9,189.7,203.6,190.9,204.4"/>
			<path fill="#FFBC00" d="M189.1,197.2C189.1,197.2,189.1,197.2,189.1,197.2L189.1,197.2c-0.1,0.1-0.1,0.1-0.1,0.1c0,0-0.1,0-0.1,0
				c0,0,0,0,0,0c0,0-0.1,0-0.1,0c-0.1,0-0.1,0.1-0.1,0.1l0,0L189.1,197.2z"/>
			<polygon fill="#FFBC00" points="183.7,235.3 183.7,235.3 183.7,235.3 			"/>
		</g>
		<g>
			<defs>
				<path id="SVGID_73_" d="M187.1,230.2l-1,0.6c-0.4,0.1-0.7,0.4-0.8,0.9l-1.1,2.8c-0.1,0.4-0.3,0.6-0.5,0.8l2.3-1.3l0,0
					c0.3-0.1,0.5-0.4,0.6-0.8l1.1-2.8c0-0.2,0.2-0.6,0.4-1.1C187.8,229.7,187.4,230,187.1,230.2"/>
			</defs>

				<linearGradient id="SVGID_74_" gradientUnits="userSpaceOnUse" x1="216.6022" y1="232.2764" x2="221.0312" y2="232.2764" gradientTransform="matrix(1 0 0 1 -32.8782 0)">
				<stop  offset="0" style="stop-color:#167E3D"/>
				<stop  offset="1" style="stop-color:#084823"/>
			</linearGradient>
			<use xlink:href="#SVGID_73_"  overflow="visible" fill="url(#SVGID_74_)"/>
			<clipPath id="SVGID_75_">
				<use xlink:href="#SVGID_73_"  overflow="visible"/>
			</clipPath>
		</g>
		<g>
			<defs>
				<path id="SVGID_76_" d="M245.1,220.6l1.8,8.3c0.6,2.6,0.5,5.2-0.2,7.7c-0.3,1-0.7,2-1.1,2.9c-0.3,0.7-0.7,1.3-1.1,1.9l0,0
					c-0.5,0.7-1,1.3-1.6,1.9c-0.5,0.5-0.6,1.5-0.3,2.6l2.3,8c0.1,0.2,0.1,0.4,0.1,0.6l1.6,11.1c0.2,1.1-0.1,1.9-0.7,2.3l2.2-1.2
					c0.1,0,0.1-0.1,0.2-0.1l0,0l0,0c0.6-0.4,0.9-1.2,0.7-2.3l-1.6-11.1c0-0.2-0.1-0.4-0.1-0.6l-1.6-8c-0.4-1.4,0.7-2.9,0.7-2.9
					c0.3-0.4,0.5-0.7,0.7-1.1c0.4-0.7,0.8-1.4,1-2.1c0.7-1.6,1-3.3,1.2-5c-1-1.4-1.8-3-2.4-4.4c-0.6-1.5-0.9-3-0.9-4.3V224
					c0-1.3-0.3-2.8-0.8-4.3C245.2,219.8,245,220,245.1,220.6"/>
			</defs>
			<use xlink:href="#SVGID_76_"  overflow="visible" fill="#0A4F26"/>
			<clipPath id="SVGID_77_">
				<use xlink:href="#SVGID_76_"  overflow="visible"/>
			</clipPath>
		</g>
		<g>
			<path fill="#FFBC00" d="M235,200.8l-1.7,1C233.8,201.4,234.4,201.1,235,200.8"/>
		</g>
		<g>
			<defs>
				<path id="SVGID_78_" d="M194.2,223.3c1.3-0.2,2.8,0.2,4.9,1.7c0,0,20.9,12.5,31.9,15.9l1.2,0.4c1.3,0.4,2.8,1.8,3.6,3.4l0.3,0.7
					l1,2c0.1-0.3,0.3-0.4,0.3-0.4c0.5-0.8,1-1.6,1.4-2.4l-0.6-1.1c-0.2-0.4-0.4-0.8-0.7-1.2c-0.8-1.1-1.9-1.9-2.9-2.2l-1.2-0.4
					c-11-3.4-31.9-15.9-31.9-15.9c-1.8-1.2-3.2-1.7-4.3-1.7C196,221.9,195.1,222.5,194.2,223.3"/>
			</defs>
			<clipPath id="SVGID_79_">
				<use xlink:href="#SVGID_78_"  overflow="visible"/>
			</clipPath>
		</g>
		<g>
			<defs>
				<path id="SVGID_80_" d="M237.3,246.8c0,0-0.1,0.2-0.3,0.4l1.7,3.6c0.3,0.6,0.5,1.3,0.6,1.9l0.8,10c0.2,1.8,1.6,3.9,3.3,4.9
					c0.6,0.3,1.2,0.5,1.6,0.5c0.3,0,0.5-0.1,0.8-0.2v-1.7c0,0,0,0,0,0c-1.7-1-3.1-3.1-3.3-4.9l-0.8-10c-0.1-0.6-0.2-1.2-0.6-1.9
					l-2.5-5C238.3,245.3,237.9,246.1,237.3,246.8"/>
			</defs>

				<linearGradient id="SVGID_81_" gradientUnits="userSpaceOnUse" x1="269.9406" y1="256.2617" x2="278.7362" y2="256.2617" gradientTransform="matrix(1 0 0 1 -32.8782 0)">
				<stop  offset="0" style="stop-color:#167E3D"/>
				<stop  offset="1" style="stop-color:#084823"/>
			</linearGradient>
			<use xlink:href="#SVGID_80_"  overflow="visible" fill="url(#SVGID_81_)"/>
			<clipPath id="SVGID_82_">
				<use xlink:href="#SVGID_80_"  overflow="visible"/>
			</clipPath>
		</g>
		<g>
			<defs>
				<path id="SVGID_83_" d="M239.7,230.6c0.4,1.9,0.7,3.9,0.7,5.8c0,2.8-0.5,5.6-1.7,8.1l2.5,5c0.3,0.6,0.5,1.3,0.6,1.9l0.8,10
					c0.2,1.8,1.6,3.9,3.3,4.9c0,0,0,0,0,0v1.7l0.1-0.1c0,0,0,0,0,0c0.6-0.4,0.9-1.2,0.7-2.3l-1.6-11.1c0-0.2-0.1-0.4-0.1-0.6l-2.3-8
					c-0.3-1.1-0.2-2.1,0.3-2.6c0.5-0.6,1.1-1.2,1.6-1.9l0,0c0.4-0.6,0.8-1.2,1.1-1.9c-0.2-0.2-0.3-0.4-0.5-0.6l-1.8-2.4
					c-0.4-0.5-0.7-1.1-0.9-1.7l-1.2-4.4c-0.2-0.7-0.7-1.5-1.2-2.1l-1.1-1.2L239.7,230.6z"/>
			</defs>

				<linearGradient id="SVGID_84_" gradientUnits="userSpaceOnUse" x1="271.5991" y1="247.4688" x2="279.6196" y2="247.4688" gradientTransform="matrix(1 0 0 1 -32.8782 0)">
				<stop  offset="0" style="stop-color:#167E3D"/>
				<stop  offset="1" style="stop-color:#084823"/>
			</linearGradient>
			<use xlink:href="#SVGID_83_"  overflow="visible" fill="url(#SVGID_84_)"/>
			<clipPath id="SVGID_85_">
				<use xlink:href="#SVGID_83_"  overflow="visible"/>
			</clipPath>
		</g>
		<g>
			<path fill="#453131" d="M184.8,219.3L184.8,219.3L184.8,219.3z"/>
			<path fill="#453131" d="M189.2,227.3L189.2,227.3L189.2,227.3z"/>
		</g>
		<g>
			<defs>
				<path id="SVGID_86_" d="M192.1,195.5L192.1,195.5c-0.1,0.1-0.2,0.1-0.3,0.2l-0.2,0.1l-2.5,1.4l0,0c0,0,0,0,0,0c0,0,0,0-0.1,0
					c0,0,0,0,0,0l-0.7,0.4l-5,2.8l0,0c-0.1,0.1-0.2,0.1-0.4,0.2v0l0,0c-0.1,0.1-0.2,0.1-0.3,0.2l-1.8,1c0.6-0.3,1.3-0.4,2-0.5
					c0.1,0,0.3,0,0.4,0c0.7,0,1.5,0.1,2.2,0.3c0.1,0,0.1,0,0.2,0.1c0.6,0.2,1.2,0.4,1.8,0.6c1.1,0.5,2.2,1.2,3.4,2
					c0.6,0.4,1.2,0.9,1.8,1.5c10,9.1,10.8,8.4,21,11.7l4.2,1.3c0.9,0.3,1.6,0,1.8-0.9l0.1-0.6l0.7-3.1c0.2-0.9,0.5-1.7,0.8-2.5
					c0.3-0.6,0.5-1.2,0.9-1.8c-7.3-2.3-9-2.7-17.9-10.7c-3.2-2.9-6.6-4.5-9.4-4.5C193.8,194.9,192.9,195.1,192.1,195.5"/>
			</defs>

				<linearGradient id="SVGID_87_" gradientUnits="userSpaceOnUse" x1="213.6856" y1="206.9426" x2="254.9419" y2="206.9426" gradientTransform="matrix(1 0 0 1 -32.8782 0)">
				<stop  offset="0" style="stop-color:#167E3D"/>
				<stop  offset="1" style="stop-color:#084823"/>
			</linearGradient>
			<use xlink:href="#SVGID_86_"  overflow="visible" fill="url(#SVGID_87_)"/>
			<clipPath id="SVGID_88_">
				<use xlink:href="#SVGID_86_"  overflow="visible"/>
			</clipPath>
		</g>
		<g>
			<defs>
				<path id="SVGID_89_" d="M187.5,202.7c-0.1,1.2,0.1,2.3,0.3,3.1c1.4,2.8,2.2,5.6,2.2,7.8c0,2.2-0.8,3.9-2.7,4.4
					c-0.2,0.1-0.4,0.1-0.5,0.2c-0.4,0.6-1,1-1.8,1.2c-0.4,0.1-0.7,0.2-1,0.3c0,0,0,0,0,0l-0.6,0.4c-0.8,0.6-0.8,1.5-0.8,3.2
					c0,0.3,0,0.6,0,1l-2.1,8.1l-0.1,0.3c0,0.1,0,0.3,0,0.4c0,1.1-0.2,1.2,1.1,1.8l0.9,0.4c0.6,0.3,1.1,0.3,1.5,0.1v0h0c0,0,0,0,0,0
					c0.3-0.1,0.4-0.4,0.5-0.8l1.1-2.8c0.1-0.5,0.4-0.8,0.8-0.9l1-0.6c0.3-0.2,0.7-0.5,1-0.9c0,0,0-0.1,0-0.1c0.3-0.7,0.7-1.5,1-1.9
					c0.1-0.2,0.2-0.3,0.3-0.3l0.8-0.5c0.5-0.7,1-1.3,1.4-1.7c0.8-0.8,1.6-1.4,2.6-1.5c1.7-1.7,3.6-2.1,7.3,0.3
					c0,0,20.9,12.5,31.9,15.9l1.2,0.4c1,0.3,2.1,1.1,2.9,2.2"/>
			</defs>
			<use xlink:href="#SVGID_89_"  overflow="visible" fill="#167E3D"/>
			<clipPath id="SVGID_90_">
				<use xlink:href="#SVGID_89_"  overflow="visible"/>
			</clipPath>
		</g>
		<g>
			<defs>
				<path id="SVGID_91_" d="M182.8,201.4c-0.7,0-1.4,0.2-2,0.5l-0.9,0.5c0,0-0.1,0.1-0.1,0.1c-0.1,0-0.2,0.1-0.3,0.2
					c-2.6,1.4-3.6,4.6-3.6,7.2c0,0.9,0.1,1.8,0.4,2.4c1.4,2.8,2.2,5.6,2.2,7.8c0,1.3-0.3,2.4-0.9,3.2c-0.4,0.6-1,1-1.8,1.2
					c-0.4,0.1-0.7,0.2-1,0.3c0,0,0,0,0,0c-0.2,0.1-0.5,0.2-0.6,0.4c0,0,0,0,0,0c-0.8,0.6-0.8,1.5-0.8,3.2c0,0.3,0,0.6,0,1l-2.2,8.4
					c0,1.5-0.4,1.5,1.1,2.2l0.9,0.4c0.6,0.3,1.1,0.3,1.5,0.1c0,0,0,0,0,0c0.3-0.1,0.5-0.4,0.5-0.8l1.1-2.8c0.1-0.5,0.4-0.8,0.8-0.9
					l1-0.6c0.3-0.2,0.7-0.5,1-0.9c0.4-0.4,0.8-0.9,1.2-1.5c0.3-0.4,0.6-0.8,0.9-1.2c0.5-0.7,1-1.3,1.4-1.7c0.2-0.2,0.4-0.4,0.6-0.5
					c0.6-0.5,1.3-0.9,2-1c0.9-0.1,1.9,0,3.2,0.7c0,0,0,0,0,0c0.5,0.3,1.1,0.6,1.7,1c0,0,20.9,12.5,31.9,15.9l1.2,0.4
					c1.3,0.4,2.8,1.8,3.6,3.4l3,6.2c0.3,0.6,0.5,1.3,0.6,1.9l0.8,10c0.2,1.8,1.6,3.9,3.3,4.9c0.6,0.3,1.2,0.5,1.6,0.5
					c0.3,0,0.5-0.1,0.8-0.2c0,0,0,0,0,0l0.1-0.1c0.6-0.4,0.9-1.2,0.7-2.3l-1.6-11.1c0-0.2-0.1-0.4-0.1-0.6l-2.3-8
					c-0.3-1.1-0.2-2.1,0.3-2.6c0.5-0.6,1.1-1.2,1.6-1.9l0,0c0.3-0.4,0.5-0.8,0.8-1.3c0.6-1,1-2.1,1.3-3.2c0.8-2.6,0.9-5.4,0.3-8.1
					l-1.8-8.3c-0.2-1,0.7-1.2,1.6-0.3l1.4,1.5l1.1,1.2c0.6,0.6,1,1.4,1.2,2.1l1.2,4.4c0.2,0.6,0.5,1.2,0.9,1.7l1.8,2.4
					c0.2,0.2,0.3,0.4,0.5,0.6c0.5,0.5,1.1,0.9,1.6,1.1c0.1,0,0.3,0.1,0.4,0.1l1.4,0.2c0.3,0,0.5,0,0.7-0.1c0.1,0,0.2-0.1,0.3-0.2
					c0.3-0.2,0.5-0.6,0.5-1.2v-3.5c0-0.7-0.3-1.6-0.9-2.4c0,0,0,0,0-0.1c-1-1.4-1.8-3-2.4-4.4c-0.6-1.5-0.9-3-0.9-4.3V224
					c0-1.3-0.3-2.8-0.8-4.3c-0.4-1.2-0.9-2.4-1.6-3.6l-0.8-1.4c-1.6-2.8-3.7-5.2-6-7c-1-0.8-2.1-1.5-3.2-2l-0.4-0.2
					c-0.3-0.1-0.5-0.2-0.8-0.3c-0.5-0.2-1-0.3-1.5-0.4c-1.3-0.3-2.5-0.2-3.5,0.2c0,0-0.1,0-0.1,0c-1.8,0.8-3.4,2-4.6,3.5
					c-0.3,0.4-0.7,0.9-1,1.4c-0.3,0.6-0.6,1.2-0.9,1.8c-0.3,0.8-0.6,1.6-0.8,2.5l-0.7,3.1l-0.1,0.6c-0.2,0.8-0.9,1.2-1.8,0.9
					l-4.2-1.3c-10.2-3.3-11-2.6-21-11.7c-0.6-0.5-1.2-1-1.8-1.5c-1.1-0.8-2.3-1.5-3.4-2c-0.6-0.3-1.2-0.5-1.8-0.6
					c-0.1,0-0.1,0-0.2-0.1c-0.8-0.2-1.5-0.3-2.2-0.3C183.1,201.4,183,201.4,182.8,201.4"/>
			</defs>

				<linearGradient id="SVGID_92_" gradientUnits="userSpaceOnUse" x1="203.789" y1="237.3619" x2="283.3323" y2="237.3619" gradientTransform="matrix(1 0 0 1 -32.8782 0)">
				<stop  offset="0" style="stop-color:#6ECA44"/>
				<stop  offset="1" style="stop-color:#86D776"/>
			</linearGradient>
			<use xlink:href="#SVGID_91_"  overflow="visible" fill="url(#SVGID_92_)"/>
			<clipPath id="SVGID_93_">
				<use xlink:href="#SVGID_91_"  overflow="visible"/>
			</clipPath>
		</g>
		<g>
			<defs>
				<path id="SVGID_94_" d="M237.8,199.3c-0.3,0.1-0.6,0.3-0.8,0.4c0,0,0,0,0,0l-0.8,0.5l-1.1,0.6l-1.7,1l-3.6,2.1
					c-0.7,0.3-1.3,0.7-1.9,1.1c0,0-0.1,0.1-0.1,0.1c1-0.4,2.2-0.5,3.5-0.2c0.5,0.1,1,0.2,1.5,0.4c0.3,0.1,0.5,0.2,0.8,0.3l0.4,0.2
					c1.1,0.5,2.2,1.2,3.2,2c2.3,1.8,4.5,4.3,6,7l0.8,1.4c0.7,1.2,1.2,2.4,1.6,3.6c0.5,1.5,0.8,3,0.8,4.3v0.6c0,1.3,0.3,2.8,0.9,4.3
					c0.5,1.5,1.3,3,2.4,4.4c0,0,0,0,0,0.1c0.6,0.8,0.9,1.7,0.9,2.4v3.5c0,0.5-0.2,0.9-0.5,1.2l2.2-1.2l0,0c0,0,0,0,0,0c0,0,0,0,0,0
					l0,0l0,0l6.2-3.5l1.5-0.9l0,0c0.4-0.2,0.7-0.7,0.7-1.3v-3.5c0-0.7-0.3-1.6-0.9-2.4c-2.1-2.9-3-6.8-3-9.5v-0.6
					c0-2.4-1-4.6-2.6-7.3l-0.8-1.4c-2.2-4-5.7-7.4-9.2-9l-0.4-0.2c-1.4-0.6-2.7-0.9-3.8-0.9C239.1,198.9,238.4,199,237.8,199.3"/>
			</defs>

				<linearGradient id="SVGID_95_" gradientUnits="userSpaceOnUse" x1="260.5854" y1="219.7239" x2="293.4945" y2="219.7239" gradientTransform="matrix(1 0 0 1 -32.8782 0)">
				<stop  offset="0" style="stop-color:#167E3D"/>
				<stop  offset="1" style="stop-color:#084823"/>
			</linearGradient>
			<use xlink:href="#SVGID_94_"  overflow="visible" fill="url(#SVGID_95_)"/>
			<clipPath id="SVGID_96_">
				<use xlink:href="#SVGID_94_"  overflow="visible"/>
			</clipPath>
		</g>
		<g>
			<path fill="#FFBC00" d="M252.2,239.3L252.2,239.3L252.2,239.3C252.2,239.3,252.2,239.3,252.2,239.3"/>
		</g>
	</g>
</g>
</svg>
