<?xml version="1.0" encoding="utf-8"?>
<!-- Generator: Adobe Illustrator 22.0.0, SVG Export Plug-In . SVG Version: 6.00 Build 0)  -->
<svg version="1.0" id="Ebene_1" xmlns="http://www.w3.org/2000/svg" xmlns:xlink="http://www.w3.org/1999/xlink" x="0px" y="0px"
	  width="300px" height="254px" viewBox="0 0 300 254" enable-background="new 0 0 300 254" xml:space="preserve">
<g>
	<g>
		<g>
			<linearGradient id="SVGID_1_" gradientUnits="userSpaceOnUse" x1="4.1998" y1="232.3771" x2="4.1998" y2="118.6418">
				<stop  offset="0" style="stop-color:#003366"/>
				<stop  offset="1" style="stop-color:#0066BA"/>
			</linearGradient>
			<path fill="url(#SVGID_1_)" d="M8.4,236.6l-5.8-3.3C1,232.5,0,230.9,0,228.4V118.9c0-2.2,0.8-4.6,2-7l6.4,3.9
				c-1.2,2.3-2,4.7-2,6.8v109.5C6.4,234.2,7.2,235.7,8.4,236.6"/>
			<linearGradient id="SVGID_2_" gradientUnits="userSpaceOnUse" x1="175.2876" y1="13.95" x2="19.7778" y2="103.6983">
				<stop  offset="0" style="stop-color:#003366"/>
				<stop  offset="1" style="stop-color:#0066BA"/>
			</linearGradient>
			<path fill="url(#SVGID_2_)" d="M185.2,13c-1.7-0.8-4-0.5-6.6,1L15.6,108.1c-2.9,1.7-5.5,4.6-7.2,7.7L2,111.9
				c1.7-3,4.3-5.9,7.1-7.5l162.9-94.1c2.9-1.7,5.5-1.8,7.1-0.7L185.2,13z"/>
		</g>
		<g>
			<defs>
				<path id="SVGID_3_" d="M172.1,10.3L9.2,104.4c-2.9,1.7-5.5,4.5-7.1,7.5l6.4,3.9c1.7-3.1,4.3-6,7.2-7.7L178.5,14
					c2.6-1.5,4.9-1.8,6.6-1l-5.9-3.4c-0.7-0.5-1.6-0.7-2.6-0.7C175.3,8.9,173.8,9.3,172.1,10.3"/>
			</defs>
			<clipPath id="SVGID_4_">
				<use xlink:href="#SVGID_3_"  overflow="visible"/>
			</clipPath>
		</g>
		<g>
			<defs>
				<path id="SVGID_5_" d="M0,118.9v109.5c0,2.5,1,4.2,2.6,4.9l5.8,3.3c-1.2-0.9-1.9-2.4-1.9-4.5V122.6c0-2.1,0.7-4.5,2-6.8L2,111.9
					C0.8,114.2,0,116.7,0,118.9"/>
			</defs>
			<clipPath id="SVGID_6_">
				<use xlink:href="#SVGID_5_"  overflow="visible"/>
			</clipPath>
		</g>
		<g>
			<defs>
				<path id="SVGID_7_" d="M178.5,14L15.6,108.1c-2.9,1.7-5.5,4.6-7.2,7.7c-1.2,2.3-2,4.7-2,6.8v109.5c0,2.1,0.7,3.7,1.9,4.5
					c0.2,0.1,0.4,0.3,0.6,0.4c0.8,0.4,1.8,0.5,3,0.3c1.1-0.2,2.4-0.6,3.6-1.4l162.9-94.1c5.1-2.9,9.2-9.4,9.2-14.5V17.9
					c0-0.2,0-0.4,0-0.5c-0.1-1.9-0.8-3.2-1.9-4l0,0c-0.2-0.1-0.4-0.3-0.6-0.4c-0.6-0.3-1.3-0.4-2-0.4C181.8,12.6,180.2,13,178.5,14"
					/>
			</defs>
			<linearGradient id="SVGID_8_" gradientUnits="userSpaceOnUse" x1="6.4385" y1="124.9564" x2="187.7242" y2="124.9564">
				<stop  offset="0" style="stop-color:#003366"/>
				<stop  offset="1" style="stop-color:#0066BA"/>
			</linearGradient>
			<use xlink:href="#SVGID_7_"  overflow="visible" fill="url(#SVGID_8_)"/>
			<clipPath id="SVGID_9_">
				<use xlink:href="#SVGID_7_"  overflow="visible"/>
			</clipPath>
		</g>
		<g>
			<path fill="#FFFFFF" d="M147,105.7L124,119c-0.8,0.5-1.9-0.1-1.9-1.1v-6.4c0-0.5,0.2-0.9,0.6-1.1l23-13.3
				c0.8-0.5,1.9,0.1,1.9,1.1v6.4C147.6,105,147.4,105.5,147,105.7"/>
			<path fill="#FFFFFF" d="M177.1,70.7l-54.8,31.6c-0.5,0.3-1.2-0.1-1.2-0.7v-7.5c0-0.3,0.2-0.6,0.4-0.7l54.8-31.6
				c0.5-0.3,1.2,0.1,1.2,0.7V70C177.5,70.3,177.3,70.5,177.1,70.7"/>
		</g>
		<g>
			<defs>
				<polygon id="SVGID_10_" points="117.1,160.7 117.1,161 292.4,60.9 292.4,60.6 204.7,48.7 				"/>
			</defs>
			<linearGradient id="SVGID_11_" gradientUnits="userSpaceOnUse" x1="205.1975" y1="112.1687" x2="159.0829" y2="-25.4489">
				<stop  offset="0" style="stop-color:#167E3D"/>
				<stop  offset="1" style="stop-color:#084823"/>
			</linearGradient>
			<use xlink:href="#SVGID_10_"  overflow="visible" fill="url(#SVGID_11_)"/>
			<clipPath id="SVGID_12_">
				<use xlink:href="#SVGID_10_"  overflow="visible"/>
			</clipPath>
		</g>
		<g>
			<defs>
				<polygon id="SVGID_13_" points="117.1,161 136.7,160.9 139.1,160.9 215.5,156.4 269.9,87.1 273.6,82.7 292.4,60.9 				"/>
			</defs>
			<linearGradient id="SVGID_14_" gradientUnits="userSpaceOnUse" x1="207.0011" y1="115.2953" x2="242.2225" y2="182.4701">
				<stop  offset="0" style="stop-color:#167E3D"/>
				<stop  offset="1" style="stop-color:#084823"/>
			</linearGradient>
			<use xlink:href="#SVGID_13_"  overflow="visible" fill="url(#SVGID_14_)"/>
			<clipPath id="SVGID_15_">
				<use xlink:href="#SVGID_13_"  overflow="visible"/>
			</clipPath>
		</g>
		<g>
			<defs>
				<polygon id="SVGID_16_" points="273.6,82.7 215.5,156.4 136.7,160.9 117.1,161 117.1,172.1 117.1,253.2 292.4,153.1 292.4,72
					292.4,60.9 				"/>
			</defs>
			<linearGradient id="SVGID_17_" gradientUnits="userSpaceOnUse" x1="117.0682" y1="157.0571" x2="292.4095" y2="157.0571">
				<stop  offset="0" style="stop-color:#6ECA44"/>
				<stop  offset="1" style="stop-color:#86D776"/>
			</linearGradient>
			<use xlink:href="#SVGID_16_"  overflow="visible" fill="url(#SVGID_17_)"/>
			<clipPath id="SVGID_18_">
				<use xlink:href="#SVGID_16_"  overflow="visible"/>
			</clipPath>
		</g>
		<g>
			<defs>
				<polygon id="SVGID_19_" points="111.3,249.9 117.1,253.2 117.1,161 111.3,157.7 				"/>
			</defs>
			<linearGradient id="SVGID_20_" gradientUnits="userSpaceOnUse" x1="114.1639" y1="251.5936" x2="114.1639" y2="157.2454">
				<stop  offset="0" style="stop-color:#6ECA44"/>
				<stop  offset="1" style="stop-color:#86D776"/>
			</linearGradient>
			<use xlink:href="#SVGID_19_"  overflow="visible" fill="url(#SVGID_20_)"/>
			<clipPath id="SVGID_21_">
				<use xlink:href="#SVGID_19_"  overflow="visible"/>
			</clipPath>
		</g>
		<g>
			<defs>
				<polygon id="SVGID_22_" points="111.3,157.7 117.1,161 204.7,48.7 198.9,45.4 				"/>
			</defs>
			<linearGradient id="SVGID_23_" gradientUnits="userSpaceOnUse" x1="111.2604" y1="103.2133" x2="204.7392" y2="103.2133">
				<stop  offset="0" style="stop-color:#6ECA44"/>
				<stop  offset="1" style="stop-color:#86D776"/>
			</linearGradient>
			<use xlink:href="#SVGID_22_"  overflow="visible" fill="url(#SVGID_23_)"/>
			<clipPath id="SVGID_24_">
				<use xlink:href="#SVGID_22_"  overflow="visible"/>
			</clipPath>
		</g>
		<g>
			<defs>
				<polygon id="SVGID_25_" points="204.7,48.7 292.4,60.6 286.6,57.3 198.9,45.4 				"/>
			</defs>
			<linearGradient id="SVGID_26_" gradientUnits="userSpaceOnUse" x1="198.929" y1="52.9726" x2="292.4095" y2="52.9726">
				<stop  offset="0" style="stop-color:#6ECA44"/>
				<stop  offset="1" style="stop-color:#86D776"/>
			</linearGradient>
			<use xlink:href="#SVGID_25_"  overflow="visible" fill="url(#SVGID_26_)"/>
			<clipPath id="SVGID_27_">
				<use xlink:href="#SVGID_25_"  overflow="visible"/>
			</clipPath>
		</g>
		<g>
			<defs>
				<polygon id="SVGID_28_" points="139.3,74.8 139.3,160.9 215.5,156.4 270.1,87.1 270.1,0.1 				"/>
			</defs>
			<use xlink:href="#SVGID_28_"  overflow="visible" fill="#EBEBEB"/>
			<clipPath id="SVGID_29_">
				<use xlink:href="#SVGID_28_"  overflow="visible"/>
			</clipPath>
		</g>
		<g>
			<path fill="#878787" d="M198.9,84.1l-43.4,25.1c-0.5,0.3-1.2-0.1-1.2-0.7v-7.5c0-0.3,0.2-0.6,0.4-0.7l43.5-25.1
				c0.5-0.3,1.2,0.1,1.2,0.7v7.5C199.4,83.6,199.2,83.9,198.9,84.1"/>
			<path fill="#878787" d="M254.8,77.8l-96.5,55.7c-0.5,0.3-1.2-0.1-1.2-0.7v-7.5c0-0.3,0.2-0.6,0.4-0.7L254,68.9
				c0.5-0.3,1.2,0.1,1.2,0.7v7.5C255.2,77.4,255,77.7,254.8,77.8"/>
			<path fill="#878787" d="M254.8,100.1l-96.5,55.7c-0.5,0.3-1.2-0.1-1.2-0.7v-7.5c0-0.3,0.2-0.6,0.4-0.7L254,91.2
				c0.5-0.3,1.2,0.1,1.2,0.7v7.5C255.2,99.7,255,100,254.8,100.1"/>
			<polygon fill="#878787" points="171,159 189.1,157.9 235.6,131.1 249,114 			"/>
		</g>
		<g>
			<defs>
				<path id="SVGID_30_" d="M19.6,128.5v30.7c0,10.2,4,17.1,10.5,20.2l0,0l14.4,8.3l0,0c-5.9-3.3-9.5-10-9.5-19.6v-33.4
					c0-1.4,0.4-2.7,1-3.9l-15-8C20.1,124.5,19.6,126.5,19.6,128.5"/>
			</defs>
			<linearGradient id="SVGID_31_" gradientUnits="userSpaceOnUse" x1="32.0872" y1="179.5363" x2="32.0872" y2="128.1566">
				<stop  offset="0" style="stop-color:#6E788C"/>
				<stop  offset="1" style="stop-color:#C8C8C8"/>
			</linearGradient>
			<use xlink:href="#SVGID_30_"  overflow="visible" fill="url(#SVGID_31_)"/>
			<clipPath id="SVGID_32_">
				<use xlink:href="#SVGID_30_"  overflow="visible"/>
			</clipPath>
		</g>
		<g>
			<defs>
				<path id="SVGID_33_" d="M84.4,83.9l-58.5,33.7c-2.1,1.2-3.8,3-4.9,5.1l15,8c0.7-1.2,1.7-2.2,2.9-3l62.2-35.9
					c0.8-0.5,1.6-0.6,2.4-0.4l-13.1-7.5c-0.9-0.5-2-0.8-3-0.8C86.4,83.1,85.4,83.4,84.4,83.9"/>
			</defs>
			<linearGradient id="SVGID_34_" gradientUnits="userSpaceOnUse" x1="96.5865" y1="88.4993" x2="25.0543" y2="125.5363">
				<stop  offset="0" style="stop-color:#6E788C"/>
				<stop  offset="1" style="stop-color:#C8C8C8"/>
			</linearGradient>
			<use xlink:href="#SVGID_33_"  overflow="visible" fill="url(#SVGID_34_)"/>
			<clipPath id="SVGID_35_">
				<use xlink:href="#SVGID_33_"  overflow="visible"/>
			</clipPath>
		</g>
		<g>
			<defs>
				<path id="SVGID_36_" d="M101.2,91.9L39,127.7c-1.2,0.7-2.3,1.8-2.9,3c-0.7,1.2-1,2.5-1,3.9V168c0,9.6,3.6,16.4,9.5,19.6
					c7,3.8,17.1,2.9,28.4-3.6c21-12.1,33.7-36.4,33.7-57.4V95c0-1.9-1.4-3.3-3.1-3.6c-0.2,0-0.4,0-0.6,0
					C102.4,91.4,101.8,91.5,101.2,91.9"/>
			</defs>
			<linearGradient id="SVGID_37_" gradientUnits="userSpaceOnUse" x1="35.0166" y1="140.6116" x2="106.6799" y2="140.6116">
				<stop  offset="0" style="stop-color:#6ECA44"/>
				<stop  offset="1" style="stop-color:#86D776"/>
			</linearGradient>
			<use xlink:href="#SVGID_36_"  overflow="visible" fill="url(#SVGID_37_)"/>
			<clipPath id="SVGID_38_">
				<use xlink:href="#SVGID_36_"  overflow="visible"/>
			</clipPath>
		</g>
		<g>
			<defs>
				<path id="SVGID_39_" d="M73.5,127.8c-6.2,3.6-11.2,11.5-11.2,17.7c0,3.7,1.8,5.9,4.5,6.4v9c0,3.7,3,5,6.7,2.9
					c3.7-2.2,6.7-6.9,6.7-10.6v-9c2.7-3.6,4.5-7.9,4.5-11.6c0-4.2-2.3-6.5-5.6-6.5C77.4,126.1,75.5,126.6,73.5,127.8"/>
			</defs>
			<linearGradient id="SVGID_40_" gradientUnits="userSpaceOnUse" x1="81.9389" y1="149.247" x2="63.8815" y2="139.5445">
				<stop  offset="0" style="stop-color:#167E3D"/>
				<stop  offset="1" style="stop-color:#084823"/>
			</linearGradient>
			<use xlink:href="#SVGID_39_"  overflow="visible" fill="url(#SVGID_40_)"/>
			<clipPath id="SVGID_41_">
				<use xlink:href="#SVGID_39_"  overflow="visible"/>
			</clipPath>
		</g>
		<g>
			<defs>
				<path id="SVGID_42_" d="M61.7,47.3c-11.2,5.1-17,11.6-22.5,20.2c-5.5,8.6-7.7,19.1-7.7,27.5v23c0,0.9,0.6,1.9,1.8,2.6
					c0.6,0.4,1.4,0.6,2.2,0.8c0.7,0.2,1.4,0.2,2.1,0.2h0c1.6,0,3.3-0.3,4.5-1.1c1.3-0.7,1.9-1.7,1.8-2.6c0,0,0,0,0-0.1V87.7
					c0-4.9,2-10.4,5.2-15.5c3.2-5,7.6-9.6,12.5-12.4c4.2-2.4,8.1-3.2,11.1-2.5h0c1.7,0.4,3.1,1.2,4.2,2.4c1.5,1.7,2.4,4.3,2.4,7.6
					v23c0,0.9,0.6,1.9,1.8,2.6c0.6,0.4,1.4,0.6,2.2,0.8c0.7,0.2,1.4,0.2,2.1,0.2c1.6,0,3.3-0.3,4.5-1.1c1.3-0.7,1.9-1.7,1.8-2.6h0
					V65.8c0-6.5-3.3-11.8-8-15.4c-4.1-3.1-9.2-4.8-14.3-4.8C66.9,45.6,64.2,46.2,61.7,47.3"/>
			</defs>
			<linearGradient id="SVGID_43_" gradientUnits="userSpaceOnUse" x1="31.4837" y1="83.6181" x2="91.9423" y2="83.6181">
				<stop  offset="0" style="stop-color:#6E788C"/>
				<stop  offset="1" style="stop-color:#C8C8C8"/>
			</linearGradient>
			<use xlink:href="#SVGID_42_"  overflow="visible" fill="url(#SVGID_43_)"/>
			<clipPath id="SVGID_44_">
				<use xlink:href="#SVGID_42_"  overflow="visible"/>
			</clipPath>
		</g>
		<g>
			<defs>
				<path id="SVGID_45_" d="M77,59.8c1.5,1.7,2.4,4.3,2.4,7.6v23c0,0.9,0.6,1.9,1.8,2.6V66.1c0-4.7-3.7-8.6-8.4-8.8
					C74.5,57.7,75.9,58.5,77,59.8"/>
			</defs>
			<linearGradient id="SVGID_46_" gradientUnits="userSpaceOnUse" x1="77.019" y1="53.7571" x2="77.019" y2="85.2284">
				<stop  offset="0" style="stop-color:#6E788C"/>
				<stop  offset="1" style="stop-color:#C8C8C8"/>
			</linearGradient>
			<use xlink:href="#SVGID_45_"  overflow="visible" fill="url(#SVGID_46_)"/>
			<clipPath id="SVGID_47_">
				<use xlink:href="#SVGID_45_"  overflow="visible"/>
			</clipPath>
		</g>
	</g>
	<g>
		<defs>
			<path id="SVGID_48_" d="M257.4,207.1c-1.3,0.8-2.6,1.7-3.8,2.8c-0.1,0.1-0.3,0.2-0.4,0.4c-3.7,3.4-3.7,8-2.5,12.2
				c2.2,7.9,8.6,13.9,16.5,16c5.5,1.5,12.8,1.9,20.8-1.3c3.6-1.5,5.9-3.4,7.2-5.6c5.1-8.6-4.6-21.1-11.8-24.8l-0.3-0.2
				c-3.9-2-8.1-3.1-12.3-3.1C266.1,203.4,261.5,204.7,257.4,207.1"/>
		</defs>
		<linearGradient id="SVGID_49_" gradientUnits="userSpaceOnUse" x1="249.9837" y1="221.5019" x2="296.5677" y2="221.5019">
			<stop  offset="0" style="stop-color:#6ECA44"/>
			<stop  offset="1" style="stop-color:#86D776"/>
		</linearGradient>
		<use xlink:href="#SVGID_48_"  overflow="visible" fill="url(#SVGID_49_)"/>
		<clipPath id="SVGID_50_">
			<use xlink:href="#SVGID_48_"  overflow="visible"/>
		</clipPath>
	</g>
	<g>
		<defs>
			<path id="SVGID_51_" d="M293.9,226v15.4c0,0.5,0.4,0.9,0.9,0.9c0.5,0,0.9-0.4,0.9-0.9V226c0-0.5-0.4-0.9-0.9-0.9
				C294.3,225.1,293.9,225.5,293.9,226"/>
		</defs>
		<linearGradient id="SVGID_52_" gradientUnits="userSpaceOnUse" x1="293.9322" y1="233.6702" x2="295.6336" y2="233.6702">
			<stop  offset="0" style="stop-color:#003366"/>
			<stop  offset="1" style="stop-color:#0066BA"/>
		</linearGradient>
		<use xlink:href="#SVGID_51_"  overflow="visible" fill="url(#SVGID_52_)"/>
		<clipPath id="SVGID_53_">
			<use xlink:href="#SVGID_51_"  overflow="visible"/>
		</clipPath>
	</g>
	<g>
		<defs>
			<path id="SVGID_54_" d="M282.9,227.9c0,4.7,3.8,8.6,8.6,8.6c4.7,0,8.6-3.8,8.6-8.6c0-4.7-3.8-8.6-8.6-8.6
				C286.7,219.4,282.9,223.2,282.9,227.9"/>
		</defs>
		<linearGradient id="SVGID_55_" gradientUnits="userSpaceOnUse" x1="282.8985" y1="227.9416" x2="300.0004" y2="227.9416">
			<stop  offset="0" style="stop-color:#167E3D"/>
			<stop  offset="1" style="stop-color:#084823"/>
		</linearGradient>
		<use xlink:href="#SVGID_54_"  overflow="visible" fill="url(#SVGID_55_)"/>
		<clipPath id="SVGID_56_">
			<use xlink:href="#SVGID_54_"  overflow="visible"/>
		</clipPath>
	</g>
	<g>
		<defs>
			<path id="SVGID_57_" d="M272.1,232.9l-10.1,4.9c-0.3,0.1-0.5,0.4-0.5,0.8v9c0,0.5,0.4,0.9,0.9,0.9s0.9-0.4,0.9-0.9v-8.5l9.7-4.7
				c0.4-0.2,0.6-0.7,0.4-1.1c-0.1-0.3-0.5-0.5-0.8-0.5C272.3,232.8,272.2,232.8,272.1,232.9"/>
		</defs>
		<linearGradient id="SVGID_58_" gradientUnits="userSpaceOnUse" x1="269.8006" y1="233.5925" x2="258.5488" y2="247.7979">
			<stop  offset="0" style="stop-color:#003366"/>
			<stop  offset="1" style="stop-color:#0066BA"/>
		</linearGradient>
		<use xlink:href="#SVGID_57_"  overflow="visible" fill="url(#SVGID_58_)"/>
		<clipPath id="SVGID_59_">
			<use xlink:href="#SVGID_57_"  overflow="visible"/>
		</clipPath>
	</g>
	<g>
		<defs>
			<path id="SVGID_60_" d="M261.1,228.6l-7.7,3.7c-0.3,0.1-0.5,0.4-0.5,0.8v10.5c0,0.5,0.4,0.9,0.9,0.9c0.5,0,0.9-0.4,0.9-0.9v-10
				l7.2-3.5c0.4-0.2,0.6-0.7,0.4-1.1c-0.1-0.3-0.5-0.5-0.8-0.5C261.3,228.5,261.2,228.5,261.1,228.6"/>
		</defs>
		<linearGradient id="SVGID_61_" gradientUnits="userSpaceOnUse" x1="261.9243" y1="228.0732" x2="250.6725" y2="242.2786">
			<stop  offset="0" style="stop-color:#003366"/>
			<stop  offset="1" style="stop-color:#0066BA"/>
		</linearGradient>
		<use xlink:href="#SVGID_60_"  overflow="visible" fill="url(#SVGID_61_)"/>
		<clipPath id="SVGID_62_">
			<use xlink:href="#SVGID_60_"  overflow="visible"/>
		</clipPath>
	</g>
	<g>
		<defs>
			<path id="SVGID_63_" d="M254.3,221.4l-7.7,3.7c-0.3,0.1-0.5,0.4-0.5,0.8v13.9c0,0.5,0.4,0.9,0.9,0.9c0.5,0,0.9-0.4,0.9-0.9v-13.4
				l7.2-3.5c0.4-0.2,0.6-0.7,0.4-1.1c-0.1-0.3-0.4-0.5-0.8-0.5C254.5,221.3,254.4,221.3,254.3,221.4"/>
		</defs>
		<linearGradient id="SVGID_64_" gradientUnits="userSpaceOnUse" x1="255.1266" y1="222.547" x2="243.8748" y2="236.7524">
			<stop  offset="0" style="stop-color:#003366"/>
			<stop  offset="1" style="stop-color:#0066BA"/>
		</linearGradient>
		<use xlink:href="#SVGID_63_"  overflow="visible" fill="url(#SVGID_64_)"/>
		<clipPath id="SVGID_65_">
			<use xlink:href="#SVGID_63_"  overflow="visible"/>
		</clipPath>
	</g>
	<g>
		<defs>
			<path id="SVGID_66_" d="M213.4,232.5c0.7,0.4,1.3,0.9,2,1.4c0.1,0.1,0.1,0.1,0.2,0.2c1.9,1.8,1.9,4.2,1.3,6.3
				c-1.2,4.1-4.4,7.2-8.5,8.3c-2.9,0.8-6.6,1-10.8-0.7c-1.9-0.8-3.1-1.8-3.7-2.9c-2.6-4.4,2.4-10.9,6.1-12.9l0.2-0.1
				c2-1.1,4.2-1.6,6.4-1.6C208.9,230.6,211.3,231.2,213.4,232.5"/>
		</defs>

			<linearGradient id="SVGID_67_" gradientUnits="userSpaceOnUse" x1="-357.6725" y1="239.9573" x2="-333.556" y2="239.9573" gradientTransform="matrix(-1 0 0 1 -140.4408 0)">
			<stop  offset="0" style="stop-color:#6E788C"/>
			<stop  offset="1" style="stop-color:#C8C8C8"/>
		</linearGradient>
		<use xlink:href="#SVGID_66_"  overflow="visible" fill="url(#SVGID_67_)"/>
		<clipPath id="SVGID_68_">
			<use xlink:href="#SVGID_66_"  overflow="visible"/>
		</clipPath>
	</g>
	<g>
		<defs>
			<path id="SVGID_69_" d="M194.5,242.3v8c0,0.2-0.2,0.4-0.4,0.4c-0.2,0-0.4-0.2-0.4-0.4v-8c0-0.2,0.2-0.4,0.4-0.4
				C194.3,241.8,194.5,242,194.5,242.3"/>
		</defs>

			<linearGradient id="SVGID_70_" gradientUnits="userSpaceOnUse" x1="-334.9204" y1="246.2568" x2="-334.0396" y2="246.2568" gradientTransform="matrix(-1 0 0 1 -140.4408 0)">
			<stop  offset="0" style="stop-color:#003366"/>
			<stop  offset="1" style="stop-color:#0066BA"/>
		</linearGradient>
		<use xlink:href="#SVGID_69_"  overflow="visible" fill="url(#SVGID_70_)"/>
		<clipPath id="SVGID_71_">
			<use xlink:href="#SVGID_69_"  overflow="visible"/>
		</clipPath>
	</g>
	<g>
		<defs>
			<path id="SVGID_72_" d="M200.2,243.3c0,2.4-2,4.4-4.4,4.4c-2.4,0-4.4-2-4.4-4.4s2-4.4,4.4-4.4
				C198.2,238.9,200.2,240.8,200.2,243.3"/>
		</defs>

			<linearGradient id="SVGID_73_" gradientUnits="userSpaceOnUse" x1="-340.6325" y1="243.2911" x2="-331.7789" y2="243.2911" gradientTransform="matrix(-1 0 0 1 -140.4408 0)">
			<stop  offset="0" style="stop-color:#6E788C"/>
			<stop  offset="1" style="stop-color:#C8C8C8"/>
		</linearGradient>
		<use xlink:href="#SVGID_72_"  overflow="visible" fill="url(#SVGID_73_)"/>
		<clipPath id="SVGID_74_">
			<use xlink:href="#SVGID_72_"  overflow="visible"/>
		</clipPath>
	</g>
	<g>
		<defs>
			<path id="SVGID_75_" d="M205.8,245.9l5.3,2.6c0.2,0.1,0.2,0.2,0.2,0.4v4.7c0,0.2-0.2,0.4-0.4,0.4c-0.2,0-0.4-0.2-0.4-0.4v-4.4
				l-5-2.4c-0.2-0.1-0.3-0.4-0.2-0.6c0.1-0.2,0.2-0.2,0.4-0.2C205.7,245.8,205.7,245.8,205.8,245.9"/>
		</defs>

			<linearGradient id="SVGID_76_" gradientUnits="userSpaceOnUse" x1="-347.4133" y1="246.2165" x2="-353.2383" y2="253.5707" gradientTransform="matrix(-1 0 0 1 -140.4408 0)">
			<stop  offset="0" style="stop-color:#003366"/>
			<stop  offset="1" style="stop-color:#0066BA"/>
		</linearGradient>
		<use xlink:href="#SVGID_75_"  overflow="visible" fill="url(#SVGID_76_)"/>
		<clipPath id="SVGID_77_">
			<use xlink:href="#SVGID_75_"  overflow="visible"/>
		</clipPath>
	</g>
	<g>
		<defs>
			<path id="SVGID_78_" d="M211.5,243.6l4,1.9c0.2,0.1,0.2,0.2,0.2,0.4v5.5c0,0.2-0.2,0.4-0.4,0.4c-0.2,0-0.4-0.2-0.4-0.4v-5.2
				l-3.7-1.8c-0.2-0.1-0.3-0.4-0.2-0.6c0.1-0.2,0.2-0.2,0.4-0.2C211.4,243.6,211.4,243.6,211.5,243.6"/>
		</defs>

			<linearGradient id="SVGID_79_" gradientUnits="userSpaceOnUse" x1="-351.4908" y1="243.3592" x2="-357.3159" y2="250.7133" gradientTransform="matrix(-1 0 0 1 -140.4408 0)">
			<stop  offset="0" style="stop-color:#003366"/>
			<stop  offset="1" style="stop-color:#0066BA"/>
		</linearGradient>
		<use xlink:href="#SVGID_78_"  overflow="visible" fill="url(#SVGID_79_)"/>
		<clipPath id="SVGID_80_">
			<use xlink:href="#SVGID_78_"  overflow="visible"/>
		</clipPath>
	</g>
	<g>
		<defs>
			<path id="SVGID_81_" d="M215,239.9l4,1.9c0.2,0.1,0.2,0.2,0.2,0.4v7.2c0,0.2-0.2,0.4-0.4,0.4c-0.2,0-0.4-0.2-0.4-0.4v-6.9
				l-3.7-1.8c-0.2-0.1-0.3-0.4-0.2-0.6c0.1-0.2,0.2-0.2,0.4-0.2C214.9,239.8,214.9,239.9,215,239.9"/>
		</defs>

			<linearGradient id="SVGID_82_" gradientUnits="userSpaceOnUse" x1="-355.01" y1="240.4983" x2="-360.835" y2="247.8524" gradientTransform="matrix(-1 0 0 1 -140.4408 0)">
			<stop  offset="0" style="stop-color:#003366"/>
			<stop  offset="1" style="stop-color:#0066BA"/>
		</linearGradient>
		<use xlink:href="#SVGID_81_"  overflow="visible" fill="url(#SVGID_82_)"/>
		<clipPath id="SVGID_83_">
			<use xlink:href="#SVGID_81_"  overflow="visible"/>
		</clipPath>
	</g>
</g>
</svg>
