<?xml version="1.0" encoding="utf-8"?>
<!-- Generator: Adobe Illustrator 19.2.0, SVG Export Plug-In . SVG Version: 6.00 Build 0)  -->
<svg version="1.1" id="Ebene_1" xmlns="http://www.w3.org/2000/svg" xmlns:xlink="http://www.w3.org/1999/xlink" x="0px" y="0px"
	 width="237px" height="158.1px" viewBox="0 0 237 158.1" style="enable-background:new 0 0 237 158.1;" xml:space="preserve">
<style type="text/css">
	.st0{fill:#004C92;}
	.st1{fill:#FFFFFF;}
	.st2{fill:#79B641;}
</style>
<path class="st0" d="M160.8,144.8c-0.3,0-0.6-0.1-0.8-0.3l-3.2-3.4c-0.1-0.1-0.1-0.1-0.2-0.2l-0.7-1.2c0-0.1-0.1-0.2-0.1-0.3l-1-4.3
	l-2.8-1.3l-2.8-1c-0.3-0.1-0.6-0.4-0.7-0.7c-0.1-0.3,0-0.7,0.2-1l1.6-2.1l1.4-2.9l-1.2-1.3l-5.3,0c-0.2,0-0.5-0.1-0.7-0.2l-4.8-3.9
	l-4.8-4.5c-0.1-0.1-0.1-0.1-0.2-0.2l-3.7-5.5c-0.2-0.3-0.2-0.7-0.1-1.1l1.5-3l0.2-7.2l-0.3-0.2l-5.5,2.1c-0.8,1.5-1.6,3.1-1.7,3.3
	c0,0.1-0.1,0.3-3.1,4.8c-0.3,0.4-0.7,0.6-1.2,0.4c-0.5-0.1-1-0.3-1.4-0.4c-0.4,0.3-1.2,0.9-1.9,1.5l-0.1,0.7l3.4,4.5
	c0.3,0.3,0.3,0.8,0.1,1.2l-3.3,5.4c-0.2,0.3-0.5,0.5-0.9,0.5l-2.3,0.1l-2,6.5c-0.1,0.4-0.5,0.8-1,0.8l-3.5,0l-0.8,0.8l-0.2,2.9
	c0,0.3-0.2,0.6-0.4,0.8l-1.2,0.9c-0.3,0.2-0.7,0.3-1,0.1l-7.5-2.8c-0.1,0-0.2-0.1-0.3-0.1l-1.6-1.2l-5.4,1.5c-0.1,0-0.1,0-0.2,0
	l-2.9,0.4l-4.9,3.5c-0.4,0.3-1,0.3-1.4-0.1l-0.8-0.9l-2.5-0.1l-4,3.6c-0.2,0.2-0.5,0.3-0.8,0.3l-5-0.5c-0.3,0-0.6-0.2-0.8-0.5
	l-2.7-3.8c-0.1-0.1-0.1-0.2-0.2-0.3l-1.4-5.1l-1.6-2.1l-2-2l-0.3,0.4c-0.3,0.4-0.8,0.6-1.2,0.4l-1.2-0.4c-0.3-0.1-0.5-0.3-0.6-0.5
	c-0.1-0.3-0.2-0.6-0.1-0.8l0.5-1.6l-0.2-1.3c0-0.2,0-0.4,0.1-0.6l0.2-0.3l-2.6-0.5c-0.2,0-0.3-0.1-0.5-0.2l-1.2-1
	c-0.4-0.3-0.5-0.7-0.4-1.2l0.8-2.6L52,114c0-0.2,0.1-0.4,0.1-0.5l2.4-4.2l0-0.6l-3.5-4.4c-0.2-0.3-0.3-0.7-0.1-1.1l0.4-0.8
	l-11.9-0.6l-6.9,4.2c-0.4,0.3-1,0.2-1.3-0.2l-1.6-1.7l-1.6,0.6l-1.8,3.6l0.7,1.3l1.5,0.2c0.4,0.1,0.7,0.3,0.8,0.6
	c0.1,0.3,0.1,0.7-0.1,1l-1.7,2.5c-0.1,0.2-0.3,0.3-0.4,0.4l-3.2,1.5l-2.2,2.2c-0.1,0.1-0.2,0.2-0.4,0.2l-2,0.7
	c-0.3,0.1-0.6,0.1-0.8,0l-1.3-0.6l-1.1,0.1l-0.6,0.7c-0.2,0.2-0.5,0.3-0.8,0.4l-3.5,0c0,0,0,0,0,0c-0.4,0-0.7-0.2-0.9-0.5
	c-0.2-0.3-0.2-0.7,0-1.1l1-1.8l-0.7-1.1c-0.2-0.3-0.2-0.6-0.1-0.9l0.6-1.6c0.1-0.3,0.3-0.5,0.6-0.6l5.4-2.4l2.5-7.9l-3.2-2.7
	c-0.3-0.2-0.4-0.6-0.4-0.9l0.3-3.3c0-0.2,0.1-0.5,0.3-0.6l2.2-2.4l1.4-2.1l-1.2-1.7c-0.3-0.4-0.3-1,0.1-1.4l8-7.7
	c0.1-0.1,0.2-0.2,0.4-0.2l3.2-1.2l3.8-3.4l0.5-1.4l-0.5-0.9c-0.1-0.2-0.2-0.5-0.1-0.8l1.5-5.3l-1.3-1.8c-0.3-0.4-0.3-1,0.1-1.4
	l3.1-3.3c0.2-0.2,0.5-0.3,0.8-0.3l2.2,0l4.1-1.8l1.2-2l1.3-1.8l3.2-3.3l9.3-8.7l0.4-3.3c0-0.3,0.2-0.5,0.4-0.7l2.7-2.3l-0.7-1.1
	l-4.6,0.4c-0.6,0-1.1-0.4-1.1-0.9l-0.3-1.9c0-0.3,0-0.6,0.2-0.9l2.3-2.6l3.4-5.2c0.2-0.3,0.5-0.5,0.8-0.5l6.2-0.5
	c0.4,0,0.8,0.2,1,0.5l2.1,3.3l3.2,1.7l6.3-0.6l4.4-3.8l3.2-6.5c0.2-0.3,0.5-0.6,0.9-0.6l3.7-0.3c0.5,0,1,0.3,1.1,0.8l0.5,1.8
	l2.5,1.2l4.5-2.6c0.1-0.1,0.3-0.1,0.5-0.1l3.6-0.2c0.3,0,0.6,0.1,0.8,0.3l2.4,2l7.8-1.7l3.5-2.1c0.2-0.1,0.4-0.2,0.6-0.2l2.7,0.1
	c0.4,0,0.8,0.2,0.9,0.6l1.1,2.2l4.1,0.8l1.2-2.8l-2-3.2c-0.1-0.1-0.1-0.3-0.2-0.5l-0.3-2.8c-0.1-0.4,0.2-0.9,0.6-1.1l1.4-0.8
	l1.3-3.3c0.1-0.2,0.2-0.4,0.4-0.5l4-3C137,0,137.3,0,137.6,0l4.1,0.9c0.1,0,0.2,0.1,0.3,0.1l7.1,3.7c0.1,0,0.1,0.1,0.2,0.1l2.5,2.1
	c0.2,0.2,0.3,0.4,0.4,0.6l0.7,3.4l1,0.6l4.6-1.9c0.1,0,0.2-0.1,0.4-0.1l3.4-0.2c0.1,0,0.3,0,0.4,0.1l1.9,0.7l2.9,0.7
	c0.1,0,0.2,0,0.2,0.1l6.3,3.2c0.1,0.1,0.3,0.2,0.4,0.3l2.9,3.8l4.9,4.5l3.9-0.3c0.3,0,0.5,0,0.7,0.2l3.9,2.8
	c0.2,0.1,0.3,0.3,0.4,0.6l1.2,4c0.1,0.4,0,0.7-0.2,1l-2.6,3l-2.8,5.5l0.9,5.3l2.5,2c0.3,0.2,0.4,0.6,0.4,0.9l-0.4,4.3l7.7,1.9
	c0.1,0,0.1,0,0.2,0.1l5,2.5c0.4,0.2,0.6,0.6,0.6,1l-0.2,4.3l7.2,3.9l2.9,1.5l5.1-1.2l0.7-3.4c0.1-0.3,0.3-0.6,0.5-0.7
	c0.3-0.2,0.6-0.2,0.9-0.1l1.4,0.5l0.6-0.9l1.1-4.3c0.1-0.4,0.4-0.7,0.8-0.8l2.7-0.7c0.5-0.1,1,0.1,1.2,0.6l1.4,2.9l2.8,3.1
	c0.2,0.3,0.3,0.7,0.2,1l-3,10.5l0.4,2.7c0,0.1,0,0.3,0,0.4l-1,3.5l0.5,1.3l0.5,0c0.2,0,0.6,0.1,0.8,0.3l3.1,2.9
	c0.4,0.3,0.4,0.8,0.2,1.3l-1.9,3.9c-0.2,0.4-0.6,0.6-1,0.6l-9.8-0.7c-0.2,0-0.4-0.1-0.5-0.2l-0.9-0.6c-0.3-0.2-0.5-0.6-0.5-1
	l0.3-2.1l-5.1,0.5l-2.3,4.1l-0.1,6.3l5.1,2c0.3,0.1,0.5,0.4,0.6,0.7c0.1,0.3,0,0.7-0.1,0.9l-1.6,2.3l-0.6,3.2l3,3.7
	c0.2,0.2,0.3,0.5,0.2,0.8c0,0.3-0.2,0.6-0.5,0.7l-3.9,2.6c-0.1,0.1-0.3,0.2-0.5,0.2l-1.9,0.2c-0.3,0-0.6-0.1-0.8-0.3
	c-0.2-0.2-0.4-0.5-0.4-0.8l-0.1-2.7l-2.5-4.5l-1.7-1.9l-2-0.5l-4.1,1.9c-0.1,0-0.2,0.1-0.3,0.1l-2.6,0.3l-1.6,3.4
	c-0.2,0.5-0.8,0.7-1.3,0.6l-1.2-0.4l-2.1,0.8c-0.3,0.1-0.7,0.1-1-0.1l-6-4.1c-0.1-0.1-0.3-0.2-0.3-0.4l-3.1-5.9l-2.6-2.3
	c-0.1-0.1-0.2-0.2-0.3-0.4l-1-2.2l-2.5,0.4l-0.2,5l0.3,8.3c0,0.2,0,0.3-0.1,0.5l-4.1,9.1c-0.1,0.1-0.1,0.2-0.2,0.3l-4.2,4l-0.6,3.5
	c-0.1,0.4-0.4,0.8-0.8,0.9l-1.9,0.5l-0.8,2.8l-0.9,2.3l0.7,0.6c0.2,0.2,0.3,0.4,0.3,0.6l0.3,1.3l2.3,1.7c0.4,0.3,0.5,0.8,0.4,1.3
	l-1.6,4c0,0.1-0.1,0.2-0.2,0.3l-1.6,1.8C161.4,144.6,161.1,144.8,160.8,144.8C160.8,144.8,160.8,144.8,160.8,144.8z M158.5,139.7
	l2.3,2.4l0.7-0.8l1.2-3.1l-1.9-1.4c-0.2-0.2-0.4-0.4-0.4-0.7l-0.3-1.4l-1-0.9c-0.3-0.3-0.4-0.8-0.3-1.2l1.1-2.9l1-3.3
	c0.1-0.4,0.4-0.6,0.8-0.7l1.8-0.5l0.5-3.2c0-0.2,0.2-0.4,0.3-0.6l4.4-4.1l3.9-8.7l-0.3-8.1l0.3-5.9c0-0.5,0.4-0.9,0.9-1l4.2-0.7
	c0.5-0.1,0.9,0.2,1.1,0.6l1.3,2.7l2.6,2.3c0.1,0.1,0.2,0.2,0.2,0.3l3,5.9l5.3,3.6l1.9-0.8c0.2-0.1,0.5-0.1,0.7,0l0.7,0.2l1.5-3.1
	c0.2-0.3,0.5-0.5,0.8-0.6l3-0.4l4.3-2c0.2-0.1,0.5-0.1,0.7-0.1l2.7,0.7c0.2,0.1,0.4,0.2,0.5,0.3l2,2.2c0.1,0.1,0.1,0.1,0.1,0.2
	l2.7,4.8c0.1,0.1,0.1,0.3,0.1,0.5l0.1,1.8l0.5-0.1l2.7-1.8l-2.6-3.2c-0.2-0.2-0.3-0.6-0.2-0.9l0.8-3.9c0-0.1,0.1-0.3,0.2-0.4l1-1.4
	l-4.5-1.8c-0.4-0.2-0.7-0.6-0.7-1l0.1-7.3c0-0.2,0-0.4,0.1-0.5l2.7-4.9c0.2-0.3,0.5-0.5,0.8-0.5l7-0.7c0.3,0,0.7,0.1,0.9,0.3
	c0.2,0.2,0.3,0.6,0.3,0.9l-0.4,2.8l0.1,0l8.8,0.6l1.3-2.6l-2.2-2.1l-0.9,0c-0.4,0-0.9-0.3-1.1-0.7l-0.8-2.4c-0.1-0.2-0.1-0.4,0-0.6
	l1-3.6l-0.4-2.7c0-0.1,0-0.3,0-0.4l2.9-10.2l-2.5-2.8c-0.1-0.1-0.1-0.2-0.2-0.2l-1.1-2.2l-1.2,0.3l-1,3.9c0,0.1-0.1,0.2-0.1,0.3
	l-1.1,1.7c-0.3,0.4-0.8,0.6-1.2,0.4l-1-0.4l-0.6,2.9c-0.1,0.4-0.4,0.7-0.8,0.8l-6.2,1.4c-0.2,0.1-0.5,0-0.7-0.1l-3.3-1.7l-7.8-4.2
	c-0.4-0.2-0.6-0.6-0.6-1l0.2-4.3l-4.3-2.1l-8.5-2.1c-0.5-0.1-0.9-0.6-0.8-1.2l0.5-4.6l-2.3-1.9c-0.2-0.2-0.3-0.4-0.4-0.6l-1.1-6.1
	c0-0.2,0-0.5,0.1-0.7l3-5.9c0-0.1,0.1-0.2,0.2-0.2l2.3-2.6l-0.9-3l-3.3-2.3l-4,0.3c-0.3,0-0.6-0.1-0.8-0.3l-5.3-4.8
	c0,0-0.1-0.1-0.1-0.1l-2.8-3.7l-5.9-3.1l-2.8-0.7l-1.8-0.6l-3,0.1l-4.9,2c-0.3,0.1-0.7,0.1-1-0.1l-1.9-1.2c-0.3-0.2-0.4-0.4-0.5-0.7
	l-0.7-3.5L148,6.6L141.1,3l-3.5-0.8l-3.4,2.5L133,8.1c-0.1,0.2-0.3,0.4-0.5,0.6l-1.1,0.6l0.2,1.9l2.2,3.4c0.2,0.3,0.2,0.7,0.1,1
	l-1.8,4.1c-0.2,0.5-0.7,0.7-1.2,0.6l-5.5-1c-0.3-0.1-0.6-0.3-0.8-0.6l-1-2.1l-1.8-0.1l-3.4,2.1c-0.1,0.1-0.2,0.1-0.3,0.1l-8.5,1.9
	c-0.3,0.1-0.7,0-0.9-0.2l-2.5-2.1l-2.9,0.2l-4.7,2.8c-0.3,0.2-0.7,0.2-1,0l-3.4-1.7c-0.3-0.1-0.5-0.4-0.6-0.7l-0.4-1.4L91,17.8
	l-3,6.2c-0.1,0.1-0.2,0.2-0.3,0.3l-4.8,4.2c-0.2,0.1-0.4,0.2-0.6,0.3l-6.9,0.6c-0.2,0-0.4,0-0.6-0.1l-3.7-2
	c-0.2-0.1-0.3-0.2-0.4-0.4l-1.9-3l-5,0.4l-3.1,4.8c0,0-0.1,0.1-0.1,0.1l-2,2.3l0.1,0.4l4.3-0.3c0.4,0,0.8,0.2,1,0.5l1.6,2.4
	c0.3,0.5,0.2,1.1-0.2,1.4l-3.2,2.6l-0.4,3.2c0,0.2-0.1,0.5-0.3,0.7l-9.6,8.9l-3,3.1l-1.2,1.6l-1.3,2.2c-0.1,0.2-0.3,0.4-0.5,0.4
	l-4.7,2.1c-0.1,0.1-0.3,0.1-0.4,0.1l-2,0l-2.2,2.3l1.1,1.5c0.2,0.3,0.2,0.6,0.2,0.9l-1.5,5.4l0.5,0.9c0.1,0.3,0.2,0.6,0.1,0.8
	l-0.7,2.1c-0.1,0.2-0.2,0.3-0.3,0.5l-4.2,3.8c-0.1,0.1-0.2,0.2-0.3,0.2l-3.1,1.2L21,87.6l1.1,1.5c0.3,0.4,0.3,0.9,0,1.2l-1.9,2.8
	c0,0-0.1,0.1-0.1,0.1l-2,2.2l-0.2,2.4l3.3,2.8c0.3,0.3,0.5,0.7,0.3,1.1l-2.9,9c-0.1,0.3-0.3,0.5-0.6,0.7l-5.4,2.4l-0.2,0.7l0.8,1.2
	c0.2,0.3,0.2,0.8,0,1.1l-0.4,0.7l1.1,0l0.6-0.7c0.2-0.2,0.4-0.3,0.7-0.3l1.8-0.2c0.2,0,0.4,0,0.5,0.1l1.2,0.5l1.4-0.5l2.2-2.2
	c0.1-0.1,0.2-0.2,0.3-0.2l3.1-1.5l0.6-0.9l-0.4-0.1c-0.3-0.1-0.6-0.3-0.8-0.6l-1.1-2.3c-0.1-0.3-0.1-0.7,0-1l2.2-4.4
	c0.1-0.2,0.3-0.4,0.6-0.5l2.6-1c0.4-0.2,0.9-0.1,1.2,0.3l1.5,1.6l6.5-4c0.2-0.1,0.4-0.2,0.6-0.2l13.8,0.7c0.4,0,0.7,0.2,0.9,0.5
	c0.2,0.3,0.2,0.7,0.1,1l-0.7,1.6l3.3,4.2c0.1,0.2,0.2,0.4,0.2,0.6l0.1,1.3c0,0.2,0,0.4-0.1,0.6l-2.5,4.3L54,116c0,0.1,0,0.2-0.1,0.3
	l-0.7,2l0.4,0.3l3.7,0.7c0.3,0.1,0.6,0.3,0.8,0.6s0.1,0.7,0,0.9l-0.6,1.3l0.2,1.2c0.1-0.1,0.3-0.1,0.4-0.1c0.3,0,0.6,0.1,0.9,0.3
	l3,3.1l1.8,2.3c0.1,0.1,0.2,0.2,0.2,0.4l1.4,5.1l2.3,3.3l4,0.4l4-3.6c0.2-0.2,0.5-0.3,0.8-0.3l3.4,0.1c0.3,0,0.6,0.1,0.8,0.3
	l0.5,0.5l4.3-3.1c0.1-0.1,0.3-0.2,0.5-0.2l3.1-0.4l5.8-1.6c0.3-0.1,0.7,0,0.9,0.2l1.9,1.4l6.8,2.5l0.3-0.2l0.2-2.8
	c0-0.3,0.1-0.5,0.3-0.7l1.4-1.4c0.2-0.2,0.5-0.3,0.8-0.3l3.2,0l1.9-6.4c0.1-0.4,0.5-0.7,1-0.8l2.5-0.2l2.6-4.3l-3.2-4.3
	c-0.2-0.2-0.2-0.5-0.2-0.8l0.2-1.6c0-0.3,0.2-0.5,0.4-0.7c2.8-2.2,2.8-2.2,3.1-2.2c0.2-0.1,0.3-0.1,1.7,0.3c1.2-1.8,2.3-3.6,2.5-3.8
	c0,0-0.1,0,1.9-3.8c0.1-0.2,0.3-0.4,0.6-0.5L132,97c0.3-0.1,0.7-0.1,0.9,0.1l1.3,0.8c0.3,0.2,0.5,0.6,0.5,1l-0.2,8
	c0,0.2,0,0.3-0.1,0.4l-1.3,2.6l3.3,4.8l4.7,4.4l4.5,3.6l5.4,0c0.3,0,0.6,0.1,0.8,0.3l2.1,2.1c0.3,0.3,0.4,0.8,0.2,1.2l-1.8,3.6
	c0,0.1-0.1,0.1-0.1,0.2l-0.7,1l1.5,0.5l3.4,1.5c0.3,0.1,0.5,0.4,0.6,0.7l1.1,4.7L158.5,139.7z"/>
<rect x="1.4" y="60.9" class="st1" width="98.3" height="93.8"/>
<g>
	<path class="st2" d="M5.5,97.2c-3,0-5.5-2.5-5.5-5.5l0-21.3c0-1.5,0.6-2.9,1.6-3.9c1-1,2.4-1.6,3.9-1.6l84.8-0.1c0,0,0,0,0,0
		c3,0,5.5,2.5,5.5,5.5l0,21.3c0,1.5-0.6,2.9-1.6,3.9c-1,1-2.4,1.6-3.9,1.6L5.5,97.2C5.5,97.2,5.5,97.2,5.5,97.2z M90.3,67.7
		C90.3,67.7,90.3,67.7,90.3,67.7L5.5,67.8c-0.7,0-1.4,0.3-1.9,0.8c-0.5,0.5-0.8,1.2-0.8,1.9l0,21.3c0,1.5,1.2,2.7,2.7,2.7
		c0,0,0,0,0,0l84.8-0.1c0.7,0,1.4-0.3,1.9-0.8c0.5-0.5,0.8-1.2,0.8-1.9l0-21.3C93,68.9,91.8,67.7,90.3,67.7z"/>
	<path class="st2" d="M15.4,87.9c-3.7,0-6.8-3-6.8-6.8c0-3.7,3-6.8,6.8-6.8c0,0,0,0,0,0c3.7,0,6.8,3,6.8,6.8v0
		C22.2,84.8,19.1,87.9,15.4,87.9C15.4,87.9,15.4,87.9,15.4,87.9z M15.4,77.1C15.4,77.1,15.4,77.1,15.4,77.1c-2.2,0-4,1.8-4,4
		c0,2.2,1.8,4,4,4c0,0,0,0,0,0c2.2,0,4-1.8,4-4C19.4,78.9,17.6,77.1,15.4,77.1z"/>
	<g>
		<path class="st2" d="M51.7,79c-0.8,0-1.4-0.6-1.4-1.4c0-0.8,0.6-1.4,1.4-1.4l30.5,0c0,0,0,0,0,0c0.8,0,1.4,0.6,1.4,1.4
			c0,0.8-0.6,1.4-1.4,1.4L51.7,79C51.7,79,51.7,79,51.7,79z"/>
		<path class="st2" d="M51.7,85.9c-0.8,0-1.4-0.6-1.4-1.4c0-0.8,0.6-1.4,1.4-1.4l30.5,0c0.8,0,1.4,0.6,1.4,1.4
			c0,0.8-0.6,1.4-1.4,1.4L51.7,85.9C51.7,85.9,51.7,85.9,51.7,85.9z"/>
	</g>
	<path class="st2" d="M5.6,126.7c-3,0-5.5-2.5-5.5-5.5l0-21.3c0-1.5,0.6-2.9,1.6-3.9c1-1,2.4-1.6,3.9-1.6l84.8-0.1c0,0,0,0,0,0
		c3,0,5.5,2.5,5.5,5.5l0,21.3c0,1.5-0.6,2.9-1.6,3.9c-1,1-2.4,1.6-3.9,1.6L5.6,126.7C5.6,126.7,5.6,126.7,5.6,126.7z M90.4,97.1
		C90.4,97.1,90.4,97.1,90.4,97.1L5.5,97.2c-0.7,0-1.4,0.3-1.9,0.8c-0.5,0.5-0.8,1.2-0.8,1.9l0,21.3c0,1.5,1.2,2.7,2.7,2.7
		c0,0,0,0,0,0l84.8-0.1c0.7,0,1.4-0.3,1.9-0.8s0.8-1.2,0.8-1.9l0-21.3C93.1,98.3,91.9,97.1,90.4,97.1z"/>
	<path class="st2" d="M15.4,117.3c-1.8,0-3.5-0.7-4.8-2c-1.3-1.3-2-3-2-4.8c0-1.8,0.7-3.5,2-4.8c1.3-1.3,3-2,4.8-2c0,0,0,0,0,0
		c1.8,0,3.5,0.7,4.8,2c1.3,1.3,2,3,2,4.8l0,0c0,1.8-0.7,3.5-2,4.8C19,116.6,17.3,117.3,15.4,117.3C15.4,117.3,15.4,117.3,15.4,117.3
		z M15.4,106.6C15.4,106.6,15.4,106.6,15.4,106.6c-1.1,0-2.1,0.4-2.8,1.2c-0.7,0.7-1.2,1.7-1.2,2.8c0,1.1,0.4,2.1,1.2,2.8
		c0.7,0.7,1.7,1.2,2.8,1.2c0,0,0,0,0,0c1.1,0,2.1-0.4,2.8-1.2c0.7-0.7,1.2-1.7,1.2-2.8v0c0-1.1-0.4-2.1-1.2-2.8
		C17.5,107,16.5,106.6,15.4,106.6z"/>
	<g>
		<path class="st2" d="M51.7,108.5c-0.8,0-1.4-0.6-1.4-1.4c0-0.8,0.6-1.4,1.4-1.4l30.5,0c0.8,0.1,1.4,0.6,1.4,1.4
			c0,0.8-0.6,1.4-1.4,1.4L51.7,108.5C51.7,108.5,51.7,108.5,51.7,108.5z"/>
		<path class="st2" d="M51.7,115.3c-0.8,0-1.4-0.6-1.4-1.4c0-0.8,0.6-1.4,1.4-1.4l30.5,0c0,0,0,0,0,0c0.8,0,1.4,0.6,1.4,1.4
			s-0.6,1.4-1.4,1.4L51.7,115.3C51.7,115.3,51.7,115.3,51.7,115.3z"/>
	</g>
	<path class="st2" d="M5.6,156.1c-3,0-5.5-2.5-5.5-5.5l0-21.3c0-1.5,0.6-2.9,1.6-3.9c1-1,2.4-1.6,3.9-1.6l84.8-0.1
		c1.5,0.1,2.9,0.6,3.9,1.6c1,1,1.6,2.4,1.6,3.9l0,21.3c0,1.5-0.6,2.9-1.6,3.9c-1,1-2.4,1.6-3.9,1.6L5.6,156.1
		C5.6,156.1,5.6,156.1,5.6,156.1z M90.4,126.6C90.4,126.6,90.4,126.6,90.4,126.6l-84.8,0.1c-0.7,0-1.4,0.3-1.9,0.8
		c-0.5,0.5-0.8,1.2-0.8,1.9l0,21.3c0,1.5,1.2,2.7,2.7,2.7c0,0,0,0,0,0l84.8-0.1c0.7,0,1.4-0.3,1.9-0.8c0.5-0.5,0.8-1.2,0.8-1.9
		l0-21.3c0-0.7-0.3-1.4-0.8-1.9C91.8,126.9,91.1,126.6,90.4,126.6z"/>
	<path class="st2" d="M15.5,146.8c-3.7,0-6.8-3-6.8-6.8c0-3.7,3-6.8,6.8-6.8c0,0,0,0,0,0c3.7,0,6.8,3,6.8,6.8v0
		C22.3,143.7,19.2,146.8,15.5,146.8C15.5,146.8,15.5,146.8,15.5,146.8z M15.5,136C15.5,136,15.5,136,15.5,136c-2.2,0-4,1.8-4,4
		c0,2.2,1.8,4,4,4c0,0,0,0,0,0c2.2,0,4-1.8,4-4C19.4,137.8,17.7,136,15.5,136z"/>
	<g>
		<path class="st2" d="M51.8,137.9c-0.8,0-1.4-0.6-1.4-1.4c0-0.8,0.6-1.4,1.4-1.4l30.5,0c0,0,0,0,0,0c0.8,0,1.4,0.6,1.4,1.4
			s-0.6,1.4-1.4,1.4L51.8,137.9C51.8,137.9,51.8,137.9,51.8,137.9z"/>
		<path class="st2" d="M51.8,144.8c-0.8,0-1.4-0.6-1.4-1.4s0.6-1.4,1.4-1.4l30.5,0c0,0,0,0,0,0c0.8,0,1.4,0.6,1.4,1.4
			s-0.6,1.4-1.4,1.4L51.8,144.8C51.8,144.8,51.8,144.8,51.8,144.8z"/>
	</g>
</g>
</svg>
