<?xml version="1.0" encoding="utf-8"?>
<!-- Generator: Adobe Illustrator 19.2.0, SVG Export Plug-In . SVG Version: 6.00 Build 0)  -->
<svg version="1.1" id="Ebene_1" xmlns="http://www.w3.org/2000/svg" xmlns:xlink="http://www.w3.org/1999/xlink" x="0px" y="0px"
	 width="79.2px" height="102px" viewBox="0 0 79.2 102" style="enable-background:new 0 0 79.2 102;" xml:space="preserve">
<style type="text/css">
	.st0{fill:#004C92;}
	.st1{fill:#79B641;}
</style>
<g>
	<g>
		<path class="st0" d="M39.6,89.7c-1,0-1.9-0.6-2.4-1.5l-14-28c-0.2-0.5-0.3-1-0.2-1.6c0,0,0-0.1,0-0.1l7.5-28c0-0.1,0-0.2,0.1-0.3
			L25.2,3c0,0,0-0.1,0-0.1c-0.1-0.7,0.2-1.5,0.7-2C26.4,0.4,27.1,0,27.8,0H52c0.7,0,1.4,0.3,1.9,0.9c0.5,0.5,0.7,1.3,0.7,2
			c0,0,0,0.1,0,0.1L48.8,31l7.4,27.6c0,0,0,0.1,0,0.1c0.1,0.5,0,1.1-0.2,1.6l-14,28C41.5,89.1,40.6,89.7,39.6,89.7z M25,59
			c0,0.1,0,0.2,0.1,0.3l14,28c0.2,0.4,0.9,0.4,1.1,0l14-28c0.1-0.1,0.1-0.2,0.1-0.3l-7.4-27.7c0-0.2,0-0.3,0-0.5l5.8-28.1
			c0-0.2-0.1-0.3-0.2-0.4C52.3,2.1,52.2,2,52,2H27.8c-0.2,0-0.3,0.1-0.5,0.2c-0.1,0.1-0.2,0.3-0.2,0.4l5.4,27.5c0,0.2,0,0.4-0.1,0.6
			c0,0.1-0.1,0.1-0.1,0.2L25,59z M39.6,59.1c-3.8,0-6.9-3.1-6.9-6.9s3.1-6.9,6.9-6.9c3.8,0,6.9,3.1,6.9,6.9S43.4,59.1,39.6,59.1z
			 M39.6,47.3c-2.7,0-4.9,2.2-4.9,4.9c0,2.7,2.2,4.9,4.9,4.9c2.7,0,4.9-2.2,4.9-4.9C44.5,49.5,42.3,47.3,39.6,47.3z"/>
	</g>
</g>
<g>
	<g>
		<path class="st1" d="M39.6,97C17.8,97,0,79.2,0,57.4c0-0.6,0.4-1,1-1s1,0.4,1,1C2,78.1,18.9,95,39.6,95
			c20.7,0,37.6-16.9,37.6-37.6c0-0.6,0.4-1,1-1s1,0.4,1,1C79.2,79.2,61.4,97,39.6,97z"/>
	</g>
</g>
<rect x="38.6" y="57.4" class="st0" width="2" height="31.5"/>
<rect x="11.4" y="95" class="st1" width="56.4" height="2"/>
<path class="st1" d="M11.4,102H1.3c-0.6,0-1-0.4-1-1V90.9c0-0.6,0.4-1,1-1h10.2c0.6,0,1,0.4,1,1V101C12.4,101.6,12,102,11.4,102z
	 M2.3,100h8.2v-8.2H2.3V100z"/>
<path class="st1" d="M77.9,102H67.8c-0.6,0-1-0.4-1-1V90.9c0-0.6,0.4-1,1-1h10.2c0.6,0,1,0.4,1,1V101C78.9,101.6,78.5,102,77.9,102z
	 M68.8,100h8.2v-8.2h-8.2V100z"/>
</svg>
