<?xml version="1.0" encoding="utf-8"?>
<!-- Generator: Adobe Illustrator 19.2.0, SVG Export Plug-In . SVG Version: 6.00 Build 0)  -->
<svg version="1.1" id="Ebene_1" xmlns="http://www.w3.org/2000/svg" xmlns:xlink="http://www.w3.org/1999/xlink" x="0px" y="0px"
	 width="135px" height="101.6px" viewBox="0 0 135 101.6" style="enable-background:new 0 0 135 101.6;" xml:space="preserve">
<style type="text/css">
	.st0{fill:#FFFFFF;}
	.st1{fill:#79B641;}
	.st2{fill:none;}
	.st3{fill:#004C92;}
</style>
<g>
	<g>
		<circle class="st0" cx="98.4" cy="50.5" r="18.8"/>
		<path class="st1" d="M98.4,70.3c-10.9,0-19.8-8.9-19.8-19.8s8.9-19.8,19.8-19.8s19.8,8.9,19.8,19.8
			C118.3,61.4,109.4,70.3,98.4,70.3z M98.4,32.6c-9.8,0-17.8,8-17.8,17.8s8,17.8,17.8,17.8s17.8-8,17.8-17.8
			C116.3,40.6,108.3,32.6,98.4,32.6z"/>
	</g>
	<g>
		<line class="st2" x1="98.4" y1="50.5" x2="79.6" y2="50.5"/>
		<path class="st1" d="M98.4,51.5H79.6c-0.6,0-1-0.4-1-1s0.4-1,1-1h18.8c0.6,0,1,0.4,1,1C99.4,51,99,51.5,98.4,51.5z"/>
	</g>
	<g>
		<line class="st2" x1="98.4" y1="50.5" x2="98.4" y2="31.6"/>
		<path class="st1" d="M98.4,51.5c-0.6,0-1-0.4-1-1V31.6c0-0.6,0.4-1,1-1s1,0.4,1,1v18.8C99.4,51,99,51.5,98.4,51.5z"/>
	</g>
	<g>
		<line class="st2" x1="98.4" y1="50.5" x2="110.6" y2="36.1"/>
		<path class="st1" d="M98.4,51.5c-0.2,0-0.5-0.1-0.6-0.2c-0.4-0.4-0.5-1-0.1-1.4l12.1-14.4c0.4-0.4,1-0.5,1.4-0.1s0.5,1,0.1,1.4
			L99.2,51.1C99,51.3,98.7,51.5,98.4,51.5z"/>
	</g>
	<g>
		<line class="st2" x1="98.4" y1="50.5" x2="110.6" y2="64.9"/>
		<path class="st1" d="M110.6,65.9c-0.3,0-0.6-0.1-0.8-0.4L97.7,51.1c-0.4-0.4-0.3-1.1,0.1-1.4c0.4-0.4,1.1-0.3,1.4,0.1l12.1,14.4
			c0.4,0.4,0.3,1.1-0.1,1.4C111,65.8,110.8,65.9,110.6,65.9z"/>
	</g>
	<g>
		<circle class="st0" cx="98.4" cy="50.5" r="8"/>
		<path class="st1" d="M98.4,59.5c-5,0-9-4.1-9-9c0-5,4.1-9,9-9s9,4.1,9,9C107.5,55.5,103.4,59.5,98.4,59.5z M98.4,43.4
			c-3.9,0-7,3.2-7,7s3.2,7,7,7c3.9,0,7-3.2,7-7S102.3,43.4,98.4,43.4z"/>
	</g>
</g>
<path class="st3" d="M128.8,97H6.2C2.8,97,0,94.3,0,90.9V6.1C0,2.8,2.8,0,6.2,0h122.5c3.4,0,6.2,2.8,6.2,6.1v84.7
	C135,94.3,132.2,97,128.8,97z M6.2,2C3.9,2,2,3.9,2,6.1v84.7C2,93.1,3.9,95,6.2,95h122.5c2.3,0,4.2-1.9,4.2-4.1V6.1
	c0-2.3-1.9-4.1-4.2-4.1H6.2z"/>
<rect x="1.2" y="13.4" class="st3" width="132.8" height="2"/>
<path class="st3" d="M64.9,36.6H14.8c-0.6,0-1-0.4-1-1s0.4-1,1-1h50.1c0.6,0,1,0.4,1,1S65.4,36.6,64.9,36.6z"/>
<g>
	<line class="st2" x1="82.1" y1="82.5" x2="114.8" y2="82.5"/>
	<path class="st1" d="M114.8,83.5H82.1c-0.6,0-1-0.4-1-1s0.4-1,1-1h32.7c0.6,0,1,0.4,1,1S115.3,83.5,114.8,83.5z"/>
</g>
<path class="st3" d="M64.9,43.9H14.8c-0.6,0-1-0.4-1-1s0.4-1,1-1h50.1c0.6,0,1,0.4,1,1S65.4,43.9,64.9,43.9z"/>
<path class="st3" d="M29.8,29.3h-15c-0.6,0-1-0.4-1-1s0.4-1,1-1h14.9c0.6,0,1,0.4,1,1S30.3,29.3,29.8,29.3z"/>
<path class="st3" d="M64.9,51.2H14.8c-0.6,0-1-0.4-1-1s0.4-1,1-1h50.1c0.6,0,1,0.4,1,1C65.9,50.7,65.4,51.2,64.9,51.2z"/>
<path class="st3" d="M64.9,58.4H14.8c-0.6,0-1-0.4-1-1s0.4-1,1-1h50.1c0.6,0,1,0.4,1,1S65.4,58.4,64.9,58.4z"/>
<path class="st3" d="M63.9,83.3H16.7c-1.6,0-2.9-1.3-2.9-2.9v-11c0-1.6,1.3-2.9,2.9-2.9h47.2c1.6,0,2.9,1.3,2.9,2.9v11
	C66.8,82,65.5,83.3,63.9,83.3z M16.7,68.5c-0.5,0-0.9,0.4-0.9,0.9v11c0,0.5,0.4,0.9,0.9,0.9h47.2c0.5,0,0.9-0.4,0.9-0.9v-11
	c0-0.5-0.4-0.9-0.9-0.9H16.7z"/>
<path class="st3" d="M50.2,29.3H35.3c-0.6,0-1-0.4-1-1s0.4-1,1-1h14.9c0.6,0,1,0.4,1,1S50.8,29.3,50.2,29.3z"/>
</svg>
