<?xml version="1.0" encoding="utf-8"?>
<!-- Generator: Adobe Illustrator 19.2.0, SVG Export Plug-In . SVG Version: 6.00 Build 0)  -->
<svg version="1.1" id="Ebene_1" xmlns="http://www.w3.org/2000/svg" xmlns:xlink="http://www.w3.org/1999/xlink" x="0px" y="0px"
	 width="113px" height="102px" viewBox="0 0 113 102" style="enable-background:new 0 0 113 102;" xml:space="preserve">
<style type="text/css">
	.st0{fill:#004C92;}
	.st1{fill:#FFFFFF;}
	.st2{fill:#79B641;}
</style>
<g>
	<path class="st0" d="M56.7,102c-28.1,0-51-22.9-51-51c0-28.1,22.9-51,51-51c28.1,0,51,22.9,51,51C107.7,79.1,84.8,102,56.7,102z
		 M56.7,2c-27,0-49,22-49,49c0,27,22,49,49,49c27,0,49-22,49-49C105.7,24,83.7,2,56.7,2z"/>
	<path class="st0" d="M56.7,102c-2.5,0-5-0.2-7.5-0.6c-0.1,0-0.2,0-0.3-0.1c-13.1-6-22.2-26.7-22.2-50.4c0-23.6,9.1-44.3,22.2-50.4
		c0.1,0,0.2-0.1,0.3-0.1c5-0.7,10-0.7,15,0c0.1,0,0.2,0,0.3,0.1c13.1,6,22.2,26.7,22.2,50.4c0,23.6-9.1,44.3-22.2,50.4
		c-0.1,0-0.2,0.1-0.3,0.1C61.7,101.8,59.1,102,56.7,102z M49.6,99.5c4.7,0.7,9.4,0.7,14.1,0C76,93.7,84.6,73.8,84.6,51
		c0-22.8-8.6-42.7-20.9-48.5c-4.7-0.7-9.4-0.7-14.1,0C37.3,8.3,28.7,28.2,28.7,51C28.7,73.8,37.3,93.7,49.6,99.5z"/>
	<path class="st0" d="M56.7,30.5c-15.1,0-29.4-3.7-39.3-10.3l1.1-1.7c9.6,6.3,23.5,9.9,38.2,9.9c14.7,0,28.7-3.6,38.2-9.9l1.1,1.7
		C86.1,26.8,71.8,30.5,56.7,30.5z"/>
	<path class="st0" d="M94.9,83.4c-9.6-6.3-23.5-9.9-38.2-9.9c-14.7,0-28.7,3.6-38.2,9.9l-1.1-1.7c9.9-6.5,24.2-10.3,39.3-10.3
		c15.1,0,29.4,3.7,39.3,10.3L94.9,83.4z"/>
	<rect x="6.7" y="50" class="st0" width="100" height="2"/>
	<rect x="55.7" y="1" class="st0" width="2" height="100"/>
</g>
<rect y="38.3" class="st1" width="113" height="25.4"/>
<g>
	<path class="st2" d="M12.6,59.1L6.5,42.9h3.1l3.5,10.6c0.4,1.1,0.7,2.2,1,3.3c0.6-1.7,0.9-2.7,1-3l4.4-11h3.7l3.3,8.2
		c0.8,2,1.4,4,1.8,5.7c0.3-1,0.7-2.2,1.2-3.5l3.6-10.4h3.1l-6.3,16.2h-2.9l-4.9-12.4c-0.4-1-0.7-1.7-0.7-1.9
		c-0.2,0.7-0.5,1.4-0.7,1.9l-4.9,12.4H12.6z"/>
	<path class="st2" d="M47.9,59.1l-6.1-16.2h3.1l3.5,10.6c0.4,1.1,0.7,2.2,1,3.3c0.6-1.7,0.9-2.7,1-3l4.4-11h3.7l3.3,8.2
		c0.8,2,1.4,4,1.8,5.7c0.3-1,0.7-2.2,1.2-3.5l3.6-10.4h3.1l-6.3,16.2h-2.9l-4.9-12.4c-0.4-1-0.7-1.7-0.7-1.9
		c-0.2,0.7-0.5,1.4-0.7,1.9l-4.9,12.4H47.9z"/>
	<path class="st2" d="M83.3,59.1l-6.1-16.2h3.1l3.5,10.6c0.4,1.1,0.7,2.2,1,3.3c0.6-1.7,0.9-2.7,1-3l4.4-11h3.7l3.3,8.2
		c0.8,2,1.4,4,1.8,5.7c0.3-1,0.7-2.2,1.2-3.5l3.6-10.4h3.1l-6.3,16.2h-2.9l-4.9-12.4c-0.4-1-0.7-1.7-0.7-1.9
		c-0.2,0.7-0.5,1.4-0.7,1.9l-4.9,12.4H83.3z"/>
</g>
</svg>
