<?xml version="1.0" encoding="utf-8"?>
<!-- Generator: Adobe Illustrator 19.2.0, SVG Export Plug-In . SVG Version: 6.00 Build 0)  -->
<svg version="1.1" id="Ebene_1" xmlns="http://www.w3.org/2000/svg" xmlns:xlink="http://www.w3.org/1999/xlink" x="0px" y="0px"
	 width="134.5px" height="102px" viewBox="0 0 134.5 102" style="enable-background:new 0 0 134.5 102;" xml:space="preserve">
<style type="text/css">
	.st0{fill:none;stroke:#004C92;stroke-width:2;stroke-linejoin:round;stroke-miterlimit:10;}
	.st1{fill:#004C92;}
	.st2{fill:#FFFFFF;}
	.st3{fill:#79B641;}
</style>
<path class="st0" d="M67.8,51.5"/>
<path class="st1" d="M129,85.4H24c-3,0-5.5-2.5-5.5-5.5V5.5C18.5,2.5,21,0,24,0h105c3,0,5.5,2.5,5.5,5.5v74.4
	C134.5,82.9,132,85.4,129,85.4z M23.9,2c-1.9,0-3.5,1.6-3.5,3.5v74.4c0,1.9,1.6,3.5,3.5,3.5h105c1.9,0,3.5-1.6,3.5-3.5V5.5
	c0-1.9-1.6-3.5-3.5-3.5H23.9z M126.7,70.6H26.2c-1.5,0-2.8-1.3-2.8-2.8V7.7c0-1.5,1.3-2.8,2.8-2.8h100.6c1.5,0,2.8,1.3,2.8,2.8v60.1
	C129.5,69.3,128.3,70.6,126.7,70.6z M26.2,6.9c-0.4,0-0.8,0.4-0.8,0.8v60.1c0,0.4,0.4,0.8,0.8,0.8h100.6c0.4,0,0.8-0.4,0.8-0.8V7.7
	c0-0.4-0.4-0.8-0.8-0.8C126.8,6.9,26.2,6.9,26.2,6.9z"/>
<path class="st1" d="M86.5,102H66.4c-1,0-1.9-0.9-1.9-1.9V83.9h2V100h19.9V83.9h2v16.2C88.4,101.1,87.6,102,86.5,102z"/>
<path class="st1" d="M102.6,102H50.4c-0.6,0-1-0.4-1-1s0.4-1,1-1h52.2c0.6,0,1,0.4,1,1S103.1,102,102.6,102z"/>
<g>
	<path class="st2" d="M36.8,41.4H5.4c-2.2,0-3.9,1.8-3.9,3.9V97c0,2.2,1.8,3.9,3.9,3.9h31.3c2.2,0,3.9-1.8,3.9-3.9V45.4
		C40.7,43.2,38.9,41.4,36.8,41.4z"/>
	<path class="st3" d="M36.8,102H5.4c-2.7,0-4.9-2.2-4.9-4.9V45.4c0-2.7,2.2-4.9,4.9-4.9h31.3c2.7,0,4.9,2.2,4.9,4.9v51.7
		C41.7,99.8,39.5,102,36.8,102z M5.4,42.4c-1.6,0-2.9,1.3-2.9,2.9V97c0,1.6,1.3,2.9,2.9,2.9h31.3c1.6,0,2.9-1.3,2.9-2.9V45.4
		c0-1.6-1.3-2.9-2.9-2.9L5.4,42.4L5.4,42.4z"/>
</g>
<g>
	<path class="st2" d="M35.8,90.1c0,0.9-0.6,1.6-1.3,1.6H7.7c-0.7,0-1.3-0.7-1.3-1.6V47.8c0-0.9,0.6-1.6,1.3-1.6h26.8
		c0.7,0,1.3,0.7,1.3,1.6V90.1z"/>
	<path class="st3" d="M34.5,92.7H7.7c-1.3,0-2.3-1.2-2.3-2.6V47.8c0-1.4,1-2.6,2.3-2.6h26.8c1.3,0,2.3,1.2,2.3,2.6v42.3
		C36.8,91.5,35.8,92.7,34.5,92.7z M7.7,47.3c-0.1,0-0.3,0.2-0.3,0.6v42.3c0,0.3,0.2,0.6,0.3,0.6h26.8c0.1,0,0.3-0.2,0.3-0.6V47.8
		c0-0.4-0.2-0.6-0.3-0.6L7.7,47.3L7.7,47.3z"/>
</g>
<circle class="st3" cx="21.1" cy="96.2" r="1.8"/>
</svg>
