<?xml version="1.0" encoding="utf-8"?>
<!-- Generator: Adobe Illustrator 19.2.0, SVG Export Plug-In . SVG Version: 6.00 Build 0)  -->
<svg version="1.1" id="Ebene_1" xmlns="http://www.w3.org/2000/svg" xmlns:xlink="http://www.w3.org/1999/xlink" x="0px" y="0px"
	 width="137px" height="159.3px" viewBox="0 0 137 159.3" style="enable-background:new 0 0 137 159.3;" xml:space="preserve">
<style type="text/css">
	.st0{fill:url(#SVGID_1_);}
	.st1{fill:url(#SVGID_2_);}
	.st2{fill:#FFFFFF;}
	.st3{fill:#62626C;}
	.st4{fill:#069AD1;}
</style>
<g id="Ebene_1_1_">
</g>
<g id="Ebene_3">
</g>
<g id="Ebene_2">
	
		<linearGradient id="SVGID_1_" gradientUnits="userSpaceOnUse" x1="34.2443" y1="840.8326" x2="102.7557" y2="722.1674" gradientTransform="matrix(1 0 0 -1 0 850)">
		<stop  offset="0" style="stop-color:#8F9096"/>
		<stop  offset="0.5" style="stop-color:#6C6B6F"/>
		<stop  offset="1" style="stop-color:#504D4F"/>
	</linearGradient>
	<circle class="st0" cx="68.5" cy="68.5" r="68.5"/>
	<g>
		
			<linearGradient id="SVGID_2_" gradientUnits="userSpaceOnUse" x1="46.8807" y1="818.9457" x2="90.1193" y2="744.0543" gradientTransform="matrix(1 0 0 -1 0 850)">
			<stop  offset="0" style="stop-color:#0080A3"/>
			<stop  offset="0.1534" style="stop-color:#0094BC"/>
			<stop  offset="0.3664" style="stop-color:#10ACDB"/>
			<stop  offset="0.5002" style="stop-color:#22B6E7"/>
			<stop  offset="0.6268" style="stop-color:#16AFDF"/>
			<stop  offset="0.7938" style="stop-color:#009DC8"/>
			<stop  offset="0.9825" style="stop-color:#0083A6"/>
			<stop  offset="1" style="stop-color:#0080A3"/>
		</linearGradient>
		<path class="st1" d="M111.7,68.5c0,23.9-19.4,43.2-43.2,43.2S25.3,92.4,25.3,68.5s19.4-43.2,43.2-43.2
			C92.4,25.3,111.7,44.6,111.7,68.5z"/>
	</g>
	<path id="P_x5F_Pfad_7_" class="st2" d="M75,47.9c3.8,0,6.7,0.8,8.4,2.4c1.8,1.6,2.7,4.1,2.7,7.5c0,3.5-0.9,6-2.7,7.5
		c-1.8,1.5-4.8,2.3-9,2.3H61V47.9L75,47.9L75,47.9z M50.6,98.9H61V76.7h14.2c3.7,0,6.7-0.3,8.8-0.8c2.1-0.5,4-1.3,5.6-2.5
		c2.3-1.7,4.1-3.9,5.3-6.5c1.2-2.6,1.8-5.6,1.8-8.9c0-4-0.7-7.5-2.2-10.3c-1.5-2.9-3.6-5.1-6.5-6.6c-1.5-0.8-3.1-1.4-5-1.8
		c-1.9-0.4-4.7-0.5-8.5-0.5H50.6V98.9z"/>
	<g>
		<path class="st2" d="M20.9,56.4l-9.9-2.8l-0.7,2.5l-2-0.6l2-7.3l2,0.6l-0.7,2.5l10,2.8L20.9,56.4z"/>
		<path class="st2" d="M22.9,49.8l-11-5.6l1.9-3.7c0.6-1.1,1.2-1.8,1.9-2.1c0.7-0.3,1.5-0.1,2.6,0.4c0.7,0.4,1.2,0.8,1.5,1.2
			s0.3,1,0.1,1.5c0.8-0.8,1.8-0.9,3.3-0.3c0.1,0,0.1,0,0.1,0.1l1.5,0.7c0.4,0.2,0.8,0.3,1.1,0.4c0.3,0,0.6,0,0.8-0.1l-1.2,2.4
			c-0.2,0-0.5-0.1-0.7-0.2c-0.3-0.1-0.6-0.3-1.1-0.5l-1.2-0.6l-0.3-0.2c-0.6-0.3-1.2-0.4-1.5-0.3c-0.4,0.2-0.8,0.6-1.2,1.5l-0.4,0.7
			l4.8,2.4L22.9,49.8z M17.5,44.6l0.6-1.2c0.3-0.6,0.4-1.1,0.3-1.4s-0.5-0.7-1.1-1c-0.6-0.3-1-0.4-1.3-0.2c-0.4,0.1-0.7,0.6-1,1.2
			l-0.5,1L17.5,44.6z"/>
		<path class="st2" d="M18.1,33l1.4-1.8l6.5,5.2c0.8,0.6,1.3,0.9,1.7,1c0.4,0,0.8-0.2,1.2-0.6c0.4-0.5,0.5-0.9,0.4-1.3
			c-0.1-0.4-0.6-0.9-1.3-1.5l-6.5-5.2l1.4-1.8l6.7,5.4c0.6,0.5,1.1,0.9,1.3,1.2c0.2,0.3,0.4,0.6,0.5,1c0.1,0.5,0.1,1.1-0.1,1.6
			c-0.2,0.6-0.5,1.1-1,1.7c-0.9,1.1-1.7,1.7-2.6,1.7s-1.9-0.4-3.1-1.3L18.1,33z"/>
		<path class="st2" d="M31.7,29.5l1.8-1.5l0.5,0.6c0.5,0.6,0.9,0.9,1.2,1c0.3,0.1,0.7,0,1-0.3c0.4-0.3,0.6-0.6,0.6-1
			c0-0.4-0.1-0.7-0.4-1.1c-0.2-0.3-0.5-0.5-0.8-0.6c-0.3-0.1-0.8-0.1-1.5-0.1l-1.4,0.1c-1.2,0.1-2.1,0.1-2.6-0.1
			c-0.5-0.2-1-0.5-1.4-1.1c-0.7-0.8-0.9-1.6-0.8-2.5c0.1-0.8,0.6-1.6,1.4-2.3c0.9-0.7,1.8-1,2.6-1c0.9,0.1,1.7,0.6,2.4,1.5
			c0.1,0.1,0.1,0.2,0.2,0.2c0,0,0.1,0.1,0.1,0.1l-1.7,1.4l-0.2-0.2c-0.4-0.5-0.8-0.8-1.2-0.9c-0.4-0.1-0.7,0-1.1,0.4
			c-0.3,0.2-0.4,0.5-0.5,0.8c0,0.3,0.1,0.6,0.3,0.9c0.3,0.4,1.1,0.6,2.2,0.4h0l1.5-0.1c1.1-0.1,1.9-0.1,2.5,0.1
			c0.6,0.2,1.2,0.6,1.7,1.3c0.7,0.9,1,1.7,0.9,2.6c-0.1,0.9-0.6,1.7-1.5,2.5c-1,0.8-1.9,1.1-2.7,1c-0.9-0.1-1.7-0.7-2.6-1.7
			C32.1,30,31.9,29.8,31.7,29.5L31.7,29.5z"/>
		<path class="st2" d="M43.9,25.9l-5-9l-2.3,1.3l-1-1.8l6.7-3.7l1,1.8L41,15.8l5,9L43.9,25.9z"/>
		<path class="st2" d="M50.2,22.8l-3.9-11.7l6-2l0.6,1.9l-3.8,1.3L50,15l3.6-1.2l0.6,1.9l-3.6,1.2l1.1,3.2l3.9-1.3l0.7,2L50.2,22.8z
			"/>
		<path class="st2" d="M58.7,20.2L57.2,7.9l3.7-0.4c0.8-0.1,1.3-0.1,1.8,0c0.5,0.1,0.8,0.2,1.2,0.5c0.5,0.4,0.8,0.9,1.1,1.5
			c0.3,0.6,0.5,1.6,0.6,2.9c0.2,1.7,0.3,3,0.3,3.7c0,0.7-0.2,1.4-0.4,1.9c-0.2,0.5-0.6,0.9-1,1.2c-0.5,0.3-1.3,0.5-2.6,0.6
			L58.7,20.2z M60.7,18.1l1-0.1c0.5-0.1,0.9-0.2,1.1-0.2c0.2-0.1,0.4-0.2,0.4-0.4c0.2-0.4,0.3-0.8,0.3-1.4c0-0.6,0-1.5-0.2-2.7
			c-0.2-1.2-0.3-2.1-0.5-2.6c-0.2-0.5-0.4-0.9-0.7-1.2c-0.2-0.1-0.3-0.2-0.6-0.2c-0.2,0-0.6,0-1,0l-1,0.1L60.7,18.1z"/>
		<path class="st2" d="M74.2,19.6l2.3-12.1l3.9,0.7c1.2,0.2,2,0.7,2.4,1.3c0.4,0.6,0.5,1.6,0.3,2.8c-0.2,1.2-0.7,2-1.3,2.5
			c-0.7,0.5-1.6,0.6-2.7,0.4l-1.7-0.3l-1,5.2L74.2,19.6z M77.7,13.2l1,0.2c0.7,0.1,1.2,0.1,1.6-0.1c0.3-0.2,0.6-0.7,0.7-1.3
			c0.1-0.7,0.1-1.2-0.1-1.5s-0.7-0.5-1.4-0.7l-1-0.2L77.7,13.2z"/>
		<path class="st2" d="M83.7,21.6l4.7-11.4l3.8,1.6c1.2,0.5,1.9,1,2.2,1.7c0.3,0.7,0.3,1.5-0.2,2.6c-0.3,0.8-0.7,1.3-1.1,1.6
			c-0.4,0.3-1,0.4-1.5,0.3c0.9,0.7,1.1,1.7,0.5,3.2c0,0.1,0,0.1-0.1,0.2l-0.6,1.5c-0.2,0.4-0.2,0.8-0.3,1.1c0,0.3,0,0.6,0.1,0.8
			l-2.5-1c0-0.2,0.1-0.5,0.2-0.7c0.1-0.3,0.2-0.6,0.4-1.1l0.5-1.2l0.1-0.3c0.3-0.7,0.3-1.2,0.1-1.5c-0.2-0.4-0.7-0.7-1.6-1.1
			l-0.7-0.3l-2.1,5L83.7,21.6z M88.5,15.9l1.2,0.5c0.6,0.2,1.1,0.3,1.4,0.2s0.6-0.6,0.9-1.2c0.2-0.6,0.3-1,0.1-1.3
			c-0.2-0.3-0.6-0.6-1.3-0.9l-1-0.4L88.5,15.9z"/>
		<path class="st2" d="M93.1,26l6.5-10.5l2,1.2l-6.5,10.5L93.1,26z"/>
		<path class="st2" d="M99.1,30l5.9-11.2l1.9,1.6l-5,8.7l7.6-6.5l1.9,1.6l-10,7.7L99.1,30z"/>
		<path class="st2" d="M104.3,34.6l11.4-5.5l1.9,2.4l-7.9,9.9l-1.5-1.9l2.1-2.4l-1.6-2.1l-2.8,1.5L104.3,34.6z M110.3,34.1l1.2,1.5
			l3.5-4L110.3,34.1z"/>
		<path class="st2" d="M116.9,45.5l1,2c0,0-0.1,0.1-0.2,0.1c-0.1,0-0.2,0.1-0.2,0.1c-1.3,0.6-2.3,0.9-3.3,0.6
			c-0.9-0.2-1.6-0.9-2.2-2c-0.3-0.5-0.4-1-0.5-1.5c-0.1-0.4,0-0.9,0.1-1.3c0.2-0.6,0.6-1.1,1.2-1.6c0.6-0.5,1.7-1.2,3.4-2
			c1.1-0.6,2.1-1,2.8-1.2s1.3-0.4,1.7-0.3c0.7,0,1.2,0.2,1.7,0.5c0.4,0.3,0.8,0.8,1.2,1.5c0.6,1.1,0.7,2.1,0.4,2.9
			c-0.3,0.8-1.1,1.5-2.4,2.2l-1-2l0.3-0.1c0.6-0.3,1-0.6,1.2-1c0.2-0.3,0.2-0.7,0-1.1c-0.2-0.5-0.6-0.7-1.1-0.7
			c-0.5,0-1.7,0.5-3.5,1.4c-2,1-3.1,1.7-3.5,2.1c-0.3,0.4-0.4,0.8-0.1,1.3c0.2,0.5,0.6,0.7,1,0.7c0.4,0,1.1-0.2,2-0.7L116.9,45.5z"
			/>
		<path class="st2" d="M115.5,54.2l5-1.4l6-5l0.7,2.5l-4,3.1l5,0.5l0.7,2.4l-7.7-1.2l-5,1.4L115.5,54.2z"/>
	</g>
	<g>
		<path class="st2" d="M19.5,105.3l0.9-0.7c-0.4,0.1-0.9,0.1-1.2,0c-0.4-0.1-0.7-0.4-1-0.8c-0.5-0.8-0.6-1.5-0.3-2.3
			c0.3-0.8,1.2-1.6,2.4-2.5c1.2-0.9,2.3-1.3,3.1-1.4c0.8,0,1.5,0.4,2.1,1.2c0.4,0.6,0.6,1.2,0.5,1.9c-0.1,0.6-0.5,1.2-1.2,1.6
			l-0.5-0.8c0.5-0.4,0.7-0.7,0.8-1.1c0.1-0.4,0-0.8-0.3-1.2c-0.4-0.5-0.9-0.8-1.5-0.6c-0.6,0.1-1.5,0.6-2.7,1.4
			c-0.9,0.6-1.5,1.2-1.8,1.8c-0.3,0.6-0.2,1.1,0.1,1.6c0.3,0.4,0.7,0.7,1.2,0.7s1.1-0.2,1.7-0.7c0.1-0.1,0.1-0.1,0.2-0.1
			c0,0,0.1-0.1,0.1-0.1l-1.1-1.5l0.7-0.5l1.6,2.3l-3.6,2.5L19.5,105.3z"/>
		<path class="st2" d="M25.3,108.9l0.6,0.6c-0.6,0.5-1.1,0.8-1.6,0.8c-0.5,0-1-0.2-1.4-0.7c-0.5-0.5-0.6-1-0.4-1.6s0.7-1.3,1.5-2
			c0.9-0.8,1.6-1.2,2.2-1.4c0.6-0.1,1.2,0.1,1.6,0.6c0.4,0.5,0.6,1,0.5,1.5s-0.6,1.1-1.2,1.8c-0.1,0.1-0.2,0.2-0.2,0.2
			c-0.1,0-0.1,0.1-0.2,0.1l-2-2.2l-0.2,0.2c-0.6,0.5-1,1-1.1,1.3c-0.2,0.4-0.1,0.7,0.2,1c0.2,0.2,0.5,0.3,0.8,0.3
			C24.6,109.4,25,109.3,25.3,108.9L25.3,108.9z M25.1,106.2l1.4,1.6l0.1-0.1c0.4-0.4,0.7-0.8,0.8-1.1c0.1-0.3,0-0.6-0.2-0.9
			c-0.2-0.3-0.6-0.4-0.9-0.3C26,105.5,25.6,105.8,25.1,106.2z"/>
		<path class="st2" d="M24.8,114.5l5.6-6.3l0.6,0.6l-0.5,0.6c0.2-0.2,0.5-0.2,0.8-0.2c0.3,0,0.6,0.2,0.8,0.4c0.5,0.4,0.7,1,0.6,1.6
			c-0.1,0.6-0.5,1.3-1.3,2.2c-0.8,0.8-1.4,1.4-2,1.5c-0.6,0.2-1.1,0.1-1.6-0.4c-0.2-0.2-0.4-0.4-0.5-0.7c-0.1-0.3-0.1-0.5,0-0.8
			l-1.9,2.1L24.8,114.5z M29,111.1c-0.6,0.6-0.9,1.2-1,1.6c-0.1,0.4,0,0.8,0.3,1.1c0.3,0.3,0.6,0.3,1,0.1c0.4-0.2,0.9-0.6,1.5-1.3
			c0.6-0.6,0.9-1.2,1.1-1.6c0.1-0.4,0-0.8-0.3-1c-0.3-0.3-0.7-0.4-1.1-0.2C30.1,110,29.6,110.4,29,111.1z"/>
		<path class="st2" d="M31.4,117.3l3.7-5.1l0.7,0.5l-0.6,0.8c0.3-0.2,0.6-0.3,1-0.4s0.6,0.1,0.9,0.3c0.1,0.1,0.1,0.1,0.2,0.1
			c0,0,0.1,0.1,0.1,0.1l-0.6,0.8c0,0,0-0.1-0.1-0.1c0,0-0.1-0.1-0.1-0.1c-0.4-0.3-0.7-0.4-1.1-0.3c-0.4,0.1-0.7,0.4-1,0.8l-2.3,3.1
			L31.4,117.3z"/>
		<path class="st2" d="M37.9,121.6l0.4-0.7c-0.3,0.2-0.6,0.3-0.9,0.3c-0.3,0-0.6-0.1-1-0.3c-0.4-0.3-0.7-0.6-0.8-0.9
			c-0.1-0.4,0-0.8,0.3-1.2l2.5-4.1l0.8,0.5l-2.5,4.2c-0.1,0.2-0.2,0.4-0.1,0.6c0,0.2,0.2,0.3,0.4,0.5c0.4,0.2,0.7,0.3,1,0.2
			c0.3-0.1,0.6-0.4,0.9-0.8l2.1-3.6l0.8,0.5l-3.2,5.4L37.9,121.6z M39.5,114.2l0.5-0.8l0.7,0.4l-0.5,0.8L39.5,114.2z M41,115.1
			l0.5-0.8l0.7,0.4l-0.5,0.8L41,115.1z"/>
		<path class="st2" d="M41.4,123.4l2.4-5L43,118l0.3-0.6l0.8,0.4l0.4-0.8c0.2-0.4,0.4-0.7,0.8-0.8s0.7,0,1.2,0.2c0,0,0.1,0,0.1,0.1
			c0,0,0.1,0.1,0.2,0.1l-0.4,0.7c0,0-0.1-0.1-0.2-0.1c0,0-0.1-0.1-0.2-0.1c-0.2-0.1-0.4-0.1-0.5-0.1c-0.1,0-0.2,0.2-0.3,0.3
			l-0.4,0.7l0.9,0.4l-0.3,0.6l-0.9-0.4l-2.4,5L41.4,123.4z"/>
		<path class="st2" d="M46.8,124.4c-0.1,0.2-0.1,0.4-0.1,0.5c0.1,0.1,0.2,0.2,0.6,0.4c0,0,0.1,0,0.1,0c0,0,0,0,0.1,0l-0.3,0.7
			c0,0-0.1,0-0.2-0.1c-0.2-0.1-0.4-0.1-0.4-0.1c-0.4-0.2-0.6-0.3-0.8-0.6c-0.1-0.2-0.1-0.5,0-0.8l1.7-4.4l-0.8-0.3l0.3-0.7l0.8,0.3
			l0.6-1.6l0.8,0.3l-0.6,1.6l1,0.4l-0.3,0.7l-1-0.4L46.8,124.4z"/>
		<path class="st2" d="M52.7,125.5l0.8,0.2c-0.2,0.7-0.6,1.2-1,1.5c-0.4,0.3-1,0.3-1.5,0.2c-0.6-0.2-1.1-0.6-1.2-1.2
			c-0.2-0.6-0.1-1.4,0.2-2.5c0.3-1.1,0.7-1.9,1.2-2.3c0.5-0.4,1-0.6,1.7-0.4c0.6,0.2,1,0.6,1.2,1.1c0.2,0.5,0.1,1.3-0.2,2.2
			c0,0.1-0.1,0.2-0.1,0.3c0,0.1,0,0.1-0.1,0.2l-2.9-0.9l-0.1,0.3c-0.2,0.8-0.3,1.3-0.2,1.7c0.1,0.4,0.3,0.7,0.7,0.8
			c0.3,0.1,0.6,0,0.8-0.2C52.3,126.3,52.5,126,52.7,125.5L52.7,125.5z M51.1,123.3l2.1,0.6l0-0.2c0.2-0.6,0.2-1,0.1-1.3
			c-0.1-0.3-0.3-0.6-0.6-0.6c-0.4-0.1-0.7,0-1,0.2C51.5,122.2,51.3,122.7,51.1,123.3z"/>
		<path class="st2" d="M55.5,128.4l1.2-6.2l0.8,0.2l-0.2,1c0.2-0.3,0.4-0.6,0.7-0.7c0.3-0.2,0.6-0.2,0.9-0.1c0.1,0,0.2,0,0.2,0
			c0,0,0.1,0,0.2,0l-0.2,0.9c0,0-0.1-0.1-0.1-0.1c0,0-0.1,0-0.2-0.1c-0.4-0.1-0.8,0-1.1,0.2c-0.3,0.2-0.5,0.6-0.6,1.2l-0.8,3.8
			L55.5,128.4z"/>
		<path class="st2" d="M64.4,129.7l0.2-8.4l2.4,0.1c1,0,1.7,0.4,2.1,1c0.4,0.6,0.6,1.6,0.6,3c0,1-0.1,1.7-0.3,2.3s-0.4,1.1-0.8,1.4
			c-0.2,0.2-0.5,0.4-0.8,0.5c-0.3,0.1-0.7,0.1-1.3,0.1L64.4,129.7z M65.4,128.9l1.2,0c0.4,0,0.7,0,0.9-0.1s0.4-0.2,0.5-0.4
			c0.2-0.3,0.4-0.6,0.4-1.1c0.1-0.4,0.2-1,0.2-1.8c0-1.3-0.1-2.3-0.4-2.7c-0.3-0.4-0.8-0.7-1.6-0.7l-1.2,0L65.4,128.9z"/>
		<path class="st2" d="M76.5,129.3c-0.1,0-0.2,0-0.3,0.1c-0.1,0-0.2,0-0.2,0c-0.2,0-0.4,0-0.6-0.2c-0.2-0.1-0.2-0.4-0.3-0.6
			c-0.1,0.3-0.3,0.6-0.5,0.8s-0.5,0.3-0.9,0.3c-0.4,0-0.8-0.1-1.1-0.4s-0.4-0.7-0.5-1.2c0-0.5,0-1,0.2-1.3c0.2-0.3,0.7-0.6,1.4-1h0
			c0.6-0.3,0.9-0.6,0.9-0.8l0-0.6c0-0.3-0.1-0.4-0.3-0.6c-0.2-0.1-0.4-0.1-0.7-0.1c-0.3,0-0.5,0.1-0.7,0.3c-0.1,0.2-0.2,0.4-0.2,0.8
			v0.1l-0.8,0.1c0-0.6,0.1-1.1,0.3-1.4c0.3-0.3,0.7-0.5,1.3-0.6c0.6-0.1,1,0,1.3,0.3c0.3,0.2,0.5,0.7,0.5,1.2l0.4,3.7
			c0,0.2,0.1,0.3,0.1,0.3c0.1,0.1,0.2,0.1,0.3,0.1c0,0,0.1,0,0.1,0h0L76.5,129.3z M74.8,126c-0.1,0.2-0.4,0.4-0.9,0.6
			c0,0-0.1,0-0.1,0c-0.4,0.2-0.6,0.4-0.8,0.6c-0.1,0.2-0.1,0.5-0.1,0.8c0,0.3,0.1,0.6,0.3,0.7c0.2,0.2,0.4,0.2,0.6,0.2
			c0.4,0,0.6-0.2,0.8-0.5c0.2-0.3,0.3-0.7,0.2-1.2L74.8,126z"/>
		<path class="st2" d="M79.5,127.4c0,0.3,0.1,0.4,0.2,0.5s0.3,0.1,0.7,0c0,0,0.1,0,0.1,0s0.1,0,0.1,0l0.2,0.8c0,0-0.1,0-0.2,0
			c-0.2,0-0.4,0.1-0.4,0.1c-0.4,0.1-0.7,0.1-1-0.1s-0.4-0.4-0.4-0.7l-0.9-4.6l-0.9,0.2l-0.1-0.7l0.9-0.2l-0.3-1.6l0.8-0.2l0.3,1.6
			l1-0.2l0.1,0.7l-1,0.2L79.5,127.4z"/>
		<path class="st2" d="M85.1,125.3l0.8-0.2c0.2,0.7,0.2,1.3,0,1.8c-0.2,0.5-0.6,0.8-1.2,1c-0.7,0.2-1.2,0-1.7-0.4
			c-0.4-0.4-0.8-1.2-1.1-2.2c-0.3-1.1-0.4-2-0.2-2.6c0.2-0.6,0.6-1,1.3-1.2c0.6-0.2,1.2-0.1,1.6,0.3c0.4,0.4,0.8,1,1,1.9
			c0,0.2,0.1,0.2,0.1,0.3s0,0.1,0,0.2l-2.9,0.8l0.1,0.3c0.2,0.8,0.4,1.3,0.7,1.6c0.3,0.3,0.6,0.4,1,0.3c0.3-0.1,0.5-0.3,0.6-0.6
			C85.2,126.2,85.2,125.8,85.1,125.3L85.1,125.3z M82.6,124.2l2.1-0.6l0-0.2c-0.2-0.6-0.4-1-0.6-1.2c-0.2-0.2-0.5-0.3-0.8-0.2
			c-0.4,0.1-0.6,0.3-0.7,0.7C82.4,123.1,82.4,123.6,82.6,124.2z"/>
		<path class="st2" d="M89.1,126.2l-2.3-5.9l0.8-0.3l0.3,0.7c0-0.3,0.1-0.6,0.3-0.9c0.2-0.2,0.5-0.4,0.8-0.6c0.5-0.2,0.9-0.2,1.3,0
			c0.3,0.2,0.6,0.6,0.9,1.2l1.7,4.2l-0.8,0.3l-1.7-4.3c-0.1-0.3-0.3-0.5-0.5-0.6c-0.2-0.1-0.4-0.1-0.7,0c-0.4,0.1-0.6,0.4-0.7,0.7
			c-0.1,0.3-0.1,0.7,0,1.1l1.5,4L89.1,126.2z"/>
		<path class="st2" d="M94.3,122l0.8-0.4v0c0,0.1,0,0.1,0.1,0.2c0.2,0.3,0.4,0.5,0.6,0.6c0.3,0.1,0.6,0,0.9-0.2
			c0.3-0.2,0.5-0.4,0.6-0.6c0.1-0.2,0.1-0.5-0.1-0.8c-0.2-0.4-0.8-0.6-1.5-0.5h0c-0.8,0.1-1.4,0.1-1.7,0c-0.3-0.1-0.6-0.4-0.8-0.9
			c-0.3-0.5-0.3-1-0.2-1.4c0.1-0.4,0.5-0.8,1-1c0.6-0.3,1-0.4,1.4-0.2c0.4,0.1,0.8,0.4,1,1l0,0.1l-0.7,0.4c-0.2-0.3-0.4-0.5-0.6-0.6
			s-0.5,0-0.8,0.1c-0.3,0.2-0.5,0.4-0.6,0.6c-0.1,0.2,0,0.5,0.1,0.8c0.1,0.1,0.2,0.2,0.2,0.3c0.1,0.1,0.2,0.1,0.3,0.2
			c0.2,0,0.6,0,1-0.1c0.3,0,0.5-0.1,0.6-0.1c0.5,0,0.8,0,1.1,0.1c0.3,0.1,0.5,0.4,0.7,0.8c0.3,0.6,0.4,1.1,0.2,1.5
			c-0.2,0.5-0.5,0.9-1.1,1.2c-0.6,0.3-1,0.4-1.5,0.2c-0.4-0.1-0.8-0.5-1.1-1.1L94.3,122z"/>
		<path class="st2" d="M102.4,116.9l0.7-0.5c0.4,0.6,0.6,1.2,0.6,1.7c-0.1,0.5-0.4,1-0.9,1.3c-0.6,0.4-1.2,0.4-1.7,0.2
			c-0.6-0.3-1.2-0.9-1.8-1.8c-0.6-0.9-0.9-1.7-0.9-2.3c0-0.6,0.3-1.2,0.9-1.6c0.5-0.3,1-0.4,1.5-0.3c0.5,0.1,0.9,0.4,1.2,0.9
			l0.1,0.1l-0.7,0.5c-0.3-0.4-0.5-0.6-0.8-0.7c-0.3-0.1-0.5,0-0.8,0.1c-0.4,0.2-0.5,0.6-0.4,1c0.1,0.4,0.4,1,0.9,1.8
			c0.5,0.8,1,1.3,1.3,1.5c0.4,0.2,0.7,0.2,1.1,0c0.3-0.2,0.4-0.4,0.4-0.8C102.8,117.7,102.6,117.4,102.4,116.9z"/>
		<path class="st2" d="M106.5,116.6l-5.4-6.4l0.7-0.6l1.8,2.1c0-0.3,0-0.6,0.1-0.9c0.1-0.3,0.3-0.5,0.6-0.7c0.4-0.3,0.7-0.5,1.1-0.4
			c0.4,0,0.7,0.2,1,0.5l3.2,3.8l-0.7,0.6l-3-3.5c-0.2-0.3-0.5-0.4-0.7-0.5c-0.2,0-0.4,0-0.7,0.2c-0.3,0.2-0.5,0.6-0.5,0.9
			c0,0.3,0.1,0.7,0.4,1l2.7,3.3L106.5,116.6z"/>
		<path class="st2" d="M113.7,109.8l-0.6-0.6c0.2,0.3,0.2,0.6,0.1,0.9c-0.1,0.3-0.2,0.6-0.5,0.9c-0.4,0.4-0.7,0.6-1.1,0.6
			c-0.4,0-0.7-0.2-1.2-0.6l-3.5-3.3l0.6-0.7l3.5,3.3c0.2,0.2,0.4,0.3,0.6,0.3c0.2,0,0.4-0.1,0.5-0.2c0.3-0.3,0.4-0.6,0.4-1
			c0-0.4-0.2-0.7-0.6-1l-3-2.9l0.6-0.6l4.6,4.3L113.7,109.8z"/>
		<path class="st2" d="M115.7,105.5c0.2,0.2,0.4,0.2,0.5,0.2c0.1,0,0.3-0.2,0.5-0.5c0,0,0-0.1,0.1-0.1c0,0,0,0,0-0.1l0.6,0.5
			c0,0-0.1,0.1-0.1,0.2c-0.1,0.2-0.2,0.3-0.3,0.4c-0.3,0.3-0.5,0.5-0.8,0.6c-0.3,0.1-0.5,0-0.8-0.2l-3.7-2.9l-0.6,0.7l-0.6-0.4
			l0.6-0.7l-1.3-1l0.5-0.7l1.3,1l0.6-0.8l0.6,0.4l-0.6,0.8L115.7,105.5z"/>
		<path class="st2" d="M118.4,104.1l-0.7-0.4l-2.4-4.8l-1.4,2.1l-0.7-0.4l2-3l0.6,0.4l2.4,4.9l1.5-2.3l0.7,0.5L118.4,104.1z"/>
	</g>
	<g>
		<path class="st3" d="M16.9,151L16.9,151c0,1.2,0.3,2.1,0.8,2.7c0.5,0.7,1.3,1,2.2,1c0.7,0,1.3-0.2,1.8-0.6
			c0.5-0.4,0.8-0.9,0.9-1.6h1.1c-0.1,0.9-0.5,1.7-1.2,2.2s-1.6,0.8-2.6,0.8c-1.3,0-2.2-0.4-2.9-1.3s-1.1-2-1.1-3.5
			c0-1.5,0.4-2.7,1.1-3.6c0.7-0.9,1.7-1.3,3-1.3c1.2,0,2.2,0.4,2.9,1.2c0.7,0.8,1,2,1,3.5v0.4L16.9,151L16.9,151z M16.9,150.2h5.8
			c0-1-0.3-1.8-0.8-2.4c-0.5-0.6-1.2-0.9-2-0.9s-1.5,0.3-2.1,0.9S17,149.2,16.9,150.2z"/>
		<path class="st4" d="M26.7,155.4v-12.7h4.7c0.8,0,1.3,0,1.7,0.1s0.8,0.2,1.1,0.4c0.5,0.3,0.9,0.7,1.2,1.3s0.4,1.2,0.4,1.9
			c0,0.7-0.1,1.3-0.4,1.9c-0.3,0.5-0.7,1-1.2,1.3c-0.3,0.2-0.7,0.3-1.1,0.4c-0.4,0.1-1.1,0.1-2,0.1h-2.6v5.4L26.7,155.4L26.7,155.4z
			 M28.5,148.5h2.9c1,0,1.7-0.2,2.1-0.5c0.4-0.3,0.6-0.9,0.6-1.7c0-0.8-0.2-1.3-0.6-1.6c-0.4-0.3-1.1-0.5-2-0.5h-3L28.5,148.5
			L28.5,148.5z"/>
		<path class="st4" d="M37.7,155.4v-9.2h1.5v1.7c0.2-0.6,0.6-1.1,1-1.4c0.4-0.3,1-0.5,1.6-0.5c0.1,0,0.2,0,0.2,0c0,0,0.1,0,0.2,0
			v1.6c0,0-0.1,0-0.1,0c0,0-0.1,0-0.2,0c-0.8,0-1.5,0.2-1.9,0.7c-0.4,0.4-0.6,1.1-0.6,2v5.2L37.7,155.4L37.7,155.4z"/>
		<path class="st4" d="M44.5,144.5v-1.8H46v1.8H44.5z M44.5,155.4v-9.2H46v9.2H44.5z"/>
		<path class="st4" d="M51.5,155.4l-3.4-9.2h1.7l2.6,7.4l2.5-7.4h1.7l-3.4,9.2H51.5z"/>
		<path class="st4" d="M64.4,154.2c-0.5,0.5-1,0.9-1.5,1.2c-0.6,0.3-1.1,0.4-1.7,0.4c-1,0-1.7-0.2-2.2-0.7c-0.5-0.5-0.8-1.2-0.8-2
			c0-0.8,0.3-1.5,0.8-2c0.5-0.5,1.3-0.8,2.4-0.9c0.3,0,0.6-0.1,1.1-0.1c0.8-0.1,1.3-0.2,1.5-0.2c0.2-0.1,0.3-0.2,0.4-0.3
			c0.1-0.1,0.1-0.4,0.1-0.7c0-0.5-0.2-0.8-0.5-1.1c-0.4-0.2-0.9-0.4-1.6-0.4c-0.7,0-1.3,0.2-1.6,0.4c-0.4,0.3-0.6,0.7-0.6,1.3h-1.5
			V149c0-0.9,0.3-1.7,1-2.2c0.7-0.5,1.6-0.8,2.7-0.8c1.2,0,2.1,0.2,2.7,0.7c0.6,0.5,0.9,1.2,0.9,2.2v4.6c0,0.4,0,0.7,0.1,0.8
			s0.2,0.2,0.5,0.2c0,0,0.1,0,0.2,0c0.1,0,0.2,0,0.2,0v1.2c-0.2,0-0.4,0.1-0.5,0.1s-0.3,0-0.4,0c-0.5,0-0.9-0.1-1.2-0.3
			S64.5,154.7,64.4,154.2L64.4,154.2L64.4,154.2z M64.3,150.7c-0.4,0.2-1.1,0.4-2.1,0.5c-0.4,0-0.6,0.1-0.8,0.1
			c-0.6,0.1-1,0.3-1.2,0.5c-0.2,0.2-0.4,0.6-0.4,1.1c0,0.5,0.2,0.8,0.4,1.1c0.3,0.2,0.7,0.4,1.2,0.4c0.8,0,1.5-0.2,2.1-0.6
			c0.5-0.4,0.8-1,0.8-1.6L64.3,150.7L64.3,150.7z"/>
		<path class="st4" d="M75.3,149.3c0-0.6-0.3-1.1-0.7-1.5s-1-0.5-1.7-0.5c-0.8,0-1.5,0.3-1.9,0.9c-0.5,0.6-0.7,1.5-0.7,2.6
			c0,1.1,0.2,2,0.7,2.6s1.1,0.9,1.9,0.9c0.7,0,1.3-0.2,1.7-0.6c0.4-0.4,0.7-0.9,0.8-1.6h1.5c-0.1,1.1-0.5,2-1.2,2.7
			c-0.7,0.6-1.7,1-2.9,1c-1.3,0-2.3-0.4-3-1.3c-0.7-0.9-1.1-2.1-1.1-3.6c0-1.5,0.4-2.8,1.1-3.7c0.8-0.9,1.8-1.3,3.1-1.3
			c1.2,0,2.1,0.3,2.8,0.9c0.7,0.6,1.1,1.4,1.1,2.5L75.3,149.3L75.3,149.3z"/>
		<path class="st4" d="M85.2,146.2H87l-3.9,10.7c-0.4,1-0.7,1.7-1.1,2c-0.4,0.3-0.9,0.5-1.6,0.5c-0.2,0-0.3,0-0.5,0
			c-0.2,0-0.3-0.1-0.5-0.1v-1.5c0.2,0,0.3,0.1,0.5,0.1c0.2,0,0.3,0,0.4,0c0.3,0,0.5-0.1,0.7-0.2c0.2-0.1,0.3-0.3,0.4-0.6l0.4-1.1
			l-3.5-9.8h1.7l2.6,7.5L85.2,146.2z"/>
		<path class="st3" d="M88.8,152.6h1.1c0,0.6,0.3,1.2,0.7,1.5c0.4,0.4,1,0.6,1.7,0.6c0.8,0,1.4-0.2,1.8-0.5c0.4-0.3,0.7-0.7,0.7-1.2
			c0-0.8-0.8-1.3-2.5-1.7h0c-1.3-0.3-2.2-0.7-2.6-1s-0.7-0.9-0.7-1.6c0-0.8,0.3-1.4,0.9-1.9c0.6-0.5,1.3-0.7,2.3-0.7
			c1,0,1.9,0.3,2.5,0.8c0.6,0.5,1,1.2,1,2.1h-1.1c0-0.6-0.3-1.1-0.7-1.5c-0.4-0.4-1-0.5-1.7-0.5c-0.6,0-1.1,0.2-1.5,0.4
			c-0.4,0.3-0.6,0.7-0.6,1.2c0,0.8,0.8,1.4,2.5,1.8c0.2,0,0.4,0.1,0.5,0.1c1,0.3,1.8,0.6,2.2,1c0.4,0.4,0.6,0.9,0.6,1.6
			c0,0.8-0.3,1.4-1,1.9c-0.6,0.5-1.5,0.7-2.5,0.7s-1.9-0.3-2.6-0.8C89.2,154.3,88.9,153.5,88.8,152.6z"/>
		<path class="st3" d="M99.4,151L99.4,151c0,1.2,0.3,2.1,0.8,2.7c0.5,0.7,1.3,1,2.2,1c0.7,0,1.3-0.2,1.8-0.6
			c0.5-0.4,0.8-0.9,0.9-1.6h1.1c-0.1,0.9-0.5,1.7-1.2,2.2s-1.6,0.8-2.6,0.8c-1.3,0-2.2-0.4-2.9-1.3s-1.1-2-1.1-3.5
			c0-1.5,0.4-2.7,1.1-3.6c0.7-0.9,1.7-1.3,3-1.3c1.2,0,2.2,0.4,2.9,1.2c0.7,0.8,1,2,1,3.5v0.4L99.4,151L99.4,151z M99.4,150.2h5.8
			c0-1-0.3-1.8-0.8-2.4c-0.5-0.6-1.2-0.9-2-0.9s-1.5,0.3-2.1,0.9S99.5,149.2,99.4,150.2z"/>
		<path class="st3" d="M115,154.1c-0.5,0.5-1,0.9-1.6,1.2c-0.6,0.3-1.2,0.4-1.8,0.4c-0.9,0-1.7-0.2-2.2-0.7
			c-0.6-0.5-0.8-1.1-0.8-1.9c0-0.5,0.1-1,0.4-1.4c0.2-0.4,0.6-0.7,1.1-0.9c0.6-0.2,1.5-0.4,2.7-0.5c0.2,0,0.4,0,0.6,0
			c0.1,0,0.2,0,0.3-0.1c0.9-0.2,1.3-0.6,1.3-1.1c0-0.7-0.2-1.2-0.5-1.5c-0.4-0.3-0.9-0.5-1.7-0.5c-0.8,0-1.5,0.2-1.9,0.5
			c-0.4,0.3-0.7,0.8-0.7,1.5h-1c0-0.9,0.4-1.6,1-2.2c0.6-0.5,1.5-0.8,2.6-0.8c1.1,0,1.9,0.2,2.5,0.7c0.6,0.5,0.9,1.2,0.9,2.1v5
			c0,0.4,0,0.6,0.1,0.7c0.1,0.1,0.3,0.1,0.5,0.1c0.1,0,0.2,0,0.2,0c0.1,0,0.1,0,0.2,0v0.8c-0.1,0-0.3,0-0.4,0.1c-0.1,0-0.2,0-0.4,0
			c-0.4,0-0.8-0.1-1-0.3c-0.2-0.2-0.3-0.5-0.3-1L115,154.1L115,154.1z M115,150.6c-0.3,0.1-0.6,0.2-1.1,0.2
			c-0.4,0.1-1.2,0.1-2.1,0.2c-0.7,0.2-1.2,0.4-1.5,0.8c-0.4,0.3-0.5,0.7-0.5,1.2c0,0.5,0.2,1,0.6,1.3c0.4,0.3,0.9,0.5,1.5,0.5
			c1,0,1.7-0.2,2.3-0.8c0.6-0.5,0.9-1.2,0.9-2.1L115,150.6L115,150.6z"/>
		<path class="st3" d="M119.5,155.4v-12.7h1.1v12.7H119.5z"/>
	</g>
</g>
</svg>
