<?xml version="1.0" encoding="utf-8"?>
<!-- Generator: Adobe Illustrator 22.0.0, SVG Export Plug-In . SVG Version: 6.00 Build 0)  -->
<svg version="1.0" id="Ebene_1" xmlns="http://www.w3.org/2000/svg" xmlns:xlink="http://www.w3.org/1999/xlink" x="0px" y="0px"
	 width="42px" height="42px" viewBox="0 0 42 42" enable-background="new 0 0 42 42" xml:space="preserve">
<path fill="#FFFFFF" d="M42,21c0,11.6-9.4,21-21,21C9.6,42,0,32.6,0,21C0,9.4,9.4,0,21,0C32.6,0,42,9.4,42,21"/>
<path fill="#004C92" d="M22.9,33.2V22.1h3.7l0.6-4.3h-4.3v-2.8c0-1.3,0.3-2.1,2.2-2.1l2.3,0V8.9C27,8.9,25.6,8.8,24,8.8
	c-3.3,0-5.6,2-5.6,5.7v3.2h-3.8v4.3h3.8v11.2H22.9z"/>
</svg>
