<?xml version="1.0" encoding="utf-8"?>
<!-- Generator: Adobe Illustrator 22.0.0, SVG Export Plug-In . SVG Version: 6.00 Build 0)  -->
<svg version="1.0" id="Ebene_1" xmlns="http://www.w3.org/2000/svg" xmlns:xlink="http://www.w3.org/1999/xlink" x="0px" y="0px"
	 width="200px" height="auto" viewBox="0 0 100 51" enable-background="new 0 0 100 51" xml:space="preserve">
<g>
	<path fill="#004C92" d="M82.6,10.6c-3.2-2-6.6-3.9-10.1-5.4c-7-3.1-14.6-4.9-22.3-5.2c-3.8-0.1-7.7,0-11.5,0.6
		c-3.8,0.6-7.5,1.6-11.1,3.1C24,5.2,20.6,7,17.4,9.3c-3.2,2.3-6.1,4.7-8.6,7.9l-0.6,0.7L9,18.6l0,0c4.1,3.1,8.5,5.3,13.1,7.1
		c4.6,1.8,9.4,3.2,14.3,4c4.9,0.9,9.8,1.2,14.8,1.2c2.5-0.1,5.1-0.5,7.4-1.6c2.3-1.1,4.4-3,5.3-5.5c0.9-2.5,0.8-5.2-0.1-7.6
		c-0.8-2.4-2.4-4.5-4.3-6.2c-3.9-3.2-9.6-4.2-14.2-1.9c-2.2,1.2-3.8,3.4-4.4,5.9c-0.5,2.5,0,5.1,1.6,7.1c1.6,2,4,3,6.5,3.2
		c1.2,0.1,2.5,0.1,3.7-0.2c1.2-0.3,2.3-0.9,3.1-1.8c0.4-0.5,0.6-1.4,0.6-1.4s-0.6,0.5-1.6,0.5c-7.9,0-11.7-12.2-2.4-12.2
		c2.1,0.2,4.2,0.9,5.9,2.2c1.8,1.3,3.2,3.1,4,5.2c0.8,2.1,1.1,4.4,0.3,6.6c-0.7,2.2-2.5,3.8-4.6,4.8c-2.1,1-4.5,1.3-6.9,1.3
		c-4.8-0.2-9.7-0.7-14.3-2c-2.3-0.6-4.6-1.3-6.8-2.2c-2.2-0.9-4.4-1.9-6.4-3.1c-1-0.6-2-1.2-3-1.8c-1-0.7-1.9-1.4-2.8-2.1
		c-0.5-0.3-0.9-0.7-1.3-1.1c0.1-0.1,0.1-0.2,0.2-0.3c1.1-1.4,2.2-2.7,3.5-3.9c2.6-2.4,5.5-4.5,8.7-6.2c3.2-1.7,6.7-3,10.2-3.9
		c3.6-0.8,7.3-1.3,11.1-1.2c7.5,0.1,15,1.5,22,4.4c3.5,1.4,6.9,3.2,10.1,5.2c3.2,2,6.3,4.3,9,6.9l0.5-0.5
		C89,14.9,85.8,12.7,82.6,10.6 M13.1,13.6C13.1,13.6,13.1,13.6,13.1,13.6L13.1,13.6L13.1,13.6z"/>
	<path fill="#004C92" d="M47.6,50.8v-0.7h0.2c0.3,0,0.5-0.1,0.6-0.2c0.2-0.1,0.3-0.4,0.5-0.9l3.2-8.6h1.4l3.2,8.9
		c0.1,0.3,0.3,0.6,0.4,0.7c0.2,0.1,0.4,0.2,0.6,0.2H58v0.7h-4.2v-0.7h0.4c0.3,0,0.4-0.1,0.6-0.2c0.1-0.1,0.2-0.3,0.2-0.5
		c0-0.1,0-0.2,0-0.3c0-0.1-0.1-0.2-0.1-0.3l-0.6-1.6h-3.7l-0.5,1.5c-0.1,0.3-0.1,0.5-0.1,0.7c0,0.4,0.3,0.7,0.9,0.7h0.4v0.7H47.6z
		 M50.9,46.6h3.2l-0.9-2.5c-0.1-0.4-0.3-0.8-0.4-1.2c-0.1-0.4-0.2-0.8-0.3-1.1c-0.1,0.3-0.2,0.7-0.3,1c-0.1,0.3-0.2,0.7-0.4,1.1
		L50.9,46.6z"/>
	<path fill="#004C92" d="M61,50.8l-2.7-8.9c-0.1-0.3-0.2-0.5-0.4-0.6c-0.2-0.1-0.4-0.2-0.7-0.2h-0.2v-0.7h4.2v0.7H61
		c-0.6,0-0.9,0.2-0.9,0.7c0,0.1,0,0.2,0,0.3c0,0.1,0.1,0.2,0.1,0.3l1.2,4.3c0.1,0.4,0.2,0.8,0.3,1.3c0.1,0.4,0.2,0.8,0.3,1.2
		c0.1-0.4,0.2-0.7,0.3-1.1c0.1-0.4,0.2-0.8,0.3-1.2l1.8-6.2h1.1l1.9,6.1c0.1,0.5,0.3,0.9,0.4,1.4c0.1,0.4,0.2,0.8,0.3,1.1
		c0.1-0.3,0.2-0.7,0.2-1.1c0.1-0.4,0.2-0.9,0.3-1.3l1.1-4.1c0-0.1,0.1-0.3,0.1-0.4c0-0.2,0.1-0.3,0.1-0.4c0-0.5-0.3-0.7-1-0.7h-0.3
		v-0.7h3.6v0.7h-0.3c-0.3,0-0.5,0.1-0.7,0.2c-0.2,0.1-0.3,0.4-0.4,0.9l-2.4,8.6H67L64.6,43l-2.2,7.8H61z"/>
	<path fill="#004C92" d="M71.3,50.8v-0.7h0.2c0.3,0,0.5-0.1,0.6-0.2c0.2-0.1,0.3-0.4,0.5-0.9l3.2-8.6h1.4l3.2,8.9
		c0.1,0.3,0.3,0.6,0.4,0.7c0.2,0.1,0.4,0.2,0.6,0.2h0.2v0.7h-4.2v-0.7h0.4c0.3,0,0.4-0.1,0.6-0.2c0.1-0.1,0.2-0.3,0.2-0.5
		c0-0.1,0-0.2,0-0.3c0-0.1-0.1-0.2-0.1-0.3L78,47.3h-3.7l-0.5,1.5c-0.1,0.3-0.1,0.5-0.1,0.7c0,0.4,0.3,0.7,0.9,0.7h0.4v0.7H71.3z
		 M74.5,46.6h3.2l-0.9-2.5c-0.1-0.4-0.3-0.8-0.4-1.2c-0.1-0.4-0.2-0.8-0.3-1.1c-0.1,0.3-0.2,0.7-0.3,1c-0.1,0.3-0.2,0.7-0.4,1.1
		L74.5,46.6z"/>
	<path fill="#004C92" d="M82.2,50.8v-0.7h0.3c0.3,0,0.5-0.1,0.8-0.2c0.2-0.1,0.3-0.4,0.3-0.8V42c0-0.4-0.1-0.7-0.3-0.8
		c-0.2-0.1-0.5-0.2-0.8-0.2h-0.3v-0.7h4.1c1.3,0,2.2,0.2,2.9,0.7c0.6,0.5,0.9,1.2,0.9,2.1c0,0.5-0.1,0.9-0.3,1.3
		c-0.2,0.4-0.5,0.6-0.8,0.9c-0.3,0.2-0.6,0.4-1,0.5l1.9,3.1c0.2,0.4,0.5,0.7,0.7,0.9c0.2,0.2,0.5,0.3,0.8,0.3h0.1v0.7h-0.3
		c-0.6,0-1.1,0-1.4-0.1c-0.3-0.1-0.6-0.2-0.8-0.4c-0.2-0.2-0.4-0.5-0.7-0.8l-1.9-3.3h-1.1v3c0,0.4,0.1,0.7,0.3,0.8
		c0.2,0.1,0.5,0.2,0.7,0.2h0.3v0.7H82.2z M85.3,45.5h1c0.8,0,1.4-0.2,1.6-0.6c0.3-0.4,0.4-0.9,0.4-1.7c0-0.8-0.2-1.3-0.5-1.6
		c-0.3-0.3-0.9-0.5-1.6-0.5h-0.9V45.5z"/>
	<path fill="#004C92" d="M91.9,50.8v-0.7h0.3c0.3,0,0.5-0.1,0.8-0.2c0.2-0.1,0.3-0.4,0.3-0.8v-7.1c0-0.4-0.1-0.7-0.3-0.8
		c-0.2-0.1-0.5-0.2-0.8-0.2h-0.3v-0.7h7.5l0.1,2.6h-0.8l-0.1-0.6c0-0.3-0.1-0.6-0.3-0.8c-0.2-0.2-0.5-0.3-0.9-0.3H95V45h3.5v0.8H95
		V50h2.8c0.4,0,0.7-0.1,0.9-0.3c0.2-0.2,0.3-0.5,0.4-0.8l0.1-0.6h0.8l-0.1,2.6H91.9z"/>
	<path fill="#004C92" d="M8.1,43.6c-0.3-1.6-1.7-2.5-3.2-2.5c-2.7,0-3.9,2.3-3.9,4.6c0,2.3,1.2,4.6,3.9,4.6c1.9,0,3.1-1.5,3.3-3.3h1
		C8.9,49.4,7.3,51,4.9,51C1.6,51,0,48.4,0,45.6c0-2.8,1.6-5.4,4.9-5.4c2,0,3.9,1.2,4.2,3.4H8.1z"/>
	<polygon fill="#004C92" points="13.6,46.5 9.5,40.4 10.7,40.4 14.1,45.7 17.5,40.4 18.7,40.4 14.6,46.5 14.6,50.8 13.6,50.8 	"/>
	<path fill="#004C92" d="M19.6,40.4H24c1.7,0,3.3,0.6,3.3,2.5c0,1.1-0.7,2.1-1.8,2.3v0c1.3,0.2,2.2,1.2,2.2,2.5c0,1-0.3,2.9-3.7,2.9
		h-4.4V40.4z M20.6,45H24c1.6,0,2.3-0.8,2.3-1.8c0-1.3-0.8-1.9-2.3-1.9h-3.4V45z M20.6,50H24c1.5,0,2.7-0.5,2.7-2.1c0-1.3-1-2-2.7-2
		h-3.4V50z"/>
	<polygon fill="#004C92" points="29.3,40.4 36.4,40.4 36.4,41.3 30.2,41.3 30.2,45 36,45 36,45.9 30.2,45.9 30.2,50 36.5,50
		36.5,50.8 29.3,50.8 	"/>
	<path fill="#004C92" d="M37.9,40.4h4.7c1.7,0,3.1,0.8,3.1,2.7c0,1.3-0.7,2.4-2,2.6v0c1.3,0.2,1.7,1.1,1.8,2.3c0,0.7,0,2.1,0.5,2.7
		h-1.1c-0.2-0.4-0.2-1.2-0.3-1.6c-0.1-1.5-0.2-3.1-2.1-3h-3.7v4.6h-1V40.4z M38.8,45.4h3.7c1.2,0,2.2-0.8,2.2-2
		c0-1.3-0.8-2.1-2.2-2.1h-3.7V45.4z"/>
</g>
</svg>
