<?xml version="1.0" encoding="utf-8"?>
<!-- Generator: Adobe Illustrator 19.2.0, SVG Export Plug-In . SVG Version: 6.00 Build 0)  -->
<svg version="1.1" id="Ebene_1" xmlns="http://www.w3.org/2000/svg" xmlns:xlink="http://www.w3.org/1999/xlink" x="0px" y="0px"
	 width="109.7px" height="102.3px" viewBox="0 0 109.7 102.3" style="enable-background:new 0 0 109.7 102.3;" xml:space="preserve"
	>
<style type="text/css">
	.st0{fill:#004C92;}
	.st1{fill:#79B641;}
</style>
<g>
	<path class="st0" d="M26.5,102c-0.2,0-0.4,0-0.6-0.1L19,99.7c-1.3-0.4-1.5-1.8-1.5-2.6L17.4,92c-1.7-1.2-3.3-2.5-4.7-4l-5.1,0.6
		c-0.7,0.1-2.1,0.1-2.7-1.1l-3.3-6.4c-0.6-1.2,0.2-2.4,0.8-2.9l3.5-3.8c-0.4-2-0.5-4-0.5-6.1l-4.1-3.2c-0.6-0.4-1.6-1.4-1.2-2.7
		l2.2-6.9c0.4-1.3,1.8-1.5,2.6-1.5l5.1-0.2c1.2-1.7,2.5-3.3,4-4.7l-0.6-5.1c-0.1-0.7-0.1-2.1,1.1-2.7l6.4-3.3
		c1.2-0.6,2.4,0.2,2.9,0.8l3.7,3.4c2.1-0.4,4.2-0.6,6.3-0.5l3.1-4c0.4-0.6,1.4-1.6,2.7-1.2l6.9,2.2c1.3,0.4,1.5,1.8,1.5,2.6l0.2,4.9
		c1.8,1.2,3.4,2.6,4.9,4.1l4.9-0.6c0.7-0.1,2.1-0.1,2.7,1.1l3.3,6.4c0.6,1.2-0.2,2.4-0.8,2.9l-3.3,3.6c0.4,2.1,0.6,4.3,0.5,6.4
		l3.9,3c0.6,0.4,1.6,1.5,1.2,2.7L63.1,83c-0.4,1.3-1.8,1.5-2.6,1.5l-4.9,0.2c-1.2,1.8-2.6,3.4-4.2,4.9l0.6,4.9
		c0.1,0.7,0.1,2.1-1.1,2.7l-6.4,3.3c-1.2,0.6-2.4-0.2-2.9-0.8L38,96.3c-2.1,0.4-4.2,0.5-6.3,0.5l-3.1,4
		C28.3,101.2,27.5,102,26.5,102z M19.3,91.6l0.2,5.5c0,0,0,0.1,0,0.1c0,0.2,0.1,0.5,0.1,0.6l6.9,2.2c0.1,0,0.4-0.3,0.5-0.4l3.5-4.5
		c0.2-0.3,0.5-0.4,0.9-0.4c2.3,0.1,4.6,0,6.8-0.5c0.3-0.1,0.7,0,0.9,0.2l4.1,3.8c0,0,0,0,0.1,0.1c0.2,0.2,0.4,0.3,0.5,0.3l6.4-3.3
		c0.1-0.1,0.1-0.4,0-0.6l-0.7-5.5c0-0.3,0.1-0.7,0.3-0.9c1.7-1.5,3.2-3.3,4.5-5.2c0.2-0.3,0.5-0.4,0.8-0.5l5.5-0.2c0,0,0.1,0,0.1,0
		c0.2,0,0.5-0.1,0.6-0.1l2.2-6.9c0-0.1-0.2-0.3-0.4-0.5c0,0,0,0-0.1,0l-4.3-3.3c-0.3-0.2-0.4-0.5-0.4-0.9c0.1-2.3,0-4.7-0.5-6.9
		c-0.1-0.3,0-0.7,0.2-0.9l3.7-4c0,0,0-0.1,0.1-0.1c0.2-0.2,0.3-0.4,0.3-0.5l-3.3-6.4c-0.1,0-0.4-0.1-0.6,0l-5.5,0.7
		c-0.3,0-0.7-0.1-0.9-0.3c-1.5-1.7-3.3-3.2-5.3-4.5c-0.3-0.2-0.5-0.5-0.5-0.8l-0.2-5.5c0,0,0-0.1,0-0.1c0-0.2-0.1-0.5-0.1-0.6
		l-6.9-2.2c-0.1,0-0.4,0.3-0.5,0.4L35,43.4c-0.2,0.3-0.5,0.4-0.8,0.4c-2.3-0.1-4.6,0.1-6.8,0.6c-0.3,0.1-0.7,0-0.9-0.2l-4.1-3.8
		c0,0-0.1,0-0.1-0.1c-0.2-0.2-0.5-0.3-0.5-0.3l-6.4,3.3c0,0.1-0.1,0.4,0,0.6l0.7,5.6c0,0.3-0.1,0.6-0.3,0.9
		c-1.7,1.5-3.1,3.2-4.3,5.1c-0.2,0.3-0.6,0.5-1,0.4l-5.5,0.2c0,0-0.1,0-0.1,0c-0.2,0-0.5,0.1-0.6,0.1L2,63.1c0,0.1,0.2,0.3,0.4,0.5
		L6.8,67c0.3,0.2,0.6,0.5,0.5,0.9c-0.1,2.3,0.1,4.5,0.5,6.7c0.1,0.4-0.1,0.8-0.4,1l-3.7,4c0,0,0,0-0.1,0.1c-0.2,0.2-0.3,0.4-0.3,0.5
		l3.3,6.4c0.1,0.1,0.4,0.1,0.6,0l5.6-0.7c0.1,0,0.2,0,0.2,0c0.3,0,0.5,0.1,0.7,0.3c1.5,1.7,3.2,3.1,5.1,4.4
		C19.2,90.8,19.3,91.1,19.3,91.6C19.3,91.5,19.3,91.5,19.3,91.6z"/>
	<path class="st0" d="M32.8,79.9c-1.1,0-2.2-0.2-3.2-0.5c-2.7-0.9-4.9-2.7-6.2-5.3c-1.3-2.5-1.5-5.4-0.6-8.1
		c0.9-2.7,2.7-4.9,5.3-6.2c2.5-1.3,5.4-1.5,8.1-0.6c2.7,0.9,4.9,2.7,6.2,5.2c1.3,2.5,1.5,5.4,0.6,8.1C41.4,77,37.3,79.9,32.8,79.9z
		 M32.8,60.7c-1.3,0-2.7,0.3-3.9,0.9c-2,1-3.6,2.8-4.3,5c-0.7,2.2-0.5,4.5,0.5,6.5c1,2,2.8,3.6,5,4.3c4.5,1.5,9.3-1,10.8-5.5
		c0.7-2.2,0.5-4.5-0.5-6.5c-1-2-2.8-3.6-5-4.3c0,0,0,0,0,0C34.6,60.8,33.7,60.7,32.8,60.7z"/>
	<path class="st1" d="M76.1,52.2c-0.2,0-0.4,0-0.5-0.1l-5.4-1.8c-1.1-0.4-1.4-1.6-1.3-2.2l-0.1-3.9c-1.3-0.9-2.5-1.9-3.6-3.1
		l-3.9,0.5c-0.6,0.1-1.8,0.1-2.4-1l-2.6-5.1c-0.5-1.1,0.1-2.1,0.6-2.5l2.7-2.9c-0.3-1.5-0.4-3.1-0.4-4.7L56,23
		c-0.5-0.3-1.3-1.2-1-2.4l1.8-5.4c0.4-1.1,1.5-1.4,2.2-1.3l3.9-0.1c0.9-1.3,1.9-2.5,3.1-3.6l-0.5-3.9c-0.1-0.6-0.1-1.8,1-2.4
		l5.1-2.6c1.1-0.5,2.1,0.1,2.5,0.6L77,4.5c1.6-0.3,3.2-0.4,4.8-0.4l2.4-3.1c0.3-0.5,1.3-1.3,2.4-1l5.4,1.8c1.1,0.4,1.4,1.6,1.3,2.2
		l0.1,3.8c1.4,0.9,2.6,2,3.7,3.2l3.8-0.5c0.6-0.1,1.8-0.1,2.4,1l2.6,5.1c0.5,1-0.1,2.1-0.6,2.5l-2.6,2.7c0.3,1.6,0.4,3.3,0.4,4.9
		l3,2.3c0.6,0.4,1.4,1.3,1,2.4l-1.8,5.4c-0.4,1.1-1.5,1.4-2.2,1.3l-3.8,0.1c-0.9,1.4-2,2.6-3.2,3.7l0.5,3.8c0.1,0.6,0.1,1.8-1,2.4
		l-5.1,2.6c-1.1,0.5-2.1-0.1-2.5-0.6l-2.8-2.6c-1.6,0.3-3.2,0.4-4.8,0.4L78,51.1C77.7,51.5,77,52.2,76.1,52.2z M70.9,48.4l5.3,1.7
		c0.1,0,0.2-0.1,0.2-0.2l2.7-3.5c0.2-0.3,0.5-0.4,0.9-0.4c1.8,0.1,3.6,0,5.3-0.4c0.3-0.1,0.7,0,0.9,0.2l3.2,3c0,0,0.1,0.1,0.1,0.1
		c0.1,0.1,0.2,0.1,0.2,0.2l4.9-2.5c0-0.1,0-0.2,0-0.3L94,41.9c0-0.3,0.1-0.7,0.3-0.9c1.4-1.2,2.5-2.6,3.5-4.1
		c0.2-0.3,0.5-0.4,0.8-0.5l4.3-0.2c0,0,0.1,0,0.1,0c0.1,0,0.2,0,0.3,0l1.7-5.3c0-0.1-0.1-0.2-0.2-0.2c0,0,0,0-0.1,0l-3.4-2.6
		c-0.3-0.2-0.4-0.5-0.4-0.8c0.1-1.8,0-3.7-0.4-5.4c-0.1-0.3,0-0.7,0.2-0.9l2.9-3.2c0,0,0.1-0.1,0.1-0.1c0.1-0.1,0.1-0.2,0.2-0.2
		l-2.5-4.9c-0.1,0-0.2,0-0.3,0l-4.4,0.6c-0.3,0-0.7-0.1-0.9-0.3c-1.2-1.4-2.6-2.5-4.1-3.5c-0.3-0.2-0.4-0.5-0.5-0.8l-0.2-4.4
		c0,0,0-0.1,0-0.1c0-0.1,0-0.2,0-0.3L86,2c-0.1,0.1-0.2,0.2-0.2,0.2L83,5.8c-0.2,0.3-0.5,0.4-0.8,0.4c-1.8-0.1-3.6,0-5.3,0.4
		c-0.3,0.1-0.7,0-0.9-0.2l-3.2-3c0,0-0.1,0-0.1-0.1c-0.1-0.1-0.2-0.1-0.2-0.2l-4.9,2.5c0,0.1,0,0.2,0,0.3l0.6,4.5
		c0,0.3-0.1,0.6-0.3,0.9c-1.3,1.2-2.4,2.5-3.4,4c-0.2,0.3-0.6,0.5-1,0.4l-4.3,0.1c0,0-0.1,0-0.1,0c-0.1,0-0.2,0-0.3,0L57,21.2
		c0,0.1,0.1,0.2,0.2,0.2l3.5,2.7c0,0,0,0,0,0c0.3,0.2,0.5,0.5,0.5,0.9c-0.1,1.8,0,3.5,0.4,5.2c0.1,0.4-0.1,0.8-0.4,1l-2.9,3.1
		c0,0,0,0-0.1,0.1c-0.1,0.1-0.1,0.2-0.2,0.2l2.5,4.9c0.1,0,0.2,0,0.3,0l4.4-0.6c0.4-0.1,0.8,0,1,0.3c1.2,1.3,2.5,2.4,4,3.4
		c0.2,0.1,0.4,0.4,0.4,0.6c0,0.1,0,0.2,0,0.3l0.1,4.3c0,0,0,0.1,0,0.1C70.8,48.2,70.8,48.4,70.9,48.4z M89.6,49.1
		C89.6,49.1,89.6,49.1,89.6,49.1L89.6,49.1z M104.1,17.5C104.1,17.5,104.1,17.5,104.1,17.5L104.1,17.5z M58.7,15.8L58.7,15.8
		C58.7,15.8,58.7,15.8,58.7,15.8z"/>
	<path class="st1" d="M81.1,34.7c-0.9,0-1.8-0.1-2.7-0.4c-4.5-1.5-7-6.3-5.5-10.8c1.5-4.5,6.3-7,10.8-5.5l0,0c2.2,0.7,4,2.2,5,4.3
		c1,2,1.2,4.4,0.5,6.5c-0.7,2.2-2.2,4-4.3,5C83.8,34.3,82.5,34.7,81.1,34.7z M81.1,19.5c-2.8,0-5.4,1.8-6.3,4.5
		c-1.1,3.5,0.8,7.2,4.2,8.3c1.7,0.5,3.5,0.4,5-0.4c1.6-0.8,2.7-2.2,3.3-3.8c0.5-1.7,0.4-3.5-0.4-5c-0.8-1.6-2.2-2.7-3.8-3.3
		C82.5,19.6,81.8,19.5,81.1,19.5z"/>
	<path class="st0" d="M95,94.6c-0.6,0-1.2-0.4-1.5-0.8l-1.7-2c-1.1,0.1-2.2,0-3.3-0.1l-1.9,1.9c-0.4,0.5-1.3,1-2.1,0.6l-3.8-1.7
		c-0.8-0.4-1.1-1.3-1-2.1l0.2-2.6c-0.8-0.7-1.6-1.5-2.2-2.3l-2.7,0.1c-0.7,0.1-1.6-0.2-1.9-1.1l-1.5-3.9c-0.3-0.8,0.1-1.6,0.7-2.1
		l2-1.8c-0.1-1-0.1-2.1,0.1-3.2l-2-1.9c-0.5-0.4-1-1.3-0.6-2.1l1.7-3.8c0.4-0.8,1.2-1.1,2-1l2.7,0.2c0.7-0.8,1.5-1.6,2.3-2.2
		l-0.1-2.7c-0.1-0.7,0.2-1.6,1-1.9l3.9-1.5c0.8-0.3,1.6,0.1,2.1,0.7l1.7,2c1.1-0.1,2.2-0.1,3.3,0.1l1.8-1.9c0.4-0.5,1.3-1,2.1-0.6
		l3.8,1.7c0.8,0.4,1.1,1.3,1,2l-0.2,2.6c0.9,0.7,1.6,1.5,2.3,2.4l2.6-0.1c0.7-0.1,1.6,0.2,1.9,1l1.5,3.9c0.3,0.8-0.1,1.6-0.7,2.1
		l-1.9,1.7c0.1,1.1,0.1,2.2-0.1,3.4l1.9,1.8c0.5,0.4,1,1.3,0.6,2.1l-1.7,3.8c-0.4,0.8-1.2,1.1-2,1l-2.6-0.2
		c-0.7,0.9-1.5,1.6-2.4,2.3l0.1,2.6c0.1,0.7-0.2,1.6-1,1.9l-3.9,1.5C95.4,94.6,95.2,94.6,95,94.6z M94.9,92.7
		C94.9,92.7,94.9,92.7,94.9,92.7L94.9,92.7z M92.2,89.8c0.3,0,0.6,0.1,0.8,0.3l2.1,2.4c0,0,0,0,0,0.1l3.4-1.3c0,0,0,0,0,0L98.4,88
		c0-0.3,0.1-0.6,0.4-0.8c1-0.7,2-1.6,2.8-2.7c0.2-0.3,0.5-0.4,0.8-0.4l3.1,0.2c0,0,0.1,0,0.1,0l1.5-3.4l-2.3-2.2
		c-0.2-0.2-0.3-0.6-0.3-0.9c0.2-1.3,0.2-2.6,0.1-3.9c0-0.3,0.1-0.7,0.3-0.9l2.4-2.1c0,0,0,0,0.1,0l-1.3-3.4c0,0,0,0,0,0l-3.2,0.1
		c-0.3,0-0.6-0.1-0.8-0.4c-0.8-1-1.7-2-2.7-2.8C99.1,64.4,99,64,99,63.7l0.2-3.2c0,0,0-0.1,0-0.1L95.9,59c0,0,0,0,0,0l-2.2,2.3
		c-0.2,0.2-0.6,0.4-0.9,0.3c-1.2-0.2-2.5-0.2-3.8-0.1c-0.3,0-0.6-0.1-0.9-0.3L86,58.8c0,0,0,0-0.1-0.1l-3.4,1.3c0,0,0,0,0,0l0.1,3.3
		c0,0.3-0.1,0.6-0.4,0.8c-1,0.7-1.9,1.6-2.7,2.6c-0.2,0.3-0.6,0.4-1,0.3L75.4,67c0,0-0.1,0-0.1,0l-1.5,3.4c0,0,0,0,0,0l2.3,2.2
		c0.3,0.2,0.5,0.6,0.4,1c-0.2,1.3-0.2,2.5-0.1,3.7c0,0.4-0.1,0.8-0.5,1l-2.3,2c0,0,0,0-0.1,0l1.3,3.4c0,0,0,0,0,0l3.2-0.1
		c0.1,0,0.1,0,0.2,0c0.3,0,0.6,0.2,0.8,0.4c0.7,1,1.6,1.9,2.6,2.7c0.3,0.2,0.4,0.6,0.4,0.9c0,0,0,0,0,0l-0.2,3.1c0,0,0,0.1,0,0.1
		l3.4,1.5l2.3-2.4c0.2-0.2,0.6-0.3,0.9-0.3c1.3,0.2,2.5,0.2,3.8,0.1C92.1,89.8,92.2,89.8,92.2,89.8z M107.3,80.8
		C107.3,80.8,107.3,80.8,107.3,80.8L107.3,80.8z M107.5,71.3C107.5,71.3,107.5,71.3,107.5,71.3C107.5,71.3,107.5,71.3,107.5,71.3z
		 M75.4,66.7L75.4,66.7C75.4,66.7,75.4,66.7,75.4,66.7z"/>
	<path class="st0" d="M90.6,83.1c-1,0-2-0.2-3-0.6c-3.7-1.7-5.4-6-3.8-9.8c0.8-1.8,2.2-3.2,4.1-3.9c1.8-0.7,3.9-0.7,5.7,0.1l0,0
		c1.8,0.8,3.2,2.3,3.9,4.1c0.7,1.8,0.7,3.9-0.1,5.7c-0.8,1.8-2.3,3.2-4.1,3.9C92.4,82.9,91.5,83.1,90.6,83.1z M90.6,70.3
		c-0.7,0-1.3,0.1-2,0.4c-1.3,0.5-2.4,1.5-3,2.9c-1.2,2.7,0,5.9,2.8,7.1c1.3,0.6,2.8,0.6,4.1,0.1c1.3-0.5,2.4-1.5,3-2.9
		c0.6-1.3,0.6-2.8,0.1-4.1c-0.5-1.3-1.5-2.4-2.9-3c0,0,0,0,0,0C92.1,70.4,91.3,70.3,90.6,70.3z"/>
</g>
</svg>
