<?xml version="1.0" encoding="utf-8"?>
<!-- Generator: Adobe Illustrator 19.2.0, SVG Export Plug-In . SVG Version: 6.00 Build 0)  -->
<svg version="1.1" id="Ebene_1" xmlns="http://www.w3.org/2000/svg" xmlns:xlink="http://www.w3.org/1999/xlink" x="0px" y="0px"
	 width="90px" height="90px" viewBox="0 0 90 90" style="enable-background:new 0 0 90 90;" xml:space="preserve">
<style type="text/css">
	.st0{fill:#004C92;}
	.st1{fill:#FFFFFF;}
</style>
<g>
	<polygon class="st0" points="0,0 0,90 90,90 90,0 0,0 	"/>
	<path class="st1" d="M41.9,32.3v-5.6h0h-4v5.6c0,0,0,2.7-2.2,2.7c-2.2,0-2.2-2.7-2.2-2.7v-5.6v0l-8.3,0v-1.3c0,0-0.2-2.3,1-3.5
		c1.2-1.2,3.3-1.2,3.3-1.2h31.9l0,0v14.9l0,0l0,0H60c0,0-2.3,0.3-2.3-2.3c0-2.6,0-3.1,0-3.1s0.1-1.6-0.9-2.5c-0.9-0.9-3.1-1-3.1-1
		h-8.3h0v11.4l0,0h3.8l0,0V29v-0.1h1.3c0,0,3.3-0.2,3.3,2.5c0,2.8,0,6.8,0,6.8l0,0h11.5v0c0,0,0-3.1,0-4.7c0-1.2,1.1,0.2,1.1,0.2
		l2.7,4.4l0,0h4.3l0,0L68.9,31l0,0l3.6-4.3h0l-4,0h0l-2.2,2.7c0,0-1.1,1.4-1.1,0.1c0-1.3,0-11.2,0-11.2l0,0H26.4
		c0,0-1.8-0.1-3.5,1.6c-1.7,1.7-1.6,4.5-1.6,4.5v2.2h-8.8l0-14.9h64.9v47.4H12.6V28.8h8.8h0v9.3h0h3.8v0l0-9.3h4.3v4.4
		c0,0,0,5.1,6.2,5.1C41.8,38.4,41.9,32.3,41.9,32.3L41.9,32.3L41.9,32.3z M43.2,32.4c0,0-0.3,7.3-7.6,7.3c-7.3,0-7.5-6.5-7.5-6.5
		v-3.1h0h-1.7v9.3v0H20v-9.3h0h-6.1v27.8h62.2V13.1H13.9l0,12.3H20v-0.9c0,0-0.1-3.2,2-5.3c2.1-2.1,4.4-2.2,4.4-2.2h38.7l1.3,0
		l0,10.1v0l1.4-1.7l0,0h7.4l-4.8,5.7l0,0l5.1,8.4l0,0h-7.4l0,0l-1.8-2.9v0v2.9H52.4h0c0,0,0-6.7,0-8.1c0-1.4-2-1.2-2-1.2v9.3l0,0
		h-6.4h0V25.4h0h9.6c0,0,2.6-0.1,4,1.3c1.4,1.4,1.3,3.5,1.3,3.5s0,1.8,0,3.1c0,1.3,1,1,1,1V22h0H29.4c0,0-1.7-0.1-2.4,0.6
		c-0.7,0.7-0.6,1.8-0.6,1.8v0.9v0h8.3v0.1v6.8c0,0-0.1,1.4,0.9,1.4c1,0,0.9-1.4,0.9-1.4v-6.8l0-0.1h6.6h0V32.4L43.2,32.4L43.2,32.4
		L43.2,32.4z"/>
</g>
</svg>
