<?xml version="1.0" encoding="utf-8"?>
<!-- Generator: Adobe Illustrator 19.2.0, SVG Export Plug-In . SVG Version: 6.00 Build 0)  -->
<svg version="1.1"
	 id="svg2" inkscape:version="0.48.4 r9939" sodipodi:docname="New document 1" xmlns:cc="http://creativecommons.org/ns#" xmlns:dc="http://purl.org/dc/elements/1.1/" xmlns:inkscape="http://www.inkscape.org/namespaces/inkscape" xmlns:rdf="http://www.w3.org/1999/02/22-rdf-syntax-ns#" xmlns:sodipodi="http://sodipodi.sourceforge.net/DTD/sodipodi-0.dtd" xmlns:svg="http://www.w3.org/2000/svg"
	 xmlns="http://www.w3.org/2000/svg" xmlns:xlink="http://www.w3.org/1999/xlink" x="0px" y="0px" width="300px" height="249.4px"
	 viewBox="0 0 300 249.4" style="enable-background:new 0 0 300 249.4;" xml:space="preserve">
<style type="text/css">
	.st0{fill:#FFFFFF;}
</style>
<title  id="title3842">Hamburger (Menu) Icon</title>
<sodipodi:namedview  bordercolor="#666666" borderopacity="1.0" fit-margin-bottom="5" fit-margin-left="5" fit-margin-right="5" fit-margin-top="5" id="base" inkscape:current-layer="layer1" inkscape:cx="358.20459" inkscape:cy="473.54108" inkscape:document-units="px" inkscape:pageopacity="0.0" inkscape:pageshadow="2" inkscape:showpageshadow="false" inkscape:window-height="882" inkscape:window-maximized="0" inkscape:window-width="1378" inkscape:window-x="208" inkscape:window-y="58" inkscape:zoom="0.54" pagecolor="#ffffff" showborder="true" showgrid="false">
	</sodipodi:namedview>
<path class="st0" d="M283.6,65.8H16.5C7.3,65.8,0,58.4,0,49.3s7.3-16.4,16.4-16.4h267.1c9.1,0,16.4,7.3,16.4,16.4
	S292.6,65.8,283.6,65.8z"/>
<path class="st0" d="M283.6,216.5H16.5c-9.1,0-16.4-7.4-16.4-16.4s7.3-16.4,16.4-16.4h267.1c9.1,0,16.4,7.3,16.4,16.4
	S292.6,216.5,283.6,216.5z"/>
<path class="st0" d="M283.6,141.1H16.5c-9.1,0-16.4-7.4-16.4-16.4s7.3-16.4,16.4-16.4h267.1c9.1,0,16.4,7.3,16.4,16.4
	S292.6,141.1,283.6,141.1z"/>
</svg>
