<?xml version="1.0" encoding="utf-8"?>
<!-- Generator: Adobe Illustrator 22.0.0, SVG Export Plug-In . SVG Version: 6.00 Build 0)  -->
<svg version="1.0" id="Ebene_1" xmlns="http://www.w3.org/2000/svg" xmlns:xlink="http://www.w3.org/1999/xlink" x="0px" y="0px"
	 viewBox="0 0 1868 896" enable-background="new 0 0 1868 896" xml:space="preserve">
<path fill="none" stroke="#C8C8C8" stroke-width="3.7686" stroke-linecap="round" stroke-linejoin="round" stroke-miterlimit="10" stroke-dasharray="25.1238,25.1238" d="
	M1314.9,2.2v394.1"/>
<path fill="none" stroke="#C8C8C8" stroke-width="3.4486" stroke-linecap="round" stroke-linejoin="round" stroke-miterlimit="10" stroke-dasharray="22.9907,22.9907" d="
	M827.7,2.2v393.4c0,30.7-24.8,55.5-55.5,55.5H648.8"/>
<g>
	<g>
		<g>
			
				<linearGradient id="SVGID_2_" gradientUnits="userSpaceOnUse" x1="302.05" y1="511.5834" x2="302.05" y2="712.6132" gradientTransform="matrix(1 0 0 -1 0 1195.2756)">
				<stop  offset="0" style="stop-color:#6E788C"/>
				<stop  offset="1" style="stop-color:#C8C8C8"/>
			</linearGradient>
			<path id="SVGID_1_" fill="url(#SVGID_2_)" d="M253.3,484v120c0,39.9,15.7,66.9,41.3,78.9l0,0l56.2,32.4l0,0
				c-23.2-12.8-37.2-39.1-37.2-76.9V507.9c0-5.4,1.4-10.7,4-15.3l-58.7-31.2C255.3,468.3,253.3,476,253.3,484"/>
		</g>
	</g>
	<g>
		<g>
			
				<linearGradient id="SVGID_3_" gradientUnits="userSpaceOnUse" x1="554.451" y1="867.7753" x2="274.5721" y2="722.8632" gradientTransform="matrix(1 0 0 -1 0 1195.2756)">
				<stop  offset="0" style="stop-color:#6E788C"/>
				<stop  offset="1" style="stop-color:#C8C8C8"/>
			</linearGradient>
			<path id="SVGID_4_" fill="url(#SVGID_3_)" d="M506.9,309.7l-229,131.7c-8.4,4.8-14.9,11.8-19.2,20.1l58.7,31.2
				c2.6-4.7,6.7-8.7,11.5-11.6l243.4-140.4c3.1-1.7,6.3-2.3,9.4-1.7l-51.3-29.2c-3.7-2.1-7.7-3.1-11.8-3.1
				C514.8,306.5,510.6,307.5,506.9,309.7"/>
		</g>
	</g>
	<g>
		<g>
			
				<linearGradient id="SVGID_5_" gradientUnits="userSpaceOnUse" x1="313.6" y1="663.8638" x2="594" y2="663.8638" gradientTransform="matrix(1 0 0 -1 0 1195.2756)">
				<stop  offset="0" style="stop-color:#6ECA44"/>
				<stop  offset="1" style="stop-color:#86D776"/>
			</linearGradient>
			<path id="SVGID_7_" fill="url(#SVGID_5_)" d="M572.5,340.6L329.1,481c-4.8,2.8-8.9,6.9-11.5,11.6c-2.6,4.6-4,9.9-4,15.3v130.5
				c0,37.7,14.1,64,37.2,76.9c27.2,14.9,66.9,11.4,111.2-14.1c82-47.4,132-142.4,132-224.4V353c0-7.5-5.5-13.1-12.1-14.1
				c-0.8-0.1-1.5-0.2-2.3-0.2C577.2,338.7,574.8,339.2,572.5,340.6"/>
		</g>
	</g>
	<g>
		<g>
			
				<linearGradient id="SVGID_6_" gradientUnits="userSpaceOnUse" x1="497.0808" y1="629.9847" x2="426.4287" y2="667.947" gradientTransform="matrix(1 0 0 -1 0 1195.2756)">
				<stop  offset="0" style="stop-color:#167E3D"/>
				<stop  offset="1" style="stop-color:#084823"/>
			</linearGradient>
			<path id="SVGID_10_" fill="url(#SVGID_6_)" d="M463.9,481.3c-24.3,14-44,45.1-44,69.4c0,14.4,6.9,23.2,17.6,25.1V611
				c0,14.6,11.8,19.5,26.4,11.2s26.4-27,26.4-41.6v-35.2c10.7-14.1,17.6-30.9,17.6-45.3c0-16.3-8.9-25.4-22.1-25.4
				C479.5,474.5,472,476.7,463.9,481.3"/>
		</g>
	</g>
	<g>
		<g>
			
				<linearGradient id="SVGID_8_" gradientUnits="userSpaceOnUse" x1="299.8" y1="887.0756" x2="536.2112" y2="887.0756" gradientTransform="matrix(1 0 0 -1 0 1195.2756)">
				<stop  offset="0" style="stop-color:#6E788C"/>
				<stop  offset="1" style="stop-color:#C8C8C8"/>
			</linearGradient>
			<path id="SVGID_13_" fill="url(#SVGID_8_)" d="M418,166.2c-43.8,20-66.6,45.4-87.9,79.1c-21.4,33.8-30.3,74.7-30.3,107.4v90.1
				c0,3.7,2.4,7.2,7.2,10c2.5,1.5,5.4,2.5,8.5,3.2c2.6,0.6,5.5,0.9,8.4,0.9h0.1c6.3,0,12.8-1.4,17.6-4.1c4.9-2.9,7.4-6.6,7.2-10.2
				c0-0.1,0-0.1,0-0.2v-118c0-19.1,7.7-40.8,20.2-60.6s29.8-37.5,48.9-48.5c16.4-9.5,31.5-12.4,43.5-9.8l0,0
				c6.4,1.5,12,4.7,16.2,9.4c6.1,6.8,9.5,16.8,9.5,29.5v90.1c0,3.7,2.4,7.2,7.2,10c2.5,1.5,5.4,2.5,8.5,3.2c2.6,0.6,5.5,0.9,8.4,0.9
				c6.4,0.1,12.9-1.3,17.8-4.1s7.4-6.6,7.2-10.2l0,0v-95.8c0-25.3-12.9-46.2-31.4-60.1c-16-12.1-36.2-18.9-55.8-18.9
				C438.3,159.8,427.7,161.9,418,166.2"/>
		</g>
	</g>
	<g>
		<g>
			
				<linearGradient id="SVGID_9_" gradientUnits="userSpaceOnUse" x1="477.8" y1="1003.7108" x2="477.8" y2="880.5754" gradientTransform="matrix(1 0 0 -1 0 1195.2756)">
				<stop  offset="0" style="stop-color:#6E788C"/>
				<stop  offset="1" style="stop-color:#C8C8C8"/>
			</linearGradient>
			<path id="SVGID_16_" fill="url(#SVGID_9_)" d="M477.6,215c6.1,6.8,9.5,16.8,9.5,29.5v90.1c0,3.7,2.4,7.2,7.2,10v-105
				c0-18.4-14.6-33.6-33-34.3C467.9,207,473.4,210.3,477.6,215"/>
		</g>
	</g>
</g>
<g>
	<polygon fill="#004C92" points="1143,437.6 1143,781.5 1486.9,781.5 1486.9,437.6 	"/>
	<path fill="#FFFFFF" d="M1303.1,561v-21.4l0,0h-15.3V561c0,0,0,10.3-8.4,10.3S1271,561,1271,561v-21.4l0,0h-31.7v-5
		c0,0-0.8-8.8,3.8-13.4c4.6-4.6,12.6-4.6,12.6-4.6h121.9l0,0v56.9l0,0l0,0h-5.3c0,0-8.8,1.1-8.8-8.8c0-9.9,0-11.8,0-11.8
		s0.4-6.1-3.4-9.6c-3.4-3.4-11.8-3.8-11.8-3.8h-31.7l0,0v43.6l0,0h14.5l0,0v-34.8V548h5c0,0,12.6-0.8,12.6,9.6c0,10.7,0,26,0,26l0,0
		h43.9l0,0c0,0,0-11.8,0-18c0-4.6,4.2,0.8,4.2,0.8l10.3,16.8l0,0h16.4l0,0l-17.2-27.1l0,0l13.8-16.4l0,0h-15.3l0,0l-8.4,10.3
		c0,0-4.2,5.3-4.2,0.4c0-5,0-42.8,0-42.8l0,0h-148.3c0,0-6.9-0.4-13.4,6.1c-6.5,6.5-6.1,17.2-6.1,17.2v8.4h-33.6v-56.9h248v181.1
		h-247.6V547.7h33.6l0,0v35.5l0,0h14.5l0,0v-35.5h16.4v16.8c0,0,0,19.5,23.7,19.5C1302.8,584.3,1303.1,561,1303.1,561L1303.1,561
		L1303.1,561z M1308.1,561.4c0,0-1.1,27.9-29,27.9s-28.7-24.8-28.7-24.8v-11.8l0,0h-6.5v35.5l0,0h-24.5v-35.5l0,0h-23.3v106.2h237.7
		V487.7h-237.7v47h23.3v-3.4c0,0-0.4-12.2,7.6-20.3c8-8,16.8-8.4,16.8-8.4h148h5v38.6l0,0l5.3-6.5l0,0h28.3l-18.3,21.8l0,0
		l19.5,32.1l0,0h-28.3l0,0l-6.9-11.1l0,0v11.1h-53.1l0,0c0,0,0-25.6,0-31s-7.6-4.6-7.6-4.6v35.5l0,0h-24.5l0,0v-53.9l0,0h36.7
		c0,0,9.9-0.4,15.3,5s5,13.4,5,13.4s0,6.9,0,11.8c0,5,3.8,3.8,3.8,3.8v-47l0,0h-116.5c0,0-6.5-0.4-9.2,2.3s-2.3,6.9-2.3,6.9v3.4l0,0
		h31.7v0.4v26c0,0-0.4,5.3,3.4,5.3c3.8,0,3.4-5.3,3.4-5.3v-26v-0.4h25.2l0,0v27.1h0.4V561.4L1308.1,561.4z"/>
</g>
<g>
	<g>
		
			<linearGradient id="SVGID_11_" gradientUnits="userSpaceOnUse" x1="616.5714" y1="439.6652" x2="744.6373" y2="439.6652" gradientTransform="matrix(1 0 0 1 25 173)">
			<stop  offset="0" style="stop-color:#6ECA44"/>
			<stop  offset="1" style="stop-color:#86D776"/>
		</linearGradient>
		<path id="SVGID_72_" fill="url(#SVGID_11_)" d="M661.8,573.1c-3.8,2.1-7.2,4.8-10.3,7.5c-0.3,0.3-0.7,0.7-1,1
			c-10.3,9.3-10.3,21.9-6.9,33.6c6.2,21.6,23.7,38.1,45.3,43.9c15.1,4.1,35,5.1,56.9-3.8c9.9-4.1,16.1-9.3,19.9-15.4
			c14.1-23.7-12.7-57.9-32.6-68.2l-1-0.3c-10.6-5.5-22.3-8.2-33.9-8.2C685.8,563.1,673.1,566.5,661.8,573.1"/>
	</g>
</g>
<g>
	<g>
		
			<linearGradient id="SVGID_12_" gradientUnits="userSpaceOnUse" x1="737.2582" y1="473.05" x2="741.9324" y2="473.05" gradientTransform="matrix(1 0 0 1 25 173)">
			<stop  offset="0" style="stop-color:#003366"/>
			<stop  offset="1" style="stop-color:#0066BA"/>
		</linearGradient>
		<path id="SVGID_75_" fill="url(#SVGID_12_)" d="M762.3,624.8v42.5c0,1.4,1,2.4,2.4,2.4s2.4-1,2.4-2.4v-42.5c0-1.4-1-2.4-2.4-2.4
			C763.3,622.8,762.3,623.8,762.3,624.8"/>
	</g>
</g>
<g>
	<g>
		
			<linearGradient id="SVGID_14_" gradientUnits="userSpaceOnUse" x1="706.9427" y1="457.3" x2="753.9272" y2="457.3" gradientTransform="matrix(1 0 0 1 25 173)">
			<stop  offset="0" style="stop-color:#167E3D"/>
			<stop  offset="1" style="stop-color:#084823"/>
		</linearGradient>
		<path id="SVGID_78_" fill="url(#SVGID_14_)" d="M732.1,630.3c0,13,10.6,23.7,23.7,23.7c13,0,23.7-10.6,23.7-23.7
			c0-13-10.6-23.7-23.7-23.7C742.7,606.7,732.1,617.6,732.1,630.3"/>
	</g>
</g>
<g>
	<g>
		
			<linearGradient id="SVGID_15_" gradientUnits="userSpaceOnUse" x1="671.1862" y1="473.1474" x2="640.2738" y2="512.1741" gradientTransform="matrix(1 0 0 1 25 173)">
			<stop  offset="0" style="stop-color:#003366"/>
			<stop  offset="1" style="stop-color:#0066BA"/>
		</linearGradient>
		<path id="SVGID_81_" fill="url(#SVGID_15_)" d="M702.3,644l-27.8,13.7c-0.7,0.3-1.4,1.4-1.4,2.1v24.7c0,1.4,1,2.4,2.4,2.4
			s2.4-1,2.4-2.4v-23.3l26.4-13c1-0.7,1.7-2.1,1-3.1c-0.3-0.7-1.4-1.4-2.1-1.4C702.9,643.7,702.6,644,702.3,644"/>
	</g>
</g>
<g>
	<g>
		
			<linearGradient id="SVGID_17_" gradientUnits="userSpaceOnUse" x1="649.3582" y1="457.8342" x2="618.4456" y2="496.8608" gradientTransform="matrix(1 0 0 1 25 173)">
			<stop  offset="0" style="stop-color:#003366"/>
			<stop  offset="1" style="stop-color:#0066BA"/>
		</linearGradient>
		<path id="SVGID_84_" fill="url(#SVGID_17_)" d="M672.1,632.4l-21.3,10.3c-0.7,0.3-1.4,1.4-1.4,2.1v28.8c0,1.4,1,2.4,2.4,2.4
			s2.4-1,2.4-2.4v-27.4l19.9-9.6c1-0.7,1.7-2.1,1-3.1c-0.3-0.7-1.4-1.4-2.1-1.4C672.8,632,672.4,632,672.1,632.4"/>
	</g>
</g>
<g>
	<g>
		
			<linearGradient id="SVGID_18_" gradientUnits="userSpaceOnUse" x1="630.5117" y1="442.5162" x2="599.5993" y2="481.5431" gradientTransform="matrix(1 0 0 1 25 173)">
			<stop  offset="0" style="stop-color:#003366"/>
			<stop  offset="1" style="stop-color:#0066BA"/>
		</linearGradient>
		<path id="SVGID_87_" fill="url(#SVGID_18_)" d="M653.2,612.5l-21.3,10.3c-0.7,0.3-1.4,1.4-1.4,2.1V663c0,1.4,1,2.4,2.4,2.4
			s2.4-1,2.4-2.4v-36.7l19.9-9.6c1-0.7,1.7-2.1,1-3.1c-0.3-0.7-1.4-1.4-2.1-1.4C653.9,612.1,653.6,612.1,653.2,612.5"/>
	</g>
</g>
<g>
	<g>
		
			<linearGradient id="SVGID_19_" gradientUnits="userSpaceOnUse" x1="2567.3694" y1="542.7805" x2="2649.6553" y2="542.7805" gradientTransform="matrix(-1 0 0 1 3064.5591 173)">
			<stop  offset="0" style="stop-color:#6E788C"/>
			<stop  offset="1" style="stop-color:#C8C8C8"/>
		</linearGradient>
		<path id="SVGID_90_" fill="url(#SVGID_19_)" d="M484,690.1c2.6,1.3,4.7,3,6.8,5.1c0.4,0.4,0.4,0.4,0.9,0.9
			c6.4,6,6.8,14.1,4.7,21.7c-3.8,14.1-15.3,24.7-29,28.1c-9.8,2.6-22.6,3.4-36.6-2.6c-6.4-2.6-10.2-6-12.8-9.8
			c-8.9-14.9,8.1-37,20.9-43.9l0.4-0.4c6.8-3.4,14.5-5.5,21.7-5.5C468.7,683.7,476.8,685.8,484,690.1"/>
	</g>
</g>
<g>
	<g>
		
			<linearGradient id="SVGID_20_" gradientUnits="userSpaceOnUse" x1="2645" y1="563.95" x2="2648.0056" y2="563.95" gradientTransform="matrix(-1 0 0 1 3064.5591 173)">
			<stop  offset="0" style="stop-color:#003366"/>
			<stop  offset="1" style="stop-color:#0066BA"/>
		</linearGradient>
		<path id="SVGID_93_" fill="url(#SVGID_20_)" d="M419.8,723.3v27.3c0,0.9-0.9,1.7-1.7,1.7s-1.7-0.9-1.7-1.7v-27.3
			c0-0.9,0.9-1.7,1.7-1.7C418.9,722,419.8,722.4,419.8,723.3"/>
	</g>
</g>
<g>
	<g>
		
			<linearGradient id="SVGID_21_" gradientUnits="userSpaceOnUse" x1="2625.5103" y1="553.7" x2="2655.7192" y2="553.7" gradientTransform="matrix(-1 0 0 1 3064.5591 173)">
			<stop  offset="0" style="stop-color:#6E788C"/>
			<stop  offset="1" style="stop-color:#C8C8C8"/>
		</linearGradient>
		<path id="SVGID_96_" fill="url(#SVGID_21_)" d="M438.9,726.7c0,8.5-6.8,14.9-14.9,14.9c-8.5,0-14.9-6.8-14.9-14.9
			c0-8.1,6.8-14.9,14.9-14.9S438.9,718.6,438.9,726.7"/>
	</g>
</g>
<g>
	<g>
		
			<linearGradient id="SVGID_22_" gradientUnits="userSpaceOnUse" x1="2602.4607" y1="563.8824" x2="2582.5854" y2="588.9752" gradientTransform="matrix(-1 0 0 1 3064.5591 173)">
			<stop  offset="0" style="stop-color:#003366"/>
			<stop  offset="1" style="stop-color:#0066BA"/>
		</linearGradient>
		<path id="SVGID_99_" fill="url(#SVGID_22_)" d="M458.1,735.6l17.9,8.5c0.4,0.4,0.9,0.9,0.9,1.3v15.8c0,0.9-0.9,1.7-1.7,1.7
			c-0.9,0-1.7-0.9-1.7-1.7v-14.9l-17-8.5c-0.9-0.4-0.9-1.3-0.9-2.1c0.4-0.4,0.9-0.9,1.3-0.9C457.6,735.6,458.1,735.6,458.1,735.6"/>
	</g>
</g>
<g>
	<g>
		
			<linearGradient id="SVGID_23_" gradientUnits="userSpaceOnUse" x1="2588.6204" y1="554.1904" x2="2568.7446" y2="579.2828" gradientTransform="matrix(-1 0 0 1 3064.5591 173)">
			<stop  offset="0" style="stop-color:#003366"/>
			<stop  offset="1" style="stop-color:#0066BA"/>
		</linearGradient>
		<path id="SVGID_102_" fill="url(#SVGID_23_)" d="M477.7,728l13.6,6.8c0.4,0.4,0.9,0.9,0.9,1.3v18.7c0,0.9-0.9,1.7-1.7,1.7
			c-0.9,0-1.7-0.9-1.7-1.7v-17.9l-12.8-6.4c-0.9-0.4-0.9-1.3-0.9-2.1c0.4-0.4,0.9-0.9,1.3-0.9C477.2,728,477.2,728,477.7,728"/>
	</g>
</g>
<g>
	<g>
		
			<linearGradient id="SVGID_24_" gradientUnits="userSpaceOnUse" x1="2576.6506" y1="544.459" x2="2556.7751" y2="569.5513" gradientTransform="matrix(-1 0 0 1 3064.5591 173)">
			<stop  offset="0" style="stop-color:#003366"/>
			<stop  offset="1" style="stop-color:#0066BA"/>
		</linearGradient>
		<path id="SVGID_105_" fill="url(#SVGID_24_)" d="M489.6,715.2l13.6,6.8c0.4,0.4,0.9,0.9,0.9,1.3V748c0,0.9-0.9,1.7-1.7,1.7
			s-1.7-0.9-1.7-1.7v-23.8l-12.8-6.4c-0.9-0.4-0.9-1.3-0.9-2.1c0.4-0.4,0.9-0.9,1.3-0.9C489.2,715.2,489.6,715.2,489.6,715.2"/>
	</g>
</g>
</svg>
