<?xml version="1.0" encoding="utf-8"?>
<!-- Generator: Adobe Illustrator 22.0.0, SVG Export Plug-In . SVG Version: 6.00 Build 0)  -->
<svg version="1.0" id="Ebene_1" xmlns="http://www.w3.org/2000/svg" xmlns:xlink="http://www.w3.org/1999/xlink" x="0px" y="0px"
	 viewBox="0 0 380 600" enable-background="new 0 0 380 600" xml:space="preserve">
<g>
	
		<path fill="none" stroke="#C8C8C8" stroke-linecap="round" stroke-linejoin="round" stroke-miterlimit="10" stroke-dasharray="8,8" d="
		M95.1,422.8v-63.7c0-6.5,5.3-11.8,11.8-11.8H380"/>
</g>
<g>
	<g>
		<g>
			
				<linearGradient id="SVGID_2_" gradientUnits="userSpaceOnUse" x1="6.85" y1="32.2232" x2="6.85" y2="96.1624" gradientTransform="matrix(1 0 0 -1 0 599.2756)">
				<stop  offset="0" style="stop-color:#6E788C"/>
				<stop  offset="1" style="stop-color:#C8C8C8"/>
			</linearGradient>
			<path id="SVGID_1_" fill="url(#SVGID_2_)" d="M5,503.4v66.8c0,0.7,0.4,1.3,0.9,1.7l0,0H6l2.7,1.6c-0.5-0.3-0.8-0.9-0.8-1.5v-0.1
				l0,0v-66.8c0-0.3,0.1-0.6,0.2-0.9l-2.9-1.7C5.1,502.8,5,503.1,5,503.4"/>
		</g>
	</g>
	<g>
		<g>
			
				<linearGradient id="SVGID_3_" gradientUnits="userSpaceOnUse" x1="155.1469" y1="181.6653" x2="31.1834" y2="110.1629" gradientTransform="matrix(1 0 0 -1 0 599.2756)">
				<stop  offset="0" style="stop-color:#6E788C"/>
				<stop  offset="1" style="stop-color:#C8C8C8"/>
			</linearGradient>
			<path id="SVGID_4_" fill="url(#SVGID_3_)" d="M214.4,381.2L6,501.7c-0.3,0.2-0.6,0.5-0.8,0.8l2.9,1.7c0.2-0.3,0.4-0.6,0.8-0.8
				l208.4-120.5l0,0l0,0l0,0c0.6-0.3,1.3-0.3,1.9,0l-2.8-1.6l0,0l0,0c-0.3-0.2-0.6-0.2-0.9-0.2C215,381,214.7,381,214.4,381.2"/>
		</g>
	</g>
	<g>
		<g>
			
				<linearGradient id="SVGID_5_" gradientUnits="userSpaceOnUse" x1="7.9" y1="120.9883" x2="220.2" y2="120.9883" gradientTransform="matrix(1 0 0 -1 0 599.2756)">
				<stop  offset="0" style="stop-color:#6E788C"/>
				<stop  offset="1" style="stop-color:#C8C8C8"/>
			</linearGradient>
			<path id="SVGID_7_" fill="url(#SVGID_5_)" d="M217.3,382.9L217.3,382.9L217.3,382.9L8.9,503.4c-0.3,0.2-0.6,0.5-0.8,0.8
				c-0.1,0.3-0.2,0.6-0.2,0.9v66.8c0,0,0,0,0,0.1c0,0.7,0.4,1.2,0.8,1.5l0.3,0.2c0.5,0.3,1.2,0.3,1.8-0.1l208.4-120.5
				c0.6-0.4,1-1,1-1.7v-66.8c0-0.8-0.4-1.4-1-1.7h-0.1c-0.3-0.1-0.6-0.2-0.9-0.2C217.9,382.6,217.6,382.7,217.3,382.9"/>
		</g>
	</g>
	<g>
		<g>
			<g>
				
					<linearGradient id="SVGID_6_" gradientUnits="userSpaceOnUse" x1="44.6148" y1="40.7756" x2="48.3784" y2="40.7756" gradientTransform="matrix(1 0 0 -1 0 599.2756)">
					<stop  offset="0" style="stop-color:#003366"/>
					<stop  offset="1" style="stop-color:#0066BA"/>
				</linearGradient>
				<path id="SVGID_10_" fill="url(#SVGID_6_)" d="M44.6,523.9v66.8c0,0.7,0.4,1.3,0.9,1.7l0,0h0.1l2.7,1.6
					c-0.5-0.3-0.8-0.9-0.8-1.5v-0.1l0,0v-66.8c0-0.3,0.1-0.6,0.2-0.9l-2.9-1.7C44.7,523.2,44.6,523.5,44.6,523.9"/>
			</g>
		</g>
		<g>
			<g>
				
					<linearGradient id="SVGID_8_" gradientUnits="userSpaceOnUse" x1="44.8" y1="136.1801" x2="258.8" y2="136.1801" gradientTransform="matrix(1 0 0 -1 0 599.2756)">
					<stop  offset="0" style="stop-color:#003366"/>
					<stop  offset="1" style="stop-color:#0066BA"/>
				</linearGradient>
				<path id="SVGID_13_" fill="url(#SVGID_8_)" d="M254,401.7L45.6,522.2c-0.3,0.2-0.6,0.5-0.8,0.8l2.9,1.7c0.2-0.3,0.4-0.6,0.8-0.8
					l208.4-120.5l0,0l0,0l0,0c0.6-0.3,1.3-0.3,1.9,0l-2.8-1.6l0,0l0,0c-0.3-0.2-0.6-0.2-0.9-0.2C254.6,401.4,254.3,401.5,254,401.7"
					/>
			</g>
		</g>
		<g>
			<g>
				
					<linearGradient id="SVGID_9_" gradientUnits="userSpaceOnUse" x1="47.5" y1="100.4883" x2="259.8" y2="100.4883" gradientTransform="matrix(1 0 0 -1 0 599.2756)">
					<stop  offset="0" style="stop-color:#003366"/>
					<stop  offset="1" style="stop-color:#0066BA"/>
				</linearGradient>
				<path id="SVGID_16_" fill="url(#SVGID_9_)" d="M256.9,403.4L256.9,403.4L256.9,403.4L48.5,523.9c-0.3,0.2-0.6,0.5-0.8,0.8
					c-0.1,0.3-0.2,0.6-0.2,0.9v66.8c0,0,0,0,0,0.1c0,0.7,0.4,1.2,0.8,1.5l0.3,0.2c0.5,0.3,1.2,0.3,1.8-0.1l208.4-120.5
					c0.6-0.4,1-1,1-1.7v-66.8c0-0.8-0.4-1.4-1-1.7c0,0,0,0-0.1,0c-0.3-0.1-0.6-0.2-0.9-0.2C257.6,403.1,257.2,403.2,256.9,403.4"/>
			</g>
		</g>
		<path fill="#FFFFFF" d="M98.7,531.1c0,5.6-4.6,12.9-10.2,16.1c-5.6,3.3-10.2,1.3-10.2-4.3s4.6-12.9,10.2-16.1
			C94.2,523.5,98.7,525.5,98.7,531.1"/>
		<path fill="#FFFFFF" d="M132.4,512.7c0,5.6-4.6,12.9-10.2,16.1c-5.6,3.3-10.2,1.3-10.2-4.3s4.6-12.9,10.2-16.1
			C127.8,505.1,132.4,507,132.4,512.7"/>
		<path fill="#FFFFFF" d="M166,493.3c0,5.6-4.6,12.9-10.2,16.1c-5.6,3.3-10.2,1.3-10.2-4.3c0-5.6,4.6-12.9,10.2-16.1
			C161.4,485.7,166,487.7,166,493.3"/>
		<path fill="#FFFFFF" d="M199.6,473.8c0,5.6-4.6,12.9-10.2,16.1c-5.6,3.3-10.2,1.3-10.2-4.3s4.6-12.9,10.2-16.1
			C195,466.2,199.6,468.2,199.6,473.8"/>
		<path fill="#FFFFFF" d="M233.2,454.5c0,5.6-4.6,12.9-10.2,16.1c-5.6,3.3-10.2,1.3-10.2-4.3s4.6-12.9,10.2-16.1
			C228.7,446.9,233.2,448.9,233.2,454.5"/>
		<g>
			<g>
				
					<linearGradient id="SVGID_11_" gradientUnits="userSpaceOnUse" x1="213.55" y1="66.698" x2="213.55" y2="110.303" gradientTransform="matrix(1 0 0 -1 0 599.2756)">
					<stop  offset="0" style="stop-color:#6ECA44"/>
					<stop  offset="1" style="stop-color:#86D776"/>
				</linearGradient>
				<path id="SVGID_19_" fill="url(#SVGID_11_)" d="M211.8,486.6v44.2c0,0.5,0.3,0.9,0.6,1.1l0,0c0,0,0,0,0.1,0l2.8,1.6
					c-0.3-0.2-0.5-0.6-0.5-1v-44.2c0-0.3,0.1-0.5,0.2-0.7l-3-1.6C211.9,486.2,211.8,486.4,211.8,486.6"/>
			</g>
		</g>
		<g>
			<g>
				
					<linearGradient id="SVGID_12_" gradientUnits="userSpaceOnUse" x1="278.8182" y1="150.4391" x2="213.0236" y2="112.2525" gradientTransform="matrix(1 0 0 -1 0 599.2756)">
					<stop  offset="0" style="stop-color:#6ECA44"/>
					<stop  offset="1" style="stop-color:#86D776"/>
				</linearGradient>
				<path id="SVGID_22_" fill="url(#SVGID_12_)" d="M282,445l-69.6,40.5c-0.2,0.1-0.4,0.3-0.5,0.5l3,1.6c0.1-0.2,0.3-0.3,0.4-0.4
					l69.6-40.5c0.4-0.2,0.8-0.2,1.2-0.1l-2.8-1.6l0,0l0,0l0,0c-0.2-0.1-0.4-0.2-0.6-0.2C282.4,444.8,282.2,444.9,282,445"/>
			</g>
		</g>
		<g>
			<g>
				
					<linearGradient id="SVGID_14_" gradientUnits="userSpaceOnUse" x1="214.8" y1="109.1427" x2="286.9" y2="109.1427" gradientTransform="matrix(1 0 0 -1 0 599.2756)">
					<stop  offset="0" style="stop-color:#6ECA44"/>
					<stop  offset="1" style="stop-color:#86D776"/>
				</linearGradient>
				<path id="SVGID_25_" fill="url(#SVGID_14_)" d="M285,446.7l-69.6,40.5c-0.2,0.1-0.3,0.2-0.4,0.4c-0.1,0.2-0.2,0.4-0.2,0.7v44.2
					c0,0.4,0.2,0.8,0.5,1l0.3,0.2l0,0c0.4,0.1,0.8,0.1,1.1-0.1l69.6-40.5c0.4-0.2,0.6-0.7,0.6-1.1v-44.2c0-0.6-0.3-1-0.8-1.2
					c-0.2-0.1-0.3-0.1-0.5-0.1C285.4,446.5,285.2,446.6,285,446.7"/>
			</g>
		</g>
		
			<linearGradient id="SVGID_15_" gradientUnits="userSpaceOnUse" x1="277.9" y1="114.8456" x2="277.9" y2="77.7646" gradientTransform="matrix(1 0 0 -1 0 599.2756)">
			<stop  offset="0" style="stop-color:#969696"/>
			<stop  offset="1" style="stop-color:#C8C8C8"/>
		</linearGradient>
		<path fill="url(#SVGID_15_)" d="M296.1,491.9l-1.8-0.9c-0.1,0-0.1-0.1-0.2-0.1l-31.9-9c-1-0.3-2.5,1.3-2.5,2.6v40.7
			c0,0.5,0.2,0.8,0.5,0.9l0,0l5.2,1.4l-0.3-1.4c0.2-0.2,0.5-0.5,0.6-0.8l1.6-26.5c0.3-0.5,3.1-5.4,3.5-5.6l22.2,1
			c0.8-0.5,1.4-1.4,1.5-2.1C295.2,492.1,296.1,491.9,296.1,491.9"/>
		<g>
			<g>
				
					<linearGradient id="SVGID_17_" gradientUnits="userSpaceOnUse" x1="264.7" y1="93.6805" x2="299.6883" y2="93.6805" gradientTransform="matrix(1 0 0 -1 0 599.2756)">
					<stop  offset="0" style="stop-color:#969696"/>
					<stop  offset="1" style="stop-color:#C8C8C8"/>
				</linearGradient>
				<path id="SVGID_29_" fill="url(#SVGID_17_)" d="M264.7,486.1v40.7c0,1.4,1.7,1.1,2.7-0.5l11.1-18.7c0.3-0.5,0.7-0.9,1.1-1.2
					l18.5-10.7c1.4-0.8,2.1-3,1-3.3l-31.9-8.9c-0.1,0-0.2,0-0.2,0C266,483.4,264.7,484.9,264.7,486.1"/>
			</g>
		</g>
	</g>
</g>
<path fill="none" stroke="#C8C8C8" stroke-linecap="round" stroke-linejoin="round" stroke-miterlimit="10" stroke-dasharray="8,8" d="
	M48.4,0.9v180.5c0,8.5,6.9,15.4,15.4,15.4h34.3"/>
<g>
	<g>
		<g>
			<path id="SVGID_37_" fill="#EBEBEB" d="M173.6,111.2l-85.6,49.5c-2.2,1.3-2.2,3.3,0,4.6l128.5,74.2c2.2,1.3,5.8,1.3,8,0L310,190
				c2.2-1.3,2.2-3.3,0-4.6l-128.5-74.2c-1.1-0.6-2.5-1-4-1C176.1,110.2,174.7,110.5,173.6,111.2"/>
		</g>
	</g>
	<g>
		<g>
			
				<linearGradient id="SVGID_18_" gradientUnits="userSpaceOnUse" x1="103.1998" y1="-132.5314" x2="220.034" y2="-156.1266" gradientTransform="matrix(1 0 0 1 0 300)">
				<stop  offset="0" style="stop-color:#003366"/>
				<stop  offset="1" style="stop-color:#0066BA"/>
			</linearGradient>
			<path id="SVGID_39_" fill="url(#SVGID_18_)" d="M104.6,164.2c0,0.1,0,0.2,0,0.4c-0.1,0.2-0.1,0.4-0.3,0.6
				c-0.1,0.2-0.3,0.4-0.4,0.7c-0.2,0.2-0.3,0.4-0.5,0.5l1.6,1c0.2-0.1,0.4-0.3,0.6-0.4s0.3-0.3,0.5-0.5s0.3-0.4,0.3-0.5
				c0.1-0.2,0.1-0.3,0.1-0.4l4,2.3l-2.2,1.2l1.6,0.9l6.2-3.6l-1.6-0.9l-1.9,1.1l-5.9-3.4L104.6,164.2z"/>
		</g>
	</g>
	<g>
		<g>
			
				<linearGradient id="SVGID_20_" gradientUnits="userSpaceOnUse" x1="102.248" y1="-137.2443" x2="219.0822" y2="-160.8395" gradientTransform="matrix(1 0 0 1 0 300)">
				<stop  offset="0" style="stop-color:#003366"/>
				<stop  offset="1" style="stop-color:#0066BA"/>
			</linearGradient>
			<path id="SVGID_42_" fill="url(#SVGID_20_)" d="M121.3,160.8c-0.4,0-0.8-0.1-1.1-0.2c-0.4-0.1-0.7-0.3-1.1-0.5
				c-0.3-0.2-0.6-0.4-0.8-0.6c-0.2-0.2-0.3-0.4-0.3-0.7c0-0.2,0-0.4,0.1-0.6c0.1-0.2,0.3-0.4,0.6-0.5s0.6-0.3,0.9-0.3
				c0.3-0.1,0.7-0.1,1.1-0.1c0.4,0,0.8,0.1,1.1,0.2c0.4,0.1,0.8,0.3,1.1,0.5s0.6,0.4,0.8,0.6c0.2,0.2,0.3,0.4,0.3,0.7
				c0,0.2,0,0.4-0.1,0.6c-0.1,0.2-0.3,0.4-0.6,0.5c-0.3,0.2-0.6,0.3-1,0.3c-0.3,0.1-0.5,0.1-0.8,0.1
				C121.5,160.8,121.4,160.8,121.3,160.8 M118.8,156c-0.7,0.2-1.3,0.4-1.9,0.7s-1,0.7-1.3,1.1c-0.3,0.4-0.4,0.8-0.4,1.2
				c0,0.4,0.2,0.8,0.4,1.2c0.3,0.4,0.7,0.8,1.3,1.1s1.2,0.6,1.9,0.7c0.7,0.2,1.4,0.3,2.1,0.3s1.4-0.1,2.1-0.3
				c0.7-0.2,1.3-0.4,1.9-0.7s1-0.7,1.3-1.1c0.3-0.4,0.4-0.8,0.4-1.2c0-0.4-0.2-0.8-0.4-1.2c-0.3-0.4-0.7-0.8-1.3-1.1
				s-1.2-0.6-1.9-0.7c-0.7-0.2-1.4-0.3-2.1-0.3c0,0,0,0,0,0C120.2,155.7,119.5,155.8,118.8,156"/>
		</g>
	</g>
	<g>
		<g>
			
				<linearGradient id="SVGID_21_" gradientUnits="userSpaceOnUse" x1="101.4289" y1="-141.3004" x2="218.263" y2="-164.8956" gradientTransform="matrix(1 0 0 1 0 300)">
				<stop  offset="0" style="stop-color:#003366"/>
				<stop  offset="1" style="stop-color:#0066BA"/>
			</linearGradient>
			<path id="SVGID_45_" fill="url(#SVGID_21_)" d="M128.8,150.2c0,0.1,0,0.2,0,0.4c-0.1,0.2-0.1,0.4-0.3,0.6
				c-0.1,0.2-0.3,0.4-0.4,0.7c-0.2,0.2-0.3,0.4-0.5,0.5l1.6,1c0.2-0.1,0.4-0.3,0.6-0.4c0.2-0.2,0.3-0.3,0.5-0.5
				c0.1-0.2,0.3-0.4,0.3-0.5c0.1-0.2,0.1-0.3,0.1-0.4l4,2.3l-2.2,1.2l1.6,0.9l6.2-3.6l-1.6-0.9l-1.9,1.1l-5.9-3.4L128.8,150.2z"/>
		</g>
	</g>
	<g>
		<g>
			
				<linearGradient id="SVGID_23_" gradientUnits="userSpaceOnUse" x1="100.6184" y1="-145.3138" x2="217.4525" y2="-168.9089" gradientTransform="matrix(1 0 0 1 0 300)">
				<stop  offset="0" style="stop-color:#003366"/>
				<stop  offset="1" style="stop-color:#0066BA"/>
			</linearGradient>
			<path id="SVGID_48_" fill="url(#SVGID_23_)" d="M140,143.8c0,0.1,0,0.2,0,0.4c-0.1,0.2-0.1,0.4-0.3,0.6c-0.1,0.2-0.3,0.4-0.4,0.7
				c-0.2,0.2-0.3,0.4-0.5,0.5l1.6,1c0.2-0.1,0.4-0.3,0.6-0.4c0.2-0.2,0.3-0.3,0.5-0.5c0.1-0.2,0.3-0.4,0.3-0.5
				c0.1-0.2,0.1-0.3,0.1-0.4l4,2.3l-2.2,1.2l1.6,0.9l6.2-3.6l-1.6-0.9L148,146l-5.9-3.4L140,143.8z"/>
		</g>
	</g>
	<g>
		<g>
			
				<linearGradient id="SVGID_24_" gradientUnits="userSpaceOnUse" x1="99.6666" y1="-150.0266" x2="216.5008" y2="-173.6218" gradientTransform="matrix(1 0 0 1 0 300)">
				<stop  offset="0" style="stop-color:#003366"/>
				<stop  offset="1" style="stop-color:#0066BA"/>
			</linearGradient>
			<path id="SVGID_51_" fill="url(#SVGID_24_)" d="M156.7,140.3c-0.4,0-0.8-0.1-1.1-0.2c-0.4-0.1-0.7-0.3-1.1-0.5
				c-0.3-0.2-0.6-0.4-0.8-0.6c-0.2-0.2-0.3-0.4-0.3-0.7c0-0.2,0-0.4,0.1-0.6c0.1-0.2,0.3-0.4,0.6-0.5c0.3-0.2,0.6-0.3,0.9-0.3
				c0.3-0.1,0.7-0.1,1.1-0.1c0.4,0,0.8,0.1,1.1,0.2c0.4,0.1,0.8,0.3,1.1,0.5c0.3,0.2,0.6,0.4,0.8,0.6c0.2,0.2,0.3,0.4,0.3,0.7
				c0,0.2,0,0.4-0.1,0.6c-0.1,0.2-0.3,0.4-0.6,0.5c-0.3,0.2-0.6,0.3-1,0.3c-0.3,0.1-0.5,0.1-0.8,0.1
				C156.9,140.3,156.8,140.3,156.7,140.3 M154.2,135.5c-0.7,0.2-1.3,0.4-1.9,0.7c-0.6,0.3-1,0.7-1.3,1.1c-0.3,0.4-0.4,0.8-0.4,1.2
				c0,0.4,0.2,0.8,0.4,1.2c0.3,0.4,0.7,0.8,1.3,1.1s1.2,0.6,1.9,0.7c0.7,0.2,1.4,0.3,2.1,0.3c0.7,0,1.4-0.1,2.1-0.3
				c0.7-0.2,1.3-0.4,1.9-0.7c0.6-0.3,1-0.7,1.3-1.1c0.3-0.4,0.4-0.8,0.4-1.2c0-0.4-0.2-0.8-0.4-1.2c-0.3-0.4-0.7-0.8-1.3-1.1
				s-1.2-0.6-1.9-0.7c-0.7-0.2-1.4-0.3-2.1-0.3c0,0,0,0,0,0C155.6,135.2,154.9,135.3,154.2,135.5"/>
		</g>
	</g>
	<g>
		<g>
			
				<linearGradient id="SVGID_26_" gradientUnits="userSpaceOnUse" x1="98.8586" y1="-154.0276" x2="215.6927" y2="-177.6228" gradientTransform="matrix(1 0 0 1 0 300)">
				<stop  offset="0" style="stop-color:#003366"/>
				<stop  offset="1" style="stop-color:#0066BA"/>
			</linearGradient>
			<path id="SVGID_54_" fill="url(#SVGID_26_)" d="M164.2,129.8c0,0.1,0,0.2,0,0.4c-0.1,0.2-0.1,0.4-0.3,0.6
				c-0.1,0.2-0.3,0.4-0.4,0.7s-0.3,0.4-0.5,0.5l1.6,1c0.2-0.1,0.4-0.3,0.6-0.4s0.3-0.3,0.5-0.5c0.1-0.2,0.3-0.4,0.3-0.5
				c0.1-0.2,0.1-0.3,0.1-0.4l4,2.3l-2.2,1.2l1.6,0.9l6.2-3.6l-1.6-0.9l-1.9,1.1l-5.9-3.4L164.2,129.8z"/>
		</g>
	</g>
	<g>
		<g>
			
				<linearGradient id="SVGID_27_" gradientUnits="userSpaceOnUse" x1="97.9054" y1="-158.7474" x2="214.7396" y2="-182.3426" gradientTransform="matrix(1 0 0 1 0 300)">
				<stop  offset="0" style="stop-color:#003366"/>
				<stop  offset="1" style="stop-color:#0066BA"/>
			</linearGradient>
			<path id="SVGID_57_" fill="url(#SVGID_27_)" d="M180.9,126.3c-0.4,0-0.8-0.1-1.1-0.2c-0.4-0.1-0.7-0.3-1.1-0.5
				c-0.3-0.2-0.6-0.4-0.8-0.6c-0.2-0.2-0.3-0.4-0.3-0.7c0-0.2,0-0.4,0.1-0.6c0.1-0.2,0.3-0.4,0.6-0.5s0.6-0.3,0.9-0.3
				c0.3-0.1,0.7-0.1,1.1-0.1c0.4,0,0.8,0.1,1.1,0.2c0.4,0.1,0.8,0.3,1.1,0.5s0.6,0.4,0.8,0.6c0.2,0.2,0.3,0.4,0.3,0.7
				c0,0.2,0,0.4-0.1,0.6c-0.1,0.2-0.3,0.4-0.6,0.5c-0.3,0.2-0.6,0.3-1,0.3c-0.3,0.1-0.5,0.1-0.8,0.1
				C181.1,126.3,181,126.3,180.9,126.3 M178.5,121.5c-0.7,0.2-1.3,0.4-1.9,0.7c-0.6,0.3-1,0.7-1.3,1.1c-0.3,0.4-0.4,0.8-0.4,1.2
				s0.2,0.8,0.4,1.2c0.3,0.4,0.7,0.8,1.3,1.1c0.6,0.3,1.2,0.6,1.9,0.7c0.7,0.2,1.4,0.3,2.1,0.3s1.4-0.1,2.1-0.3
				c0.7-0.2,1.3-0.4,1.9-0.7s1-0.7,1.3-1.1c0.3-0.4,0.4-0.8,0.4-1.2s-0.2-0.8-0.4-1.2c-0.3-0.4-0.7-0.8-1.3-1.1s-1.2-0.6-1.9-0.7
				c-0.7-0.2-1.4-0.3-2.1-0.3c0,0,0,0,0,0C179.9,121.3,179.2,121.3,178.5,121.5"/>
		</g>
	</g>
	<g>
		<g>
			
				<linearGradient id="SVGID_28_" gradientUnits="userSpaceOnUse" x1="105.571" y1="-120.7901" x2="222.4052" y2="-144.3853" gradientTransform="matrix(1 0 0 1 0 300)">
				<stop  offset="0" style="stop-color:#003366"/>
				<stop  offset="1" style="stop-color:#0066BA"/>
			</linearGradient>
			<path id="SVGID_60_" fill="url(#SVGID_28_)" d="M120.3,173.3c0,0.1,0,0.2,0,0.4c-0.1,0.2-0.1,0.4-0.3,0.6
				c-0.1,0.2-0.3,0.4-0.4,0.7c-0.2,0.2-0.3,0.4-0.5,0.5l1.6,1c0.2-0.1,0.4-0.3,0.6-0.4c0.2-0.2,0.3-0.3,0.5-0.5
				c0.1-0.2,0.3-0.4,0.3-0.5c0.1-0.2,0.1-0.3,0.1-0.4l4,2.3l-2.2,1.2l1.6,0.9l6.2-3.6l-1.6-0.9l-1.9,1.1l-5.9-3.4L120.3,173.3z"/>
		</g>
	</g>
	<g>
		<g>
			
				<linearGradient id="SVGID_30_" gradientUnits="userSpaceOnUse" x1="104.623" y1="-125.4846" x2="221.4571" y2="-149.0798" gradientTransform="matrix(1 0 0 1 0 300)">
				<stop  offset="0" style="stop-color:#003366"/>
				<stop  offset="1" style="stop-color:#0066BA"/>
			</linearGradient>
			<path id="SVGID_63_" fill="url(#SVGID_30_)" d="M137,169.8c-0.4,0-0.8-0.1-1.1-0.2c-0.4-0.1-0.7-0.3-1.1-0.5
				c-0.3-0.2-0.6-0.4-0.8-0.6c-0.2-0.2-0.3-0.4-0.3-0.7s0-0.4,0.1-0.6c0.1-0.2,0.3-0.4,0.6-0.5c0.3-0.2,0.6-0.3,0.9-0.3
				c0.3-0.1,0.7-0.1,1.1-0.1c0.4,0,0.8,0.1,1.1,0.2c0.4,0.1,0.8,0.3,1.1,0.5c0.3,0.2,0.6,0.4,0.8,0.6c0.2,0.2,0.3,0.4,0.3,0.7
				s0,0.4-0.1,0.6c-0.1,0.2-0.3,0.4-0.6,0.5c-0.3,0.2-0.6,0.3-1,0.3c-0.3,0.1-0.5,0.1-0.8,0.1C137.2,169.8,137.1,169.8,137,169.8
				 M134.6,165c-0.7,0.2-1.3,0.4-1.9,0.7c-0.6,0.3-1,0.7-1.3,1.1s-0.4,0.8-0.4,1.2c0,0.4,0.2,0.8,0.4,1.2c0.3,0.4,0.7,0.8,1.3,1.1
				c0.6,0.3,1.2,0.6,1.9,0.7c0.7,0.2,1.4,0.3,2.1,0.3s1.4-0.1,2.1-0.3c0.7-0.2,1.3-0.4,1.9-0.7s1-0.7,1.3-1.1
				c0.3-0.4,0.4-0.8,0.4-1.2s-0.2-0.8-0.4-1.2c-0.3-0.4-0.7-0.8-1.3-1.1s-1.2-0.6-1.9-0.7c-0.7-0.2-1.4-0.3-2.1-0.3h0
				C135.9,164.8,135.3,164.9,134.6,165"/>
		</g>
	</g>
	<g>
		<g>
			
				<linearGradient id="SVGID_31_" gradientUnits="userSpaceOnUse" x1="103.8137" y1="-129.4918" x2="220.6479" y2="-153.087" gradientTransform="matrix(1 0 0 1 0 300)">
				<stop  offset="0" style="stop-color:#003366"/>
				<stop  offset="1" style="stop-color:#0066BA"/>
			</linearGradient>
			<path id="SVGID_66_" fill="url(#SVGID_31_)" d="M144.5,159.3c0,0.1,0,0.2,0,0.4c-0.1,0.2-0.1,0.4-0.3,0.6
				c-0.1,0.2-0.3,0.4-0.4,0.7s-0.3,0.4-0.5,0.5l1.6,1c0.2-0.1,0.4-0.3,0.6-0.4c0.2-0.2,0.3-0.3,0.5-0.5c0.1-0.2,0.3-0.4,0.3-0.5
				c0.1-0.2,0.1-0.3,0.1-0.4l4,2.3l-2.2,1.2l1.6,0.9l6.2-3.6l-1.6-0.9l-1.9,1.1l-5.9-3.4L144.5,159.3z"/>
		</g>
	</g>
	<g>
		<g>
			
				<linearGradient id="SVGID_32_" gradientUnits="userSpaceOnUse" x1="102.8569" y1="-134.2294" x2="219.6911" y2="-157.8247" gradientTransform="matrix(1 0 0 1 0 300)">
				<stop  offset="0" style="stop-color:#003366"/>
				<stop  offset="1" style="stop-color:#0066BA"/>
			</linearGradient>
			<path id="SVGID_69_" fill="url(#SVGID_32_)" d="M161.2,155.8c-0.4,0-0.8-0.1-1.1-0.2c-0.4-0.1-0.7-0.3-1.1-0.5
				c-0.3-0.2-0.6-0.4-0.8-0.6s-0.3-0.4-0.3-0.7s0-0.4,0.1-0.6c0.1-0.2,0.3-0.4,0.6-0.5c0.3-0.2,0.6-0.3,0.9-0.3
				c0.3-0.1,0.7-0.1,1.1-0.1c0.4,0,0.8,0.1,1.1,0.2c0.4,0.1,0.8,0.3,1.1,0.5s0.6,0.4,0.8,0.6c0.2,0.2,0.3,0.4,0.3,0.7s0,0.4-0.1,0.6
				c-0.1,0.2-0.3,0.4-0.6,0.5c-0.3,0.2-0.6,0.3-1,0.3c-0.3,0.1-0.5,0.1-0.8,0.1C161.4,155.9,161.3,155.9,161.2,155.8 M158.8,151
				c-0.7,0.2-1.3,0.4-1.9,0.7c-0.6,0.3-1,0.7-1.3,1.1c-0.3,0.4-0.4,0.8-0.4,1.2s0.2,0.8,0.4,1.2c0.3,0.4,0.7,0.8,1.3,1.1
				s1.2,0.6,1.9,0.7c0.7,0.2,1.4,0.3,2.1,0.3c0.7,0,1.4-0.1,2.1-0.3c0.7-0.2,1.3-0.4,1.9-0.7c0.6-0.3,1-0.7,1.3-1.1
				c0.3-0.4,0.4-0.8,0.4-1.2s-0.2-0.8-0.4-1.2c-0.3-0.4-0.7-0.8-1.3-1.1s-1.2-0.6-1.9-0.7c-0.7-0.2-1.4-0.3-2.1-0.3h0
				C160.1,150.8,159.5,150.9,158.8,151"/>
		</g>
	</g>
	<g>
		<g>
			
				<linearGradient id="SVGID_33_" gradientUnits="userSpaceOnUse" x1="102.0477" y1="-138.2363" x2="218.8819" y2="-161.8315" gradientTransform="matrix(1 0 0 1 0 300)">
				<stop  offset="0" style="stop-color:#003366"/>
				<stop  offset="1" style="stop-color:#0066BA"/>
			</linearGradient>
			<path id="SVGID_72_" fill="url(#SVGID_33_)" d="M168.8,145.3c0,0.1,0,0.2,0,0.4c-0.1,0.2-0.1,0.4-0.3,0.6
				c-0.1,0.2-0.3,0.4-0.4,0.7c-0.2,0.2-0.3,0.4-0.5,0.5l1.6,1c0.2-0.1,0.4-0.3,0.6-0.4c0.2-0.2,0.3-0.3,0.5-0.5s0.3-0.4,0.3-0.5
				c0.1-0.2,0.1-0.3,0.1-0.4l4,2.3l-2.2,1.2l1.6,0.9l6.2-3.6l-1.6-0.9l-1.9,1.1l-5.9-3.4L168.8,145.3z"/>
		</g>
	</g>
	<g>
		<g>
			
				<linearGradient id="SVGID_34_" gradientUnits="userSpaceOnUse" x1="101.2335" y1="-142.268" x2="218.0676" y2="-165.8631" gradientTransform="matrix(1 0 0 1 0 300)">
				<stop  offset="0" style="stop-color:#003366"/>
				<stop  offset="1" style="stop-color:#0066BA"/>
			</linearGradient>
			<path id="SVGID_75_" fill="url(#SVGID_34_)" d="M180,138.9c0,0.1,0,0.2,0,0.4c-0.1,0.2-0.1,0.4-0.3,0.6c-0.1,0.2-0.3,0.4-0.4,0.7
				s-0.3,0.4-0.5,0.5l1.6,1c0.2-0.1,0.4-0.3,0.6-0.4c0.2-0.2,0.3-0.3,0.5-0.5c0.1-0.2,0.3-0.4,0.3-0.5c0.1-0.2,0.1-0.3,0.1-0.4
				l4,2.3l-2.2,1.2l1.6,0.9l6.2-3.6l-1.6-0.9l-1.9,1.1l-5.9-3.4L180,138.9z"/>
		</g>
	</g>
	<g>
		<g>
			
				<linearGradient id="SVGID_35_" gradientUnits="userSpaceOnUse" x1="100.418" y1="-146.3058" x2="217.2522" y2="-169.901" gradientTransform="matrix(1 0 0 1 0 300)">
				<stop  offset="0" style="stop-color:#003366"/>
				<stop  offset="1" style="stop-color:#0066BA"/>
			</linearGradient>
			<path id="SVGID_78_" fill="url(#SVGID_35_)" d="M191.1,132.4c0,0.1,0,0.2,0,0.4c-0.1,0.2-0.1,0.4-0.3,0.6
				c-0.1,0.2-0.3,0.4-0.4,0.7c-0.2,0.2-0.3,0.4-0.5,0.5l1.6,1c0.2-0.1,0.4-0.3,0.6-0.4c0.2-0.2,0.3-0.3,0.5-0.5
				c0.1-0.2,0.3-0.4,0.3-0.5c0.1-0.2,0.1-0.3,0.1-0.4l4,2.3l-2.2,1.2l1.6,0.9l6.2-3.6l-1.6-0.9l-1.9,1.1l-5.9-3.4L191.1,132.4z"/>
		</g>
	</g>
	<g>
		<g>
			
				<linearGradient id="SVGID_36_" gradientUnits="userSpaceOnUse" x1="107.9497" y1="-109.0121" x2="224.7838" y2="-132.6073" gradientTransform="matrix(1 0 0 1 0 300)">
				<stop  offset="0" style="stop-color:#003366"/>
				<stop  offset="1" style="stop-color:#0066BA"/>
			</linearGradient>
			<path id="SVGID_81_" fill="url(#SVGID_36_)" d="M136,182.4c0,0.1,0,0.2,0,0.4c-0.1,0.2-0.1,0.4-0.3,0.6c-0.1,0.2-0.3,0.4-0.4,0.7
				c-0.2,0.2-0.3,0.4-0.5,0.5l1.6,1c0.2-0.1,0.4-0.3,0.6-0.4c0.2-0.2,0.3-0.3,0.5-0.5c0.1-0.2,0.3-0.4,0.3-0.5
				c0.1-0.2,0.1-0.3,0.1-0.4l4,2.3l-2.2,1.2l1.6,0.9l6.2-3.6l-1.6-0.9l-1.9,1.1l-5.9-3.4L136,182.4z"/>
		</g>
	</g>
	<g>
		<g>
			
				<linearGradient id="SVGID_38_" gradientUnits="userSpaceOnUse" x1="106.998" y1="-113.7243" x2="223.8322" y2="-137.3195" gradientTransform="matrix(1 0 0 1 0 300)">
				<stop  offset="0" style="stop-color:#003366"/>
				<stop  offset="1" style="stop-color:#0066BA"/>
			</linearGradient>
			<path id="SVGID_84_" fill="url(#SVGID_38_)" d="M152.8,178.9c-0.4,0-0.8-0.1-1.1-0.2c-0.4-0.1-0.7-0.3-1.1-0.5
				c-0.3-0.2-0.6-0.4-0.8-0.6c-0.2-0.2-0.3-0.4-0.3-0.7c0-0.2,0-0.4,0.1-0.6c0.1-0.2,0.3-0.4,0.6-0.5c0.3-0.2,0.6-0.3,0.9-0.3
				c0.3-0.1,0.7-0.1,1.1-0.1c0.4,0,0.8,0.1,1.1,0.2c0.4,0.1,0.8,0.3,1.1,0.5c0.3,0.2,0.6,0.4,0.8,0.6c0.2,0.2,0.3,0.4,0.3,0.7
				c0,0.2,0,0.4-0.1,0.6c-0.1,0.2-0.3,0.4-0.6,0.5c-0.3,0.2-0.6,0.3-1,0.3c-0.3,0.1-0.5,0.1-0.8,0.1
				C152.9,178.9,152.8,178.9,152.8,178.9 M150.3,174.1c-0.7,0.2-1.3,0.4-1.9,0.7c-0.6,0.3-1,0.7-1.3,1.1c-0.3,0.4-0.4,0.8-0.4,1.2
				c0,0.4,0.2,0.8,0.4,1.2c0.3,0.4,0.7,0.8,1.3,1.1c0.6,0.3,1.2,0.6,1.9,0.7c0.7,0.2,1.4,0.3,2.1,0.3s1.4-0.1,2.1-0.3
				c0.7-0.2,1.3-0.4,1.9-0.7c0.6-0.3,1-0.7,1.3-1.1c0.3-0.4,0.4-0.8,0.4-1.2c0-0.4-0.2-0.8-0.4-1.2c-0.3-0.4-0.7-0.8-1.3-1.1
				s-1.2-0.6-1.9-0.7c-0.7-0.2-1.4-0.3-2.1-0.3c0,0,0,0,0,0C151.6,173.9,151,173.9,150.3,174.1"/>
		</g>
	</g>
	<g>
		<g>
			
				<linearGradient id="SVGID_40_" gradientUnits="userSpaceOnUse" x1="106.1824" y1="-117.7627" x2="223.0166" y2="-141.3579" gradientTransform="matrix(1 0 0 1 0 300)">
				<stop  offset="0" style="stop-color:#003366"/>
				<stop  offset="1" style="stop-color:#0066BA"/>
			</linearGradient>
			<path id="SVGID_87_" fill="url(#SVGID_40_)" d="M160.3,168.4c0,0.1,0,0.2,0,0.4c-0.1,0.2-0.1,0.4-0.3,0.6
				c-0.1,0.2-0.3,0.4-0.4,0.7c-0.2,0.2-0.3,0.4-0.5,0.5l1.6,1c0.2-0.1,0.4-0.3,0.6-0.4c0.2-0.2,0.3-0.3,0.5-0.5
				c0.1-0.2,0.3-0.4,0.3-0.5c0.1-0.2,0.1-0.3,0.1-0.4l4,2.3L164,173l1.6,0.9l6.2-3.6l-1.6-0.9l-1.9,1.1l-5.9-3.4L160.3,168.4z"/>
		</g>
	</g>
	<g>
		<g>
			
				<linearGradient id="SVGID_41_" gradientUnits="userSpaceOnUse" x1="105.3707" y1="-121.7822" x2="222.2048" y2="-145.3773" gradientTransform="matrix(1 0 0 1 0 300)">
				<stop  offset="0" style="stop-color:#003366"/>
				<stop  offset="1" style="stop-color:#0066BA"/>
			</linearGradient>
			<path id="SVGID_90_" fill="url(#SVGID_41_)" d="M171.4,161.9c0,0.1,0,0.2,0,0.4c-0.1,0.2-0.1,0.4-0.3,0.6
				c-0.1,0.2-0.3,0.4-0.4,0.7c-0.2,0.2-0.3,0.4-0.5,0.5l1.6,1c0.2-0.1,0.4-0.3,0.6-0.4c0.2-0.2,0.3-0.3,0.5-0.5s0.3-0.4,0.3-0.5
				c0.1-0.2,0.1-0.3,0.1-0.4l4,2.3l-2.2,1.2l1.6,0.9l6.2-3.6l-1.6-0.9l-1.9,1.1l-5.9-3.4L171.4,161.9z"/>
		</g>
	</g>
	<g>
		<g>
			
				<linearGradient id="SVGID_43_" gradientUnits="userSpaceOnUse" x1="104.5565" y1="-125.8138" x2="221.3906" y2="-149.409" gradientTransform="matrix(1 0 0 1 0 300)">
				<stop  offset="0" style="stop-color:#003366"/>
				<stop  offset="1" style="stop-color:#0066BA"/>
			</linearGradient>
			<path id="SVGID_93_" fill="url(#SVGID_43_)" d="M182.6,155.5c0,0.1,0,0.2,0,0.4c-0.1,0.2-0.1,0.4-0.3,0.6
				c-0.1,0.2-0.3,0.4-0.4,0.7c-0.2,0.2-0.3,0.4-0.5,0.5l1.6,1c0.2-0.1,0.4-0.3,0.6-0.4c0.2-0.2,0.3-0.3,0.5-0.5
				c0.1-0.2,0.3-0.4,0.3-0.5c0.1-0.2,0.1-0.3,0.1-0.4l4,2.3l-2.2,1.2l1.6,0.9l6.2-3.6l-1.6-0.9l-1.9,1.1l-5.9-3.4L182.6,155.5z"/>
		</g>
	</g>
	<g>
		<g>
			
				<linearGradient id="SVGID_44_" gradientUnits="userSpaceOnUse" x1="103.6023" y1="-130.5383" x2="220.4365" y2="-154.1335" gradientTransform="matrix(1 0 0 1 0 300)">
				<stop  offset="0" style="stop-color:#003366"/>
				<stop  offset="1" style="stop-color:#0066BA"/>
			</linearGradient>
			<path id="SVGID_96_" fill="url(#SVGID_44_)" d="M199.4,152c-0.4,0-0.8-0.1-1.1-0.2c-0.4-0.1-0.7-0.3-1.1-0.5
				c-0.3-0.2-0.6-0.4-0.8-0.6c-0.2-0.2-0.3-0.4-0.3-0.7s0-0.4,0.1-0.6c0.1-0.2,0.3-0.4,0.6-0.5c0.3-0.2,0.6-0.3,0.9-0.3
				c0.3-0.1,0.7-0.1,1.1-0.1c0.4,0,0.8,0.1,1.1,0.2s0.8,0.3,1.1,0.5c0.3,0.2,0.6,0.4,0.8,0.6c0.2,0.2,0.3,0.4,0.3,0.7s0,0.4-0.1,0.6
				c-0.1,0.2-0.3,0.4-0.6,0.5c-0.3,0.2-0.6,0.3-1,0.3c-0.3,0.1-0.5,0.1-0.8,0.1C199.5,152,199.4,152,199.4,152 M196.9,147.2
				c-0.7,0.2-1.3,0.4-1.9,0.7c-0.6,0.3-1,0.7-1.3,1.1c-0.3,0.4-0.4,0.8-0.4,1.2c0,0.4,0.2,0.8,0.4,1.2c0.3,0.4,0.7,0.8,1.3,1.1
				c0.6,0.3,1.2,0.6,1.9,0.7c0.7,0.2,1.4,0.3,2.1,0.3s1.4-0.1,2.1-0.3c0.7-0.2,1.3-0.4,1.9-0.7c0.6-0.3,1-0.7,1.3-1.1
				c0.3-0.4,0.4-0.8,0.4-1.2c0-0.4-0.2-0.8-0.4-1.2c-0.3-0.4-0.7-0.8-1.3-1.1c-0.6-0.3-1.2-0.6-1.9-0.7c-0.7-0.2-1.4-0.3-2.1-0.3
				c0,0,0,0,0,0C198.2,146.9,197.6,147,196.9,147.2"/>
		</g>
	</g>
	<g>
		<g>
			
				<linearGradient id="SVGID_46_" gradientUnits="userSpaceOnUse" x1="102.6564" y1="-135.2222" x2="219.4906" y2="-158.8174" gradientTransform="matrix(1 0 0 1 0 300)">
				<stop  offset="0" style="stop-color:#003366"/>
				<stop  offset="1" style="stop-color:#0066BA"/>
			</linearGradient>
			<path id="SVGID_99_" fill="url(#SVGID_46_)" d="M212.4,144.5c-0.4,0-0.8-0.1-1.1-0.2c-0.4-0.1-0.7-0.3-1.1-0.5
				c-0.3-0.2-0.6-0.4-0.8-0.6c-0.2-0.2-0.3-0.4-0.3-0.7c0-0.2,0-0.4,0.1-0.6c0.1-0.2,0.3-0.4,0.6-0.5c0.3-0.2,0.6-0.3,0.9-0.3
				c0.3-0.1,0.7-0.1,1.1-0.1c0.4,0,0.8,0.1,1.1,0.2c0.4,0.1,0.8,0.3,1.1,0.5c0.3,0.2,0.6,0.4,0.8,0.6c0.2,0.2,0.3,0.4,0.3,0.7
				c0,0.2,0,0.4-0.1,0.6c-0.1,0.2-0.3,0.4-0.6,0.5c-0.3,0.2-0.6,0.3-1,0.3c-0.3,0.1-0.5,0.1-0.8,0.1
				C212.6,144.5,212.5,144.5,212.4,144.5 M209.9,139.7c-0.7,0.2-1.3,0.4-1.9,0.7c-0.6,0.3-1,0.7-1.3,1.1c-0.3,0.4-0.4,0.8-0.4,1.2
				c0,0.4,0.2,0.8,0.4,1.2c0.3,0.4,0.7,0.8,1.3,1.1c0.6,0.3,1.2,0.6,1.9,0.7c0.7,0.2,1.4,0.3,2.1,0.3s1.4-0.1,2.1-0.3
				c0.7-0.2,1.3-0.4,1.9-0.7c0.6-0.3,1-0.7,1.3-1.1c0.3-0.4,0.4-0.8,0.4-1.2c0-0.4-0.2-0.8-0.4-1.2c-0.3-0.4-0.7-0.8-1.3-1.1
				s-1.2-0.6-1.9-0.7c-0.7-0.2-1.4-0.3-2.1-0.3c0,0,0,0,0,0C211.3,139.4,210.6,139.5,209.9,139.7"/>
		</g>
	</g>
	<g>
		<g>
			
				<linearGradient id="SVGID_47_" gradientUnits="userSpaceOnUse" x1="172.2524" y1="-109.424" x2="250.1227" y2="-109.424" gradientTransform="matrix(1 0 0 1 0 300)">
				<stop  offset="0" style="stop-color:#003366"/>
				<stop  offset="1" style="stop-color:#0066BA"/>
			</linearGradient>
			<path id="SVGID_102_" fill="url(#SVGID_47_)" d="M183.6,174.7c-0.8,0.4-1.5,0.9-2.1,1.3h-9.3v14.5l0,0v0.7h0
				c0.3,5.5,4.1,11,11.4,15.2c15.2,8.8,39.9,8.8,55,0c7.3-4.2,11.1-9.7,11.4-15.2h0V176h-9.3c-0.7-0.4-1.4-0.9-2.1-1.3
				c-7.6-4.4-17.6-6.6-27.5-6.6C201.2,168.1,191.2,170.3,183.6,174.7"/>
		</g>
	</g>
	<g>
		<g>
			
				<linearGradient id="SVGID_49_" gradientUnits="userSpaceOnUse" x1="172.2365" y1="-123.9611" x2="250.075" y2="-123.9611" gradientTransform="matrix(1 0 0 1 0 300)">
				<stop  offset="0" style="stop-color:#003366"/>
				<stop  offset="1" style="stop-color:#0066BA"/>
			</linearGradient>
			<path id="SVGID_105_" fill="url(#SVGID_49_)" d="M183.6,160.1c-15.2,8.8-15.2,23,0,31.8c15.2,8.8,39.9,8.8,55,0
				c15.2-8.8,15.2-23,0-31.8c-7.6-4.4-17.6-6.6-27.5-6.6C201.2,153.6,191.2,155.8,183.6,160.1"/>
		</g>
	</g>
	<g>
		
			<linearGradient id="SVGID_50_" gradientUnits="userSpaceOnUse" x1="177.5408" y1="-123.973" x2="244.8025" y2="-123.973" gradientTransform="matrix(1 0 0 1 0 300)">
			<stop  offset="0" style="stop-color:#6E788C"/>
			<stop  offset="1" style="stop-color:#C8C8C8"/>
		</linearGradient>
		<path fill="url(#SVGID_50_)" d="M187.4,162.3c-13.1,7.6-13.1,19.9,0,27.5s34.4,7.6,47.6,0c13.1-7.6,13.1-19.9,0-27.5
			C221.8,154.7,200.5,154.7,187.4,162.3"/>
		<path fill="#EBEBEB" d="M189,165.5c0,1.7,4.5,3,10,3c5.5,0,10-1.3,10-3c0-1.7-4.5-3-10-3C193.4,162.5,189,163.8,189,165.5"/>
	</g>
	<g>
		<g>
			
				<linearGradient id="SVGID_52_" gradientUnits="userSpaceOnUse" x1="119.4163" y1="-84.6702" x2="185.9942" y2="-84.6702" gradientTransform="matrix(1 0 0 1 0 300)">
				<stop  offset="0" style="stop-color:#6E788C"/>
				<stop  offset="1" style="stop-color:#C8C8C8"/>
			</linearGradient>
			<path id="SVGID_109_" fill="url(#SVGID_52_)" d="M179.9,194c-0.1,0-0.2,0.1-0.3,0.2l0,0l-60.2,34.7v4.4c0.6,1.2,1.7,2.4,2.8,3
				c1,0.6,2,0.7,2.6,0.3l0.2-0.1l60-34.5v0c0,0,0,0,0.1,0l0.2-0.1c0.5-0.3,0.8-0.9,0.8-1.8c0-1-0.4-2.1-1-3.1c-0.6-1-1.6-2-2.5-2.5
				c-0.6-0.4-1.2-0.5-1.8-0.5C180.4,193.9,180.1,193.9,179.9,194"/>
		</g>
	</g>
	<g>
		
			<linearGradient id="SVGID_53_" gradientUnits="userSpaceOnUse" x1="118.6847" y1="-67.3524" x2="125.7958" y2="-67.3524" gradientTransform="matrix(1 0 0 1 0 300)">
			<stop  offset="0" style="stop-color:#6E788C"/>
			<stop  offset="1" style="stop-color:#C8C8C8"/>
		</linearGradient>
		<path fill="url(#SVGID_53_)" d="M118.7,230.6c0,0.8,0.3,1.7,0.7,2.6c0.6,1.2,1.7,2.4,2.8,3c1,0.6,2,0.7,2.6,0.3l0.2-0.1
			c0.5-0.3,0.8-0.9,0.8-1.8c0-2-1.6-4.5-3.6-5.6c-1.1-0.7-2.2-0.7-2.8-0.2C119,229.2,118.7,229.8,118.7,230.6"/>
	</g>
</g>
</svg>
