<?xml version="1.0" encoding="utf-8"?>
<!-- Generator: Adobe Illustrator 22.0.0, SVG Export Plug-In . SVG Version: 6.00 Build 0)  -->
<svg version="1.0" id="Ebene_1" xmlns="http://www.w3.org/2000/svg" xmlns:xlink="http://www.w3.org/1999/xlink" x="0px" y="0px"
	 viewBox="0 0 3000 896" enable-background="new 0 0 3000 896" xml:space="preserve">
<path fill="none" stroke="#C8C8C8" stroke-width="3" stroke-linecap="round" stroke-linejoin="round" stroke-miterlimit="10" stroke-dasharray="20,20" d="
	M873.8,388.4h107.8c26.7,0,48.3-21.6,48.3-48.3V0"/>
<path fill="none" stroke="#C8C8C8" stroke-width="3" stroke-linecap="round" stroke-linejoin="round" stroke-miterlimit="10" stroke-dasharray="20,20" d="
	M2115.6,534.9h-107.8c-26.7,0-48.3-21.6-48.3-48.3V0"/>
<g>
	<g>
		<g>
			
				<linearGradient id="SVGID_2_" gradientUnits="userSpaceOnUse" x1="2167.2998" y1="71.0321" x2="2167.2998" y2="245.9112" gradientTransform="matrix(1 0 0 -1 0 895.2756)">
				<stop  offset="0" style="stop-color:#6E788C"/>
				<stop  offset="1" style="stop-color:#C8C8C8"/>
			</linearGradient>
			<path id="SVGID_1_" fill="url(#SVGID_2_)" d="M2124.9,650.5v104.4c0,34.7,13.7,58.2,35.9,68.6l0,0l48.9,28.2l0,0
				c-20.2-11.1-32.4-34-32.4-66.9V671.3c0-4.7,1.2-9.3,3.5-13.3l-51.1-27.1C2126.6,636.9,2124.9,643.6,2124.9,650.5"/>
		</g>
	</g>
	<g>
		<g>
			
				<linearGradient id="SVGID_3_" gradientUnits="userSpaceOnUse" x1="2386.8472" y1="380.8663" x2="2143.376" y2="254.8049" gradientTransform="matrix(1 0 0 -1 0 895.2756)">
				<stop  offset="0" style="stop-color:#6E788C"/>
				<stop  offset="1" style="stop-color:#C8C8C8"/>
			</linearGradient>
			<path id="SVGID_4_" fill="url(#SVGID_3_)" d="M2345.5,498.9l-199.2,114.6c-7.3,4.2-13,10.3-16.7,17.5l51.1,27.1
				c2.3-4.1,5.8-7.6,10-10.1l211.7-122.1c2.7-1.5,5.5-2,8.2-1.5L2366,499c-3.2-1.8-6.7-2.7-10.3-2.7
				C2352.3,496.1,2348.7,497,2345.5,498.9"/>
		</g>
	</g>
	<g>
		<g>
			
				<linearGradient id="SVGID_5_" gradientUnits="userSpaceOnUse" x1="2177.3" y1="203.5328" x2="2421.2" y2="203.5328" gradientTransform="matrix(1 0 0 -1 0 895.2756)">
				<stop  offset="0" style="stop-color:#6ECA44"/>
				<stop  offset="1" style="stop-color:#86D776"/>
			</linearGradient>
			<path id="SVGID_7_" fill="url(#SVGID_5_)" d="M2402.5,525.8l-211.7,122.1c-4.2,2.4-7.7,6-10,10.1c-2.3,4-3.5,8.6-3.5,13.3v113.5
				c0,32.8,12.3,55.7,32.4,66.9c23.7,13,58.2,9.9,96.7-12.3c71.3-41.2,114.8-123.9,114.8-195.2V536.6c0-6.5-4.8-11.4-10.5-12.3
				c-0.7-0.1-1.3-0.2-2-0.2C2406.6,524.1,2404.5,524.6,2402.5,525.8"/>
		</g>
	</g>
	<g>
		<g>
			
				<linearGradient id="SVGID_6_" gradientUnits="userSpaceOnUse" x1="2336.9482" y1="174.0688" x2="2275.4868" y2="207.0928" gradientTransform="matrix(1 0 0 -1 0 895.2756)">
				<stop  offset="0" style="stop-color:#167E3D"/>
				<stop  offset="1" style="stop-color:#084823"/>
			</linearGradient>
			<path id="SVGID_10_" fill="url(#SVGID_6_)" d="M2308.1,648.2c-21.1,12.2-38.3,39.2-38.3,60.4c0,12.5,6,20.2,15.3,21.8V761
				c0,12.7,10.3,17,23,9.7s23-23.5,23-36.2v-30.6c9.3-12.3,15.3-26.9,15.3-39.4c0-14.2-7.7-22.1-19.2-22.1
				C2321.6,642.3,2315.1,644.2,2308.1,648.2"/>
		</g>
	</g>
	<g>
		<g>
			
				<linearGradient id="SVGID_8_" gradientUnits="userSpaceOnUse" x1="2165.2002" y1="397.5755" x2="2371.0042" y2="397.5755" gradientTransform="matrix(1 0 0 -1 0 895.2756)">
				<stop  offset="0" style="stop-color:#6E788C"/>
				<stop  offset="1" style="stop-color:#C8C8C8"/>
			</linearGradient>
			<path id="SVGID_13_" fill="url(#SVGID_8_)" d="M2268.1,374.1c-38.1,17.4-57.9,39.5-76.5,68.8c-18.6,29.4-26.4,65-26.4,93.4v78.4
				c0,3.2,2.1,6.3,6.3,8.7c2.2,1.3,4.7,2.2,7.4,2.8c2.3,0.5,4.8,0.8,7.3,0.8h0.1c5.5,0,11.1-1.2,15.3-3.6c4.3-2.5,6.4-5.7,6.3-8.9
				c0-0.1,0-0.1,0-0.2V511.7c0-16.6,6.7-35.5,17.6-52.7c10.9-17.2,25.9-32.6,42.5-42.2c14.3-8.3,27.4-10.8,37.8-8.5l0,0
				c5.6,1.3,10.4,4.1,14.1,8.2c5.3,5.9,8.3,14.6,8.3,25.7v78.4c0,3.2,2.1,6.3,6.3,8.7c2.2,1.3,4.7,2.2,7.4,2.8
				c2.3,0.5,4.8,0.8,7.3,0.8c5.6,0.1,11.2-1.1,15.5-3.6s6.4-5.7,6.3-8.9l0,0v-83.3c0-22-11.2-40.2-27.3-52.3
				c-13.9-10.5-31.5-16.4-48.5-16.4C2285.8,368.5,2276.6,370.3,2268.1,374.1"/>
		</g>
	</g>
	<g>
		<g>
			
				<linearGradient id="SVGID_9_" gradientUnits="userSpaceOnUse" x1="2320.2502" y1="499.1417" x2="2320.2502" y2="392.0242" gradientTransform="matrix(1 0 0 -1 0 895.2756)">
				<stop  offset="0" style="stop-color:#6E788C"/>
				<stop  offset="1" style="stop-color:#C8C8C8"/>
			</linearGradient>
			<path id="SVGID_16_" fill="url(#SVGID_9_)" d="M2320,416.5c5.3,5.9,8.3,14.6,8.3,25.7v78.4c0,3.2,2.1,6.3,6.3,8.7V438
				c0-16-12.7-29.2-28.7-29.8C2311.5,409.6,2316.3,412.4,2320,416.5"/>
		</g>
	</g>
</g>
<g>
	<g>
		<g>
			
				<linearGradient id="SVGID_11_" gradientUnits="userSpaceOnUse" x1="2249.24" y1="58.9348" x2="2319.2263" y2="58.9348" gradientTransform="matrix(-1 0 0 -1 4711.1592 895.2756)">
				<stop  offset="0" style="stop-color:#6E788C"/>
				<stop  offset="1" style="stop-color:#C8C8C8"/>
			</linearGradient>
			<path id="SVGID_19_" fill="url(#SVGID_11_)" d="M2450.7,814.6c2,1.2,3.9,2.6,5.7,4.2c0.2,0.2,0.4,0.4,0.6,0.6
				c5.5,5.1,5.6,12.1,3.8,18.4c-3.3,11.8-12.9,20.9-24.8,24c-8.3,2.2-19.2,2.9-31.2-2c-5.4-2.2-8.9-5.1-10.8-8.4
				c-7.7-12.9,7-31.6,17.8-37.3l0.5-0.3c5.8-3.1,12.2-4.6,18.5-4.6C2437.7,809.1,2444.7,811,2450.7,814.6"/>
		</g>
	</g>
	<g>
		<g>
			
				<linearGradient id="SVGID_12_" gradientUnits="userSpaceOnUse" x1="2315.2998" y1="40.6756" x2="2317.8574" y2="40.6756" gradientTransform="matrix(-1 0 0 -1 4711.1592 895.2756)">
				<stop  offset="0" style="stop-color:#003366"/>
				<stop  offset="1" style="stop-color:#0066BA"/>
			</linearGradient>
			<path id="SVGID_22_" fill="url(#SVGID_12_)" d="M2395.9,843v23.2c0,0.7-0.6,1.3-1.3,1.3s-1.3-0.6-1.3-1.3V843
				c0-0.7,0.6-1.3,1.3-1.3C2395.3,841.7,2395.9,842.3,2395.9,843"/>
		</g>
	</g>
	<g>
		<g>
			
				<linearGradient id="SVGID_14_" gradientUnits="userSpaceOnUse" x1="2298.7148" y1="49.2756" x2="2324.4211" y2="49.2756" gradientTransform="matrix(-1 0 0 -1 4711.1592 895.2756)">
				<stop  offset="0" style="stop-color:#6E788C"/>
				<stop  offset="1" style="stop-color:#C8C8C8"/>
			</linearGradient>
			<path id="SVGID_25_" fill="url(#SVGID_14_)" d="M2412.4,846c0,7.1-5.8,12.9-12.9,12.9c-7.1,0-12.9-5.8-12.9-12.9
				s5.8-12.9,12.9-12.9C2406.7,833.1,2412.4,838.9,2412.4,846"/>
		</g>
	</g>
	<g>
		<g>
			
				<linearGradient id="SVGID_15_" gradientUnits="userSpaceOnUse" x1="2279.0176" y1="40.8135" x2="2262.1045" y2="19.461" gradientTransform="matrix(-1 0 0 -1 4711.1592 895.2756)">
				<stop  offset="0" style="stop-color:#003366"/>
				<stop  offset="1" style="stop-color:#0066BA"/>
			</linearGradient>
			<path id="SVGID_28_" fill="url(#SVGID_15_)" d="M2428.7,853.4l15.3,7.4c0.4,0.2,0.7,0.7,0.7,1.1v13.5c0,0.7-0.6,1.3-1.3,1.3
				s-1.3-0.6-1.3-1.3v-12.7l-14.5-7.1c-0.6-0.3-0.9-1.1-0.6-1.7c0.2-0.5,0.7-0.7,1.2-0.7C2428.4,853.3,2428.6,853.3,2428.7,853.4"/>
		</g>
	</g>
	<g>
		<g>
			
				<linearGradient id="SVGID_17_" gradientUnits="userSpaceOnUse" x1="2267.2559" y1="49.0483" x2="2250.343" y2="27.6957" gradientTransform="matrix(-1 0 0 -1 4711.1592 895.2756)">
				<stop  offset="0" style="stop-color:#003366"/>
				<stop  offset="1" style="stop-color:#0066BA"/>
			</linearGradient>
			<path id="SVGID_31_" fill="url(#SVGID_17_)" d="M2445.2,847l11.5,5.6c0.4,0.2,0.7,0.7,0.7,1.1v15.8c0,0.7-0.6,1.3-1.3,1.3
				s-1.3-0.6-1.3-1.3v-15l-10.8-5.3c-0.6-0.3-0.9-1.1-0.6-1.7c0.2-0.5,0.7-0.7,1.2-0.7C2444.9,846.8,2445.1,846.9,2445.2,847"/>
		</g>
	</g>
	<g>
		<g>
			
				<linearGradient id="SVGID_18_" gradientUnits="userSpaceOnUse" x1="2257.0281" y1="57.3629" x2="2240.115" y2="36.0104" gradientTransform="matrix(-1 0 0 -1 4711.1592 895.2756)">
				<stop  offset="0" style="stop-color:#003366"/>
				<stop  offset="1" style="stop-color:#0066BA"/>
			</linearGradient>
			<path id="SVGID_34_" fill="url(#SVGID_18_)" d="M2455.4,836.1l11.5,5.6c0.4,0.2,0.7,0.7,0.7,1.1v20.9c0,0.7-0.6,1.3-1.3,1.3
				s-1.3-0.6-1.3-1.3v-20.1l-10.8-5.3c-0.6-0.3-0.9-1.1-0.6-1.7c0.2-0.5,0.7-0.7,1.1-0.7C2455.1,836,2455.3,836,2455.4,836.1"/>
		</g>
	</g>
</g>
<g>
	<g>
		<g>
			<path id="SVGID_37_" fill="#EBEBEB" d="M642.1,331.5L372.9,487c-6.9,4-6.9,10.5,0,14.5l403.9,233.2c6.9,4,18.2,4,25.1,0
				l269.2-155.4c6.9-4,6.9-10.5,0-14.5L667.2,331.5c-3.5-2-8-3-12.5-3C650.1,328.5,645.6,329.5,642.1,331.5"/>
		</g>
	</g>
	<g>
		<g>
			
				<linearGradient id="SVGID_20_" gradientUnits="userSpaceOnUse" x1="420.9203" y1="386.7681" x2="788.2104" y2="460.9439" gradientTransform="matrix(1 0 0 -1 0 895.2756)">
				<stop  offset="0" style="stop-color:#003366"/>
				<stop  offset="1" style="stop-color:#0066BA"/>
			</linearGradient>
			<path id="SVGID_39_" fill="url(#SVGID_20_)" d="M425.3,498.3c0.1,0.2,0,0.6-0.1,1.2c-0.2,0.6-0.4,1.2-0.8,2
				c-0.4,0.7-0.8,1.4-1.3,2.1s-1.1,1.2-1.6,1.5l5.1,3c0.6-0.4,1.2-0.8,1.8-1.4c0.6-0.6,1.1-1.1,1.5-1.7s0.8-1.2,1.1-1.7
				c0.3-0.6,0.4-1,0.4-1.4l12.5,7.2l-6.8,3.9l5,2.9l19.5-11.2l-5-2.9l-6.1,3.5L432,494.6L425.3,498.3z"/>
		</g>
	</g>
	<g>
		<g>
			
				<linearGradient id="SVGID_21_" gradientUnits="userSpaceOnUse" x1="417.9282" y1="401.584" x2="785.2183" y2="475.7599" gradientTransform="matrix(1 0 0 -1 0 895.2756)">
				<stop  offset="0" style="stop-color:#003366"/>
				<stop  offset="1" style="stop-color:#0066BA"/>
			</linearGradient>
			<path id="SVGID_42_" fill="url(#SVGID_21_)" d="M477.8,487.4c-1.2-0.1-2.4-0.3-3.6-0.6c-1.2-0.4-2.3-0.9-3.4-1.5s-2-1.3-2.6-2
				s-1-1.4-1.1-2.1s0-1.3,0.3-2c0.4-0.6,1-1.2,1.9-1.7s1.8-0.9,2.9-1.1s2.2-0.3,3.4-0.2c1.2,0.1,2.4,0.3,3.6,0.7
				c1.2,0.4,2.4,0.9,3.5,1.5s2,1.3,2.6,2s1,1.4,1.1,2.1s0,1.3-0.3,2c-0.4,0.6-1,1.2-1.8,1.7c-0.9,0.5-1.9,0.9-3,1.1
				c-0.8,0.2-1.6,0.2-2.5,0.2C478.5,487.4,478.2,487.4,477.8,487.4 M470.1,472.3c-2.2,0.5-4.1,1.3-5.9,2.3s-3.1,2.2-4,3.4
				c-0.9,1.2-1.3,2.5-1.3,3.8s0.5,2.5,1.4,3.8c0.9,1.2,2.3,2.4,4.1,3.4c1.8,1,3.8,1.8,5.9,2.3s4.3,0.8,6.5,0.8s4.4-0.2,6.5-0.8
				c2.1-0.5,4.1-1.3,5.9-2.3s3.1-2.1,4-3.4c0.9-1.2,1.3-2.5,1.3-3.8s-0.5-2.5-1.4-3.8c-0.9-1.2-2.3-2.4-4.1-3.4
				c-1.8-1-3.8-1.8-5.9-2.3s-4.3-0.8-6.5-0.8c0,0,0,0-0.1,0C474.4,471.5,472.3,471.8,470.1,472.3"/>
		</g>
	</g>
	<g>
		<g>
			
				<linearGradient id="SVGID_23_" gradientUnits="userSpaceOnUse" x1="415.353" y1="414.3351" x2="782.6432" y2="488.511" gradientTransform="matrix(1 0 0 -1 0 895.2756)">
				<stop  offset="0" style="stop-color:#003366"/>
				<stop  offset="1" style="stop-color:#0066BA"/>
			</linearGradient>
			<path id="SVGID_45_" fill="url(#SVGID_23_)" d="M501.4,454.3c0.1,0.2,0,0.6-0.1,1.2c-0.2,0.6-0.4,1.2-0.8,2
				c-0.4,0.7-0.8,1.4-1.3,2.1s-1.1,1.2-1.6,1.5l5.1,3c0.6-0.3,1.2-0.8,1.8-1.4c0.6-0.6,1.1-1.1,1.5-1.7s0.8-1.2,1.1-1.7
				c0.3-0.6,0.4-1,0.4-1.4L520,465l-6.8,3.9l5,2.9l19.5-11.2l-5-2.9l-6.1,3.5L508,450.6L501.4,454.3z"/>
		</g>
	</g>
	<g>
		<g>
			
				<linearGradient id="SVGID_24_" gradientUnits="userSpaceOnUse" x1="412.8051" y1="426.9517" x2="780.0952" y2="501.1275" gradientTransform="matrix(1 0 0 -1 0 895.2756)">
				<stop  offset="0" style="stop-color:#003366"/>
				<stop  offset="1" style="stop-color:#0066BA"/>
			</linearGradient>
			<path id="SVGID_48_" fill="url(#SVGID_24_)" d="M536.6,434c0.1,0.2,0,0.6-0.1,1.2c-0.2,0.6-0.4,1.2-0.8,2
				c-0.4,0.7-0.8,1.4-1.3,2.1s-1.1,1.2-1.6,1.5l5.1,3c0.6-0.3,1.2-0.8,1.8-1.4s1.1-1.1,1.5-1.7s0.8-1.2,1.1-1.7
				c0.3-0.6,0.4-1,0.4-1.4l12.5,7.2l-6.8,3.9l5,2.9l19.5-11.2l-5-2.9l-6.1,3.5l-18.5-10.7L536.6,434z"/>
		</g>
	</g>
	<g>
		<g>
			
				<linearGradient id="SVGID_26_" gradientUnits="userSpaceOnUse" x1="409.8129" y1="441.7675" x2="777.1031" y2="515.9434" gradientTransform="matrix(1 0 0 -1 0 895.2756)">
				<stop  offset="0" style="stop-color:#003366"/>
				<stop  offset="1" style="stop-color:#0066BA"/>
			</linearGradient>
			<path id="SVGID_51_" fill="url(#SVGID_26_)" d="M589.2,423.1c-1.2-0.1-2.4-0.3-3.6-0.6c-1.2-0.4-2.3-0.9-3.4-1.5
				c-1.1-0.6-2-1.3-2.6-2s-1-1.4-1.1-2.1s0-1.3,0.3-2c0.4-0.6,1-1.2,1.9-1.7s1.8-0.9,2.9-1.1c1.1-0.2,2.2-0.3,3.4-0.2
				c1.2,0.1,2.4,0.3,3.6,0.7c1.2,0.4,2.4,0.9,3.5,1.5s2,1.3,2.6,2s1,1.4,1.1,2.1s0,1.3-0.3,2c-0.4,0.6-1,1.2-1.8,1.7
				c-0.9,0.5-1.9,0.9-3,1.1c-0.8,0.2-1.6,0.2-2.5,0.2C589.8,423.1,589.5,423.1,589.2,423.1 M581.4,408c-2.2,0.5-4.1,1.3-5.9,2.3
				c-1.8,1-3.1,2.2-4,3.4c-0.9,1.2-1.3,2.5-1.3,3.8s0.5,2.5,1.4,3.8c0.9,1.2,2.3,2.4,4.1,3.4s3.8,1.8,5.9,2.3
				c2.1,0.5,4.3,0.8,6.5,0.8s4.4-0.2,6.5-0.8c2.1-0.5,4.1-1.3,5.9-2.3c1.8-1,3.1-2.1,4-3.4c0.9-1.2,1.3-2.5,1.3-3.8
				s-0.5-2.5-1.4-3.8c-0.9-1.2-2.3-2.4-4.1-3.4s-3.8-1.8-5.9-2.3c-2.1-0.5-4.3-0.8-6.5-0.8c0,0,0,0-0.1,0
				C585.7,407.2,583.6,407.5,581.4,408"/>
		</g>
	</g>
	<g>
		<g>
			
				<linearGradient id="SVGID_27_" gradientUnits="userSpaceOnUse" x1="407.2728" y1="454.3455" x2="774.5629" y2="528.5214" gradientTransform="matrix(1 0 0 -1 0 895.2756)">
				<stop  offset="0" style="stop-color:#003366"/>
				<stop  offset="1" style="stop-color:#0066BA"/>
			</linearGradient>
			<path id="SVGID_54_" fill="url(#SVGID_27_)" d="M612.8,390.1c0.1,0.2,0,0.6-0.1,1.2c-0.2,0.6-0.4,1.2-0.8,2
				c-0.4,0.7-0.8,1.4-1.3,2.1s-1.1,1.2-1.6,1.5l5.1,3c0.6-0.3,1.2-0.8,1.8-1.4s1.1-1.1,1.5-1.7s0.8-1.2,1.1-1.7
				c0.3-0.6,0.4-1,0.4-1.4l12.5,7.2l-6.8,3.9l5,2.9l19.5-11.2l-5-2.9l-6.1,3.5l-18.5-10.7L612.8,390.1z"/>
		</g>
	</g>
	<g>
		<g>
			
				<linearGradient id="SVGID_29_" gradientUnits="userSpaceOnUse" x1="404.2762" y1="469.183" x2="771.5664" y2="543.3589" gradientTransform="matrix(1 0 0 -1 0 895.2756)">
				<stop  offset="0" style="stop-color:#003366"/>
				<stop  offset="1" style="stop-color:#0066BA"/>
			</linearGradient>
			<path id="SVGID_57_" fill="url(#SVGID_29_)" d="M665.3,379.1c-1.2-0.1-2.4-0.3-3.6-0.6c-1.2-0.4-2.3-0.9-3.4-1.5
				c-1.1-0.6-2-1.3-2.6-2s-1-1.4-1.1-2.1s0-1.3,0.3-2c0.4-0.6,1-1.2,1.9-1.7s1.8-0.9,2.9-1.1c1.1-0.2,2.2-0.3,3.4-0.2
				c1.2,0.1,2.4,0.3,3.6,0.7c1.2,0.4,2.4,0.9,3.5,1.5s2,1.3,2.6,2s1,1.4,1.1,2.1s0,1.3-0.3,2c-0.4,0.6-1,1.2-1.8,1.7
				c-0.9,0.5-1.9,0.9-3,1.1c-0.8,0.2-1.6,0.2-2.5,0.2C665.9,379.2,665.6,379.2,665.3,379.1 M657.6,364.1c-2.2,0.5-4.1,1.3-5.9,2.3
				c-1.8,1-3.1,2.2-4,3.4c-0.9,1.2-1.3,2.5-1.3,3.8s0.5,2.5,1.4,3.8c0.9,1.2,2.3,2.4,4.1,3.4s3.8,1.8,5.9,2.3
				c2.1,0.5,4.3,0.8,6.5,0.8s4.4-0.2,6.5-0.8c2.1-0.5,4.1-1.3,5.9-2.3c1.8-1,3.1-2.1,4-3.4c0.9-1.2,1.3-2.5,1.3-3.8
				s-0.5-2.5-1.4-3.8c-0.9-1.2-2.3-2.4-4.1-3.4s-3.8-1.8-5.9-2.3c-2.1-0.5-4.3-0.8-6.5-0.8c0,0,0,0-0.1,0
				C661.9,363.3,659.7,363.5,657.6,364.1"/>
		</g>
	</g>
	<g>
		<g>
			
				<linearGradient id="SVGID_30_" gradientUnits="userSpaceOnUse" x1="428.3747" y1="349.8571" x2="795.6648" y2="424.033" gradientTransform="matrix(1 0 0 -1 0 895.2756)">
				<stop  offset="0" style="stop-color:#003366"/>
				<stop  offset="1" style="stop-color:#0066BA"/>
			</linearGradient>
			<path id="SVGID_60_" fill="url(#SVGID_30_)" d="M474.7,526.8c0.1,0.2,0,0.6-0.1,1.2c-0.2,0.6-0.4,1.2-0.8,2
				c-0.4,0.7-0.8,1.4-1.3,2.1c-0.5,0.7-1.1,1.2-1.6,1.5l5.1,3c0.6-0.4,1.2-0.8,1.8-1.4c0.6-0.6,1.1-1.1,1.5-1.7
				c0.4-0.6,0.8-1.2,1.1-1.7c0.3-0.6,0.4-1,0.4-1.4l12.5,7.2l-6.8,3.9l5,2.9l19.5-11.2l-5-2.9l-6.1,3.5L481.3,523L474.7,526.8z"/>
		</g>
	</g>
	<g>
		<g>
			
				<linearGradient id="SVGID_32_" gradientUnits="userSpaceOnUse" x1="425.3942" y1="364.6151" x2="792.6844" y2="438.7911" gradientTransform="matrix(1 0 0 -1 0 895.2756)">
				<stop  offset="0" style="stop-color:#003366"/>
				<stop  offset="1" style="stop-color:#0066BA"/>
			</linearGradient>
			<path id="SVGID_63_" fill="url(#SVGID_32_)" d="M527.3,515.9c-1.2-0.1-2.4-0.3-3.6-0.6c-1.2-0.4-2.3-0.9-3.4-1.5
				c-1.1-0.6-2-1.3-2.6-2c-0.6-0.7-1-1.4-1.1-2.1s0-1.3,0.3-2c0.4-0.6,1-1.2,1.9-1.7s1.8-0.9,2.9-1.1c1.1-0.2,2.2-0.3,3.4-0.2
				c1.2,0.1,2.4,0.3,3.6,0.7c1.2,0.4,2.4,0.9,3.5,1.5s2,1.3,2.6,2s1,1.4,1.1,2.1s0,1.3-0.3,2c-0.4,0.6-1,1.2-1.8,1.7
				c-0.9,0.5-1.9,0.9-3,1.1c-0.8,0.2-1.6,0.2-2.5,0.2C527.9,515.9,527.6,515.9,527.3,515.9 M519.5,500.8c-2.1,0.5-4.1,1.3-5.9,2.3
				c-1.8,1-3.1,2.2-4,3.4c-0.9,1.2-1.3,2.5-1.3,3.8s0.5,2.5,1.4,3.8c0.9,1.2,2.3,2.4,4.1,3.4c1.8,1,3.8,1.8,5.9,2.3
				c2.1,0.5,4.3,0.8,6.5,0.8s4.4-0.2,6.5-0.8c2.1-0.5,4.1-1.3,5.9-2.3c1.8-1,3.1-2.1,4-3.4c0.9-1.2,1.3-2.5,1.3-3.8
				s-0.5-2.5-1.4-3.8c-0.9-1.2-2.3-2.4-4.1-3.4s-3.8-1.8-5.9-2.3c-2.1-0.5-4.3-0.8-6.5-0.8h-0.1C523.8,500,521.7,500.3,519.5,500.8"
				/>
		</g>
	</g>
	<g>
		<g>
			
				<linearGradient id="SVGID_33_" gradientUnits="userSpaceOnUse" x1="422.85" y1="377.2126" x2="790.1403" y2="451.3885" gradientTransform="matrix(1 0 0 -1 0 895.2756)">
				<stop  offset="0" style="stop-color:#003366"/>
				<stop  offset="1" style="stop-color:#0066BA"/>
			</linearGradient>
			<path id="SVGID_66_" fill="url(#SVGID_33_)" d="M550.8,482.9c0.1,0.2,0,0.6-0.1,1.2c-0.2,0.6-0.4,1.2-0.8,2
				c-0.4,0.7-0.8,1.4-1.3,2.1s-1.1,1.2-1.6,1.5l5.1,3c0.6-0.4,1.2-0.8,1.8-1.4s1.1-1.1,1.5-1.7s0.8-1.2,1.1-1.7
				c0.3-0.6,0.4-1,0.4-1.4l12.5,7.2l-6.8,3.9l5,2.9l19.5-11.2l-5-2.9l-6.1,3.5l-18.5-10.7L550.8,482.9z"/>
		</g>
	</g>
	<g>
		<g>
			
				<linearGradient id="SVGID_35_" gradientUnits="userSpaceOnUse" x1="419.8423" y1="392.1061" x2="787.1324" y2="466.2821" gradientTransform="matrix(1 0 0 -1 0 895.2756)">
				<stop  offset="0" style="stop-color:#003366"/>
				<stop  offset="1" style="stop-color:#0066BA"/>
			</linearGradient>
			<path id="SVGID_69_" fill="url(#SVGID_35_)" d="M603.4,471.9c-1.2-0.1-2.4-0.3-3.6-0.6c-1.2-0.4-2.3-0.9-3.4-1.5
				c-1.1-0.6-2-1.3-2.6-2s-1-1.4-1.1-2.1s0-1.3,0.3-2c0.4-0.6,1-1.2,1.9-1.7s1.8-0.9,2.9-1.1c1.1-0.2,2.2-0.3,3.4-0.2
				c1.2,0.1,2.4,0.3,3.6,0.7c1.2,0.4,2.4,0.9,3.5,1.5s2,1.3,2.6,2s1,1.4,1.1,2.1s0,1.3-0.3,2c-0.4,0.6-1,1.2-1.8,1.7
				c-0.9,0.5-1.9,0.9-3,1.1c-0.8,0.2-1.6,0.2-2.5,0.2C604,472,603.7,472,603.4,471.9 M595.7,456.8c-2.1,0.5-4.1,1.3-5.9,2.3
				c-1.8,1-3.1,2.2-4,3.4c-0.9,1.2-1.3,2.5-1.3,3.8s0.5,2.5,1.4,3.8c0.9,1.2,2.3,2.4,4.1,3.4s3.8,1.8,5.9,2.3
				c2.1,0.5,4.3,0.8,6.5,0.8s4.4-0.2,6.5-0.8c2.1-0.5,4.1-1.3,5.9-2.3c1.8-1,3.1-2.1,4-3.4c0.9-1.2,1.3-2.5,1.3-3.8
				s-0.5-2.5-1.4-3.8c-0.9-1.2-2.3-2.4-4.1-3.4s-3.8-1.8-5.9-2.3c-2.1-0.5-4.3-0.8-6.5-0.8h-0.1
				C599.9,456.1,597.8,456.3,595.7,456.8"/>
		</g>
	</g>
	<g>
		<g>
			
				<linearGradient id="SVGID_36_" gradientUnits="userSpaceOnUse" x1="417.2984" y1="404.7025" x2="784.5886" y2="478.8783" gradientTransform="matrix(1 0 0 -1 0 895.2756)">
				<stop  offset="0" style="stop-color:#003366"/>
				<stop  offset="1" style="stop-color:#0066BA"/>
			</linearGradient>
			<path id="SVGID_72_" fill="url(#SVGID_36_)" d="M627,438.9c0.1,0.2,0,0.6-0.1,1.2c-0.2,0.6-0.4,1.2-0.8,2
				c-0.4,0.7-0.8,1.4-1.3,2.1s-1.1,1.2-1.6,1.5l5.1,3c0.6-0.4,1.2-0.8,1.8-1.4s1.1-1.1,1.5-1.7s0.8-1.2,1.1-1.7
				c0.3-0.6,0.4-1,0.4-1.4l12.5,7.2l-6.8,3.9l5,2.9l19.5-11.2l-5-2.9l-6.1,3.5l-18.5-10.7L627,438.9z"/>
		</g>
	</g>
	<g>
		<g>
			
				<linearGradient id="SVGID_38_" gradientUnits="userSpaceOnUse" x1="414.7388" y1="417.3768" x2="782.0289" y2="491.5526" gradientTransform="matrix(1 0 0 -1 0 895.2756)">
				<stop  offset="0" style="stop-color:#003366"/>
				<stop  offset="1" style="stop-color:#0066BA"/>
			</linearGradient>
			<path id="SVGID_75_" fill="url(#SVGID_38_)" d="M662.2,418.6c0.1,0.2,0,0.6-0.1,1.2c-0.2,0.6-0.4,1.2-0.8,2
				c-0.4,0.7-0.8,1.4-1.3,2.1s-1.1,1.2-1.6,1.5l5.1,3c0.6-0.4,1.2-0.8,1.8-1.4s1.1-1.1,1.5-1.7s0.8-1.2,1.1-1.7
				c0.3-0.6,0.4-1,0.4-1.4l12.5,7.2l-6.8,3.9l5,2.9l19.5-11.2l-5-2.9l-6.1,3.5l-18.5-10.7L662.2,418.6z"/>
		</g>
	</g>
	<g>
		<g>
			
				<linearGradient id="SVGID_40_" gradientUnits="userSpaceOnUse" x1="412.1752" y1="430.0705" x2="779.4653" y2="504.2463" gradientTransform="matrix(1 0 0 -1 0 895.2756)">
				<stop  offset="0" style="stop-color:#003366"/>
				<stop  offset="1" style="stop-color:#0066BA"/>
			</linearGradient>
			<path id="SVGID_78_" fill="url(#SVGID_40_)" d="M697.3,398.3c0.1,0.2,0,0.6-0.1,1.2c-0.2,0.6-0.4,1.2-0.8,2
				c-0.4,0.7-0.8,1.4-1.3,2.1s-1.1,1.2-1.6,1.5l5.1,3c0.6-0.4,1.2-0.8,1.8-1.4s1.1-1.1,1.5-1.7s0.8-1.2,1.1-1.7
				c0.3-0.6,0.4-1,0.4-1.4l12.5,7.2l-6.8,3.9l5,2.9l19.5-11.2l-5-2.9l-6.1,3.5L704,394.6L697.3,398.3z"/>
		</g>
	</g>
	<g>
		<g>
			
				<linearGradient id="SVGID_41_" gradientUnits="userSpaceOnUse" x1="435.8523" y1="312.8307" x2="803.1425" y2="387.0065" gradientTransform="matrix(1 0 0 -1 0 895.2756)">
				<stop  offset="0" style="stop-color:#003366"/>
				<stop  offset="1" style="stop-color:#0066BA"/>
			</linearGradient>
			<path id="SVGID_81_" fill="url(#SVGID_41_)" d="M524.1,555.3c0.1,0.2,0,0.6-0.1,1.2c-0.2,0.6-0.4,1.2-0.8,2
				c-0.4,0.7-0.8,1.4-1.3,2.1c-0.5,0.7-1.1,1.2-1.6,1.5l5.1,3c0.6-0.4,1.2-0.8,1.8-1.4c0.6-0.6,1.1-1.1,1.5-1.7
				c0.4-0.6,0.8-1.2,1.1-1.7c0.3-0.6,0.4-1,0.4-1.4l12.5,7.2l-6.8,3.9l5,2.9l19.5-11.2l-5-2.9l-6.1,3.5l-18.5-10.7L524.1,555.3z"/>
		</g>
	</g>
	<g>
		<g>
			
				<linearGradient id="SVGID_43_" gradientUnits="userSpaceOnUse" x1="432.8606" y1="327.6445" x2="800.1507" y2="401.8204" gradientTransform="matrix(1 0 0 -1 0 895.2756)">
				<stop  offset="0" style="stop-color:#003366"/>
				<stop  offset="1" style="stop-color:#0066BA"/>
			</linearGradient>
			<path id="SVGID_84_" fill="url(#SVGID_43_)" d="M576.7,544.4c-1.2-0.1-2.4-0.3-3.6-0.6c-1.2-0.4-2.3-0.9-3.4-1.5
				c-1.1-0.6-2-1.3-2.6-2s-1-1.4-1.1-2.1c-0.1-0.7,0-1.3,0.3-2c0.4-0.6,1-1.2,1.9-1.7s1.8-0.9,2.9-1.1c1.1-0.2,2.2-0.3,3.4-0.2
				s2.4,0.3,3.6,0.7c1.2,0.4,2.4,0.9,3.5,1.5s2,1.3,2.6,2s1,1.4,1.1,2.1c0.1,0.7,0,1.3-0.3,2c-0.4,0.6-1,1.2-1.8,1.7
				c-0.9,0.5-1.9,0.9-3,1.1c-0.8,0.2-1.6,0.2-2.5,0.2C577.3,544.4,577,544.4,576.7,544.4 M568.9,529.3c-2.1,0.5-4.1,1.3-5.9,2.3
				c-1.8,1-3.1,2.2-4,3.4s-1.3,2.5-1.3,3.8s0.5,2.5,1.4,3.8c0.9,1.2,2.3,2.4,4.1,3.4s3.8,1.8,5.9,2.3c2.1,0.5,4.3,0.8,6.5,0.8
				s4.4-0.2,6.5-0.8c2.1-0.5,4.1-1.3,5.9-2.3c1.8-1,3.1-2.1,4-3.4c0.9-1.2,1.3-2.5,1.3-3.8s-0.5-2.5-1.4-3.8
				c-0.9-1.2-2.3-2.4-4.1-3.4s-3.8-1.8-5.9-2.3c-2.1-0.5-4.3-0.8-6.5-0.8c0,0,0,0-0.1,0C573.2,528.6,571.1,528.8,568.9,529.3"/>
		</g>
	</g>
	<g>
		<g>
			
				<linearGradient id="SVGID_44_" gradientUnits="userSpaceOnUse" x1="430.2967" y1="340.3399" x2="797.5868" y2="414.5158" gradientTransform="matrix(1 0 0 -1 0 895.2756)">
				<stop  offset="0" style="stop-color:#003366"/>
				<stop  offset="1" style="stop-color:#0066BA"/>
			</linearGradient>
			<path id="SVGID_87_" fill="url(#SVGID_44_)" d="M600.3,511.4c0.1,0.2,0,0.6-0.1,1.2c-0.2,0.6-0.4,1.2-0.8,2
				c-0.4,0.7-0.8,1.4-1.3,2.1c-0.5,0.7-1.1,1.2-1.6,1.5l5.1,3c0.6-0.3,1.2-0.8,1.8-1.4c0.6-0.6,1.1-1.1,1.5-1.7
				c0.4-0.6,0.8-1.2,1.1-1.7c0.3-0.6,0.4-1,0.4-1.4l12.5,7.2L612,526l5,2.9l19.5-11.2l-5-2.9l-6.1,3.5l-18.5-10.7L600.3,511.4z"/>
		</g>
	</g>
	<g>
		<g>
			
				<linearGradient id="SVGID_46_" gradientUnits="userSpaceOnUse" x1="427.7448" y1="352.9759" x2="795.0349" y2="427.1517" gradientTransform="matrix(1 0 0 -1 0 895.2756)">
				<stop  offset="0" style="stop-color:#003366"/>
				<stop  offset="1" style="stop-color:#0066BA"/>
			</linearGradient>
			<path id="SVGID_90_" fill="url(#SVGID_46_)" d="M635.4,491.1c0.1,0.2,0,0.6-0.1,1.2c-0.2,0.6-0.4,1.2-0.8,2
				c-0.4,0.7-0.8,1.4-1.3,2.1s-1.1,1.2-1.6,1.5l5.1,3c0.6-0.3,1.2-0.8,1.8-1.4s1.1-1.1,1.5-1.7s0.8-1.2,1.1-1.7
				c0.3-0.6,0.4-1,0.4-1.4l12.5,7.2l-6.8,3.9l5,2.9l19.5-11.2l-5-2.9l-6.1,3.5L642,487.3L635.4,491.1z"/>
		</g>
	</g>
	<g>
		<g>
			
				<linearGradient id="SVGID_47_" gradientUnits="userSpaceOnUse" x1="425.1852" y1="365.6501" x2="792.4753" y2="439.826" gradientTransform="matrix(1 0 0 -1 0 895.2756)">
				<stop  offset="0" style="stop-color:#003366"/>
				<stop  offset="1" style="stop-color:#0066BA"/>
			</linearGradient>
			<path id="SVGID_93_" fill="url(#SVGID_47_)" d="M670.6,470.8c0.1,0.2,0,0.6-0.1,1.2c-0.2,0.6-0.4,1.2-0.8,2
				c-0.4,0.7-0.8,1.4-1.3,2.1s-1.1,1.2-1.6,1.5l5.1,3c0.6-0.4,1.2-0.8,1.8-1.4s1.1-1.1,1.5-1.7s0.8-1.2,1.1-1.7
				c0.3-0.6,0.4-1,0.4-1.4l12.5,7.2l-6.8,3.9l5,2.9l19.5-11.2l-5-2.9l-6.1,3.5L677.2,467L670.6,470.8z"/>
		</g>
	</g>
	<g>
		<g>
			
				<linearGradient id="SVGID_49_" gradientUnits="userSpaceOnUse" x1="422.1857" y1="380.5024" x2="789.4759" y2="454.6782" gradientTransform="matrix(1 0 0 -1 0 895.2756)">
				<stop  offset="0" style="stop-color:#003366"/>
				<stop  offset="1" style="stop-color:#0066BA"/>
			</linearGradient>
			<path id="SVGID_96_" fill="url(#SVGID_49_)" d="M723.2,459.8c-1.2-0.1-2.4-0.3-3.6-0.6c-1.2-0.4-2.3-0.9-3.4-1.5
				c-1.1-0.6-2-1.3-2.6-2s-1-1.4-1.1-2.1s0-1.3,0.3-2c0.4-0.6,1-1.2,1.9-1.7s1.8-0.9,2.9-1.1c1.1-0.2,2.2-0.3,3.4-0.2
				c1.2,0.1,2.4,0.3,3.6,0.7c1.2,0.4,2.4,0.9,3.5,1.5s2,1.3,2.6,2s1,1.4,1.1,2.1s0,1.3-0.3,2c-0.4,0.6-1,1.2-1.8,1.7
				c-0.9,0.5-1.9,0.9-3,1.1c-0.8,0.2-1.6,0.2-2.5,0.2C723.8,459.9,723.5,459.8,723.2,459.8 M715.4,444.7c-2.1,0.5-4.1,1.3-5.9,2.3
				c-1.8,1-3.1,2.2-4,3.4c-0.9,1.2-1.3,2.5-1.3,3.8s0.5,2.5,1.4,3.8c0.9,1.2,2.3,2.4,4.1,3.4s3.8,1.8,5.9,2.3
				c2.1,0.5,4.3,0.8,6.5,0.8s4.4-0.2,6.5-0.8c2.1-0.5,4.1-1.3,5.9-2.3c1.8-1,3.1-2.1,4-3.4c0.9-1.2,1.3-2.5,1.3-3.8
				s-0.5-2.5-1.4-3.8c-0.9-1.2-2.3-2.4-4.1-3.4s-3.8-1.8-5.9-2.3c-2.1-0.5-4.3-0.8-6.5-0.8c0,0,0,0-0.1,0
				C719.7,444,717.6,444.2,715.4,444.7"/>
		</g>
	</g>
	<g>
		<g>
			
				<linearGradient id="SVGID_50_" gradientUnits="userSpaceOnUse" x1="419.2119" y1="395.2271" x2="786.5021" y2="469.4029" gradientTransform="matrix(1 0 0 -1 0 895.2756)">
				<stop  offset="0" style="stop-color:#003366"/>
				<stop  offset="1" style="stop-color:#0066BA"/>
			</linearGradient>
			<path id="SVGID_99_" fill="url(#SVGID_50_)" d="M764.1,436.2c-1.2-0.1-2.4-0.3-3.6-0.6c-1.2-0.4-2.3-0.9-3.4-1.5
				c-1.1-0.6-2-1.3-2.6-2s-1-1.4-1.1-2.1s0-1.3,0.3-2c0.4-0.6,1-1.2,1.9-1.7s1.8-0.9,2.9-1.1c1.1-0.2,2.2-0.3,3.4-0.2
				c1.2,0.1,2.4,0.3,3.6,0.7c1.2,0.4,2.4,0.9,3.5,1.5s2,1.3,2.6,2s1,1.4,1.1,2.1s0,1.3-0.3,2c-0.4,0.6-1,1.2-1.8,1.7
				c-0.9,0.5-1.9,0.9-3,1.1c-0.8,0.2-1.6,0.2-2.5,0.2C764.7,436.2,764.4,436.2,764.1,436.2 M756.4,421.1c-2.1,0.5-4.1,1.3-5.9,2.3
				c-1.8,1-3.1,2.2-4,3.4c-0.9,1.2-1.3,2.5-1.3,3.8s0.5,2.5,1.4,3.8c0.9,1.2,2.3,2.4,4.1,3.4s3.8,1.8,5.9,2.3
				c2.1,0.5,4.3,0.8,6.5,0.8s4.4-0.2,6.5-0.8c2.1-0.5,4.1-1.3,5.9-2.3c1.8-1,3.1-2.1,4-3.4c0.9-1.2,1.3-2.5,1.3-3.8
				s-0.5-2.5-1.4-3.8c-0.9-1.2-2.3-2.4-4.1-3.4s-3.8-1.8-5.9-2.3c-2.1-0.5-4.3-0.8-6.5-0.8c0,0,0,0-0.1,0
				C760.7,420.3,758.5,420.6,756.4,421.1"/>
		</g>
	</g>
	<g>
		<g>
			
				<linearGradient id="SVGID_52_" gradientUnits="userSpaceOnUse" x1="638" y1="314.1256" x2="882.7999" y2="314.1256" gradientTransform="matrix(1 0 0 -1 0 895.2756)">
				<stop  offset="0" style="stop-color:#003366"/>
				<stop  offset="1" style="stop-color:#0066BA"/>
			</linearGradient>
			<path id="SVGID_102_" fill="url(#SVGID_52_)" d="M673.8,531.2c-2.4,1.4-4.6,2.8-6.7,4.2H638v45.7l0,0v2.2h0.1
				c0.9,17.4,12.8,34.5,35.8,47.8c47.8,27.6,125.3,27.6,173,0c22.9-13.2,34.9-30.4,35.8-47.8h0.1v-47.9h-29.1
				c-2.1-1.4-4.4-2.8-6.7-4.2c-23.9-13.8-55.2-20.7-86.5-20.7C729,510.5,697.7,517.4,673.8,531.2"/>
		</g>
	</g>
	<g>
		<g>
			
				<linearGradient id="SVGID_53_" gradientUnits="userSpaceOnUse" x1="637.95" y1="359.8256" x2="882.65" y2="359.8256" gradientTransform="matrix(1 0 0 -1 0 895.2756)">
				<stop  offset="0" style="stop-color:#003366"/>
				<stop  offset="1" style="stop-color:#0066BA"/>
			</linearGradient>
			<path id="SVGID_105_" fill="url(#SVGID_53_)" d="M673.8,485.5c-47.8,27.6-47.8,72.3,0,99.9c47.8,27.6,125.3,27.6,173,0
				c47.8-27.6,47.8-72.3,0-99.9c-23.9-13.8-55.2-20.7-86.5-20.7C729,464.8,697.7,471.7,673.8,485.5"/>
		</g>
	</g>
	<g>
		
			<linearGradient id="SVGID_55_" gradientUnits="userSpaceOnUse" x1="654.625" y1="359.8631" x2="866.075" y2="359.8631" gradientTransform="matrix(1 0 0 -1 0 895.2756)">
			<stop  offset="0" style="stop-color:#6E788C"/>
			<stop  offset="1" style="stop-color:#C8C8C8"/>
		</linearGradient>
		<path fill="url(#SVGID_55_)" d="M685.6,492.3c-41.3,23.8-41.3,62.5,0,86.3s108.2,23.8,149.5,0s41.3-62.5,0-86.3
			C793.8,468.4,726.9,468.4,685.6,492.3"/>
		<path fill="#EBEBEB" d="M690.5,502.3c0,5.2,14.1,9.5,31.5,9.5s31.5-4.2,31.5-9.5c0-5.2-14.1-9.5-31.5-9.5S690.5,497,690.5,502.3"
			/>
	</g>
	<g>
		<g>
			
				<linearGradient id="SVGID_56_" gradientUnits="userSpaceOnUse" x1="471.9" y1="236.3072" x2="681.2" y2="236.3072" gradientTransform="matrix(1 0 0 -1 0 895.2756)">
				<stop  offset="0" style="stop-color:#6E788C"/>
				<stop  offset="1" style="stop-color:#C8C8C8"/>
			</linearGradient>
			<path id="SVGID_109_" fill="url(#SVGID_56_)" d="M662.1,591.9c-0.3,0.1-0.7,0.3-1,0.5l-0.1,0.1l-189.1,109v13.7
				c2,3.8,5.3,7.4,8.9,9.5c3.2,1.9,6.2,2.2,8.2,1.1l0.5-0.3L678,616.9v-0.1c0.1,0,0.1-0.1,0.2-0.1l0.5-0.3c1.6-1,2.5-2.9,2.5-5.6
				c0-3-1.2-6.5-3.2-9.6c-2-3.3-4.9-6.2-8-8c-2-1.2-3.9-1.7-5.6-1.7C663.6,591.5,662.8,591.6,662.1,591.9"/>
		</g>
	</g>
	<g>
		
			<linearGradient id="SVGID_58_" gradientUnits="userSpaceOnUse" x1="469.6" y1="181.8657" x2="491.9551" y2="181.8657" gradientTransform="matrix(1 0 0 -1 0 895.2756)">
			<stop  offset="0" style="stop-color:#6E788C"/>
			<stop  offset="1" style="stop-color:#C8C8C8"/>
		</linearGradient>
		<path fill="url(#SVGID_58_)" d="M469.6,707c0,2.6,0.9,5.4,2.3,8.1c2,3.8,5.3,7.4,8.9,9.5c3.2,1.9,6.2,2.2,8.2,1.1l0.5-0.3
			c1.6-1,2.5-2.9,2.5-5.6c0-6.2-5-14.1-11.2-17.6c-3.6-2.1-6.8-2.2-8.9-0.7C470.5,702.6,469.6,704.4,469.6,707"/>
	</g>
</g>
</svg>
