<?xml version="1.0" encoding="utf-8"?>
<!-- Generator: Adobe Illustrator 19.2.0, SVG Export Plug-In . SVG Version: 6.00 Build 0)  -->
<svg version="1.1" id="Ebene_1" xmlns="http://www.w3.org/2000/svg" xmlns:xlink="http://www.w3.org/1999/xlink" x="0px" y="0px"
	 width="3030.4px" height="61.4px" viewBox="0 0 3030.4 61.4" style="enable-background:new 0 0 3030.4 61.4;" xml:space="preserve"
	>
<style type="text/css">
	.st0{fill:#C8C8C8;}
</style>
<g>
	<path class="st0" d="M1514.3,63.4c-0.3,0-0.5-0.2-0.5-0.5v-4.6c0-0.3,0.2-0.5,0.5-0.5c0.3,0,0.5,0.2,0.5,0.5v4.6
		C1514.8,63.2,1514.6,63.4,1514.3,63.4z M1514.3,54.3c-0.3,0-0.5-0.2-0.5-0.5v-4.6c0-0.3,0.2-0.5,0.5-0.5c0.3,0,0.5,0.2,0.5,0.5v4.6
		C1514.8,54,1514.6,54.3,1514.3,54.3z M1514.3,45.1c-0.3,0-0.5-0.2-0.5-0.5V40c0-0.3,0.2-0.5,0.5-0.5c0.3,0,0.5,0.2,0.5,0.5v4.6
		C1514.8,44.9,1514.6,45.1,1514.3,45.1z M1514.3,36c-0.3,0-0.5-0.2-0.5-0.5v-4.6c0-0.3,0.2-0.5,0.5-0.5c0.3,0,0.5,0.2,0.5,0.5v4.6
		C1514.8,35.8,1514.6,36,1514.3,36z M1514.3,26.8c-0.3,0-0.5-0.2-0.5-0.5v-4.6c0-0.3,0.2-0.5,0.5-0.5c0.3,0,0.5,0.2,0.5,0.5v4.6
		C1514.8,26.6,1514.6,26.8,1514.3,26.8z M1514.3,17.7c-0.3,0-0.5-0.2-0.5-0.5v-3.9c0-0.2,0-0.4,0-0.6c0-0.3,0.2-0.5,0.5-0.5
		c0.3,0,0.5,0.2,0.5,0.5c0,0.2,0,0.5,0,0.7v3.9C1514.8,17.5,1514.6,17.7,1514.3,17.7z M1513.2,8.7c-0.2,0-0.4-0.1-0.5-0.3
		c-0.6-1.3-1.5-2.5-2.6-3.5c-0.2-0.2-0.2-0.5,0-0.7c0.2-0.2,0.5-0.2,0.7,0c1.2,1.1,2.1,2.4,2.8,3.8c0.1,0.2,0,0.5-0.2,0.7
		C1513.3,8.7,1513.3,8.7,1513.2,8.7z M1506.6,2.7c-0.1,0-0.1,0-0.2,0c-1.3-0.5-2.6-0.7-3.9-0.7h-0.4c-0.3,0-0.5-0.2-0.5-0.5
		s0.2-0.5,0.5-0.5h0.4c1.5,0,2.9,0.3,4.3,0.8c0.3,0.1,0.4,0.4,0.3,0.6C1507,2.6,1506.8,2.7,1506.6,2.7z M1497.6,2h-4.6
		c-0.3,0-0.5-0.2-0.5-0.5s0.2-0.5,0.5-0.5h4.6c0.3,0,0.5,0.2,0.5,0.5S1497.8,2,1497.6,2z M1488.4,2h-4.6c-0.3,0-0.5-0.2-0.5-0.5
		s0.2-0.5,0.5-0.5h4.6c0.3,0,0.5,0.2,0.5,0.5S1488.7,2,1488.4,2z M1479.3,2h-4.6c-0.3,0-0.5-0.2-0.5-0.5s0.2-0.5,0.5-0.5h4.6
		c0.3,0,0.5,0.2,0.5,0.5S1479.6,2,1479.3,2z M1470.2,2h-4.6c-0.3,0-0.5-0.2-0.5-0.5s0.2-0.5,0.5-0.5h4.6c0.3,0,0.5,0.2,0.5,0.5
		S1470.4,2,1470.2,2z M1461,2h-4.6c-0.3,0-0.5-0.2-0.5-0.5s0.2-0.5,0.5-0.5h4.6c0.3,0,0.5,0.2,0.5,0.5S1461.3,2,1461,2z M1451.9,2
		h-4.6c-0.3,0-0.5-0.2-0.5-0.5s0.2-0.5,0.5-0.5h4.6c0.3,0,0.5,0.2,0.5,0.5S1452.2,2,1451.9,2z M1442.8,2h-4.6
		c-0.3,0-0.5-0.2-0.5-0.5s0.2-0.5,0.5-0.5h4.6c0.3,0,0.5,0.2,0.5,0.5S1443,2,1442.8,2z M1433.6,2h-4.6c-0.3,0-0.5-0.2-0.5-0.5
		s0.2-0.5,0.5-0.5h4.6c0.3,0,0.5,0.2,0.5,0.5S1433.9,2,1433.6,2z M1424.5,2h-4.6c-0.3,0-0.5-0.2-0.5-0.5s0.2-0.5,0.5-0.5h4.6
		c0.3,0,0.5,0.2,0.5,0.5S1424.8,2,1424.5,2z M1415.3,2h-4.6c-0.3,0-0.5-0.2-0.5-0.5s0.2-0.5,0.5-0.5h4.6c0.3,0,0.5,0.2,0.5,0.5
		S1415.6,2,1415.3,2z M1406.2,2h-4.6c-0.3,0-0.5-0.2-0.5-0.5s0.2-0.5,0.5-0.5h4.6c0.3,0,0.5,0.2,0.5,0.5S1406.5,2,1406.2,2z
		 M1397.1,2h-4.6c-0.3,0-0.5-0.2-0.5-0.5s0.2-0.5,0.5-0.5h4.6c0.3,0,0.5,0.2,0.5,0.5S1397.4,2,1397.1,2z M1387.9,2h-4.6
		c-0.3,0-0.5-0.2-0.5-0.5s0.2-0.5,0.5-0.5h4.6c0.3,0,0.5,0.2,0.5,0.5S1388.2,2,1387.9,2z M1378.8,2h-4.6c-0.3,0-0.5-0.2-0.5-0.5
		s0.2-0.5,0.5-0.5h4.6c0.3,0,0.5,0.2,0.5,0.5S1379.1,2,1378.8,2z M1369.7,2h-4.6c-0.3,0-0.5-0.2-0.5-0.5s0.2-0.5,0.5-0.5h4.6
		c0.3,0,0.5,0.2,0.5,0.5S1369.9,2,1369.7,2z M1360.5,2h-4.6c-0.3,0-0.5-0.2-0.5-0.5s0.2-0.5,0.5-0.5h4.6c0.3,0,0.5,0.2,0.5,0.5
		S1360.8,2,1360.5,2z M1351.4,2h-4.6c-0.3,0-0.5-0.2-0.5-0.5s0.2-0.5,0.5-0.5h4.6c0.3,0,0.5,0.2,0.5,0.5S1351.7,2,1351.4,2z
		 M1342.3,2h-4.6c-0.3,0-0.5-0.2-0.5-0.5s0.2-0.5,0.5-0.5h4.6c0.3,0,0.5,0.2,0.5,0.5S1342.5,2,1342.3,2z M1333.1,2h-4.6
		c-0.3,0-0.5-0.2-0.5-0.5s0.2-0.5,0.5-0.5h4.6c0.3,0,0.5,0.2,0.5,0.5S1333.4,2,1333.1,2z M1324,2h-4.6c-0.3,0-0.5-0.2-0.5-0.5
		s0.2-0.5,0.5-0.5h4.6c0.3,0,0.5,0.2,0.5,0.5S1324.3,2,1324,2z M1314.9,2h-4.6c-0.3,0-0.5-0.2-0.5-0.5s0.2-0.5,0.5-0.5h4.6
		c0.3,0,0.5,0.2,0.5,0.5S1315.1,2,1314.9,2z M1305.7,2h-4.6c-0.3,0-0.5-0.2-0.5-0.5s0.2-0.5,0.5-0.5h4.6c0.3,0,0.5,0.2,0.5,0.5
		S1306,2,1305.7,2z M1296.6,2h-4.6c-0.3,0-0.5-0.2-0.5-0.5s0.2-0.5,0.5-0.5h4.6c0.3,0,0.5,0.2,0.5,0.5S1296.9,2,1296.6,2z M1287.4,2
		h-4.6c-0.3,0-0.5-0.2-0.5-0.5s0.2-0.5,0.5-0.5h4.6c0.3,0,0.5,0.2,0.5,0.5S1287.7,2,1287.4,2z M1278.3,2h-4.6
		c-0.3,0-0.5-0.2-0.5-0.5s0.2-0.5,0.5-0.5h4.6c0.3,0,0.5,0.2,0.5,0.5S1278.6,2,1278.3,2z M1269.2,2h-4.6c-0.3,0-0.5-0.2-0.5-0.5
		s0.2-0.5,0.5-0.5h4.6c0.3,0,0.5,0.2,0.5,0.5S1269.4,2,1269.2,2z M1260,2h-4.6c-0.3,0-0.5-0.2-0.5-0.5s0.2-0.5,0.5-0.5h4.6
		c0.3,0,0.5,0.2,0.5,0.5S1260.3,2,1260,2z M1250.9,2h-4.6c-0.3,0-0.5-0.2-0.5-0.5s0.2-0.5,0.5-0.5h4.6c0.3,0,0.5,0.2,0.5,0.5
		S1251.2,2,1250.9,2z M1241.8,2h-4.6c-0.3,0-0.5-0.2-0.5-0.5s0.2-0.5,0.5-0.5h4.6c0.3,0,0.5,0.2,0.5,0.5S1242,2,1241.8,2z M1232.6,2
		h-4.6c-0.3,0-0.5-0.2-0.5-0.5s0.2-0.5,0.5-0.5h4.6c0.3,0,0.5,0.2,0.5,0.5S1232.9,2,1232.6,2z M1223.5,2h-4.6
		c-0.3,0-0.5-0.2-0.5-0.5s0.2-0.5,0.5-0.5h4.6c0.3,0,0.5,0.2,0.5,0.5S1223.8,2,1223.5,2z M1214.4,2h-4.6c-0.3,0-0.5-0.2-0.5-0.5
		s0.2-0.5,0.5-0.5h4.6c0.3,0,0.5,0.2,0.5,0.5S1214.6,2,1214.4,2z M1205.2,2h-4.6c-0.3,0-0.5-0.2-0.5-0.5s0.2-0.5,0.5-0.5h4.6
		c0.3,0,0.5,0.2,0.5,0.5S1205.5,2,1205.2,2z M1196.1,2h-4.6c-0.3,0-0.5-0.2-0.5-0.5s0.2-0.5,0.5-0.5h4.6c0.3,0,0.5,0.2,0.5,0.5
		S1196.4,2,1196.1,2z M1186.9,2h-4.6c-0.3,0-0.5-0.2-0.5-0.5s0.2-0.5,0.5-0.5h4.6c0.3,0,0.5,0.2,0.5,0.5S1187.2,2,1186.9,2z
		 M1177.8,2h-4.6c-0.3,0-0.5-0.2-0.5-0.5s0.2-0.5,0.5-0.5h4.6c0.3,0,0.5,0.2,0.5,0.5S1178.1,2,1177.8,2z M1168.7,2h-4.6
		c-0.3,0-0.5-0.2-0.5-0.5s0.2-0.5,0.5-0.5h4.6c0.3,0,0.5,0.2,0.5,0.5S1169,2,1168.7,2z M1159.5,2h-4.6c-0.3,0-0.5-0.2-0.5-0.5
		s0.2-0.5,0.5-0.5h4.6c0.3,0,0.5,0.2,0.5,0.5S1159.8,2,1159.5,2z M1150.4,2h-4.6c-0.3,0-0.5-0.2-0.5-0.5s0.2-0.5,0.5-0.5h4.6
		c0.3,0,0.5,0.2,0.5,0.5S1150.7,2,1150.4,2z M1141.3,2h-4.6c-0.3,0-0.5-0.2-0.5-0.5s0.2-0.5,0.5-0.5h4.6c0.3,0,0.5,0.2,0.5,0.5
		S1141.5,2,1141.3,2z M1132.1,2h-4.6c-0.3,0-0.5-0.2-0.5-0.5s0.2-0.5,0.5-0.5h4.6c0.3,0,0.5,0.2,0.5,0.5S1132.4,2,1132.1,2z M1123,2
		h-4.6c-0.3,0-0.5-0.2-0.5-0.5s0.2-0.5,0.5-0.5h4.6c0.3,0,0.5,0.2,0.5,0.5S1123.3,2,1123,2z M1113.9,2h-4.6c-0.3,0-0.5-0.2-0.5-0.5
		s0.2-0.5,0.5-0.5h4.6c0.3,0,0.5,0.2,0.5,0.5S1114.1,2,1113.9,2z M1104.7,2h-4.6c-0.3,0-0.5-0.2-0.5-0.5s0.2-0.5,0.5-0.5h4.6
		c0.3,0,0.5,0.2,0.5,0.5S1105,2,1104.7,2z M1095.6,2h-4.6c-0.3,0-0.5-0.2-0.5-0.5s0.2-0.5,0.5-0.5h4.6c0.3,0,0.5,0.2,0.5,0.5
		S1095.9,2,1095.6,2z M1086.5,2h-4.6c-0.3,0-0.5-0.2-0.5-0.5s0.2-0.5,0.5-0.5h4.6c0.3,0,0.5,0.2,0.5,0.5S1086.7,2,1086.5,2z
		 M1077.3,2h-4.6c-0.3,0-0.5-0.2-0.5-0.5s0.2-0.5,0.5-0.5h4.6c0.3,0,0.5,0.2,0.5,0.5S1077.6,2,1077.3,2z M1068.2,2h-4.6
		c-0.3,0-0.5-0.2-0.5-0.5s0.2-0.5,0.5-0.5h4.6c0.3,0,0.5,0.2,0.5,0.5S1068.5,2,1068.2,2z M1059,2h-4.6c-0.3,0-0.5-0.2-0.5-0.5
		s0.2-0.5,0.5-0.5h4.6c0.3,0,0.5,0.2,0.5,0.5S1059.3,2,1059,2z M1049.9,2h-4.6c-0.3,0-0.5-0.2-0.5-0.5s0.2-0.5,0.5-0.5h4.6
		c0.3,0,0.5,0.2,0.5,0.5S1050.2,2,1049.9,2z M1040.8,2h-4.6c-0.3,0-0.5-0.2-0.5-0.5s0.2-0.5,0.5-0.5h4.6c0.3,0,0.5,0.2,0.5,0.5
		S1041,2,1040.8,2z M1031.6,2h-4.6c-0.3,0-0.5-0.2-0.5-0.5s0.2-0.5,0.5-0.5h4.6c0.3,0,0.5,0.2,0.5,0.5S1031.9,2,1031.6,2z M1022.5,2
		h-4.6c-0.3,0-0.5-0.2-0.5-0.5s0.2-0.5,0.5-0.5h4.6c0.3,0,0.5,0.2,0.5,0.5S1022.8,2,1022.5,2z M1013.4,2h-4.6
		c-0.3,0-0.5-0.2-0.5-0.5s0.2-0.5,0.5-0.5h4.6c0.3,0,0.5,0.2,0.5,0.5S1013.6,2,1013.4,2z M1004.2,2h-4.6c-0.3,0-0.5-0.2-0.5-0.5
		s0.2-0.5,0.5-0.5h4.6c0.3,0,0.5,0.2,0.5,0.5S1004.5,2,1004.2,2z M995.1,2h-4.6c-0.3,0-0.5-0.2-0.5-0.5s0.2-0.5,0.5-0.5h4.6
		c0.3,0,0.5,0.2,0.5,0.5S995.4,2,995.1,2z M986,2h-4.6c-0.3,0-0.5-0.2-0.5-0.5s0.2-0.5,0.5-0.5h4.6c0.3,0,0.5,0.2,0.5,0.5
		S986.2,2,986,2z M976.8,2h-4.6c-0.3,0-0.5-0.2-0.5-0.5S972,1,972.3,1h4.6c0.3,0,0.5,0.2,0.5,0.5S977.1,2,976.8,2z M967.7,2h-4.6
		c-0.3,0-0.5-0.2-0.5-0.5s0.2-0.5,0.5-0.5h4.6c0.3,0,0.5,0.2,0.5,0.5S968,2,967.7,2z M958.5,2H954c-0.3,0-0.5-0.2-0.5-0.5
		S953.7,1,954,1h4.6c0.3,0,0.5,0.2,0.5,0.5S958.8,2,958.5,2z M949.4,2h-4.6c-0.3,0-0.5-0.2-0.5-0.5s0.2-0.5,0.5-0.5h4.6
		c0.3,0,0.5,0.2,0.5,0.5S949.7,2,949.4,2z M940.3,2h-4.6c-0.3,0-0.5-0.2-0.5-0.5s0.2-0.5,0.5-0.5h4.6c0.3,0,0.5,0.2,0.5,0.5
		S940.6,2,940.3,2z M931.1,2h-4.6c-0.3,0-0.5-0.2-0.5-0.5s0.2-0.5,0.5-0.5h4.6c0.3,0,0.5,0.2,0.5,0.5S931.4,2,931.1,2z M922,2h-4.6
		c-0.3,0-0.5-0.2-0.5-0.5s0.2-0.5,0.5-0.5h4.6c0.3,0,0.5,0.2,0.5,0.5S922.3,2,922,2z M912.9,2h-4.6c-0.3,0-0.5-0.2-0.5-0.5
		S908,1,908.3,1h4.6c0.3,0,0.5,0.2,0.5,0.5S913.1,2,912.9,2z M903.7,2h-4.6c-0.3,0-0.5-0.2-0.5-0.5s0.2-0.5,0.5-0.5h4.6
		c0.3,0,0.5,0.2,0.5,0.5S904,2,903.7,2z M894.6,2H890c-0.3,0-0.5-0.2-0.5-0.5S889.8,1,890,1h4.6c0.3,0,0.5,0.2,0.5,0.5
		S894.9,2,894.6,2z M885.5,2h-4.6c-0.3,0-0.5-0.2-0.5-0.5s0.2-0.5,0.5-0.5h4.6c0.3,0,0.5,0.2,0.5,0.5S885.7,2,885.5,2z M876.3,2
		h-4.6c-0.3,0-0.5-0.2-0.5-0.5s0.2-0.5,0.5-0.5h4.6c0.3,0,0.5,0.2,0.5,0.5S876.6,2,876.3,2z M867.2,2h-4.6c-0.3,0-0.5-0.2-0.5-0.5
		s0.2-0.5,0.5-0.5h4.6c0.3,0,0.5,0.2,0.5,0.5S867.5,2,867.2,2z M858.1,2h-4.6c-0.3,0-0.5-0.2-0.5-0.5s0.2-0.5,0.5-0.5h4.6
		c0.3,0,0.5,0.2,0.5,0.5S858.3,2,858.1,2z M848.9,2h-4.6c-0.3,0-0.5-0.2-0.5-0.5s0.2-0.5,0.5-0.5h4.6c0.3,0,0.5,0.2,0.5,0.5
		S849.2,2,848.9,2z M839.8,2h-4.6c-0.3,0-0.5-0.2-0.5-0.5s0.2-0.5,0.5-0.5h4.6c0.3,0,0.5,0.2,0.5,0.5S840.1,2,839.8,2z M830.6,2
		h-4.6c-0.3,0-0.5-0.2-0.5-0.5s0.2-0.5,0.5-0.5h4.6c0.3,0,0.5,0.2,0.5,0.5S830.9,2,830.6,2z M821.5,2h-4.6c-0.3,0-0.5-0.2-0.5-0.5
		s0.2-0.5,0.5-0.5h4.6c0.3,0,0.5,0.2,0.5,0.5S821.8,2,821.5,2z M812.4,2h-4.6c-0.3,0-0.5-0.2-0.5-0.5s0.2-0.5,0.5-0.5h4.6
		c0.3,0,0.5,0.2,0.5,0.5S812.6,2,812.4,2z M803.2,2h-4.6c-0.3,0-0.5-0.2-0.5-0.5s0.2-0.5,0.5-0.5h4.6c0.3,0,0.5,0.2,0.5,0.5
		S803.5,2,803.2,2z M794.1,2h-4.6c-0.3,0-0.5-0.2-0.5-0.5s0.2-0.5,0.5-0.5h4.6c0.3,0,0.5,0.2,0.5,0.5S794.4,2,794.1,2z M785,2h-4.6
		c-0.3,0-0.5-0.2-0.5-0.5s0.2-0.5,0.5-0.5h4.6c0.3,0,0.5,0.2,0.5,0.5S785.2,2,785,2z M775.8,2h-4.6c-0.3,0-0.5-0.2-0.5-0.5
		S771,1,771.3,1h4.6c0.3,0,0.5,0.2,0.5,0.5S776.1,2,775.8,2z M766.7,2h-4.6c-0.3,0-0.5-0.2-0.5-0.5s0.2-0.5,0.5-0.5h4.6
		c0.3,0,0.5,0.2,0.5,0.5S767,2,766.7,2z M757.6,2H753c-0.3,0-0.5-0.2-0.5-0.5S752.7,1,753,1h4.6c0.3,0,0.5,0.2,0.5,0.5
		S757.8,2,757.6,2z M748.4,2h-4.6c-0.3,0-0.5-0.2-0.5-0.5s0.2-0.5,0.5-0.5h4.6c0.3,0,0.5,0.2,0.5,0.5S748.7,2,748.4,2z M739.3,2
		h-4.6c-0.3,0-0.5-0.2-0.5-0.5s0.2-0.5,0.5-0.5h4.6c0.3,0,0.5,0.2,0.5,0.5S739.6,2,739.3,2z M730.1,2h-4.6c-0.3,0-0.5-0.2-0.5-0.5
		s0.2-0.5,0.5-0.5h4.6c0.3,0,0.5,0.2,0.5,0.5S730.4,2,730.1,2z M721,2h-4.6c-0.3,0-0.5-0.2-0.5-0.5s0.2-0.5,0.5-0.5h4.6
		c0.3,0,0.5,0.2,0.5,0.5S721.3,2,721,2z M711.9,2h-4.6c-0.3,0-0.5-0.2-0.5-0.5S707,1,707.3,1h4.6c0.3,0,0.5,0.2,0.5,0.5
		S712.2,2,711.9,2z M702.7,2h-4.6c-0.3,0-0.5-0.2-0.5-0.5s0.2-0.5,0.5-0.5h4.6c0.3,0,0.5,0.2,0.5,0.5S703,2,702.7,2z M693.6,2H689
		c-0.3,0-0.5-0.2-0.5-0.5S688.8,1,689,1h4.6c0.3,0,0.5,0.2,0.5,0.5S693.9,2,693.6,2z M684.5,2h-4.6c-0.3,0-0.5-0.2-0.5-0.5
		s0.2-0.5,0.5-0.5h4.6c0.3,0,0.5,0.2,0.5,0.5S684.7,2,684.5,2z M675.3,2h-4.6c-0.3,0-0.5-0.2-0.5-0.5s0.2-0.5,0.5-0.5h4.6
		c0.3,0,0.5,0.2,0.5,0.5S675.6,2,675.3,2z M666.2,2h-4.6c-0.3,0-0.5-0.2-0.5-0.5s0.2-0.5,0.5-0.5h4.6c0.3,0,0.5,0.2,0.5,0.5
		S666.5,2,666.2,2z M657.1,2h-4.6c-0.3,0-0.5-0.2-0.5-0.5s0.2-0.5,0.5-0.5h4.6c0.3,0,0.5,0.2,0.5,0.5S657.3,2,657.1,2z M647.9,2
		h-4.6c-0.3,0-0.5-0.2-0.5-0.5s0.2-0.5,0.5-0.5h4.6c0.3,0,0.5,0.2,0.5,0.5S648.2,2,647.9,2z M638.8,2h-4.6c-0.3,0-0.5-0.2-0.5-0.5
		s0.2-0.5,0.5-0.5h4.6c0.3,0,0.5,0.2,0.5,0.5S639.1,2,638.8,2z M629.7,2h-4.6c-0.3,0-0.5-0.2-0.5-0.5s0.2-0.5,0.5-0.5h4.6
		c0.3,0,0.5,0.2,0.5,0.5S629.9,2,629.7,2z M620.5,2h-4.6c-0.3,0-0.5-0.2-0.5-0.5s0.2-0.5,0.5-0.5h4.6c0.3,0,0.5,0.2,0.5,0.5
		S620.8,2,620.5,2z M611.4,2h-4.6c-0.3,0-0.5-0.2-0.5-0.5s0.2-0.5,0.5-0.5h4.6c0.3,0,0.5,0.2,0.5,0.5S611.7,2,611.4,2z M602.2,2
		h-4.6c-0.3,0-0.5-0.2-0.5-0.5s0.2-0.5,0.5-0.5h4.6c0.3,0,0.5,0.2,0.5,0.5S602.5,2,602.2,2z M593.1,2h-4.6c-0.3,0-0.5-0.2-0.5-0.5
		s0.2-0.5,0.5-0.5h4.6c0.3,0,0.5,0.2,0.5,0.5S593.4,2,593.1,2z M584,2h-4.6c-0.3,0-0.5-0.2-0.5-0.5s0.2-0.5,0.5-0.5h4.6
		c0.3,0,0.5,0.2,0.5,0.5S584.2,2,584,2z M574.8,2h-4.6c-0.3,0-0.5-0.2-0.5-0.5S570,1,570.3,1h4.6c0.3,0,0.5,0.2,0.5,0.5
		S575.1,2,574.8,2z M565.7,2h-4.6c-0.3,0-0.5-0.2-0.5-0.5s0.2-0.5,0.5-0.5h4.6c0.3,0,0.5,0.2,0.5,0.5S566,2,565.7,2z M556.6,2H552
		c-0.3,0-0.5-0.2-0.5-0.5S551.7,1,552,1h4.6c0.3,0,0.5,0.2,0.5,0.5S556.8,2,556.6,2z M547.4,2h-4.6c-0.3,0-0.5-0.2-0.5-0.5
		s0.2-0.5,0.5-0.5h4.6c0.3,0,0.5,0.2,0.5,0.5S547.7,2,547.4,2z M538.3,2h-4.6c-0.3,0-0.5-0.2-0.5-0.5s0.2-0.5,0.5-0.5h4.6
		c0.3,0,0.5,0.2,0.5,0.5S538.6,2,538.3,2z M529.2,2h-4.6c-0.3,0-0.5-0.2-0.5-0.5s0.2-0.5,0.5-0.5h4.6c0.3,0,0.5,0.2,0.5,0.5
		S529.4,2,529.2,2z M520,2h-4.6c-0.3,0-0.5-0.2-0.5-0.5s0.2-0.5,0.5-0.5h4.6c0.3,0,0.5,0.2,0.5,0.5S520.3,2,520,2z M510.9,2h-4.6
		c-0.3,0-0.5-0.2-0.5-0.5S506,1,506.3,1h4.6c0.3,0,0.5,0.2,0.5,0.5S511.2,2,510.9,2z M501.7,2h-4.6c-0.3,0-0.5-0.2-0.5-0.5
		s0.2-0.5,0.5-0.5h4.6c0.3,0,0.5,0.2,0.5,0.5S502,2,501.7,2z M492.6,2H488c-0.3,0-0.5-0.2-0.5-0.5S487.8,1,488,1h4.6
		c0.3,0,0.5,0.2,0.5,0.5S492.9,2,492.6,2z M483.5,2h-4.6c-0.3,0-0.5-0.2-0.5-0.5s0.2-0.5,0.5-0.5h4.6c0.3,0,0.5,0.2,0.5,0.5
		S483.8,2,483.5,2z M474.3,2h-4.6c-0.3,0-0.5-0.2-0.5-0.5s0.2-0.5,0.5-0.5h4.6c0.3,0,0.5,0.2,0.5,0.5S474.6,2,474.3,2z M465.2,2
		h-4.6c-0.3,0-0.5-0.2-0.5-0.5s0.2-0.5,0.5-0.5h4.6c0.3,0,0.5,0.2,0.5,0.5S465.5,2,465.2,2z M456.1,2h-4.6c-0.3,0-0.5-0.2-0.5-0.5
		s0.2-0.5,0.5-0.5h4.6c0.3,0,0.5,0.2,0.5,0.5S456.3,2,456.1,2z M446.9,2h-4.6c-0.3,0-0.5-0.2-0.5-0.5s0.2-0.5,0.5-0.5h4.6
		c0.3,0,0.5,0.2,0.5,0.5S447.2,2,446.9,2z M437.8,2h-4.6c-0.3,0-0.5-0.2-0.5-0.5S433,1,433.2,1h4.6c0.3,0,0.5,0.2,0.5,0.5
		S438.1,2,437.8,2z M428.7,2h-4.6c-0.3,0-0.5-0.2-0.5-0.5s0.2-0.5,0.5-0.5h4.6c0.3,0,0.5,0.2,0.5,0.5S428.9,2,428.7,2z M419.5,2H415
		c-0.3,0-0.5-0.2-0.5-0.5S414.7,1,415,1h4.6c0.3,0,0.5,0.2,0.5,0.5S419.8,2,419.5,2z M410.4,2h-4.6c-0.3,0-0.5-0.2-0.5-0.5
		s0.2-0.5,0.5-0.5h4.6c0.3,0,0.5,0.2,0.5,0.5S410.7,2,410.4,2z M401.3,2h-4.6c-0.3,0-0.5-0.2-0.5-0.5s0.2-0.5,0.5-0.5h4.6
		c0.3,0,0.5,0.2,0.5,0.5S401.5,2,401.3,2z M392.1,2h-4.6c-0.3,0-0.5-0.2-0.5-0.5s0.2-0.5,0.5-0.5h4.6c0.3,0,0.5,0.2,0.5,0.5
		S392.4,2,392.1,2z M383,2h-4.6c-0.3,0-0.5-0.2-0.5-0.5s0.2-0.5,0.5-0.5h4.6c0.3,0,0.5,0.2,0.5,0.5S383.3,2,383,2z M373.8,2h-4.6
		c-0.3,0-0.5-0.2-0.5-0.5S369,1,369.3,1h4.6c0.3,0,0.5,0.2,0.5,0.5S374.1,2,373.8,2z M364.7,2h-4.6c-0.3,0-0.5-0.2-0.5-0.5
		s0.2-0.5,0.5-0.5h4.6c0.3,0,0.5,0.2,0.5,0.5S365,2,364.7,2z M355.6,2H351c-0.3,0-0.5-0.2-0.5-0.5S350.7,1,351,1h4.6
		c0.3,0,0.5,0.2,0.5,0.5S355.8,2,355.6,2z M346.4,2h-4.6c-0.3,0-0.5-0.2-0.5-0.5s0.2-0.5,0.5-0.5h4.6c0.3,0,0.5,0.2,0.5,0.5
		S346.7,2,346.4,2z M337.3,2h-4.6c-0.3,0-0.5-0.2-0.5-0.5s0.2-0.5,0.5-0.5h4.6c0.3,0,0.5,0.2,0.5,0.5S337.6,2,337.3,2z M328.2,2
		h-4.6c-0.3,0-0.5-0.2-0.5-0.5s0.2-0.5,0.5-0.5h4.6c0.3,0,0.5,0.2,0.5,0.5S328.4,2,328.2,2z M319,2h-4.6c-0.3,0-0.5-0.2-0.5-0.5
		s0.2-0.5,0.5-0.5h4.6c0.3,0,0.5,0.2,0.5,0.5S319.3,2,319,2z M309.9,2h-4.6c-0.3,0-0.5-0.2-0.5-0.5S305,1,305.3,1h4.6
		c0.3,0,0.5,0.2,0.5,0.5S310.2,2,309.9,2z M300.8,2h-4.6c-0.3,0-0.5-0.2-0.5-0.5s0.2-0.5,0.5-0.5h4.6c0.3,0,0.5,0.2,0.5,0.5
		S301,2,300.8,2z M291.6,2h-4.6c-0.3,0-0.5-0.2-0.5-0.5s0.2-0.5,0.5-0.5h4.6c0.3,0,0.5,0.2,0.5,0.5S291.9,2,291.6,2z M282.5,2h-4.6
		c-0.3,0-0.5-0.2-0.5-0.5s0.2-0.5,0.5-0.5h4.6c0.3,0,0.5,0.2,0.5,0.5S282.8,2,282.5,2z M273.3,2h-4.6c-0.3,0-0.5-0.2-0.5-0.5
		s0.2-0.5,0.5-0.5h4.6c0.3,0,0.5,0.2,0.5,0.5S273.6,2,273.3,2z M264.2,2h-4.6c-0.3,0-0.5-0.2-0.5-0.5s0.2-0.5,0.5-0.5h4.6
		c0.3,0,0.5,0.2,0.5,0.5S264.5,2,264.2,2z M255.1,2h-4.6c-0.3,0-0.5-0.2-0.5-0.5s0.2-0.5,0.5-0.5h4.6c0.3,0,0.5,0.2,0.5,0.5
		S255.4,2,255.1,2z M245.9,2h-4.6c-0.3,0-0.5-0.2-0.5-0.5s0.2-0.5,0.5-0.5h4.6c0.3,0,0.5,0.2,0.5,0.5S246.2,2,245.9,2z M236.8,2
		h-4.6c-0.3,0-0.5-0.2-0.5-0.5S232,1,232.2,1h4.6c0.3,0,0.5,0.2,0.5,0.5S237.1,2,236.8,2z M227.7,2h-4.6c-0.3,0-0.5-0.2-0.5-0.5
		s0.2-0.5,0.5-0.5h4.6c0.3,0,0.5,0.2,0.5,0.5S227.9,2,227.7,2z M218.5,2H214c-0.3,0-0.5-0.2-0.5-0.5S213.7,1,214,1h4.6
		c0.3,0,0.5,0.2,0.5,0.5S218.8,2,218.5,2z M209.4,2h-4.6c-0.3,0-0.5-0.2-0.5-0.5s0.2-0.5,0.5-0.5h4.6c0.3,0,0.5,0.2,0.5,0.5
		S209.7,2,209.4,2z M200.3,2h-4.6c-0.3,0-0.5-0.2-0.5-0.5s0.2-0.5,0.5-0.5h4.6c0.3,0,0.5,0.2,0.5,0.5S200.5,2,200.3,2z M191.1,2
		h-4.6c-0.3,0-0.5-0.2-0.5-0.5s0.2-0.5,0.5-0.5h4.6c0.3,0,0.5,0.2,0.5,0.5S191.4,2,191.1,2z M182,2h-4.6c-0.3,0-0.5-0.2-0.5-0.5
		s0.2-0.5,0.5-0.5h4.6c0.3,0,0.5,0.2,0.5,0.5S182.3,2,182,2z M172.9,2h-4.6c-0.3,0-0.5-0.2-0.5-0.5S168,1,168.3,1h4.6
		c0.3,0,0.5,0.2,0.5,0.5S173.1,2,172.9,2z M163.7,2h-4.6c-0.3,0-0.5-0.2-0.5-0.5s0.2-0.5,0.5-0.5h4.6c0.3,0,0.5,0.2,0.5,0.5
		S164,2,163.7,2z M154.6,2H150c-0.3,0-0.5-0.2-0.5-0.5S149.7,1,150,1h4.6c0.3,0,0.5,0.2,0.5,0.5S154.9,2,154.6,2z M145.4,2h-4.6
		c-0.3,0-0.5-0.2-0.5-0.5s0.2-0.5,0.5-0.5h4.6c0.3,0,0.5,0.2,0.5,0.5S145.7,2,145.4,2z M136.3,2h-4.6c-0.3,0-0.5-0.2-0.5-0.5
		s0.2-0.5,0.5-0.5h4.6c0.3,0,0.5,0.2,0.5,0.5S136.6,2,136.3,2z M127.2,2h-4.6c-0.3,0-0.5-0.2-0.5-0.5s0.2-0.5,0.5-0.5h4.6
		c0.3,0,0.5,0.2,0.5,0.5S127.5,2,127.2,2z M118,2h-4.6c-0.3,0-0.5-0.2-0.5-0.5s0.2-0.5,0.5-0.5h4.6c0.3,0,0.5,0.2,0.5,0.5
		S118.3,2,118,2z M108.9,2h-4.6c-0.3,0-0.5-0.2-0.5-0.5s0.2-0.5,0.5-0.5h4.6c0.3,0,0.5,0.2,0.5,0.5S109.2,2,108.9,2z M99.8,2h-4.6
		c-0.3,0-0.5-0.2-0.5-0.5S94.9,1,95.2,1h4.6c0.3,0,0.5,0.2,0.5,0.5S100,2,99.8,2z M90.6,2h-4.6c-0.3,0-0.5-0.2-0.5-0.5
		S85.8,1,86.1,1h4.6c0.3,0,0.5,0.2,0.5,0.5S90.9,2,90.6,2z M81.5,2h-4.6c-0.3,0-0.5-0.2-0.5-0.5S76.6,1,76.9,1h4.6
		C81.8,1,82,1.2,82,1.5S81.8,2,81.5,2z M72.4,2h-4.6c-0.3,0-0.5-0.2-0.5-0.5S67.5,1,67.8,1h4.6c0.3,0,0.5,0.2,0.5,0.5S72.6,2,72.4,2
		z M63.2,2h-4.6c-0.3,0-0.5-0.2-0.5-0.5S58.4,1,58.7,1h4.6c0.3,0,0.5,0.2,0.5,0.5S63.5,2,63.2,2z M54.1,2h-4.6C49.2,2,49,1.8,49,1.5
		S49.2,1,49.5,1h4.6c0.3,0,0.5,0.2,0.5,0.5S54.4,2,54.1,2z M44.9,2h-4.6c-0.3,0-0.5-0.2-0.5-0.5S40.1,1,40.4,1h4.6
		c0.3,0,0.5,0.2,0.5,0.5S45.2,2,44.9,2z M35.8,2h-4.6c-0.3,0-0.5-0.2-0.5-0.5S31,1,31.2,1h4.6c0.3,0,0.5,0.2,0.5,0.5S36.1,2,35.8,2z
		 M26.7,2h-4.6c-0.3,0-0.5-0.2-0.5-0.5S21.8,1,22.1,1h4.6c0.3,0,0.5,0.2,0.5,0.5S27,2,26.7,2z M17.5,2H17c-0.3,0-0.5-0.2-0.5-0.5
		S16.7,1,17,1h0.5C17.8,1,18,1.2,18,1.5S17.8,2,17.5,2z"/>
</g>
</svg>
