<?xml version="1.0" encoding="utf-8"?>
<!-- Generator: Adobe Illustrator 19.2.0, SVG Export Plug-In . SVG Version: 6.00 Build 0)  -->
<svg version="1.1" id="Ebene_1" xmlns="http://www.w3.org/2000/svg" xmlns:xlink="http://www.w3.org/1999/xlink" x="0px" y="0px"
	 width="395.2px" height="1674px" viewBox="0 0 395.2 1674" style="enable-background:new 0 0 395.2 1674;" xml:space="preserve">
<metadata><?xpacket begin="﻿" id="W5M0MpCehiHzreSzNTczkc9d"?>
<x:xmpmeta xmlns:x="adobe:ns:meta/" x:xmptk="Adobe XMP Core 5.6-c111 79.158366, 2015/09/25-01:12:00        ">
   <rdf:RDF xmlns:rdf="http://www.w3.org/1999/02/22-rdf-syntax-ns#">
      <rdf:Description rdf:about=""
            xmlns:ExtensisFontSense="http://www.extensis.com/meta/FontSense/">
         <ExtensisFontSense:slug>
            <rdf:Bag>
               <rdf:li>
                  <rdf:Description>
                     <ExtensisFontSense:Family>Arial</ExtensisFontSense:Family>
                     <ExtensisFontSense:Version>5.06</ExtensisFontSense:Version>
                     <ExtensisFontSense:OutlineFileSize>0</ExtensisFontSense:OutlineFileSize>
                     <ExtensisFontSense:KerningChecksum>0</ExtensisFontSense:KerningChecksum>
                     <ExtensisFontSense:Foundry>Monotype Typography</ExtensisFontSense:Foundry>
                     <ExtensisFontSense:FontKind>OpenType - TT</ExtensisFontSense:FontKind>
                     <ExtensisFontSense:Checksum>1252007918</ExtensisFontSense:Checksum>
                     <ExtensisFontSense:PostScriptName>ArialMT</ExtensisFontSense:PostScriptName>
                     <ExtensisFontSense:FontSense_1.2_Checksum>1252007918</ExtensisFontSense:FontSense_1.2_Checksum>
                  </rdf:Description>
               </rdf:li>
            </rdf:Bag>
         </ExtensisFontSense:slug>
      </rdf:Description>
   </rdf:RDF>
</x:xmpmeta>
                                                                                                    
                                                                                                    
                                                                                                    
                                                                                                    
                                                                                                    
                                                                                                    
                                                                                                    
                                                                                                    
                                                                                                    
                                                                                                    
                                                                                                    
                                                                                                    
                                                                                                    
                                                                                                    
                                                                                                    
                                                                                                    
                                                                                                    
                                                                                                    
                                                                                                    
                                                                                                    
                           
<?xpacket end="w"?></metadata>
<style type="text/css">
	.st0{fill:#79B641;}
	.st1{fill:#C8C8C8;}
	.st2{fill:#004C91;}
	.st3{fill:#004C92;}
	.st4{font-family:'ArialMT';}
	.st5{font-size:10.9637px;}
</style>
<path class="st0" d="M186.4,168.9h-44.3c-0.8,0-1.5-0.7-1.5-1.5V142c0-0.8,0.7-1.5,1.5-1.5h44.3c0.8,0,1.5,0.7,1.5,1.5v25.5
	C187.9,168.3,187.2,168.9,186.4,168.9z M142.1,141.5c-0.3,0-0.5,0.2-0.5,0.5v25.5c0,0.3,0.2,0.5,0.5,0.5h44.3c0.3,0,0.5-0.2,0.5-0.5
	V142c0-0.3-0.2-0.5-0.5-0.5H142.1z"/>
<path class="st0" d="M186.4,168.9h-44.3c-0.8,0-1.5-0.7-1.5-1.5V142c0-0.8,0.7-1.5,1.5-1.5h44.3c0.8,0,1.5,0.7,1.5,1.5v25.5
	C187.9,168.3,187.2,168.9,186.4,168.9z M142.1,141.5c-0.3,0-0.5,0.2-0.5,0.5v25.5c0,0.3,0.2,0.5,0.5,0.5h44.3c0.3,0,0.5-0.2,0.5-0.5
	V142c0-0.3-0.2-0.5-0.5-0.5H142.1z"/>
<path class="st0" d="M164.3,158.1c-0.1,0-0.2,0-0.3-0.1l-22.1-16.6c-0.2-0.2-0.3-0.5-0.1-0.7s0.5-0.3,0.7-0.1l21.8,16.4l22.3-16.2
	c0.2-0.2,0.5-0.1,0.7,0.1c0.2,0.2,0.1,0.5-0.1,0.7L164.6,158C164.5,158.1,164.4,158.1,164.3,158.1z"/>
<path class="st0" d="M164.3,158.1c-0.1,0-0.2,0-0.3-0.1l-22.1-16.6c-0.2-0.2-0.3-0.5-0.1-0.7s0.5-0.3,0.7-0.1l21.8,16.4l22.3-16.2
	c0.2-0.2,0.5-0.1,0.7,0.1c0.2,0.2,0.1,0.5-0.1,0.7L164.6,158C164.5,158.1,164.4,158.1,164.3,158.1z"/>
<g>
	<path class="st0" d="M195.6,334.8h-19.3c-7.3,0-13.3-6-13.3-13.3v-14.6c0-0.3,0.2-0.5,0.5-0.5s0.5,0.2,0.5,0.5v14.6
		c0,6.8,5.5,12.3,12.3,12.3h19.3c0.3,0,0.5,0.2,0.5,0.5S195.9,334.8,195.6,334.8z"/>
	<g>
		<polygon class="st0" points="192.3,330.2 191.6,330.9 195.2,334.3 191.6,337.6 192.3,338.3 196.7,334.3 		"/>
	</g>
</g>
<g>
	<path class="st0" d="M283.4,436.3H165.9c-7.3,0-13.3-6-13.3-13.3v-19.3c0-0.3,0.2-0.5,0.5-0.5s0.5,0.2,0.5,0.5V423
		c0,6.8,5.5,12.3,12.3,12.3h117.5c0.3,0,0.5,0.2,0.5,0.5S283.7,436.3,283.4,436.3z"/>
	<g>
		<polygon class="st0" points="149,407.1 149.8,407.7 153.1,404.1 156.5,407.7 157.2,407.1 153.1,402.7 		"/>
	</g>
</g>
<path class="st1" d="M229.1,613.7h-4.6c-0.3,0-0.5-0.2-0.5-0.5s0.2-0.5,0.5-0.5h4.6c0.3,0,0.5,0.2,0.5,0.5S229.4,613.7,229.1,613.7z
	 M220,613.7h-4.6c-0.3,0-0.5-0.2-0.5-0.5s0.2-0.5,0.5-0.5h4.6c0.3,0,0.5,0.2,0.5,0.5S220.2,613.7,220,613.7z M210.8,613.7h-4.6
	c-0.3,0-0.5-0.2-0.5-0.5s0.2-0.5,0.5-0.5h4.6c0.3,0,0.5,0.2,0.5,0.5S211.1,613.7,210.8,613.7z M201.7,613.7L201.7,613.7
	c-1.6-0.1-3.2-0.6-4.6-1.3c-0.2-0.1-0.3-0.4-0.2-0.7c0.1-0.2,0.4-0.3,0.7-0.2c1.3,0.7,2.7,1.1,4.2,1.2c0.3,0,0.5,0.3,0.5,0.5
	C202.2,613.5,202,613.7,201.7,613.7z M193.8,609.6c-0.1,0-0.3-0.1-0.4-0.2c-1-1.2-1.8-2.6-2.3-4.1c-0.1-0.3,0.1-0.5,0.3-0.6
	c0.3-0.1,0.5,0.1,0.6,0.3c0.5,1.4,1.2,2.7,2.1,3.8c0.2,0.2,0.2,0.5-0.1,0.7C194,609.6,193.9,609.6,193.8,609.6z M190.9,601.2
	c-0.3,0-0.5-0.2-0.5-0.5v-4.6c0-0.3,0.2-0.5,0.5-0.5s0.5,0.2,0.5,0.5v4.6C191.4,600.9,191.2,601.2,190.9,601.2z M190.9,592
	c-0.3,0-0.5-0.2-0.5-0.5v-4.6c0-0.3,0.2-0.5,0.5-0.5s0.5,0.2,0.5,0.5v4.6C191.4,591.8,191.2,592,190.9,592z M190.9,582.9
	c-0.3,0-0.5-0.2-0.5-0.5v-4.6c0-0.3,0.2-0.5,0.5-0.5s0.5,0.2,0.5,0.5v4.6C191.4,582.7,191.2,582.9,190.9,582.9z M190.9,573.7
	c-0.3,0-0.5-0.2-0.5-0.5v-4.6c0-0.3,0.2-0.5,0.5-0.5s0.5,0.2,0.5,0.5v4.6C191.4,573.5,191.2,573.7,190.9,573.7z M190.9,564.6
	c-0.3,0-0.5-0.2-0.5-0.5v-4.6c0-0.3,0.2-0.5,0.5-0.5s0.5,0.2,0.5,0.5v4.6C191.4,564.4,191.2,564.6,190.9,564.6z M190.9,555.5
	c-0.3,0-0.5-0.2-0.5-0.5v-4.6c0-0.3,0.2-0.5,0.5-0.5s0.5,0.2,0.5,0.5v4.6C191.4,555.2,191.2,555.5,190.9,555.5z M190.9,546.3
	c-0.3,0-0.5-0.2-0.5-0.5v-4.6c0-0.3,0.2-0.5,0.5-0.5s0.5,0.2,0.5,0.5v4.6C191.4,546.1,191.2,546.3,190.9,546.3z M190.9,537.2
	c-0.3,0-0.5-0.2-0.5-0.5v-4.6c0-0.3,0.2-0.5,0.5-0.5s0.5,0.2,0.5,0.5v4.6C191.4,537,191.2,537.2,190.9,537.2z M190.9,528.1
	c-0.3,0-0.5-0.2-0.5-0.5V523c0-0.3,0.2-0.5,0.5-0.5s0.5,0.2,0.5,0.5v4.6C191.4,527.8,191.2,528.1,190.9,528.1z M190.9,518.9
	c-0.3,0-0.5-0.2-0.5-0.5v-4.6c0-0.3,0.2-0.5,0.5-0.5s0.5,0.2,0.5,0.5v4.6C191.4,518.7,191.2,518.9,190.9,518.9z M190.9,509.8
	c-0.3,0-0.5-0.2-0.5-0.5v-4.6c0-0.3,0.2-0.5,0.5-0.5s0.5,0.2,0.5,0.5v4.6C191.4,509.6,191.2,509.8,190.9,509.8z M190.9,500.7
	c-0.3,0-0.5-0.2-0.5-0.5v-4.6c0-0.3,0.2-0.5,0.5-0.5s0.5,0.2,0.5,0.5v4.6C191.4,500.4,191.2,500.7,190.9,500.7z M190.9,491.5
	c-0.3,0-0.5-0.2-0.5-0.5v-4.6c0-0.3,0.2-0.5,0.5-0.5s0.5,0.2,0.5,0.5v4.6C191.4,491.3,191.2,491.5,190.9,491.5z"/>
<path class="st1" d="M190.9,482.8c-3.5,0-6.4-2.9-6.4-6.4s2.9-6.4,6.4-6.4s6.4,2.9,6.4,6.4C197.3,480,194.5,482.8,190.9,482.8z
	 M190.9,471c-3,0-5.4,2.4-5.4,5.4s2.4,5.4,5.4,5.4s5.4-2.4,5.4-5.4C196.3,473.4,193.9,471,190.9,471z"/>
<path class="st1" d="M225.9,274.1H198c-0.3,0-0.5-0.2-0.5-0.5s0.2-0.5,0.5-0.5h27.9c6.2,0,11.3-5.1,11.3-11.3V0.5
	c0-0.3,0.2-0.5,0.5-0.5s0.5,0.2,0.5,0.5v261.3C238.2,268.6,232.7,274.1,225.9,274.1z"/>
<path class="st1" d="M271.6,574.9h-22.5c-0.3,0-0.5-0.2-0.5-0.5s0.2-0.5,0.5-0.5h22.5c6.2,0,11.3-5.1,11.3-11.3V381.7
	c0-0.3,0.2-0.5,0.5-0.5s0.5,0.2,0.5,0.5v180.9C283.9,569.3,278.4,574.9,271.6,574.9z"/>
<path class="st1" d="M219.8,574.9h-20.4c-0.3,0-0.5-0.2-0.5-0.5s0.2-0.5,0.5-0.5h20.4c0.3,0,0.5,0.2,0.5,0.5
	S220.1,574.9,219.8,574.9z"/>
<path class="st1" d="M360.6,119.4H356c-0.3,0-0.5-0.2-0.5-0.5s0.2-0.5,0.5-0.5h4.6c0.3,0,0.5,0.2,0.5,0.5S360.9,119.4,360.6,119.4z
	 M351.4,119.4h-4.6c-0.3,0-0.5-0.2-0.5-0.5s0.2-0.5,0.5-0.5h4.6c0.3,0,0.5,0.2,0.5,0.5S351.7,119.4,351.4,119.4z M342.3,119.4h-4.6
	c-0.3,0-0.5-0.2-0.5-0.5s0.2-0.5,0.5-0.5h4.6c0.3,0,0.5,0.2,0.5,0.5S342.6,119.4,342.3,119.4z M333.2,119.4h-4.6
	c-0.3,0-0.5-0.2-0.5-0.5s0.2-0.5,0.5-0.5h4.6c0.3,0,0.5,0.2,0.5,0.5S333.5,119.4,333.2,119.4z M324,119.4h-4.6
	c-0.3,0-0.5-0.2-0.5-0.5s0.2-0.5,0.5-0.5h4.6c0.3,0,0.5,0.2,0.5,0.5S324.3,119.4,324,119.4z M314.9,119.4h-4.6
	c-0.3,0-0.5-0.2-0.5-0.5s0.2-0.5,0.5-0.5h4.6c0.3,0,0.5,0.2,0.5,0.5S315.2,119.4,314.9,119.4z M305.8,119.4h-4.6
	c-0.3,0-0.5-0.2-0.5-0.5s0.2-0.5,0.5-0.5h4.6c0.3,0,0.5,0.2,0.5,0.5S306,119.4,305.8,119.4z M296.6,119.4H292
	c-0.3,0-0.5-0.2-0.5-0.5s0.2-0.5,0.5-0.5h4.6c0.3,0,0.5,0.2,0.5,0.5S296.9,119.4,296.6,119.4z M287.5,119.4h-4.6
	c-0.3,0-0.5-0.2-0.5-0.5s0.2-0.5,0.5-0.5h4.6c0.3,0,0.5,0.2,0.5,0.5S287.8,119.4,287.5,119.4z M278.4,119.4h-4.6
	c-0.3,0-0.5-0.2-0.5-0.5s0.2-0.5,0.5-0.5h4.6c0.3,0,0.5,0.2,0.5,0.5S278.6,119.4,278.4,119.4z M269.2,119.4h-4.6
	c-0.3,0-0.5-0.2-0.5-0.5s0.2-0.5,0.5-0.5h4.6c0.3,0,0.5,0.2,0.5,0.5S269.5,119.4,269.2,119.4z M260.1,119.4h-4.6
	c-0.3,0-0.5-0.2-0.5-0.5s0.2-0.5,0.5-0.5h4.6c0.3,0,0.5,0.2,0.5,0.5S260.4,119.4,260.1,119.4z M250.9,119.4h-4.6
	c-0.3,0-0.5-0.2-0.5-0.5s0.2-0.5,0.5-0.5h4.6c0.3,0,0.5,0.2,0.5,0.5S251.2,119.4,250.9,119.4z M365.1,118.8c-0.2,0-0.4-0.1-0.5-0.3
	c-0.1-0.3,0.1-0.5,0.3-0.6c1.4-0.5,2.7-1.2,3.8-2.1c0.2-0.2,0.5-0.2,0.7,0.1c0.2,0.2,0.2,0.5-0.1,0.7
	C368.1,117.6,366.7,118.4,365.1,118.8C365.2,118.8,365.1,118.8,365.1,118.8z M371.9,113c-0.1,0-0.2,0-0.2-0.1
	c-0.2-0.1-0.3-0.4-0.2-0.7c0.7-1.3,1.1-2.7,1.2-4.2c0-0.3,0.3-0.5,0.5-0.5c0.3,0,0.5,0.3,0.5,0.5c-0.1,1.6-0.6,3.1-1.3,4.5
	C372.2,112.9,372,113,371.9,113z M373.2,104.1c-0.3,0-0.5-0.2-0.5-0.5V99c0-0.3,0.2-0.5,0.5-0.5s0.5,0.2,0.5,0.5v4.6
	C373.7,103.8,373.4,104.1,373.2,104.1z M373.2,94.9c-0.3,0-0.5-0.2-0.5-0.5v-4.6c0-0.3,0.2-0.5,0.5-0.5s0.5,0.2,0.5,0.5v4.6
	C373.7,94.7,373.4,94.9,373.2,94.9z M373.2,85.8c-0.3,0-0.5-0.2-0.5-0.5v-4.6c0-0.3,0.2-0.5,0.5-0.5s0.5,0.2,0.5,0.5v4.6
	C373.7,85.6,373.4,85.8,373.2,85.8z"/>
<path class="st1" d="M234,1676.6c-0.3,0-0.5-0.2-0.5-0.5v-4.1c0-0.3,0.2-0.5,0.5-0.5s0.5,0.2,0.5,0.5v4.1
	C234.5,1676.4,234.3,1676.6,234,1676.6z M234,1667.9c-0.3,0-0.5-0.2-0.5-0.5v-4.6c0-0.3,0.2-0.5,0.5-0.5s0.5,0.2,0.5,0.5v4.6
	C234.5,1667.7,234.3,1667.9,234,1667.9z M234,1658.8c-0.3,0-0.5-0.2-0.5-0.5v-4.6c0-0.3,0.2-0.5,0.5-0.5s0.5,0.2,0.5,0.5v4.6
	C234.5,1658.6,234.3,1658.8,234,1658.8z M234,1649.7c-0.3,0-0.5-0.2-0.5-0.5v-4.6c0-0.3,0.2-0.5,0.5-0.5s0.5,0.2,0.5,0.5v4.6
	C234.5,1649.4,234.3,1649.7,234,1649.7z M234,1640.5c-0.3,0-0.5-0.2-0.5-0.5v-4.6c0-0.3,0.2-0.5,0.5-0.5s0.5,0.2,0.5,0.5v4.6
	C234.5,1640.3,234.3,1640.5,234,1640.5z M234,1631.4c-0.3,0-0.5-0.2-0.5-0.5v-4.6c0-0.3,0.2-0.5,0.5-0.5s0.5,0.2,0.5,0.5v4.6
	C234.5,1631.2,234.3,1631.4,234,1631.4z M234,1622.2c-0.3,0-0.5-0.2-0.5-0.5v-4.6c0-0.3,0.2-0.5,0.5-0.5s0.5,0.2,0.5,0.5v4.6
	C234.5,1622,234.3,1622.2,234,1622.2z M234,1613.1c-0.3,0-0.5-0.2-0.5-0.5v-4.6c0-0.3,0.2-0.5,0.5-0.5s0.5,0.2,0.5,0.5v4.6
	C234.5,1612.9,234.3,1613.1,234,1613.1z M234,1604c-0.3,0-0.5-0.2-0.5-0.5v-4.6c0-0.3,0.2-0.5,0.5-0.5s0.5,0.2,0.5,0.5v4.6
	C234.5,1603.7,234.3,1604,234,1604z M234,1594.8c-0.3,0-0.5-0.2-0.5-0.5v-4.6c0-0.3,0.2-0.5,0.5-0.5s0.5,0.2,0.5,0.5v4.6
	C234.5,1594.6,234.3,1594.8,234,1594.8z M234,1585.7c-0.3,0-0.5-0.2-0.5-0.5v-4.6c0-0.3,0.2-0.5,0.5-0.5s0.5,0.2,0.5,0.5v4.6
	C234.5,1585.5,234.3,1585.7,234,1585.7z M234,1576.6c-0.3,0-0.5-0.2-0.5-0.5v-4.6c0-0.3,0.2-0.5,0.5-0.5s0.5,0.2,0.5,0.5v4.6
	C234.5,1576.3,234.3,1576.6,234,1576.6z M234,1567.4c-0.3,0-0.5-0.2-0.5-0.5v-4.6c0-0.3,0.2-0.5,0.5-0.5s0.5,0.2,0.5,0.5v4.6
	C234.5,1567.2,234.3,1567.4,234,1567.4z M234,1558.3c-0.3,0-0.5-0.2-0.5-0.5v-4.6c0-0.3,0.2-0.5,0.5-0.5s0.5,0.2,0.5,0.5v4.6
	C234.5,1558.1,234.3,1558.3,234,1558.3z M234,1549.2c-0.3,0-0.5-0.2-0.5-0.5v-4.6c0-0.3,0.2-0.5,0.5-0.5s0.5,0.2,0.5,0.5v4.6
	C234.5,1548.9,234.3,1549.2,234,1549.2z M234,1540c-0.3,0-0.5-0.2-0.5-0.5v-4.6c0-0.3,0.2-0.5,0.5-0.5s0.5,0.2,0.5,0.5v4.6
	C234.5,1539.8,234.3,1540,234,1540z M234,1530.9c-0.3,0-0.5-0.2-0.5-0.5v-4.6c0-0.3,0.2-0.5,0.5-0.5s0.5,0.2,0.5,0.5v4.6
	C234.5,1530.7,234.3,1530.9,234,1530.9z M234,1521.7c-0.3,0-0.5-0.2-0.5-0.5v-4.6c0-0.3,0.2-0.5,0.5-0.5s0.5,0.2,0.5,0.5v4.6
	C234.5,1521.5,234.3,1521.7,234,1521.7z M234,1512.6c-0.3,0-0.5-0.2-0.5-0.5v-4.6c0-0.3,0.2-0.5,0.5-0.5s0.5,0.2,0.5,0.5v4.6
	C234.5,1512.4,234.3,1512.6,234,1512.6z M234,1503.5c-0.3,0-0.5-0.2-0.5-0.5v-4.6c0-0.3,0.2-0.5,0.5-0.5s0.5,0.2,0.5,0.5v4.6
	C234.5,1503.2,234.3,1503.5,234,1503.5z M234,1494.3c-0.3,0-0.5-0.2-0.5-0.5v-4.6c0-0.3,0.2-0.5,0.5-0.5s0.5,0.2,0.5,0.5v4.6
	C234.5,1494.1,234.3,1494.3,234,1494.3z M234,1485.2c-0.3,0-0.5-0.2-0.5-0.5v-4.6c0-0.3,0.2-0.5,0.5-0.5s0.5,0.2,0.5,0.5v4.6
	C234.5,1485,234.3,1485.2,234,1485.2z M234,1476.1c-0.3,0-0.5-0.2-0.5-0.5v-4.6c0-0.3,0.2-0.5,0.5-0.5s0.5,0.2,0.5,0.5v4.6
	C234.5,1475.8,234.3,1476.1,234,1476.1z M234,1466.9c-0.3,0-0.5-0.2-0.5-0.5v-4.6c0-0.3,0.2-0.5,0.5-0.5s0.5,0.2,0.5,0.5v4.6
	C234.5,1466.7,234.3,1466.9,234,1466.9z M234,1457.8c-0.3,0-0.5-0.2-0.5-0.5v-4.6c0-0.3,0.2-0.5,0.5-0.5s0.5,0.2,0.5,0.5v4.6
	C234.5,1457.6,234.3,1457.8,234,1457.8z M234,1448.7c-0.3,0-0.5-0.2-0.5-0.5v-4.6c0-0.3,0.2-0.5,0.5-0.5s0.5,0.2,0.5,0.5v4.6
	C234.5,1448.4,234.3,1448.7,234,1448.7z M234,1439.5c-0.3,0-0.5-0.2-0.5-0.5v-4.6c0-0.3,0.2-0.5,0.5-0.5s0.5,0.2,0.5,0.5v4.6
	C234.5,1439.3,234.3,1439.5,234,1439.5z M234,1430.4c-0.3,0-0.5-0.2-0.5-0.5v-4.6c0-0.3,0.2-0.5,0.5-0.5s0.5,0.2,0.5,0.5v4.6
	C234.5,1430.2,234.3,1430.4,234,1430.4z M234,1421.2c-0.3,0-0.5-0.2-0.5-0.5v-4.6c0-0.3,0.2-0.5,0.5-0.5s0.5,0.2,0.5,0.5v4.6
	C234.5,1421,234.3,1421.2,234,1421.2z M234,1412.1c-0.3,0-0.5-0.2-0.5-0.5v-4.6c0-0.3,0.2-0.5,0.5-0.5s0.5,0.2,0.5,0.5v4.6
	C234.5,1411.9,234.3,1412.1,234,1412.1z M234,1403c-0.3,0-0.5-0.2-0.5-0.5v-4.6c0-0.3,0.2-0.5,0.5-0.5s0.5,0.2,0.5,0.5v4.6
	C234.5,1402.7,234.3,1403,234,1403z M234,1393.8c-0.3,0-0.5-0.2-0.5-0.5v-4.6c0-0.3,0.2-0.5,0.5-0.5s0.5,0.2,0.5,0.5v4.6
	C234.5,1393.6,234.3,1393.8,234,1393.8z M234,1384.7c-0.3,0-0.5-0.2-0.5-0.5v-4.6c0-0.3,0.2-0.5,0.5-0.5s0.5,0.2,0.5,0.5v4.6
	C234.5,1384.5,234.3,1384.7,234,1384.7z M234,1375.6c-0.3,0-0.5-0.2-0.5-0.5v-4.6c0-0.3,0.2-0.5,0.5-0.5s0.5,0.2,0.5,0.5v4.6
	C234.5,1375.3,234.3,1375.6,234,1375.6z M234,1366.4c-0.3,0-0.5-0.2-0.5-0.5v-4.6c0-0.3,0.2-0.5,0.5-0.5s0.5,0.2,0.5,0.5v4.6
	C234.5,1366.2,234.3,1366.4,234,1366.4z M234,1357.3c-0.3,0-0.5-0.2-0.5-0.5v-4.6c0-0.3,0.2-0.5,0.5-0.5s0.5,0.2,0.5,0.5v4.6
	C234.5,1357.1,234.3,1357.3,234,1357.3z M234,1348.2c-0.3,0-0.5-0.2-0.5-0.5v-4.6c0-0.3,0.2-0.5,0.5-0.5s0.5,0.2,0.5,0.5v4.6
	C234.5,1347.9,234.3,1348.2,234,1348.2z M234,1339c-0.3,0-0.5-0.2-0.5-0.5v-4.6c0-0.3,0.2-0.5,0.5-0.5s0.5,0.2,0.5,0.5v4.6
	C234.5,1338.8,234.3,1339,234,1339z M234,1329.9c-0.3,0-0.5-0.2-0.5-0.5v-4.6c0-0.3,0.2-0.5,0.5-0.5s0.5,0.2,0.5,0.5v4.6
	C234.5,1329.7,234.3,1329.9,234,1329.9z M234,1320.7c-0.3,0-0.5-0.2-0.5-0.5v-4.6c0-0.3,0.2-0.5,0.5-0.5s0.5,0.2,0.5,0.5v4.6
	C234.5,1320.5,234.3,1320.7,234,1320.7z M234,1311.6c-0.3,0-0.5-0.2-0.5-0.5v-4.6c0-0.3,0.2-0.5,0.5-0.5s0.5,0.2,0.5,0.5v4.6
	C234.5,1311.4,234.3,1311.6,234,1311.6z M234,1302.5c-0.3,0-0.5-0.2-0.5-0.5v-4.6c0-0.3,0.2-0.5,0.5-0.5s0.5,0.2,0.5,0.5v4.6
	C234.5,1302.2,234.3,1302.5,234,1302.5z M234,1293.3c-0.3,0-0.5-0.2-0.5-0.5v-4.6c0-0.3,0.2-0.5,0.5-0.5s0.5,0.2,0.5,0.5v4.6
	C234.5,1293.1,234.3,1293.3,234,1293.3z M234,1284.2c-0.3,0-0.5-0.2-0.5-0.5v-4.6c0-0.3,0.2-0.5,0.5-0.5s0.5,0.2,0.5,0.5v4.6
	C234.5,1284,234.3,1284.2,234,1284.2z M234,1275.1c-0.3,0-0.5-0.2-0.5-0.5v-4.6c0-0.3,0.2-0.5,0.5-0.5s0.5,0.2,0.5,0.5v4.6
	C234.5,1274.8,234.3,1275.1,234,1275.1z M234,1265.9c-0.3,0-0.5-0.2-0.5-0.5v-4.6c0-0.3,0.2-0.5,0.5-0.5s0.5,0.2,0.5,0.5v4.6
	C234.5,1265.7,234.3,1265.9,234,1265.9z M234,1256.8c-0.3,0-0.5-0.2-0.5-0.5v-4.6c0-0.3,0.2-0.5,0.5-0.5s0.5,0.2,0.5,0.5v4.6
	C234.5,1256.6,234.3,1256.8,234,1256.8z M234,1247.7c-0.3,0-0.5-0.2-0.5-0.5v-4.6c0-0.3,0.2-0.5,0.5-0.5s0.5,0.2,0.5,0.5v4.6
	C234.5,1247.4,234.3,1247.7,234,1247.7z M234,1238.5c-0.3,0-0.5-0.2-0.5-0.5v-4.6c0-0.3,0.2-0.5,0.5-0.5s0.5,0.2,0.5,0.5v4.6
	C234.5,1238.3,234.3,1238.5,234,1238.5z M234,1229.4c-0.3,0-0.5-0.2-0.5-0.5v-4.6c0-0.3,0.2-0.5,0.5-0.5s0.5,0.2,0.5,0.5v4.6
	C234.5,1229.2,234.3,1229.4,234,1229.4z M234,1220.2c-0.3,0-0.5-0.2-0.5-0.5v-4.6c0-0.3,0.2-0.5,0.5-0.5s0.5,0.2,0.5,0.5v4.6
	C234.5,1220,234.3,1220.2,234,1220.2z M234,1211.1c-0.3,0-0.5-0.2-0.5-0.5v-4.6c0-0.3,0.2-0.5,0.5-0.5s0.5,0.2,0.5,0.5v4.6
	C234.5,1210.9,234.3,1211.1,234,1211.1z M234,1202c-0.3,0-0.5-0.2-0.5-0.5v-4.6c0-0.3,0.2-0.5,0.5-0.5s0.5,0.2,0.5,0.5v4.6
	C234.5,1201.7,234.3,1202,234,1202z M234,1192.8c-0.3,0-0.5-0.2-0.5-0.5v-4.6c0-0.3,0.2-0.5,0.5-0.5s0.5,0.2,0.5,0.5v4.6
	C234.5,1192.6,234.3,1192.8,234,1192.8z M234,1183.7c-0.3,0-0.5-0.2-0.5-0.5v-4.6c0-0.3,0.2-0.5,0.5-0.5s0.5,0.2,0.5,0.5v4.6
	C234.5,1183.5,234.3,1183.7,234,1183.7z M234,1174.6c-0.3,0-0.5-0.2-0.5-0.5v-4.6c0-0.3,0.2-0.5,0.5-0.5s0.5,0.2,0.5,0.5v4.6
	C234.5,1174.3,234.3,1174.6,234,1174.6z M234,1165.4c-0.3,0-0.5-0.2-0.5-0.5v-4.6c0-0.3,0.2-0.5,0.5-0.5s0.5,0.2,0.5,0.5v4.6
	C234.5,1165.2,234.3,1165.4,234,1165.4z M234,1156.3c-0.3,0-0.5-0.2-0.5-0.5v-4.6c0-0.3,0.2-0.5,0.5-0.5s0.5,0.2,0.5,0.5v4.6
	C234.5,1156.1,234.3,1156.3,234,1156.3z M234,1147.1c-0.3,0-0.5-0.2-0.5-0.5v-4.6c0-0.3,0.2-0.5,0.5-0.5s0.5,0.2,0.5,0.5v4.6
	C234.5,1146.9,234.3,1147.1,234,1147.1z M234,1138c-0.3,0-0.5-0.2-0.5-0.5v-4.6c0-0.3,0.2-0.5,0.5-0.5s0.5,0.2,0.5,0.5v4.6
	C234.5,1137.8,234.3,1138,234,1138z M234,1128.9c-0.3,0-0.5-0.2-0.5-0.5v-4.6c0-0.3,0.2-0.5,0.5-0.5s0.5,0.2,0.5,0.5v4.6
	C234.5,1128.7,234.3,1128.9,234,1128.9z M234,1119.7c-0.3,0-0.5-0.2-0.5-0.5v-4.6c0-0.3,0.2-0.5,0.5-0.5s0.5,0.2,0.5,0.5v4.6
	C234.5,1119.5,234.3,1119.7,234,1119.7z M234,1110.6c-0.3,0-0.5-0.2-0.5-0.5v-4.6c0-0.3,0.2-0.5,0.5-0.5s0.5,0.2,0.5,0.5v4.6
	C234.5,1110.4,234.3,1110.6,234,1110.6z M234,1101.5c-0.3,0-0.5-0.2-0.5-0.5v-4.6c0-0.3,0.2-0.5,0.5-0.5s0.5,0.2,0.5,0.5v4.6
	C234.5,1101.2,234.3,1101.5,234,1101.5z M234,1092.3c-0.3,0-0.5-0.2-0.5-0.5v-4.6c0-0.3,0.2-0.5,0.5-0.5s0.5,0.2,0.5,0.5v4.6
	C234.5,1092.1,234.3,1092.3,234,1092.3z M234,1083.2c-0.3,0-0.5-0.2-0.5-0.5v-4.6c0-0.3,0.2-0.5,0.5-0.5s0.5,0.2,0.5,0.5v4.6
	C234.5,1083,234.3,1083.2,234,1083.2z M234,1074.1c-0.3,0-0.5-0.2-0.5-0.5v-4.6c0-0.3,0.2-0.5,0.5-0.5s0.5,0.2,0.5,0.5v4.6
	C234.5,1073.8,234.3,1074.1,234,1074.1z M234,1064.9c-0.3,0-0.5-0.2-0.5-0.5v-4.6c0-0.3,0.2-0.5,0.5-0.5s0.5,0.2,0.5,0.5v4.6
	C234.5,1064.7,234.3,1064.9,234,1064.9z M234,1055.8c-0.3,0-0.5-0.2-0.5-0.5v-4.6c0-0.3,0.2-0.5,0.5-0.5s0.5,0.2,0.5,0.5v4.6
	C234.5,1055.6,234.3,1055.8,234,1055.8z M234,1046.6c-0.3,0-0.5-0.2-0.5-0.5v-4.6c0-0.3,0.2-0.5,0.5-0.5s0.5,0.2,0.5,0.5v4.6
	C234.5,1046.4,234.3,1046.6,234,1046.6z M234,1037.5c-0.3,0-0.5-0.2-0.5-0.5v-4.6c0-0.3,0.2-0.5,0.5-0.5s0.5,0.2,0.5,0.5v4.6
	C234.5,1037.3,234.3,1037.5,234,1037.5z M234,1028.4c-0.3,0-0.5-0.2-0.5-0.5v-4.6c0-0.3,0.2-0.5,0.5-0.5s0.5,0.2,0.5,0.5v4.6
	C234.5,1028.2,234.3,1028.4,234,1028.4z M234,1019.2c-0.3,0-0.5-0.2-0.5-0.5v-4.6c0-0.3,0.2-0.5,0.5-0.5s0.5,0.2,0.5,0.5v4.6
	C234.5,1019,234.3,1019.2,234,1019.2z M234,1010.1c-0.3,0-0.5-0.2-0.5-0.5v-4.6c0-0.3,0.2-0.5,0.5-0.5s0.5,0.2,0.5,0.5v4.6
	C234.5,1009.9,234.3,1010.1,234,1010.1z M234,1001c-0.3,0-0.5-0.2-0.5-0.5v-4.6c0-0.3,0.2-0.5,0.5-0.5s0.5,0.2,0.5,0.5v4.6
	C234.5,1000.7,234.3,1001,234,1001z M234,991.8c-0.3,0-0.5-0.2-0.5-0.5v-4.6c0-0.3,0.2-0.5,0.5-0.5s0.5,0.2,0.5,0.5v4.6
	C234.5,991.6,234.3,991.8,234,991.8z M234,982.7c-0.3,0-0.5-0.2-0.5-0.5v-4.6c0-0.3,0.2-0.5,0.5-0.5s0.5,0.2,0.5,0.5v4.6
	C234.5,982.5,234.3,982.7,234,982.7z M234,973.6c-0.3,0-0.5-0.2-0.5-0.5v-4.6c0-0.3,0.2-0.5,0.5-0.5s0.5,0.2,0.5,0.5v4.6
	C234.5,973.3,234.3,973.6,234,973.6z M234,964.4c-0.3,0-0.5-0.2-0.5-0.5v-4.6c0-0.3,0.2-0.5,0.5-0.5s0.5,0.2,0.5,0.5v4.6
	C234.5,964.2,234.3,964.4,234,964.4z M234,955.3c-0.3,0-0.5-0.2-0.5-0.5v-4.6c0-0.3,0.2-0.5,0.5-0.5s0.5,0.2,0.5,0.5v4.6
	C234.5,955.1,234.3,955.3,234,955.3z M234,946.1c-0.3,0-0.5-0.2-0.5-0.5V941c0-0.3,0.2-0.5,0.5-0.5s0.5,0.2,0.5,0.5v4.6
	C234.5,945.9,234.3,946.1,234,946.1z M234,937c-0.3,0-0.5-0.2-0.5-0.5v-4.6c0-0.3,0.2-0.5,0.5-0.5s0.5,0.2,0.5,0.5v4.6
	C234.5,936.8,234.3,937,234,937z M234,927.9c-0.3,0-0.5-0.2-0.5-0.5v-4.6c0-0.3,0.2-0.5,0.5-0.5s0.5,0.2,0.5,0.5v4.6
	C234.5,927.7,234.3,927.9,234,927.9z M234,918.7c-0.3,0-0.5-0.2-0.5-0.5v-4.6c0-0.3,0.2-0.5,0.5-0.5s0.5,0.2,0.5,0.5v4.6
	C234.5,918.5,234.3,918.7,234,918.7z M234,909.6c-0.3,0-0.5-0.2-0.5-0.5v-4.6c0-0.3,0.2-0.5,0.5-0.5s0.5,0.2,0.5,0.5v4.6
	C234.5,909.4,234.3,909.6,234,909.6z M234,900.5c-0.3,0-0.5-0.2-0.5-0.5v-4.6c0-0.3,0.2-0.5,0.5-0.5s0.5,0.2,0.5,0.5v4.6
	C234.5,900.2,234.3,900.5,234,900.5z M234,891.3c-0.3,0-0.5-0.2-0.5-0.5v-4.6c0-0.3,0.2-0.5,0.5-0.5s0.5,0.2,0.5,0.5v4.6
	C234.5,891.1,234.3,891.3,234,891.3z M234,882.2c-0.3,0-0.5-0.2-0.5-0.5v-4.6c0-0.3,0.2-0.5,0.5-0.5s0.5,0.2,0.5,0.5v4.6
	C234.5,882,234.3,882.2,234,882.2z M234,873.1c-0.3,0-0.5-0.2-0.5-0.5V868c0-0.3,0.2-0.5,0.5-0.5s0.5,0.2,0.5,0.5v4.6
	C234.5,872.8,234.3,873.1,234,873.1z M234,863.9c-0.3,0-0.5-0.2-0.5-0.5v-4.6c0-0.3,0.2-0.5,0.5-0.5s0.5,0.2,0.5,0.5v4.6
	C234.5,863.7,234.3,863.9,234,863.9z M234,854.8c-0.3,0-0.5-0.2-0.5-0.5v-4.6c0-0.3,0.2-0.5,0.5-0.5s0.5,0.2,0.5,0.5v4.6
	C234.5,854.6,234.3,854.8,234,854.8z M234,845.6c-0.3,0-0.5-0.2-0.5-0.5v-4.6c0-0.3,0.2-0.5,0.5-0.5s0.5,0.2,0.5,0.5v4.6
	C234.5,845.4,234.3,845.6,234,845.6z M234,836.5c-0.3,0-0.5-0.2-0.5-0.5v-4.6c0-0.3,0.2-0.5,0.5-0.5s0.5,0.2,0.5,0.5v4.6
	C234.5,836.3,234.3,836.5,234,836.5z M234,827.4c-0.3,0-0.5-0.2-0.5-0.5v-4.6c0-0.3,0.2-0.5,0.5-0.5s0.5,0.2,0.5,0.5v4.6
	C234.5,827.1,234.3,827.4,234,827.4z M234,818.2c-0.3,0-0.5-0.2-0.5-0.5v-4.6c0-0.3,0.2-0.5,0.5-0.5s0.5,0.2,0.5,0.5v4.6
	C234.5,818,234.3,818.2,234,818.2z M234,809.1c-0.3,0-0.5-0.2-0.5-0.5V804c0-0.3,0.2-0.5,0.5-0.5s0.5,0.2,0.5,0.5v4.6
	C234.5,808.9,234.3,809.1,234,809.1z M234,800c-0.3,0-0.5-0.2-0.5-0.5v-4.6c0-0.3,0.2-0.5,0.5-0.5s0.5,0.2,0.5,0.5v4.6
	C234.5,799.7,234.3,800,234,800z M234,790.8c-0.3,0-0.5-0.2-0.5-0.5v-4.6c0-0.3,0.2-0.5,0.5-0.5s0.5,0.2,0.5,0.5v4.6
	C234.5,790.6,234.3,790.8,234,790.8z M234,781.7c-0.3,0-0.5-0.2-0.5-0.5v-4.6c0-0.3,0.2-0.5,0.5-0.5s0.5,0.2,0.5,0.5v4.6
	C234.5,781.5,234.3,781.7,234,781.7z M234,772.6c-0.3,0-0.5-0.2-0.5-0.5v-4.6c0-0.3,0.2-0.5,0.5-0.5s0.5,0.2,0.5,0.5v4.6
	C234.5,772.3,234.3,772.6,234,772.6z M234,763.4c-0.3,0-0.5-0.2-0.5-0.5v-4.6c0-0.3,0.2-0.5,0.5-0.5s0.5,0.2,0.5,0.5v4.6
	C234.5,763.2,234.3,763.4,234,763.4z M234,754.3c-0.3,0-0.5-0.2-0.5-0.5v-4.6c0-0.3,0.2-0.5,0.5-0.5s0.5,0.2,0.5,0.5v4.6
	C234.5,754.1,234.3,754.3,234,754.3z M234,745.1c-0.3,0-0.5-0.2-0.5-0.5V740c0-0.3,0.2-0.5,0.5-0.5s0.5,0.2,0.5,0.5v4.6
	C234.5,744.9,234.3,745.1,234,745.1z M234,736c-0.3,0-0.5-0.2-0.5-0.5v-4.6c0-0.3,0.2-0.5,0.5-0.5s0.5,0.2,0.5,0.5v4.6
	C234.5,735.8,234.3,736,234,736z M234,726.9c-0.3,0-0.5-0.2-0.5-0.5v-4.6c0-0.3,0.2-0.5,0.5-0.5s0.5,0.2,0.5,0.5v4.6
	C234.5,726.6,234.3,726.9,234,726.9z M234,717.7c-0.3,0-0.5-0.2-0.5-0.5v-4.6c0-0.3,0.2-0.5,0.5-0.5s0.5,0.2,0.5,0.5v4.6
	C234.5,717.5,234.3,717.7,234,717.7z M234,708.6c-0.3,0-0.5-0.2-0.5-0.5v-4.6c0-0.3,0.2-0.5,0.5-0.5s0.5,0.2,0.5,0.5v4.6
	C234.5,708.4,234.3,708.6,234,708.6z M234,699.5c-0.3,0-0.5-0.2-0.5-0.5v-4.6c0-0.3,0.2-0.5,0.5-0.5s0.5,0.2,0.5,0.5v4.6
	C234.5,699.2,234.3,699.5,234,699.5z M234,690.3c-0.3,0-0.5-0.2-0.5-0.5v-4.6c0-0.3,0.2-0.5,0.5-0.5s0.5,0.2,0.5,0.5v4.6
	C234.5,690.1,234.3,690.3,234,690.3z M234,681.2c-0.3,0-0.5-0.2-0.5-0.5v-4.6c0-0.3,0.2-0.5,0.5-0.5s0.5,0.2,0.5,0.5v4.6
	C234.5,681,234.3,681.2,234,681.2z M234,672.1c-0.3,0-0.5-0.2-0.5-0.5V667c0-0.3,0.2-0.5,0.5-0.5s0.5,0.2,0.5,0.5v4.6
	C234.5,671.8,234.3,672.1,234,672.1z M234,662.9c-0.3,0-0.5-0.2-0.5-0.5v-4.6c0-0.3,0.2-0.5,0.5-0.5s0.5,0.2,0.5,0.5v4.6
	C234.5,662.7,234.3,662.9,234,662.9z M234,653.8c-0.3,0-0.5-0.2-0.5-0.5v-4.6c0-0.3,0.2-0.5,0.5-0.5s0.5,0.2,0.5,0.5v4.6
	C234.5,653.6,234.3,653.8,234,653.8z M234,644.6c-0.3,0-0.5-0.2-0.5-0.5v-4.6c0-0.3,0.2-0.5,0.5-0.5s0.5,0.2,0.5,0.5v4.6
	C234.5,644.4,234.3,644.6,234,644.6z M234,635.5c-0.3,0-0.5-0.2-0.5-0.5v-4.6c0-0.3,0.2-0.5,0.5-0.5s0.5,0.2,0.5,0.5v4.6
	C234.5,635.3,234.3,635.5,234,635.5z M234,626.4c-0.3,0-0.5-0.2-0.5-0.5v-4.6c0-0.3,0.2-0.5,0.5-0.5s0.5,0.2,0.5,0.5v4.6
	C234.5,626.1,234.3,626.4,234,626.4z M234,617.2c-0.3,0-0.5-0.2-0.5-0.5v-4.6c0-0.3,0.2-0.5,0.5-0.5s0.5,0.2,0.5,0.5v4.6
	C234.5,617,234.3,617.2,234,617.2z M234,608.1c-0.3,0-0.5-0.2-0.5-0.5V603c0-0.3,0.2-0.5,0.5-0.5s0.5,0.2,0.5,0.5v4.6
	C234.5,607.9,234.3,608.1,234,608.1z M234,599c-0.3,0-0.5-0.2-0.5-0.5v-4.6c0-0.3,0.2-0.5,0.5-0.5s0.5,0.2,0.5,0.5v4.6
	C234.5,598.7,234.3,599,234,599z M234,589.8c-0.3,0-0.5-0.2-0.5-0.5v-4.6c0-0.3,0.2-0.5,0.5-0.5s0.5,0.2,0.5,0.5v4.6
	C234.5,589.6,234.3,589.8,234,589.8z M234,580.7c-0.3,0-0.5-0.2-0.5-0.5v-4.6c0-0.3,0.2-0.5,0.5-0.5s0.5,0.2,0.5,0.5v4.6
	C234.5,580.5,234.3,580.7,234,580.7z M234,571.6c-0.3,0-0.5-0.2-0.5-0.5v-4.6c0-0.3,0.2-0.5,0.5-0.5s0.5,0.2,0.5,0.5v4.6
	C234.5,571.3,234.3,571.6,234,571.6z M234,562.4c-0.3,0-0.5-0.2-0.5-0.5v-4.6c0-0.3,0.2-0.5,0.5-0.5s0.5,0.2,0.5,0.5v4.6
	C234.5,562.2,234.3,562.4,234,562.4z M234,553.3c-0.3,0-0.5-0.2-0.5-0.5v-4.6c0-0.3,0.2-0.5,0.5-0.5s0.5,0.2,0.5,0.5v4.6
	C234.5,553.1,234.3,553.3,234,553.3z M234,544.1c-0.3,0-0.5-0.2-0.5-0.5V539c0-0.3,0.2-0.5,0.5-0.5s0.5,0.2,0.5,0.5v4.6
	C234.5,543.9,234.3,544.1,234,544.1z M234,535c-0.3,0-0.5-0.2-0.5-0.5v-4.6c0-0.3,0.2-0.5,0.5-0.5s0.5,0.2,0.5,0.5v4.6
	C234.5,534.8,234.3,535,234,535z M234,525.9c-0.3,0-0.5-0.2-0.5-0.5v-4.6c0-0.3,0.2-0.5,0.5-0.5s0.5,0.2,0.5,0.5v4.6
	C234.5,525.6,234.3,525.9,234,525.9z M234,516.7c-0.3,0-0.5-0.2-0.5-0.5v-4.6c0-0.3,0.2-0.5,0.5-0.5s0.5,0.2,0.5,0.5v4.6
	C234.5,516.5,234.3,516.7,234,516.7z M234,507.6c-0.3,0-0.5-0.2-0.5-0.5v-4.6c0-0.3,0.2-0.5,0.5-0.5s0.5,0.2,0.5,0.5v4.6
	C234.5,507.4,234.3,507.6,234,507.6z M234,498.5c-0.3,0-0.5-0.2-0.5-0.5v-4.6c0-0.3,0.2-0.5,0.5-0.5s0.5,0.2,0.5,0.5v4.6
	C234.5,498.2,234.3,498.5,234,498.5z M234,489.3c-0.3,0-0.5-0.2-0.5-0.5v-4.6c0-0.3,0.2-0.5,0.5-0.5s0.5,0.2,0.5,0.5v4.6
	C234.5,489.1,234.3,489.3,234,489.3z M234,480.2c-0.3,0-0.5-0.2-0.5-0.5v-4.6c0-0.3,0.2-0.5,0.5-0.5s0.5,0.2,0.5,0.5v4.6
	C234.5,480,234.3,480.2,234,480.2z M234,471.1c-0.3,0-0.5-0.2-0.5-0.5V466c0-0.3,0.2-0.5,0.5-0.5s0.5,0.2,0.5,0.5v4.6
	C234.5,470.8,234.3,471.1,234,471.1z M234,461.9c-0.3,0-0.5-0.2-0.5-0.5v-4.6c0-0.3,0.2-0.5,0.5-0.5s0.5,0.2,0.5,0.5v4.6
	C234.5,461.7,234.3,461.9,234,461.9z M234,452.8c-0.3,0-0.5-0.2-0.5-0.5v-4.6c0-0.3,0.2-0.5,0.5-0.5s0.5,0.2,0.5,0.5v4.6
	C234.5,452.6,234.3,452.8,234,452.8z M234,443.6c-0.3,0-0.5-0.2-0.5-0.5v-4.6c0-0.3,0.2-0.5,0.5-0.5s0.5,0.2,0.5,0.5v4.6
	C234.5,443.4,234.3,443.6,234,443.6z M234,434.5c-0.3,0-0.5-0.2-0.5-0.5v-4.6c0-0.3,0.2-0.5,0.5-0.5s0.5,0.2,0.5,0.5v4.6
	C234.5,434.3,234.3,434.5,234,434.5z M234,425.4c-0.3,0-0.5-0.2-0.5-0.5v-4.6c0-0.3,0.2-0.5,0.5-0.5s0.5,0.2,0.5,0.5v4.6
	C234.5,425.1,234.3,425.4,234,425.4z M234,416.2c-0.3,0-0.5-0.2-0.5-0.5v-4.6c0-0.3,0.2-0.5,0.5-0.5s0.5,0.2,0.5,0.5v4.6
	C234.5,416,234.3,416.2,234,416.2z M234,407.1c-0.3,0-0.5-0.2-0.5-0.5V402c0-0.3,0.2-0.5,0.5-0.5s0.5,0.2,0.5,0.5v4.6
	C234.5,406.9,234.3,407.1,234,407.1z M234,398c-0.3,0-0.5-0.2-0.5-0.5v-4.6c0-0.3,0.2-0.5,0.5-0.5s0.5,0.2,0.5,0.5v4.6
	C234.5,397.7,234.3,398,234,398z M234,388.8c-0.3,0-0.5-0.2-0.5-0.5v-4.6c0-0.3,0.2-0.5,0.5-0.5s0.5,0.2,0.5,0.5v4.6
	C234.5,388.6,234.3,388.8,234,388.8z M234,379.7c-0.3,0-0.5-0.2-0.5-0.5v-4.6c0-0.3,0.2-0.5,0.5-0.5s0.5,0.2,0.5,0.5v4.6
	C234.5,379.5,234.3,379.7,234,379.7z M234,370.6c-0.3,0-0.5-0.2-0.5-0.5v-4.6c0-0.3,0.2-0.5,0.5-0.5s0.5,0.2,0.5,0.5v4.6
	C234.5,370.3,234.3,370.6,234,370.6z M234,361.4c-0.3,0-0.5-0.2-0.5-0.5v-4.6c0-0.3,0.2-0.5,0.5-0.5s0.5,0.2,0.5,0.5v4.6
	C234.5,361.2,234.3,361.4,234,361.4z M234,352.3c-0.3,0-0.5-0.2-0.5-0.5v-4.6c0-0.3,0.2-0.5,0.5-0.5s0.5,0.2,0.5,0.5v4.6
	C234.5,352.1,234.3,352.3,234,352.3z M234,343.1c-0.3,0-0.5-0.2-0.5-0.5v-0.4c0-1.5,0.3-2.9,0.8-4.3c0.1-0.3,0.4-0.4,0.6-0.3
	c0.3,0.1,0.4,0.4,0.3,0.6c-0.5,1.3-0.7,2.6-0.7,3.9v0.4C234.5,342.9,234.3,343.1,234,343.1z M237.1,334.8c-0.1,0-0.2,0-0.3-0.1
	c-0.2-0.2-0.2-0.5,0-0.7c1.1-1.2,2.4-2.1,3.8-2.8c0.2-0.1,0.5,0,0.7,0.2c0.1,0.2,0,0.5-0.2,0.7c-1.3,0.6-2.5,1.5-3.5,2.6
	C237.4,334.7,237.3,334.8,237.1,334.8z M245.2,331c-0.3,0-0.5-0.2-0.5-0.5s0.2-0.5,0.5-0.5c0.2,0,0.5,0,0.7,0h3.9
	c0.3,0,0.5,0.2,0.5,0.5s-0.2,0.5-0.5,0.5h-3.9C245.6,330.9,245.4,331,245.2,331L245.2,331z M295.4,330.9h-4.6
	c-0.3,0-0.5-0.2-0.5-0.5s0.2-0.5,0.5-0.5h4.6c0.3,0,0.5,0.2,0.5,0.5C295.9,330.7,295.7,330.9,295.4,330.9z M286.3,330.9h-4.6
	c-0.3,0-0.5-0.2-0.5-0.5s0.2-0.5,0.5-0.5h4.6c0.3,0,0.5,0.2,0.5,0.5C286.8,330.7,286.6,330.9,286.3,330.9z M277.1,330.9h-4.6
	c-0.3,0-0.5-0.2-0.5-0.5s0.2-0.5,0.5-0.5h4.6c0.3,0,0.5,0.2,0.5,0.5C277.6,330.7,277.4,330.9,277.1,330.9z M268,330.9h-4.6
	c-0.3,0-0.5-0.2-0.5-0.5s0.2-0.5,0.5-0.5h4.6c0.3,0,0.5,0.2,0.5,0.5C268.5,330.7,268.3,330.9,268,330.9z M258.9,330.9h-4.6
	c-0.3,0-0.5-0.2-0.5-0.5s0.2-0.5,0.5-0.5h4.6c0.3,0,0.5,0.2,0.5,0.5C259.4,330.7,259.1,330.9,258.9,330.9z"/>
<path class="st1" d="M271,220.5H0.5c-0.3,0-0.5-0.2-0.5-0.5s0.2-0.5,0.5-0.5H271c0.3,0,0.5,0.2,0.5,0.5S271.3,220.5,271,220.5z"/>
<path class="st1" d="M285,382c-3.5,0-6.4-2.9-6.4-6.4s2.9-6.4,6.4-6.4s6.4,2.9,6.4,6.4S288.5,382,285,382z M285,370.2
	c-3,0-5.4,2.4-5.4,5.4s2.4,5.4,5.4,5.4s5.4-2.4,5.4-5.4S287.9,370.2,285,370.2z"/>
<path class="st1" d="M278.4,226.4c-3.5,0-6.4-2.9-6.4-6.4s2.9-6.4,6.4-6.4s6.4,2.9,6.4,6.4S281.9,226.4,278.4,226.4z M278.4,214.6
	c-3,0-5.4,2.4-5.4,5.4s2.4,5.4,5.4,5.4s5.4-2.4,5.4-5.4S281.4,214.6,278.4,214.6z"/>
<path class="st1" d="M0.5,274.1c-0.3,0-0.5-0.2-0.5-0.5s0.2-0.5,0.5-0.5H131c0.3,0,0.5,0.2,0.5,0.5s-0.2,0.5-0.5,0.5H0.5z"/>
<path class="st2" d="M384.3,72.2c-0.6,0-1.3-0.3-1.7-0.8l-5.4-6.2h-19.4l0,0c-1.3,0-2.5-0.5-3.4-1.4c-0.9-0.9-1.4-2.2-1.4-3.5V42.9
	c0-2.7,2.2-4.9,4.9-4.9h29.6c2.7,0,4.9,2.2,4.9,4.9v17.5c0,2.7-2.2,4.9-4.9,4.9h-0.8v4.8C386.6,71.2,385.6,72.2,384.3,72.2z
	 M357.8,64.2L357.8,64.2h19.6c0.1,0,0.3,0.1,0.4,0.2l5.5,6.4c0.2,0.3,0.6,0.4,1,0.4c0.7,0,1.3-0.6,1.3-1.3v-5.2
	c0-0.3,0.2-0.5,0.5-0.5h1.3c2.1,0,3.9-1.7,3.9-3.9V42.9c0-2.1-1.7-3.9-3.9-3.9h-29.6c-2.1,0-3.9,1.7-3.9,3.9v17.5c0,1,0.4,2,1.1,2.8
	C355.8,63.8,356.7,64.2,357.8,64.2L357.8,64.2z"/>
<path class="st0" d="M329,347.4c-0.5,0-0.9-0.4-1.1-0.6l-1.7-2c-1.1,0.1-2.2,0.1-3.3-0.1l-1.8,1.9c-0.2,0.3-0.8,0.7-1.4,0.5
	l-3.5-1.5c-0.6-0.3-0.7-1-0.6-1.4l0.2-2.7c-0.8-0.7-1.6-1.5-2.2-2.4l-2.7,0.1c-0.4,0-1.1-0.1-1.3-0.7l-1.4-3.5
	c-0.3-0.7,0.2-1.2,0.6-1.5l2-1.8c-0.1-1.1-0.1-2.1,0.1-3.2l-2-1.9c-0.3-0.2-0.7-0.8-0.5-1.4l1.5-3.5c0.3-0.6,1-0.7,1.4-0.6l2.7,0.2
	c0.7-0.8,1.5-1.6,2.3-2.2l-0.1-2.7c0-0.4,0.1-1.1,0.7-1.3l3.5-1.4c0.7-0.3,1.2,0.2,1.5,0.6l1.7,2c1.1-0.1,2.2-0.1,3.3,0.1l1.8-1.9
	c0.2-0.3,0.8-0.7,1.4-0.5l3.5,1.5c0.6,0.3,0.7,1,0.6,1.4l-0.2,2.6c0.9,0.7,1.7,1.5,2.3,2.4l2.6-0.1c0.4,0,1.1,0.1,1.3,0.7l1.4,3.5
	c0.3,0.7-0.2,1.2-0.6,1.5l-1.9,1.7c0.1,1.1,0.1,2.3-0.1,3.4l1.9,1.8c0.3,0.2,0.7,0.8,0.5,1.4l-1.5,3.5c-0.3,0.6-1,0.7-1.4,0.6
	l-2.6-0.2c-0.7,0.9-1.5,1.7-2.4,2.3l0.1,2.6c0,0.4-0.1,1.1-0.7,1.3l-3.5,1.4C329.3,347.3,329.2,347.4,329,347.4z M326.5,343.7
	c0.1,0,0.3,0.1,0.4,0.2l1.9,2.2c0.1,0.2,0.3,0.3,0.3,0.2l3.5-1.4c0,0,0.1-0.2,0.1-0.4l-0.1-2.9c0-0.2,0.1-0.3,0.2-0.4
	c1-0.7,1.9-1.5,2.6-2.5c0.1-0.1,0.3-0.2,0.4-0.2l2.9,0.2c0.2,0,0.4,0,0.4,0l1.5-3.5c0-0.1-0.1-0.2-0.2-0.3l-2.1-2
	c-0.1-0.1-0.2-0.3-0.1-0.4c0.2-1.2,0.2-2.4,0.1-3.7c0-0.2,0-0.3,0.2-0.4l2.2-1.9c0.2-0.1,0.3-0.3,0.2-0.3l0,0l-1.4-3.5
	c0,0-0.2-0.1-0.4-0.1l-2.9,0.1c-0.2,0-0.3-0.1-0.4-0.2c-0.7-1-1.6-1.9-2.5-2.6c-0.1-0.1-0.2-0.3-0.2-0.4l0.2-2.9c0-0.2,0-0.4,0-0.4
	l-3.5-1.5c0,0-0.2,0.1-0.3,0.2l-2,2.1c-0.1,0.1-0.3,0.2-0.4,0.1c-1.2-0.2-2.4-0.2-3.6-0.1c-0.2,0-0.3,0-0.4-0.2l-1.9-2.2
	c-0.1-0.2-0.3-0.3-0.3-0.2l-3.5,1.4c0,0-0.1,0.2-0.1,0.4l0.1,3c0,0.2-0.1,0.3-0.2,0.4c-0.9,0.7-1.8,1.5-2.5,2.4
	c-0.1,0.2-0.3,0.2-0.5,0.2l-2.8-0.2c-0.2,0-0.4,0-0.4,0l-1.5,3.5c0,0.1,0.1,0.2,0.2,0.3l2.1,2c0.2,0.1,0.3,0.3,0.2,0.5
	c-0.2,1.2-0.2,2.4-0.1,3.5c0,0.2-0.1,0.4-0.3,0.5l0,0l-2.1,1.9c-0.2,0.1-0.3,0.3-0.2,0.3l1.4,3.5c0,0,0.2,0.1,0.3,0.1l2.9-0.1h0.1
	c0.2,0,0.3,0.1,0.4,0.2c0.7,0.9,1.5,1.8,2.4,2.6c0.1,0.1,0.2,0.3,0.2,0.4c0,0,0,0,0,0.1l-0.2,2.9c0,0.2,0,0.4,0,0.4l3.5,1.5
	c0.1,0,0.2-0.1,0.3-0.2l2-2.1c0.1-0.1,0.3-0.2,0.4-0.1C324,343.8,325.2,343.9,326.5,343.7C326.4,343.8,326.4,343.7,326.5,343.7z"/>
<path class="st0" d="M325,336.8c-0.9,0-1.7-0.2-2.6-0.5c-3.2-1.4-4.7-5.2-3.3-8.4c0.7-1.6,1.9-2.7,3.5-3.4c1.6-0.6,3.3-0.6,4.9,0.1
	s2.7,1.9,3.4,3.5c0.6,1.6,0.6,3.3-0.1,4.9s-1.9,2.7-3.5,3.4C326.5,336.7,325.8,336.8,325,336.8z M325,325.1c-0.7,0-1.3,0.1-1.9,0.4
	c-1.3,0.5-2.4,1.5-3,2.8c-1.2,2.7,0,5.9,2.7,7.1c1.3,0.6,2.8,0.6,4.1,0.1c1.3-0.5,2.4-1.5,3-2.8s0.6-2.8,0.1-4.1
	c-0.5-1.3-1.5-2.4-2.8-3l0,0C326.4,325.2,325.7,325.1,325,325.1z"/>
<g>
	<path class="st3" d="M164.3,294.4c-11.6,0-21.1-9.4-21.1-21.1c0-11.6,9.4-21.1,21.1-21.1c11.6,0,21.1,9.4,21.1,21.1
		C185.3,285,175.9,294.4,164.3,294.4z M164.3,253.3c-11.1,0-20.1,9-20.1,20.1s9,20.1,20.1,20.1s20.1-9,20.1-20.1
		C184.3,262.3,175.3,253.3,164.3,253.3z"/>
	<path class="st3" d="M164.3,294.4c-1,0-2.1-0.1-3.1-0.2h-0.1c-5.4-2.5-9.2-11-9.2-20.8c0-9.7,3.8-18.3,9.2-20.8h0.1
		c2-0.3,4.1-0.3,6.2,0h0.1c5.4,2.5,9.2,11,9.2,20.8c0,9.7-3.8,18.3-9.2,20.8h-0.1C166.3,294.4,165.3,294.4,164.3,294.4z
		 M161.4,293.2c1.9,0.3,3.8,0.3,5.7,0c5-2.4,8.5-10.5,8.5-19.9c0-9.3-3.5-17.5-8.5-19.8c-1.9-0.3-3.8-0.3-5.7,0
		c-5,2.4-8.5,10.5-8.5,19.8C152.9,282.7,156.4,290.9,161.4,293.2z"/>
	<path class="st3" d="M164.3,265.1c-6.2,0-12.1-1.5-16.2-4.2l0.6-0.8c3.9,2.6,9.6,4.1,15.7,4.1s11.7-1.5,15.7-4.1l0.6,0.8
		C176.4,263.5,170.5,265.1,164.3,265.1z"/>
	<path class="st3" d="M179.9,286.8c-3.9-2.6-9.6-4.1-15.7-4.1s-11.7,1.5-15.7,4.1l-0.6-0.8c4.1-2.7,10-4.2,16.2-4.2
		s12.1,1.5,16.2,4.2L179.9,286.8z"/>
	<rect x="143.7" y="272.9" class="st3" width="41.1" height="1"/>
	<rect x="163.8" y="252.8" class="st3" width="1" height="41.1"/>
</g>
<text transform="matrix(1 0 0 1 365.7202 200.8955)" class="st4 st5"> </text>
<path class="st1" d="M164.3,220.5c-0.3,0-0.5-0.2-0.5-0.5v-28.2c0-0.3,0.2-0.5,0.5-0.5s0.5,0.2,0.5,0.5V220
	C164.8,220.3,164.5,220.5,164.3,220.5z"/>
</svg>
