<?xml version="1.0" encoding="utf-8"?>
<!-- Generator: Adobe Illustrator 22.0.0, SVG Export Plug-In . SVG Version: 6.00 Build 0)  -->
<svg version="1.0" id="Ebene_1" xmlns="http://www.w3.org/2000/svg" xmlns:xlink="http://www.w3.org/1999/xlink" x="0px" y="0px"
	 viewBox="0 0 380 600" enable-background="new 0 0 380 600" xml:space="preserve">
<g>
	<g>
		<g>
			
				<linearGradient id="SVGID_2_" gradientUnits="userSpaceOnUse" x1="325.5566" y1="150.1164" x2="376.2597" y2="150.1164" gradientTransform="matrix(1 0 0 -1 0 599.2756)">
				<stop  offset="0" style="stop-color:#6ECA44"/>
				<stop  offset="1" style="stop-color:#86D776"/>
			</linearGradient>
			<path id="SVGID_1_" fill="url(#SVGID_2_)" d="M333.7,433.5c-1.4,0.9-2.8,1.9-4.1,3c-0.2,0.1-0.3,0.3-0.5,0.4
				c-4,3.7-4.1,8.7-2.8,13.3c2.4,8.6,9.3,15.1,17.9,17.4c6,1.6,13.9,2.1,22.6-1.5c3.9-1.6,6.4-3.7,7.9-6.1c5.6-9.3-5.1-22.9-12.8-27
				l-0.3-0.2c-4.2-2.2-8.8-3.3-13.4-3.3C343.1,429.5,338.1,430.9,333.7,433.5"/>
		</g>
	</g>
	<g>
		<g>
			
				<linearGradient id="SVGID_3_" gradientUnits="userSpaceOnUse" x1="373.3971" y1="136.8756" x2="375.2484" y2="136.8756" gradientTransform="matrix(1 0 0 -1 0 599.2756)">
				<stop  offset="0" style="stop-color:#003366"/>
				<stop  offset="1" style="stop-color:#0066BA"/>
			</linearGradient>
			<path id="SVGID_4_" fill="url(#SVGID_3_)" d="M373.4,454v16.8c0,0.5,0.4,0.9,0.9,0.9s0.9-0.4,0.9-0.9V454c0-0.5-0.4-0.9-0.9-0.9
				S373.4,453.5,373.4,454"/>
		</g>
	</g>
	<g>
		<g>
			
				<linearGradient id="SVGID_5_" gradientUnits="userSpaceOnUse" x1="361.4" y1="143.0756" x2="380" y2="143.0756" gradientTransform="matrix(1 0 0 -1 0 599.2756)">
				<stop  offset="0" style="stop-color:#167E3D"/>
				<stop  offset="1" style="stop-color:#084823"/>
			</linearGradient>
			<path id="SVGID_7_" fill="url(#SVGID_5_)" d="M361.4,456.2c0,5.1,4.2,9.3,9.3,9.3c5.1,0,9.3-4.2,9.3-9.3c0-5.1-4.2-9.3-9.3-9.3
				C365.6,446.9,361.4,451.1,361.4,456.2"/>
		</g>
	</g>
	<g>
		<g>
			
				<linearGradient id="SVGID_6_" gradientUnits="userSpaceOnUse" x1="347.1846" y1="136.8873" x2="334.9413" y2="121.4302" gradientTransform="matrix(1 0 0 -1 0 599.2756)">
				<stop  offset="0" style="stop-color:#003366"/>
				<stop  offset="1" style="stop-color:#0066BA"/>
			</linearGradient>
			<path id="SVGID_10_" fill="url(#SVGID_6_)" d="M349.6,461.6l-11,5.4c-0.3,0.2-0.5,0.5-0.5,0.8v9.8c0,0.5,0.4,0.9,0.9,0.9
				s0.9-0.4,0.9-0.9v-9.2l10.5-5.1c0.5-0.2,0.7-0.8,0.4-1.2c-0.2-0.3-0.5-0.5-0.8-0.5C349.9,461.5,349.7,461.5,349.6,461.6"/>
		</g>
	</g>
	<g>
		<g>
			
				<linearGradient id="SVGID_8_" gradientUnits="userSpaceOnUse" x1="338.5209" y1="142.9669" x2="326.2777" y2="127.5098" gradientTransform="matrix(1 0 0 -1 0 599.2756)">
				<stop  offset="0" style="stop-color:#003366"/>
				<stop  offset="1" style="stop-color:#0066BA"/>
			</linearGradient>
			<path id="SVGID_13_" fill="url(#SVGID_8_)" d="M337.6,456.9l-8.4,4.1c-0.3,0.2-0.5,0.5-0.5,0.8v11.5c0,0.5,0.4,0.9,0.9,0.9
				s0.9-0.4,0.9-0.9v-10.9l7.8-3.8c0.5-0.2,0.7-0.8,0.4-1.2c-0.2-0.3-0.5-0.5-0.8-0.5C337.9,456.8,337.8,456.8,337.6,456.9"/>
		</g>
	</g>
	<g>
		<g>
			
				<linearGradient id="SVGID_9_" gradientUnits="userSpaceOnUse" x1="331.19" y1="148.9279" x2="318.9468" y2="133.4709" gradientTransform="matrix(1 0 0 -1 0 599.2756)">
				<stop  offset="0" style="stop-color:#003366"/>
				<stop  offset="1" style="stop-color:#0066BA"/>
			</linearGradient>
			<path id="SVGID_16_" fill="url(#SVGID_9_)" d="M330.3,449.1l-8.4,4.1c-0.3,0.2-0.5,0.5-0.5,0.8v15.1c0,0.5,0.4,0.9,0.9,0.9
				s0.9-0.4,0.9-0.9v-14.5l7.8-3.8c0.5-0.2,0.7-0.8,0.4-1.2c-0.2-0.3-0.5-0.5-0.8-0.5C330.5,449,330.4,449,330.3,449.1"/>
		</g>
	</g>
</g>
<g>
	<path fill="#B2B2B2" d="M249.2,292.7l1-10.6c-8.2-5.4-18-47.9-13.6-53.8c4.4-5.9,6.5-19.2-1.1-21c-10.6-2.6-21.5,16.6-13.9,21.5
		c5.3,3.4,6.3,2.6,7.3,7.5c-0.9,6.9-12.5,56.5,14.3,63.5c1.7,3.6,3.4,5.6,4.9,4.8l0.4-4c0.6,0,1.1,0.1,1.7,0.1
		C250.4,298.4,249.9,295.4,249.2,292.7 M227.4,225.5c-1.4-1.1-0.7-4.2,1.6-6.9c2.2-2.7,5.1-4,6.5-2.8c1.4,1.1,0.7,4.2-1.6,6.9
		C231.7,225.4,228.8,226.7,227.4,225.5"/>
	<g>
		<g>
			<g>
				<polygon id="SVGID_19_" fill="#003266" points="155.8,374.5 155.8,374.9 337,271.4 337,271 246.4,258.8 				"/>
			</g>
		</g>
		<g>
			<g>
				<polyline id="SVGID_21_" fill="#003266" points="337,271.4 155.8,374.9 176.1,374.7 178.5,374.7 257.5,370.1 314,298.4 				"/>
			</g>
		</g>
		<g>
			<g>
				
					<linearGradient id="SVGID_11_" gradientUnits="userSpaceOnUse" x1="317.3236" y1="217.1075" x2="188.7747" y2="237.8027" gradientTransform="matrix(1 0 0 -1 0 599.2756)">
					<stop  offset="0" style="stop-color:#003366"/>
					<stop  offset="1" style="stop-color:#0066BA"/>
				</linearGradient>
				<polygon id="SVGID_23_" fill="url(#SVGID_11_)" points="314,298.4 257.5,370.1 176.1,374.7 155.8,374.9 155.8,386.3 
					155.8,470.1 337,366.6 337,282.8 337,271.4 				"/>
			</g>
		</g>
		<g>
			<g>
				
					<linearGradient id="SVGID_12_" gradientUnits="userSpaceOnUse" x1="152.8" y1="133.5499" x2="152.8" y2="226.4934" gradientTransform="matrix(1 0 0 -1 0 599.2756)">
					<stop  offset="0" style="stop-color:#003366"/>
					<stop  offset="1" style="stop-color:#0066BA"/>
				</linearGradient>
				<polygon id="SVGID_26_" fill="url(#SVGID_12_)" points="149.8,466.7 155.8,470.1 155.8,374.9 149.8,371.4 				"/>
			</g>
		</g>
		<g>
			<g>
				
					<linearGradient id="SVGID_14_" gradientUnits="userSpaceOnUse" x1="244.9269" y1="343.1554" x2="152.744" y2="227.0484" gradientTransform="matrix(1 0 0 -1 0 599.2756)">
					<stop  offset="0" style="stop-color:#003366"/>
					<stop  offset="1" style="stop-color:#0066BA"/>
				</linearGradient>
				<polygon id="SVGID_29_" fill="url(#SVGID_14_)" points="149.8,371.4 155.8,374.9 246.4,258.8 240.4,255.3 				"/>
			</g>
		</g>
		<g>
			<g>
				
					<linearGradient id="SVGID_15_" gradientUnits="userSpaceOnUse" x1="240.4" y1="336.1256" x2="337" y2="336.1256" gradientTransform="matrix(1 0 0 -1 0 599.2756)">
					<stop  offset="0" style="stop-color:#003366"/>
					<stop  offset="1" style="stop-color:#0066BA"/>
				</linearGradient>
				<polygon id="SVGID_32_" fill="url(#SVGID_15_)" points="246.4,258.8 337,271 331,267.6 240.4,255.3 				"/>
			</g>
		</g>
		<g>
			<g>
				<polygon id="SVGID_35_" fill="#EBEBEB" points="178.8,285.7 178.8,374.7 257.5,370.1 314,298.4 314,208.5 				"/>
			</g>
		</g>
		<g>
			<path fill="#878787" d="M240.4,321.2l-44.9,25.9c-0.6,0.3-1.3-0.1-1.3-0.7v-7.8c0-0.3,0.2-0.6,0.4-0.7l44.9-26
				c0.6-0.3,1.3,0.1,1.3,0.7v7.8C240.9,320.7,240.6,321.1,240.4,321.2"/>
			<path fill="#878787" d="M298.1,311.9l-99.8,57.6c-0.6,0.3-1.3-0.1-1.3-0.7V361c0-0.3,0.2-0.6,0.4-0.7l99.8-57.6
				c0.6-0.3,1.3,0.1,1.3,0.7v7.8C298.5,311.5,298.4,311.8,298.1,311.9"/>
			<polygon fill="#878787" points="211.5,372.7 230.2,371.6 278.3,343.9 292.1,326.2 			"/>
		</g>
	</g>
	<path fill="#575756" d="M250.2,282.1c-3.3,3.9-4.5,22.5-2.1,22.5s6.6-3.5,6.6-3.5s1-16.1,0-17.3
		C253.7,282.6,250.2,282.1,250.2,282.1"/>
	<path fill="#B2B2B2" d="M283.8,244c-5.1,7.9-11.1,14.9-17.6,20.8c2.8,0.4,5.5,0.8,8.3,1.2c-3.3,18.7-13,23-21.9,19.8
		c-1.5,5.2-2.3,10.5-2.3,15C270.5,304.9,288.5,272.4,283.8,244"/>
	<polygon fill="#575756" points="266.2,264.8 273.8,269.3 276.8,264.8 275.4,260.5 	"/>
	<path fill="none" stroke="#575756" stroke-width="2.2513" stroke-miterlimit="10" d="M187.1,125.6c13.2,24.3,19.7,51.5,29.7,77.2
		c2,5.1,4.2,10.4,8.5,13.9s11,4.5,15,0.7c2.4-2.2,3.3-5.8,2.2-8.8s-4.3-5.2-7.5-5c-5.8,0.4-8.7,8.8-5,13.3s19.8,5.8,23.9,1.7"/>
	<path fill="#B2B2B2" d="M236.6,228.3c4.4-5.9,6.5-19.2-1.1-21l-0.1,8.5c1.4,1.1,0.7,4.2-1.6,6.9"/>
</g>
<g>
	
		<path fill="none" stroke="#C8C8C8" stroke-linecap="round" stroke-linejoin="round" stroke-miterlimit="10" stroke-dasharray="8,8" d="
		M267.3,456.4v119.5c0,12.2-9.9,22.1-22.1,22.1H0"/>
</g>
</svg>
