<?xml version="1.0" encoding="utf-8"?>
<!-- Generator: Adobe Illustrator 22.0.0, SVG Export Plug-In . SVG Version: 6.00 Build 0)  -->
<svg version="1.0" id="Ebene_1" xmlns="http://www.w3.org/2000/svg" xmlns:xlink="http://www.w3.org/1999/xlink" x="0px" y="0px"
	 viewBox="0 0 380 600" enable-background="new 0 0 380 600" xml:space="preserve">
<g>
	
		<path fill="none" stroke="#C8C8C8" stroke-linecap="round" stroke-linejoin="round" stroke-miterlimit="10" stroke-dasharray="8,8" d="
		M95.1,422.8v-63.7c0-6.5,5.3-11.8,11.8-11.8H380"/>
</g>
<g>
	<g>
		<defs>
			<path id="SVGID_1_" d="M5,503.4v66.8c0,0.7,0.4,1.3,0.9,1.7l0,0c0,0,0.1,0,0.1,0l2.7,1.6c-0.5-0.3-0.8-0.9-0.8-1.5l0-0.1
				c0,0,0,0,0,0v-66.8c0-0.3,0.1-0.6,0.2-0.9l-2.9-1.7C5.1,502.8,5,503.1,5,503.4"/>
		</defs>
		<linearGradient id="SVGID_2_" gradientUnits="userSpaceOnUse" x1="6.8818" y1="567.0524" x2="6.8818" y2="503.1132">
			<stop  offset="0" style="stop-color:#6E788C"/>
			<stop  offset="1" style="stop-color:#C8C8C8"/>
		</linearGradient>
		<use xlink:href="#SVGID_1_"  overflow="visible" fill="url(#SVGID_2_)"/>
		<clipPath id="SVGID_3_">
			<use xlink:href="#SVGID_1_"  overflow="visible"/>
		</clipPath>
	</g>
	<g>
		<defs>
			<path id="SVGID_4_" d="M214.4,381.2L6,501.7c-0.3,0.2-0.6,0.5-0.8,0.8l2.9,1.7c0.2-0.3,0.4-0.6,0.8-0.8l208.4-120.5c0,0,0,0,0,0
				v0h0c0.6-0.3,1.3-0.3,1.9,0l-2.8-1.6c0,0,0,0,0,0l0,0c-0.3-0.2-0.6-0.2-0.9-0.2C215,381,214.7,381,214.4,381.2"/>
		</defs>
		<linearGradient id="SVGID_5_" gradientUnits="userSpaceOnUse" x1="155.1392" y1="417.597" x2="31.1757" y2="489.0994">
			<stop  offset="0" style="stop-color:#6E788C"/>
			<stop  offset="1" style="stop-color:#C8C8C8"/>
		</linearGradient>
		<use xlink:href="#SVGID_4_"  overflow="visible" fill="url(#SVGID_5_)"/>
		<clipPath id="SVGID_6_">
			<use xlink:href="#SVGID_4_"  overflow="visible"/>
		</clipPath>
	</g>
	<g>
		<defs>
			<path id="SVGID_7_" d="M217.3,382.9C217.3,382.9,217.3,382.9,217.3,382.9C217.3,382.9,217.3,382.9,217.3,382.9L8.9,503.4
				c-0.3,0.2-0.6,0.5-0.8,0.8c-0.1,0.3-0.2,0.6-0.2,0.9v66.8c0,0,0,0,0,0.1c0,0.7,0.4,1.2,0.8,1.5l0.3,0.2c0.5,0.3,1.2,0.3,1.8-0.1
				l208.4-120.5c0.6-0.4,1-1,1-1.7v-66.8c0-0.8-0.4-1.4-1-1.7l-0.1,0c-0.3-0.1-0.6-0.2-0.9-0.2C217.9,382.6,217.6,382.7,217.3,382.9
				"/>
		</defs>
		<linearGradient id="SVGID_8_" gradientUnits="userSpaceOnUse" x1="7.914" y1="478.2552" x2="220.2258" y2="478.2552">
			<stop  offset="0" style="stop-color:#6E788C"/>
			<stop  offset="1" style="stop-color:#C8C8C8"/>
		</linearGradient>
		<use xlink:href="#SVGID_7_"  overflow="visible" fill="url(#SVGID_8_)"/>
		<clipPath id="SVGID_9_">
			<use xlink:href="#SVGID_7_"  overflow="visible"/>
		</clipPath>
	</g>
	<g>
		<g>
			<defs>
				<path id="SVGID_10_" d="M44.6,523.9v66.8c0,0.7,0.4,1.3,0.9,1.7l0,0c0,0,0.1,0,0.1,0l2.7,1.6c-0.5-0.3-0.8-0.9-0.8-1.5l0-0.1
					c0,0,0,0,0,0v-66.8c0-0.3,0.1-0.6,0.2-0.9l-2.9-1.7C44.7,523.2,44.6,523.5,44.6,523.9"/>
			</defs>
			<linearGradient id="SVGID_11_" gradientUnits="userSpaceOnUse" x1="44.6148" y1="558.4708" x2="48.3784" y2="558.4708">
				<stop  offset="0" style="stop-color:#003366"/>
				<stop  offset="1" style="stop-color:#0066BA"/>
			</linearGradient>
			<use xlink:href="#SVGID_10_"  overflow="visible" fill="url(#SVGID_11_)"/>
			<clipPath id="SVGID_12_">
				<use xlink:href="#SVGID_10_"  overflow="visible"/>
			</clipPath>
		</g>
		<g>
			<defs>
				<path id="SVGID_13_" d="M254,401.7L45.6,522.2c-0.3,0.2-0.6,0.5-0.8,0.8l2.9,1.7c0.2-0.3,0.4-0.6,0.8-0.8l208.4-120.5
					c0,0,0,0,0,0v0h0c0.6-0.3,1.3-0.3,1.9,0l-2.8-1.6c0,0,0,0,0,0l0,0c-0.3-0.2-0.6-0.2-0.9-0.2C254.6,401.4,254.3,401.5,254,401.7"
					/>
			</defs>
			<linearGradient id="SVGID_14_" gradientUnits="userSpaceOnUse" x1="44.8311" y1="463.0276" x2="258.7903" y2="463.0276">
				<stop  offset="0" style="stop-color:#003366"/>
				<stop  offset="1" style="stop-color:#0066BA"/>
			</linearGradient>
			<use xlink:href="#SVGID_13_"  overflow="visible" fill="url(#SVGID_14_)"/>
			<clipPath id="SVGID_15_">
				<use xlink:href="#SVGID_13_"  overflow="visible"/>
			</clipPath>
		</g>
		<g>
			<defs>
				<path id="SVGID_16_" d="M256.9,403.4C256.9,403.4,256.9,403.4,256.9,403.4C256.9,403.4,256.9,403.4,256.9,403.4L48.5,523.9
					c-0.3,0.2-0.6,0.5-0.8,0.8c-0.1,0.3-0.2,0.6-0.2,0.9v66.8c0,0,0,0,0,0.1c0,0.7,0.4,1.2,0.8,1.5l0.3,0.2c0.5,0.3,1.2,0.3,1.8-0.1
					l208.4-120.5c0.6-0.4,1-1,1-1.7v-66.8c0-0.8-0.4-1.4-1-1.7c0,0,0,0-0.1,0c-0.3-0.1-0.6-0.2-0.9-0.2
					C257.6,403.1,257.2,403.2,256.9,403.4"/>
			</defs>
			<linearGradient id="SVGID_17_" gradientUnits="userSpaceOnUse" x1="47.5288" y1="498.712" x2="259.8406" y2="498.712">
				<stop  offset="0" style="stop-color:#003366"/>
				<stop  offset="1" style="stop-color:#0066BA"/>
			</linearGradient>
			<use xlink:href="#SVGID_16_"  overflow="visible" fill="url(#SVGID_17_)"/>
			<clipPath id="SVGID_18_">
				<use xlink:href="#SVGID_16_"  overflow="visible"/>
			</clipPath>
		</g>
		<path fill="#FFFFFF" d="M98.7,531.1c0,5.6-4.6,12.9-10.2,16.1c-5.6,3.3-10.2,1.3-10.2-4.3s4.6-12.9,10.2-16.1
			C94.2,523.5,98.7,525.5,98.7,531.1"/>
		<path fill="#FFFFFF" d="M132.4,512.7c0,5.6-4.6,12.9-10.2,16.1c-5.6,3.3-10.2,1.3-10.2-4.3c0-5.6,4.6-12.9,10.2-16.1
			C127.8,505.1,132.4,507,132.4,512.7"/>
		<path fill="#FFFFFF" d="M166,493.3c0,5.6-4.6,12.9-10.2,16.1c-5.6,3.3-10.2,1.3-10.2-4.3c0-5.6,4.6-12.9,10.2-16.1
			C161.4,485.7,166,487.7,166,493.3"/>
		<path fill="#FFFFFF" d="M199.6,473.8c0,5.6-4.6,12.9-10.2,16.1c-5.6,3.3-10.2,1.3-10.2-4.3s4.6-12.9,10.2-16.1
			C195,466.2,199.6,468.2,199.6,473.8"/>
		<path fill="#FFFFFF" d="M233.2,454.5c0,5.6-4.6,12.9-10.2,16.1c-5.6,3.3-10.2,1.3-10.2-4.3s4.6-12.9,10.2-16.1
			C228.7,446.9,233.2,448.9,233.2,454.5"/>
		<g>
			<defs>
				<path id="SVGID_19_" d="M211.8,486.6v44.2c0,0.5,0.3,0.9,0.6,1.1l0,0c0,0,0,0,0.1,0l2.8,1.6c-0.3-0.2-0.5-0.6-0.5-1v-44.2
					c0-0.3,0.1-0.5,0.2-0.7l-3-1.6C211.9,486.2,211.8,486.4,211.8,486.6"/>
			</defs>
			<linearGradient id="SVGID_20_" gradientUnits="userSpaceOnUse" x1="213.5411" y1="532.5776" x2="213.5411" y2="488.9726">
				<stop  offset="0" style="stop-color:#6ECA44"/>
				<stop  offset="1" style="stop-color:#86D776"/>
			</linearGradient>
			<use xlink:href="#SVGID_19_"  overflow="visible" fill="url(#SVGID_20_)"/>
			<clipPath id="SVGID_21_">
				<use xlink:href="#SVGID_19_"  overflow="visible"/>
			</clipPath>
		</g>
		<g>
			<defs>
				<path id="SVGID_22_" d="M282,445l-69.6,40.5c-0.2,0.1-0.4,0.3-0.5,0.5l3,1.6c0.1-0.2,0.3-0.3,0.4-0.4l69.6-40.5
					c0.4-0.2,0.8-0.2,1.2-0.1l-2.8-1.6c0,0,0,0,0,0l0,0v0c-0.2-0.1-0.4-0.2-0.6-0.2C282.4,444.8,282.2,444.9,282,445"/>
			</defs>
			<linearGradient id="SVGID_23_" gradientUnits="userSpaceOnUse" x1="278.8403" y1="448.8746" x2="213.0457" y2="487.0612">
				<stop  offset="0" style="stop-color:#6ECA44"/>
				<stop  offset="1" style="stop-color:#86D776"/>
			</linearGradient>
			<use xlink:href="#SVGID_22_"  overflow="visible" fill="url(#SVGID_23_)"/>
			<clipPath id="SVGID_24_">
				<use xlink:href="#SVGID_22_"  overflow="visible"/>
			</clipPath>
		</g>
		<g>
			<defs>
				<path id="SVGID_25_" d="M285,446.7l-69.6,40.5c-0.2,0.1-0.3,0.2-0.4,0.4c-0.1,0.2-0.2,0.4-0.2,0.7v44.2c0,0.4,0.2,0.8,0.5,1
					l0.3,0.2c0,0,0,0,0,0c0.4,0.1,0.8,0.1,1.1-0.1l69.6-40.5c0.4-0.2,0.6-0.7,0.6-1.1v-44.2c0-0.6-0.3-1-0.8-1.2
					c-0.2-0.1-0.3-0.1-0.5-0.1C285.4,446.5,285.2,446.6,285,446.7"/>
			</defs>
			<linearGradient id="SVGID_26_" gradientUnits="userSpaceOnUse" x1="214.755" y1="490.1721" x2="286.8978" y2="490.1721">
				<stop  offset="0" style="stop-color:#6ECA44"/>
				<stop  offset="1" style="stop-color:#86D776"/>
			</linearGradient>
			<use xlink:href="#SVGID_25_"  overflow="visible" fill="url(#SVGID_26_)"/>
			<clipPath id="SVGID_27_">
				<use xlink:href="#SVGID_25_"  overflow="visible"/>
			</clipPath>
		</g>
		<linearGradient id="SVGID_28_" gradientUnits="userSpaceOnUse" x1="277.8542" y1="484.43" x2="277.8542" y2="521.511">
			<stop  offset="0" style="stop-color:#969696"/>
			<stop  offset="1" style="stop-color:#C8C8C8"/>
		</linearGradient>
		<path fill="url(#SVGID_28_)" d="M296.1,491.9l-1.8-0.9c-0.1,0-0.1-0.1-0.2-0.1l-31.9-9c-1-0.3-2.5,1.3-2.5,2.6v40.7
			c0,0.5,0.2,0.8,0.5,0.9l0,0l5.2,1.4l-0.3-1.4c0.2-0.2,0.5-0.5,0.6-0.8l1.6-26.5c0.3-0.5,3.1-5.4,3.5-5.6l22.2,1
			c0.8-0.5,1.4-1.4,1.5-2.1C295.2,492.1,296.1,491.9,296.1,491.9"/>
		<g>
			<defs>
				<path id="SVGID_29_" d="M264.7,486.1v40.7c0,1.4,1.7,1.1,2.7-0.5l11.1-18.7c0.3-0.5,0.7-0.9,1.1-1.2l18.5-10.7
					c1.4-0.8,2.1-3,1-3.3l-31.9-8.9c-0.1,0-0.2,0-0.2,0C266,483.4,264.7,484.9,264.7,486.1"/>
			</defs>
			<linearGradient id="SVGID_30_" gradientUnits="userSpaceOnUse" x1="264.6784" y1="505.5545" x2="299.6667" y2="505.5545">
				<stop  offset="0" style="stop-color:#969696"/>
				<stop  offset="1" style="stop-color:#C8C8C8"/>
			</linearGradient>
			<use xlink:href="#SVGID_29_"  overflow="visible" fill="url(#SVGID_30_)"/>
			<clipPath id="SVGID_31_">
				<use xlink:href="#SVGID_29_"  overflow="visible"/>
			</clipPath>
		</g>
	</g>
</g>
</svg>
