<?xml version="1.0" encoding="utf-8"?>
<!-- Generator: Adobe Illustrator 19.2.0, SVG Export Plug-In . SVG Version: 6.00 Build 0)  -->
<svg version="1.1" id="Ebene_1" xmlns="http://www.w3.org/2000/svg" xmlns:xlink="http://www.w3.org/1999/xlink" x="0px" y="0px"
	 width="392.8px" height="1674px" viewBox="0 0 392.8 1674" style="enable-background:new 0 0 392.8 1674;" xml:space="preserve">
<style type="text/css">
	.st0{fill:#004C91;}
	.st1{fill:#79B641;}
	.st2{fill:#C8C8C8;}
	.st3{fill:none;stroke:#004C91;stroke-linejoin:round;stroke-miterlimit:10;}
</style>
<path class="st0" d="M147.1,589.1h-32.8c-2.6,0-4.8-2.1-4.8-4.8v-48.4c0-2.6,2.1-4.8,4.8-4.8h22.5c0.1,0,0.1,0,0.2,0
	c0.2,0,0.5,0.1,0.7,0.4l0,0l0,0l13.6,14l0,0l0.1,0.1c0,0.1,0.1,0.2,0.2,0.3c0.1,0.1,0.1,0.3,0.1,0.3l0,0c0,0,0,0.1,0,0.2v37.8
	C151.9,587,149.8,589.1,147.1,589.1z M114.4,532.1c-2.1,0-3.8,1.7-3.8,3.8v48.4c0,2.1,1.7,3.8,3.8,3.8h32.8c2.1,0,3.8-1.7,3.8-3.8
	v-37.8v-0.1c0,0,0-0.1-0.1-0.1l0,0l-13.6-14l0,0c-0.1-0.1-0.1-0.1-0.2-0.1c0,0,0,0-0.1,0L114.4,532.1z"/>
<path class="st0" d="M151,546.9h-12.8c-0.7,0-1.4-0.6-1.4-1.4v-13.2h1v13.2c0,0.2,0.2,0.4,0.4,0.4H151V546.9z"/>
<path class="st1" d="M225,273.8h-33c-6.8,0-12.3-5.5-12.3-12.3V0.2c0-0.3,0.2-0.5,0.5-0.5s0.5,0.2,0.5,0.5v261.3
	c0,6.2,5.1,11.3,11.3,11.3h33c0.3,0,0.5,0.2,0.5,0.5S225.3,273.8,225,273.8z"/>
<path class="st2" d="M194.9,561.8h-33c-0.3,0-0.5-0.2-0.5-0.5s0.2-0.5,0.5-0.5h33c6.2,0,11.3-5.1,11.3-11.3V247.4
	c0-0.3,0.2-0.5,0.5-0.5s0.5,0.2,0.5,0.5v302.1C207.2,556.3,201.7,561.8,194.9,561.8z"/>
<path class="st2" d="M137.9,378.6h-4.6c-0.3,0-0.5-0.2-0.5-0.5s0.2-0.5,0.5-0.5h4.6c0.3,0,0.5,0.2,0.5,0.5S138.1,378.6,137.9,378.6z
	 M128.7,378.6h-4.6c-0.3,0-0.5-0.2-0.5-0.5s0.2-0.5,0.5-0.5h4.6c0.3,0,0.5,0.2,0.5,0.5S129,378.6,128.7,378.6z M119.6,378.6H115
	c-0.3,0-0.5-0.2-0.5-0.5s0.2-0.5,0.5-0.5h4.6c0.3,0,0.5,0.2,0.5,0.5S119.9,378.6,119.6,378.6z M142.4,378.6c-0.3,0-0.5-0.2-0.5-0.5
	s0.2-0.5,0.5-0.5c1.5-0.1,2.9-0.5,4.2-1.2c0.2-0.1,0.5,0,0.7,0.2c0.1,0.2,0,0.5-0.2,0.7C145.6,378,144.1,378.4,142.4,378.6
	C142.5,378.6,142.4,378.6,142.4,378.6z M150.3,374.5c-0.1,0-0.2,0-0.3-0.1c-0.2-0.2-0.2-0.5-0.1-0.7c1-1.1,1.7-2.4,2.1-3.8
	c0.1-0.3,0.4-0.4,0.6-0.3c0.3,0.1,0.4,0.4,0.3,0.6c-0.5,1.5-1.3,2.9-2.3,4.1C150.6,374.4,150.5,374.5,150.3,374.5z M153.2,366
	c-0.3,0-0.5-0.2-0.5-0.5V361c0-0.3,0.2-0.5,0.5-0.5s0.5,0.2,0.5,0.5v4.6C153.7,365.8,153.5,366,153.2,366z M153.2,356.9
	c-0.3,0-0.5-0.2-0.5-0.5v-4.6c0-0.3,0.2-0.5,0.5-0.5s0.5,0.2,0.5,0.5v4.6C153.7,356.7,153.5,356.9,153.2,356.9z M153.2,347.8
	c-0.3,0-0.5-0.2-0.5-0.5v-4.6c0-0.3,0.2-0.5,0.5-0.5s0.5,0.2,0.5,0.5v4.6C153.7,347.5,153.5,347.8,153.2,347.8z M153.2,338.6
	c-0.3,0-0.5-0.2-0.5-0.5v-4.6c0-0.3,0.2-0.5,0.5-0.5s0.5,0.2,0.5,0.5v4.6C153.7,338.4,153.5,338.6,153.2,338.6z M153.2,329.5
	c-0.3,0-0.5-0.2-0.5-0.5v-4.6c0-0.3,0.2-0.5,0.5-0.5s0.5,0.2,0.5,0.5v4.6C153.7,329.3,153.5,329.5,153.2,329.5z M153.2,320.4
	c-0.3,0-0.5-0.2-0.5-0.5v-4.6c0-0.3,0.2-0.5,0.5-0.5s0.5,0.2,0.5,0.5v4.6C153.7,320.1,153.5,320.4,153.2,320.4z M153.2,311.2
	c-0.3,0-0.5-0.2-0.5-0.5v-4.6c0-0.3,0.2-0.5,0.5-0.5s0.5,0.2,0.5,0.5v4.6C153.7,311,153.5,311.2,153.2,311.2z M153.2,302.1
	c-0.3,0-0.5-0.2-0.5-0.5V297c0-0.3,0.2-0.5,0.5-0.5s0.5,0.2,0.5,0.5v4.6C153.7,301.9,153.5,302.1,153.2,302.1z M153.2,292.9
	c-0.3,0-0.5-0.2-0.5-0.5v-4.6c0-0.3,0.2-0.5,0.5-0.5s0.5,0.2,0.5,0.5v4.6C153.7,292.7,153.5,292.9,153.2,292.9z M153.2,283.8
	c-0.3,0-0.5-0.2-0.5-0.5v-4.6c0-0.3,0.2-0.5,0.5-0.5s0.5,0.2,0.5,0.5v4.6C153.7,283.6,153.5,283.8,153.2,283.8z M153.2,274.7
	c-0.3,0-0.5-0.2-0.5-0.5v-4.6c0-0.3,0.2-0.5,0.5-0.5s0.5,0.2,0.5,0.5v4.6C153.7,274.4,153.5,274.7,153.2,274.7z M153.2,265.5
	c-0.3,0-0.5-0.2-0.5-0.5v-4.6c0-0.3,0.2-0.5,0.5-0.5s0.5,0.2,0.5,0.5v4.6C153.7,265.3,153.5,265.5,153.2,265.5z M153.2,256.4
	c-0.3,0-0.5-0.2-0.5-0.5v-4.6c0-0.3,0.2-0.5,0.5-0.5s0.5,0.2,0.5,0.5v4.6C153.7,256.2,153.5,256.4,153.2,256.4z"/>
<path class="st1" d="M180.2,154.2c-0.3,0-0.5-0.2-0.5-0.5V117c0-6.2-5.1-11.3-11.3-11.3H70.1c-0.3,0-0.5-0.2-0.5-0.5
	s0.2-0.5,0.5-0.5h98.3c6.8,0,12.3,5.5,12.3,12.3v36.7C180.7,154,180.5,154.2,180.2,154.2z"/>
<g>
	<path class="st1" d="M167.3,422.8c-0.3,0-0.5-0.2-0.5-0.5V403c0-7.3,6-13.3,13.3-13.3h14.6c0.3,0,0.5,0.2,0.5,0.5s-0.2,0.5-0.5,0.5
		h-14.6c-6.8,0-12.3,5.5-12.3,12.3v19.3C167.8,422.5,167.6,422.8,167.3,422.8z"/>
	<g>
		<polygon class="st1" points="171.4,419 170.7,418.3 167.3,421.9 164,418.3 163.2,419 167.3,423.3 		"/>
	</g>
</g>
<path class="st1" d="M280.5,1709.4c-0.3,0-0.5-0.2-0.5-0.5v-4.6c0-0.3,0.2-0.5,0.5-0.5s0.5,0.2,0.5,0.5v4.6
	C281,1709.1,280.8,1709.4,280.5,1709.4z M280.5,1700.2c-0.3,0-0.5-0.2-0.5-0.5v-4.6c0-0.3,0.2-0.5,0.5-0.5s0.5,0.2,0.5,0.5v4.6
	C281,1700,280.8,1700.2,280.5,1700.2z M280.5,1691.1c-0.3,0-0.5-0.2-0.5-0.5v-4.6c0-0.3,0.2-0.5,0.5-0.5s0.5,0.2,0.5,0.5v4.6
	C281,1690.9,280.8,1691.1,280.5,1691.1z M280.5,1682c-0.3,0-0.5-0.2-0.5-0.5v-4.6c0-0.3,0.2-0.5,0.5-0.5s0.5,0.2,0.5,0.5v4.6
	C281,1681.7,280.8,1682,280.5,1682z M280.5,1672.8c-0.3,0-0.5-0.2-0.5-0.5v-4.6c0-0.3,0.2-0.5,0.5-0.5s0.5,0.2,0.5,0.5v4.6
	C281,1672.6,280.8,1672.8,280.5,1672.8z M280.5,1663.7c-0.3,0-0.5-0.2-0.5-0.5v-4.6c0-0.3,0.2-0.5,0.5-0.5s0.5,0.2,0.5,0.5v4.6
	C281,1663.5,280.8,1663.7,280.5,1663.7z M280.5,1654.5c-0.3,0-0.5-0.2-0.5-0.5v-4.6c0-0.3,0.2-0.5,0.5-0.5s0.5,0.2,0.5,0.5v4.6
	C281,1654.3,280.8,1654.5,280.5,1654.5z M280.5,1645.4c-0.3,0-0.5-0.2-0.5-0.5v-4.6c0-0.3,0.2-0.5,0.5-0.5s0.5,0.2,0.5,0.5v4.6
	C281,1645.2,280.8,1645.4,280.5,1645.4z M280.5,1636.3c-0.3,0-0.5-0.2-0.5-0.5v-4.6c0-0.3,0.2-0.5,0.5-0.5s0.5,0.2,0.5,0.5v4.6
	C281,1636,280.8,1636.3,280.5,1636.3z M280.5,1627.1c-0.3,0-0.5-0.2-0.5-0.5v-4.6c0-0.3,0.2-0.5,0.5-0.5s0.5,0.2,0.5,0.5v4.6
	C281,1626.9,280.8,1627.1,280.5,1627.1z M280.5,1618c-0.3,0-0.5-0.2-0.5-0.5v-4.6c0-0.3,0.2-0.5,0.5-0.5s0.5,0.2,0.5,0.5v4.6
	C281,1617.8,280.8,1618,280.5,1618z M280.5,1608.9c-0.3,0-0.5-0.2-0.5-0.5v-4.6c0-0.3,0.2-0.5,0.5-0.5s0.5,0.2,0.5,0.5v4.6
	C281,1608.6,280.8,1608.9,280.5,1608.9z M280.5,1599.7c-0.3,0-0.5-0.2-0.5-0.5v-4.6c0-0.3,0.2-0.5,0.5-0.5s0.5,0.2,0.5,0.5v4.6
	C281,1599.5,280.8,1599.7,280.5,1599.7z M280.5,1590.6c-0.3,0-0.5-0.2-0.5-0.5v-4.6c0-0.3,0.2-0.5,0.5-0.5s0.5,0.2,0.5,0.5v4.6
	C281,1590.4,280.8,1590.6,280.5,1590.6z M280.5,1581.5c-0.3,0-0.5-0.2-0.5-0.5v-4.6c0-0.3,0.2-0.5,0.5-0.5s0.5,0.2,0.5,0.5v4.6
	C281,1581.2,280.8,1581.5,280.5,1581.5z M280.5,1572.3c-0.3,0-0.5-0.2-0.5-0.5v-4.6c0-0.3,0.2-0.5,0.5-0.5s0.5,0.2,0.5,0.5v4.6
	C281,1572.1,280.8,1572.3,280.5,1572.3z M280.5,1563.2c-0.3,0-0.5-0.2-0.5-0.5v-4.6c0-0.3,0.2-0.5,0.5-0.5s0.5,0.2,0.5,0.5v4.6
	C281,1563,280.8,1563.2,280.5,1563.2z M280.5,1554c-0.3,0-0.5-0.2-0.5-0.5v-4.6c0-0.3,0.2-0.5,0.5-0.5s0.5,0.2,0.5,0.5v4.6
	C281,1553.8,280.8,1554,280.5,1554z M280.5,1544.9c-0.3,0-0.5-0.2-0.5-0.5v-4.6c0-0.3,0.2-0.5,0.5-0.5s0.5,0.2,0.5,0.5v4.6
	C281,1544.7,280.8,1544.9,280.5,1544.9z M280.5,1535.8c-0.3,0-0.5-0.2-0.5-0.5v-4.6c0-0.3,0.2-0.5,0.5-0.5s0.5,0.2,0.5,0.5v4.6
	C281,1535.5,280.8,1535.8,280.5,1535.8z M280.5,1526.6c-0.3,0-0.5-0.2-0.5-0.5v-4.6c0-0.3,0.2-0.5,0.5-0.5s0.5,0.2,0.5,0.5v4.6
	C281,1526.4,280.8,1526.6,280.5,1526.6z M280.5,1517.5c-0.3,0-0.5-0.2-0.5-0.5v-4.6c0-0.3,0.2-0.5,0.5-0.5s0.5,0.2,0.5,0.5v4.6
	C281,1517.3,280.8,1517.5,280.5,1517.5z M280.5,1508.4c-0.3,0-0.5-0.2-0.5-0.5v-4.6c0-0.3,0.2-0.5,0.5-0.5s0.5,0.2,0.5,0.5v4.6
	C281,1508.1,280.8,1508.4,280.5,1508.4z M280.5,1499.2c-0.3,0-0.5-0.2-0.5-0.5v-4.6c0-0.3,0.2-0.5,0.5-0.5s0.5,0.2,0.5,0.5v4.6
	C281,1499,280.8,1499.2,280.5,1499.2z M280.5,1490.1c-0.3,0-0.5-0.2-0.5-0.5v-4.6c0-0.3,0.2-0.5,0.5-0.5s0.5,0.2,0.5,0.5v4.6
	C281,1489.9,280.8,1490.1,280.5,1490.1z M280.5,1481c-0.3,0-0.5-0.2-0.5-0.5v-4.6c0-0.3,0.2-0.5,0.5-0.5s0.5,0.2,0.5,0.5v4.6
	C281,1480.7,280.8,1481,280.5,1481z M280.5,1471.8c-0.3,0-0.5-0.2-0.5-0.5v-4.6c0-0.3,0.2-0.5,0.5-0.5s0.5,0.2,0.5,0.5v4.6
	C281,1471.6,280.8,1471.8,280.5,1471.8z M280.5,1462.7c-0.3,0-0.5-0.2-0.5-0.5v-4.6c0-0.3,0.2-0.5,0.5-0.5s0.5,0.2,0.5,0.5v4.6
	C281,1462.5,280.8,1462.7,280.5,1462.7z M280.5,1453.5c-0.3,0-0.5-0.2-0.5-0.5v-4.6c0-0.3,0.2-0.5,0.5-0.5s0.5,0.2,0.5,0.5v4.6
	C281,1453.3,280.8,1453.5,280.5,1453.5z M280.5,1444.4c-0.3,0-0.5-0.2-0.5-0.5v-4.6c0-0.3,0.2-0.5,0.5-0.5s0.5,0.2,0.5,0.5v4.6
	C281,1444.2,280.8,1444.4,280.5,1444.4z M280.5,1435.3c-0.3,0-0.5-0.2-0.5-0.5v-4.6c0-0.3,0.2-0.5,0.5-0.5s0.5,0.2,0.5,0.5v4.6
	C281,1435,280.8,1435.3,280.5,1435.3z M280.5,1426.1c-0.3,0-0.5-0.2-0.5-0.5v-4.6c0-0.3,0.2-0.5,0.5-0.5s0.5,0.2,0.5,0.5v4.6
	C281,1425.9,280.8,1426.1,280.5,1426.1z M280.5,1417c-0.3,0-0.5-0.2-0.5-0.5v-4.6c0-0.3,0.2-0.5,0.5-0.5s0.5,0.2,0.5,0.5v4.6
	C281,1416.8,280.8,1417,280.5,1417z M280.5,1407.9c-0.3,0-0.5-0.2-0.5-0.5v-4.6c0-0.3,0.2-0.5,0.5-0.5s0.5,0.2,0.5,0.5v4.6
	C281,1407.6,280.8,1407.9,280.5,1407.9z M280.5,1398.7c-0.3,0-0.5-0.2-0.5-0.5v-4.6c0-0.3,0.2-0.5,0.5-0.5s0.5,0.2,0.5,0.5v4.6
	C281,1398.5,280.8,1398.7,280.5,1398.7z M280.5,1389.6c-0.3,0-0.5-0.2-0.5-0.5v-4.6c0-0.3,0.2-0.5,0.5-0.5s0.5,0.2,0.5,0.5v4.6
	C281,1389.4,280.8,1389.6,280.5,1389.6z M280.5,1380.5c-0.3,0-0.5-0.2-0.5-0.5v-4.6c0-0.3,0.2-0.5,0.5-0.5s0.5,0.2,0.5,0.5v4.6
	C281,1380.2,280.8,1380.5,280.5,1380.5z M280.5,1371.3c-0.3,0-0.5-0.2-0.5-0.5v-4.6c0-0.3,0.2-0.5,0.5-0.5s0.5,0.2,0.5,0.5v4.6
	C281,1371.1,280.8,1371.3,280.5,1371.3z M280.5,1362.2c-0.3,0-0.5-0.2-0.5-0.5v-4.6c0-0.3,0.2-0.5,0.5-0.5s0.5,0.2,0.5,0.5v4.6
	C281,1362,280.8,1362.2,280.5,1362.2z M280.5,1353c-0.3,0-0.5-0.2-0.5-0.5v-4.6c0-0.3,0.2-0.5,0.5-0.5s0.5,0.2,0.5,0.5v4.6
	C281,1352.8,280.8,1353,280.5,1353z M280.5,1343.9c-0.3,0-0.5-0.2-0.5-0.5v-4.6c0-0.3,0.2-0.5,0.5-0.5s0.5,0.2,0.5,0.5v4.6
	C281,1343.7,280.8,1343.9,280.5,1343.9z M280.5,1334.8c-0.3,0-0.5-0.2-0.5-0.5v-4.6c0-0.3,0.2-0.5,0.5-0.5s0.5,0.2,0.5,0.5v4.6
	C281,1334.5,280.8,1334.8,280.5,1334.8z M280.5,1325.6c-0.3,0-0.5-0.2-0.5-0.5v-4.6c0-0.3,0.2-0.5,0.5-0.5s0.5,0.2,0.5,0.5v4.6
	C281,1325.4,280.8,1325.6,280.5,1325.6z M280.5,1316.5c-0.3,0-0.5-0.2-0.5-0.5v-4.6c0-0.3,0.2-0.5,0.5-0.5s0.5,0.2,0.5,0.5v4.6
	C281,1316.3,280.8,1316.5,280.5,1316.5z M280.5,1307.4c-0.3,0-0.5-0.2-0.5-0.5v-4.6c0-0.3,0.2-0.5,0.5-0.5s0.5,0.2,0.5,0.5v4.6
	C281,1307.1,280.8,1307.4,280.5,1307.4z M280.5,1298.2c-0.3,0-0.5-0.2-0.5-0.5v-4.6c0-0.3,0.2-0.5,0.5-0.5s0.5,0.2,0.5,0.5v4.6
	C281,1298,280.8,1298.2,280.5,1298.2z M280.5,1289.1c-0.3,0-0.5-0.2-0.5-0.5v-4.6c0-0.3,0.2-0.5,0.5-0.5s0.5,0.2,0.5,0.5v4.6
	C281,1288.9,280.8,1289.1,280.5,1289.1z M280.5,1280c-0.3,0-0.5-0.2-0.5-0.5v-4.6c0-0.3,0.2-0.5,0.5-0.5s0.5,0.2,0.5,0.5v4.6
	C281,1279.7,280.8,1280,280.5,1280z M280.5,1270.8c-0.3,0-0.5-0.2-0.5-0.5v-4.6c0-0.3,0.2-0.5,0.5-0.5s0.5,0.2,0.5,0.5v4.6
	C281,1270.6,280.8,1270.8,280.5,1270.8z M280.5,1261.7c-0.3,0-0.5-0.2-0.5-0.5v-4.6c0-0.3,0.2-0.5,0.5-0.5s0.5,0.2,0.5,0.5v4.6
	C281,1261.5,280.8,1261.7,280.5,1261.7z M280.5,1252.5c-0.3,0-0.5-0.2-0.5-0.5v-4.6c0-0.3,0.2-0.5,0.5-0.5s0.5,0.2,0.5,0.5v4.6
	C281,1252.3,280.8,1252.5,280.5,1252.5z M280.5,1243.4c-0.3,0-0.5-0.2-0.5-0.5v-4.6c0-0.3,0.2-0.5,0.5-0.5s0.5,0.2,0.5,0.5v4.6
	C281,1243.2,280.8,1243.4,280.5,1243.4z M280.5,1234.3c-0.3,0-0.5-0.2-0.5-0.5v-4.6c0-0.3,0.2-0.5,0.5-0.5s0.5,0.2,0.5,0.5v4.6
	C281,1234,280.8,1234.3,280.5,1234.3z M280.5,1225.1c-0.3,0-0.5-0.2-0.5-0.5v-4.6c0-0.3,0.2-0.5,0.5-0.5s0.5,0.2,0.5,0.5v4.6
	C281,1224.9,280.8,1225.1,280.5,1225.1z M280.5,1216c-0.3,0-0.5-0.2-0.5-0.5v-4.6c0-0.3,0.2-0.5,0.5-0.5s0.5,0.2,0.5,0.5v4.6
	C281,1215.8,280.8,1216,280.5,1216z M280.5,1206.9c-0.3,0-0.5-0.2-0.5-0.5v-4.6c0-0.3,0.2-0.5,0.5-0.5s0.5,0.2,0.5,0.5v4.6
	C281,1206.6,280.8,1206.9,280.5,1206.9z M280.5,1197.7c-0.3,0-0.5-0.2-0.5-0.5v-4.6c0-0.3,0.2-0.5,0.5-0.5s0.5,0.2,0.5,0.5v4.6
	C281,1197.5,280.8,1197.7,280.5,1197.7z M280.5,1188.6c-0.3,0-0.5-0.2-0.5-0.5v-4.6c0-0.3,0.2-0.5,0.5-0.5s0.5,0.2,0.5,0.5v4.6
	C281,1188.4,280.8,1188.6,280.5,1188.6z M280.5,1179.5c-0.3,0-0.5-0.2-0.5-0.5v-4.6c0-0.3,0.2-0.5,0.5-0.5s0.5,0.2,0.5,0.5v4.6
	C281,1179.2,280.8,1179.5,280.5,1179.5z M280.5,1170.3c-0.3,0-0.5-0.2-0.5-0.5v-4.6c0-0.3,0.2-0.5,0.5-0.5s0.5,0.2,0.5,0.5v4.6
	C281,1170.1,280.8,1170.3,280.5,1170.3z M280.5,1161.2c-0.3,0-0.5-0.2-0.5-0.5v-4.6c0-0.3,0.2-0.5,0.5-0.5s0.5,0.2,0.5,0.5v4.6
	C281,1161,280.8,1161.2,280.5,1161.2z M280.5,1152c-0.3,0-0.5-0.2-0.5-0.5v-4.6c0-0.3,0.2-0.5,0.5-0.5s0.5,0.2,0.5,0.5v4.6
	C281,1151.8,280.8,1152,280.5,1152z M280.5,1142.9c-0.3,0-0.5-0.2-0.5-0.5v-4.6c0-0.3,0.2-0.5,0.5-0.5s0.5,0.2,0.5,0.5v4.6
	C281,1142.7,280.8,1142.9,280.5,1142.9z M280.5,1133.8c-0.3,0-0.5-0.2-0.5-0.5v-4.6c0-0.3,0.2-0.5,0.5-0.5s0.5,0.2,0.5,0.5v4.6
	C281,1133.5,280.8,1133.8,280.5,1133.8z M280.5,1124.6c-0.3,0-0.5-0.2-0.5-0.5v-4.6c0-0.3,0.2-0.5,0.5-0.5s0.5,0.2,0.5,0.5v4.6
	C281,1124.4,280.8,1124.6,280.5,1124.6z M280.5,1115.5c-0.3,0-0.5-0.2-0.5-0.5v-4.6c0-0.3,0.2-0.5,0.5-0.5s0.5,0.2,0.5,0.5v4.6
	C281,1115.3,280.8,1115.5,280.5,1115.5z M280.5,1106.4c-0.3,0-0.5-0.2-0.5-0.5v-4.6c0-0.3,0.2-0.5,0.5-0.5s0.5,0.2,0.5,0.5v4.6
	C281,1106.1,280.8,1106.4,280.5,1106.4z M280.5,1097.2c-0.3,0-0.5-0.2-0.5-0.5v-4.6c0-0.3,0.2-0.5,0.5-0.5s0.5,0.2,0.5,0.5v4.6
	C281,1097,280.8,1097.2,280.5,1097.2z M280.5,1088.1c-0.3,0-0.5-0.2-0.5-0.5v-4.6c0-0.3,0.2-0.5,0.5-0.5s0.5,0.2,0.5,0.5v4.6
	C281,1087.9,280.8,1088.1,280.5,1088.1z M280.5,1079c-0.3,0-0.5-0.2-0.5-0.5v-4.6c0-0.3,0.2-0.5,0.5-0.5s0.5,0.2,0.5,0.5v4.6
	C281,1078.7,280.8,1079,280.5,1079z M280.5,1069.8c-0.3,0-0.5-0.2-0.5-0.5v-4.6c0-0.3,0.2-0.5,0.5-0.5s0.5,0.2,0.5,0.5v4.6
	C281,1069.6,280.8,1069.8,280.5,1069.8z M280.5,1060.7c-0.3,0-0.5-0.2-0.5-0.5v-4.6c0-0.3,0.2-0.5,0.5-0.5s0.5,0.2,0.5,0.5v4.6
	C281,1060.5,280.8,1060.7,280.5,1060.7z M280.5,1051.5c-0.3,0-0.5-0.2-0.5-0.5v-4.6c0-0.3,0.2-0.5,0.5-0.5s0.5,0.2,0.5,0.5v4.6
	C281,1051.3,280.8,1051.5,280.5,1051.5z M280.5,1042.4c-0.3,0-0.5-0.2-0.5-0.5v-4.6c0-0.3,0.2-0.5,0.5-0.5s0.5,0.2,0.5,0.5v4.6
	C281,1042.2,280.8,1042.4,280.5,1042.4z M280.5,1033.3c-0.3,0-0.5-0.2-0.5-0.5v-4.6c0-0.3,0.2-0.5,0.5-0.5s0.5,0.2,0.5,0.5v4.6
	C281,1033,280.8,1033.3,280.5,1033.3z M280.5,1024.1c-0.3,0-0.5-0.2-0.5-0.5v-4.6c0-0.3,0.2-0.5,0.5-0.5s0.5,0.2,0.5,0.5v4.6
	C281,1023.9,280.8,1024.1,280.5,1024.1z M280.5,1015c-0.3,0-0.5-0.2-0.5-0.5v-4.6c0-0.3,0.2-0.5,0.5-0.5s0.5,0.2,0.5,0.5v4.6
	C281,1014.8,280.8,1015,280.5,1015z M280.5,1005.9c-0.3,0-0.5-0.2-0.5-0.5v-4.6c0-0.3,0.2-0.5,0.5-0.5s0.5,0.2,0.5,0.5v4.6
	C281,1005.6,280.8,1005.9,280.5,1005.9z M280.5,996.7c-0.3,0-0.5-0.2-0.5-0.5v-4.6c0-0.3,0.2-0.5,0.5-0.5s0.5,0.2,0.5,0.5v4.6
	C281,996.5,280.8,996.7,280.5,996.7z M280.5,987.6c-0.3,0-0.5-0.2-0.5-0.5v-4.6c0-0.3,0.2-0.5,0.5-0.5s0.5,0.2,0.5,0.5v4.6
	C281,987.4,280.8,987.6,280.5,987.6z M280.5,978.5c-0.3,0-0.5-0.2-0.5-0.5v-4.6c0-0.3,0.2-0.5,0.5-0.5s0.5,0.2,0.5,0.5v4.6
	C281,978.2,280.8,978.5,280.5,978.5z M280.5,969.3c-0.3,0-0.5-0.2-0.5-0.5v-4.6c0-0.3,0.2-0.5,0.5-0.5s0.5,0.2,0.5,0.5v4.6
	C281,969.1,280.8,969.3,280.5,969.3z M280.5,960.2c-0.3,0-0.5-0.2-0.5-0.5v-4.6c0-0.3,0.2-0.5,0.5-0.5s0.5,0.2,0.5,0.5v4.6
	C281,960,280.8,960.2,280.5,960.2z M280.5,951c-0.3,0-0.5-0.2-0.5-0.5V946c0-0.3,0.2-0.5,0.5-0.5s0.5,0.2,0.5,0.5v4.6
	C281,950.8,280.8,951,280.5,951z M280.5,941.9c-0.3,0-0.5-0.2-0.5-0.5v-4.6c0-0.3,0.2-0.5,0.5-0.5s0.5,0.2,0.5,0.5v4.6
	C281,941.7,280.8,941.9,280.5,941.9z M280.5,932.8c-0.3,0-0.5-0.2-0.5-0.5v-4.6c0-0.3,0.2-0.5,0.5-0.5s0.5,0.2,0.5,0.5v4.6
	C281,932.5,280.8,932.8,280.5,932.8z M280.5,923.6c-0.3,0-0.5-0.2-0.5-0.5v-4.6c0-0.3,0.2-0.5,0.5-0.5s0.5,0.2,0.5,0.5v4.6
	C281,923.4,280.8,923.6,280.5,923.6z M280.5,914.5c-0.3,0-0.5-0.2-0.5-0.5v-4.6c0-0.3,0.2-0.5,0.5-0.5s0.5,0.2,0.5,0.5v4.6
	C281,914.3,280.8,914.5,280.5,914.5z M280.5,905.4c-0.3,0-0.5-0.2-0.5-0.5v-4.6c0-0.3,0.2-0.5,0.5-0.5s0.5,0.2,0.5,0.5v4.6
	C281,905.1,280.8,905.4,280.5,905.4z M280.5,896.2c-0.3,0-0.5-0.2-0.5-0.5v-4.6c0-0.3,0.2-0.5,0.5-0.5s0.5,0.2,0.5,0.5v4.6
	C281,896,280.8,896.2,280.5,896.2z M280.5,887.1c-0.3,0-0.5-0.2-0.5-0.5V882c0-0.3,0.2-0.5,0.5-0.5s0.5,0.2,0.5,0.5v4.6
	C281,886.9,280.8,887.1,280.5,887.1z M280.5,877.9c-0.3,0-0.5-0.2-0.5-0.5v-4.6c0-0.3,0.2-0.5,0.5-0.5s0.5,0.2,0.5,0.5v4.6
	C281,877.7,280.8,877.9,280.5,877.9z M280.5,868.8c-0.3,0-0.5-0.2-0.5-0.5v-4.6c0-0.3,0.2-0.5,0.5-0.5s0.5,0.2,0.5,0.5v4.6
	C281,868.6,280.8,868.8,280.5,868.8z M280.5,859.7c-0.3,0-0.5-0.2-0.5-0.5v-4.6c0-0.3,0.2-0.5,0.5-0.5s0.5,0.2,0.5,0.5v4.6
	C281,859.5,280.8,859.7,280.5,859.7z M280.5,850.5c-0.3,0-0.5-0.2-0.5-0.5v-4.6c0-0.3,0.2-0.5,0.5-0.5s0.5,0.2,0.5,0.5v4.6
	C281,850.3,280.8,850.5,280.5,850.5z M280.5,841.4c-0.3,0-0.5-0.2-0.5-0.5v-4.6c0-0.3,0.2-0.5,0.5-0.5s0.5,0.2,0.5,0.5v4.6
	C281,841.2,280.8,841.4,280.5,841.4z M280.5,832.3c-0.3,0-0.5-0.2-0.5-0.5v-4.6c0-0.3,0.2-0.5,0.5-0.5s0.5,0.2,0.5,0.5v4.6
	C281,832,280.8,832.3,280.5,832.3z M280.5,823.1c-0.3,0-0.5-0.2-0.5-0.5V818c0-0.3,0.2-0.5,0.5-0.5s0.5,0.2,0.5,0.5v4.6
	C281,822.9,280.8,823.1,280.5,823.1z M280.5,814c-0.3,0-0.5-0.2-0.5-0.5v-4.6c0-0.3,0.2-0.5,0.5-0.5s0.5,0.2,0.5,0.5v4.6
	C281,813.8,280.8,814,280.5,814z M280.5,804.9c-0.3,0-0.5-0.2-0.5-0.5v-4.6c0-0.3,0.2-0.5,0.5-0.5s0.5,0.2,0.5,0.5v4.6
	C281,804.6,280.8,804.9,280.5,804.9z M280.5,795.7c-0.3,0-0.5-0.2-0.5-0.5v-4.6c0-0.3,0.2-0.5,0.5-0.5s0.5,0.2,0.5,0.5v4.6
	C281,795.5,280.8,795.7,280.5,795.7z M280.5,786.6c-0.3,0-0.5-0.2-0.5-0.5v-4.6c0-0.3,0.2-0.5,0.5-0.5s0.5,0.2,0.5,0.5v4.6
	C281,786.4,280.8,786.6,280.5,786.6z M280.5,777.4c-0.3,0-0.5-0.2-0.5-0.5v-4.6c0-0.3,0.2-0.5,0.5-0.5s0.5,0.2,0.5,0.5v4.6
	C281,777.2,280.8,777.4,280.5,777.4z M280.5,768.3c-0.3,0-0.5-0.2-0.5-0.5v-4.6c0-0.3,0.2-0.5,0.5-0.5s0.5,0.2,0.5,0.5v4.6
	C281,768.1,280.8,768.3,280.5,768.3z M280.5,759.2c-0.3,0-0.5-0.2-0.5-0.5v-4.6c0-0.3,0.2-0.5,0.5-0.5s0.5,0.2,0.5,0.5v4.6
	C281,759,280.8,759.2,280.5,759.2z M280.5,750c-0.3,0-0.5-0.2-0.5-0.5V745c0-0.3,0.2-0.5,0.5-0.5s0.5,0.2,0.5,0.5v4.6
	C281,749.8,280.8,750,280.5,750z M280.5,740.9c-0.3,0-0.5-0.2-0.5-0.5v-4.6c0-0.3,0.2-0.5,0.5-0.5s0.5,0.2,0.5,0.5v4.6
	C281,740.7,280.8,740.9,280.5,740.9z M280.5,731.8c-0.3,0-0.5-0.2-0.5-0.5v-4.6c0-0.3,0.2-0.5,0.5-0.5s0.5,0.2,0.5,0.5v4.6
	C281,731.5,280.8,731.8,280.5,731.8z M280.5,722.6c-0.3,0-0.5-0.2-0.5-0.5v-4.6c0-0.3,0.2-0.5,0.5-0.5s0.5,0.2,0.5,0.5v4.6
	C281,722.4,280.8,722.6,280.5,722.6z M280.5,713.5c-0.3,0-0.5-0.2-0.5-0.5v-4.6c0-0.3,0.2-0.5,0.5-0.5s0.5,0.2,0.5,0.5v4.6
	C281,713.3,280.8,713.5,280.5,713.5z M280.5,704.4c-0.3,0-0.5-0.2-0.5-0.5v-4.6c0-0.3,0.2-0.5,0.5-0.5s0.5,0.2,0.5,0.5v4.6
	C281,704.1,280.8,704.4,280.5,704.4z M280.5,695.2c-0.3,0-0.5-0.2-0.5-0.5v-4.6c0-0.3,0.2-0.5,0.5-0.5s0.5,0.2,0.5,0.5v4.6
	C281,695,280.8,695.2,280.5,695.2z M280.5,686.1c-0.3,0-0.5-0.2-0.5-0.5V681c0-0.3,0.2-0.5,0.5-0.5s0.5,0.2,0.5,0.5v4.6
	C281,685.9,280.8,686.1,280.5,686.1z M280.5,676.9c-0.3,0-0.5-0.2-0.5-0.5v-4.6c0-0.3,0.2-0.5,0.5-0.5s0.5,0.2,0.5,0.5v4.6
	C281,676.7,280.8,676.9,280.5,676.9z M280.5,667.8c-0.3,0-0.5-0.2-0.5-0.5v-4.6c0-0.3,0.2-0.5,0.5-0.5s0.5,0.2,0.5,0.5v4.6
	C281,667.6,280.8,667.8,280.5,667.8z M280.5,658.7c-0.3,0-0.5-0.2-0.5-0.5v-4.6c0-0.3,0.2-0.5,0.5-0.5s0.5,0.2,0.5,0.5v4.6
	C281,658.5,280.8,658.7,280.5,658.7z M280.5,649.5c-0.3,0-0.5-0.2-0.5-0.5v-4.6c0-0.3,0.2-0.5,0.5-0.5s0.5,0.2,0.5,0.5v4.6
	C281,649.3,280.8,649.5,280.5,649.5z M280.5,640.4c-0.3,0-0.5-0.2-0.5-0.5v-4.6c0-0.3,0.2-0.5,0.5-0.5s0.5,0.2,0.5,0.5v4.6
	C281,640.2,280.8,640.4,280.5,640.4z M280.5,631.3c-0.3,0-0.5-0.2-0.5-0.5v-4.6c0-0.3,0.2-0.5,0.5-0.5s0.5,0.2,0.5,0.5v4.6
	C281,631,280.8,631.3,280.5,631.3z M280.5,622.1c-0.3,0-0.5-0.2-0.5-0.5V617c0-0.3,0.2-0.5,0.5-0.5s0.5,0.2,0.5,0.5v4.6
	C281,621.9,280.8,622.1,280.5,622.1z M280.5,613c-0.3,0-0.5-0.2-0.5-0.5v-4.6c0-0.3,0.2-0.5,0.5-0.5s0.5,0.2,0.5,0.5v4.6
	C281,612.8,280.8,613,280.5,613z M280.5,603.9c-0.3,0-0.5-0.2-0.5-0.5v-4.6c0-0.3,0.2-0.5,0.5-0.5s0.5,0.2,0.5,0.5v4.6
	C281,603.6,280.8,603.9,280.5,603.9z M280.5,594.7c-0.3,0-0.5-0.2-0.5-0.5v-4.6c0-0.3,0.2-0.5,0.5-0.5s0.5,0.2,0.5,0.5v4.6
	C281,594.5,280.8,594.7,280.5,594.7z M280.5,585.6c-0.3,0-0.5-0.2-0.5-0.5v-4.6c0-0.3,0.2-0.5,0.5-0.5s0.5,0.2,0.5,0.5v4.6
	C281,585.4,280.8,585.6,280.5,585.6z M280.5,576.4c-0.3,0-0.5-0.2-0.5-0.5v-4.6c0-0.3,0.2-0.5,0.5-0.5s0.5,0.2,0.5,0.5v4.6
	C281,576.2,280.8,576.4,280.5,576.4z M280.5,567.3c-0.3,0-0.5-0.2-0.5-0.5v-4.6c0-0.3,0.2-0.5,0.5-0.5s0.5,0.2,0.5,0.5v4.6
	C281,567.1,280.8,567.3,280.5,567.3z M280.5,558.2c-0.3,0-0.5-0.2-0.5-0.5v-4.6c0-0.3,0.2-0.5,0.5-0.5s0.5,0.2,0.5,0.5v4.6
	C281,558,280.8,558.2,280.5,558.2z M280.5,549c-0.3,0-0.5-0.2-0.5-0.5V544c0-0.3,0.2-0.5,0.5-0.5s0.5,0.2,0.5,0.5v4.6
	C281,548.8,280.8,549,280.5,549z M280.5,539.9c-0.3,0-0.5-0.2-0.5-0.5v-4.6c0-0.3,0.2-0.5,0.5-0.5s0.5,0.2,0.5,0.5v4.6
	C281,539.7,280.8,539.9,280.5,539.9z M280.5,530.8c-0.3,0-0.5-0.2-0.5-0.5v-4.6c0-0.3,0.2-0.5,0.5-0.5s0.5,0.2,0.5,0.5v4.6
	C281,530.5,280.8,530.8,280.5,530.8z M280.5,521.6c-0.3,0-0.5-0.2-0.5-0.5v-4.6c0-0.3,0.2-0.5,0.5-0.5s0.5,0.2,0.5,0.5v4.6
	C281,521.4,280.8,521.6,280.5,521.6z M280.5,512.5c-0.3,0-0.5-0.2-0.5-0.5v-4.6c0-0.3,0.2-0.5,0.5-0.5s0.5,0.2,0.5,0.5v4.6
	C281,512.3,280.8,512.5,280.5,512.5z M280.5,503.4c-0.3,0-0.5-0.2-0.5-0.5v-4.6c0-0.3,0.2-0.5,0.5-0.5s0.5,0.2,0.5,0.5v4.6
	C281,503.1,280.8,503.4,280.5,503.4z M280.5,494.2c-0.3,0-0.5-0.2-0.5-0.5v-4.6c0-0.3,0.2-0.5,0.5-0.5s0.5,0.2,0.5,0.5v4.6
	C281,494,280.8,494.2,280.5,494.2z M280.5,485.1c-0.3,0-0.5-0.2-0.5-0.5V480c0-0.3,0.2-0.5,0.5-0.5s0.5,0.2,0.5,0.5v4.6
	C281,484.9,280.8,485.1,280.5,485.1z M280.5,475.9c-0.3,0-0.5-0.2-0.5-0.5v-4.6c0-0.3,0.2-0.5,0.5-0.5s0.5,0.2,0.5,0.5v4.6
	C281,475.7,280.8,475.9,280.5,475.9z M280.5,466.8c-0.3,0-0.5-0.2-0.5-0.5v-4.6c0-0.3,0.2-0.5,0.5-0.5s0.5,0.2,0.5,0.5v4.6
	C281,466.6,280.8,466.8,280.5,466.8z M280.5,457.7c-0.3,0-0.5-0.2-0.5-0.5v-4.6c0-0.3,0.2-0.5,0.5-0.5s0.5,0.2,0.5,0.5v4.6
	C281,457.5,280.8,457.7,280.5,457.7z M280.5,448.5c-0.3,0-0.5-0.2-0.5-0.5v-4.6c0-0.3,0.2-0.5,0.5-0.5s0.5,0.2,0.5,0.5v4.6
	C281,448.3,280.8,448.5,280.5,448.5z M280.5,439.4c-0.3,0-0.5-0.2-0.5-0.5v-4.6c0-0.3,0.2-0.5,0.5-0.5s0.5,0.2,0.5,0.5v4.6
	C281,439.2,280.8,439.4,280.5,439.4z M280.5,430.3c-0.3,0-0.5-0.2-0.5-0.5v-4.6c0-0.3,0.2-0.5,0.5-0.5s0.5,0.2,0.5,0.5v4.6
	C281,430,280.8,430.3,280.5,430.3z M280.5,421.1c-0.3,0-0.5-0.2-0.5-0.5V416c0-0.3,0.2-0.5,0.5-0.5s0.5,0.2,0.5,0.5v4.6
	C281,420.9,280.8,421.1,280.5,421.1z M280.5,412c-0.3,0-0.5-0.2-0.5-0.5v-4.6c0-0.3,0.2-0.5,0.5-0.5s0.5,0.2,0.5,0.5v4.6
	C281,411.8,280.8,412,280.5,412z M280.5,402.9c-0.3,0-0.5-0.2-0.5-0.5V402c0-1.3-0.2-2.7-0.7-3.9c-0.1-0.3,0-0.5,0.3-0.6
	s0.5,0,0.6,0.3c0.5,1.4,0.8,2.8,0.8,4.3v0.4C281,402.6,280.8,402.9,280.5,402.9z M277.4,394.5c-0.1,0-0.3-0.1-0.4-0.2
	c-1-1.1-2.2-2-3.5-2.6c-0.2-0.1-0.4-0.4-0.2-0.7c0.1-0.3,0.4-0.4,0.7-0.2c1.4,0.7,2.7,1.6,3.8,2.8c0.2,0.2,0.2,0.5,0,0.7
	C277.7,394.5,277.6,394.5,277.4,394.5z M269.4,390.7L269.4,390.7c-0.2,0-0.5,0-0.7,0h-3.9c-0.3,0-0.5-0.2-0.5-0.5s0.2-0.5,0.5-0.5
	h3.9c0.2,0,0.5,0,0.7,0c0.3,0,0.5,0.3,0.5,0.5C269.9,390.5,269.6,390.7,269.4,390.7z M260.2,390.7h-4.6c-0.3,0-0.5-0.2-0.5-0.5
	s0.2-0.5,0.5-0.5h4.6c0.3,0,0.5,0.2,0.5,0.5S260.5,390.7,260.2,390.7z M251.1,390.7h-4.6c-0.3,0-0.5-0.2-0.5-0.5s0.2-0.5,0.5-0.5
	h4.6c0.3,0,0.5,0.2,0.5,0.5S251.4,390.7,251.1,390.7z M242,390.7h-4.6c-0.3,0-0.5-0.2-0.5-0.5s0.2-0.5,0.5-0.5h4.6
	c0.3,0,0.5,0.2,0.5,0.5S242.3,390.7,242,390.7z M232.8,390.7h-4.6c-0.3,0-0.5-0.2-0.5-0.5s0.2-0.5,0.5-0.5h4.6
	c0.3,0,0.5,0.2,0.5,0.5S233.1,390.7,232.8,390.7z M223.7,390.7h-4.6c-0.3,0-0.5-0.2-0.5-0.5s0.2-0.5,0.5-0.5h4.6
	c0.3,0,0.5,0.2,0.5,0.5S224,390.7,223.7,390.7z"/>
<rect x="259.5" y="340.5" class="st0" width="244.8" height="1"/>
<path class="st2" d="M206.7,247.7c-3.5,0-6.4-2.9-6.4-6.4s2.9-6.4,6.4-6.4s6.4,2.9,6.4,6.4C213.1,244.8,210.3,247.7,206.7,247.7z
	 M206.7,235.9c-3,0-5.4,2.4-5.4,5.4s2.4,5.4,5.4,5.4s5.4-2.4,5.4-5.4S209.7,235.9,206.7,235.9z"/>
<path class="st2" d="M153.2,247.7c-3.5,0-6.4-2.9-6.4-6.4s2.9-6.4,6.4-6.4s6.4,2.9,6.4,6.4C159.6,244.8,156.7,247.7,153.2,247.7z
	 M153.2,235.9c-3,0-5.4,2.4-5.4,5.4s2.4,5.4,5.4,5.4s5.4-2.4,5.4-5.4S156.2,235.9,153.2,235.9z"/>
<path class="st2" d="M152.3,83c-0.3,0-0.5-0.2-0.5-0.5V78c0-0.3,0.2-0.5,0.5-0.5s0.5,0.2,0.5,0.5v4.6C152.8,82.8,152.5,83,152.3,83z
	 M152.3,73.9c-0.3,0-0.5-0.2-0.5-0.5v-4.6c0-0.3,0.2-0.5,0.5-0.5s0.5,0.2,0.5,0.5v4.6C152.8,73.7,152.5,73.9,152.3,73.9z
	 M152.3,64.8c-0.3,0-0.5-0.2-0.5-0.5v-4.6c0-0.3,0.2-0.5,0.5-0.5s0.5,0.2,0.5,0.5v4.6C152.8,64.5,152.5,64.8,152.3,64.8z
	 M152.2,55.6c-0.3,0-0.5-0.2-0.5-0.5c-0.1-1.5-0.5-2.9-1.2-4.2c-0.1-0.2,0-0.5,0.2-0.7c0.2-0.1,0.5,0,0.7,0.2
	c0.7,1.4,1.2,2.9,1.3,4.5C152.7,55.4,152.5,55.6,152.2,55.6C152.3,55.6,152.2,55.6,152.2,55.6z M148.1,47.7c-0.1,0-0.2,0-0.3-0.1
	c-1.1-1-2.4-1.7-3.8-2.1c-0.3-0.1-0.4-0.4-0.3-0.6c0.1-0.3,0.4-0.4,0.6-0.3c1.5,0.5,2.9,1.3,4.1,2.3c0.2,0.2,0.2,0.5,0.1,0.7
	C148.4,47.7,148.3,47.7,148.1,47.7z M139.7,44.9h-4.6c-0.3,0-0.5-0.2-0.5-0.5s0.2-0.5,0.5-0.5h4.6c0.3,0,0.5,0.2,0.5,0.5
	S140,44.9,139.7,44.9z M130.6,44.9H126c-0.3,0-0.5-0.2-0.5-0.5s0.2-0.5,0.5-0.5h4.6c0.3,0,0.5,0.2,0.5,0.5S130.8,44.9,130.6,44.9z
	 M121.4,44.9h-4.6c-0.3,0-0.5-0.2-0.5-0.5s0.2-0.5,0.5-0.5h4.6c0.3,0,0.5,0.2,0.5,0.5S121.7,44.9,121.4,44.9z M112.3,44.9h-4.6
	c-0.3,0-0.5-0.2-0.5-0.5s0.2-0.5,0.5-0.5h4.6c0.3,0,0.5,0.2,0.5,0.5S112.6,44.9,112.3,44.9z M103.1,44.9h-4.6
	c-0.3,0-0.5-0.2-0.5-0.5s0.2-0.5,0.5-0.5h4.6c0.3,0,0.5,0.2,0.5,0.5S103.4,44.9,103.1,44.9z M94,44.9h-4.6c-0.3,0-0.5-0.2-0.5-0.5
	s0.2-0.5,0.5-0.5H94c0.3,0,0.5,0.2,0.5,0.5S94.3,44.9,94,44.9z M84.9,44.9h-4.6c-0.3,0-0.5-0.2-0.5-0.5s0.2-0.5,0.5-0.5h4.6
	c0.3,0,0.5,0.2,0.5,0.5S85.1,44.9,84.9,44.9z M75.7,44.9h-4.6c-0.3,0-0.5-0.2-0.5-0.5s0.2-0.5,0.5-0.5h4.6c0.3,0,0.5,0.2,0.5,0.5
	S76,44.9,75.7,44.9z M66.6,44.9H62c-0.3,0-0.5-0.2-0.5-0.5s0.2-0.5,0.5-0.5h4.6c0.3,0,0.5,0.2,0.5,0.5S66.9,44.9,66.6,44.9z
	 M57.5,44.9h-4.6c-0.3,0-0.5-0.2-0.5-0.5s0.2-0.5,0.5-0.5h4.6c0.3,0,0.5,0.2,0.5,0.5S57.7,44.9,57.5,44.9z M48.3,44.9h-4.6
	c-0.3,0-0.5-0.2-0.5-0.5s0.2-0.5,0.5-0.5h4.6c0.3,0,0.5,0.2,0.5,0.5S48.6,44.9,48.3,44.9z M39.2,44.9h-4.6c-0.3,0-0.5-0.2-0.5-0.5
	s0.2-0.5,0.5-0.5h4.6c0.3,0,0.5,0.2,0.5,0.5S39.5,44.9,39.2,44.9z M30.1,44.9h-4.6c-0.3,0-0.5-0.2-0.5-0.5s0.2-0.5,0.5-0.5h4.6
	c0.3,0,0.5,0.2,0.5,0.5S30.3,44.9,30.1,44.9z"/>
<path class="st2" d="M15.5,50.8c-3.5,0-6.4-2.9-6.4-6.4S12,38,15.5,38s6.4,2.9,6.4,6.4S19,50.8,15.5,50.8z M15.5,39
	c-3,0-5.4,2.4-5.4,5.4s2.4,5.4,5.4,5.4s5.4-2.4,5.4-5.4S18.4,39,15.5,39z"/>
<path class="st0" d="M252.7,347.4c-3.5,0-6.4-2.9-6.4-6.4s2.9-6.4,6.4-6.4c3.5,0,6.4,2.9,6.4,6.4S256.2,347.4,252.7,347.4z
	 M252.7,335.6c-3,0-5.4,2.4-5.4,5.4s2.4,5.4,5.4,5.4s5.4-2.4,5.4-5.4S255.6,335.6,252.7,335.6z"/>
<path class="st2" d="M417.4,479.6H172.7c-0.3,0-0.5-0.2-0.5-0.5s0.2-0.5,0.5-0.5h244.8c0.3,0,0.5,0.2,0.5,0.5
	S417.7,479.6,417.4,479.6z"/>
<path class="st2" d="M165.3,485.5c-3.5,0-6.4-2.9-6.4-6.4s2.9-6.4,6.4-6.4s6.4,2.9,6.4,6.4S168.8,485.5,165.3,485.5z M165.3,473.7
	c-3,0-5.4,2.4-5.4,5.4s2.4,5.4,5.4,5.4s5.4-2.4,5.4-5.4S168.3,473.7,165.3,473.7z"/>
<path class="st3" d="M30.1,105.2"/>
<g>
	<path class="st0" d="M30.1,117.2c-6.6,0-12-5.4-12-12s5.4-12,12-12s12,5.4,12,12C42.1,111.8,36.7,117.2,30.1,117.2z M30.1,94.2
		c-6.1,0-11,4.9-11,11s4.9,11,11,11s11-4.9,11-11S36.1,94.2,30.1,94.2z"/>
</g>
<g>
	<g>
		<path class="st0" d="M30.1,123.8c-13.8,0-26.4-14-29.9-18.3c-0.2-0.2-0.2-0.4,0-0.6c3.5-4.3,16-18.3,29.9-18.3
			c13.8,0,26.4,14,29.9,18.3c0.2,0.2,0.2,0.4,0,0.6C56.5,109.8,43.9,123.8,30.1,123.8z M1.2,105.2c3.8,4.5,15.8,17.6,28.9,17.6
			s25.1-13,28.9-17.6c-3.8-4.5-15.8-17.6-28.9-17.6S5,100.7,1.2,105.2z"/>
	</g>
</g>
<g>
	<g>
		<path class="st0" d="M30.1,108.4c-1.8,0-3.2-1.5-3.2-3.2c0-1.8,1.5-3.2,3.2-3.2c1.8,0,3.2,1.5,3.2,3.2
			C33.3,107,31.9,108.4,30.1,108.4z M30.1,102.9c-1.2,0-2.2,1-2.2,2.2s1,2.2,2.2,2.2s2.2-1,2.2-2.2C32.3,104,31.3,102.9,30.1,102.9z
			"/>
	</g>
</g>
<g>
	<g>
		<path class="st0" d="M30.1,108.4c-1.8,0-3.2-1.5-3.2-3.2c0-1.8,1.5-3.2,3.2-3.2c1.8,0,3.2,1.5,3.2,3.2
			C33.3,107,31.9,108.4,30.1,108.4z M30.1,102.9c-1.2,0-2.2,1-2.2,2.2s1,2.2,2.2,2.2s2.2-1,2.2-2.2C32.3,104,31.3,102.9,30.1,102.9z
			"/>
	</g>
</g>
<path class="st2" d="M536.3,273.8H291.5c-0.3,0-0.5-0.2-0.5-0.5s0.2-0.5,0.5-0.5h244.8c0.3,0,0.5,0.2,0.5,0.5
	S536.6,273.8,536.3,273.8z"/>
<path class="st2" d="M219.3,145h-26.8c-0.3,0-0.5-0.2-0.5-0.5s0.2-0.5,0.5-0.5h26.8c0.3,0,0.5,0.2,0.5,0.5S219.6,145,219.3,145z"/>
<path class="st1" d="M244.4,300.5c-1.5,0-2.7-1.2-2.7-2.7v-6h-1c-3.3,0-5.9-2.6-5.9-5.9v-21.5c0-3.3,2.6-5.9,5.9-5.9h36.4
	c3.3,0,5.9,2.6,5.9,5.9V286c0,1.6-0.6,3.1-1.7,4.2s-2.6,1.7-4.1,1.7l0,0h-24l-6.7,7.7C245.9,300.2,245.2,300.5,244.4,300.5z
	 M240.7,259.6c-2.7,0-4.9,2.2-4.9,4.9V286c0,2.7,2.2,4.9,4.9,4.9h1.5c0.3,0,0.5,0.2,0.5,0.5v6.5c0,0.9,0.8,1.7,1.7,1.7
	c0.5,0,0.9-0.2,1.3-0.6l6.8-7.9c0.1-0.1,0.2-0.2,0.4-0.2h24.2l0,0c1.3,0,2.5-0.5,3.4-1.4s1.4-2.2,1.4-3.5v-21.5
	c0-2.7-2.2-4.9-4.9-4.9H240.7z"/>
<path class="st2" d="M258.1,248.4c-0.3,0-0.5-0.2-0.5-0.5V167c0-0.3,0.2-0.5,0.5-0.5s0.5,0.2,0.5,0.5v80.9
	C258.6,248.2,258.3,248.4,258.1,248.4z"/>
<g>
	<path class="st0" d="M238.3,135.7c-0.1,0-0.3,0-0.4-0.1c-2.7-2.3-4.3-5.6-4.3-9.1c0-6.5,5.3-11.8,11.8-11.8c4.8,0,9.1,2.9,11,7.3
		l-0.9,0.4c-1.7-4.1-5.6-6.7-10-6.7c-6,0-10.8,4.8-10.8,10.8c0,3.2,1.4,6.2,3.9,8.3l-0.3,0.3L238.3,135.7z"/>
	<path class="st0" d="M262.8,149.2h-7.4c-0.1,0-0.3-0.1-0.4-0.2s-0.1-0.3-0.1-0.4l1.5-7.7c-1-0.8-1.5-2-1.5-3.3
		c0-2.3,1.9-4.2,4.2-4.2s4.2,1.9,4.2,4.2c0,1.3-0.6,2.5-1.5,3.3l1.5,7.7c0,0.1,0,0.3-0.1,0.4S262.9,149.2,262.8,149.2z M256,148.2
		h6.2l-1.5-7.4c0-0.2,0-0.4,0.2-0.5c0.9-0.6,1.4-1.6,1.4-2.7c0-1.7-1.5-3.2-3.2-3.2s-3.2,1.5-3.2,3.2c0,1.1,0.5,2.1,1.4,2.7
		c0.2,0.1,0.2,0.3,0.2,0.5L256,148.2z"/>
	<path class="st0" d="M279.1,156.9h-38.8c-6.2,0-11.2-5-11.2-11.2c0-5.2,3.6-9.7,8.7-10.9c0.7-3.8,3.9-6.6,7.8-6.6
		c0.9,0,1.8,0.2,2.7,0.5c3.2-5.5,9.1-8.9,15.5-8.9c9.6,0,17.6,7.8,17.9,17.4c4.3,1.2,7.4,5.2,7.4,9.7
		C289.1,152.4,284.6,156.9,279.1,156.9z M245.6,129.2c-3.5,0-6.4,2.6-6.9,6.1c0,0.2-0.2,0.4-0.4,0.4c-4.8,1-8.2,5.2-8.2,10
		c0,5.6,4.6,10.2,10.2,10.2h38.8c5,0,9-4,9-9c0-4.1-3-7.8-7-8.8c-0.2-0.1-0.4-0.3-0.4-0.5c-0.1-9.3-7.7-16.8-16.9-16.8
		c-6.2,0-11.9,3.4-14.9,8.7c-0.1,0.2-0.4,0.3-0.6,0.2C247.5,129.4,246.5,129.2,245.6,129.2z"/>
</g>
</svg>
