<?xml version="1.0" encoding="utf-8"?>
<!-- Generator: Adobe Illustrator 22.0.0, SVG Export Plug-In . SVG Version: 6.00 Build 0)  -->
<svg version="1.0" id="Ebene_1" xmlns="http://www.w3.org/2000/svg" xmlns:xlink="http://www.w3.org/1999/xlink" x="0px" y="0px"
	 viewBox="0 0 380 600" enable-background="new 0 0 380 600" xml:space="preserve">
<g>
	
		<path fill="none" stroke="#C8C8C8" stroke-linecap="round" stroke-linejoin="round" stroke-miterlimit="10" stroke-dasharray="8,8" d="
		M95.1,422.8v-63.7c0-6.5,5.3-11.8,11.8-11.8H380"/>
</g>
<g>
	<g>
		<g>
			
				<linearGradient id="SVGID_2_" gradientUnits="userSpaceOnUse" x1="6.85" y1="32.2232" x2="6.85" y2="96.1624" gradientTransform="matrix(1 0 0 -1 0 599.2756)">
				<stop  offset="0" style="stop-color:#6E788C"/>
				<stop  offset="1" style="stop-color:#C8C8C8"/>
			</linearGradient>
			<path id="SVGID_1_" fill="url(#SVGID_2_)" d="M5,503.4v66.8c0,0.7,0.4,1.3,0.9,1.7l0,0H6l2.7,1.6c-0.5-0.3-0.8-0.9-0.8-1.5v-0.1
				l0,0v-66.8c0-0.3,0.1-0.6,0.2-0.9l-2.9-1.7C5.1,502.8,5,503.1,5,503.4"/>
		</g>
	</g>
	<g>
		<g>
			
				<linearGradient id="SVGID_3_" gradientUnits="userSpaceOnUse" x1="155.1469" y1="181.6653" x2="31.1834" y2="110.1629" gradientTransform="matrix(1 0 0 -1 0 599.2756)">
				<stop  offset="0" style="stop-color:#6E788C"/>
				<stop  offset="1" style="stop-color:#C8C8C8"/>
			</linearGradient>
			<path id="SVGID_4_" fill="url(#SVGID_3_)" d="M214.4,381.2L6,501.7c-0.3,0.2-0.6,0.5-0.8,0.8l2.9,1.7c0.2-0.3,0.4-0.6,0.8-0.8
				l208.4-120.5l0,0l0,0l0,0c0.6-0.3,1.3-0.3,1.9,0l-2.8-1.6l0,0l0,0c-0.3-0.2-0.6-0.2-0.9-0.2C215,381,214.7,381,214.4,381.2"/>
		</g>
	</g>
	<g>
		<g>
			
				<linearGradient id="SVGID_5_" gradientUnits="userSpaceOnUse" x1="7.9" y1="120.9883" x2="220.2" y2="120.9883" gradientTransform="matrix(1 0 0 -1 0 599.2756)">
				<stop  offset="0" style="stop-color:#6E788C"/>
				<stop  offset="1" style="stop-color:#C8C8C8"/>
			</linearGradient>
			<path id="SVGID_7_" fill="url(#SVGID_5_)" d="M217.3,382.9L217.3,382.9L217.3,382.9L8.9,503.4c-0.3,0.2-0.6,0.5-0.8,0.8
				c-0.1,0.3-0.2,0.6-0.2,0.9v66.8c0,0,0,0,0,0.1c0,0.7,0.4,1.2,0.8,1.5l0.3,0.2c0.5,0.3,1.2,0.3,1.8-0.1l208.4-120.5
				c0.6-0.4,1-1,1-1.7v-66.8c0-0.8-0.4-1.4-1-1.7h-0.1c-0.3-0.1-0.6-0.2-0.9-0.2C217.9,382.6,217.6,382.7,217.3,382.9"/>
		</g>
	</g>
	<g>
		<g>
			<g>
				
					<linearGradient id="SVGID_6_" gradientUnits="userSpaceOnUse" x1="44.6148" y1="40.7756" x2="48.3784" y2="40.7756" gradientTransform="matrix(1 0 0 -1 0 599.2756)">
					<stop  offset="0" style="stop-color:#003366"/>
					<stop  offset="1" style="stop-color:#0066BA"/>
				</linearGradient>
				<path id="SVGID_10_" fill="url(#SVGID_6_)" d="M44.6,523.9v66.8c0,0.7,0.4,1.3,0.9,1.7l0,0h0.1l2.7,1.6
					c-0.5-0.3-0.8-0.9-0.8-1.5v-0.1l0,0v-66.8c0-0.3,0.1-0.6,0.2-0.9l-2.9-1.7C44.7,523.2,44.6,523.5,44.6,523.9"/>
			</g>
		</g>
		<g>
			<g>
				
					<linearGradient id="SVGID_8_" gradientUnits="userSpaceOnUse" x1="44.8" y1="136.1801" x2="258.8" y2="136.1801" gradientTransform="matrix(1 0 0 -1 0 599.2756)">
					<stop  offset="0" style="stop-color:#003366"/>
					<stop  offset="1" style="stop-color:#0066BA"/>
				</linearGradient>
				<path id="SVGID_13_" fill="url(#SVGID_8_)" d="M254,401.7L45.6,522.2c-0.3,0.2-0.6,0.5-0.8,0.8l2.9,1.7c0.2-0.3,0.4-0.6,0.8-0.8
					l208.4-120.5l0,0l0,0l0,0c0.6-0.3,1.3-0.3,1.9,0l-2.8-1.6l0,0l0,0c-0.3-0.2-0.6-0.2-0.9-0.2C254.6,401.4,254.3,401.5,254,401.7"
					/>
			</g>
		</g>
		<g>
			<g>
				
					<linearGradient id="SVGID_9_" gradientUnits="userSpaceOnUse" x1="47.5" y1="100.4883" x2="259.8" y2="100.4883" gradientTransform="matrix(1 0 0 -1 0 599.2756)">
					<stop  offset="0" style="stop-color:#003366"/>
					<stop  offset="1" style="stop-color:#0066BA"/>
				</linearGradient>
				<path id="SVGID_16_" fill="url(#SVGID_9_)" d="M256.9,403.4L256.9,403.4L256.9,403.4L48.5,523.9c-0.3,0.2-0.6,0.5-0.8,0.8
					c-0.1,0.3-0.2,0.6-0.2,0.9v66.8c0,0,0,0,0,0.1c0,0.7,0.4,1.2,0.8,1.5l0.3,0.2c0.5,0.3,1.2,0.3,1.8-0.1l208.4-120.5
					c0.6-0.4,1-1,1-1.7v-66.8c0-0.8-0.4-1.4-1-1.7c0,0,0,0-0.1,0c-0.3-0.1-0.6-0.2-0.9-0.2C257.6,403.1,257.2,403.2,256.9,403.4"/>
			</g>
		</g>
		<path fill="#FFFFFF" d="M98.7,531.1c0,5.6-4.6,12.9-10.2,16.1c-5.6,3.3-10.2,1.3-10.2-4.3s4.6-12.9,10.2-16.1
			C94.2,523.5,98.7,525.5,98.7,531.1"/>
		<path fill="#FFFFFF" d="M132.4,512.7c0,5.6-4.6,12.9-10.2,16.1c-5.6,3.3-10.2,1.3-10.2-4.3s4.6-12.9,10.2-16.1
			C127.8,505.1,132.4,507,132.4,512.7"/>
		<path fill="#FFFFFF" d="M166,493.3c0,5.6-4.6,12.9-10.2,16.1c-5.6,3.3-10.2,1.3-10.2-4.3c0-5.6,4.6-12.9,10.2-16.1
			C161.4,485.7,166,487.7,166,493.3"/>
		<path fill="#FFFFFF" d="M199.6,473.8c0,5.6-4.6,12.9-10.2,16.1c-5.6,3.3-10.2,1.3-10.2-4.3s4.6-12.9,10.2-16.1
			C195,466.2,199.6,468.2,199.6,473.8"/>
		<path fill="#FFFFFF" d="M233.2,454.5c0,5.6-4.6,12.9-10.2,16.1c-5.6,3.3-10.2,1.3-10.2-4.3s4.6-12.9,10.2-16.1
			C228.7,446.9,233.2,448.9,233.2,454.5"/>
		<g>
			<g>
				
					<linearGradient id="SVGID_11_" gradientUnits="userSpaceOnUse" x1="213.55" y1="66.698" x2="213.55" y2="110.303" gradientTransform="matrix(1 0 0 -1 0 599.2756)">
					<stop  offset="0" style="stop-color:#6ECA44"/>
					<stop  offset="1" style="stop-color:#86D776"/>
				</linearGradient>
				<path id="SVGID_19_" fill="url(#SVGID_11_)" d="M211.8,486.6v44.2c0,0.5,0.3,0.9,0.6,1.1l0,0c0,0,0,0,0.1,0l2.8,1.6
					c-0.3-0.2-0.5-0.6-0.5-1v-44.2c0-0.3,0.1-0.5,0.2-0.7l-3-1.6C211.9,486.2,211.8,486.4,211.8,486.6"/>
			</g>
		</g>
		<g>
			<g>
				
					<linearGradient id="SVGID_12_" gradientUnits="userSpaceOnUse" x1="278.8182" y1="150.4391" x2="213.0236" y2="112.2525" gradientTransform="matrix(1 0 0 -1 0 599.2756)">
					<stop  offset="0" style="stop-color:#6ECA44"/>
					<stop  offset="1" style="stop-color:#86D776"/>
				</linearGradient>
				<path id="SVGID_22_" fill="url(#SVGID_12_)" d="M282,445l-69.6,40.5c-0.2,0.1-0.4,0.3-0.5,0.5l3,1.6c0.1-0.2,0.3-0.3,0.4-0.4
					l69.6-40.5c0.4-0.2,0.8-0.2,1.2-0.1l-2.8-1.6l0,0l0,0l0,0c-0.2-0.1-0.4-0.2-0.6-0.2C282.4,444.8,282.2,444.9,282,445"/>
			</g>
		</g>
		<g>
			<g>
				
					<linearGradient id="SVGID_14_" gradientUnits="userSpaceOnUse" x1="214.8" y1="109.1427" x2="286.9" y2="109.1427" gradientTransform="matrix(1 0 0 -1 0 599.2756)">
					<stop  offset="0" style="stop-color:#6ECA44"/>
					<stop  offset="1" style="stop-color:#86D776"/>
				</linearGradient>
				<path id="SVGID_25_" fill="url(#SVGID_14_)" d="M285,446.7l-69.6,40.5c-0.2,0.1-0.3,0.2-0.4,0.4c-0.1,0.2-0.2,0.4-0.2,0.7v44.2
					c0,0.4,0.2,0.8,0.5,1l0.3,0.2l0,0c0.4,0.1,0.8,0.1,1.1-0.1l69.6-40.5c0.4-0.2,0.6-0.7,0.6-1.1v-44.2c0-0.6-0.3-1-0.8-1.2
					c-0.2-0.1-0.3-0.1-0.5-0.1C285.4,446.5,285.2,446.6,285,446.7"/>
			</g>
		</g>
		
			<linearGradient id="SVGID_15_" gradientUnits="userSpaceOnUse" x1="277.9" y1="114.8456" x2="277.9" y2="77.7646" gradientTransform="matrix(1 0 0 -1 0 599.2756)">
			<stop  offset="0" style="stop-color:#969696"/>
			<stop  offset="1" style="stop-color:#C8C8C8"/>
		</linearGradient>
		<path fill="url(#SVGID_15_)" d="M296.1,491.9l-1.8-0.9c-0.1,0-0.1-0.1-0.2-0.1l-31.9-9c-1-0.3-2.5,1.3-2.5,2.6v40.7
			c0,0.5,0.2,0.8,0.5,0.9l0,0l5.2,1.4l-0.3-1.4c0.2-0.2,0.5-0.5,0.6-0.8l1.6-26.5c0.3-0.5,3.1-5.4,3.5-5.6l22.2,1
			c0.8-0.5,1.4-1.4,1.5-2.1C295.2,492.1,296.1,491.9,296.1,491.9"/>
		<g>
			<g>
				
					<linearGradient id="SVGID_17_" gradientUnits="userSpaceOnUse" x1="264.7" y1="93.6805" x2="299.6883" y2="93.6805" gradientTransform="matrix(1 0 0 -1 0 599.2756)">
					<stop  offset="0" style="stop-color:#969696"/>
					<stop  offset="1" style="stop-color:#C8C8C8"/>
				</linearGradient>
				<path id="SVGID_29_" fill="url(#SVGID_17_)" d="M264.7,486.1v40.7c0,1.4,1.7,1.1,2.7-0.5l11.1-18.7c0.3-0.5,0.7-0.9,1.1-1.2
					l18.5-10.7c1.4-0.8,2.1-3,1-3.3l-31.9-8.9c-0.1,0-0.2,0-0.2,0C266,483.4,264.7,484.9,264.7,486.1"/>
			</g>
		</g>
	</g>
</g>
<line fill="none" stroke="#C8C8C8" stroke-linecap="round" stroke-linejoin="round" stroke-miterlimit="10" stroke-dasharray="8,8" x1="138.8" y1="138.8" x2="138.8" y2="-0.2"/>
<g>
	<polygon fill="#004C92" points="93.8,139 93.8,229 183.8,229 183.8,139 	"/>
	<path fill="#FFFFFF" d="M135.6,171.3v-5.6l0,0h-4v5.6c0,0,0,2.7-2.2,2.7s-2.2-2.7-2.2-2.7v-5.6l0,0h-8.3v-1.3c0,0-0.2-2.3,1-3.5
		c1.2-1.2,3.3-1.2,3.3-1.2h31.9l0,0v14.9l0,0l0,0h-1.4c0,0-2.3,0.3-2.3-2.3c0-2.6,0-3.1,0-3.1s0.1-1.6-0.9-2.5c-0.9-0.9-3.1-1-3.1-1
		h-8.3l0,0v11.4l0,0h3.8l0,0V168v-0.1h1.3c0,0,3.3-0.2,3.3,2.5c0,2.8,0,6.8,0,6.8l0,0h11.5l0,0c0,0,0-3.1,0-4.7
		c0-1.2,1.1,0.2,1.1,0.2l2.7,4.4l0,0h4.3l0,0l-4.5-7.1l0,0l3.6-4.3l0,0h-4l0,0l-2.2,2.7c0,0-1.1,1.4-1.1,0.1s0-11.2,0-11.2l0,0
		h-38.8c0,0-1.8-0.1-3.5,1.6c-1.7,1.7-1.6,4.5-1.6,4.5v2.2h-8.8v-14.9h64.9v47.4h-64.8v-30.3h8.8l0,0v9.3l0,0h3.8l0,0v-9.3h4.3v4.4
		c0,0,0,5.1,6.2,5.1C135.6,177.4,135.6,171.3,135.6,171.3L135.6,171.3L135.6,171.3z M136.9,171.4c0,0-0.3,7.3-7.6,7.3
		c-7.3,0-7.5-6.5-7.5-6.5v-3.1l0,0h-1.7v9.3l0,0h-6.4v-9.3l0,0h-6.1v27.8h62.2v-44.8h-62.2v12.3h6.1v-0.9c0,0-0.1-3.2,2-5.3
		c2.1-2.1,4.4-2.2,4.4-2.2h38.7h1.3v10.1l0,0l1.4-1.7l0,0h7.4l-4.8,5.7l0,0l5.1,8.4l0,0h-7.4l0,0l-1.8-2.9l0,0v2.9h-13.9l0,0
		c0,0,0-6.7,0-8.1c0-1.4-2-1.2-2-1.2v9.3l0,0h-6.4l0,0v-14.1l0,0h9.6c0,0,2.6-0.1,4,1.3c1.4,1.4,1.3,3.5,1.3,3.5s0,1.8,0,3.1
		s1,1,1,1V161l0,0h-30.5c0,0-1.7-0.1-2.4,0.6c-0.7,0.7-0.6,1.8-0.6,1.8v0.9l0,0h8.3v0.1v6.8c0,0-0.1,1.4,0.9,1.4s0.9-1.4,0.9-1.4
		v-6.8v-0.1h6.6l0,0L136.9,171.4L136.9,171.4L136.9,171.4L136.9,171.4z"/>
</g>
</svg>
