<?xml version="1.0" encoding="utf-8"?>
<!-- Generator: Adobe Illustrator 22.0.0, SVG Export Plug-In . SVG Version: 6.00 Build 0)  -->
<svg version="1.0" id="Ebene_1" xmlns="http://www.w3.org/2000/svg" xmlns:xlink="http://www.w3.org/1999/xlink" x="0px" y="0px"
	 width="42px" height="42px" viewBox="0 0 42 42" enable-background="new 0 0 42 42" xml:space="preserve">
<path fill="#FFFFFF" d="M42,21c0,11.6-9.4,21-21,21C9.6,42,0,32.6,0,21C0,9.4,9.4,0,21,0C32.6,0,42,9.4,42,21"/>
<path fill="#004C92" d="M21,8c-3.5,0-4,0-5.3,0.1c-1.4,0.1-2.3,0.3-3.1,0.6c-0.9,0.3-1.6,0.8-2.3,1.5c-0.7,0.6-1.2,1.4-1.5,2.3
	c-0.3,0.8-0.5,1.8-0.6,3.1C8,17,8,17.5,8,21s0,4,0.1,5.3c0.1,1.4,0.3,2.3,0.6,3.1c0.3,0.9,0.8,1.6,1.5,2.3c0.6,0.7,1.4,1.2,2.3,1.5
	c0.8,0.3,1.8,0.5,3.1,0.6C17,34,17.5,34,21,34c3.5,0,4,0,5.3-0.1c1.4-0.1,2.3-0.3,3.1-0.6c1.7-0.7,3.1-2.1,3.8-3.8
	c0.3-0.8,0.5-1.8,0.6-3.1C34,25,34,24.5,34,21s0-4-0.1-5.3c-0.1-1.4-0.3-2.3-0.6-3.1c-0.3-0.9-0.8-1.6-1.5-2.3
	c-0.6-0.7-1.4-1.2-2.3-1.5c-0.8-0.3-1.8-0.5-3.1-0.6C25,8,24.5,8,21,8 M21,10.4c3.5,0,3.9,0,5.2,0.1c1.3,0.1,1.9,0.3,2.4,0.4
	c0.6,0.2,1.1,0.5,1.5,1c0.4,0.4,0.8,0.9,1,1.5c0.2,0.5,0.4,1.1,0.4,2.4c0.1,1.4,0.1,1.8,0.1,5.2s0,3.9-0.1,5.2
	c-0.1,1.3-0.3,2-0.4,2.4c-0.4,1.1-1.3,2-2.5,2.5c-0.5,0.2-1.1,0.4-2.4,0.4c-1.4,0.1-1.8,0.1-5.2,0.1c-3.5,0-3.9,0-5.2-0.1
	c-1.3-0.1-1.9-0.3-2.4-0.4c-0.6-0.2-1.1-0.5-1.5-1c-0.4-0.4-0.8-0.9-1-1.5c-0.2-0.5-0.4-1.1-0.4-2.4c-0.1-1.4-0.1-1.8-0.1-5.2
	s0-3.9,0.1-5.2c0.1-1.3,0.3-2,0.4-2.4c0.2-0.6,0.5-1.1,1-1.5c0.4-0.4,0.9-0.8,1.5-1c0.5-0.2,1.1-0.4,2.4-0.4
	C17.1,10.4,17.5,10.4,21,10.4"/>
<path fill="#004C92" d="M21,25.3c-2.4,0-4.3-1.9-4.3-4.3c0-2.4,1.9-4.3,4.3-4.3c2.4,0,4.3,1.9,4.3,4.3C25.3,23.4,23.4,25.3,21,25.3
	 M21,14.3c-3.7,0-6.7,3-6.7,6.7c0,3.7,3,6.7,6.7,6.7c3.7,0,6.7-3,6.7-6.7C27.7,17.3,24.7,14.3,21,14.3"/>
<path fill="#004C92" d="M27.9,12.5c0.9,0,1.6,0.7,1.6,1.6s-0.7,1.6-1.6,1.6c-0.9,0-1.6-0.7-1.6-1.6S27.1,12.5,27.9,12.5"/>
</svg>
