<?xml version="1.0" encoding="utf-8"?>
<!-- Generator: Adobe Illustrator 22.0.0, SVG Export Plug-In . SVG Version: 6.00 Build 0)  -->
<svg version="1.0" id="Ebene_1" xmlns="http://www.w3.org/2000/svg" xmlns:xlink="http://www.w3.org/1999/xlink" x="0px" y="0px" width="100px" height="120px"
	 viewBox="0 0 100 120" enable-background="new 0 0 100 120" xml:space="preserve">
<g>
	<linearGradient id="SVGID_1_" gradientUnits="userSpaceOnUse" x1="47.0242" y1="24.0284" x2="49.6434" y2="110.4614">
		<stop  offset="0" style="stop-color:#6ECA44"/>
		<stop  offset="1" style="stop-color:#86D776"/>
	</linearGradient>
	<path fill="url(#SVGID_1_)" d="M95.8,7.6L84.2,0.9c-2.5-1.4-6-1.2-9.8,1L14.7,36.2l0,0c-0.2,0.1-0.4,0.2-0.6,0.3l-0.4,0.2l0,0
		C5.7,41.8,0,52,0,60.4v0l0.2,43.8l0.1,0c0.3,3.6,1.7,6.2,4,7.5l11.5,6.7c-2.5-1.4-4-4.5-4-8.8l0,0L11.5,67
		c0-8.5,5.9-18.8,14.1-23.9L86.4,8.3C90.1,6.3,93.4,6.2,95.8,7.6z"/>
	<path fill="#FFFFFF" d="M99.8,16.4c0-4.3-1.6-7.4-4-8.8c-2.4-1.4-5.7-1.2-9.3,0.7L25.6,43.1c-8.2,5-14.1,15.4-14.1,23.9l0.2,42.5
		l0,0c0,4.3,1.5,7.4,4,8.8c-0.1,0-0.1-0.1-0.2-0.1c2.5,1.6,6.1,1.4,10-0.8l22.6-12.9L61.6,120l11.3-29.7l13.4-7.7
		c7.6-4.4,13.8-15,13.7-23.7L99.8,16.4z"/>
	<linearGradient id="SVGID_2_" gradientUnits="userSpaceOnUse" x1="35.9367" y1="112.208" x2="61.5572" y2="112.208">
		<stop  offset="0" style="stop-color:#6ECA44"/>
		<stop  offset="1" style="stop-color:#86D776"/>
	</linearGradient>
	<polygon fill="url(#SVGID_2_)" points="61.6,120 35.9,111.4 48.1,104.4 	"/>
	<linearGradient id="SVGID_3_" gradientUnits="userSpaceOnUse" x1="78.0527" y1="92.4452" x2="58.302" y2="84.1997">
		<stop  offset="0" style="stop-color:#6ECA44"/>
		<stop  offset="1" style="stop-color:#86D776"/>
	</linearGradient>
	<path fill="url(#SVGID_3_)" d="M42.1,70.8c0,3.7-3,8.3-6.7,10.4c-3.7,2.1-6.7,0.9-6.7-2.8s3-8.3,6.7-10.4
		C39.1,65.9,42.1,67.2,42.1,70.8"/>
	<linearGradient id="SVGID_4_" gradientUnits="userSpaceOnUse" x1="85.5715" y1="74.5085" x2="65.8207" y2="66.2631">
		<stop  offset="0" style="stop-color:#6ECA44"/>
		<stop  offset="1" style="stop-color:#86D776"/>
	</linearGradient>
	<path fill="url(#SVGID_4_)" d="M64,58.9c0,3.7-3,8.3-6.7,10.4c-3.7,2.1-6.7,0.9-6.7-2.8c0-3.7,3-8.3,6.7-10.4
		C61.1,54,64,55.3,64,58.9"/>
	<linearGradient id="SVGID_5_" gradientUnits="userSpaceOnUse" x1="93.3159" y1="56.0354" x2="73.5651" y2="47.79">
		<stop  offset="0" style="stop-color:#6ECA44"/>
		<stop  offset="1" style="stop-color:#86D776"/>
	</linearGradient>
	<path fill="url(#SVGID_5_)" d="M86,46.4c0,3.7-3,8.3-6.7,10.4c-3.7,2.1-6.7,0.9-6.7-2.8c0-3.7,3-8.3,6.7-10.4
		C83,41.4,86,42.7,86,46.4"/>
</g>
</svg>
