<?xml version="1.0" encoding="utf-8"?>
<!-- Generator: Adobe Illustrator 19.2.0, SVG Export Plug-In . SVG Version: 6.00 Build 0)  -->
<svg version="1.1" id="Ebene_1" xmlns="http://www.w3.org/2000/svg" xmlns:xlink="http://www.w3.org/1999/xlink" x="0px" y="0px"
	 width="101.2px" height="71.8px" viewBox="0 0 101.2 71.8" style="enable-background:new 0 0 101.2 71.8;" xml:space="preserve">
<style type="text/css">
	.st0{fill:#79B641;}
	.st1{fill:#FFFFFF;}
</style>
<g>
	<path class="st0" d="M36,72c-6.4,0-12.7-1.7-18.2-4.9c-0.7-0.4-1.5-0.3-2,0.1c-4.2,3.3-8.4,4.3-11.2,4.6c-0.4,0-0.8-0.2-1-0.6
		c-0.2-0.4-0.1-0.9,0.2-1.1c2.1-1.9,3.9-4.7,5.5-8.3c0.3-0.6,0.2-1.4-0.3-1.9C-3.6,45.6-2.9,23.9,10.5,10.5C17.3,3.7,26.4,0,36,0
		c5.2,0,10.3,1.1,15,3.3c0.4,0.2,0.6,0.5,0.6,0.9c0,0.4-0.2,0.7-0.6,0.9c-3.7,1.7-7,4-9.9,6.9c-13.3,13.3-13.3,34.8,0,48.1
		c2.9,2.9,6.2,5.2,9.9,6.9c0.4,0.2,0.6,0.5,0.6,0.9s-0.2,0.7-0.6,0.9C46.3,70.9,41.3,72,36,72z M16.9,64.8c0.6,0,1.3,0.2,1.9,0.5
		C24,68.4,30,70,36,70c4.2,0,8.3-0.8,12.2-2.2c-3.1-1.7-5.9-3.8-8.5-6.3c-14-14-14-36.9,0-50.9l0,0c2.5-2.5,5.4-4.6,8.5-6.3
		C44.3,2.8,40.2,2,36,2C26.9,2,18.4,5.5,12,11.9C-0.7,24.6-1.4,45.1,10.5,58.5c1,1.1,1.2,2.7,0.6,4c-1.2,2.7-2.4,4.9-3.9,6.7
		c2.2-0.6,4.7-1.7,7.3-3.7C15.2,65.1,16,64.8,16.9,64.8z"/>
</g>
<path class="st1" d="M65.2,72c-9.6,0-18.7-3.7-25.5-10.5c-14-14-14-36.9,0-50.9C46.6,3.7,55.6,0,65.2,0c9.6,0,18.7,3.7,25.5,10.5
	c13.4,13.4,14.1,35.1,1.5,49.3c0,0,0,0,0,0c-0.4,0.5-0.6,1.3-0.3,1.9c1.6,3.6,3.4,6.4,5.5,8.3c0.3,0.3,0.4,0.8,0.2,1.1
	c-0.2,0.4-0.6,0.6-1,0.6c-2.8-0.3-7-1.3-11.2-4.6c-0.6-0.4-1.3-0.5-2-0.1C77.9,70.3,71.6,72,65.2,72z M65.2,2
	c-9.1,0-17.6,3.5-24.1,9.9c-13.3,13.3-13.3,34.8,0,48.1c6.4,6.4,15,9.9,24.1,9.9c6.1,0,12-1.6,17.2-4.7c1.5-0.8,3.1-0.7,4.2,0.3
	c2.6,2,5.1,3.1,7.3,3.7c-1.4-1.8-2.7-4-3.9-6.7c-0.6-1.3-0.3-2.9,0.6-4l0,0c11.9-13.4,11.3-33.9-1.4-46.6C82.9,5.5,74.3,2,65.2,2z"
	/>
<path class="st1" d="M65.4,39.8c-1.2,0-2.4-0.5-3.3-1.4c-0.9-0.9-1.4-2.1-1.4-3.3c0-1.2,0.5-2.4,1.4-3.3c0.9-0.9,2.1-1.4,3.3-1.4
	c1.2,0,2.4,0.5,3.3,1.4c0.9,0.9,1.4,2.1,1.4,3.3c0,1.2-0.5,2.4-1.4,3.3C67.8,39.2,66.6,39.8,65.4,39.8z M65.4,32.4
	c-0.7,0-1.4,0.3-1.9,0.8c-0.5,0.5-0.8,1.2-0.8,1.9c0,0.7,0.3,1.4,0.8,1.9c1,1,2.7,1,3.7,0c0.5-0.5,0.8-1.2,0.8-1.9
	c0-0.7-0.3-1.4-0.8-1.9C66.8,32.7,66.1,32.4,65.4,32.4z"/>
<path class="st1" d="M79,39.8c-1.2,0-2.4-0.5-3.3-1.4c-0.9-0.9-1.4-2.1-1.4-3.3c0-1.2,0.5-2.4,1.4-3.3c0.9-0.9,2.1-1.4,3.3-1.4
	c1.2,0,2.4,0.5,3.3,1.4c0.9,0.9,1.4,2.1,1.4,3.3c0,1.2-0.5,2.4-1.4,3.3C81.4,39.3,80.3,39.8,79,39.8z M79,32.4
	c-0.7,0-1.4,0.3-1.9,0.8c-0.5,0.5-0.8,1.2-0.8,1.9c0,0.7,0.3,1.4,0.8,1.9c0.5,0.5,1.2,0.8,1.9,0.8c0.7,0,1.4-0.3,1.9-0.8
	c0.5-0.5,0.8-1.2,0.8-1.9c0-0.7-0.3-1.4-0.8-1.9C80.4,32.7,79.7,32.4,79,32.4z"/>
<path class="st1" d="M51.8,39.8c-1.2,0-2.5-0.5-3.3-1.4c-0.9-0.9-1.4-2.1-1.4-3.3c0-1.2,0.5-2.4,1.4-3.3c0.9-0.9,2.1-1.4,3.3-1.4
	c1.2,0,2.4,0.5,3.3,1.4c0.9,0.9,1.4,2.1,1.4,3.3c0,1.2-0.5,2.4-1.4,3.3C54.2,39.2,53,39.8,51.8,39.8z M51.8,32.4
	c-0.7,0-1.4,0.3-1.9,0.8c-0.5,0.5-0.8,1.2-0.8,1.9c0,0.7,0.3,1.4,0.8,1.9c0.9,1,2.7,1,3.7,0c0.5-0.5,0.8-1.2,0.8-1.9
	c0-0.7-0.3-1.4-0.8-1.9C53.2,32.7,52.5,32.4,51.8,32.4z"/>
</svg>
