<?xml version="1.0" encoding="utf-8"?>
<!-- Generator: Adobe Illustrator 19.2.0, SVG Export Plug-In . SVG Version: 6.00 Build 0)  -->
<svg version="1.1" id="Ebene_1" xmlns="http://www.w3.org/2000/svg" xmlns:xlink="http://www.w3.org/1999/xlink" x="0px" y="0px"
	 width="42px" height="42px" viewBox="0 0 42 42" style="enable-background:new 0 0 42 42;" xml:space="preserve">
<style type="text/css">
	.st0{fill:#FEFEFE;}
	.st1{fill-rule:evenodd;clip-rule:evenodd;fill:#004C92;}
</style>
<g>
	<circle class="st0" cx="21" cy="21" r="21"/>
	<path class="st1" d="M25.7,11.4c-0.3-0.3-0.8-0.5-1.3-0.4c-0.3,0-0.5,0.2-0.7,0.3c-0.2,0.2-0.4,0.4-0.5,0.6
		c-0.2,0.5-0.1,1.2,0.3,1.6c0.4,0.4,0.7,0.7,1.1,1.1c0.1,0.1,0.4,0.1,0.5,0c0.1-0.1,0.1-0.1,0.2-0.2c0.1-0.1,0.1-0.4,0-0.5
		c-0.4-0.4-0.7-0.7-1.1-1.1c-0.1-0.1-0.2-0.4-0.1-0.5c0.1-0.1,0.2-0.2,0.3-0.3c0.2-0.2,0.5-0.1,0.6,0c0.3,0.3,0.6,0.6,0.9,0.9
		c0.1,0.1,0.2,0.3,0.4,0.3c0.2,0,0.3-0.1,0.4-0.3c0.1-0.1,0.1-0.4,0-0.5C26.5,12.1,26.1,11.8,25.7,11.4"/>
	<path class="st1" d="M28.1,13.1c0.4-0.4,0.7-0.7,1.1-1.1c0.2-0.2,0.5-0.2,0.6,0c0.1,0.1,0.3,0.2,0.3,0.4c0,0.1,0,0.3-0.1,0.4
		c-0.3,0.3-0.7,0.7-1,1c-0.1,0.1-0.2,0.2-0.2,0.3c0,0.2,0.1,0.3,0.3,0.5c0.1,0.1,0.4,0.1,0.5,0c0.3-0.3,0.6-0.6,0.9-0.9
		c0.1-0.1,0.3-0.3,0.4-0.4c0.3-0.4,0.3-1,0-1.5c-0.1-0.2-0.3-0.4-0.4-0.5c-0.3-0.3-0.8-0.4-1.2-0.4c-0.3,0-0.6,0.2-0.8,0.4
		c-0.4,0.4-0.8,0.8-1.1,1.1c-0.2,0.2,0,0.5,0.1,0.6C27.6,13.3,27.9,13.3,28.1,13.1"/>
	<path class="st1" d="M21.3,23.8c0.6-0.7,1-1.5,1.2-2.4c0.2-0.7,0.1-1.3,0.1-2c0-0.2-0.2-0.5-0.4-0.4c-0.9,0-1.8,0-2.7,0
		c-0.2,0-0.3,0.1-0.4,0.2c-0.1,0.2,0,0.4-0.1,0.6c0,0.3,0,0.6-0.1,0.9c-0.2,0.6-0.7,1.1-1.3,1.3c-0.4,0.1-0.9,0.1-1.3,0.1
		c-0.6,0-1.3,0.1-1.9,0.3c0-2.5,0-5,0-7.6c0-0.1,0-0.2,0-0.4c-0.1-0.2-0.3-0.3-0.5-0.3c-0.9,0-1.8,0-2.7,0c-0.2,0-0.5,0.2-0.5,0.5
		c0,5.6,0,11.1,0,16.7c0.1,0.2,0.2,0.3,0.4,0.3c0.9,0,1.8,0,2.7,0c0.2,0,0.5-0.2,0.5-0.4c0-1.2,0-2.3,0-3.5c0-0.5,0.1-0.9,0.4-1.3
		c0.4-0.5,0.9-0.7,1.5-0.7c0.5,0,1-0.1,1.5,0.1c0.7,0.3,1.1,1,1.1,1.7c0,1.2,0,2.4,0,3.5c0,0.2,0,0.4,0.2,0.4
		c0.1,0.1,0.2,0.1,0.3,0.1c0.9,0,1.8,0,2.6,0c0.2,0,0.4-0.2,0.4-0.4c0-1.2,0-2.4,0-3.6c0-1.3-0.5-2.6-1.3-3.6
		C21.4,23.9,21.3,23.8,21.3,23.8"/>
	<path class="st1" d="M26.4,16.6c-0.2,0-0.3,0.1-0.4,0.2c-0.3,0.3-0.7,0.6-1,1c-0.2,0.2-0.5,0.2-0.6,0c-0.1-0.1-0.3-0.2-0.3-0.4
		c0-0.2,0.1-0.3,0.2-0.4c0.3-0.3,0.7-0.7,1-1c0.2-0.1,0.1-0.4,0-0.6c-0.1-0.1-0.3-0.3-0.5-0.2c-0.1,0-0.2,0.1-0.2,0.2
		c-0.4,0.4-0.8,0.7-1.1,1.1c-0.4,0.5-0.4,1.3,0,1.8c0.2,0.2,0.4,0.4,0.7,0.5c0.4,0.2,0.9,0.2,1.4,0c0.2-0.1,0.4-0.3,0.5-0.4
		c0.3-0.3,0.6-0.6,0.9-0.9c0.1-0.1,0.1-0.4,0-0.5C26.7,16.8,26.6,16.6,26.4,16.6"/>
	<path class="st1" d="M30.6,16.2c-0.3-0.3-0.6-0.6-0.9-0.9c-0.1-0.1-0.3-0.1-0.4-0.1c-0.2,0.1-0.4,0.3-0.4,0.5
		c0,0.1,0.1,0.2,0.2,0.3c0.3,0.3,0.7,0.6,1,1c0.2,0.1,0.2,0.4,0.1,0.6c-0.1,0.1-0.2,0.2-0.3,0.3c-0.2,0.1-0.4,0.1-0.5-0.1
		c-0.4-0.4-0.7-0.7-1.1-1.1c-0.1-0.1-0.4-0.1-0.5,0c-0.1,0.1-0.2,0.1-0.2,0.2c-0.1,0.2-0.1,0.4,0.1,0.5c0.4,0.4,0.7,0.7,1.1,1.1
		c0.5,0.4,1.3,0.5,1.8,0c0.2-0.2,0.4-0.4,0.6-0.6c0.2-0.4,0.2-0.9,0-1.3C30.9,16.5,30.7,16.3,30.6,16.2"/>
</g>
</svg>
