<?xml version="1.0" encoding="utf-8"?>
<!-- Generator: Adobe Illustrator 19.2.0, SVG Export Plug-In . SVG Version: 6.00 Build 0)  -->
<svg version="1.1" id="Ebene_1" xmlns="http://www.w3.org/2000/svg" xmlns:xlink="http://www.w3.org/1999/xlink" x="0px" y="0px"
	 width="116px" height="72px" viewBox="0 0 116 72" style="enable-background:new 0 0 116 72;" xml:space="preserve">
<style type="text/css">
	.st0{fill:none;stroke:#79B641;stroke-width:2;stroke-linecap:round;stroke-linejoin:round;stroke-miterlimit:10;}
	.st1{fill:#79B641;}
	.st2{fill:#004C91;}
</style>
<g>
	<path class="st0" d="M58.9,36"/>
	<g>
		<path class="st1" d="M58.9,59.3c-12.8,0-23.3-10.4-23.3-23.3c0-12.8,10.4-23.3,23.3-23.3c12.8,0,23.3,10.4,23.3,23.3
			C82.1,48.8,71.7,59.3,58.9,59.3z M58.9,14.7c-11.7,0-21.3,9.5-21.3,21.3c0,11.7,9.5,21.3,21.3,21.3c11.7,0,21.3-9.5,21.3-21.3
			C80.1,24.3,70.6,14.7,58.9,14.7z"/>
	</g>
	<g>
		<g>
			<path class="st2" d="M58.9,72C32.1,72,7.8,44.9,1,36.6c-0.3-0.4-0.3-0.9,0-1.3C7.8,27.1,32,0,58.9,0c26.8,0,51.1,27.1,57.9,35.4
				c0.3,0.4,0.3,0.9,0,1.3C110,44.9,85.7,72,58.9,72z M3,36c7.3,8.8,30.6,34,55.8,34c25.3,0,48.5-25.2,55.8-34
				c-7.3-8.8-30.6-34-55.8-34C33.6,2,10.3,27.2,3,36z"/>
		</g>
	</g>
	<g>
		<g>
			<path class="st1" d="M58.9,42.3c-3.5,0-6.3-2.8-6.3-6.3c0-3.5,2.8-6.3,6.3-6.3c3.5,0,6.3,2.8,6.3,6.3
				C65.2,39.5,62.4,42.3,58.9,42.3z M58.9,31.7c-2.4,0-4.3,1.9-4.3,4.3c0,2.4,1.9,4.3,4.3,4.3c2.4,0,4.3-1.9,4.3-4.3
				C63.2,33.6,61.3,31.7,58.9,31.7z"/>
		</g>
	</g>
	<g>
		<g>
			<path class="st1" d="M58.9,42.3c-3.5,0-6.3-2.8-6.3-6.3c0-3.5,2.8-6.3,6.3-6.3c3.5,0,6.3,2.8,6.3,6.3
				C65.2,39.5,62.4,42.3,58.9,42.3z M58.9,31.7c-2.4,0-4.3,1.9-4.3,4.3c0,2.4,1.9,4.3,4.3,4.3c2.4,0,4.3-1.9,4.3-4.3
				C63.2,33.6,61.3,31.7,58.9,31.7z"/>
		</g>
	</g>
</g>
</svg>
