<?xml version="1.0" encoding="utf-8"?>
<!-- Generator: Adobe Illustrator 19.2.0, SVG Export Plug-In . SVG Version: 6.00 Build 0)  -->
<svg version="1.1" id="Ebene_1" xmlns="http://www.w3.org/2000/svg" xmlns:xlink="http://www.w3.org/1999/xlink" x="0px" y="0px"
	 width="42px" height="42px" viewBox="0 0 42 42" style="enable-background:new 0 0 42 42;" xml:space="preserve">
<style type="text/css">
	.st0{fill:#FEFEFE;}
	.st1{fill-rule:evenodd;clip-rule:evenodd;fill:#004C92;}
</style>
<circle class="st0" cx="21" cy="21" r="21"/>
<rect x="11.4" y="17.9" class="st1" width="4.1" height="13"/>
<path class="st1" d="M13.4,16.1c-1.3,0-2.4-1-2.4-2.3c0-1.3,1.1-2.3,2.4-2.3c1.3,0,2.4,1,2.4,2.3C15.8,15,14.7,16.1,13.4,16.1"/>
<path class="st1" d="M30.7,30.8h-4.1v-6.3c0-1.5,0-3.4-2.1-3.4c-2.1,0-2.4,1.6-2.4,3.3v6.4H18v-13h3.9v1.8H22c0.5-1,1.9-2.1,3.9-2.1
	c4.1,0,4.9,2.7,4.9,6.2V30.8z"/>
</svg>
