<?xml version="1.0" encoding="utf-8"?>
<!-- Generator: Adobe Illustrator 22.0.0, SVG Export Plug-In . SVG Version: 6.00 Build 0)  -->
<svg version="1.0" id="Ebene_1" xmlns="http://www.w3.org/2000/svg" xmlns:xlink="http://www.w3.org/1999/xlink" x="0px" y="0px"
	 viewBox="0 0 350 320" enable-background="new 0 0 350 320" xml:space="preserve">
<g>
	
		<path fill="none" stroke="#C8C8C8" stroke-width="0.7146" stroke-linecap="round" stroke-linejoin="round" stroke-miterlimit="10" stroke-dasharray="7.1459,7.1459" d="
		M301.8,254.5c-0.6,2.9-3.1,5.2-6,6.2c-2.8,1-5.9,1-8.9,1c-5.2,0-10.9-0.2-14.7-3.6c-1.7-1.5-2.8-3.6-4.4-5.2
		c-4-4.2-10.2-5.5-15.5-8.1c-7.7-3.9-13.5-11.3-15.5-19.7"/>
	
		<path fill="none" stroke="#C8C8C8" stroke-width="0.7146" stroke-linecap="round" stroke-linejoin="round" stroke-miterlimit="10" stroke-dasharray="7.1459,7.1459" d="
		M306.7,261.2c-4,9.5-15.2,14.1-25.5,14.4c-10.3,0.3-20.4-2.8-30.6-4.2c-15.7-2.1-31.6-0.3-47.4-0.2c-15.8,0.1-32.3-1.8-45.6-10.3"
		/>
	
		<path fill="none" stroke="#C8C8C8" stroke-width="0.7146" stroke-linecap="round" stroke-linejoin="round" stroke-miterlimit="10" stroke-dasharray="7.1459,7.1459" d="
		M311.4,264.4c2.8,6.4-1.1,14.2-6.9,18.1c-5.8,3.9-13.1,4.8-20.1,5.4c-11.8,1.1-23.6,1.6-35.4,1.6c-10.3,0-20.8-0.3-30.8,2.3
		c-9,2.4-17.3,7.1-26.1,10.1c-21.3,7.2-46,3.6-64.3-9.5"/>
	<g>
		<defs>
			<path id="SVGID_1_" d="M26,123.1v123.2v0.2v4.3c0,2.8,1.5,5.3,3.9,6.7l90,51.9c0.4,0.2,0.8,0.4,1.3,0.5c5.7,2.4,12.2,2,17.6-1.1
				l-10.4-5.9l-1.7,1.2l-90-51.9v-7.7h-6v-0.9V125.8c0-2.5,1-4.8,2.8-6.5l-4.6-2.7C27,118.3,26,120.6,26,123.1"/>
		</defs>
		<use xlink:href="#SVGID_1_"  overflow="visible" fill="#C8C8C8"/>
		<clipPath id="SVGID_2_">
			<use xlink:href="#SVGID_1_"  overflow="visible"/>
		</clipPath>
	</g>
	<g>
		<defs>
			<path id="SVGID_3_" d="M201.1,150.7L34.6,246.9c-1.7,1-1.7,3.5,0,4.5l91.9,53c1.4,0.8,3,0.8,4.4,0L301,206.3l0.2,0.7l3.8-2.3
				l-3.2-2.1c-0.1-0.1-0.2-0.1-0.3-0.2l-89.8-51.8c-1.6-1-3.5-1.4-5.3-1.4C204.6,149.3,202.8,149.8,201.1,150.7"/>
		</defs>
		<use xlink:href="#SVGID_3_"  overflow="visible" fill="#EBEBEB"/>
		<clipPath id="SVGID_4_">
			<use xlink:href="#SVGID_3_"  overflow="visible"/>
		</clipPath>
	</g>
	<g>
		<defs>
			<path id="SVGID_5_" d="M191,165.3l-128.1,74c-3.2,1.9-3.2,6.5,0,8.4l62.5,36c5.3,3.1,11.9,3.1,17.2,0l122.6-70.8
				c4.1-2.4,4.1-8.3,0-10.7l-64-36.9c-1.6-0.9-3.3-1.4-5.1-1.4C194.4,163.9,192.6,164.4,191,165.3"/>
		</defs>
		<linearGradient id="SVGID_6_" gradientUnits="userSpaceOnUse" x1="291.8116" y1="176.9488" x2="-40.4928" y2="303.4551">
			<stop  offset="0" style="stop-color:#6E788C"/>
			<stop  offset="1" style="stop-color:#C8C8C8"/>
		</linearGradient>
		<use xlink:href="#SVGID_5_"  overflow="visible" fill="url(#SVGID_6_)"/>
		<clipPath id="SVGID_7_">
			<use xlink:href="#SVGID_5_"  overflow="visible"/>
		</clipPath>
	</g>
	<g>
		<defs>
			<path id="SVGID_8_" d="M196,19.8L30.5,115.3c-0.7,0.4-1.2,0.8-1.8,1.3l4.6,2.7c-1.7,1.7-2.8,4-2.8,6.5v118.1l171-98.7V23.5l2.9-1
				l-4.7-2.7l0,0c-0.6-0.3-1.2-0.5-1.9-0.5C197.3,19.3,196.6,19.4,196,19.8"/>
		</defs>
		<use xlink:href="#SVGID_8_"  overflow="visible" fill="#C8C8C8"/>
		<clipPath id="SVGID_9_">
			<use xlink:href="#SVGID_8_"  overflow="visible"/>
		</clipPath>
	</g>
	<g>
		<defs>
			<path id="SVGID_10_" d="M201.6,22c-0.3,0.1-0.6,0.2-0.9,0.4L35.2,117.9c-0.7,0.4-1.3,0.8-1.8,1.4c-1.7,1.7-2.8,4-2.8,6.5v120.6
				c0,1.3,1.4,2,2.4,1.4l171.6-99c1-0.6,1.7-1.7,1.7-2.9V25.7c0-2.2-1.8-3.8-3.8-3.8C202.3,21.9,201.9,21.9,201.6,22"/>
		</defs>
		<use xlink:href="#SVGID_10_"  overflow="visible" fill="#EBEBEB"/>
		<clipPath id="SVGID_11_">
			<use xlink:href="#SVGID_10_"  overflow="visible"/>
		</clipPath>
	</g>
	<g>
		<defs>
			<polygon id="SVGID_12_" points="36,124.9 36,240.1 201,145 201,29.8 			"/>
		</defs>
		<linearGradient id="SVGID_13_" gradientUnits="userSpaceOnUse" x1="196.5734" y1="43.115" x2="-85.9935" y2="375.4194">
			<stop  offset="0" style="stop-color:#6E788C"/>
			<stop  offset="1" style="stop-color:#C8C8C8"/>
		</linearGradient>
		<use xlink:href="#SVGID_12_"  overflow="visible" fill="url(#SVGID_13_)"/>
		<clipPath id="SVGID_14_">
			<use xlink:href="#SVGID_12_"  overflow="visible"/>
		</clipPath>
	</g>
	<g>
		<defs>
			<path id="SVGID_15_" d="M77,238.2l-5.3,3.1c-0.3,0.2-0.5,0.4-0.7,0.7l-0.3,0v0.9c0,0.1,0,0.1,0,0.2v0.1h0c0,0.6,0.4,1.2,0.9,1.5
				l5.1,2.9c1.2,0.7,2.7,0.7,4,0l5.1-2.9c0.7-0.4,1-1,1-1.7h0v-1.1l-0.4,0c-0.1-0.2-0.3-0.4-0.6-0.5l-5.3-3.1
				c-0.5-0.3-1.1-0.5-1.7-0.5C78.1,237.8,77.5,237.9,77,238.2"/>
		</defs>
		<use xlink:href="#SVGID_15_"  overflow="visible" fill="#003266"/>
		<clipPath id="SVGID_16_">
			<use xlink:href="#SVGID_15_"  overflow="visible"/>
		</clipPath>
	</g>
	<g>
		<path fill="#FFFFFF" d="M85.8,243.6l-5.1,2.9c-1.2,0.7-2.7,0.7-4,0l-5.1-2.9c-1.3-0.7-1.3-2.6,0-3.3l5.3-3.1
			c1.1-0.6,2.4-0.6,3.5,0l5.3,3.1C87.1,241,87.1,242.8,85.8,243.6"/>
	</g>
	<g>
		<defs>
			<path id="SVGID_17_" d="M91.9,229.6l-5.3,3.1c-0.3,0.2-0.5,0.4-0.7,0.7l-0.3,0v0.9c0,0.1,0,0.1,0,0.2v0.1h0
				c0,0.6,0.4,1.2,0.9,1.5l5.1,2.9c1.2,0.7,2.7,0.7,4,0l5.1-2.9c0.7-0.4,1-1,1-1.7h0v-1.1l-0.4,0c-0.1-0.2-0.3-0.4-0.6-0.5l-5.3-3.1
				c-0.5-0.3-1.1-0.5-1.7-0.5C93,229.2,92.4,229.3,91.9,229.6"/>
		</defs>
		<use xlink:href="#SVGID_17_"  overflow="visible" fill="#003266"/>
		<clipPath id="SVGID_18_">
			<use xlink:href="#SVGID_17_"  overflow="visible"/>
		</clipPath>
	</g>
	<g>
		<path fill="#FFFFFF" d="M100.7,235l-5.1,2.9c-1.2,0.7-2.7,0.7-4,0l-5.1-2.9c-1.3-0.7-1.3-2.6,0-3.3l5.3-3.1c1.1-0.6,2.4-0.6,3.5,0
			l5.3,3.1C101.9,232.4,101.9,234.3,100.7,235"/>
	</g>
	<g>
		<defs>
			<path id="SVGID_19_" d="M106.7,221.1l-5.3,3.1c-0.3,0.2-0.5,0.4-0.7,0.7l-0.2,0v0.9c0,0.1,0,0.1,0,0.2v0.1h0
				c0,0.6,0.4,1.2,0.9,1.5l5.1,2.9c1.2,0.7,2.7,0.7,4,0l5.1-2.9c0.6-0.4,1-1,1-1.7h0v-1.1l-0.4,0c-0.2-0.2-0.3-0.4-0.6-0.5l-5.3-3.1
				c-0.5-0.3-1.1-0.5-1.7-0.5C107.8,220.6,107.2,220.8,106.7,221.1"/>
		</defs>
		<use xlink:href="#SVGID_19_"  overflow="visible" fill="#003266"/>
		<clipPath id="SVGID_20_">
			<use xlink:href="#SVGID_19_"  overflow="visible"/>
		</clipPath>
	</g>
	<g>
		<path fill="#FFFFFF" d="M115.5,226.4l-5.1,2.9c-1.2,0.7-2.7,0.7-4,0l-5.1-2.9c-1.3-0.7-1.3-2.6,0-3.3l5.3-3.1
			c1.1-0.6,2.4-0.6,3.5,0l5.3,3.1C116.8,223.8,116.8,225.7,115.5,226.4"/>
	</g>
	<g>
		<defs>
			<path id="SVGID_21_" d="M121.6,212.5l-5.3,3.1c-0.3,0.2-0.5,0.4-0.7,0.7l-0.3,0v0.9c0,0.1,0,0.1,0,0.2v0.1h0
				c0,0.6,0.4,1.2,0.9,1.5l5.1,2.9c1.2,0.7,2.7,0.7,4,0l5.1-2.9c0.7-0.4,1-1,1-1.7h0v-1.1l-0.4,0c-0.1-0.2-0.3-0.4-0.6-0.5l-5.3-3.1
				c-0.5-0.3-1.1-0.5-1.7-0.5C122.7,212,122.1,212.2,121.6,212.5"/>
		</defs>
		<use xlink:href="#SVGID_21_"  overflow="visible" fill="#003266"/>
		<clipPath id="SVGID_22_">
			<use xlink:href="#SVGID_21_"  overflow="visible"/>
		</clipPath>
	</g>
	<g>
		<path fill="#FFFFFF" d="M130.4,217.8l-5.1,2.9c-1.2,0.7-2.7,0.7-4,0l-5.1-2.9c-1.3-0.7-1.3-2.6,0-3.3l5.3-3.1
			c1.1-0.6,2.4-0.6,3.5,0l5.3,3.1C131.6,215.3,131.6,217.1,130.4,217.8"/>
	</g>
	<g>
		<defs>
			<path id="SVGID_23_" d="M136.4,203.9l-5.3,3.1c-0.3,0.2-0.5,0.4-0.7,0.7l-0.2,0v0.9c0,0.1,0,0.1,0,0.2v0.1h0
				c0,0.6,0.4,1.2,0.9,1.5l5.1,2.9c1.2,0.7,2.7,0.7,4,0l5.1-2.9c0.7-0.4,1-1,1-1.7h0v-1.1l-0.4,0c-0.2-0.2-0.3-0.4-0.6-0.5l-5.3-3.1
				c-0.5-0.3-1.1-0.5-1.7-0.5S136.9,203.6,136.4,203.9"/>
		</defs>
		<use xlink:href="#SVGID_23_"  overflow="visible" fill="#003266"/>
		<clipPath id="SVGID_24_">
			<use xlink:href="#SVGID_23_"  overflow="visible"/>
		</clipPath>
	</g>
	<g>
		<path fill="#FFFFFF" d="M145.2,209.3l-5.1,2.9c-1.2,0.7-2.7,0.7-4,0l-5.1-2.9c-1.3-0.7-1.3-2.6,0-3.3l5.3-3.1
			c1.1-0.6,2.4-0.6,3.5,0l5.3,3.1C146.5,206.7,146.5,208.5,145.2,209.3"/>
	</g>
	<g>
		<defs>
			<path id="SVGID_25_" d="M151.3,195.3l-5.3,3.1c-0.3,0.2-0.5,0.4-0.7,0.7l-0.2,0v0.9c0,0.1,0,0.1,0,0.2v0.1h0
				c0,0.6,0.4,1.2,0.9,1.5l5.1,2.9c1.2,0.7,2.7,0.7,4,0l5.1-2.9c0.6-0.4,1-1,1-1.7h0v-1.1l-0.4,0c-0.1-0.2-0.3-0.4-0.6-0.5l-5.3-3.1
				c-0.5-0.3-1.1-0.5-1.7-0.5C152.4,194.9,151.8,195,151.3,195.3"/>
		</defs>
		<use xlink:href="#SVGID_25_"  overflow="visible" fill="#003266"/>
		<clipPath id="SVGID_26_">
			<use xlink:href="#SVGID_25_"  overflow="visible"/>
		</clipPath>
	</g>
	<g>
		<path fill="#FFFFFF" d="M160.1,200.7l-5.1,2.9c-1.2,0.7-2.7,0.7-4,0l-5.1-2.9c-1.3-0.7-1.3-2.6,0-3.3l5.3-3.1
			c1.1-0.6,2.4-0.6,3.5,0l5.3,3.1C161.3,198.1,161.3,199.9,160.1,200.7"/>
	</g>
	<g>
		<defs>
			<path id="SVGID_27_" d="M166.1,186.7l-5.3,3.1c-0.3,0.2-0.5,0.4-0.7,0.7l-0.3,0v0.9c0,0.1,0,0.1,0,0.2v0.1h0
				c0,0.6,0.4,1.2,0.9,1.5l5.1,2.9c1.2,0.7,2.7,0.7,4,0l5.1-2.9c0.7-0.4,1-1,1-1.7h0v-1.1l-0.4,0c-0.1-0.2-0.3-0.4-0.6-0.5l-5.3-3.1
				c-0.5-0.3-1.1-0.5-1.7-0.5C167.2,186.3,166.6,186.4,166.1,186.7"/>
		</defs>
		<use xlink:href="#SVGID_27_"  overflow="visible" fill="#003266"/>
		<clipPath id="SVGID_28_">
			<use xlink:href="#SVGID_27_"  overflow="visible"/>
		</clipPath>
	</g>
	<g>
		<path fill="#FFFFFF" d="M174.9,192.1l-5.1,2.9c-1.2,0.7-2.7,0.7-4,0l-5.1-2.9c-1.3-0.7-1.3-2.6,0-3.3l5.3-3.1
			c1.1-0.6,2.4-0.6,3.5,0l5.3,3.1C176.2,189.5,176.2,191.4,174.9,192.1"/>
	</g>
	<g>
		<defs>
			<path id="SVGID_29_" d="M181,178.2l-5.3,3.1c-0.3,0.2-0.5,0.4-0.7,0.7l-0.2,0v0.9c0,0.1,0,0.1,0,0.2v0.1h0c0,0.6,0.4,1.2,0.9,1.5
				l5.1,2.9c1.2,0.7,2.7,0.7,4,0l5.1-2.9c0.7-0.4,1-1,1-1.7h0v-1.1l-0.4,0c-0.1-0.2-0.3-0.4-0.6-0.5l-5.3-3.1
				c-0.5-0.3-1.1-0.5-1.7-0.5S181.5,177.9,181,178.2"/>
		</defs>
		<use xlink:href="#SVGID_29_"  overflow="visible" fill="#003266"/>
		<clipPath id="SVGID_30_">
			<use xlink:href="#SVGID_29_"  overflow="visible"/>
		</clipPath>
	</g>
	<g>
		<path fill="#FFFFFF" d="M189.8,183.5l-5.1,2.9c-1.2,0.7-2.7,0.7-4,0l-5.1-2.9c-1.3-0.7-1.3-2.6,0-3.3l5.3-3.1
			c1.1-0.6,2.4-0.6,3.5,0l5.3,3.1C191,180.9,191,182.8,189.8,183.5"/>
	</g>
	<g>
		<defs>
			<path id="SVGID_31_" d="M195.8,169.6l-5.3,3.1c-0.3,0.2-0.5,0.4-0.7,0.7l-0.3,0v0.9c0,0.1,0,0.1,0,0.2v0.1h0
				c0,0.6,0.4,1.2,0.9,1.5l5.1,2.9c1.2,0.7,2.7,0.7,4,0l5.1-2.9c0.7-0.4,1-1,1-1.7h0v-1.1l-0.4,0c-0.1-0.2-0.3-0.4-0.6-0.5l-5.3-3.1
				c-0.5-0.3-1.1-0.5-1.7-0.5C196.9,169.1,196.3,169.3,195.8,169.6"/>
		</defs>
		<use xlink:href="#SVGID_31_"  overflow="visible" fill="#003266"/>
		<clipPath id="SVGID_32_">
			<use xlink:href="#SVGID_31_"  overflow="visible"/>
		</clipPath>
	</g>
	<g>
		<path fill="#FFFFFF" d="M204.6,174.9l-5.1,2.9c-1.2,0.7-2.7,0.7-4,0l-5.1-2.9c-1.3-0.7-1.3-2.6,0-3.3l5.3-3.1
			c1.1-0.6,2.4-0.6,3.5,0l5.3,3.1C205.9,172.4,205.9,174.2,204.6,174.9"/>
	</g>
	<g>
		<defs>
			<path id="SVGID_33_" d="M90.9,246.3l-5.3,3.1c-0.3,0.2-0.5,0.4-0.7,0.7l-0.3,0v0.9c0,0.1,0,0.1,0,0.2v0.1h0
				c0,0.6,0.4,1.2,0.9,1.5l5.1,2.9c1.2,0.7,2.7,0.7,4,0l5.1-2.9c0.7-0.4,1-1,1-1.7h0v-1.1l-0.4,0c-0.1-0.2-0.3-0.4-0.6-0.5l-5.3-3.1
				c-0.5-0.3-1.1-0.5-1.7-0.5C92,245.8,91.4,246,90.9,246.3"/>
		</defs>
		<use xlink:href="#SVGID_33_"  overflow="visible" fill="#003266"/>
		<clipPath id="SVGID_34_">
			<use xlink:href="#SVGID_33_"  overflow="visible"/>
		</clipPath>
	</g>
	<g>
		<path fill="#FFFFFF" d="M99.7,251.6l-5.1,2.9c-1.2,0.7-2.7,0.7-4,0l-5.1-2.9c-1.3-0.7-1.3-2.6,0-3.3l5.3-3.1
			c1.1-0.6,2.4-0.6,3.5,0l5.3,3.1C101,249.1,101,250.9,99.7,251.6"/>
	</g>
	<g>
		<defs>
			<path id="SVGID_35_" d="M105.7,237.7l-5.3,3.1c-0.3,0.2-0.5,0.4-0.7,0.7l-0.2,0v0.9c0,0.1,0,0.1,0,0.2v0.1h0
				c0,0.6,0.4,1.2,0.9,1.5l5.1,2.9c1.2,0.7,2.7,0.7,4,0l5.1-2.9c0.7-0.4,1-1,1-1.7h0v-1.1l-0.4,0c-0.1-0.2-0.3-0.4-0.6-0.5l-5.3-3.1
				c-0.5-0.3-1.1-0.5-1.7-0.5C106.9,237.2,106.3,237.4,105.7,237.7"/>
		</defs>
		<use xlink:href="#SVGID_35_"  overflow="visible" fill="#003266"/>
		<clipPath id="SVGID_36_">
			<use xlink:href="#SVGID_35_"  overflow="visible"/>
		</clipPath>
	</g>
	<g>
		<path fill="#FFFFFF" d="M114.5,243.1l-5.1,2.9c-1.2,0.7-2.7,0.7-4,0l-5.1-2.9c-1.3-0.7-1.3-2.6,0-3.3l5.3-3.1
			c1.1-0.6,2.4-0.6,3.5,0l5.3,3.1C115.8,240.5,115.8,242.3,114.5,243.1"/>
	</g>
	<g>
		<defs>
			<path id="SVGID_37_" d="M120.6,229.1l-5.3,3.1c-0.3,0.2-0.5,0.4-0.7,0.7l-0.3,0v0.9c0,0.1,0,0.1,0,0.2v0.1h0
				c0,0.6,0.4,1.2,0.9,1.5l5.1,2.9c1.2,0.7,2.7,0.7,4,0l5.1-2.9c0.7-0.4,1-1,1-1.7h0v-1.1l-0.4,0c-0.1-0.2-0.3-0.4-0.6-0.5l-5.3-3.1
				c-0.5-0.3-1.1-0.5-1.7-0.5C121.7,228.7,121.1,228.8,120.6,229.1"/>
		</defs>
		<use xlink:href="#SVGID_37_"  overflow="visible" fill="#003266"/>
		<clipPath id="SVGID_38_">
			<use xlink:href="#SVGID_37_"  overflow="visible"/>
		</clipPath>
	</g>
	<g>
		<path fill="#FFFFFF" d="M129.4,234.5l-5.1,2.9c-1.2,0.7-2.7,0.7-4,0l-5.1-2.9c-1.3-0.7-1.3-2.6,0-3.3l5.3-3.1
			c1.1-0.6,2.4-0.6,3.5,0l5.3,3.1C130.7,231.9,130.7,233.7,129.4,234.5"/>
	</g>
	<g>
		<defs>
			<path id="SVGID_39_" d="M135.4,220.5l-5.3,3.1c-0.3,0.2-0.5,0.4-0.7,0.7l-0.2,0v0.9c0,0.1,0,0.1,0,0.2v0.1h0
				c0,0.6,0.4,1.2,0.9,1.5l5.1,2.9c1.2,0.7,2.7,0.7,4,0l5.1-2.9c0.7-0.4,1-1,1-1.7h0v-1.1l-0.4,0c-0.1-0.2-0.3-0.4-0.6-0.5l-5.3-3.1
				c-0.5-0.3-1.1-0.5-1.7-0.5C136.6,220.1,136,220.2,135.4,220.5"/>
		</defs>
		<use xlink:href="#SVGID_39_"  overflow="visible" fill="#003266"/>
		<clipPath id="SVGID_40_">
			<use xlink:href="#SVGID_39_"  overflow="visible"/>
		</clipPath>
	</g>
	<g>
		<path fill="#FFFFFF" d="M144.3,225.9l-5.1,2.9c-1.2,0.7-2.7,0.7-4,0l-5.1-2.9c-1.3-0.7-1.3-2.6,0-3.3l5.3-3.1
			c1.1-0.6,2.4-0.6,3.5,0l5.3,3.1C145.5,223.3,145.5,225.2,144.3,225.9"/>
	</g>
	<g>
		<defs>
			<path id="SVGID_41_" d="M150.3,212l-5.3,3.1c-0.3,0.2-0.5,0.4-0.7,0.7l-0.2,0v0.9c0,0.1,0,0.1,0,0.2v0.1h0c0,0.6,0.4,1.2,0.9,1.5
				l5.1,2.9c1.2,0.7,2.7,0.7,4,0l5.1-2.9c0.7-0.4,1-1,1-1.7h0v-1.1l-0.4,0c-0.1-0.2-0.3-0.4-0.6-0.5l-5.3-3.1
				c-0.5-0.3-1.1-0.5-1.7-0.5S150.8,211.7,150.3,212"/>
		</defs>
		<use xlink:href="#SVGID_41_"  overflow="visible" fill="#003266"/>
		<clipPath id="SVGID_42_">
			<use xlink:href="#SVGID_41_"  overflow="visible"/>
		</clipPath>
	</g>
	<g>
		<path fill="#FFFFFF" d="M159.1,217.3l-5.1,2.9c-1.2,0.7-2.7,0.7-4,0l-5.1-2.9c-1.3-0.7-1.3-2.6,0-3.3l5.3-3.1
			c1.1-0.6,2.4-0.6,3.5,0l5.3,3.1C160.4,214.7,160.4,216.6,159.1,217.3"/>
	</g>
	<g>
		<defs>
			<path id="SVGID_43_" d="M165.1,203.4l-5.3,3.1c-0.3,0.2-0.5,0.4-0.7,0.7l-0.3,0v0.9c0,0.1,0,0.1,0,0.2v0.1h0
				c0,0.6,0.4,1.2,0.9,1.5l5.1,2.9c1.2,0.7,2.7,0.7,4,0l5.1-2.9c0.6-0.4,1-1,1-1.7h0V207l-0.4,0c-0.1-0.2-0.3-0.4-0.6-0.5l-5.3-3.1
				c-0.5-0.3-1.1-0.5-1.7-0.5C166.3,202.9,165.7,203.1,165.1,203.4"/>
		</defs>
		<use xlink:href="#SVGID_43_"  overflow="visible" fill="#003266"/>
		<clipPath id="SVGID_44_">
			<use xlink:href="#SVGID_43_"  overflow="visible"/>
		</clipPath>
	</g>
	<g>
		<path fill="#FFFFFF" d="M174,208.7l-5.1,2.9c-1.2,0.7-2.7,0.7-4,0l-5.1-2.9c-1.3-0.7-1.3-2.6,0-3.3l5.3-3.1c1.1-0.6,2.4-0.6,3.5,0
			l5.3,3.1C175.2,206.2,175.2,208,174,208.7"/>
	</g>
	<g>
		<defs>
			<path id="SVGID_45_" d="M180,194.8l-5.3,3.1c-0.3,0.2-0.5,0.4-0.7,0.7l-0.2,0v0.9c0,0.1,0,0.1,0,0.2v0.1h0c0,0.6,0.4,1.2,0.9,1.5
				l5.1,2.9c1.2,0.7,2.7,0.7,4,0l5.1-2.9c0.7-0.4,1-1,1-1.7h0v-1.1l-0.4,0c-0.2-0.2-0.3-0.4-0.6-0.5l-5.3-3.1
				c-0.5-0.3-1.1-0.5-1.7-0.5C181.1,194.3,180.5,194.5,180,194.8"/>
		</defs>
		<use xlink:href="#SVGID_45_"  overflow="visible" fill="#003266"/>
		<clipPath id="SVGID_46_">
			<use xlink:href="#SVGID_45_"  overflow="visible"/>
		</clipPath>
	</g>
	<g>
		<path fill="#FFFFFF" d="M188.8,200.2l-5.1,2.9c-1.2,0.7-2.7,0.7-4,0l-5.1-2.9c-1.3-0.7-1.3-2.6,0-3.3l5.3-3.1
			c1.1-0.6,2.4-0.6,3.5,0l5.3,3.1C190.1,197.6,190.1,199.4,188.8,200.2"/>
	</g>
	<g>
		<defs>
			<path id="SVGID_47_" d="M194.8,186.2l-5.3,3.1c-0.3,0.2-0.5,0.4-0.7,0.7l-0.3,0v0.9c0,0.1,0,0.1,0,0.2v0.1h0
				c0,0.6,0.4,1.2,0.9,1.5l5.1,2.9c1.2,0.7,2.7,0.7,4,0l5.1-2.9c0.7-0.4,1-1,1-1.7h0v-1.1l-0.4,0c-0.1-0.2-0.3-0.4-0.6-0.5l-5.3-3.1
				c-0.5-0.3-1.1-0.5-1.7-0.5C196,185.8,195.4,185.9,194.8,186.2"/>
		</defs>
		<use xlink:href="#SVGID_47_"  overflow="visible" fill="#003266"/>
		<clipPath id="SVGID_48_">
			<use xlink:href="#SVGID_47_"  overflow="visible"/>
		</clipPath>
	</g>
	<g>
		<path fill="#FFFFFF" d="M203.7,191.6l-5.1,2.9c-1.2,0.7-2.7,0.7-4,0l-5.1-2.9c-1.3-0.7-1.3-2.6,0-3.3l5.3-3.1
			c1.1-0.6,2.4-0.6,3.5,0l5.3,3.1C204.9,189,204.9,190.8,203.7,191.6"/>
	</g>
	<g>
		<defs>
			<path id="SVGID_49_" d="M209.7,177.6l-5.3,3.1c-0.3,0.2-0.5,0.4-0.7,0.7l-0.2,0v0.9c0,0.1,0,0.1,0,0.2v0.1h0
				c0,0.6,0.4,1.2,0.9,1.5l5.1,2.9c1.2,0.7,2.7,0.7,4,0l5.1-2.9c0.6-0.4,1-1,1-1.7h0v-1.1l-0.4,0c-0.1-0.2-0.3-0.4-0.6-0.5l-5.3-3.1
				c-0.5-0.3-1.1-0.5-1.7-0.5S210.2,177.3,209.7,177.6"/>
		</defs>
		<use xlink:href="#SVGID_49_"  overflow="visible" fill="#003266"/>
		<clipPath id="SVGID_50_">
			<use xlink:href="#SVGID_49_"  overflow="visible"/>
		</clipPath>
	</g>
	<g>
		<path fill="#FFFFFF" d="M218.5,183l-5.1,2.9c-1.2,0.7-2.7,0.7-4,0l-5.1-2.9c-1.3-0.7-1.3-2.6,0-3.3l5.3-3.1c1.1-0.6,2.4-0.6,3.5,0
			l5.3,3.1C219.8,180.4,219.8,182.3,218.5,183"/>
	</g>
	<g>
		<defs>
			<path id="SVGID_51_" d="M104.8,254.3l-5.3,3.1c-0.3,0.2-0.5,0.4-0.7,0.7l-0.2,0v0.9c0,0.1,0,0.1,0,0.2v0.1h0
				c0,0.6,0.4,1.2,0.9,1.5l5.1,2.9c1.2,0.7,2.7,0.7,4,0l5.1-2.9c0.7-0.4,1-1,1-1.7h0v-1.1l-0.4,0c-0.2-0.2-0.3-0.4-0.6-0.5l-5.3-3.1
				c-0.5-0.3-1.1-0.5-1.7-0.5C105.9,253.9,105.3,254,104.8,254.3"/>
		</defs>
		<use xlink:href="#SVGID_51_"  overflow="visible" fill="#003266"/>
		<clipPath id="SVGID_52_">
			<use xlink:href="#SVGID_51_"  overflow="visible"/>
		</clipPath>
	</g>
	<g>
		<path fill="#FFFFFF" d="M113.6,259.7l-5.1,2.9c-1.2,0.7-2.7,0.7-4,0l-5.1-2.9c-1.3-0.7-1.3-2.6,0-3.3l5.3-3.1
			c1.1-0.6,2.4-0.6,3.5,0l5.3,3.1C114.9,257.1,114.9,259,113.6,259.7"/>
	</g>
	<g>
		<defs>
			<path id="SVGID_53_" d="M119.6,245.8l-5.3,3.1c-0.3,0.2-0.5,0.4-0.7,0.7l-0.3,0v0.9c0,0.1,0,0.1,0,0.2v0.1h0
				c0,0.6,0.4,1.2,0.9,1.5l5.1,2.9c1.2,0.7,2.7,0.7,4,0l5.1-2.9c0.7-0.4,1-1,1-1.7h0v-1.1l-0.4,0c-0.1-0.2-0.3-0.4-0.6-0.5l-5.3-3.1
				c-0.5-0.3-1.1-0.5-1.7-0.5C120.8,245.3,120.2,245.5,119.6,245.8"/>
		</defs>
		<use xlink:href="#SVGID_53_"  overflow="visible" fill="#003266"/>
		<clipPath id="SVGID_54_">
			<use xlink:href="#SVGID_53_"  overflow="visible"/>
		</clipPath>
	</g>
	<g>
		<path fill="#FFFFFF" d="M128.4,251.1l-5.1,2.9c-1.2,0.7-2.7,0.7-4,0l-5.1-2.9c-1.3-0.7-1.3-2.6,0-3.3l5.3-3.1
			c1.1-0.6,2.4-0.6,3.5,0l5.3,3.1C129.7,248.5,129.7,250.4,128.4,251.1"/>
	</g>
	<g>
		<defs>
			<path id="SVGID_55_" d="M134.5,237.2l-5.3,3.1c-0.3,0.2-0.5,0.4-0.7,0.7l-0.2,0v0.9c0,0.1,0,0.1,0,0.2v0.1h0
				c0,0.6,0.4,1.2,0.9,1.5l5.1,2.9c1.2,0.7,2.7,0.7,4,0l5.1-2.9c0.6-0.4,1-1,1-1.7h0v-1.1l-0.4,0c-0.1-0.2-0.3-0.4-0.6-0.5l-5.3-3.1
				c-0.5-0.3-1.1-0.5-1.7-0.5C135.6,236.7,135,236.9,134.5,237.2"/>
		</defs>
		<use xlink:href="#SVGID_55_"  overflow="visible" fill="#003266"/>
		<clipPath id="SVGID_56_">
			<use xlink:href="#SVGID_55_"  overflow="visible"/>
		</clipPath>
	</g>
	<g>
		<path fill="#FFFFFF" d="M143.3,242.5l-5.1,2.9c-1.2,0.7-2.7,0.7-4,0l-5.1-2.9c-1.3-0.7-1.3-2.6,0-3.3l5.3-3.1
			c1.1-0.6,2.4-0.6,3.5,0l5.3,3.1C144.6,240,144.6,241.8,143.3,242.5"/>
	</g>
	<g>
		<defs>
			<path id="SVGID_57_" d="M149.3,228.6l-5.3,3.1c-0.3,0.2-0.5,0.4-0.7,0.7l-0.2,0v0.9c0,0.1,0,0.1,0,0.2v0.1h0
				c0,0.6,0.4,1.2,0.9,1.5l5.1,2.9c1.2,0.7,2.7,0.7,4,0l5.1-2.9c0.7-0.4,1-1,1-1.7h0v-1.1l-0.4,0c-0.2-0.2-0.3-0.4-0.6-0.5l-5.3-3.1
				c-0.5-0.3-1.1-0.5-1.7-0.5C150.5,228.1,149.9,228.3,149.3,228.6"/>
		</defs>
		<use xlink:href="#SVGID_57_"  overflow="visible" fill="#003266"/>
		<clipPath id="SVGID_58_">
			<use xlink:href="#SVGID_57_"  overflow="visible"/>
		</clipPath>
	</g>
	<g>
		<path fill="#FFFFFF" d="M158.1,234l-5.1,2.9c-1.2,0.7-2.7,0.7-4,0L144,234c-1.3-0.7-1.3-2.6,0-3.3l5.3-3.1c1.1-0.6,2.4-0.6,3.5,0
			l5.3,3.1C159.4,231.4,159.4,233.2,158.1,234"/>
	</g>
	<g>
		<defs>
			<path id="SVGID_59_" d="M164.2,220l-5.3,3.1c-0.3,0.2-0.5,0.4-0.7,0.7l-0.2,0v0.9c0,0.1,0,0.1,0,0.2v0.1h0c0,0.6,0.4,1.2,0.9,1.5
				l5.1,2.9c1.2,0.7,2.7,0.7,4,0l5.1-2.9c0.7-0.4,1-1,1-1.7h0v-1.1l-0.4,0c-0.1-0.2-0.3-0.4-0.6-0.5l-5.3-3.1
				c-0.5-0.3-1.1-0.5-1.7-0.5C165.3,219.6,164.7,219.7,164.2,220"/>
		</defs>
		<use xlink:href="#SVGID_59_"  overflow="visible" fill="#003266"/>
		<clipPath id="SVGID_60_">
			<use xlink:href="#SVGID_59_"  overflow="visible"/>
		</clipPath>
	</g>
	<g>
		<path fill="#FFFFFF" d="M173,225.4l-5.1,2.9c-1.2,0.7-2.7,0.7-4,0l-5.1-2.9c-1.3-0.7-1.3-2.6,0-3.3l5.3-3.1c1.1-0.6,2.4-0.6,3.5,0
			l5.3,3.1C174.3,222.8,174.3,224.6,173,225.4"/>
	</g>
	<g>
		<defs>
			<path id="SVGID_61_" d="M179,211.4l-5.3,3.1c-0.3,0.2-0.5,0.4-0.7,0.7l-0.2,0v0.9c0,0.1,0,0.1,0,0.2v0.1h0c0,0.6,0.4,1.2,0.9,1.5
				l5.1,2.9c1.2,0.7,2.7,0.7,4,0l5.1-2.9c0.7-0.4,1-1,1-1.7h0V215l-0.4,0c-0.2-0.2-0.3-0.4-0.6-0.5l-5.3-3.1
				c-0.5-0.3-1.1-0.5-1.7-0.5C180.2,211,179.6,211.1,179,211.4"/>
		</defs>
		<use xlink:href="#SVGID_61_"  overflow="visible" fill="#003266"/>
		<clipPath id="SVGID_62_">
			<use xlink:href="#SVGID_61_"  overflow="visible"/>
		</clipPath>
	</g>
	<g>
		<path fill="#FFFFFF" d="M187.8,216.8l-5.1,2.9c-1.2,0.7-2.7,0.7-4,0l-5.1-2.9c-1.3-0.7-1.3-2.6,0-3.3l5.3-3.1
			c1.1-0.6,2.4-0.6,3.5,0l5.3,3.1C189.1,214.2,189.1,216.1,187.8,216.8"/>
	</g>
	<g>
		<defs>
			<path id="SVGID_63_" d="M193.9,202.9l-5.3,3.1c-0.3,0.2-0.5,0.4-0.7,0.7l-0.3,0v0.9c0,0.1,0,0.1,0,0.2v0.1h0
				c0,0.6,0.4,1.2,0.9,1.5l5.1,2.9c1.2,0.7,2.7,0.7,4,0l5.1-2.9c0.6-0.4,1-1,1-1.7h0v-1.1l-0.4,0c-0.1-0.2-0.3-0.4-0.6-0.5l-5.3-3.1
				c-0.5-0.3-1.1-0.5-1.7-0.5C195,202.4,194.4,202.6,193.9,202.9"/>
		</defs>
		<use xlink:href="#SVGID_63_"  overflow="visible" fill="#003266"/>
		<clipPath id="SVGID_64_">
			<use xlink:href="#SVGID_63_"  overflow="visible"/>
		</clipPath>
	</g>
	<g>
		<path fill="#FFFFFF" d="M202.7,208.2l-5.1,2.9c-1.2,0.7-2.7,0.7-4,0l-5.1-2.9c-1.3-0.7-1.3-2.6,0-3.3l5.3-3.1
			c1.1-0.6,2.4-0.6,3.5,0l5.3,3.1C204,205.6,204,207.5,202.7,208.2"/>
	</g>
	<g>
		<defs>
			<path id="SVGID_65_" d="M208.7,194.3l-5.3,3.1c-0.3,0.2-0.5,0.4-0.7,0.7l-0.2,0v0.9c0,0.1,0,0.1,0,0.2v0.1h0
				c0,0.6,0.4,1.2,0.9,1.5l5.1,2.9c1.2,0.7,2.7,0.7,4,0l5.1-2.9c0.7-0.4,1-1,1-1.7h0v-1.1l-0.4,0c-0.1-0.2-0.3-0.4-0.6-0.5l-5.3-3.1
				c-0.5-0.3-1.1-0.5-1.7-0.5S209.3,194,208.7,194.3"/>
		</defs>
		<use xlink:href="#SVGID_65_"  overflow="visible" fill="#003266"/>
		<clipPath id="SVGID_66_">
			<use xlink:href="#SVGID_65_"  overflow="visible"/>
		</clipPath>
	</g>
	<g>
		<path fill="#FFFFFF" d="M217.5,199.6l-5.1,2.9c-1.2,0.7-2.7,0.7-4,0l-5.1-2.9c-1.3-0.7-1.3-2.6,0-3.3l5.3-3.1
			c1.1-0.6,2.4-0.6,3.5,0l5.3,3.1C218.8,197.1,218.8,198.9,217.5,199.6"/>
	</g>
	<g>
		<defs>
			<path id="SVGID_67_" d="M223.6,185.7l-5.3,3.1c-0.3,0.2-0.5,0.4-0.7,0.7l-0.2,0v0.9c0,0.1,0,0.1,0,0.2v0.1h0
				c0,0.6,0.4,1.2,0.9,1.5l5.1,2.9c1.2,0.7,2.7,0.7,4,0l5.1-2.9c0.6-0.4,1-1,1-1.7h0v-1.1l-0.4,0c-0.1-0.2-0.3-0.4-0.6-0.5l-5.3-3.1
				c-0.5-0.3-1.1-0.5-1.7-0.5C224.7,185.2,224.1,185.4,223.6,185.7"/>
		</defs>
		<use xlink:href="#SVGID_67_"  overflow="visible" fill="#003266"/>
		<clipPath id="SVGID_68_">
			<use xlink:href="#SVGID_67_"  overflow="visible"/>
		</clipPath>
	</g>
	<g>
		<path fill="#FFFFFF" d="M232.4,191.1l-5.1,2.9c-1.2,0.7-2.7,0.7-4,0l-5.1-2.9c-1.3-0.7-1.3-2.6,0-3.3l5.3-3.1
			c1.1-0.6,2.4-0.6,3.5,0l5.3,3.1C233.7,188.5,233.7,190.3,232.4,191.1"/>
	</g>
	<g>
		<defs>
			<path id="SVGID_69_" d="M118.7,262.4l-5.3,3.1c-0.3,0.2-0.5,0.4-0.7,0.7l-0.3,0v0.9c0,0.1,0,0.1,0,0.2v0.1h0
				c0,0.6,0.4,1.2,0.9,1.5l5.1,2.9c1.2,0.7,2.7,0.7,4,0l5.1-2.9c0.7-0.4,1-1,1-1.7h0V266l-0.4,0c-0.1-0.2-0.3-0.4-0.6-0.5l-5.3-3.1
				c-0.5-0.3-1.1-0.5-1.7-0.5C119.8,261.9,119.2,262.1,118.7,262.4"/>
		</defs>
		<use xlink:href="#SVGID_69_"  overflow="visible" fill="#003266"/>
		<clipPath id="SVGID_70_">
			<use xlink:href="#SVGID_69_"  overflow="visible"/>
		</clipPath>
	</g>
	<g>
		<path fill="#FFFFFF" d="M127.5,267.8l-5.1,2.9c-1.2,0.7-2.7,0.7-4,0l-5.1-2.9c-1.3-0.7-1.3-2.6,0-3.3l5.3-3.1
			c1.1-0.6,2.4-0.6,3.5,0l5.3,3.1C128.7,265.2,128.7,267,127.5,267.8"/>
	</g>
	<g>
		<defs>
			<path id="SVGID_71_" d="M133.5,253.8l-5.3,3.1c-0.3,0.2-0.5,0.4-0.7,0.7l-0.2,0v0.9c0,0.1,0,0.1,0,0.2v0.1h0
				c0,0.6,0.4,1.2,0.9,1.5l5.1,2.9c1.2,0.7,2.7,0.7,4,0l5.1-2.9c0.6-0.4,1-1,1-1.7h0v-1.1l-0.4,0c-0.1-0.2-0.3-0.4-0.6-0.5l-5.3-3.1
				c-0.5-0.3-1.1-0.5-1.7-0.5S134,253.5,133.5,253.8"/>
		</defs>
		<use xlink:href="#SVGID_71_"  overflow="visible" fill="#003266"/>
		<clipPath id="SVGID_72_">
			<use xlink:href="#SVGID_71_"  overflow="visible"/>
		</clipPath>
	</g>
	<g>
		<path fill="#FFFFFF" d="M142.3,259.2l-5.1,2.9c-1.2,0.7-2.7,0.7-4,0l-5.1-2.9c-1.3-0.7-1.3-2.6,0-3.3l5.3-3.1
			c1.1-0.6,2.4-0.6,3.5,0l5.3,3.1C143.6,256.6,143.6,258.4,142.3,259.2"/>
	</g>
	<g>
		<defs>
			<path id="SVGID_73_" d="M148.4,245.2l-5.3,3.1c-0.3,0.2-0.5,0.4-0.7,0.7l-0.2,0v0.9c0,0.1,0,0.1,0,0.2v0.1h0
				c0,0.6,0.4,1.2,0.9,1.5l5.1,2.9c1.2,0.7,2.7,0.7,4,0l5.1-2.9c0.7-0.4,1-1,1-1.7h0v-1.1l-0.4,0c-0.1-0.2-0.3-0.4-0.6-0.5l-5.3-3.1
				c-0.5-0.3-1.1-0.5-1.7-0.5C149.5,244.8,148.9,244.9,148.4,245.2"/>
		</defs>
		<use xlink:href="#SVGID_73_"  overflow="visible" fill="#003266"/>
		<clipPath id="SVGID_74_">
			<use xlink:href="#SVGID_73_"  overflow="visible"/>
		</clipPath>
	</g>
	<g>
		<path fill="#FFFFFF" d="M157.2,250.6l-5.1,2.9c-1.2,0.7-2.7,0.7-4,0l-5.1-2.9c-1.3-0.7-1.3-2.6,0-3.3l5.3-3.1
			c1.1-0.6,2.4-0.6,3.5,0l5.3,3.1C158.4,248,158.4,249.9,157.2,250.6"/>
	</g>
	<g>
		<defs>
			<path id="SVGID_75_" d="M163.2,236.7l-5.3,3.1c-0.3,0.2-0.5,0.4-0.7,0.7l-0.3,0v0.9c0,0.1,0,0.1,0,0.2v0.1h0
				c0,0.6,0.4,1.2,0.9,1.5l5.1,2.9c1.2,0.7,2.7,0.7,4,0l5.1-2.9c0.7-0.4,1-1,1-1.7h0v-1.1l-0.4,0c-0.1-0.2-0.3-0.4-0.6-0.5l-5.3-3.1
				c-0.5-0.3-1.1-0.5-1.7-0.5C164.3,236.2,163.8,236.4,163.2,236.7"/>
		</defs>
		<use xlink:href="#SVGID_75_"  overflow="visible" fill="#003266"/>
		<clipPath id="SVGID_76_">
			<use xlink:href="#SVGID_75_"  overflow="visible"/>
		</clipPath>
	</g>
	<g>
		<path fill="#FFFFFF" d="M172,242l-5.1,2.9c-1.2,0.7-2.7,0.7-4,0l-5.1-2.9c-1.3-0.7-1.3-2.6,0-3.3l5.3-3.1c1.1-0.6,2.4-0.6,3.5,0
			l5.3,3.1C173.3,239.4,173.3,241.3,172,242"/>
	</g>
	<g>
		<defs>
			<path id="SVGID_77_" d="M178.1,228.1l-5.3,3.1c-0.3,0.2-0.5,0.4-0.7,0.7l-0.2,0v0.9c0,0.1,0,0.1,0,0.2v0.1h0
				c0,0.6,0.4,1.2,0.9,1.5l5.1,2.9c1.2,0.7,2.7,0.7,4,0l5.1-2.9c0.7-0.4,1-1,1-1.7h0v-1.1l-0.4,0c-0.2-0.2-0.3-0.4-0.6-0.5l-5.3-3.1
				c-0.5-0.3-1.1-0.5-1.7-0.5S178.6,227.8,178.1,228.1"/>
		</defs>
		<use xlink:href="#SVGID_77_"  overflow="visible" fill="#003266"/>
		<clipPath id="SVGID_78_">
			<use xlink:href="#SVGID_77_"  overflow="visible"/>
		</clipPath>
	</g>
	<g>
		<path fill="#FFFFFF" d="M186.9,233.4l-5.1,2.9c-1.2,0.7-2.7,0.7-4,0l-5.1-2.9c-1.3-0.7-1.3-2.6,0-3.3l5.3-3.1
			c1.1-0.6,2.4-0.6,3.5,0l5.3,3.1C188.1,230.9,188.1,232.7,186.9,233.4"/>
	</g>
	<g>
		<defs>
			<path id="SVGID_79_" d="M192.9,219.5l-5.3,3.1c-0.3,0.2-0.5,0.4-0.7,0.7l-0.3,0v0.9c0,0.1,0,0.1,0,0.2v0.1h0
				c0,0.6,0.4,1.2,0.9,1.5l5.1,2.9c1.2,0.7,2.7,0.7,4,0l5.1-2.9c0.7-0.4,1-1,1-1.7h0v-1.1l-0.4,0c-0.1-0.2-0.3-0.4-0.6-0.5l-5.3-3.1
				c-0.5-0.3-1.1-0.5-1.7-0.5C194.1,219,193.5,219.2,192.9,219.5"/>
		</defs>
		<use xlink:href="#SVGID_79_"  overflow="visible" fill="#003266"/>
		<clipPath id="SVGID_80_">
			<use xlink:href="#SVGID_79_"  overflow="visible"/>
		</clipPath>
	</g>
	<g>
		<path fill="#FFFFFF" d="M201.7,224.9l-5.1,2.9c-1.2,0.7-2.7,0.7-4,0l-5.1-2.9c-1.3-0.7-1.3-2.6,0-3.3l5.3-3.1
			c1.1-0.6,2.4-0.6,3.5,0l5.3,3.1C203,222.3,203,224.1,201.7,224.9"/>
	</g>
	<g>
		<defs>
			<path id="SVGID_81_" d="M207.8,210.9l-5.3,3.1c-0.3,0.2-0.5,0.4-0.7,0.7l-0.2,0v0.9c0,0.1,0,0.1,0,0.2v0.1h0
				c0,0.6,0.4,1.2,0.9,1.5l5.1,2.9c1.2,0.7,2.7,0.7,4,0l5.1-2.9c0.7-0.4,1-1,1-1.7h0v-1.1l-0.4,0c-0.1-0.2-0.3-0.4-0.6-0.5l-5.3-3.1
				c-0.5-0.3-1.1-0.5-1.7-0.5C208.9,210.5,208.3,210.6,207.8,210.9"/>
		</defs>
		<use xlink:href="#SVGID_81_"  overflow="visible" fill="#003266"/>
		<clipPath id="SVGID_82_">
			<use xlink:href="#SVGID_81_"  overflow="visible"/>
		</clipPath>
	</g>
	<g>
		<path fill="#FFFFFF" d="M216.6,216.3l-5.1,2.9c-1.2,0.7-2.7,0.7-4,0l-5.1-2.9c-1.3-0.7-1.3-2.6,0-3.3l5.3-3.1
			c1.1-0.6,2.4-0.6,3.5,0l5.3,3.1C217.9,213.7,217.9,215.5,216.6,216.3"/>
	</g>
	<g>
		<defs>
			<path id="SVGID_83_" d="M222.6,202.3l-5.3,3.1c-0.3,0.2-0.5,0.4-0.7,0.7l-0.2,0v0.9c0,0.1,0,0.1,0,0.2v0.1h0
				c0,0.6,0.4,1.2,0.9,1.5l5.1,2.9c1.2,0.7,2.7,0.7,4,0l5.1-2.9c0.7-0.4,1-1,1-1.7h0v-1.1l-0.4,0c-0.2-0.2-0.3-0.4-0.6-0.5l-5.3-3.1
				c-0.5-0.3-1.1-0.5-1.7-0.5C223.8,201.9,223.2,202,222.6,202.3"/>
		</defs>
		<use xlink:href="#SVGID_83_"  overflow="visible" fill="#003266"/>
		<clipPath id="SVGID_84_">
			<use xlink:href="#SVGID_83_"  overflow="visible"/>
		</clipPath>
	</g>
	<g>
		<path fill="#FFFFFF" d="M231.4,207.7l-5.1,2.9c-1.2,0.7-2.7,0.7-4,0l-5.1-2.9c-1.3-0.7-1.3-2.6,0-3.3l5.3-3.1
			c1.1-0.6,2.4-0.6,3.5,0l5.3,3.1C232.7,205.1,232.7,207,231.4,207.7"/>
	</g>
	<g>
		<defs>
			<path id="SVGID_85_" d="M237.5,193.8l-5.3,3.1c-0.3,0.2-0.5,0.4-0.7,0.7l-0.3,0v0.9c0,0.1,0,0.1,0,0.2v0.1h0
				c0,0.6,0.4,1.2,0.9,1.5l5.1,2.9c1.2,0.7,2.7,0.7,4,0l5.1-2.9c0.7-0.4,1-1,1-1.7h0v-1.1l-0.4,0c-0.1-0.2-0.3-0.4-0.6-0.5l-5.3-3.1
				c-0.5-0.3-1.1-0.5-1.7-0.5C238.6,193.3,238,193.5,237.5,193.8"/>
		</defs>
		<use xlink:href="#SVGID_85_"  overflow="visible" fill="#003266"/>
		<clipPath id="SVGID_86_">
			<use xlink:href="#SVGID_85_"  overflow="visible"/>
		</clipPath>
	</g>
	<g>
		<path fill="#FFFFFF" d="M246.3,199.1l-5.1,2.9c-1.2,0.7-2.7,0.7-4,0l-5.1-2.9c-1.3-0.7-1.3-2.6,0-3.3l5.3-3.1
			c1.1-0.6,2.4-0.6,3.5,0l5.3,3.1C247.6,196.5,247.6,198.4,246.3,199.1"/>
	</g>
	<g>
		<defs>
			<path id="SVGID_87_" d="M132.5,270.5l-5.3,3.1c-0.3,0.2-0.5,0.4-0.7,0.7l-0.2,0v0.9c0,0.1,0,0.1,0,0.2v0.1h0
				c0,0.6,0.4,1.2,0.9,1.5l5.1,2.9c1.2,0.7,2.7,0.7,4,0l5.1-2.9c0.7-0.4,1-1,1-1.7h0v-1.1l-0.4,0c-0.1-0.2-0.3-0.4-0.6-0.5l-5.3-3.1
				c-0.5-0.3-1.1-0.5-1.7-0.5C133.7,270,133.1,270.2,132.5,270.5"/>
		</defs>
		<use xlink:href="#SVGID_87_"  overflow="visible" fill="#003266"/>
		<clipPath id="SVGID_88_">
			<use xlink:href="#SVGID_87_"  overflow="visible"/>
		</clipPath>
	</g>
	<g>
		<path fill="#FFFFFF" d="M141.4,275.8l-5.1,2.9c-1.2,0.7-2.7,0.7-4,0l-5.1-2.9c-1.3-0.7-1.3-2.6,0-3.3l5.3-3.1
			c1.1-0.6,2.4-0.6,3.5,0l5.3,3.1C142.6,273.2,142.6,275.1,141.4,275.8"/>
	</g>
	<g>
		<defs>
			<path id="SVGID_89_" d="M147.4,261.9l-5.3,3.1c-0.3,0.2-0.5,0.4-0.7,0.7l-0.2,0v0.9c0,0.1,0,0.1,0,0.2v0.1h0
				c0,0.6,0.4,1.2,0.9,1.5l5.1,2.9c1.2,0.7,2.7,0.7,4,0l5.1-2.9c0.6-0.4,1-1,1-1.7h0v-1.1l-0.4,0c-0.1-0.2-0.3-0.4-0.6-0.5l-5.3-3.1
				c-0.5-0.3-1.1-0.5-1.7-0.5C148.5,261.4,147.9,261.6,147.4,261.9"/>
		</defs>
		<use xlink:href="#SVGID_89_"  overflow="visible" fill="#003266"/>
		<clipPath id="SVGID_90_">
			<use xlink:href="#SVGID_89_"  overflow="visible"/>
		</clipPath>
	</g>
	<g>
		<path fill="#FFFFFF" d="M156.2,267.2l-5.1,2.9c-1.2,0.7-2.7,0.7-4,0l-5.1-2.9c-1.3-0.7-1.3-2.6,0-3.3l5.3-3.1
			c1.1-0.6,2.4-0.6,3.5,0l5.3,3.1C157.5,264.7,157.5,266.5,156.2,267.2"/>
	</g>
	<g>
		<defs>
			<path id="SVGID_91_" d="M221.3,219.2l-5.3,3.1c-0.3,0.2-0.5,0.4-0.7,0.7l-0.3,0v0.9c0,0.1,0,0.1,0,0.2v0.1h0
				c0,0.6,0.4,1.2,0.9,1.5l5.1,2.9c1.2,0.7,2.7,0.7,4,0l5.1-2.9c0.7-0.4,1-1,1-1.7h0v-1.1l-0.4,0c-0.1-0.2-0.3-0.4-0.6-0.5l-5.3-3.1
				c-0.5-0.3-1.1-0.5-1.7-0.5C222.4,218.8,221.8,218.9,221.3,219.2"/>
		</defs>
		<use xlink:href="#SVGID_91_"  overflow="visible" fill="#003266"/>
		<clipPath id="SVGID_92_">
			<use xlink:href="#SVGID_91_"  overflow="visible"/>
		</clipPath>
	</g>
	<g>
		<path fill="#FFFFFF" d="M230.1,224.6l-5.1,2.9c-1.2,0.7-2.7,0.7-4,0l-5.1-2.9c-1.3-0.7-1.3-2.6,0-3.3l5.3-3.1
			c1.1-0.6,2.4-0.6,3.5,0l5.3,3.1C231.4,222,231.4,223.8,230.1,224.6"/>
	</g>
	<g>
		<defs>
			<path id="SVGID_93_" d="M206,228.1L157.8,256c-0.3,0.2-0.5,0.4-0.7,0.7l-0.3,0v0.9c0,0.1,0,0.1,0,0.2v0.1h0
				c0,0.6,0.4,1.2,0.9,1.5l5.1,2.9c1.2,0.7,2.7,0.7,4,0l47.9-27.7c0.6-0.4,1-1,1-1.7h0v-1.1l-0.4,0c-0.1-0.2-0.3-0.4-0.6-0.5
				l-5.3-3.1c-0.5-0.3-1.1-0.5-1.7-0.5C207.1,227.6,206.5,227.8,206,228.1"/>
		</defs>
		<use xlink:href="#SVGID_93_"  overflow="visible" fill="#003266"/>
		<clipPath id="SVGID_94_">
			<use xlink:href="#SVGID_93_"  overflow="visible"/>
		</clipPath>
	</g>
	<g>
		<path fill="#FFFFFF" d="M214.8,233.5l-47.9,27.7c-1.2,0.7-2.7,0.7-4,0l-5.1-2.9c-1.3-0.7-1.3-2.6,0-3.3l48.2-27.9
			c1.1-0.6,2.4-0.6,3.5,0l5.3,3.1C216.1,230.9,216.1,232.7,214.8,233.5"/>
	</g>
	<g>
		<defs>
			<path id="SVGID_95_" d="M236.5,210.4l-5.3,3.1c-0.3,0.2-0.5,0.4-0.7,0.7l-0.3,0v0.9c0,0.1,0,0.1,0,0.2v0.1h0
				c0,0.6,0.4,1.2,0.9,1.5l5.1,2.9c1.2,0.7,2.7,0.7,4,0l5.1-2.9c0.6-0.4,1-1,1-1.7h0V214l-0.4,0c-0.1-0.2-0.3-0.4-0.6-0.5l-5.3-3.1
				c-0.5-0.3-1.1-0.5-1.7-0.5S237,210.1,236.5,210.4"/>
		</defs>
		<use xlink:href="#SVGID_95_"  overflow="visible" fill="#003266"/>
		<clipPath id="SVGID_96_">
			<use xlink:href="#SVGID_95_"  overflow="visible"/>
		</clipPath>
	</g>
	<g>
		<path fill="#FFFFFF" d="M245.3,215.8l-5.1,2.9c-1.2,0.7-2.7,0.7-4,0l-5.1-2.9c-1.3-0.7-1.3-2.6,0-3.3l5.3-3.1
			c1.1-0.6,2.4-0.6,3.5,0l5.3,3.1C246.6,213.2,246.6,215,245.3,215.8"/>
	</g>
	<g>
		<defs>
			<path id="SVGID_97_" d="M251.4,201.8l-5.3,3.1c-0.3,0.2-0.5,0.4-0.7,0.7l-0.2,0v0.9c0,0.1,0,0.1,0,0.2v0.1h0
				c0,0.6,0.4,1.2,0.9,1.5l5.1,2.9c1.2,0.7,2.7,0.7,4,0l5.1-2.9c0.7-0.4,1-1,1-1.7l0,0v-1.1l-0.4,0c-0.1-0.2-0.3-0.4-0.6-0.5
				l-5.3-3.1c-0.5-0.3-1.1-0.5-1.7-0.5C252.5,201.4,251.9,201.5,251.4,201.8"/>
		</defs>
		<use xlink:href="#SVGID_97_"  overflow="visible" fill="#003266"/>
		<clipPath id="SVGID_98_">
			<use xlink:href="#SVGID_97_"  overflow="visible"/>
		</clipPath>
	</g>
	<g>
		<path fill="#FFFFFF" d="M260.2,207.2l-5.1,2.9c-1.2,0.7-2.7,0.7-4,0l-5.1-2.9c-1.3-0.7-1.3-2.6,0-3.3l5.3-3.1
			c1.1-0.6,2.4-0.6,3.5,0l5.3,3.1C261.4,204.6,261.4,206.4,260.2,207.2"/>
	</g>
	<g>
		<defs>
			<path id="SVGID_99_" d="M303.8,204.7L131,304.4c-0.6,0.3-0.8,1-0.6,1.6c1.3,3.4,5.2,4.8,8.4,3L299,216.5c3-1.7,5.1-4.5,5.9-7.9
				l0.7-2.6c0.2-0.8-0.5-1.6-1.2-1.6C304.2,204.5,304,204.6,303.8,204.7"/>
		</defs>
		<use xlink:href="#SVGID_99_"  overflow="visible" fill="#C8C8C8"/>
		<clipPath id="SVGID_100_">
			<use xlink:href="#SVGID_99_"  overflow="visible"/>
		</clipPath>
	</g>
	<g>
		<path fill="#FF4B5E" d="M171,60.2l-0.9,0C170.4,60,170.7,60,171,60.2C171,60.2,171,60.2,171,60.2"/>
	</g>
	<g>
		<g>
			<g>
				<defs>
					<path id="SVGID_101_" d="M69.8,129.9v65.2c0,0.7,0.4,1.3,0.9,1.6l0,0c0,0,0.1,0,0.1,0l2.7,1.5c-0.5-0.3-0.8-0.8-0.8-1.5l0-0.1
						c0,0,0,0,0,0v-65.3c0-0.3,0.1-0.6,0.2-0.9l-2.9-1.6C69.9,129.3,69.8,129.6,69.8,129.9"/>
				</defs>
				<linearGradient id="SVGID_102_" gradientUnits="userSpaceOnUse" x1="69.8358" y1="163.7363" x2="73.5106" y2="163.7363">
					<stop  offset="0" style="stop-color:#003366"/>
					<stop  offset="1" style="stop-color:#0066BA"/>
				</linearGradient>
				<use xlink:href="#SVGID_101_"  overflow="visible" fill="url(#SVGID_102_)"/>
				<clipPath id="SVGID_103_">
					<use xlink:href="#SVGID_101_"  overflow="visible"/>
				</clipPath>
			</g>
			<g>
				<defs>
					<path id="SVGID_104_" d="M274.3,10.6L70.8,128.3c-0.3,0.2-0.6,0.5-0.7,0.8l2.9,1.6c0.2-0.3,0.4-0.6,0.7-0.8L277.1,12.3
						c0,0,0,0,0,0v0h0c0.6-0.3,1.3-0.3,1.8,0l-2.8-1.6c0,0,0,0,0,0l0,0c-0.3-0.2-0.6-0.2-0.9-0.2C274.9,10.4,274.6,10.5,274.3,10.6"
						/>
				</defs>
				<linearGradient id="SVGID_105_" gradientUnits="userSpaceOnUse" x1="70.047" y1="70.5458" x2="278.9563" y2="70.5458">
					<stop  offset="0" style="stop-color:#003366"/>
					<stop  offset="1" style="stop-color:#0066BA"/>
				</linearGradient>
				<use xlink:href="#SVGID_104_"  overflow="visible" fill="url(#SVGID_105_)"/>
				<clipPath id="SVGID_106_">
					<use xlink:href="#SVGID_104_"  overflow="visible"/>
				</clipPath>
			</g>
			<g>
				<defs>
					<path id="SVGID_107_" d="M277.1,12.3C277.1,12.3,277.1,12.3,277.1,12.3C277.1,12.3,277.1,12.3,277.1,12.3L73.6,129.9
						c-0.3,0.2-0.6,0.5-0.7,0.8c-0.1,0.3-0.2,0.6-0.2,0.9v65.3c0,0,0,0,0,0.1c0,0.6,0.4,1.2,0.8,1.5l0.3,0.2
						c0.5,0.3,1.2,0.3,1.8-0.1L279,80.8c0.6-0.3,1-1,1-1.7V13.9c0-0.7-0.4-1.3-1-1.7c0,0,0,0-0.1,0c-0.3-0.1-0.6-0.2-0.9-0.2
						C277.8,12,277.4,12.1,277.1,12.3"/>
				</defs>
				<linearGradient id="SVGID_108_" gradientUnits="userSpaceOnUse" x1="72.681" y1="105.3879" x2="279.9819" y2="105.3879">
					<stop  offset="0" style="stop-color:#003366"/>
					<stop  offset="1" style="stop-color:#0066BA"/>
				</linearGradient>
				<use xlink:href="#SVGID_107_"  overflow="visible" fill="url(#SVGID_108_)"/>
				<clipPath id="SVGID_109_">
					<use xlink:href="#SVGID_107_"  overflow="visible"/>
				</clipPath>
			</g>
			<path fill="#FFFFFF" d="M122.7,137c0,5.5-4.5,12.6-10,15.8c-5.5,3.2-10,1.3-10-4.2c0-5.5,4.5-12.6,10-15.8
				C118.2,129.6,122.7,131.5,122.7,137"/>
			<path fill="#FFFFFF" d="M155.5,119c0,5.5-4.5,12.6-10,15.8c-5.5,3.2-10,1.3-10-4.2c0-5.5,4.5-12.6,10-15.8
				C151,111.6,155.5,113.5,155.5,119"/>
			<path fill="#FFFFFF" d="M188.3,100.1c0,5.5-4.5,12.6-10,15.8c-5.5,3.2-10,1.3-10-4.2c0-5.5,4.5-12.6,10-15.8
				C183.9,92.7,188.3,94.6,188.3,100.1"/>
			<path fill="#FFFFFF" d="M221.2,81.1c0,5.5-4.5,12.6-10,15.8c-5.5,3.2-10,1.3-10-4.2s4.5-12.6,10-15.8
				C216.7,73.7,221.2,75.6,221.2,81.1"/>
			<path fill="#FFFFFF" d="M254,62.2c0,5.5-4.5,12.6-10,15.8c-5.5,3.2-10,1.3-10-4.2s4.5-12.6,10-15.8C249.5,54.8,254,56.7,254,62.2
				"/>
			<g>
				<defs>
					<path id="SVGID_110_" d="M233.1,93.6v43.2c0,0.5,0.2,0.8,0.6,1.1l0,0c0,0,0,0,0.1,0l2.7,1.6c-0.3-0.2-0.5-0.6-0.5-1V95.2
						c0-0.2,0.1-0.5,0.2-0.7l-2.9-1.6C233.1,93.2,233.1,93.4,233.1,93.6"/>
				</defs>
				<linearGradient id="SVGID_111_" gradientUnits="userSpaceOnUse" x1="234.7752" y1="138.4543" x2="234.7752" y2="95.8784">
					<stop  offset="0" style="stop-color:#6ECA44"/>
					<stop  offset="1" style="stop-color:#86D776"/>
				</linearGradient>
				<use xlink:href="#SVGID_110_"  overflow="visible" fill="url(#SVGID_111_)"/>
				<clipPath id="SVGID_112_">
					<use xlink:href="#SVGID_110_"  overflow="visible"/>
				</clipPath>
			</g>
			<g>
				<defs>
					<path id="SVGID_113_" d="M301.6,53l-67.9,39.5c-0.2,0.1-0.4,0.3-0.5,0.5l2.9,1.6c0.1-0.2,0.2-0.3,0.4-0.4l67.9-39.5
						c0.4-0.2,0.8-0.2,1.1-0.1l-2.7-1.6c0,0,0,0,0,0l0,0v0c-0.2-0.1-0.4-0.2-0.6-0.2C302,52.8,301.8,52.8,301.6,53"/>
				</defs>
				<linearGradient id="SVGID_114_" gradientUnits="userSpaceOnUse" x1="298.5331" y1="56.7268" x2="234.2915" y2="94.0121">
					<stop  offset="0" style="stop-color:#6ECA44"/>
					<stop  offset="1" style="stop-color:#86D776"/>
				</linearGradient>
				<use xlink:href="#SVGID_113_"  overflow="visible" fill="url(#SVGID_114_)"/>
				<clipPath id="SVGID_115_">
					<use xlink:href="#SVGID_113_"  overflow="visible"/>
				</clipPath>
			</g>
			<g>
				<defs>
					<path id="SVGID_116_" d="M304.5,54.6l-67.9,39.5c-0.2,0.1-0.3,0.2-0.4,0.4c-0.1,0.2-0.2,0.4-0.2,0.7v43.2c0,0.4,0.2,0.8,0.5,1
						l0.3,0.1c0,0,0,0,0,0c0.3,0.1,0.8,0.1,1.1-0.1l67.9-39.5c0.4-0.2,0.6-0.6,0.6-1.1V55.7c0-0.5-0.3-1-0.8-1.2
						c-0.2-0.1-0.3-0.1-0.5-0.1C304.9,54.5,304.7,54.5,304.5,54.6"/>
				</defs>
				<linearGradient id="SVGID_117_" gradientUnits="userSpaceOnUse" x1="235.9604" y1="97.0496" x2="306.4005" y2="97.0496">
					<stop  offset="0" style="stop-color:#6ECA44"/>
					<stop  offset="1" style="stop-color:#86D776"/>
				</linearGradient>
				<use xlink:href="#SVGID_116_"  overflow="visible" fill="url(#SVGID_117_)"/>
				<clipPath id="SVGID_118_">
					<use xlink:href="#SVGID_116_"  overflow="visible"/>
				</clipPath>
			</g>
			<linearGradient id="SVGID_119_" gradientUnits="userSpaceOnUse" x1="297.5703" y1="91.443" x2="297.5703" y2="127.6489">
				<stop  offset="0" style="stop-color:#969696"/>
				<stop  offset="1" style="stop-color:#C8C8C8"/>
			</linearGradient>
			<path fill="url(#SVGID_119_)" d="M315.4,98.8l-1.8-0.8c-0.1,0-0.1-0.1-0.2-0.1l-31.2-8.7c-1-0.3-2.5,1.3-2.5,2.6v39.7
				c0,0.5,0.2,0.7,0.5,0.8l0,0l5.1,1.4l-0.3-1.4c0.2-0.2,0.4-0.5,0.6-0.8l1.6-25.9c0.3-0.5,3-5.2,3.4-5.5l21.7,0.9
				c0.8-0.5,1.3-1.3,1.5-2.1C314.5,98.9,315.4,98.8,315.4,98.8"/>
			<g>
				<defs>
					<path id="SVGID_120_" d="M284.7,93.1v39.7c0,1.4,1.7,1,2.6-0.5l10.9-18.3c0.3-0.5,0.7-0.9,1.1-1.1l18.1-10.4
						c1.4-0.8,2-2.9,1-3.2l-31.2-8.7c-0.1,0-0.2,0-0.2,0C286,90.5,284.7,91.9,284.7,93.1"/>
				</defs>
				<linearGradient id="SVGID_121_" gradientUnits="userSpaceOnUse" x1="284.7055" y1="112.069" x2="318.868" y2="112.069">
					<stop  offset="0" style="stop-color:#969696"/>
					<stop  offset="1" style="stop-color:#C8C8C8"/>
				</linearGradient>
				<use xlink:href="#SVGID_120_"  overflow="visible" fill="url(#SVGID_121_)"/>
				<clipPath id="SVGID_122_">
					<use xlink:href="#SVGID_120_"  overflow="visible"/>
				</clipPath>
			</g>
		</g>
	</g>
	<g>
		<g>
			<defs>
				<path id="SVGID_123_" d="M318.8,228.5c0.8,0.5,1.7,1.1,2.4,1.8c0.1,0.1,0.2,0.2,0.3,0.2c2.4,2.2,2.4,5.1,1.6,7.8
					c-1.4,5-5.5,8.9-10.5,10.2c-3.5,0.9-8.2,1.2-13.3-0.9c-2.3-0.9-3.8-2.2-4.6-3.6c-3.3-5.5,3-13.5,7.5-15.9l0.2-0.1
					c2.5-1.3,5.2-2,7.9-2C313.3,226.1,316.2,226.9,318.8,228.5"/>
			</defs>
			
				<linearGradient id="SVGID_124_" gradientUnits="userSpaceOnUse" x1="-417.9808" y1="237.6735" x2="-388.2063" y2="237.6735" gradientTransform="matrix(-1 0 0 1 -94.4408 0)">
				<stop  offset="0" style="stop-color:#6E788C"/>
				<stop  offset="1" style="stop-color:#C8C8C8"/>
			</linearGradient>
			<use xlink:href="#SVGID_123_"  overflow="visible" fill="url(#SVGID_124_)"/>
			<clipPath id="SVGID_125_">
				<use xlink:href="#SVGID_123_"  overflow="visible"/>
			</clipPath>
		</g>
		<g>
			<defs>
				<path id="SVGID_126_" d="M295.4,240.5v9.9c0,0.3-0.2,0.5-0.5,0.5c-0.3,0-0.5-0.2-0.5-0.5v-9.9c0-0.3,0.2-0.5,0.5-0.5
					C295.2,240,295.4,240.2,295.4,240.5"/>
			</defs>
			
				<linearGradient id="SVGID_127_" gradientUnits="userSpaceOnUse" x1="-389.8907" y1="245.4509" x2="-388.8033" y2="245.4509" gradientTransform="matrix(-1 0 0 1 -94.4408 0)">
				<stop  offset="0" style="stop-color:#003366"/>
				<stop  offset="1" style="stop-color:#0066BA"/>
			</linearGradient>
			<use xlink:href="#SVGID_126_"  overflow="visible" fill="url(#SVGID_127_)"/>
			<clipPath id="SVGID_128_">
				<use xlink:href="#SVGID_126_"  overflow="visible"/>
			</clipPath>
		</g>
		<g>
			<defs>
				<path id="SVGID_129_" d="M303,242.3c0,3-2.4,5.5-5.5,5.5s-5.5-2.4-5.5-5.5c0-3,2.4-5.5,5.5-5.5S303,239.3,303,242.3"/>
			</defs>
			
				<linearGradient id="SVGID_130_" gradientUnits="userSpaceOnUse" x1="-397.4866" y1="242.3332" x2="-386.5557" y2="242.3332" gradientTransform="matrix(-1 0 0 1 -94.4408 0)">
				<stop  offset="0" style="stop-color:#6E788C"/>
				<stop  offset="1" style="stop-color:#C8C8C8"/>
			</linearGradient>
			<use xlink:href="#SVGID_129_"  overflow="visible" fill="url(#SVGID_130_)"/>
			<clipPath id="SVGID_131_">
				<use xlink:href="#SVGID_129_"  overflow="visible"/>
			</clipPath>
		</g>
		<g>
			<defs>
				<path id="SVGID_132_" d="M309.4,245l6.5,3.2c0.2,0.1,0.3,0.3,0.3,0.5v5.7c0,0.3-0.2,0.5-0.5,0.5s-0.5-0.2-0.5-0.5v-5.4l-6.2-3
					c-0.3-0.1-0.4-0.5-0.3-0.7c0.1-0.2,0.3-0.3,0.5-0.3C309.3,244.9,309.4,244.9,309.4,245"/>
			</defs>
			
				<linearGradient id="SVGID_133_" gradientUnits="userSpaceOnUse" x1="-405.3146" y1="245.4013" x2="-412.5063" y2="254.4808" gradientTransform="matrix(-1 0 0 1 -94.4408 0)">
				<stop  offset="0" style="stop-color:#003366"/>
				<stop  offset="1" style="stop-color:#0066BA"/>
			</linearGradient>
			<use xlink:href="#SVGID_132_"  overflow="visible" fill="url(#SVGID_133_)"/>
			<clipPath id="SVGID_134_">
				<use xlink:href="#SVGID_132_"  overflow="visible"/>
			</clipPath>
		</g>
		<g>
			<defs>
				<path id="SVGID_135_" d="M316.4,242.2l4.9,2.4c0.2,0.1,0.3,0.3,0.3,0.5v6.7c0,0.3-0.2,0.5-0.5,0.5c-0.3,0-0.5-0.2-0.5-0.5v-6.4
					l-4.6-2.2c-0.3-0.1-0.4-0.5-0.3-0.7c0.1-0.2,0.3-0.3,0.5-0.3C316.3,242.2,316.4,242.2,316.4,242.2"/>
			</defs>
			
				<linearGradient id="SVGID_136_" gradientUnits="userSpaceOnUse" x1="-410.3488" y1="241.8736" x2="-417.5405" y2="250.9531" gradientTransform="matrix(-1 0 0 1 -94.4408 0)">
				<stop  offset="0" style="stop-color:#003366"/>
				<stop  offset="1" style="stop-color:#0066BA"/>
			</linearGradient>
			<use xlink:href="#SVGID_135_"  overflow="visible" fill="url(#SVGID_136_)"/>
			<clipPath id="SVGID_137_">
				<use xlink:href="#SVGID_135_"  overflow="visible"/>
			</clipPath>
		</g>
		<g>
			<defs>
				<path id="SVGID_138_" d="M320.8,237.6l4.9,2.4c0.2,0.1,0.3,0.3,0.3,0.5v8.9c0,0.3-0.2,0.5-0.5,0.5c-0.3,0-0.5-0.2-0.5-0.5v-8.5
					l-4.6-2.2c-0.3-0.1-0.4-0.5-0.3-0.7c0.1-0.2,0.3-0.3,0.5-0.3C320.6,237.5,320.7,237.6,320.8,237.6"/>
			</defs>
			
				<linearGradient id="SVGID_139_" gradientUnits="userSpaceOnUse" x1="-414.6936" y1="238.3415" x2="-421.8853" y2="247.421" gradientTransform="matrix(-1 0 0 1 -94.4408 0)">
				<stop  offset="0" style="stop-color:#003366"/>
				<stop  offset="1" style="stop-color:#0066BA"/>
			</linearGradient>
			<use xlink:href="#SVGID_138_"  overflow="visible" fill="url(#SVGID_139_)"/>
			<clipPath id="SVGID_140_">
				<use xlink:href="#SVGID_138_"  overflow="visible"/>
			</clipPath>
		</g>
	</g>
</g>
</svg>
