<?xml version="1.0" encoding="utf-8"?>
<!-- Generator: Adobe Illustrator 22.0.0, SVG Export Plug-In . SVG Version: 6.00 Build 0)  -->
<svg version="1.0" id="Ebene_1" xmlns="http://www.w3.org/2000/svg" xmlns:xlink="http://www.w3.org/1999/xlink" x="0px" y="0px"
	 viewBox="0 0 350 320" enable-background="new 0 0 350 320" xml:space="preserve">
<g>
	<g>
		<g>
			<defs>
				<path id="SVGID_1_" d="M58.4,121.3v148.2c0,11.5,3.9,20.1,10.8,24.9c1,0.7,2,1.2,3,1.7l9.8,5.6c-7.7-4.5-12.1-13.5-12.1-25.7
					V127.9c0-4,1.6-8.5,4.2-12.6l-11.5-6.5C60,112.9,58.4,117.3,58.4,121.3"/>
			</defs>
			<linearGradient id="SVGID_2_" gradientUnits="userSpaceOnUse" x1="70.188" y1="317.675" x2="70.188" y2="113.8166">
				<stop  offset="0" style="stop-color:#6E788C"/>
				<stop  offset="1" style="stop-color:#C8C8C8"/>
			</linearGradient>
			<use xlink:href="#SVGID_1_"  overflow="visible" fill="url(#SVGID_2_)"/>
			<clipPath id="SVGID_3_">
				<use xlink:href="#SVGID_1_"  overflow="visible"/>
			</clipPath>
		</g>
		<g>
			<defs>
				<path id="SVGID_4_" d="M210.8,19.3l-64.6,50.9c-2,1.5-4,2.7-5.9,3.4L75.7,97.2c-5,1.8-9.9,6.3-13.2,11.6l11.5,6.5
					c3.3-5.2,8.1-9.7,13.2-11.5l64.6-23.7c2-0.7,4-1.9,5.9-3.4l64.6-50.9c5.2-4.1,10.2-5.1,13.5-3.5l-11.3-6.4c0,0,0,0,0,0h0
					c-1-0.6-2.2-0.8-3.6-0.8C218,15,214.5,16.4,210.8,19.3"/>
			</defs>
			<linearGradient id="SVGID_5_" gradientUnits="userSpaceOnUse" x1="255.3455" y1="11.1051" x2="67.7099" y2="108.3976">
				<stop  offset="0" style="stop-color:#6E788C"/>
				<stop  offset="1" style="stop-color:#C8C8C8"/>
			</linearGradient>
			<use xlink:href="#SVGID_4_"  overflow="visible" fill="url(#SVGID_5_)"/>
			<clipPath id="SVGID_6_">
				<use xlink:href="#SVGID_4_"  overflow="visible"/>
			</clipPath>
		</g>
		<g>
			<defs>
				<path id="SVGID_7_" d="M222.3,25.8l-64.6,50.9c-2,1.5-4,2.7-5.9,3.4l-64.6,23.7c-5,1.8-9.9,6.3-13.2,11.5
					c-2.6,4.1-4.2,8.6-4.2,12.6V276c0,12.2,4.4,21.2,12.1,25.7c0.1,0,0.1,0.1,0.1,0.1c4.2,2.4,9.3,3.5,15.2,3.1l32.6-2.3
					c13.8-1,30.1-10.2,44.2-24.9l36.9-38.8c17.5-18.4,28.7-42.5,28.7-61.9V29.8c0-3.8-1.5-6.4-3.9-7.6c-1-0.5-2.1-0.7-3.4-0.7
					C229.5,21.5,226,22.9,222.3,25.8"/>
			</defs>
			<linearGradient id="SVGID_8_" gradientUnits="userSpaceOnUse" x1="54.9288" y1="89.2057" x2="211.2917" y2="198.6598">
				<stop  offset="0" style="stop-color:#003366"/>
				<stop  offset="1" style="stop-color:#0066BA"/>
			</linearGradient>
			<use xlink:href="#SVGID_7_"  overflow="visible" fill="url(#SVGID_8_)"/>
			<clipPath id="SVGID_9_">
				<use xlink:href="#SVGID_7_"  overflow="visible"/>
			</clipPath>
		</g>
	</g>
	<path fill="#FFFFFF" d="M217.8,101.1l-111.9,64.6c-0.6,0.4-1.4-0.1-1.4-0.8v-8.7c0-0.3,0.2-0.6,0.5-0.8l111.9-64.6
		c0.6-0.4,1.4,0.1,1.4,0.8v8.7C218.3,100.6,218.1,100.9,217.8,101.1"/>
	<path fill="#FFFFFF" d="M217.8,130l-111.9,64.6c-0.6,0.4-1.4-0.1-1.4-0.8v-8.7c0-0.3,0.2-0.6,0.5-0.8l111.9-64.6
		c0.6-0.4,1.4,0.1,1.4,0.8v8.7C218.3,129.5,218.1,129.8,217.8,130"/>
	<path fill="#FFFFFF" d="M217.8,159l-111.9,64.6c-0.6,0.4-1.4-0.1-1.4-0.8v-8.7c0-0.3,0.2-0.6,0.5-0.8l111.9-64.6
		c0.6-0.4,1.4,0.1,1.4,0.8v8.7C218.3,158.5,218.1,158.8,217.8,159"/>
	<path fill="#FFFFFF" d="M217.8,187.9l-111.9,64.6c-0.6,0.4-1.4-0.1-1.4-0.8V243c0-0.3,0.2-0.6,0.5-0.8l111.9-64.6
		c0.6-0.4,1.4,0.1,1.4,0.8v8.7C218.3,187.4,218.1,187.8,217.8,187.9"/>
	<g>
		<g>
			<defs>
				<path id="SVGID_10_" d="M171.5,220.1v42.3c0,14.1,5.5,23.6,14.5,27.8l0,0l19.8,11.4l0,0c-8.2-4.5-13.2-13.8-13.2-27.1v-46
					c0-1.9,0.5-3.8,1.4-5.4l-20.7-11C172.2,214.6,171.5,217.3,171.5,220.1"/>
			</defs>
			<linearGradient id="SVGID_11_" gradientUnits="userSpaceOnUse" x1="188.7125" y1="290.5288" x2="188.7125" y2="219.6417">
				<stop  offset="0" style="stop-color:#6E788C"/>
				<stop  offset="1" style="stop-color:#C8C8C8"/>
			</linearGradient>
			<use xlink:href="#SVGID_10_"  overflow="visible" fill="url(#SVGID_11_)"/>
			<clipPath id="SVGID_12_">
				<use xlink:href="#SVGID_10_"  overflow="visible"/>
			</clipPath>
		</g>
		<g>
			<defs>
				<path id="SVGID_13_" d="M261,158.6l-80.7,46.4c-2.9,1.7-5.3,4.2-6.8,7.1l20.7,11c0.9-1.7,2.3-3.1,4.1-4.1l85.8-49.5
					c1.1-0.6,2.2-0.8,3.3-0.6l-18.1-10.3c-1.3-0.7-2.7-1.1-4.2-1.1C263.7,157.5,262.2,157.9,261,158.6"/>
			</defs>
			<linearGradient id="SVGID_14_" gradientUnits="userSpaceOnUse" x1="277.7003" y1="164.9277" x2="179.0093" y2="216.0266">
				<stop  offset="0" style="stop-color:#6E788C"/>
				<stop  offset="1" style="stop-color:#C8C8C8"/>
			</linearGradient>
			<use xlink:href="#SVGID_13_"  overflow="visible" fill="url(#SVGID_14_)"/>
			<clipPath id="SVGID_15_">
				<use xlink:href="#SVGID_13_"  overflow="visible"/>
			</clipPath>
		</g>
		<g>
			<defs>
				<path id="SVGID_16_" d="M284,169.6L198.2,219c-1.7,1-3.1,2.4-4.1,4.1c-0.9,1.6-1.4,3.5-1.4,5.4v46c0,13.3,5,22.6,13.2,27.1
					c9.6,5.3,23.6,4,39.2-5c28.9-16.7,46.5-50.2,46.5-79.1v-43.6c0-2.6-1.9-4.6-4.3-5c-0.3,0-0.5-0.1-0.8-0.1
					C285.7,168.9,284.9,169.1,284,169.6"/>
			</defs>
			<linearGradient id="SVGID_17_" gradientUnits="userSpaceOnUse" x1="192.754" y1="236.8256" x2="291.6258" y2="236.8256">
				<stop  offset="0" style="stop-color:#6ECA44"/>
				<stop  offset="1" style="stop-color:#86D776"/>
			</linearGradient>
			<use xlink:href="#SVGID_16_"  overflow="visible" fill="url(#SVGID_17_)"/>
			<clipPath id="SVGID_18_">
				<use xlink:href="#SVGID_16_"  overflow="visible"/>
			</clipPath>
		</g>
		<g>
			<defs>
				<path id="SVGID_19_" d="M245.8,219.2c-8.6,4.9-15.5,15.9-15.5,24.5c0,5.1,2.4,8.2,6.2,8.8v12.4c0,5.1,4.2,6.9,9.3,3.9
					c5.1-3,9.3-9.5,9.3-14.7v-12.4c3.8-5,6.2-10.9,6.2-16c0-5.7-3.1-9-7.8-9C251.3,216.8,248.6,217.6,245.8,219.2"/>
			</defs>
			<linearGradient id="SVGID_20_" gradientUnits="userSpaceOnUse" x1="257.4914" y1="248.7396" x2="232.5781" y2="235.3533">
				<stop  offset="0" style="stop-color:#167E3D"/>
				<stop  offset="1" style="stop-color:#084823"/>
			</linearGradient>
			<use xlink:href="#SVGID_19_"  overflow="visible" fill="url(#SVGID_20_)"/>
			<clipPath id="SVGID_21_">
				<use xlink:href="#SVGID_19_"  overflow="visible"/>
			</clipPath>
		</g>
		<g>
			<defs>
				<path id="SVGID_22_" d="M229.6,108.1c-15.4,7-23.5,16-31,27.9c-7.5,11.9-10.7,26.4-10.7,37.9v31.8c0,1.3,0.8,2.6,2.5,3.5
					c0.9,0.5,1.9,0.9,3,1.1c1,0.2,2,0.3,3,0.3h0c2.2,0,4.5-0.5,6.2-1.5c1.7-1,2.6-2.3,2.5-3.6c0,0,0-0.1,0-0.1v-41.6
					c0-6.7,2.7-14.4,7.1-21.4c4.4-7,10.5-13.2,17.2-17.1c5.8-3.3,11.1-4.4,15.3-3.4h0c2.3,0.5,4.2,1.6,5.7,3.3
					c2.1,2.4,3.4,5.9,3.4,10.4v31.8c0,1.3,0.8,2.6,2.5,3.5c0.9,0.5,1.9,0.9,3,1.1c1,0.2,2,0.3,3,0.3c2.3,0,4.5-0.5,6.3-1.5
					c1.7-1,2.6-2.3,2.5-3.6h0v-33.8c0-8.9-4.5-16.3-11.1-21.2c-5.6-4.2-12.8-6.7-19.7-6.7C236.7,105.8,233,106.5,229.6,108.1"/>
			</defs>
			<linearGradient id="SVGID_23_" gradientUnits="userSpaceOnUse" x1="187.8799" y1="158.1932" x2="271.2928" y2="158.1932">
				<stop  offset="0" style="stop-color:#6E788C"/>
				<stop  offset="1" style="stop-color:#C8C8C8"/>
			</linearGradient>
			<use xlink:href="#SVGID_22_"  overflow="visible" fill="url(#SVGID_23_)"/>
			<clipPath id="SVGID_24_">
				<use xlink:href="#SVGID_22_"  overflow="visible"/>
			</clipPath>
		</g>
		<g>
			<defs>
				<path id="SVGID_25_" d="M250.6,125.3c2.1,2.4,3.4,5.9,3.4,10.4v31.8c0,1.3,0.8,2.6,2.5,3.5v-37c0-6.5-5.1-11.8-11.6-12.1
					C247.2,122.5,249.1,123.6,250.6,125.3"/>
			</defs>
			<linearGradient id="SVGID_26_" gradientUnits="userSpaceOnUse" x1="250.7035" y1="116.9948" x2="250.7035" y2="160.4149">
				<stop  offset="0" style="stop-color:#6E788C"/>
				<stop  offset="1" style="stop-color:#C8C8C8"/>
			</linearGradient>
			<use xlink:href="#SVGID_25_"  overflow="visible" fill="url(#SVGID_26_)"/>
			<clipPath id="SVGID_27_">
				<use xlink:href="#SVGID_25_"  overflow="visible"/>
			</clipPath>
		</g>
	</g>
</g>
</svg>
