<?xml version="1.0" encoding="utf-8"?>
<!-- Generator: Adobe Illustrator 19.2.0, SVG Export Plug-In . SVG Version: 6.00 Build 0)  -->
<svg version="1.1" id="Ebene_1" xmlns="http://www.w3.org/2000/svg" xmlns:xlink="http://www.w3.org/1999/xlink" x="0px" y="0px"
	 width="81px" height="81px" viewBox="0 0 81 81" style="enable-background:new 0 0 81 81;" xml:space="preserve">
<style type="text/css">
	.st0{fill:#004C92;}
	.st1{fill:#79B641;}
</style>
<path class="st0" d="M40.5,81C18.2,81,0,62.8,0,40.5C0,18.2,18.2,0,40.5,0C62.8,0,81,18.2,81,40.5C81,62.8,62.8,81,40.5,81z M40.5,2
	C19.3,2,2,19.3,2,40.5C2,61.7,19.3,79,40.5,79C61.7,79,79,61.7,79,40.5C79,19.3,61.7,2,40.5,2z"/>
<path class="st1" d="M32.1,64.2c-0.1,0-0.3,0-0.4-0.1c-0.4-0.2-0.6-0.5-0.6-0.9V17.8c0-0.4,0.2-0.8,0.6-0.9c0.4-0.2,0.8-0.1,1.1,0.2
	l22.7,22.7c0.2,0.2,0.3,0.4,0.3,0.7s-0.1,0.5-0.3,0.7L32.8,63.9C32.6,64.1,32.3,64.2,32.1,64.2z M33.1,20.2v40.5l20.3-20.3
	L33.1,20.2z"/>
</svg>
