<?xml version="1.0" encoding="utf-8"?>
<!-- Generator: Adobe Illustrator 22.0.0, SVG Export Plug-In . SVG Version: 6.00 Build 0)  -->
<svg version="1.0" id="Ebene_1" xmlns="http://www.w3.org/2000/svg" xmlns:xlink="http://www.w3.org/1999/xlink" x="0px" y="0px"
	 width="200px" height="auto" viewBox="0 0 300 361.2" enable-background="new 0 0 300 361.2" xml:space="preserve">
<g>
	<g>
		<defs>
			<path id="SVGID_1_" d="M256.3,275.6c-1.4,0.8-2.7,1.8-3.9,2.8c-0.1,0.1-0.3,0.3-0.4,0.4c-3.8,3.5-3.8,8.2-2.6,12.6
				c2.3,8.1,8.8,14.3,16.9,16.4c5.7,1.5,13.1,2,21.3-1.4c3.7-1.5,6.1-3.5,7.4-5.8c5.2-8.8-4.8-21.6-12.1-25.5l-0.3-0.2
				c-4-2.1-8.3-3.1-12.7-3.1C265.1,271.8,260.4,273.1,256.3,275.6"/>
		</defs>
		<linearGradient id="SVGID_2_" gradientUnits="userSpaceOnUse" x1="248.6132" y1="290.3651" x2="296.4731" y2="290.3651">
			<stop  offset="0" style="stop-color:#6ECA44"/>
			<stop  offset="1" style="stop-color:#86D776"/>
		</linearGradient>
		<use xlink:href="#SVGID_1_"  overflow="visible" fill="url(#SVGID_2_)"/>
		<clipPath id="SVGID_3_">
			<use xlink:href="#SVGID_1_"  overflow="visible"/>
		</clipPath>
	</g>
	<g>
		<defs>
			<path id="SVGID_4_" d="M293.8,294.9v15.8c0,0.5,0.4,0.9,0.9,0.9c0.5,0,0.9-0.4,0.9-0.9v-15.8c0-0.5-0.4-0.9-0.9-0.9
				C294.2,294.1,293.8,294.5,293.8,294.9"/>
		</defs>
		<linearGradient id="SVGID_5_" gradientUnits="userSpaceOnUse" x1="293.7654" y1="302.8666" x2="295.5135" y2="302.8666">
			<stop  offset="0" style="stop-color:#003366"/>
			<stop  offset="1" style="stop-color:#0066BA"/>
		</linearGradient>
		<use xlink:href="#SVGID_4_"  overflow="visible" fill="url(#SVGID_5_)"/>
		<clipPath id="SVGID_6_">
			<use xlink:href="#SVGID_4_"  overflow="visible"/>
		</clipPath>
	</g>
	<g>
		<defs>
			<path id="SVGID_7_" d="M282.4,297c0,4.9,3.9,8.8,8.8,8.8c4.9,0,8.8-3.9,8.8-8.8s-3.9-8.8-8.8-8.8
				C286.4,288.2,282.4,292.1,282.4,297"/>
		</defs>
		<linearGradient id="SVGID_8_" gradientUnits="userSpaceOnUse" x1="282.4295" y1="296.9811" x2="299.9999" y2="296.9811">
			<stop  offset="0" style="stop-color:#167E3D"/>
			<stop  offset="1" style="stop-color:#084823"/>
		</linearGradient>
		<use xlink:href="#SVGID_7_"  overflow="visible" fill="url(#SVGID_8_)"/>
		<clipPath id="SVGID_9_">
			<use xlink:href="#SVGID_7_"  overflow="visible"/>
		</clipPath>
	</g>
	<g>
		<defs>
			<path id="SVGID_10_" d="M271.3,302.1l-10.4,5.1c-0.3,0.1-0.5,0.5-0.5,0.8v9.2c0,0.5,0.4,0.9,0.9,0.9c0.5,0,0.9-0.4,0.9-0.9v-8.7
				l9.9-4.8c0.4-0.2,0.6-0.7,0.4-1.2c-0.2-0.3-0.5-0.5-0.8-0.5C271.5,302,271.4,302,271.3,302.1"/>
		</defs>
		<linearGradient id="SVGID_11_" gradientUnits="userSpaceOnUse" x1="268.9729" y1="302.7868" x2="257.4128" y2="317.3813">
			<stop  offset="0" style="stop-color:#003366"/>
			<stop  offset="1" style="stop-color:#0066BA"/>
		</linearGradient>
		<use xlink:href="#SVGID_10_"  overflow="visible" fill="url(#SVGID_11_)"/>
		<clipPath id="SVGID_12_">
			<use xlink:href="#SVGID_10_"  overflow="visible"/>
		</clipPath>
	</g>
	<g>
		<defs>
			<path id="SVGID_13_" d="M260,297.6l-7.9,3.8c-0.3,0.1-0.5,0.5-0.5,0.8v10.8c0,0.5,0.4,0.9,0.9,0.9c0.5,0,0.9-0.4,0.9-0.9v-10.3
				l7.4-3.6c0.4-0.2,0.6-0.7,0.4-1.2c-0.2-0.3-0.5-0.5-0.8-0.5C260.3,297.6,260.1,297.6,260,297.6"/>
		</defs>
		<linearGradient id="SVGID_14_" gradientUnits="userSpaceOnUse" x1="260.8809" y1="297.1163" x2="249.3208" y2="311.7108">
			<stop  offset="0" style="stop-color:#003366"/>
			<stop  offset="1" style="stop-color:#0066BA"/>
		</linearGradient>
		<use xlink:href="#SVGID_13_"  overflow="visible" fill="url(#SVGID_14_)"/>
		<clipPath id="SVGID_15_">
			<use xlink:href="#SVGID_13_"  overflow="visible"/>
		</clipPath>
	</g>
	<g>
		<defs>
			<path id="SVGID_16_" d="M253,290.2l-7.9,3.8c-0.3,0.1-0.5,0.5-0.5,0.8v14.3c0,0.5,0.4,0.9,0.9,0.9c0.5,0,0.9-0.4,0.9-0.9v-13.7
				l7.4-3.6c0.4-0.2,0.6-0.7,0.4-1.2c-0.2-0.3-0.5-0.5-0.8-0.5C253.3,290.1,253.2,290.2,253,290.2"/>
		</defs>
		<linearGradient id="SVGID_17_" gradientUnits="userSpaceOnUse" x1="253.897" y1="291.4387" x2="242.3369" y2="306.0333">
			<stop  offset="0" style="stop-color:#003366"/>
			<stop  offset="1" style="stop-color:#0066BA"/>
		</linearGradient>
		<use xlink:href="#SVGID_16_"  overflow="visible" fill="url(#SVGID_17_)"/>
		<clipPath id="SVGID_18_">
			<use xlink:href="#SVGID_16_"  overflow="visible"/>
		</clipPath>
	</g>
	<g>
		<g>
			<defs>
				<path id="SVGID_19_" d="M200.1,313.1c1.1,0.6,2.1,1.4,3.1,2.2c0.1,0.1,0.2,0.2,0.3,0.3c3,2.8,3,6.5,2.1,9.9
					c-1.8,6.4-6.9,11.2-13.3,12.9c-4.5,1.2-10.3,1.6-16.8-1.1c-2.9-1.2-4.8-2.8-5.8-4.5c-4.1-6.9,3.8-17,9.6-20.1l0.3-0.1
					c3.1-1.7,6.6-2.5,10-2.5C193.2,310.1,196.9,311.1,200.1,313.1"/>
			</defs>

				<linearGradient id="SVGID_20_" gradientUnits="userSpaceOnUse" x1="532.61" y1="324.7539" x2="570.2828" y2="324.7539" gradientTransform="matrix(-1 0 0 1 738.7804 0)">
				<stop  offset="0" style="stop-color:#6ECA44"/>
				<stop  offset="1" style="stop-color:#86D776"/>
			</linearGradient>
			<use xlink:href="#SVGID_19_"  overflow="visible" fill="url(#SVGID_20_)"/>
			<clipPath id="SVGID_21_">
				<use xlink:href="#SVGID_19_"  overflow="visible"/>
			</clipPath>
		</g>
		<g>
			<defs>
				<path id="SVGID_22_" d="M170.6,328.4v12.5c0,0.4-0.3,0.7-0.7,0.7c-0.4,0-0.7-0.3-0.7-0.7v-12.5c0-0.4,0.3-0.7,0.7-0.7
					C170.3,327.7,170.6,328,170.6,328.4"/>
			</defs>

				<linearGradient id="SVGID_23_" gradientUnits="userSpaceOnUse" x1="568.1514" y1="334.5944" x2="569.5274" y2="334.5944" gradientTransform="matrix(-1 0 0 1 738.7804 0)">
				<stop  offset="0" style="stop-color:#003366"/>
				<stop  offset="1" style="stop-color:#0066BA"/>
			</linearGradient>
			<use xlink:href="#SVGID_22_"  overflow="visible" fill="url(#SVGID_23_)"/>
			<clipPath id="SVGID_24_">
				<use xlink:href="#SVGID_22_"  overflow="visible"/>
			</clipPath>
		</g>
		<g>
			<defs>
				<path id="SVGID_25_" d="M179.6,330c0,3.8-3.1,6.9-6.9,6.9c-3.8,0-6.9-3.1-6.9-6.9s3.1-6.9,6.9-6.9
					C176.5,323,179.6,326.1,179.6,330"/>
			</defs>

				<linearGradient id="SVGID_26_" gradientUnits="userSpaceOnUse" x1="559.2284" y1="329.9617" x2="573.0589" y2="329.9617" gradientTransform="matrix(-1 0 0 1 738.7804 0)">
				<stop  offset="0" style="stop-color:#167E3D"/>
				<stop  offset="1" style="stop-color:#084823"/>
			</linearGradient>
			<use xlink:href="#SVGID_25_"  overflow="visible" fill="url(#SVGID_26_)"/>
			<clipPath id="SVGID_27_">
				<use xlink:href="#SVGID_25_"  overflow="visible"/>
			</clipPath>
		</g>
		<g>
			<defs>
				<path id="SVGID_28_" d="M188.3,334l8.2,4c0.2,0.1,0.4,0.4,0.4,0.6v7.3c0,0.4-0.3,0.7-0.7,0.7c-0.4,0-0.7-0.3-0.7-0.7V339
					l-7.8-3.8c-0.3-0.2-0.5-0.6-0.3-0.9c0.1-0.2,0.4-0.4,0.6-0.4C188.1,333.9,188.2,333.9,188.3,334"/>
			</defs>

				<linearGradient id="SVGID_29_" gradientUnits="userSpaceOnUse" x1="548.636" y1="334.5316" x2="539.5366" y2="346.0197" gradientTransform="matrix(-1 0 0 1 738.7804 0)">
				<stop  offset="0" style="stop-color:#003366"/>
				<stop  offset="1" style="stop-color:#0066BA"/>
			</linearGradient>
			<use xlink:href="#SVGID_28_"  overflow="visible" fill="url(#SVGID_29_)"/>
			<clipPath id="SVGID_30_">
				<use xlink:href="#SVGID_28_"  overflow="visible"/>
			</clipPath>
		</g>
		<g>
			<defs>
				<path id="SVGID_31_" d="M197.2,330.5l6.2,3c0.2,0.1,0.4,0.4,0.4,0.6v8.5c0,0.4-0.3,0.7-0.7,0.7c-0.4,0-0.7-0.3-0.7-0.7v-8.1
					l-5.8-2.8c-0.3-0.2-0.5-0.6-0.3-0.9c0.1-0.2,0.4-0.4,0.6-0.4C197,330.4,197.1,330.4,197.2,330.5"/>
			</defs>

				<linearGradient id="SVGID_32_" gradientUnits="userSpaceOnUse" x1="542.2665" y1="330.0681" x2="533.167" y2="341.5562" gradientTransform="matrix(-1 0 0 1 738.7804 0)">
				<stop  offset="0" style="stop-color:#003366"/>
				<stop  offset="1" style="stop-color:#0066BA"/>
			</linearGradient>
			<use xlink:href="#SVGID_31_"  overflow="visible" fill="url(#SVGID_32_)"/>
			<clipPath id="SVGID_33_">
				<use xlink:href="#SVGID_31_"  overflow="visible"/>
			</clipPath>
		</g>
		<g>
			<defs>
				<path id="SVGID_34_" d="M202.7,324.7l6.2,3c0.2,0.1,0.4,0.4,0.4,0.6v11.2c0,0.4-0.3,0.7-0.7,0.7c-0.4,0-0.7-0.3-0.7-0.7v-10.8
					l-5.8-2.8c-0.3-0.2-0.5-0.6-0.3-0.9c0.1-0.2,0.4-0.4,0.6-0.4C202.5,324.6,202.6,324.6,202.7,324.7"/>
			</defs>

				<linearGradient id="SVGID_35_" gradientUnits="userSpaceOnUse" x1="536.7691" y1="325.599" x2="527.6697" y2="337.0871" gradientTransform="matrix(-1 0 0 1 738.7804 0)">
				<stop  offset="0" style="stop-color:#003366"/>
				<stop  offset="1" style="stop-color:#0066BA"/>
			</linearGradient>
			<use xlink:href="#SVGID_34_"  overflow="visible" fill="url(#SVGID_35_)"/>
			<clipPath id="SVGID_36_">
				<use xlink:href="#SVGID_34_"  overflow="visible"/>
			</clipPath>
		</g>
	</g>
	<linearGradient id="SVGID_37_" gradientUnits="userSpaceOnUse" x1="115.1857" y1="174.0489" x2="322.5012" y2="289.1589">
		<stop  offset="0" style="stop-color:#003366"/>
		<stop  offset="1" style="stop-color:#0066BA"/>
	</linearGradient>
	<path fill="url(#SVGID_37_)" d="M0,146.1l0.5,167.7c0,10.5,3.7,17.8,9.7,21.3l41.2,23.9c-0.2-0.1-0.3-0.2-0.5-0.3
		c6.1,3.8,14.6,3.5,24.1-2l145.9-84.2c18.3-10.6,33.1-36.2,33.1-57.3l-0.5-167.7c0-10.5-3.7-17.9-9.7-21.3c0,0,0,0,0.1,0L202.6,2.2
		c-6-3.5-14.4-3-23.6,2.3L33.1,88.8C14.7,99.4-0.1,125,0,146.1z"/>
	<g enable-background="new    ">
		<g>
			<linearGradient id="SVGID_38_" gradientUnits="userSpaceOnUse" x1="248.8167" y1="-3.8888" x2="116.0878" y2="64.2375">
				<stop  offset="0" style="stop-color:#003366"/>
				<stop  offset="1" style="stop-color:#0066BA"/>
			</linearGradient>
			<path fill="url(#SVGID_38_)" d="M202.6,2.2c-6-3.5-14.4-3-23.6,2.3l41.2,23.9c9.2-5.3,17.6-5.8,23.6-2.3L202.6,2.2z"/>
			<linearGradient id="SVGID_39_" gradientUnits="userSpaceOnUse" x1="248.737" y1="-4.0442" x2="116.008" y2="64.0821">
				<stop  offset="0" style="stop-color:#003366"/>
				<stop  offset="1" style="stop-color:#0066BA"/>
			</linearGradient>
			<polygon fill="url(#SVGID_39_)" points="33.1,88.8 74.2,112.7 220.2,28.5 179,4.5 			"/>
		</g>
		<g>
			<linearGradient id="SVGID_40_" gradientUnits="userSpaceOnUse" x1="25.9055" y1="342.2331" x2="25.9055" y2="146.6202">
				<stop  offset="0" style="stop-color:#003366"/>
				<stop  offset="1" style="stop-color:#0066BA"/>
			</linearGradient>
			<path fill="url(#SVGID_40_)" d="M10.2,335l41.2,23.9c-6-3.5-9.6-10.8-9.7-21.3L0.5,313.7C0.5,324.2,4.2,331.5,10.2,335z"/>
			<linearGradient id="SVGID_41_" gradientUnits="userSpaceOnUse" x1="37.121" y1="342.2331" x2="37.121" y2="146.6202">
				<stop  offset="0" style="stop-color:#003366"/>
				<stop  offset="1" style="stop-color:#0066BA"/>
			</linearGradient>
			<path fill="url(#SVGID_41_)" d="M74.2,112.7L33.1,88.8C14.7,99.4-0.1,125,0,146.1v0l0.5,167.7l41.2,23.9L41.2,170
				C41.1,148.9,55.9,123.3,74.2,112.7z"/>
		</g>
	</g>
	<path fill="#FFFFFF" d="M205,170.8l-87.1-14.8v104.4C117.9,257.9,205,170.8,205,170.8z"/>
	<g>
		<defs>
			<path id="SVGID_42_" d="M103,337.2c0.8,0.5,1.5,1,2.2,1.6c0.1,0.1,0.2,0.1,0.2,0.2c2.1,2,2.2,4.6,1.5,7.1c-1.3,4.6-5,8-9.5,9.2
				c-3.2,0.8-7.4,1.1-12-0.8c-2.1-0.8-3.4-2-4.2-3.3c-3-5,2.7-12.2,6.8-14.4l0.2-0.1c2.2-1.2,4.7-1.8,7.1-1.8
				C98,335.1,100.6,335.8,103,337.2"/>
		</defs>

			<linearGradient id="SVGID_43_" gradientUnits="userSpaceOnUse" x1="-253.7051" y1="345.5779" x2="-226.7448" y2="345.5779" gradientTransform="matrix(-1 0 0 1 -146.4409 0)">
			<stop  offset="0" style="stop-color:#6E788C"/>
			<stop  offset="1" style="stop-color:#C8C8C8"/>
		</linearGradient>
		<use xlink:href="#SVGID_42_"  overflow="visible" fill="url(#SVGID_43_)"/>
		<clipPath id="SVGID_44_">
			<use xlink:href="#SVGID_42_"  overflow="visible"/>
		</clipPath>
	</g>
	<g>
		<defs>
			<path id="SVGID_45_" d="M81.8,348.2v8.9c0,0.3-0.2,0.5-0.5,0.5c-0.3,0-0.5-0.2-0.5-0.5v-8.9c0-0.3,0.2-0.5,0.5-0.5
				C81.6,347.7,81.8,347.9,81.8,348.2"/>
		</defs>

			<linearGradient id="SVGID_46_" gradientUnits="userSpaceOnUse" x1="-228.27" y1="352.6202" x2="-227.2853" y2="352.6202" gradientTransform="matrix(-1 0 0 1 -146.4409 0)">
			<stop  offset="0" style="stop-color:#003366"/>
			<stop  offset="1" style="stop-color:#0066BA"/>
		</linearGradient>
		<use xlink:href="#SVGID_45_"  overflow="visible" fill="url(#SVGID_46_)"/>
		<clipPath id="SVGID_47_">
			<use xlink:href="#SVGID_45_"  overflow="visible"/>
		</clipPath>
	</g>
	<g>
		<defs>
			<path id="SVGID_48_" d="M88.2,349.3c0,2.7-2.2,4.9-4.9,4.9c-2.7,0-4.9-2.2-4.9-4.9c0-2.7,2.2-4.9,4.9-4.9
				C86,344.4,88.2,346.6,88.2,349.3"/>
		</defs>

			<linearGradient id="SVGID_49_" gradientUnits="userSpaceOnUse" x1="-234.6558" y1="349.3048" x2="-224.7581" y2="349.3048" gradientTransform="matrix(-1 0 0 1 -146.4409 0)">
			<stop  offset="0" style="stop-color:#6E788C"/>
			<stop  offset="1" style="stop-color:#C8C8C8"/>
		</linearGradient>
		<use xlink:href="#SVGID_48_"  overflow="visible" fill="url(#SVGID_49_)"/>
		<clipPath id="SVGID_50_">
			<use xlink:href="#SVGID_48_"  overflow="visible"/>
		</clipPath>
	</g>
	<g>
		<defs>
			<path id="SVGID_51_" d="M94.5,352.2l5.9,2.9c0.2,0.1,0.3,0.3,0.3,0.4v5.2c0,0.3-0.2,0.5-0.5,0.5c-0.3,0-0.5-0.2-0.5-0.5v-4.9
				l-5.6-2.7c-0.2-0.1-0.3-0.4-0.2-0.7c0.1-0.2,0.3-0.3,0.4-0.3C94.3,352.1,94.4,352.1,94.5,352.2"/>
		</defs>

			<linearGradient id="SVGID_52_" gradientUnits="userSpaceOnUse" x1="-242.2361" y1="352.5753" x2="-248.7481" y2="360.7966" gradientTransform="matrix(-1 0 0 1 -146.4409 0)">
			<stop  offset="0" style="stop-color:#003366"/>
			<stop  offset="1" style="stop-color:#0066BA"/>
		</linearGradient>
		<use xlink:href="#SVGID_51_"  overflow="visible" fill="url(#SVGID_52_)"/>
		<clipPath id="SVGID_53_">
			<use xlink:href="#SVGID_51_"  overflow="visible"/>
		</clipPath>
	</g>
	<g>
		<defs>
			<path id="SVGID_54_" d="M100.8,349.7l4.4,2.2c0.2,0.1,0.3,0.3,0.3,0.4v6.1c0,0.3-0.2,0.5-0.5,0.5c-0.3,0-0.5-0.2-0.5-0.5v-5.8
				l-4.2-2c-0.2-0.1-0.3-0.4-0.2-0.7c0.1-0.2,0.3-0.3,0.4-0.3C100.7,349.6,100.8,349.6,100.8,349.7"/>
		</defs>

			<linearGradient id="SVGID_55_" gradientUnits="userSpaceOnUse" x1="-246.7945" y1="349.381" x2="-253.3064" y2="357.6024" gradientTransform="matrix(-1 0 0 1 -146.4409 0)">
			<stop  offset="0" style="stop-color:#003366"/>
			<stop  offset="1" style="stop-color:#0066BA"/>
		</linearGradient>
		<use xlink:href="#SVGID_54_"  overflow="visible" fill="url(#SVGID_55_)"/>
		<clipPath id="SVGID_56_">
			<use xlink:href="#SVGID_54_"  overflow="visible"/>
		</clipPath>
	</g>
	<g>
		<defs>
			<path id="SVGID_57_" d="M104.8,345.5l4.4,2.2c0.2,0.1,0.3,0.3,0.3,0.4v8c0,0.3-0.2,0.5-0.5,0.5c-0.3,0-0.5-0.2-0.5-0.5v-7.7
				l-4.2-2c-0.2-0.1-0.3-0.4-0.2-0.7c0.1-0.2,0.3-0.3,0.4-0.3C104.6,345.5,104.7,345.5,104.8,345.5"/>
		</defs>

			<linearGradient id="SVGID_58_" gradientUnits="userSpaceOnUse" x1="-250.7286" y1="346.1827" x2="-257.2406" y2="354.4041" gradientTransform="matrix(-1 0 0 1 -146.4409 0)">
			<stop  offset="0" style="stop-color:#003366"/>
			<stop  offset="1" style="stop-color:#0066BA"/>
		</linearGradient>
		<use xlink:href="#SVGID_57_"  overflow="visible" fill="url(#SVGID_58_)"/>
		<clipPath id="SVGID_59_">
			<use xlink:href="#SVGID_57_"  overflow="visible"/>
		</clipPath>
	</g>
</g>
</svg>
