<?xml version="1.0" encoding="utf-8"?>
<!-- Generator: Adobe Illustrator 22.0.0, SVG Export Plug-In . SVG Version: 6.00 Build 0)  -->
<svg version="1.0" id="Ebene_1" xmlns="http://www.w3.org/2000/svg" xmlns:xlink="http://www.w3.org/1999/xlink" x="0px" y="0px"
	 viewBox="0 0 350 320" enable-background="new 0 0 350 320" xml:space="preserve">
<g>
	<g>
		<defs>
			<path id="SVGID_1_" d="M296.1,203.5l-79.2,45.7c-2.9,1.7-6.7,2.5-10.5,2.6v11.1c3.8,0,7.6-0.9,10.5-2.6l79.2-45.7
				c3-1.7,4.5-4,4.5-6.2V198l-0.1,0C300.2,200,298.7,201.9,296.1,203.5"/>
		</defs>
		<linearGradient id="SVGID_2_" gradientUnits="userSpaceOnUse" x1="206.3982" y1="230.4045" x2="300.5271" y2="230.4045">
			<stop  offset="0" style="stop-color:#6E788C"/>
			<stop  offset="1" style="stop-color:#C8C8C8"/>
		</linearGradient>
		<use xlink:href="#SVGID_1_"  overflow="visible" fill="url(#SVGID_2_)"/>
		<clipPath id="SVGID_3_">
			<use xlink:href="#SVGID_1_"  overflow="visible"/>
		</clipPath>
	</g>
	<g>
		<defs>
			<path id="SVGID_4_" d="M26.3,159.6L26.3,159.6c0.3,2,1.8,4,4.5,5.6l164.6,95c3.1,1.8,7.1,2.6,11.1,2.6v-11.1c-4,0-8-0.8-11.1-2.6
				l-164.6-95c-2.7-1.6-4.2-3.6-4.4-5.6l0,0V159.6z"/>
		</defs>
		<linearGradient id="SVGID_5_" gradientUnits="userSpaceOnUse" x1="26.2891" y1="205.7011" x2="206.3982" y2="205.7011">
			<stop  offset="0" style="stop-color:#6E788C"/>
			<stop  offset="1" style="stop-color:#C8C8C8"/>
		</linearGradient>
		<use xlink:href="#SVGID_4_"  overflow="visible" fill="url(#SVGID_5_)"/>
		<clipPath id="SVGID_6_">
			<use xlink:href="#SVGID_4_"  overflow="visible"/>
		</clipPath>
	</g>
	<g>
		<defs>
			<path id="SVGID_7_" d="M109.9,96l-79.2,45.7c-3.2,1.9-4.7,4.4-4.4,6.8c0.2,2,1.7,4,4.4,5.6l164.6,95c3.1,1.8,7.1,2.6,11.1,2.6
				c3.8,0,7.6-0.9,10.5-2.6l79.2-45.7c2.7-1.5,4.1-3.5,4.4-5.5c0.4-2.5-1.1-5-4.4-6.9L131.5,96c-3-1.7-6.9-2.6-10.8-2.6
				C116.8,93.4,112.9,94.3,109.9,96"/>
		</defs>
		<linearGradient id="SVGID_8_" gradientUnits="userSpaceOnUse" x1="26.2897" y1="172.6096" x2="300.5267" y2="172.6096">
			<stop  offset="0" style="stop-color:#6E788C"/>
			<stop  offset="1" style="stop-color:#C8C8C8"/>
		</linearGradient>
		<use xlink:href="#SVGID_7_"  overflow="visible" fill="url(#SVGID_8_)"/>
		<clipPath id="SVGID_9_">
			<use xlink:href="#SVGID_7_"  overflow="visible"/>
		</clipPath>
	</g>
	<g>
		<defs>
			<polygon id="SVGID_10_" points="43.9,151.9 182.2,231.7 268.2,182 129.9,102.2 			"/>
		</defs>
		<linearGradient id="SVGID_11_" gradientUnits="userSpaceOnUse" x1="43.9122" y1="166.9643" x2="268.1712" y2="166.9643">
			<stop  offset="0" style="stop-color:#003366"/>
			<stop  offset="1" style="stop-color:#006CC4"/>
		</linearGradient>
		<use xlink:href="#SVGID_10_"  overflow="visible" fill="url(#SVGID_11_)"/>
		<clipPath id="SVGID_12_">
			<use xlink:href="#SVGID_10_"  overflow="visible"/>
		</clipPath>
	</g>
	<g>
		<defs>
			<path id="SVGID_13_" d="M242.8,207.7l-12.5,7.2c-2.9,1.7-2.9,4.4,0,6.1c2.9,1.7,7.6,1.7,10.5,0l12.5-7.2c2.9-1.7,2.9-4.4,0-6.1
				c-1.5-0.8-3.4-1.3-5.3-1.3C246.2,206.5,244.3,206.9,242.8,207.7"/>
		</defs>
		<linearGradient id="SVGID_14_" gradientUnits="userSpaceOnUse" x1="228.1726" y1="214.386" x2="255.5552" y2="214.386">
			<stop  offset="0" style="stop-color:#003366"/>
			<stop  offset="1" style="stop-color:#006CC4"/>
		</linearGradient>
		<use xlink:href="#SVGID_13_"  overflow="visible" fill="url(#SVGID_14_)"/>
		<clipPath id="SVGID_15_">
			<use xlink:href="#SVGID_13_"  overflow="visible"/>
		</clipPath>
	</g>
	<g>
		<defs>
			<path id="SVGID_16_" d="M123.9,240.3c0.7,0.4,1.3,0.8,1.9,1.4c0.1,0.1,0.1,0.1,0.2,0.2c1.8,1.7,1.8,4,1.3,6
				c-1.1,3.9-4.2,6.9-8.1,7.9c-2.7,0.7-6.3,0.9-10.3-0.7c-1.8-0.7-2.9-1.7-3.6-2.8c-2.5-4.2,2.3-10.4,5.8-12.3l0.2-0.1
				c1.9-1,4-1.5,6.1-1.5C119.6,238.5,121.9,239.1,123.9,240.3"/>
		</defs>
		
			<linearGradient id="SVGID_17_" gradientUnits="userSpaceOnUse" x1="-221.9781" y1="247.3967" x2="-198.9738" y2="247.3967" gradientTransform="matrix(-1 0 0 1 -94.4408 0)">
			<stop  offset="0" style="stop-color:#6E788C"/>
			<stop  offset="1" style="stop-color:#C8C8C8"/>
		</linearGradient>
		<use xlink:href="#SVGID_16_"  overflow="visible" fill="url(#SVGID_17_)"/>
		<clipPath id="SVGID_18_">
			<use xlink:href="#SVGID_16_"  overflow="visible"/>
		</clipPath>
	</g>
	<g>
		<defs>
			<path id="SVGID_19_" d="M105.8,249.6v7.6c0,0.2-0.2,0.4-0.4,0.4c-0.2,0-0.4-0.2-0.4-0.4v-7.6c0-0.2,0.2-0.4,0.4-0.4
				C105.6,249.2,105.8,249.4,105.8,249.6"/>
		</defs>
		
			<linearGradient id="SVGID_20_" gradientUnits="userSpaceOnUse" x1="-200.2752" y1="253.4057" x2="-199.435" y2="253.4057" gradientTransform="matrix(-1 0 0 1 -94.4408 0)">
			<stop  offset="0" style="stop-color:#003366"/>
			<stop  offset="1" style="stop-color:#0066BA"/>
		</linearGradient>
		<use xlink:href="#SVGID_19_"  overflow="visible" fill="url(#SVGID_20_)"/>
		<clipPath id="SVGID_21_">
			<use xlink:href="#SVGID_19_"  overflow="visible"/>
		</clipPath>
	</g>
	<g>
		<defs>
			<path id="SVGID_22_" d="M111.3,250.6c0,2.3-1.9,4.2-4.2,4.2c-2.3,0-4.2-1.9-4.2-4.2c0-2.3,1.9-4.2,4.2-4.2
				C109.4,246.4,111.3,248.2,111.3,250.6"/>
		</defs>
		
			<linearGradient id="SVGID_23_" gradientUnits="userSpaceOnUse" x1="-205.724" y1="250.5768" x2="-197.2786" y2="250.5768" gradientTransform="matrix(-1 0 0 1 -94.4408 0)">
			<stop  offset="0" style="stop-color:#6E788C"/>
			<stop  offset="1" style="stop-color:#C8C8C8"/>
		</linearGradient>
		<use xlink:href="#SVGID_22_"  overflow="visible" fill="url(#SVGID_23_)"/>
		<clipPath id="SVGID_24_">
			<use xlink:href="#SVGID_22_"  overflow="visible"/>
		</clipPath>
	</g>
	<g>
		<defs>
			<path id="SVGID_25_" d="M116.6,253l5,2.4c0.1,0.1,0.2,0.2,0.2,0.4v4.4c0,0.2-0.2,0.4-0.4,0.4c-0.2,0-0.4-0.2-0.4-0.4v-4.2
				l-4.8-2.3c-0.2-0.1-0.3-0.4-0.2-0.6c0.1-0.1,0.2-0.2,0.4-0.2C116.5,253,116.6,253,116.6,253"/>
		</defs>
		
			<linearGradient id="SVGID_26_" gradientUnits="userSpaceOnUse" x1="-212.192" y1="253.3673" x2="-217.7485" y2="260.3823" gradientTransform="matrix(-1 0 0 1 -94.4408 0)">
			<stop  offset="0" style="stop-color:#003366"/>
			<stop  offset="1" style="stop-color:#0066BA"/>
		</linearGradient>
		<use xlink:href="#SVGID_25_"  overflow="visible" fill="url(#SVGID_26_)"/>
		<clipPath id="SVGID_27_">
			<use xlink:href="#SVGID_25_"  overflow="visible"/>
		</clipPath>
	</g>
	<g>
		<defs>
			<path id="SVGID_28_" d="M122.1,250.9l3.8,1.8c0.1,0.1,0.2,0.2,0.2,0.4v5.2c0,0.2-0.2,0.4-0.4,0.4c-0.2,0-0.4-0.2-0.4-0.4v-4.9
				l-3.6-1.7c-0.2-0.1-0.3-0.4-0.2-0.6c0.1-0.1,0.2-0.2,0.4-0.2C121.9,250.9,122,250.9,122.1,250.9"/>
		</defs>
		
			<linearGradient id="SVGID_29_" gradientUnits="userSpaceOnUse" x1="-216.0815" y1="250.6418" x2="-221.638" y2="257.6568" gradientTransform="matrix(-1 0 0 1 -94.4408 0)">
			<stop  offset="0" style="stop-color:#003366"/>
			<stop  offset="1" style="stop-color:#0066BA"/>
		</linearGradient>
		<use xlink:href="#SVGID_28_"  overflow="visible" fill="url(#SVGID_29_)"/>
		<clipPath id="SVGID_30_">
			<use xlink:href="#SVGID_28_"  overflow="visible"/>
		</clipPath>
	</g>
	<g>
		<defs>
			<path id="SVGID_31_" d="M125.4,247.3l3.8,1.8c0.1,0.1,0.2,0.2,0.2,0.4v6.9c0,0.2-0.2,0.4-0.4,0.4c-0.2,0-0.4-0.2-0.4-0.4v-6.6
				l-3.6-1.7c-0.2-0.1-0.3-0.4-0.2-0.6c0.1-0.1,0.2-0.2,0.4-0.2C125.3,247.3,125.4,247.3,125.4,247.3"/>
		</defs>
		
			<linearGradient id="SVGID_32_" gradientUnits="userSpaceOnUse" x1="-219.4384" y1="247.9128" x2="-224.9948" y2="254.9278" gradientTransform="matrix(-1 0 0 1 -94.4408 0)">
			<stop  offset="0" style="stop-color:#003366"/>
			<stop  offset="1" style="stop-color:#0066BA"/>
		</linearGradient>
		<use xlink:href="#SVGID_31_"  overflow="visible" fill="url(#SVGID_32_)"/>
		<clipPath id="SVGID_33_">
			<use xlink:href="#SVGID_31_"  overflow="visible"/>
		</clipPath>
	</g>
	<g>
		<defs>
			<path id="SVGID_34_" d="M302.5,151.9c0.7,0.4,1.3,0.8,1.9,1.4c0.1,0.1,0.1,0.1,0.2,0.2c1.8,1.7,1.8,4,1.3,6
				c-1.1,3.9-4.2,6.9-8.1,7.9c-2.7,0.7-6.3,0.9-10.3-0.7c-1.8-0.7-2.9-1.7-3.6-2.8c-2.5-4.2,2.3-10.4,5.8-12.3l0.2-0.1
				c1.9-1,4-1.5,6.1-1.5C298.3,150.1,300.5,150.7,302.5,151.9"/>
		</defs>
		
			<linearGradient id="SVGID_35_" gradientUnits="userSpaceOnUse" x1="-400.6625" y1="158.9978" x2="-377.6582" y2="158.9978" gradientTransform="matrix(-1 0 0 1 -94.4408 0)">
			<stop  offset="0" style="stop-color:#6E788C"/>
			<stop  offset="1" style="stop-color:#C8C8C8"/>
		</linearGradient>
		<use xlink:href="#SVGID_34_"  overflow="visible" fill="url(#SVGID_35_)"/>
		<clipPath id="SVGID_36_">
			<use xlink:href="#SVGID_34_"  overflow="visible"/>
		</clipPath>
	</g>
	<g>
		<defs>
			<path id="SVGID_37_" d="M284.5,161.2v7.6c0,0.2-0.2,0.4-0.4,0.4c-0.2,0-0.4-0.2-0.4-0.4v-7.6c0-0.2,0.2-0.4,0.4-0.4
				C284.3,160.8,284.5,161,284.5,161.2"/>
		</defs>
		
			<linearGradient id="SVGID_38_" gradientUnits="userSpaceOnUse" x1="-378.9596" y1="165.0068" x2="-378.1194" y2="165.0068" gradientTransform="matrix(-1 0 0 1 -94.4408 0)">
			<stop  offset="0" style="stop-color:#003366"/>
			<stop  offset="1" style="stop-color:#0066BA"/>
		</linearGradient>
		<use xlink:href="#SVGID_37_"  overflow="visible" fill="url(#SVGID_38_)"/>
		<clipPath id="SVGID_39_">
			<use xlink:href="#SVGID_37_"  overflow="visible"/>
		</clipPath>
	</g>
	<g>
		<defs>
			<path id="SVGID_40_" d="M290,162.2c0,2.3-1.9,4.2-4.2,4.2c-2.3,0-4.2-1.9-4.2-4.2s1.9-4.2,4.2-4.2C288.1,158,290,159.8,290,162.2
				"/>
		</defs>
		
			<linearGradient id="SVGID_41_" gradientUnits="userSpaceOnUse" x1="-384.4084" y1="162.1779" x2="-375.963" y2="162.1779" gradientTransform="matrix(-1 0 0 1 -94.4408 0)">
			<stop  offset="0" style="stop-color:#6E788C"/>
			<stop  offset="1" style="stop-color:#C8C8C8"/>
		</linearGradient>
		<use xlink:href="#SVGID_40_"  overflow="visible" fill="url(#SVGID_41_)"/>
		<clipPath id="SVGID_42_">
			<use xlink:href="#SVGID_40_"  overflow="visible"/>
		</clipPath>
	</g>
	<g>
		<defs>
			<path id="SVGID_43_" d="M295.3,164.6l5,2.4c0.1,0.1,0.2,0.2,0.2,0.4v4.4c0,0.2-0.2,0.4-0.4,0.4c-0.2,0-0.4-0.2-0.4-0.4v-4.2
				l-4.8-2.3c-0.2-0.1-0.3-0.4-0.2-0.6c0.1-0.1,0.2-0.2,0.4-0.2C295.2,164.6,295.3,164.6,295.3,164.6"/>
		</defs>
		
			<linearGradient id="SVGID_44_" gradientUnits="userSpaceOnUse" x1="-390.8764" y1="164.9684" x2="-396.4329" y2="171.9835" gradientTransform="matrix(-1 0 0 1 -94.4408 0)">
			<stop  offset="0" style="stop-color:#003366"/>
			<stop  offset="1" style="stop-color:#0066BA"/>
		</linearGradient>
		<use xlink:href="#SVGID_43_"  overflow="visible" fill="url(#SVGID_44_)"/>
		<clipPath id="SVGID_45_">
			<use xlink:href="#SVGID_43_"  overflow="visible"/>
		</clipPath>
	</g>
	<g>
		<defs>
			<path id="SVGID_46_" d="M300.7,162.5l3.8,1.8c0.1,0.1,0.2,0.2,0.2,0.4v5.2c0,0.2-0.2,0.4-0.4,0.4c-0.2,0-0.4-0.2-0.4-0.4V165
				l-3.6-1.7c-0.2-0.1-0.3-0.4-0.2-0.6c0.1-0.1,0.2-0.2,0.4-0.2C300.6,162.5,300.7,162.5,300.7,162.5"/>
		</defs>
		
			<linearGradient id="SVGID_47_" gradientUnits="userSpaceOnUse" x1="-394.7659" y1="162.2429" x2="-400.3224" y2="169.2579" gradientTransform="matrix(-1 0 0 1 -94.4408 0)">
			<stop  offset="0" style="stop-color:#003366"/>
			<stop  offset="1" style="stop-color:#0066BA"/>
		</linearGradient>
		<use xlink:href="#SVGID_46_"  overflow="visible" fill="url(#SVGID_47_)"/>
		<clipPath id="SVGID_48_">
			<use xlink:href="#SVGID_46_"  overflow="visible"/>
		</clipPath>
	</g>
	<g>
		<defs>
			<path id="SVGID_49_" d="M304.1,158.9l3.8,1.8c0.1,0.1,0.2,0.2,0.2,0.4v6.9c0,0.2-0.2,0.4-0.4,0.4c-0.2,0-0.4-0.2-0.4-0.4v-6.6
				l-3.6-1.7c-0.2-0.1-0.3-0.4-0.2-0.6c0.1-0.1,0.2-0.2,0.4-0.2C304,158.9,304,158.9,304.1,158.9"/>
		</defs>
		
			<linearGradient id="SVGID_50_" gradientUnits="userSpaceOnUse" x1="-398.1228" y1="159.5139" x2="-403.6793" y2="166.5289" gradientTransform="matrix(-1 0 0 1 -94.4408 0)">
			<stop  offset="0" style="stop-color:#003366"/>
			<stop  offset="1" style="stop-color:#0066BA"/>
		</linearGradient>
		<use xlink:href="#SVGID_49_"  overflow="visible" fill="url(#SVGID_50_)"/>
		<clipPath id="SVGID_51_">
			<use xlink:href="#SVGID_49_"  overflow="visible"/>
		</clipPath>
	</g>
	<g>
		<defs>
			<path id="SVGID_52_" d="M223.6,170.3c0.7,0.4,1.3,0.8,1.9,1.4c0.1,0.1,0.1,0.1,0.2,0.2c1.8,1.7,1.8,4,1.3,6
				c-1.1,3.9-4.2,6.9-8.1,7.9c-2.7,0.7-6.3,0.9-10.3-0.7c-1.8-0.7-2.9-1.7-3.6-2.8c-2.5-4.2,2.3-10.4,5.8-12.3l0.2-0.1
				c1.9-1,4-1.5,6.1-1.5C219.3,168.5,221.6,169.1,223.6,170.3"/>
		</defs>
		
			<linearGradient id="SVGID_53_" gradientUnits="userSpaceOnUse" x1="-321.6676" y1="177.4194" x2="-298.6632" y2="177.4194" gradientTransform="matrix(-1 0 0 1 -94.4408 0)">
			<stop  offset="0" style="stop-color:#6E788C"/>
			<stop  offset="1" style="stop-color:#C8C8C8"/>
		</linearGradient>
		<use xlink:href="#SVGID_52_"  overflow="visible" fill="url(#SVGID_53_)"/>
		<clipPath id="SVGID_54_">
			<use xlink:href="#SVGID_52_"  overflow="visible"/>
		</clipPath>
	</g>
	<g>
		<defs>
			<path id="SVGID_55_" d="M205.5,179.6v7.6c0,0.2-0.2,0.4-0.4,0.4c-0.2,0-0.4-0.2-0.4-0.4v-7.6c0-0.2,0.2-0.4,0.4-0.4
				C205.3,179.2,205.5,179.4,205.5,179.6"/>
		</defs>
		
			<linearGradient id="SVGID_56_" gradientUnits="userSpaceOnUse" x1="-299.9647" y1="183.4284" x2="-299.1245" y2="183.4284" gradientTransform="matrix(-1 0 0 1 -94.4408 0)">
			<stop  offset="0" style="stop-color:#003366"/>
			<stop  offset="1" style="stop-color:#0066BA"/>
		</linearGradient>
		<use xlink:href="#SVGID_55_"  overflow="visible" fill="url(#SVGID_56_)"/>
		<clipPath id="SVGID_57_">
			<use xlink:href="#SVGID_55_"  overflow="visible"/>
		</clipPath>
	</g>
	<g>
		<defs>
			<path id="SVGID_58_" d="M211,180.6c0,2.3-1.9,4.2-4.2,4.2c-2.3,0-4.2-1.9-4.2-4.2c0-2.3,1.9-4.2,4.2-4.2
				C209.1,176.4,211,178.3,211,180.6"/>
		</defs>
		
			<linearGradient id="SVGID_59_" gradientUnits="userSpaceOnUse" x1="-305.4135" y1="180.5995" x2="-296.968" y2="180.5995" gradientTransform="matrix(-1 0 0 1 -94.4408 0)">
			<stop  offset="0" style="stop-color:#6E788C"/>
			<stop  offset="1" style="stop-color:#C8C8C8"/>
		</linearGradient>
		<use xlink:href="#SVGID_58_"  overflow="visible" fill="url(#SVGID_59_)"/>
		<clipPath id="SVGID_60_">
			<use xlink:href="#SVGID_58_"  overflow="visible"/>
		</clipPath>
	</g>
	<g>
		<defs>
			<path id="SVGID_61_" d="M216.3,183l5,2.4c0.1,0.1,0.2,0.2,0.2,0.4v4.4c0,0.2-0.2,0.4-0.4,0.4s-0.4-0.2-0.4-0.4v-4.2l-4.8-2.3
				c-0.2-0.1-0.3-0.4-0.2-0.6c0.1-0.1,0.2-0.2,0.4-0.2C216.2,183,216.3,183,216.3,183"/>
		</defs>
		
			<linearGradient id="SVGID_62_" gradientUnits="userSpaceOnUse" x1="-311.8815" y1="183.3901" x2="-317.4379" y2="190.4051" gradientTransform="matrix(-1 0 0 1 -94.4408 0)">
			<stop  offset="0" style="stop-color:#003366"/>
			<stop  offset="1" style="stop-color:#0066BA"/>
		</linearGradient>
		<use xlink:href="#SVGID_61_"  overflow="visible" fill="url(#SVGID_62_)"/>
		<clipPath id="SVGID_63_">
			<use xlink:href="#SVGID_61_"  overflow="visible"/>
		</clipPath>
	</g>
	<g>
		<defs>
			<path id="SVGID_64_" d="M221.7,180.9l3.8,1.8c0.1,0.1,0.2,0.2,0.2,0.4v5.2c0,0.2-0.2,0.4-0.4,0.4c-0.2,0-0.4-0.2-0.4-0.4v-4.9
				l-3.6-1.7c-0.2-0.1-0.3-0.4-0.2-0.6c0.1-0.1,0.2-0.2,0.4-0.2C221.6,180.9,221.7,180.9,221.7,180.9"/>
		</defs>
		
			<linearGradient id="SVGID_65_" gradientUnits="userSpaceOnUse" x1="-315.771" y1="180.6645" x2="-321.3275" y2="187.6795" gradientTransform="matrix(-1 0 0 1 -94.4408 0)">
			<stop  offset="0" style="stop-color:#003366"/>
			<stop  offset="1" style="stop-color:#0066BA"/>
		</linearGradient>
		<use xlink:href="#SVGID_64_"  overflow="visible" fill="url(#SVGID_65_)"/>
		<clipPath id="SVGID_66_">
			<use xlink:href="#SVGID_64_"  overflow="visible"/>
		</clipPath>
	</g>
	<g>
		<defs>
			<path id="SVGID_67_" d="M225.1,177.4l3.8,1.8c0.1,0.1,0.2,0.2,0.2,0.4v6.9c0,0.2-0.2,0.4-0.4,0.4c-0.2,0-0.4-0.2-0.4-0.4v-6.6
				l-3.6-1.7c-0.2-0.1-0.3-0.4-0.2-0.6c0.1-0.1,0.2-0.2,0.4-0.2C225,177.3,225,177.3,225.1,177.4"/>
		</defs>
		
			<linearGradient id="SVGID_68_" gradientUnits="userSpaceOnUse" x1="-319.1279" y1="177.9355" x2="-324.6843" y2="184.9505" gradientTransform="matrix(-1 0 0 1 -94.4408 0)">
			<stop  offset="0" style="stop-color:#003366"/>
			<stop  offset="1" style="stop-color:#0066BA"/>
		</linearGradient>
		<use xlink:href="#SVGID_67_"  overflow="visible" fill="url(#SVGID_68_)"/>
		<clipPath id="SVGID_69_">
			<use xlink:href="#SVGID_67_"  overflow="visible"/>
		</clipPath>
	</g>
	<g>
		<defs>
			<path id="SVGID_70_" d="M73.9,247c0.7,0.4,1.3,0.8,1.9,1.4c0.1,0.1,0.1,0.1,0.2,0.2c1.8,1.7,1.8,4,1.3,6
				c-1.1,3.9-4.2,6.9-8.1,7.9c-2.7,0.7-6.3,0.9-10.3-0.7c-1.8-0.7-2.9-1.7-3.6-2.8c-2.5-4.2,2.3-10.4,5.8-12.3l0.2-0.1
				c1.9-1,4-1.5,6.1-1.5C69.7,245.2,72,245.8,73.9,247"/>
		</defs>
		
			<linearGradient id="SVGID_71_" gradientUnits="userSpaceOnUse" x1="-172.0671" y1="254.1297" x2="-149.0628" y2="254.1297" gradientTransform="matrix(-1 0 0 1 -94.4408 0)">
			<stop  offset="0" style="stop-color:#6E788C"/>
			<stop  offset="1" style="stop-color:#C8C8C8"/>
		</linearGradient>
		<use xlink:href="#SVGID_70_"  overflow="visible" fill="url(#SVGID_71_)"/>
		<clipPath id="SVGID_72_">
			<use xlink:href="#SVGID_70_"  overflow="visible"/>
		</clipPath>
	</g>
	<g>
		<defs>
			<path id="SVGID_73_" d="M55.9,256.3v7.6c0,0.2-0.2,0.4-0.4,0.4c-0.2,0-0.4-0.2-0.4-0.4v-7.6c0-0.2,0.2-0.4,0.4-0.4
				C55.7,255.9,55.9,256.1,55.9,256.3"/>
		</defs>
		
			<linearGradient id="SVGID_74_" gradientUnits="userSpaceOnUse" x1="-150.3642" y1="260.1387" x2="-149.524" y2="260.1387" gradientTransform="matrix(-1 0 0 1 -94.4408 0)">
			<stop  offset="0" style="stop-color:#003366"/>
			<stop  offset="1" style="stop-color:#0066BA"/>
		</linearGradient>
		<use xlink:href="#SVGID_73_"  overflow="visible" fill="url(#SVGID_74_)"/>
		<clipPath id="SVGID_75_">
			<use xlink:href="#SVGID_73_"  overflow="visible"/>
		</clipPath>
	</g>
	<g>
		<defs>
			<path id="SVGID_76_" d="M61.4,257.3c0,2.3-1.9,4.2-4.2,4.2c-2.3,0-4.2-1.9-4.2-4.2c0-2.3,1.9-4.2,4.2-4.2
				C59.5,253.1,61.4,255,61.4,257.3"/>
		</defs>
		
			<linearGradient id="SVGID_77_" gradientUnits="userSpaceOnUse" x1="-155.813" y1="257.3098" x2="-147.3676" y2="257.3098" gradientTransform="matrix(-1 0 0 1 -94.4408 0)">
			<stop  offset="0" style="stop-color:#6E788C"/>
			<stop  offset="1" style="stop-color:#C8C8C8"/>
		</linearGradient>
		<use xlink:href="#SVGID_76_"  overflow="visible" fill="url(#SVGID_77_)"/>
		<clipPath id="SVGID_78_">
			<use xlink:href="#SVGID_76_"  overflow="visible"/>
		</clipPath>
	</g>
	<g>
		<defs>
			<path id="SVGID_79_" d="M66.7,259.8l5,2.4c0.1,0.1,0.2,0.2,0.2,0.4v4.4c0,0.2-0.2,0.4-0.4,0.4c-0.2,0-0.4-0.2-0.4-0.4v-4.2
				l-4.8-2.3c-0.2-0.1-0.3-0.4-0.2-0.6c0.1-0.1,0.2-0.2,0.4-0.2C66.6,259.7,66.7,259.7,66.7,259.8"/>
		</defs>
		
			<linearGradient id="SVGID_80_" gradientUnits="userSpaceOnUse" x1="-162.281" y1="260.1003" x2="-167.8375" y2="267.1153" gradientTransform="matrix(-1 0 0 1 -94.4408 0)">
			<stop  offset="0" style="stop-color:#003366"/>
			<stop  offset="1" style="stop-color:#0066BA"/>
		</linearGradient>
		<use xlink:href="#SVGID_79_"  overflow="visible" fill="url(#SVGID_80_)"/>
		<clipPath id="SVGID_81_">
			<use xlink:href="#SVGID_79_"  overflow="visible"/>
		</clipPath>
	</g>
	<g>
		<defs>
			<path id="SVGID_82_" d="M72.1,257.6l3.8,1.8c0.1,0.1,0.2,0.2,0.2,0.4v5.2c0,0.2-0.2,0.4-0.4,0.4c-0.2,0-0.4-0.2-0.4-0.4v-4.9
				l-3.6-1.7c-0.2-0.1-0.3-0.4-0.2-0.6c0.1-0.1,0.2-0.2,0.4-0.2C72,257.6,72.1,257.6,72.1,257.6"/>
		</defs>
		
			<linearGradient id="SVGID_83_" gradientUnits="userSpaceOnUse" x1="-166.1705" y1="257.3748" x2="-171.727" y2="264.3897" gradientTransform="matrix(-1 0 0 1 -94.4408 0)">
			<stop  offset="0" style="stop-color:#003366"/>
			<stop  offset="1" style="stop-color:#0066BA"/>
		</linearGradient>
		<use xlink:href="#SVGID_82_"  overflow="visible" fill="url(#SVGID_83_)"/>
		<clipPath id="SVGID_84_">
			<use xlink:href="#SVGID_82_"  overflow="visible"/>
		</clipPath>
	</g>
	<g>
		<defs>
			<path id="SVGID_85_" d="M75.5,254.1l3.8,1.8c0.1,0.1,0.2,0.2,0.2,0.4v6.9c0,0.2-0.2,0.4-0.4,0.4c-0.2,0-0.4-0.2-0.4-0.4v-6.6
				l-3.6-1.7c-0.2-0.1-0.3-0.4-0.2-0.6c0.1-0.1,0.2-0.2,0.4-0.2C75.4,254,75.4,254,75.5,254.1"/>
		</defs>
		
			<linearGradient id="SVGID_86_" gradientUnits="userSpaceOnUse" x1="-169.5274" y1="254.6458" x2="-175.0839" y2="261.6608" gradientTransform="matrix(-1 0 0 1 -94.4408 0)">
			<stop  offset="0" style="stop-color:#003366"/>
			<stop  offset="1" style="stop-color:#0066BA"/>
		</linearGradient>
		<use xlink:href="#SVGID_85_"  overflow="visible" fill="url(#SVGID_86_)"/>
		<clipPath id="SVGID_87_">
			<use xlink:href="#SVGID_85_"  overflow="visible"/>
		</clipPath>
	</g>
	<g>
		<defs>
			<path id="SVGID_88_" d="M249.6,116.1c0.7,0.4,1.3,0.8,1.9,1.4c0.1,0.1,0.1,0.1,0.2,0.2c1.8,1.7,1.8,4,1.3,6
				c-1.1,3.9-4.2,6.9-8.1,7.9c-2.7,0.7-6.3,0.9-10.3-0.7c-1.8-0.7-2.9-1.7-3.6-2.8c-2.5-4.2,2.3-10.4,5.8-12.3l0.2-0.1
				c1.9-1,4-1.5,6.1-1.5C245.3,114.3,247.6,114.9,249.6,116.1"/>
		</defs>
		
			<linearGradient id="SVGID_89_" gradientUnits="userSpaceOnUse" x1="-347.7041" y1="123.2291" x2="-324.6998" y2="123.2291" gradientTransform="matrix(-1 0 0 1 -94.4408 0)">
			<stop  offset="0" style="stop-color:#6E788C"/>
			<stop  offset="1" style="stop-color:#C8C8C8"/>
		</linearGradient>
		<use xlink:href="#SVGID_88_"  overflow="visible" fill="url(#SVGID_89_)"/>
		<clipPath id="SVGID_90_">
			<use xlink:href="#SVGID_88_"  overflow="visible"/>
		</clipPath>
	</g>
	<g>
		<defs>
			<path id="SVGID_91_" d="M231.6,125.4v7.6c0,0.2-0.2,0.4-0.4,0.4c-0.2,0-0.4-0.2-0.4-0.4v-7.6c0-0.2,0.2-0.4,0.4-0.4
				C231.4,125,231.6,125.2,231.6,125.4"/>
		</defs>
		
			<linearGradient id="SVGID_92_" gradientUnits="userSpaceOnUse" x1="-326.0012" y1="129.238" x2="-325.161" y2="129.238" gradientTransform="matrix(-1 0 0 1 -94.4408 0)">
			<stop  offset="0" style="stop-color:#003366"/>
			<stop  offset="1" style="stop-color:#0066BA"/>
		</linearGradient>
		<use xlink:href="#SVGID_91_"  overflow="visible" fill="url(#SVGID_92_)"/>
		<clipPath id="SVGID_93_">
			<use xlink:href="#SVGID_91_"  overflow="visible"/>
		</clipPath>
	</g>
	<g>
		<defs>
			<path id="SVGID_94_" d="M237,126.4c0,2.3-1.9,4.2-4.2,4.2c-2.3,0-4.2-1.9-4.2-4.2c0-2.3,1.9-4.2,4.2-4.2
				C235.1,122.2,237,124.1,237,126.4"/>
		</defs>
		
			<linearGradient id="SVGID_95_" gradientUnits="userSpaceOnUse" x1="-331.45" y1="126.4091" x2="-323.0046" y2="126.4091" gradientTransform="matrix(-1 0 0 1 -94.4408 0)">
			<stop  offset="0" style="stop-color:#6E788C"/>
			<stop  offset="1" style="stop-color:#C8C8C8"/>
		</linearGradient>
		<use xlink:href="#SVGID_94_"  overflow="visible" fill="url(#SVGID_95_)"/>
		<clipPath id="SVGID_96_">
			<use xlink:href="#SVGID_94_"  overflow="visible"/>
		</clipPath>
	</g>
	<g>
		<defs>
			<path id="SVGID_97_" d="M242.4,128.9l5,2.4c0.1,0.1,0.2,0.2,0.2,0.4v4.4c0,0.2-0.2,0.4-0.4,0.4c-0.2,0-0.4-0.2-0.4-0.4v-4.2
				l-4.8-2.3c-0.2-0.1-0.3-0.4-0.2-0.6c0.1-0.1,0.2-0.2,0.4-0.2C242.2,128.8,242.3,128.8,242.4,128.9"/>
		</defs>
		
			<linearGradient id="SVGID_98_" gradientUnits="userSpaceOnUse" x1="-337.918" y1="129.1997" x2="-343.4745" y2="136.2147" gradientTransform="matrix(-1 0 0 1 -94.4408 0)">
			<stop  offset="0" style="stop-color:#003366"/>
			<stop  offset="1" style="stop-color:#0066BA"/>
		</linearGradient>
		<use xlink:href="#SVGID_97_"  overflow="visible" fill="url(#SVGID_98_)"/>
		<clipPath id="SVGID_99_">
			<use xlink:href="#SVGID_97_"  overflow="visible"/>
		</clipPath>
	</g>
	<g>
		<defs>
			<path id="SVGID_100_" d="M247.8,126.7l3.8,1.8c0.1,0.1,0.2,0.2,0.2,0.4v5.2c0,0.2-0.2,0.4-0.4,0.4c-0.2,0-0.4-0.2-0.4-0.4v-4.9
				l-3.6-1.7c-0.2-0.1-0.3-0.4-0.2-0.6c0.1-0.1,0.2-0.2,0.4-0.2C247.7,126.7,247.7,126.7,247.8,126.7"/>
		</defs>
		
			<linearGradient id="SVGID_101_" gradientUnits="userSpaceOnUse" x1="-341.8075" y1="126.4741" x2="-347.364" y2="133.4891" gradientTransform="matrix(-1 0 0 1 -94.4408 0)">
			<stop  offset="0" style="stop-color:#003366"/>
			<stop  offset="1" style="stop-color:#0066BA"/>
		</linearGradient>
		<use xlink:href="#SVGID_100_"  overflow="visible" fill="url(#SVGID_101_)"/>
		<clipPath id="SVGID_102_">
			<use xlink:href="#SVGID_100_"  overflow="visible"/>
		</clipPath>
	</g>
	<g>
		<defs>
			<path id="SVGID_103_" d="M251.1,123.2l3.8,1.8c0.1,0.1,0.2,0.2,0.2,0.4v6.9c0,0.2-0.2,0.4-0.4,0.4c-0.2,0-0.4-0.2-0.4-0.4v-6.6
				l-3.6-1.7c-0.2-0.1-0.3-0.4-0.2-0.6c0.1-0.1,0.2-0.2,0.4-0.2C251,123.1,251.1,123.1,251.1,123.2"/>
		</defs>
		
			<linearGradient id="SVGID_104_" gradientUnits="userSpaceOnUse" x1="-345.1644" y1="123.7451" x2="-350.7209" y2="130.7601" gradientTransform="matrix(-1 0 0 1 -94.4408 0)">
			<stop  offset="0" style="stop-color:#003366"/>
			<stop  offset="1" style="stop-color:#0066BA"/>
		</linearGradient>
		<use xlink:href="#SVGID_103_"  overflow="visible" fill="url(#SVGID_104_)"/>
		<clipPath id="SVGID_105_">
			<use xlink:href="#SVGID_103_"  overflow="visible"/>
		</clipPath>
	</g>
	<g>
		<defs>
			<path id="SVGID_106_" d="M312.5,230.4c0.7,0.4,1.3,0.8,1.9,1.4c0.1,0.1,0.1,0.1,0.2,0.2c1.8,1.7,1.8,4,1.3,6
				c-1.1,3.9-4.2,6.9-8.1,7.9c-2.7,0.7-6.3,0.9-10.3-0.7c-1.8-0.7-2.9-1.7-3.6-2.8c-2.5-4.2,2.3-10.4,5.8-12.3l0.2-0.1
				c1.9-1,4-1.5,6.1-1.5C308.2,228.6,310.5,229.2,312.5,230.4"/>
		</defs>
		
			<linearGradient id="SVGID_107_" gradientUnits="userSpaceOnUse" x1="-410.6096" y1="237.5554" x2="-387.6053" y2="237.5554" gradientTransform="matrix(-1 0 0 1 -94.4408 0)">
			<stop  offset="0" style="stop-color:#6E788C"/>
			<stop  offset="1" style="stop-color:#C8C8C8"/>
		</linearGradient>
		<use xlink:href="#SVGID_106_"  overflow="visible" fill="url(#SVGID_107_)"/>
		<clipPath id="SVGID_108_">
			<use xlink:href="#SVGID_106_"  overflow="visible"/>
		</clipPath>
	</g>
	<g>
		<defs>
			<path id="SVGID_109_" d="M294.5,239.8v7.6c0,0.2-0.2,0.4-0.4,0.4c-0.2,0-0.4-0.2-0.4-0.4v-7.6c0-0.2,0.2-0.4,0.4-0.4
				C294.3,239.3,294.5,239.5,294.5,239.8"/>
		</defs>
		
			<linearGradient id="SVGID_110_" gradientUnits="userSpaceOnUse" x1="-388.9068" y1="243.5644" x2="-388.0666" y2="243.5644" gradientTransform="matrix(-1 0 0 1 -94.4408 0)">
			<stop  offset="0" style="stop-color:#003366"/>
			<stop  offset="1" style="stop-color:#0066BA"/>
		</linearGradient>
		<use xlink:href="#SVGID_109_"  overflow="visible" fill="url(#SVGID_110_)"/>
		<clipPath id="SVGID_111_">
			<use xlink:href="#SVGID_109_"  overflow="visible"/>
		</clipPath>
	</g>
	<g>
		<defs>
			<path id="SVGID_112_" d="M300.3,241.2c0,2.3-1.9,4.2-4.2,4.2s-4.2-1.9-4.2-4.2c0-2.3,1.9-4.2,4.2-4.2S300.3,238.8,300.3,241.2"/>
		</defs>
		
			<linearGradient id="SVGID_113_" gradientUnits="userSpaceOnUse" x1="-394.7755" y1="241.1556" x2="-386.3301" y2="241.1556" gradientTransform="matrix(-1 0 0 1 -94.4408 0)">
			<stop  offset="0" style="stop-color:#6E788C"/>
			<stop  offset="1" style="stop-color:#C8C8C8"/>
		</linearGradient>
		<use xlink:href="#SVGID_112_"  overflow="visible" fill="url(#SVGID_113_)"/>
		<clipPath id="SVGID_114_">
			<use xlink:href="#SVGID_112_"  overflow="visible"/>
		</clipPath>
	</g>
	<g>
		<defs>
			<path id="SVGID_115_" d="M305.3,243.2l5,2.4c0.1,0.1,0.2,0.2,0.2,0.4v4.4c0,0.2-0.2,0.4-0.4,0.4c-0.2,0-0.4-0.2-0.4-0.4v-4.2
				l-4.8-2.3c-0.2-0.1-0.3-0.4-0.2-0.6c0.1-0.1,0.2-0.2,0.4-0.2C305.1,243.1,305.2,243.2,305.3,243.2"/>
		</defs>
		
			<linearGradient id="SVGID_116_" gradientUnits="userSpaceOnUse" x1="-400.8236" y1="243.526" x2="-406.38" y2="250.5411" gradientTransform="matrix(-1 0 0 1 -94.4408 0)">
			<stop  offset="0" style="stop-color:#003366"/>
			<stop  offset="1" style="stop-color:#0066BA"/>
		</linearGradient>
		<use xlink:href="#SVGID_115_"  overflow="visible" fill="url(#SVGID_116_)"/>
		<clipPath id="SVGID_117_">
			<use xlink:href="#SVGID_115_"  overflow="visible"/>
		</clipPath>
	</g>
	<g>
		<defs>
			<path id="SVGID_118_" d="M310.7,241.1l3.8,1.8c0.1,0.1,0.2,0.2,0.2,0.4v5.2c0,0.2-0.2,0.4-0.4,0.4c-0.2,0-0.4-0.2-0.4-0.4v-4.9
				l-3.6-1.7c-0.2-0.1-0.3-0.4-0.2-0.6c0.1-0.1,0.2-0.2,0.4-0.2C310.6,241,310.6,241,310.7,241.1"/>
		</defs>
		
			<linearGradient id="SVGID_119_" gradientUnits="userSpaceOnUse" x1="-404.7131" y1="240.8005" x2="-410.2695" y2="247.8155" gradientTransform="matrix(-1 0 0 1 -94.4408 0)">
			<stop  offset="0" style="stop-color:#003366"/>
			<stop  offset="1" style="stop-color:#0066BA"/>
		</linearGradient>
		<use xlink:href="#SVGID_118_"  overflow="visible" fill="url(#SVGID_119_)"/>
		<clipPath id="SVGID_120_">
			<use xlink:href="#SVGID_118_"  overflow="visible"/>
		</clipPath>
	</g>
	<g>
		<defs>
			<path id="SVGID_121_" d="M314,237.5l3.8,1.8c0.1,0.1,0.2,0.2,0.2,0.4v6.9c0,0.2-0.2,0.4-0.4,0.4c-0.2,0-0.4-0.2-0.4-0.4V240
				l-3.6-1.7c-0.2-0.1-0.3-0.4-0.2-0.6c0.1-0.1,0.2-0.2,0.4-0.2C313.9,237.5,314,237.5,314,237.5"/>
		</defs>
		
			<linearGradient id="SVGID_122_" gradientUnits="userSpaceOnUse" x1="-408.0699" y1="238.0715" x2="-413.6264" y2="245.0865" gradientTransform="matrix(-1 0 0 1 -94.4408 0)">
			<stop  offset="0" style="stop-color:#003366"/>
			<stop  offset="1" style="stop-color:#0066BA"/>
		</linearGradient>
		<use xlink:href="#SVGID_121_"  overflow="visible" fill="url(#SVGID_122_)"/>
		<clipPath id="SVGID_123_">
			<use xlink:href="#SVGID_121_"  overflow="visible"/>
		</clipPath>
	</g>
	<g>
		<defs>
			<path id="SVGID_124_" d="M344.4,183.1c0.7,0.4,1.3,0.8,1.9,1.4c0.1,0.1,0.1,0.1,0.2,0.2c1.8,1.7,1.8,4,1.3,6
				c-1.1,3.9-4.2,6.9-8.1,7.9c-2.7,0.7-6.3,0.9-10.3-0.7c-1.8-0.7-2.9-1.7-3.6-2.8c-2.5-4.2,2.3-10.4,5.8-12.3l0.2-0.1
				c1.9-1,4-1.5,6.1-1.5C340.2,181.3,342.4,181.9,344.4,183.1"/>
		</defs>
		
			<linearGradient id="SVGID_125_" gradientUnits="userSpaceOnUse" x1="-442.5401" y1="190.2103" x2="-419.5358" y2="190.2103" gradientTransform="matrix(-1 0 0 1 -94.4408 0)">
			<stop  offset="0" style="stop-color:#6E788C"/>
			<stop  offset="1" style="stop-color:#C8C8C8"/>
		</linearGradient>
		<use xlink:href="#SVGID_124_"  overflow="visible" fill="url(#SVGID_125_)"/>
		<clipPath id="SVGID_126_">
			<use xlink:href="#SVGID_124_"  overflow="visible"/>
		</clipPath>
	</g>
	<g>
		<defs>
			<path id="SVGID_127_" d="M326.4,192.4v7.6c0,0.2-0.2,0.4-0.4,0.4c-0.2,0-0.4-0.2-0.4-0.4v-7.6c0-0.2,0.2-0.4,0.4-0.4
				C326.2,192,326.4,192.2,326.4,192.4"/>
		</defs>
		
			<linearGradient id="SVGID_128_" gradientUnits="userSpaceOnUse" x1="-420.8372" y1="196.2193" x2="-419.997" y2="196.2193" gradientTransform="matrix(-1 0 0 1 -94.4408 0)">
			<stop  offset="0" style="stop-color:#003366"/>
			<stop  offset="1" style="stop-color:#0066BA"/>
		</linearGradient>
		<use xlink:href="#SVGID_127_"  overflow="visible" fill="url(#SVGID_128_)"/>
		<clipPath id="SVGID_129_">
			<use xlink:href="#SVGID_127_"  overflow="visible"/>
		</clipPath>
	</g>
	<g>
		<defs>
			<path id="SVGID_130_" d="M332.3,193.8c0,2.3-1.9,4.2-4.2,4.2c-2.3,0-4.2-1.9-4.2-4.2c0-2.3,1.9-4.2,4.2-4.2
				C330.4,189.6,332.3,191.5,332.3,193.8"/>
		</defs>
		
			<linearGradient id="SVGID_131_" gradientUnits="userSpaceOnUse" x1="-426.7059" y1="193.8105" x2="-418.2605" y2="193.8105" gradientTransform="matrix(-1 0 0 1 -94.4408 0)">
			<stop  offset="0" style="stop-color:#6E788C"/>
			<stop  offset="1" style="stop-color:#C8C8C8"/>
		</linearGradient>
		<use xlink:href="#SVGID_130_"  overflow="visible" fill="url(#SVGID_131_)"/>
		<clipPath id="SVGID_132_">
			<use xlink:href="#SVGID_130_"  overflow="visible"/>
		</clipPath>
	</g>
	<g>
		<defs>
			<path id="SVGID_133_" d="M337.2,195.8l5,2.4c0.1,0.1,0.2,0.2,0.2,0.4v4.4c0,0.2-0.2,0.4-0.4,0.4c-0.2,0-0.4-0.2-0.4-0.4v-4.2
				l-4.8-2.3c-0.2-0.1-0.3-0.4-0.2-0.6c0.1-0.1,0.2-0.2,0.4-0.2C337.1,195.8,337.1,195.8,337.2,195.8"/>
		</defs>
		
			<linearGradient id="SVGID_134_" gradientUnits="userSpaceOnUse" x1="-432.754" y1="196.181" x2="-438.3105" y2="203.196" gradientTransform="matrix(-1 0 0 1 -94.4408 0)">
			<stop  offset="0" style="stop-color:#003366"/>
			<stop  offset="1" style="stop-color:#0066BA"/>
		</linearGradient>
		<use xlink:href="#SVGID_133_"  overflow="visible" fill="url(#SVGID_134_)"/>
		<clipPath id="SVGID_135_">
			<use xlink:href="#SVGID_133_"  overflow="visible"/>
		</clipPath>
	</g>
	<g>
		<defs>
			<path id="SVGID_136_" d="M342.6,193.7l3.8,1.8c0.1,0.1,0.2,0.2,0.2,0.4v5.2c0,0.2-0.2,0.4-0.4,0.4c-0.2,0-0.4-0.2-0.4-0.4v-4.9
				l-3.6-1.7c-0.2-0.1-0.3-0.4-0.2-0.6c0.1-0.1,0.2-0.2,0.4-0.2C342.5,193.7,342.6,193.7,342.6,193.7"/>
		</defs>
		
			<linearGradient id="SVGID_137_" gradientUnits="userSpaceOnUse" x1="-436.6436" y1="193.4554" x2="-442.2" y2="200.4704" gradientTransform="matrix(-1 0 0 1 -94.4408 0)">
			<stop  offset="0" style="stop-color:#003366"/>
			<stop  offset="1" style="stop-color:#0066BA"/>
		</linearGradient>
		<use xlink:href="#SVGID_136_"  overflow="visible" fill="url(#SVGID_137_)"/>
		<clipPath id="SVGID_138_">
			<use xlink:href="#SVGID_136_"  overflow="visible"/>
		</clipPath>
	</g>
	<g>
		<defs>
			<path id="SVGID_139_" d="M346,190.1l3.8,1.8c0.1,0.1,0.2,0.2,0.2,0.4v6.9c0,0.2-0.2,0.4-0.4,0.4c-0.2,0-0.4-0.2-0.4-0.4v-6.6
				l-3.6-1.7c-0.2-0.1-0.3-0.4-0.2-0.6c0.1-0.1,0.2-0.2,0.4-0.2C345.9,190.1,345.9,190.1,346,190.1"/>
		</defs>
		
			<linearGradient id="SVGID_140_" gradientUnits="userSpaceOnUse" x1="-440.0004" y1="190.7264" x2="-445.5569" y2="197.7414" gradientTransform="matrix(-1 0 0 1 -94.4408 0)">
			<stop  offset="0" style="stop-color:#003366"/>
			<stop  offset="1" style="stop-color:#0066BA"/>
		</linearGradient>
		<use xlink:href="#SVGID_139_"  overflow="visible" fill="url(#SVGID_140_)"/>
		<clipPath id="SVGID_141_">
			<use xlink:href="#SVGID_139_"  overflow="visible"/>
		</clipPath>
	</g>
	<g>
		<defs>
			<path id="SVGID_142_" d="M73.9,206.6c0.7,0.4,1.3,0.8,1.9,1.4c0.1,0.1,0.1,0.1,0.2,0.2c1.8,1.7,1.8,4,1.3,6
				c-1.1,3.9-4.2,6.9-8.1,7.9c-2.7,0.7-6.3,0.9-10.3-0.7c-1.8-0.7-2.9-1.7-3.6-2.8c-2.5-4.2,2.3-10.4,5.8-12.3l0.2-0.1
				c1.9-1,4-1.5,6.1-1.5C69.7,204.8,72,205.4,73.9,206.6"/>
		</defs>
		
			<linearGradient id="SVGID_143_" gradientUnits="userSpaceOnUse" x1="-172.0671" y1="213.7413" x2="-149.0628" y2="213.7413" gradientTransform="matrix(-1 0 0 1 -94.4408 0)">
			<stop  offset="0" style="stop-color:#6E788C"/>
			<stop  offset="1" style="stop-color:#C8C8C8"/>
		</linearGradient>
		<use xlink:href="#SVGID_142_"  overflow="visible" fill="url(#SVGID_143_)"/>
		<clipPath id="SVGID_144_">
			<use xlink:href="#SVGID_142_"  overflow="visible"/>
		</clipPath>
	</g>
	<g>
		<defs>
			<path id="SVGID_145_" d="M55.9,215.9v7.6c0,0.2-0.2,0.4-0.4,0.4c-0.2,0-0.4-0.2-0.4-0.4v-7.6c0-0.2,0.2-0.4,0.4-0.4
				C55.7,215.5,55.9,215.7,55.9,215.9"/>
		</defs>
		
			<linearGradient id="SVGID_146_" gradientUnits="userSpaceOnUse" x1="-150.3642" y1="219.7503" x2="-149.524" y2="219.7503" gradientTransform="matrix(-1 0 0 1 -94.4408 0)">
			<stop  offset="0" style="stop-color:#003366"/>
			<stop  offset="1" style="stop-color:#0066BA"/>
		</linearGradient>
		<use xlink:href="#SVGID_145_"  overflow="visible" fill="url(#SVGID_146_)"/>
		<clipPath id="SVGID_147_">
			<use xlink:href="#SVGID_145_"  overflow="visible"/>
		</clipPath>
	</g>
	<g>
		<defs>
			<path id="SVGID_148_" d="M61.4,216.9c0,2.3-1.9,4.2-4.2,4.2c-2.3,0-4.2-1.9-4.2-4.2c0-2.3,1.9-4.2,4.2-4.2
				C59.5,212.7,61.4,214.6,61.4,216.9"/>
		</defs>
		
			<linearGradient id="SVGID_149_" gradientUnits="userSpaceOnUse" x1="-155.813" y1="216.9214" x2="-147.3676" y2="216.9214" gradientTransform="matrix(-1 0 0 1 -94.4408 0)">
			<stop  offset="0" style="stop-color:#6E788C"/>
			<stop  offset="1" style="stop-color:#C8C8C8"/>
		</linearGradient>
		<use xlink:href="#SVGID_148_"  overflow="visible" fill="url(#SVGID_149_)"/>
		<clipPath id="SVGID_150_">
			<use xlink:href="#SVGID_148_"  overflow="visible"/>
		</clipPath>
	</g>
	<g>
		<defs>
			<path id="SVGID_151_" d="M66.7,219.4l5,2.4c0.1,0.1,0.2,0.2,0.2,0.4v4.4c0,0.2-0.2,0.4-0.4,0.4c-0.2,0-0.4-0.2-0.4-0.4v-4.2
				l-4.8-2.3c-0.2-0.1-0.3-0.4-0.2-0.6c0.1-0.1,0.2-0.2,0.4-0.2C66.6,219.3,66.7,219.3,66.7,219.4"/>
		</defs>
		
			<linearGradient id="SVGID_152_" gradientUnits="userSpaceOnUse" x1="-162.281" y1="219.7119" x2="-167.8375" y2="226.7269" gradientTransform="matrix(-1 0 0 1 -94.4408 0)">
			<stop  offset="0" style="stop-color:#003366"/>
			<stop  offset="1" style="stop-color:#0066BA"/>
		</linearGradient>
		<use xlink:href="#SVGID_151_"  overflow="visible" fill="url(#SVGID_152_)"/>
		<clipPath id="SVGID_153_">
			<use xlink:href="#SVGID_151_"  overflow="visible"/>
		</clipPath>
	</g>
	<g>
		<defs>
			<path id="SVGID_154_" d="M72.1,217.2l3.8,1.8c0.1,0.1,0.2,0.2,0.2,0.4v5.2c0,0.2-0.2,0.4-0.4,0.4c-0.2,0-0.4-0.2-0.4-0.4v-4.9
				l-3.6-1.7c-0.2-0.1-0.3-0.4-0.2-0.6c0.1-0.1,0.2-0.2,0.4-0.2C72,217.2,72.1,217.2,72.1,217.2"/>
		</defs>
		
			<linearGradient id="SVGID_155_" gradientUnits="userSpaceOnUse" x1="-166.1705" y1="216.9864" x2="-171.727" y2="224.0014" gradientTransform="matrix(-1 0 0 1 -94.4408 0)">
			<stop  offset="0" style="stop-color:#003366"/>
			<stop  offset="1" style="stop-color:#0066BA"/>
		</linearGradient>
		<use xlink:href="#SVGID_154_"  overflow="visible" fill="url(#SVGID_155_)"/>
		<clipPath id="SVGID_156_">
			<use xlink:href="#SVGID_154_"  overflow="visible"/>
		</clipPath>
	</g>
	<g>
		<defs>
			<path id="SVGID_157_" d="M75.5,213.7l3.8,1.8c0.1,0.1,0.2,0.2,0.2,0.4v6.9c0,0.2-0.2,0.4-0.4,0.4c-0.2,0-0.4-0.2-0.4-0.4v-6.6
				l-3.6-1.7c-0.2-0.1-0.3-0.4-0.2-0.6c0.1-0.1,0.2-0.2,0.4-0.2C75.4,213.6,75.4,213.7,75.5,213.7"/>
		</defs>
		
			<linearGradient id="SVGID_158_" gradientUnits="userSpaceOnUse" x1="-169.5274" y1="214.2574" x2="-175.0839" y2="221.2724" gradientTransform="matrix(-1 0 0 1 -94.4408 0)">
			<stop  offset="0" style="stop-color:#003366"/>
			<stop  offset="1" style="stop-color:#0066BA"/>
		</linearGradient>
		<use xlink:href="#SVGID_157_"  overflow="visible" fill="url(#SVGID_158_)"/>
		<clipPath id="SVGID_159_">
			<use xlink:href="#SVGID_157_"  overflow="visible"/>
		</clipPath>
	</g>
	<g>
		<defs>
			<path id="SVGID_160_" d="M21,229.2c0.7,0.4,1.3,0.8,1.9,1.4c0.1,0.1,0.1,0.1,0.2,0.2c1.8,1.7,1.8,4,1.3,6
				c-1.1,3.9-4.2,6.9-8.1,7.9c-2.7,0.7-6.3,0.9-10.3-0.7c-1.8-0.7-2.9-1.7-3.6-2.8c-2.5-4.2,2.3-10.4,5.8-12.3l0.2-0.1
				c1.9-1,4-1.5,6.1-1.5C16.8,227.4,19,228,21,229.2"/>
		</defs>
		
			<linearGradient id="SVGID_161_" gradientUnits="userSpaceOnUse" x1="-119.1403" y1="236.2857" x2="-96.136" y2="236.2857" gradientTransform="matrix(-1 0 0 1 -94.4408 0)">
			<stop  offset="0" style="stop-color:#6E788C"/>
			<stop  offset="1" style="stop-color:#C8C8C8"/>
		</linearGradient>
		<use xlink:href="#SVGID_160_"  overflow="visible" fill="url(#SVGID_161_)"/>
		<clipPath id="SVGID_162_">
			<use xlink:href="#SVGID_160_"  overflow="visible"/>
		</clipPath>
	</g>
	<g>
		<defs>
			<path id="SVGID_163_" d="M3,238.5v7.6c0,0.2-0.2,0.4-0.4,0.4c-0.2,0-0.4-0.2-0.4-0.4v-7.6c0-0.2,0.2-0.4,0.4-0.4
				C2.8,238.1,3,238.3,3,238.5"/>
		</defs>
		
			<linearGradient id="SVGID_164_" gradientUnits="userSpaceOnUse" x1="-97.4374" y1="242.2946" x2="-96.5972" y2="242.2946" gradientTransform="matrix(-1 0 0 1 -94.4408 0)">
			<stop  offset="0" style="stop-color:#003366"/>
			<stop  offset="1" style="stop-color:#0066BA"/>
		</linearGradient>
		<use xlink:href="#SVGID_163_"  overflow="visible" fill="url(#SVGID_164_)"/>
		<clipPath id="SVGID_165_">
			<use xlink:href="#SVGID_163_"  overflow="visible"/>
		</clipPath>
	</g>
	<g>
		<defs>
			<path id="SVGID_166_" d="M8.4,239.5c0,2.3-1.9,4.2-4.2,4.2c-2.3,0-4.2-1.9-4.2-4.2c0-2.3,1.9-4.2,4.2-4.2
				C6.6,235.2,8.4,237.1,8.4,239.5"/>
		</defs>
		
			<linearGradient id="SVGID_167_" gradientUnits="userSpaceOnUse" x1="-102.8862" y1="239.4657" x2="-94.4408" y2="239.4657" gradientTransform="matrix(-1 0 0 1 -94.4408 0)">
			<stop  offset="0" style="stop-color:#6E788C"/>
			<stop  offset="1" style="stop-color:#C8C8C8"/>
		</linearGradient>
		<use xlink:href="#SVGID_166_"  overflow="visible" fill="url(#SVGID_167_)"/>
		<clipPath id="SVGID_168_">
			<use xlink:href="#SVGID_166_"  overflow="visible"/>
		</clipPath>
	</g>
	<g>
		<defs>
			<path id="SVGID_169_" d="M13.8,241.9l5,2.4c0.1,0.1,0.2,0.2,0.2,0.4v4.4c0,0.2-0.2,0.4-0.4,0.4c-0.2,0-0.4-0.2-0.4-0.4V245
				l-4.8-2.3c-0.2-0.1-0.3-0.4-0.2-0.6c0.1-0.1,0.2-0.2,0.4-0.2C13.7,241.9,13.7,241.9,13.8,241.9"/>
		</defs>
		
			<linearGradient id="SVGID_170_" gradientUnits="userSpaceOnUse" x1="-109.3542" y1="242.2563" x2="-114.9107" y2="249.2713" gradientTransform="matrix(-1 0 0 1 -94.4408 0)">
			<stop  offset="0" style="stop-color:#003366"/>
			<stop  offset="1" style="stop-color:#0066BA"/>
		</linearGradient>
		<use xlink:href="#SVGID_169_"  overflow="visible" fill="url(#SVGID_170_)"/>
		<clipPath id="SVGID_171_">
			<use xlink:href="#SVGID_169_"  overflow="visible"/>
		</clipPath>
	</g>
	<g>
		<defs>
			<path id="SVGID_172_" d="M19.2,239.8l3.8,1.8c0.1,0.1,0.2,0.2,0.2,0.4v5.2c0,0.2-0.2,0.4-0.4,0.4c-0.2,0-0.4-0.2-0.4-0.4v-4.9
				l-3.6-1.7c-0.2-0.1-0.3-0.4-0.2-0.6c0.1-0.1,0.2-0.2,0.4-0.2C19.1,239.7,19.2,239.8,19.2,239.8"/>
		</defs>
		
			<linearGradient id="SVGID_173_" gradientUnits="userSpaceOnUse" x1="-113.2437" y1="239.5307" x2="-118.8002" y2="246.5457" gradientTransform="matrix(-1 0 0 1 -94.4408 0)">
			<stop  offset="0" style="stop-color:#003366"/>
			<stop  offset="1" style="stop-color:#0066BA"/>
		</linearGradient>
		<use xlink:href="#SVGID_172_"  overflow="visible" fill="url(#SVGID_173_)"/>
		<clipPath id="SVGID_174_">
			<use xlink:href="#SVGID_172_"  overflow="visible"/>
		</clipPath>
	</g>
	<g>
		<defs>
			<path id="SVGID_175_" d="M22.6,236.2l3.8,1.8c0.1,0.1,0.2,0.2,0.2,0.4v6.9c0,0.2-0.2,0.4-0.4,0.4c-0.2,0-0.4-0.2-0.4-0.4v-6.6
				l-3.6-1.7c-0.2-0.1-0.3-0.4-0.2-0.6c0.1-0.1,0.2-0.2,0.4-0.2C22.5,236.2,22.5,236.2,22.6,236.2"/>
		</defs>
		
			<linearGradient id="SVGID_176_" gradientUnits="userSpaceOnUse" x1="-116.6006" y1="236.8017" x2="-122.1571" y2="243.8167" gradientTransform="matrix(-1 0 0 1 -94.4408 0)">
			<stop  offset="0" style="stop-color:#003366"/>
			<stop  offset="1" style="stop-color:#0066BA"/>
		</linearGradient>
		<use xlink:href="#SVGID_175_"  overflow="visible" fill="url(#SVGID_176_)"/>
		<clipPath id="SVGID_177_">
			<use xlink:href="#SVGID_175_"  overflow="visible"/>
		</clipPath>
	</g>
	
		<path fill="none" stroke="#C8C8C8" stroke-width="0.6235" stroke-linecap="round" stroke-linejoin="round" stroke-miterlimit="10" stroke-dasharray="6.2345,6.2345" d="
		M80,212.3c10-2.3,13.4-14.7,20.9-21.7c7.3-6.8,18-8,27.9-9c23.2-2.3,48.4-6.4,64.1-23.7c4.9-5.4,8.6-11.9,13.7-17.1
		s12.5-9.1,19.6-7.3"/>
	<g>
		<g>
			<defs>
				<path id="SVGID_178_" d="M200.9,116.9v33.2c0,11-4.3,18.5-11.4,21.8l0,0l-15.6,9l0,0c6.4-3.5,10.3-10.8,10.3-21.3v-36.1
					c0-1.5-0.4-3-1.1-4.2l16.3-8.6C200.3,112.6,200.9,114.7,200.9,116.9"/>
			</defs>
			
				<linearGradient id="SVGID_179_" gradientUnits="userSpaceOnUse" x1="-516.3815" y1="172.1718" x2="-516.3815" y2="116.5482" gradientTransform="matrix(-1 0 0 1 -329.0089 0)">
				<stop  offset="0" style="stop-color:#6E788C"/>
				<stop  offset="1" style="stop-color:#C8C8C8"/>
			</linearGradient>
			<use xlink:href="#SVGID_178_"  overflow="visible" fill="url(#SVGID_179_)"/>
			<clipPath id="SVGID_180_">
				<use xlink:href="#SVGID_178_"  overflow="visible"/>
			</clipPath>
		</g>
		<g>
			<defs>
				<path id="SVGID_181_" d="M130.7,68.7l63.4,36.4c2.3,1.3,4.1,3.3,5.3,5.6l-16.3,8.6c-0.7-1.3-1.8-2.4-3.2-3.2l-67.3-38.8
					c-0.8-0.5-1.8-0.6-2.6-0.5l14.2-8.1c1-0.6,2.1-0.9,3.3-0.9C128.5,67.8,129.7,68.1,130.7,68.7"/>
			</defs>
			
				<linearGradient id="SVGID_182_" gradientUnits="userSpaceOnUse" x1="-446.5548" y1="73.6154" x2="-523.9954" y2="113.7115" gradientTransform="matrix(-1 0 0 1 -329.0089 0)">
				<stop  offset="0" style="stop-color:#6E788C"/>
				<stop  offset="1" style="stop-color:#C8C8C8"/>
			</linearGradient>
			<use xlink:href="#SVGID_181_"  overflow="visible" fill="url(#SVGID_182_)"/>
			<clipPath id="SVGID_183_">
				<use xlink:href="#SVGID_181_"  overflow="visible"/>
			</clipPath>
		</g>
		<g>
			<defs>
				<path id="SVGID_184_" d="M112.6,77.2l67.3,38.8c1.4,0.8,2.4,1.9,3.2,3.2c0.7,1.3,1.1,2.7,1.1,4.2v36.1
					c0,10.4-3.9,17.7-10.3,21.3c-7.5,4.1-18.5,3.2-30.8-3.9c-22.7-13.1-36.5-39.4-36.5-62.1V80.7c0-2.1,1.5-3.6,3.3-3.9
					c0.2,0,0.4-0.1,0.6-0.1C111.3,76.7,111.9,76.9,112.6,77.2"/>
			</defs>
			
				<linearGradient id="SVGID_185_" gradientUnits="userSpaceOnUse" x1="-513.2103" y1="130.032" x2="-435.6278" y2="130.032" gradientTransform="matrix(-1 0 0 1 -329.0089 0)">
				<stop  offset="0" style="stop-color:#6ECA44"/>
				<stop  offset="1" style="stop-color:#86D776"/>
			</linearGradient>
			<use xlink:href="#SVGID_184_"  overflow="visible" fill="url(#SVGID_185_)"/>
			<clipPath id="SVGID_186_">
				<use xlink:href="#SVGID_184_"  overflow="visible"/>
			</clipPath>
		</g>
		<g>
			<defs>
				<path id="SVGID_187_" d="M142.6,116.2c6.7,3.9,12.2,12.5,12.2,19.2c0,4-1.9,6.4-4.9,6.9v9.7c0,4-3.3,5.4-7.3,3.1
					c-4-2.3-7.3-7.5-7.3-11.5v-9.7c-3-3.9-4.9-8.6-4.9-12.5c0-4.5,2.5-7,6.1-7C138.3,114.3,140.4,114.9,142.6,116.2"/>
			</defs>
			
				<linearGradient id="SVGID_188_" gradientUnits="userSpaceOnUse" x1="-462.4123" y1="139.3807" x2="-481.9612" y2="128.8768" gradientTransform="matrix(-1 0 0 1 -329.0089 0)">
				<stop  offset="0" style="stop-color:#167E3D"/>
				<stop  offset="1" style="stop-color:#084823"/>
			</linearGradient>
			<use xlink:href="#SVGID_187_"  overflow="visible" fill="url(#SVGID_188_)"/>
			<clipPath id="SVGID_189_">
				<use xlink:href="#SVGID_187_"  overflow="visible"/>
			</clipPath>
		</g>
		<g>
			<defs>
				<path id="SVGID_190_" d="M155.3,29c12.1,5.5,18.4,12.6,24.3,21.9c5.9,9.3,8.4,20.7,8.4,29.7v24.9c0,1-0.7,2-2,2.8
					c-0.7,0.4-1.5,0.7-2.4,0.9c-0.7,0.2-1.5,0.3-2.3,0.3h0c-1.8,0-3.5-0.4-4.9-1.1c-1.4-0.8-2-1.8-2-2.8c0,0,0,0,0-0.1V72.8
					c0-5.3-2.1-11.3-5.6-16.8c-3.5-5.5-8.2-10.4-13.5-13.4c-4.5-2.6-8.7-3.5-12-2.7h0c-1.8,0.4-3.3,1.3-4.5,2.6
					c-1.7,1.9-2.6,4.6-2.6,8.2v24.9c0,1-0.7,2-2,2.8c-0.7,0.4-1.5,0.7-2.4,0.9c-0.7,0.2-1.5,0.3-2.3,0.3c-1.8,0-3.6-0.4-4.9-1.1
					c-1.4-0.8-2-1.8-2-2.8h0V49.1c0-7,3.6-12.8,8.7-16.6c4.4-3.3,10-5.2,15.4-5.2C149.7,27.2,152.6,27.8,155.3,29"/>
			</defs>
			
				<linearGradient id="SVGID_191_" gradientUnits="userSpaceOnUse" x1="-517.0349" y1="68.331" x2="-451.5826" y2="68.331" gradientTransform="matrix(-1 0 0 1 -329.0089 0)">
				<stop  offset="0" style="stop-color:#6E788C"/>
				<stop  offset="1" style="stop-color:#C8C8C8"/>
			</linearGradient>
			<use xlink:href="#SVGID_190_"  overflow="visible" fill="url(#SVGID_191_)"/>
			<clipPath id="SVGID_192_">
				<use xlink:href="#SVGID_190_"  overflow="visible"/>
			</clipPath>
		</g>
		<g>
			<defs>
				<path id="SVGID_193_" d="M138.8,42.5c-1.7,1.9-2.6,4.6-2.6,8.2v24.9c0,1-0.7,2-2,2.8v-29c0-5.1,4-9.3,9.1-9.5
					C141.5,40.3,140,41.2,138.8,42.5"/>
			</defs>
			
				<linearGradient id="SVGID_194_" gradientUnits="userSpaceOnUse" x1="-467.7386" y1="36.0035" x2="-467.7386" y2="70.0742" gradientTransform="matrix(-1 0 0 1 -329.0089 0)">
				<stop  offset="0" style="stop-color:#6E788C"/>
				<stop  offset="1" style="stop-color:#C8C8C8"/>
			</linearGradient>
			<use xlink:href="#SVGID_193_"  overflow="visible" fill="url(#SVGID_194_)"/>
			<clipPath id="SVGID_195_">
				<use xlink:href="#SVGID_193_"  overflow="visible"/>
			</clipPath>
		</g>
	</g>
	
		<path fill="none" stroke="#C8C8C8" stroke-width="0.6235" stroke-linecap="round" stroke-linejoin="round" stroke-miterlimit="10" stroke-dasharray="6.2345,6.2345" d="
		M28.5,234.7c5.7,0.5,11.3,0.9,17,1.4c16.8,1.4,34.4,2.7,50-3.6c16.9-6.8,29.4-21.5,45.6-29.9c10.7-5.6,22.9-8.2,35-8.1
		c9.3,0,19,1.5,27.6-2"/>
	
		<path fill="none" stroke="#C8C8C8" stroke-width="0.6235" stroke-linecap="round" stroke-linejoin="round" stroke-miterlimit="10" stroke-dasharray="6.2345,6.2345" d="
		M231,175c6.9-4.1,15.4-4,23.5-3.8c8.1,0.2,16.1,0.4,24.2,0.7"/>
	
		<path fill="none" stroke="#C8C8C8" stroke-width="0.6235" stroke-linecap="round" stroke-linejoin="round" stroke-miterlimit="10" stroke-dasharray="6.2345,6.2345" d="
		M289.2,253.1c-9,0.3-18,0.7-26.9,1c-6.3,0.2-12.7,0.4-18.6-1.6c-7.2-2.5-12.9-8.2-19.9-11.4c-7.4-3.4-15.7-3.7-23.8-3.9
		c-13.9-0.3-27.9-0.1-41.8,0.5c-5.2,0.2-10.6,0.6-15.3,2.7c-3.9,1.7-7.3,4.6-11.5,5.5"/>
	
		<path fill="none" stroke="#C8C8C8" stroke-width="0.6235" stroke-linecap="round" stroke-linejoin="round" stroke-miterlimit="10" stroke-dasharray="6.2345,6.2345" d="
		M84.9,259.6c3.3,3.6,8.2,5.5,13.1,6s9.8,0,14.7-0.6"/>
	<g>
		<path fill="#FFD0A4" d="M186.2,294.4l-20-17c-1.6-1.4-2.9-3.1-3.9-5l-1.1-2.2c-1.6-3.3-1.2-7.2,1-10l6.5-8.4
			c0.2-0.2,0.4-0.4,0.7-0.5l11-4.8c0.8-0.4,1.2-1.3,0.9-2.2l-13.9-32.9c-0.3-0.8,0-1.7,0.8-2.1c2.1-1.1,4.6-0.4,5.8,1.6l17.1,29
			c0.1,0.1,0.1,0.2,0.2,0.3l10.2,10.7c1.1,1.1,3,0.3,2.9-1.2l-0.5-15c-0.1-3.3,2-6.3,5.2-7.3l0.3-0.1c1.1-0.3,2.2,0.5,2.2,1.6
			l-0.2,9.3c0,2.7,0.3,5.4,1.2,8l2.8,8.8c0.9,2.8,0.6,5.9-0.8,8.4l-4.5,8.2c-0.2,0.4-0.3,0.8-0.2,1.2l2.5,9.5c0.2,0.8-0.2,1.6-0.9,2
			l-23.4,10.3C187.3,294.9,186.7,294.8,186.2,294.4"/>
	</g>
	
		<path fill="none" stroke="#C8C8C8" stroke-width="0.6235" stroke-linecap="round" stroke-linejoin="round" stroke-miterlimit="10" stroke-dasharray="6.2345,6.2345" d="
		M331.4,203.9c-13.4,5.7-28.7,1.6-43-1.6c-15.7-3.4-31.6-5.5-47.6-6.2c-8-0.4-16.1-0.4-24,1.1c-6.3,1.2-12.5,3.4-18.8,4.4
		c-15.2,2.4-31.5-1.8-45.6,4.2c-12.9,5.5-21.1,18.4-26.4,31.4"/>
</g>
</svg>
