<?xml version="1.0" encoding="utf-8"?>
<!-- Generator: Adobe Illustrator 22.0.0, SVG Export Plug-In . SVG Version: 6.00 Build 0)  -->
<svg version="1.0" id="Ebene_1" xmlns="http://www.w3.org/2000/svg" xmlns:xlink="http://www.w3.org/1999/xlink" x="0px" y="0px"
	 viewBox="0 0 300 303.6" enable-background="new 0 0 300 303.6" xml:space="preserve">
<g>
	<g>
		<defs>
			<path id="SVGID_1_" d="M12.2,119.6c0,65,52.7,117.7,117.7,117.7s117.7-52.7,117.7-117.7S194.9,1.8,129.9,1.8
				S12.2,54.5,12.2,119.6"/>
		</defs>
		<linearGradient id="SVGID_2_" gradientUnits="userSpaceOnUse" x1="12.1942" y1="119.5527" x2="247.6057" y2="119.5527">
			<stop  offset="0" style="stop-color:#003366"/>
			<stop  offset="1" style="stop-color:#0066BA"/>
		</linearGradient>
		<use xlink:href="#SVGID_1_"  overflow="visible" fill="url(#SVGID_2_)"/>
		<clipPath id="SVGID_3_">
			<use xlink:href="#SVGID_1_"  overflow="visible"/>
		</clipPath>
	</g>
	<g>
		<linearGradient id="SVGID_4_" gradientUnits="userSpaceOnUse" x1="11.2625" y1="119.5527" x2="248.5373" y2="119.5527">
			<stop  offset="0" style="stop-color:#B2B2B2"/>
			<stop  offset="5.778944e-02" style="stop-color:#BABABA"/>
			<stop  offset="0.2807" style="stop-color:#D4D4D4"/>
			<stop  offset="0.5095" style="stop-color:#E7E7E7"/>
			<stop  offset="0.7455" style="stop-color:#F2F2F2"/>
			<stop  offset="1" style="stop-color:#F6F6F6"/>
		</linearGradient>
		<path fill="none" stroke="url(#SVGID_4_)" stroke-width="1.8745" stroke-miterlimit="10" d="M247.6,119.5
			c0-65-52.7-117.7-117.7-117.7c-65,0-117.7,52.7-117.7,117.7s52.7,117.7,117.7,117.7C194.9,237.3,247.6,184.6,247.6,119.5z"/>
		<linearGradient id="SVGID_5_" gradientUnits="userSpaceOnUse" x1="60.853" y1="119.5527" x2="198.949" y2="119.5527">
			<stop  offset="0" style="stop-color:#B2B2B2"/>
			<stop  offset="5.778944e-02" style="stop-color:#BABABA"/>
			<stop  offset="0.2807" style="stop-color:#D4D4D4"/>
			<stop  offset="0.5095" style="stop-color:#E7E7E7"/>
			<stop  offset="0.7455" style="stop-color:#F2F2F2"/>
			<stop  offset="1" style="stop-color:#F6F6F6"/>
		</linearGradient>
		<path fill="none" stroke="url(#SVGID_5_)" stroke-width="1.8745" stroke-miterlimit="10" d="M198,119.5
			c0-55.9-21.6-102.9-50.8-116.4c-5.6-0.8-11.4-1.3-17.3-1.3c-5.9,0-11.6,0.4-17.3,1.3C83.4,16.6,61.8,63.6,61.8,119.5
			c0,55.9,21.6,102.9,50.8,116.4c5.6,0.8,11.4,1.3,17.3,1.3c5.9,0,11.6-0.4,17.3-1.3C176.4,222.5,198,175.5,198,119.5z"/>
		<linearGradient id="SVGID_6_" gradientUnits="userSpaceOnUse" x1="38.0805" y1="57.2482" x2="221.7169" y2="57.2482">
			<stop  offset="0" style="stop-color:#B2B2B2"/>
			<stop  offset="5.778944e-02" style="stop-color:#BABABA"/>
			<stop  offset="0.2807" style="stop-color:#D4D4D4"/>
			<stop  offset="0.5095" style="stop-color:#E7E7E7"/>
			<stop  offset="0.7455" style="stop-color:#F2F2F2"/>
			<stop  offset="1" style="stop-color:#F6F6F6"/>
		</linearGradient>
		<path fill="none" stroke="url(#SVGID_6_)" stroke-width="1.8745" stroke-miterlimit="10" d="M38.6,45.3
			c22.1,14.5,54.8,23.8,91.3,23.8s69.2-9.2,91.3-23.8"/>
		<linearGradient id="SVGID_7_" gradientUnits="userSpaceOnUse" x1="38.0805" y1="181.8483" x2="221.7169" y2="181.8483">
			<stop  offset="0" style="stop-color:#B2B2B2"/>
			<stop  offset="5.778944e-02" style="stop-color:#BABABA"/>
			<stop  offset="0.2807" style="stop-color:#D4D4D4"/>
			<stop  offset="0.5095" style="stop-color:#E7E7E7"/>
			<stop  offset="0.7455" style="stop-color:#F2F2F2"/>
			<stop  offset="1" style="stop-color:#F6F6F6"/>
		</linearGradient>
		<path fill="none" stroke="url(#SVGID_7_)" stroke-width="1.8745" stroke-miterlimit="10" d="M38.6,193.8
			c22.1-14.5,54.8-23.8,91.3-23.8s69.2,9.2,91.3,23.8"/>
		<linearGradient id="SVGID_8_" gradientUnits="userSpaceOnUse" x1="128.9637" y1="119.5527" x2="130.8382" y2="119.5527">
			<stop  offset="0" style="stop-color:#B2B2B2"/>
			<stop  offset="5.778944e-02" style="stop-color:#BABABA"/>
			<stop  offset="0.2807" style="stop-color:#D4D4D4"/>
			<stop  offset="0.5095" style="stop-color:#E7E7E7"/>
			<stop  offset="0.7455" style="stop-color:#F2F2F2"/>
			<stop  offset="1" style="stop-color:#F6F6F6"/>
		</linearGradient>
		
			<line fill="none" stroke="url(#SVGID_8_)" stroke-width="1.8745" stroke-miterlimit="10" x1="129.9" y1="1.8" x2="129.9" y2="237.3"/>
		<linearGradient id="SVGID_9_" gradientUnits="userSpaceOnUse" x1="12.1998" y1="119.8465" x2="247.6" y2="119.8465">
			<stop  offset="0" style="stop-color:#B2B2B2"/>
			<stop  offset="5.778944e-02" style="stop-color:#BABABA"/>
			<stop  offset="0.2807" style="stop-color:#D4D4D4"/>
			<stop  offset="0.5095" style="stop-color:#E7E7E7"/>
			<stop  offset="0.7455" style="stop-color:#F2F2F2"/>
			<stop  offset="1" style="stop-color:#F6F6F6"/>
		</linearGradient>
		
			<line fill="none" stroke="url(#SVGID_9_)" stroke-width="1.8745" stroke-miterlimit="10" x1="12.2" y1="119.8" x2="247.6" y2="119.8"/>
	</g>
	<g>
		<path fill="#FFD0A4" d="M231.5,218.8l-17.7-15.1c-1.4-1.2-2.6-2.7-3.4-4.4l-1-1.9c-1.4-2.9-1.1-6.3,0.9-8.9l5.8-7.5
			c0.2-0.2,0.4-0.4,0.6-0.5l9.7-4.2c0.7-0.3,1.1-1.2,0.8-1.9l-12.3-29.1c-0.3-0.7,0-1.5,0.7-1.9c1.8-1,4.1-0.3,5.2,1.5l15.2,25.7
			c0.1,0.1,0.1,0.2,0.2,0.3l9,9.5c0.9,1,2.6,0.3,2.6-1.1l-0.4-13.3c-0.1-3,1.8-5.6,4.6-6.5l0.3-0.1c1-0.3,2,0.4,1.9,1.5l-0.1,8.2
			c0,2.4,0.3,4.8,1,7.1l2.5,7.8c0.8,2.5,0.5,5.2-0.7,7.5l-4,7.3c-0.2,0.3-0.2,0.7-0.1,1.1l2.2,8.4c0.2,0.7-0.2,1.5-0.8,1.7L233,219
			C232.5,219.3,231.9,219.2,231.5,218.8"/>
	</g>
	<g>
		<g>
			<defs>
				<path id="SVGID_10_" d="M70.5,274.3L70.5,274.3l-6.3,3.7l3.9-0.3c-0.2,0.7-0.3,1.5-0.3,2.4c0,6.3,5.1,14.4,11.4,18
					c1.6,0.9,3,1.4,4.4,1.7l-2.1,3.1l6.2-3.6c0.1-0.1,0.3-0.2,0.4-0.2l0,0l0,0c1.6-1,2.6-3,2.6-5.7c0-6.3-5.1-14.4-11.4-18
					c-2.1-1.2-4-1.8-5.7-1.8C72.3,273.5,71.3,273.8,70.5,274.3"/>
			</defs>
			<use xlink:href="#SVGID_10_"  overflow="visible" fill="#707A8D"/>
			<clipPath id="SVGID_11_">
				<use xlink:href="#SVGID_10_"  overflow="visible"/>
			</clipPath>
		</g>
		<g>
			<path fill="#FF4B5F" d="M80.9,295c0,4.4-3.6,6-8,3.4c-4.4-2.6-8-8.2-8-12.7c0-4.4,3.6-6,8-3.4C77.3,284.9,80.9,290.5,80.9,295"/>
		</g>
		<g>
			<defs>
				<path id="SVGID_12_" d="M114.1,253.4L114.1,253.4l-6.3,3.7l3.9-0.3c-0.2,0.7-0.3,1.5-0.3,2.4c0,6.3,5.1,14.4,11.4,18
					c1.6,0.9,3,1.4,4.4,1.7l-2.1,3.1l6.2-3.6c0.1-0.1,0.3-0.2,0.4-0.2l0,0l0,0c1.6-1,2.6-3,2.6-5.7c0-6.3-5.1-14.4-11.4-18
					c-2.1-1.2-4-1.8-5.7-1.8C115.9,252.7,114.9,253,114.1,253.4"/>
			</defs>
			<use xlink:href="#SVGID_12_"  overflow="visible" fill="#707A8D"/>
			<clipPath id="SVGID_13_">
				<use xlink:href="#SVGID_12_"  overflow="visible"/>
			</clipPath>
		</g>
		<g>
			<defs>
				<path id="SVGID_14_" d="M108.4,264.9c0,4.4,3.6,10.1,8,12.7c4.4,2.6,8,1,8-3.4c0-4.4-3.6-10.1-8-12.7c-1.5-0.8-2.8-1.2-4-1.2
					C110,260.2,108.4,261.9,108.4,264.9"/>
			</defs>
			<clipPath id="SVGID_15_">
				<use xlink:href="#SVGID_14_"  overflow="visible"/>
			</clipPath>
		</g>
		<g>
			<defs>
				<path id="SVGID_16_" d="M105,262.9c0,6.3,5.1,14.4,11.4,18c6.3,3.6,11.4,1.5,11.4-4.8c0-6.3-5.1-14.4-11.4-18
					c-2.1-1.2-4-1.8-5.7-1.8C107.3,256.3,105,258.7,105,262.9"/>
			</defs>
			<use xlink:href="#SVGID_16_"  overflow="visible" fill="#707A8D"/>
			<clipPath id="SVGID_17_">
				<use xlink:href="#SVGID_16_"  overflow="visible"/>
			</clipPath>
		</g>
		<g>
			<defs>
				<path id="SVGID_18_" d="M9,238.7L9,238.7l-6.3,3.7l3.9-0.3c-0.2,0.7-0.3,1.5-0.3,2.4c0,6.3,5.1,14.4,11.4,18
					c1.6,0.9,3,1.4,4.4,1.7l-2.1,3.1l6.2-3.6c0.1-0.1,0.3-0.2,0.4-0.2l0,0l0,0c1.6-1,2.6-3,2.6-5.7c0-6.3-5.1-14.4-11.4-18
					c-2.1-1.2-4-1.8-5.7-1.8C10.9,238,9.9,238.2,9,238.7"/>
			</defs>
			<use xlink:href="#SVGID_18_"  overflow="visible" fill="#707A8D"/>
			<clipPath id="SVGID_19_">
				<use xlink:href="#SVGID_18_"  overflow="visible"/>
			</clipPath>
		</g>
		<g>
			<defs>
				<path id="SVGID_20_" d="M0,248.2c0,6.3,5.1,14.4,11.4,18c6.3,3.6,11.4,1.5,11.4-4.8c0-6.3-5.1-14.4-11.4-18
					c-2.1-1.2-4-1.8-5.7-1.8C2.3,241.6,0,244,0,248.2"/>
			</defs>
			<use xlink:href="#SVGID_20_"  overflow="visible" fill="#707A8D"/>
			<clipPath id="SVGID_21_">
				<use xlink:href="#SVGID_20_"  overflow="visible"/>
			</clipPath>
		</g>
		<g>
			<defs>
				<path id="SVGID_22_" d="M61.2,283.8c0,6.3,5.1,14.4,11.4,18c6.3,3.6,11.4,1.5,11.4-4.8c0-6.3-5.1-14.4-11.4-18
					c-2.1-1.2-4-1.8-5.7-1.8C63.5,277.3,61.2,279.6,61.2,283.8"/>
			</defs>
			<use xlink:href="#SVGID_22_"  overflow="visible" fill="#707A8D"/>
			<clipPath id="SVGID_23_">
				<use xlink:href="#SVGID_22_"  overflow="visible"/>
			</clipPath>
		</g>
		<g>
			<defs>
				<path id="SVGID_24_" d="M3.4,250.2c0,4.4,3.6,10.1,8,12.7c4.4,2.6,8,1,8-3.4c0-4.4-3.6-10.1-8-12.7c-1.5-0.8-2.8-1.2-4-1.2
					C5,245.5,3.4,247.2,3.4,250.2"/>
			</defs>
			
				<linearGradient id="SVGID_25_" gradientUnits="userSpaceOnUse" x1="36.252" y1="254.7922" x2="52.3178" y2="254.7922" gradientTransform="matrix(1 0 0 1 -32.8782 0)">
				<stop  offset="0" style="stop-color:#6E788C"/>
				<stop  offset="1" style="stop-color:#C8C8C8"/>
			</linearGradient>
			<use xlink:href="#SVGID_24_"  overflow="visible" fill="url(#SVGID_25_)"/>
			<clipPath id="SVGID_26_">
				<use xlink:href="#SVGID_24_"  overflow="visible"/>
			</clipPath>
		</g>
		<g>
			<defs>
				<path id="SVGID_27_" d="M64.8,285.7c0,4.4,3.6,10.1,8,12.7c4.4,2.6,8,1,8-3.4c0-4.4-3.6-10.1-8-12.7c-1.5-0.8-2.8-1.2-4-1.2
					C66.4,281.1,64.8,282.7,64.8,285.7"/>
			</defs>
			
				<linearGradient id="SVGID_28_" gradientUnits="userSpaceOnUse" x1="97.6686" y1="290.3307" x2="113.7342" y2="290.3307" gradientTransform="matrix(1 0 0 1 -32.8782 0)">
				<stop  offset="0" style="stop-color:#6E788C"/>
				<stop  offset="1" style="stop-color:#C8C8C8"/>
			</linearGradient>
			<use xlink:href="#SVGID_27_"  overflow="visible" fill="url(#SVGID_28_)"/>
			<clipPath id="SVGID_29_">
				<use xlink:href="#SVGID_27_"  overflow="visible"/>
			</clipPath>
		</g>
		<g>
			<defs>
				<path id="SVGID_30_" d="M108.4,264.9c0,4.4,3.6,10.1,8,12.7c4.4,2.6,8,1,8-3.4c0-4.4-3.6-10.1-8-12.7c-1.5-0.8-2.8-1.2-4-1.2
					C110,260.2,108.4,261.9,108.4,264.9"/>
			</defs>
			
				<linearGradient id="SVGID_31_" gradientUnits="userSpaceOnUse" x1="141.2626" y1="269.5162" x2="157.3283" y2="269.5162" gradientTransform="matrix(1 0 0 1 -32.8782 0)">
				<stop  offset="0" style="stop-color:#6E788C"/>
				<stop  offset="1" style="stop-color:#C8C8C8"/>
			</linearGradient>
			<use xlink:href="#SVGID_30_"  overflow="visible" fill="url(#SVGID_31_)"/>
			<clipPath id="SVGID_32_">
				<use xlink:href="#SVGID_30_"  overflow="visible"/>
			</clipPath>
		</g>
		<g>
			<defs>
				<path id="SVGID_33_" d="M5.2,236.4L5.2,236.4c0,1,0.6,2.1,1.6,2.7l76.2,44c1.8,1,3.7,1.5,5.7,1.5v-4c-2,0-3.9-0.5-5.7-1.5
					l-76.2-44c-1.1-0.6-1.6-1.7-1.6-2.8V236.4z"/>
			</defs>
			
				<linearGradient id="SVGID_34_" gradientUnits="userSpaceOnUse" x1="38.0523" y1="258.3769" x2="121.5044" y2="258.3769" gradientTransform="matrix(1 0 0 1 -32.8782 0)">
				<stop  offset="0" style="stop-color:#6E788C"/>
				<stop  offset="1" style="stop-color:#C8C8C8"/>
			</linearGradient>
			<use xlink:href="#SVGID_33_"  overflow="visible" fill="url(#SVGID_34_)"/>
			<clipPath id="SVGID_35_">
				<use xlink:href="#SVGID_33_"  overflow="visible"/>
			</clipPath>
		</g>
		<g>
			
				<linearGradient id="SVGID_36_" gradientUnits="userSpaceOnUse" x1="137.1587" y1="227.0042" x2="103.1115" y2="246.0475" gradientTransform="matrix(1 0 0 1 -32.8782 0)">
				<stop  offset="0" style="stop-color:#6E788C"/>
				<stop  offset="1" style="stop-color:#C8C8C8"/>
			</linearGradient>
			<path fill="url(#SVGID_36_)" d="M8,232.7l-2.9-0.5h0v0.1c0,1.1,0.5,2.2,1.6,2.8l76.2,44c1.8,1,3.7,1.5,5.7,1.5v4
				c1.8,0,3.7-0.5,5.3-1.5l36-20.8c1-0.6,1.5-1.6,1.6-2.6l0,0v-4.2l-5.4-1L53,212.2c-1.4-0.8-3.1-1.3-4.7-1.3
				c-1.6,0-3.2,0.4-4.7,1.3"/>
		</g>
		<g>
			<defs>
				<path id="SVGID_37_" d="M43.6,208.2L6.8,229.5c-2.2,1.2-2.2,4.4,0,5.6l76.2,44c3.4,2,7.6,2,11,0l36-20.8c2.2-1.2,2.2-4.4,0-5.6
					l-77-44.5c-1.4-0.8-3.1-1.3-4.7-1.3C46.7,206.9,45.1,207.4,43.6,208.2"/>
			</defs>
			
				<linearGradient id="SVGID_38_" gradientUnits="userSpaceOnUse" x1="38.0518" y1="243.7303" x2="164.4458" y2="243.7303" gradientTransform="matrix(1 0 0 1 -32.8782 0)">
				<stop  offset="0" style="stop-color:#6E788C"/>
				<stop  offset="1" style="stop-color:#C8C8C8"/>
			</linearGradient>
			<use xlink:href="#SVGID_37_"  overflow="visible" fill="url(#SVGID_38_)"/>
			<clipPath id="SVGID_39_">
				<use xlink:href="#SVGID_37_"  overflow="visible"/>
			</clipPath>
		</g>
		<g>
			<defs>
				<path id="SVGID_40_" d="M12.5,195.9c0,1.5,0.1,3.2,0.3,5l5.5-3.3c2.7-1.6,6-2.6,9.8-2.9c1.8-0.1,3.8-0.1,5.5,0.2
					c5.5,1.1,8-1.2,8.4-2.9c0.2-0.8-0.1-2.4-1.5-4.1c-1.6-2.1-4.8-4.6-10.5-6.1c-1.8-0.5-3.5-0.7-5.1-0.7
					C18,181,12.6,185.5,12.5,195.9"/>
			</defs>
			
				<linearGradient id="SVGID_41_" gradientUnits="userSpaceOnUse" x1="45.3658" y1="190.9334" x2="75.0089" y2="190.9334" gradientTransform="matrix(1 0 0 1 -32.8782 0)">
				<stop  offset="0" style="stop-color:#167E3D"/>
				<stop  offset="1" style="stop-color:#084823"/>
			</linearGradient>
			<use xlink:href="#SVGID_40_"  overflow="visible" fill="url(#SVGID_41_)"/>
			<clipPath id="SVGID_42_">
				<use xlink:href="#SVGID_40_"  overflow="visible"/>
			</clipPath>
		</g>
		<g>
			<defs>
				<path id="SVGID_43_" d="M12.5,195.9l4.4-2.6c2.7-1.6,6-2.6,9.8-2.9c1.8-0.2,3.8-0.1,5.5,0.2c5.3,1.1,7.8-1,8.4-2.7
					c-1.6-2.1-4.8-4.6-10.5-6.1c-1.8-0.5-3.5-0.7-5.1-0.7C18,181,12.6,185.5,12.5,195.9"/>
			</defs>
			
				<linearGradient id="SVGID_44_" gradientUnits="userSpaceOnUse" x1="45.3679" y1="188.4584" x2="73.5" y2="188.4584" gradientTransform="matrix(1 0 0 1 -32.8782 0)">
				<stop  offset="0" style="stop-color:#6ECA44"/>
				<stop  offset="1" style="stop-color:#86D776"/>
			</linearGradient>
			<use xlink:href="#SVGID_43_"  overflow="visible" fill="url(#SVGID_44_)"/>
			<clipPath id="SVGID_45_">
				<use xlink:href="#SVGID_43_"  overflow="visible"/>
			</clipPath>
		</g>
		<g>
			<defs>
				<path id="SVGID_46_" d="M96.1,215.5l2,9c0.7,2.9,0.5,6-0.3,8.8c0.3,0.4,0.6,0.8,0.8,1.3l0.6,1.2c1.3-2.7,1.9-5.7,1.9-8.8
					c0-2.1-0.3-4.2-0.8-6.3l-0.9-3.8l-1.6-1.7c-0.4-0.4-0.8-0.6-1.1-0.6C96.2,214.6,96,214.9,96.1,215.5"/>
			</defs>
			<use xlink:href="#SVGID_46_"  overflow="visible" fill="#116632"/>
			<clipPath id="SVGID_47_">
				<use xlink:href="#SVGID_46_"  overflow="visible"/>
			</clipPath>
		</g>
		<g>
			<defs>
				<path id="SVGID_48_" d="M38.5,189.1c-0.8,0-1.5,0.2-2.2,0.5l-0.9,0.5l-0.5,0.3l0,0l0.5,0.4c-1.9,2.6-2.2,6.4-1.5,8.7
					c1.5,3.1,2.3,6.1,2.3,8.5c0,2.4-0.9,4.2-3,4.7c-0.2,0.1-0.4,0.1-0.6,0.2c-0.1,0-0.2,0.1-0.3,0.1c-0.2,0.1-0.5,0.2-0.6,0.3
					l-2.2,1.3c0,0,0,0,0,0l-0.7,0.4c0,0,0,0,0,0l1.8,0.1c-0.1,0.7-0.1,1.7-0.1,3l-2.4,9.1c0,1.6-0.4,1.6,1.2,2.3l0.4,0.2l-0.3,1.8v0
					l0,0l2.5-1.4l0,0c0.3-0.2,0.5-0.4,0.6-0.8l1.1-3.1c0-0.2,0.2-0.6,0.5-1.2c0.4-1,1.1-2.2,1.4-2.4c0,0,0,0,0.1,0l0.8-0.5
					c0.6-0.8,1.1-1.5,1.5-1.9c0.2-0.2,0.4-0.4,0.6-0.6c0.7-0.6,1.4-1,2.2-1.1c1.2-1.2,2.6-1.8,4.5-1.3c0.1,0,0.3,0.1,0.4,0.1
					c0.9,0.3,1.8,0.8,3,1.5c0,0,22.6,13.5,34.6,17.2l1.3,0.4c1.5,0.5,3,1.9,3.9,3.7l3.3,6.7c0.3,0.7,0.5,1.4,0.6,2l0.9,10.9
					c0.2,1.9,1.7,4.2,3.6,5.3c0,0,0,0,0,0v1.8c0,0,0,0,0,0l0.1-0.1l2.4-1.4c0.1,0,0.1-0.1,0.2-0.1l0,0l0,0c0.6-0.4,0.9-1.3,0.7-2.5
					l-1.7-12c0-0.2-0.1-0.4-0.1-0.6l-1.7-8.7c-0.3-1,0.2-2.2,0.5-2.8c0.2-0.3,0.3-0.4,0.3-0.4c0.6-0.8,1.1-1.7,1.5-2.6l-0.6-1.2
					c-0.2-0.4-0.5-0.9-0.8-1.3c0.9-2.8,1-5.8,0.3-8.8l-2-9c-0.2-1.1,0.8-1.3,1.7-0.3l1.6,1.7l-0.7-2.8c-0.2-1.1,0.8-1.3,1.7-0.3
					l2.7,2.9c0.6,0.7,1.1,1.5,1.3,2.3l1.3,4.8c0.2,0.6,0.5,1.3,0.9,1.8l1.2,1.5l0.8,1.1c0.3,0.3,0.5,0.6,0.8,0.9
					c0.5,0.5,1.1,0.8,1.6,0.9l-0.1,1.6l0.3-0.2c0.3-0.3,0.5-0.7,0.5-1.3v-3.8c0-0.8-0.4-1.7-1-2.6c0,0,0,0-0.1-0.1
					c-1.1-1.6-2-3.2-2.6-4.8c-0.6-1.6-0.9-3.2-0.9-4.7v-0.6c0-1.4-0.3-3-0.8-4.7c-0.4-1.3-1-2.6-1.7-3.9l-0.8-1.5
					c-1.7-3-4-5.7-6.5-7.6c-1.1-0.9-2.3-1.6-3.5-2.1l-0.4-0.2c-0.3-0.1-0.6-0.2-0.9-0.4c-0.6-0.2-1.1-0.4-1.7-0.5
					c-1.4-0.3-2.7-0.2-3.8,0.2c0,0-0.1,0-0.1,0.1c-0.9,0.7-1.7,1.5-2.4,2.4c-0.8,1-1.5,2.2-2,3.5c-0.3,0.6-0.5,1.3-0.7,2
					c-0.1,0.2-0.1,0.4-0.2,0.7l-0.9,4c-0.2,0.9-1,1.3-2,0.9l-0.5-0.2l-0.1,0.7c-0.2,0.9-1,1.3-2,0.9l-4.5-1.5
					c-11-3.6-12-2.8-22.8-12.7c-0.6-0.6-1.3-1.1-1.9-1.6c-1.2-0.9-2.4-1.6-3.6-2.2c-0.7-0.3-1.3-0.5-1.9-0.7c-0.1,0-0.1,0-0.2-0.1
					c-0.8-0.2-1.6-0.3-2.4-0.3C38.8,189.1,38.7,189.1,38.5,189.1"/>
			</defs>
			<use xlink:href="#SVGID_48_"  overflow="visible" fill="#116632"/>
			<clipPath id="SVGID_49_">
				<use xlink:href="#SVGID_48_"  overflow="visible"/>
			</clipPath>
		</g>
		<g>
			<path fill="#FFBC00" d="M45.2,184.6C45.2,184.6,45.2,184.6,45.2,184.6c-0.1,0-0.1,0.1-0.1,0.1L45.2,184.6z"/>
			<path fill="#FFBC00" d="M47.2,192.4l-3.7-1.9l-1.9-1c0.6,0.2,1.3,0.4,1.9,0.7C44.7,190.7,46,191.5,47.2,192.4"/>
			<path fill="#FFBC00" d="M45.3,184.5C45.3,184.5,45.3,184.6,45.3,184.5L45.3,184.5c-0.1,0.1-0.1,0.1-0.1,0.1c0,0-0.1,0-0.1,0
				c0,0,0,0,0,0c0,0-0.1,0-0.1,0c-0.1,0-0.1,0.1-0.2,0.1l0,0L45.3,184.5z"/>
			<polygon fill="#FFBC00" points="39.4,225.9 39.4,225.9 39.4,225.9 			"/>
		</g>
		<g>
			<defs>
				<path id="SVGID_50_" d="M43.2,220.3l-1,0.7c-0.5,0.1-0.8,0.4-0.9,0.9L40,225c-0.1,0.4-0.3,0.7-0.6,0.8l2.5-1.4l0,0
					c0.3-0.2,0.5-0.4,0.6-0.8l1.1-3.1c0-0.2,0.2-0.6,0.5-1.2C43.9,219.8,43.5,220.1,43.2,220.3"/>
			</defs>
			
				<linearGradient id="SVGID_51_" gradientUnits="userSpaceOnUse" x1="72.3413" y1="222.5739" x2="77.1432" y2="222.5739" gradientTransform="matrix(1 0 0 1 -32.8782 0)">
				<stop  offset="0" style="stop-color:#167E3D"/>
				<stop  offset="1" style="stop-color:#084823"/>
			</linearGradient>
			<use xlink:href="#SVGID_50_"  overflow="visible" fill="url(#SVGID_51_)"/>
			<clipPath id="SVGID_52_">
				<use xlink:href="#SVGID_50_"  overflow="visible"/>
			</clipPath>
		</g>
		<g>
			<defs>
				<path id="SVGID_53_" d="M106,209.9l2,9c0.6,2.8,0.5,5.6-0.2,8.3c-0.3,1.1-0.7,2.1-1.2,3.2c-0.4,0.7-0.8,1.4-1.2,2.1l0,0
					c-0.5,0.7-1.1,1.4-1.7,2.1c-0.5,0.6-0.6,1.6-0.3,2.8l2.5,8.7c0.1,0.2,0.1,0.4,0.1,0.6l1.7,12c0.2,1.2-0.1,2.1-0.8,2.5l2.4-1.3
					c0.1,0,0.1-0.1,0.2-0.1l0,0l0,0c0.6-0.4,0.9-1.3,0.7-2.5l-1.7-12c0-0.2-0.1-0.4-0.1-0.6l-1.7-8.7c-0.4-1.5,0.8-3.2,0.8-3.2
					c0.3-0.4,0.5-0.8,0.8-1.2c0.4-0.7,0.8-1.5,1.1-2.3c0.7-1.7,1.1-3.6,1.3-5.4c-1.1-1.6-2-3.2-2.6-4.8c-0.6-1.6-0.9-3.2-0.9-4.7
					v-0.6c0-1.4-0.3-3-0.8-4.7C106.1,209,105.9,209.3,106,209.9"/>
			</defs>
			<use xlink:href="#SVGID_53_"  overflow="visible" fill="#0A4F26"/>
			<clipPath id="SVGID_54_">
				<use xlink:href="#SVGID_53_"  overflow="visible"/>
			</clipPath>
		</g>
		<g>
			<path fill="#FFBC00" d="M95.1,188.5l-1.9,1.1C93.8,189.1,94.4,188.8,95.1,188.5"/>
		</g>
		<g>
			<defs>
				<path id="SVGID_55_" d="M50.8,212.8c1.4-0.2,3,0.3,5.3,1.8c0,0,22.6,13.5,34.6,17.2l1.3,0.4c1.5,0.5,3,1.9,3.9,3.7l0.4,0.7
					l1,2.1c0.2-0.3,0.3-0.4,0.3-0.4c0.6-0.8,1.1-1.7,1.5-2.6l-0.6-1.2c-0.2-0.4-0.5-0.9-0.8-1.3c-0.9-1.2-2-2.1-3.1-2.4l-1.3-0.4
					c-12-3.7-34.6-17.2-34.6-17.2c-2-1.3-3.5-1.9-4.7-1.9C52.8,211.4,51.8,211.9,50.8,212.8"/>
			</defs>
			<clipPath id="SVGID_56_">
				<use xlink:href="#SVGID_55_"  overflow="visible"/>
			</clipPath>
		</g>
		<g>
			<defs>
				<path id="SVGID_57_" d="M97.6,238.4c0,0-0.1,0.2-0.3,0.4l1.9,3.9c0.3,0.7,0.5,1.4,0.6,2l0.9,10.9c0.2,1.9,1.7,4.2,3.6,5.3
					c0.7,0.4,1.3,0.6,1.8,0.6c0.3,0,0.6-0.1,0.8-0.2v-1.8c0,0,0,0,0,0c-1.8-1.1-3.4-3.3-3.6-5.3l-0.9-10.9c-0.1-0.6-0.3-1.3-0.6-2
					l-2.7-5.5C98.7,236.7,98.2,237.5,97.6,238.4"/>
			</defs>
			
				<linearGradient id="SVGID_58_" gradientUnits="userSpaceOnUse" x1="130.1719" y1="248.5794" x2="139.7083" y2="248.5794" gradientTransform="matrix(1 0 0 1 -32.8782 0)">
				<stop  offset="0" style="stop-color:#167E3D"/>
				<stop  offset="1" style="stop-color:#084823"/>
			</linearGradient>
			<use xlink:href="#SVGID_57_"  overflow="visible" fill="url(#SVGID_58_)"/>
			<clipPath id="SVGID_59_">
				<use xlink:href="#SVGID_57_"  overflow="visible"/>
			</clipPath>
		</g>
		<g>
			<defs>
				<path id="SVGID_60_" d="M100.2,220.7c0.5,2.1,0.8,4.2,0.8,6.3c0,3-0.6,6-1.9,8.8l2.7,5.5c0.3,0.7,0.5,1.4,0.6,2l0.9,10.9
					c0.2,1.9,1.7,4.2,3.6,5.3c0,0,0,0,0,0v1.8l0.1-0.1c0,0,0,0,0,0c0.6-0.4,1-1.3,0.8-2.5l-1.7-12c0-0.2-0.1-0.4-0.1-0.6l-2.5-8.7
					c-0.3-1.2-0.2-2.2,0.3-2.8c0.6-0.7,1.2-1.3,1.7-2.1l0,0c0.5-0.7,0.9-1.3,1.2-2.1c-0.2-0.2-0.4-0.4-0.5-0.6l-2-2.6
					c-0.4-0.6-0.8-1.2-0.9-1.8l-1.3-4.8c-0.2-0.8-0.7-1.6-1.3-2.3l-1.2-1.3L100.2,220.7z"/>
			</defs>
			
				<linearGradient id="SVGID_61_" gradientUnits="userSpaceOnUse" x1="131.9701" y1="239.0458" x2="140.6661" y2="239.0458" gradientTransform="matrix(1 0 0 1 -32.8782 0)">
				<stop  offset="0" style="stop-color:#167E3D"/>
				<stop  offset="1" style="stop-color:#084823"/>
			</linearGradient>
			<use xlink:href="#SVGID_60_"  overflow="visible" fill="url(#SVGID_61_)"/>
			<clipPath id="SVGID_62_">
				<use xlink:href="#SVGID_60_"  overflow="visible"/>
			</clipPath>
		</g>
		<g>
			<path fill="#453131" d="M40.7,208.5L40.7,208.5L40.7,208.5z"/>
			<path fill="#453131" d="M45.4,217.2L45.4,217.2L45.4,217.2z"/>
		</g>
		<g>
			<defs>
				<path id="SVGID_63_" d="M48.6,182.7L48.6,182.7c-0.1,0.1-0.2,0.1-0.3,0.2l-0.3,0.1l-2.7,1.5l0,0c0,0,0,0,0,0c0,0-0.1,0-0.1,0
					c0,0,0,0,0,0l-0.8,0.4l-5.4,3.1l0,0c-0.1,0.1-0.3,0.1-0.4,0.2v0l0,0c-0.1,0.1-0.2,0.1-0.3,0.2l-1.9,1.1c0.7-0.3,1.4-0.5,2.2-0.5
					c0.1,0,0.3,0,0.5,0c0.8,0,1.6,0.1,2.4,0.3c0.1,0,0.1,0,0.2,0.1c0.6,0.2,1.3,0.4,1.9,0.7c1.2,0.5,2.4,1.3,3.6,2.2
					c0.7,0.5,1.3,1,1.9,1.6c10.8,9.8,11.7,9.1,22.8,12.7l4.5,1.5c1,0.3,1.8,0,2-0.9l0.1-0.7l0.8-3.4c0.2-1,0.5-1.9,0.8-2.7
					c0.3-0.7,0.6-1.3,0.9-1.9c-8-2.5-9.8-2.9-19.4-11.6c-3.5-3.1-7.1-4.8-10.2-4.8C50.4,182,49.4,182.2,48.6,182.7"/>
			</defs>
			
				<linearGradient id="SVGID_64_" gradientUnits="userSpaceOnUse" x1="69.1791" y1="195.1062" x2="113.91" y2="195.1062" gradientTransform="matrix(1 0 0 1 -32.8782 0)">
				<stop  offset="0" style="stop-color:#167E3D"/>
				<stop  offset="1" style="stop-color:#084823"/>
			</linearGradient>
			<use xlink:href="#SVGID_63_"  overflow="visible" fill="url(#SVGID_64_)"/>
			<clipPath id="SVGID_65_">
				<use xlink:href="#SVGID_63_"  overflow="visible"/>
			</clipPath>
		</g>
		<g>
			<defs>
				<path id="SVGID_66_" d="M43.5,190.5c-0.1,1.3,0.1,2.4,0.4,3.4c1.5,3.1,2.3,6.1,2.3,8.5c0,2.4-0.9,4.2-3,4.7
					c-0.2,0.1-0.4,0.1-0.6,0.2c-0.5,0.6-1.1,1-2,1.3c-0.4,0.1-0.8,0.2-1.1,0.4c0,0,0,0,0,0l-0.7,0.4c-0.8,0.6-0.9,1.6-0.9,3.5
					c0,0.3,0,0.7,0,1.1l-2.3,8.8l-0.1,0.4c0,0.2,0,0.3,0,0.4c-0.1,1.2-0.3,1.3,1.2,1.9l1,0.5c0.6,0.3,1.2,0.3,1.6,0.1v0h0
					c0,0,0,0,0.1,0c0.3-0.2,0.5-0.4,0.6-0.8l1.1-3.1c0.1-0.5,0.5-0.8,0.9-0.9l1-0.7c0.3-0.2,0.7-0.6,1.1-1c0,0,0-0.1,0-0.1
					c0.3-0.7,0.8-1.6,1.1-2c0.1-0.2,0.2-0.3,0.3-0.3l0.8-0.5c0.6-0.8,1.1-1.5,1.5-1.9c0.9-0.9,1.7-1.5,2.8-1.7
					c1.9-1.8,3.9-2.3,7.9,0.4c0,0,22.6,13.5,34.6,17.2l1.3,0.4c1.1,0.3,2.2,1.2,3.1,2.4"/>
			</defs>
			<use xlink:href="#SVGID_66_"  overflow="visible" fill="#167E3D"/>
			<clipPath id="SVGID_67_">
				<use xlink:href="#SVGID_66_"  overflow="visible"/>
			</clipPath>
		</g>
		<g>
			<defs>
				<path id="SVGID_68_" d="M38.5,189.1c-0.8,0-1.5,0.2-2.2,0.5l-0.9,0.5c0,0-0.1,0.1-0.1,0.1c-0.1,0.1-0.2,0.1-0.3,0.2
					c-2.8,1.5-3.9,5-3.9,7.9c0,1,0.1,1.9,0.4,2.7c1.5,3.1,2.3,6.1,2.3,8.5c0,1.4-0.3,2.6-1,3.4c-0.5,0.6-1.1,1-2,1.3
					c-0.4,0.1-0.8,0.2-1.1,0.4c0,0,0,0,0,0c-0.3,0.1-0.5,0.2-0.7,0.4c0,0,0,0,0,0c-0.8,0.6-0.9,1.6-0.9,3.5c0,0.3,0,0.7,0,1.1
					l-2.4,9.1c0,1.6-0.4,1.6,1.2,2.3l1,0.5c0.6,0.3,1.2,0.3,1.7,0.1c0,0,0,0,0,0c0.3-0.2,0.5-0.4,0.6-0.8l1.1-3.1
					c0.1-0.5,0.5-0.8,0.9-0.9l1-0.7c0.3-0.2,0.7-0.6,1.1-1c0.4-0.5,0.8-1,1.3-1.6c0.3-0.5,0.7-0.9,1-1.3c0.6-0.8,1.1-1.5,1.5-1.9
					c0.2-0.2,0.4-0.4,0.6-0.6c0.7-0.6,1.4-1,2.2-1.1c1-0.2,2.1,0,3.4,0.7c0,0,0,0,0,0c0.6,0.3,1.2,0.6,1.9,1.1
					c0,0,22.6,13.5,34.6,17.2l1.3,0.4c1.5,0.5,3,1.9,3.9,3.7l3.3,6.7c0.3,0.7,0.5,1.4,0.6,2l0.9,10.9c0.2,1.9,1.7,4.2,3.6,5.3
					c0.7,0.4,1.3,0.6,1.8,0.6c0.3,0,0.6-0.1,0.8-0.2c0,0,0,0,0,0l0.1-0.1c0.7-0.4,1-1.3,0.8-2.5l-1.7-12c0-0.2-0.1-0.4-0.1-0.6
					l-2.5-8.7c-0.4-1.2-0.2-2.2,0.3-2.8c0.6-0.7,1.2-1.3,1.7-2.1l0,0c0.3-0.4,0.6-0.9,0.9-1.4c0.6-1.1,1.1-2.2,1.5-3.4
					c0.9-2.8,1-5.8,0.3-8.8l-2-9c-0.2-1.1,0.8-1.3,1.7-0.3l1.6,1.7l1.2,1.3c0.6,0.7,1.1,1.5,1.3,2.3l1.3,4.8
					c0.2,0.6,0.5,1.3,0.9,1.8l2,2.6c0.2,0.2,0.3,0.4,0.5,0.6c0.5,0.6,1.2,1,1.7,1.1c0.1,0,0.3,0.1,0.4,0.1l1.5,0.2
					c0.3,0,0.5,0,0.7-0.1c0.1,0,0.2-0.1,0.3-0.2c0.3-0.3,0.5-0.7,0.5-1.3v-3.8c0-0.8-0.4-1.7-1-2.6c0,0,0,0-0.1-0.1
					c-1.1-1.6-2-3.2-2.6-4.8c-0.6-1.6-0.9-3.2-0.9-4.7v-0.6c0-1.4-0.3-3-0.8-4.7c-0.4-1.3-1-2.6-1.7-3.9l-0.8-1.5
					c-1.7-3-4-5.7-6.5-7.6c-1.1-0.9-2.3-1.6-3.5-2.1l-0.4-0.2c-0.3-0.1-0.6-0.2-0.9-0.4c-0.6-0.2-1.1-0.4-1.7-0.5
					c-1.4-0.3-2.7-0.2-3.8,0.2c0,0-0.1,0-0.1,0c-2,0.8-3.7,2.1-5,3.8c-0.4,0.5-0.7,1-1,1.6c-0.4,0.6-0.7,1.3-0.9,1.9
					c-0.3,0.9-0.6,1.8-0.8,2.7l-0.8,3.4l-0.1,0.7c-0.2,0.9-1,1.3-2,0.9l-4.5-1.5c-11-3.6-12-2.8-22.8-12.7c-0.6-0.6-1.3-1.1-1.9-1.6
					c-1.2-0.9-2.4-1.6-3.6-2.2c-0.7-0.3-1.3-0.5-1.9-0.7c-0.1,0-0.1,0-0.2-0.1c-0.8-0.2-1.6-0.3-2.4-0.3
					C38.8,189.1,38.7,189.1,38.5,189.1"/>
			</defs>
			
				<linearGradient id="SVGID_69_" gradientUnits="userSpaceOnUse" x1="58.4489" y1="228.0877" x2="144.6915" y2="228.0877" gradientTransform="matrix(1 0 0 1 -32.8782 0)">
				<stop  offset="0" style="stop-color:#6ECA44"/>
				<stop  offset="1" style="stop-color:#86D776"/>
			</linearGradient>
			<use xlink:href="#SVGID_68_"  overflow="visible" fill="url(#SVGID_69_)"/>
			<clipPath id="SVGID_70_">
				<use xlink:href="#SVGID_68_"  overflow="visible"/>
			</clipPath>
		</g>
		<g>
			<defs>
				<path id="SVGID_71_" d="M98.1,186.8c-0.3,0.1-0.6,0.3-0.9,0.4c0,0,0,0,0,0l-0.9,0.5l-1.2,0.7l-1.9,1.1l-3.9,2.2
					c-0.7,0.3-1.4,0.7-2,1.2c0,0-0.1,0.1-0.1,0.1c1.1-0.4,2.4-0.5,3.8-0.2c0.5,0.1,1.1,0.3,1.7,0.5c0.3,0.1,0.6,0.2,0.9,0.4l0.4,0.2
					c1.2,0.5,2.4,1.3,3.5,2.1c2.5,1.9,4.8,4.6,6.5,7.6l0.8,1.5c0.7,1.3,1.3,2.6,1.7,3.9c0.5,1.6,0.8,3.2,0.8,4.7v0.6
					c0,1.5,0.3,3.1,0.9,4.7c0.6,1.6,1.5,3.3,2.6,4.8c0,0,0,0,0.1,0.1c0.6,0.9,1,1.8,1,2.6v3.8c0,0.6-0.2,1-0.5,1.3l2.4-1.3l0,0
					c0,0,0,0,0,0c0,0,0,0,0,0l0,0l0,0l6.7-3.8l1.7-0.9l0,0c0.5-0.2,0.7-0.7,0.7-1.4v-3.8c0-0.8-0.4-1.7-1-2.6
					c-2.2-3.2-3.3-7.4-3.3-10.3v-0.6c0-2.6-1.1-5-2.8-7.9l-0.8-1.5c-2.4-4.4-6.2-8-10-9.8l-0.4-0.2c-1.5-0.7-2.9-1-4.2-1
					C99.5,186.4,98.8,186.5,98.1,186.8"/>
			</defs>
			
				<linearGradient id="SVGID_72_" gradientUnits="userSpaceOnUse" x1="120.0288" y1="208.9641" x2="155.7096" y2="208.9641" gradientTransform="matrix(1 0 0 1 -32.8782 0)">
				<stop  offset="0" style="stop-color:#167E3D"/>
				<stop  offset="1" style="stop-color:#084823"/>
			</linearGradient>
			<use xlink:href="#SVGID_71_"  overflow="visible" fill="url(#SVGID_72_)"/>
			<clipPath id="SVGID_73_">
				<use xlink:href="#SVGID_71_"  overflow="visible"/>
			</clipPath>
		</g>
		<g>
			<path fill="#FFBC00" d="M113.7,230.2L113.7,230.2L113.7,230.2C113.7,230.2,113.7,230.2,113.7,230.2"/>
		</g>
	</g>
	<g>
		<defs>
			<path id="SVGID_74_" d="M218.4,238.1c-1.1,0.7-2.2,1.5-3.2,2.3c-0.1,0.1-0.2,0.2-0.4,0.3c-3.1,2.9-3.2,6.8-2.2,10.3
				c1.9,6.7,7.2,11.7,13.9,13.5c4.7,1.2,10.8,1.6,17.6-1.1c3-1.2,5-2.9,6.1-4.7c4.3-7.2-3.9-17.8-10-21l-0.3-0.1
				c-3.3-1.7-6.9-2.6-10.4-2.6C225.7,235,221.8,236.1,218.4,238.1"/>
		</defs>
		<linearGradient id="SVGID_75_" gradientUnits="userSpaceOnUse" x1="212.1373" y1="250.2859" x2="251.5132" y2="250.2859">
			<stop  offset="0" style="stop-color:#6ECA44"/>
			<stop  offset="1" style="stop-color:#86D776"/>
		</linearGradient>
		<use xlink:href="#SVGID_74_"  overflow="visible" fill="url(#SVGID_75_)"/>
		<clipPath id="SVGID_76_">
			<use xlink:href="#SVGID_74_"  overflow="visible"/>
		</clipPath>
	</g>
	<g>
		<defs>
			<path id="SVGID_77_" d="M249.3,254.1v13c0,0.4,0.3,0.7,0.7,0.7c0.4,0,0.7-0.3,0.7-0.7v-13c0-0.4-0.3-0.7-0.7-0.7
				C249.6,253.3,249.3,253.7,249.3,254.1"/>
		</defs>
		<linearGradient id="SVGID_78_" gradientUnits="userSpaceOnUse" x1="249.2855" y1="260.5713" x2="250.7237" y2="260.5713">
			<stop  offset="0" style="stop-color:#003366"/>
			<stop  offset="1" style="stop-color:#0066BA"/>
		</linearGradient>
		<use xlink:href="#SVGID_77_"  overflow="visible" fill="url(#SVGID_78_)"/>
		<clipPath id="SVGID_79_">
			<use xlink:href="#SVGID_77_"  overflow="visible"/>
		</clipPath>
	</g>
	<g>
		<defs>
			<path id="SVGID_80_" d="M240,255.7c0,4,3.2,7.2,7.2,7.2c4,0,7.2-3.2,7.2-7.2s-3.2-7.2-7.2-7.2C243.2,248.5,240,251.7,240,255.7"
				/>
		</defs>
		<linearGradient id="SVGID_81_" gradientUnits="userSpaceOnUse" x1="239.9591" y1="255.7291" x2="254.4148" y2="255.7291">
			<stop  offset="0" style="stop-color:#167E3D"/>
			<stop  offset="1" style="stop-color:#084823"/>
		</linearGradient>
		<use xlink:href="#SVGID_80_"  overflow="visible" fill="url(#SVGID_81_)"/>
		<clipPath id="SVGID_82_">
			<use xlink:href="#SVGID_80_"  overflow="visible"/>
		</clipPath>
	</g>
	<g>
		<defs>
			<path id="SVGID_83_" d="M230.8,259.9l-8.6,4.2c-0.2,0.1-0.4,0.4-0.4,0.6v7.6c0,0.4,0.3,0.7,0.7,0.7c0.4,0,0.7-0.3,0.7-0.7v-7.1
				l8.2-4c0.4-0.2,0.5-0.6,0.3-1c-0.1-0.3-0.4-0.4-0.6-0.4C231,259.8,230.9,259.9,230.8,259.9"/>
		</defs>
		<linearGradient id="SVGID_84_" gradientUnits="userSpaceOnUse" x1="228.8879" y1="260.5057" x2="219.377" y2="272.5131">
			<stop  offset="0" style="stop-color:#003366"/>
			<stop  offset="1" style="stop-color:#0066BA"/>
		</linearGradient>
		<use xlink:href="#SVGID_83_"  overflow="visible" fill="url(#SVGID_84_)"/>
		<clipPath id="SVGID_85_">
			<use xlink:href="#SVGID_83_"  overflow="visible"/>
		</clipPath>
	</g>
	<g>
		<defs>
			<path id="SVGID_86_" d="M221.5,256.3l-6.5,3.2c-0.2,0.1-0.4,0.4-0.4,0.6v8.9c0,0.4,0.3,0.7,0.7,0.7c0.4,0,0.7-0.3,0.7-0.7v-8.5
				l6.1-3c0.4-0.2,0.5-0.6,0.3-1c-0.1-0.3-0.4-0.4-0.6-0.4C221.7,256.2,221.6,256.2,221.5,256.3"/>
		</defs>
		<linearGradient id="SVGID_87_" gradientUnits="userSpaceOnUse" x1="222.2303" y1="255.8404" x2="212.7195" y2="267.8478">
			<stop  offset="0" style="stop-color:#003366"/>
			<stop  offset="1" style="stop-color:#0066BA"/>
		</linearGradient>
		<use xlink:href="#SVGID_86_"  overflow="visible" fill="url(#SVGID_87_)"/>
		<clipPath id="SVGID_88_">
			<use xlink:href="#SVGID_86_"  overflow="visible"/>
		</clipPath>
	</g>
	<g>
		<defs>
			<path id="SVGID_89_" d="M215.8,250.2l-6.5,3.2c-0.2,0.1-0.4,0.4-0.4,0.6v11.7c0,0.4,0.3,0.7,0.7,0.7c0.4,0,0.7-0.3,0.7-0.7v-11.3
				l6.1-3c0.4-0.2,0.5-0.6,0.3-1c-0.1-0.3-0.4-0.4-0.6-0.4C216,250.1,215.9,250.1,215.8,250.2"/>
		</defs>
		<linearGradient id="SVGID_90_" gradientUnits="userSpaceOnUse" x1="216.4844" y1="251.1692" x2="206.9736" y2="263.1767">
			<stop  offset="0" style="stop-color:#003366"/>
			<stop  offset="1" style="stop-color:#0066BA"/>
		</linearGradient>
		<use xlink:href="#SVGID_89_"  overflow="visible" fill="url(#SVGID_90_)"/>
		<clipPath id="SVGID_91_">
			<use xlink:href="#SVGID_89_"  overflow="visible"/>
		</clipPath>
	</g>
	<g>
		<defs>
			<path id="SVGID_92_" d="M181.2,259.6c0.6,0.3,1.1,0.8,1.7,1.2c0.1,0.1,0.1,0.1,0.2,0.2c1.6,1.5,1.6,3.5,1.1,5.4
				c-1,3.4-3.8,6.1-7.2,7c-2.4,0.6-5.6,0.8-9.1-0.6c-1.6-0.6-2.6-1.5-3.2-2.5c-2.2-3.7,2-9.2,5.2-10.9l0.1-0.1
				c1.7-0.9,3.5-1.3,5.4-1.3C177.4,258,179.4,258.5,181.2,259.6"/>
		</defs>
		
			<linearGradient id="SVGID_93_" gradientUnits="userSpaceOnUse" x1="-326.9955" y1="265.8857" x2="-306.6107" y2="265.8857" gradientTransform="matrix(-1 0 0 1 -142.5425 0)">
			<stop  offset="0" style="stop-color:#6E788C"/>
			<stop  offset="1" style="stop-color:#C8C8C8"/>
		</linearGradient>
		<use xlink:href="#SVGID_92_"  overflow="visible" fill="url(#SVGID_93_)"/>
		<clipPath id="SVGID_94_">
			<use xlink:href="#SVGID_92_"  overflow="visible"/>
		</clipPath>
	</g>
	<g>
		<defs>
			<path id="SVGID_95_" d="M165.2,267.8v6.8c0,0.2-0.2,0.4-0.4,0.4c-0.2,0-0.4-0.2-0.4-0.4v-6.8c0-0.2,0.2-0.4,0.4-0.4
				C165.1,267.5,165.2,267.6,165.2,267.8"/>
		</defs>
		
			<linearGradient id="SVGID_96_" gradientUnits="userSpaceOnUse" x1="-307.7639" y1="271.2104" x2="-307.0194" y2="271.2104" gradientTransform="matrix(-1 0 0 1 -142.5425 0)">
			<stop  offset="0" style="stop-color:#003366"/>
			<stop  offset="1" style="stop-color:#0066BA"/>
		</linearGradient>
		<use xlink:href="#SVGID_95_"  overflow="visible" fill="url(#SVGID_96_)"/>
		<clipPath id="SVGID_97_">
			<use xlink:href="#SVGID_95_"  overflow="visible"/>
		</clipPath>
	</g>
	<g>
		<defs>
			<path id="SVGID_98_" d="M170,268.7c0,2.1-1.7,3.7-3.7,3.7c-2.1,0-3.7-1.7-3.7-3.7c0-2.1,1.7-3.7,3.7-3.7
				C168.4,265,170,266.6,170,268.7"/>
		</defs>
		
			<linearGradient id="SVGID_99_" gradientUnits="userSpaceOnUse" x1="-312.5922" y1="268.7036" x2="-305.1085" y2="268.7036" gradientTransform="matrix(-1 0 0 1 -142.5425 0)">
			<stop  offset="0" style="stop-color:#6E788C"/>
			<stop  offset="1" style="stop-color:#C8C8C8"/>
		</linearGradient>
		<use xlink:href="#SVGID_98_"  overflow="visible" fill="url(#SVGID_99_)"/>
		<clipPath id="SVGID_100_">
			<use xlink:href="#SVGID_98_"  overflow="visible"/>
		</clipPath>
	</g>
	<g>
		<defs>
			<path id="SVGID_101_" d="M174.8,270.9l4.4,2.2c0.1,0.1,0.2,0.2,0.2,0.3v3.9c0,0.2-0.2,0.4-0.4,0.4c-0.2,0-0.4-0.2-0.4-0.4v-3.7
				l-4.2-2.1c-0.2-0.1-0.3-0.3-0.2-0.5c0.1-0.1,0.2-0.2,0.3-0.2C174.7,270.8,174.7,270.8,174.8,270.9"/>
		</defs>
		
			<linearGradient id="SVGID_102_" gradientUnits="userSpaceOnUse" x1="-318.3237" y1="271.1765" x2="-323.2475" y2="277.3927" gradientTransform="matrix(-1 0 0 1 -142.5425 0)">
			<stop  offset="0" style="stop-color:#003366"/>
			<stop  offset="1" style="stop-color:#0066BA"/>
		</linearGradient>
		<use xlink:href="#SVGID_101_"  overflow="visible" fill="url(#SVGID_102_)"/>
		<clipPath id="SVGID_103_">
			<use xlink:href="#SVGID_101_"  overflow="visible"/>
		</clipPath>
	</g>
	<g>
		<defs>
			<path id="SVGID_104_" d="M179.6,269l3.4,1.6c0.1,0.1,0.2,0.2,0.2,0.3v4.6c0,0.2-0.2,0.4-0.4,0.4c-0.2,0-0.4-0.2-0.4-0.4v-4.4
				l-3.1-1.5c-0.2-0.1-0.3-0.3-0.2-0.5c0.1-0.1,0.2-0.2,0.3-0.2C179.5,269,179.5,269,179.6,269"/>
		</defs>
		
			<linearGradient id="SVGID_105_" gradientUnits="userSpaceOnUse" x1="-321.7704" y1="268.7613" x2="-326.6941" y2="274.9775" gradientTransform="matrix(-1 0 0 1 -142.5425 0)">
			<stop  offset="0" style="stop-color:#003366"/>
			<stop  offset="1" style="stop-color:#0066BA"/>
		</linearGradient>
		<use xlink:href="#SVGID_104_"  overflow="visible" fill="url(#SVGID_105_)"/>
		<clipPath id="SVGID_106_">
			<use xlink:href="#SVGID_104_"  overflow="visible"/>
		</clipPath>
	</g>
	<g>
		<defs>
			<path id="SVGID_107_" d="M182.6,265.8l3.4,1.6c0.1,0.1,0.2,0.2,0.2,0.3v6.1c0,0.2-0.2,0.4-0.4,0.4c-0.2,0-0.4-0.2-0.4-0.4V268
				l-3.1-1.5c-0.2-0.1-0.3-0.3-0.2-0.5c0.1-0.1,0.2-0.2,0.3-0.2C182.5,265.8,182.5,265.8,182.6,265.8"/>
		</defs>
		
			<linearGradient id="SVGID_108_" gradientUnits="userSpaceOnUse" x1="-324.745" y1="266.343" x2="-329.6688" y2="272.5592" gradientTransform="matrix(-1 0 0 1 -142.5425 0)">
			<stop  offset="0" style="stop-color:#003366"/>
			<stop  offset="1" style="stop-color:#0066BA"/>
		</linearGradient>
		<use xlink:href="#SVGID_107_"  overflow="visible" fill="url(#SVGID_108_)"/>
		<clipPath id="SVGID_109_">
			<use xlink:href="#SVGID_107_"  overflow="visible"/>
		</clipPath>
	</g>
	<g>
		<g>
			<defs>
				<path id="SVGID_110_" d="M87.5,88.3v48.2c0,0.5,0.3,0.9,0.7,1.2l0,0c0,0,0,0,0.1,0l2,1.1c-0.3-0.2-0.6-0.6-0.6-1.1l0,0
					c0,0,0,0,0,0V89.5c0-0.2,0.1-0.5,0.2-0.7l-2.1-1.2C87.6,87.8,87.5,88.1,87.5,88.3"/>
			</defs>
			<linearGradient id="SVGID_111_" gradientUnits="userSpaceOnUse" x1="88.8908" y1="134.1792" x2="88.8908" y2="88.0763">
				<stop  offset="0" style="stop-color:#6E788C"/>
				<stop  offset="1" style="stop-color:#C8C8C8"/>
			</linearGradient>
			<use xlink:href="#SVGID_110_"  overflow="visible" fill="url(#SVGID_111_)"/>
			<clipPath id="SVGID_112_">
				<use xlink:href="#SVGID_110_"  overflow="visible"/>
			</clipPath>
		</g>
		<g>
			<defs>
				<path id="SVGID_113_" d="M238.5,0.2L88.2,87.1c-0.2,0.1-0.4,0.3-0.5,0.6l2.1,1.2c0.1-0.2,0.3-0.4,0.5-0.6L240.6,1.4c0,0,0,0,0,0
					v0h0c0.4-0.3,0.9-0.2,1.3,0l-2-1.2c0,0,0,0,0,0l0,0c-0.2-0.1-0.4-0.2-0.7-0.2C239,0,238.7,0.1,238.5,0.2"/>
			</defs>
			<linearGradient id="SVGID_114_" gradientUnits="userSpaceOnUse" x1="195.7902" y1="26.4154" x2="106.4075" y2="77.9716">
				<stop  offset="0" style="stop-color:#6E788C"/>
				<stop  offset="1" style="stop-color:#C8C8C8"/>
			</linearGradient>
			<use xlink:href="#SVGID_113_"  overflow="visible" fill="url(#SVGID_114_)"/>
			<clipPath id="SVGID_115_">
				<use xlink:href="#SVGID_113_"  overflow="visible"/>
			</clipPath>
		</g>
		<g>
			<defs>
				<path id="SVGID_116_" d="M240.6,1.4C240.6,1.4,240.6,1.4,240.6,1.4C240.6,1.4,240.6,1.4,240.6,1.4L90.3,88.3
					c-0.2,0.1-0.4,0.3-0.5,0.6c-0.1,0.2-0.2,0.4-0.2,0.7v48.2c0,0,0,0,0,0c0,0.5,0.3,0.9,0.6,1.1l0.2,0.1c0.4,0.2,0.9,0.2,1.3-0.1
					L242,52c0.4-0.3,0.7-0.7,0.7-1.2V2.6c0-0.5-0.3-1-0.7-1.2l-0.1,0c-0.2-0.1-0.4-0.2-0.7-0.2C241.1,1.2,240.8,1.3,240.6,1.4"/>
			</defs>
			<linearGradient id="SVGID_117_" gradientUnits="userSpaceOnUse" x1="89.6351" y1="70.1526" x2="242.7203" y2="70.1526">
				<stop  offset="0" style="stop-color:#6E788C"/>
				<stop  offset="1" style="stop-color:#C8C8C8"/>
			</linearGradient>
			<use xlink:href="#SVGID_116_"  overflow="visible" fill="url(#SVGID_117_)"/>
			<clipPath id="SVGID_118_">
				<use xlink:href="#SVGID_116_"  overflow="visible"/>
			</clipPath>
		</g>
		<g>
			<g>
				<defs>
					<path id="SVGID_119_" d="M116.1,103v48.2c0,0.5,0.3,0.9,0.7,1.2l0,0c0,0,0,0,0.1,0l2,1.1c-0.3-0.2-0.6-0.6-0.6-1.1l0,0
						c0,0,0,0,0,0v-48.2c0-0.2,0.1-0.5,0.2-0.7l-2.1-1.2C116.2,102.6,116.1,102.8,116.1,103"/>
				</defs>
				<linearGradient id="SVGID_120_" gradientUnits="userSpaceOnUse" x1="116.0978" y1="127.9915" x2="118.8115" y2="127.9915">
					<stop  offset="0" style="stop-color:#003366"/>
					<stop  offset="1" style="stop-color:#0066BA"/>
				</linearGradient>
				<use xlink:href="#SVGID_119_"  overflow="visible" fill="url(#SVGID_120_)"/>
				<clipPath id="SVGID_121_">
					<use xlink:href="#SVGID_119_"  overflow="visible"/>
				</clipPath>
			</g>
			<g>
				<defs>
					<path id="SVGID_122_" d="M267.1,14.9l-150.3,86.9c-0.2,0.1-0.4,0.3-0.5,0.6l2.1,1.2c0.1-0.2,0.3-0.4,0.5-0.6l150.3-86.9
						c0,0,0,0,0,0v0h0c0.4-0.3,0.9-0.2,1.3,0l-2-1.2c0,0,0,0,0,0l0,0c-0.2-0.1-0.4-0.2-0.7-0.2C267.5,14.7,267.3,14.8,267.1,14.9"/>
				</defs>
				<linearGradient id="SVGID_123_" gradientUnits="userSpaceOnUse" x1="116.2537" y1="59.173" x2="270.5268" y2="59.173">
					<stop  offset="0" style="stop-color:#003366"/>
					<stop  offset="1" style="stop-color:#0066BA"/>
				</linearGradient>
				<use xlink:href="#SVGID_122_"  overflow="visible" fill="url(#SVGID_123_)"/>
				<clipPath id="SVGID_124_">
					<use xlink:href="#SVGID_122_"  overflow="visible"/>
				</clipPath>
			</g>
			<g>
				<defs>
					<path id="SVGID_125_" d="M269.2,16.1C269.2,16.1,269.2,16.1,269.2,16.1C269.2,16.1,269.2,16.2,269.2,16.1L118.9,103
						c-0.2,0.1-0.4,0.3-0.5,0.6c-0.1,0.2-0.2,0.4-0.2,0.7v48.2c0,0,0,0,0,0c0,0.5,0.3,0.9,0.6,1.1l0.2,0.1c0.4,0.2,0.9,0.2,1.3-0.1
						l150.3-86.9c0.4-0.3,0.7-0.7,0.7-1.2V17.4c0-0.5-0.3-1-0.7-1.2c0,0,0,0-0.1,0c-0.2-0.1-0.4-0.2-0.7-0.2
						C269.6,16,269.4,16,269.2,16.1"/>
				</defs>
				<linearGradient id="SVGID_126_" gradientUnits="userSpaceOnUse" x1="118.1989" y1="84.9029" x2="271.2841" y2="84.9029">
					<stop  offset="0" style="stop-color:#003366"/>
					<stop  offset="1" style="stop-color:#0066BA"/>
				</linearGradient>
				<use xlink:href="#SVGID_125_"  overflow="visible" fill="url(#SVGID_126_)"/>
				<clipPath id="SVGID_127_">
					<use xlink:href="#SVGID_125_"  overflow="visible"/>
				</clipPath>
			</g>
			<path fill="#FFFFFF" d="M155.1,108.3c0,4.1-3.3,9.3-7.4,11.6c-4.1,2.4-7.4,1-7.4-3.1c0-4.1,3.3-9.3,7.4-11.6
				C151.8,102.8,155.1,104.2,155.1,108.3"/>
			<path fill="#FFFFFF" d="M179.4,95c0,4.1-3.3,9.3-7.4,11.6c-4.1,2.4-7.4,1-7.4-3.1c0-4.1,3.3-9.3,7.4-11.6
				C176.1,89.5,179.4,90.9,179.4,95"/>
			<path fill="#FFFFFF" d="M203.6,81c0,4.1-3.3,9.3-7.4,11.6c-4.1,2.4-7.4,1-7.4-3.1c0-4.1,3.3-9.3,7.4-11.6
				C200.3,75.5,203.6,76.9,203.6,81"/>
			<path fill="#FFFFFF" d="M227.9,66.9c0,4.1-3.3,9.3-7.4,11.6c-4.1,2.4-7.4,1-7.4-3.1s3.3-9.3,7.4-11.6
				C224.6,61.5,227.9,62.9,227.9,66.9"/>
			<path fill="#FFFFFF" d="M252.1,53c0,4.1-3.3,9.3-7.4,11.6c-4.1,2.4-7.4,1-7.4-3.1s3.3-9.3,7.4-11.6C248.8,47.6,252.1,49,252.1,53
				"/>
			<g>
				<defs>
					<path id="SVGID_128_" d="M236.6,76.2V108c0,0.3,0.2,0.6,0.4,0.8l0,0c0,0,0,0,0,0l2,1.2c-0.2-0.2-0.4-0.4-0.4-0.7V77.4
						c0-0.2,0.1-0.4,0.2-0.5l-2.2-1.1C236.7,75.9,236.6,76,236.6,76.2"/>
				</defs>
				<linearGradient id="SVGID_129_" gradientUnits="userSpaceOnUse" x1="237.9004" y1="109.3214" x2="237.9004" y2="77.8804">
					<stop  offset="0" style="stop-color:#6ECA44"/>
					<stop  offset="1" style="stop-color:#86D776"/>
				</linearGradient>
				<use xlink:href="#SVGID_128_"  overflow="visible" fill="url(#SVGID_129_)"/>
				<clipPath id="SVGID_130_">
					<use xlink:href="#SVGID_128_"  overflow="visible"/>
				</clipPath>
			</g>
			<g>
				<defs>
					<path id="SVGID_131_" d="M287.3,46.2l-50.2,29.2c-0.2,0.1-0.3,0.2-0.4,0.4l2.2,1.1c0.1-0.1,0.2-0.2,0.3-0.3l50.2-29.2
						c0.3-0.2,0.6-0.2,0.8,0l-2-1.2c0,0,0,0,0,0l0,0v0c-0.1-0.1-0.3-0.1-0.5-0.1C287.6,46.1,287.4,46.1,287.3,46.2"/>
				</defs>
				<linearGradient id="SVGID_132_" gradientUnits="userSpaceOnUse" x1="284.9836" y1="48.968" x2="237.5431" y2="76.5021">
					<stop  offset="0" style="stop-color:#6ECA44"/>
					<stop  offset="1" style="stop-color:#86D776"/>
				</linearGradient>
				<use xlink:href="#SVGID_131_"  overflow="visible" fill="url(#SVGID_132_)"/>
				<clipPath id="SVGID_133_">
					<use xlink:href="#SVGID_131_"  overflow="visible"/>
				</clipPath>
			</g>
			<g>
				<defs>
					<path id="SVGID_134_" d="M289.4,47.4l-50.2,29.2c-0.1,0.1-0.2,0.2-0.3,0.3c-0.1,0.1-0.2,0.3-0.2,0.5v31.9
						c0,0.3,0.2,0.6,0.4,0.7l0.2,0.1c0,0,0,0,0,0c0.3,0.1,0.6,0.1,0.8-0.1l50.2-29.2c0.3-0.2,0.5-0.5,0.5-0.8V48.2
						c0-0.4-0.2-0.7-0.6-0.9c-0.1-0.1-0.2-0.1-0.4-0.1C289.7,47.3,289.5,47.3,289.4,47.4"/>
				</defs>
				<linearGradient id="SVGID_135_" gradientUnits="userSpaceOnUse" x1="238.7756" y1="78.7453" x2="290.7934" y2="78.7453">
					<stop  offset="0" style="stop-color:#6ECA44"/>
					<stop  offset="1" style="stop-color:#86D776"/>
				</linearGradient>
				<use xlink:href="#SVGID_134_"  overflow="visible" fill="url(#SVGID_135_)"/>
				<clipPath id="SVGID_136_">
					<use xlink:href="#SVGID_134_"  overflow="visible"/>
				</clipPath>
			</g>
			<linearGradient id="SVGID_137_" gradientUnits="userSpaceOnUse" x1="284.2726" y1="74.6049" x2="284.2726" y2="101.3419">
				<stop  offset="0" style="stop-color:#969696"/>
				<stop  offset="1" style="stop-color:#C8C8C8"/>
			</linearGradient>
			<path fill="url(#SVGID_137_)" d="M297.4,80l-1.3-0.6c0,0-0.1,0-0.1-0.1l-23-6.5c-0.7-0.2-1.8,1-1.8,1.9v29.3
				c0,0.4,0.2,0.6,0.4,0.6l0,0l3.7,1l-0.2-1c0.2-0.2,0.3-0.3,0.5-0.6l1.2-19.1c0.2-0.4,2.2-3.9,2.5-4l16,0.7c0.6-0.3,1-1,1.1-1.5
				C296.8,80.1,297.4,80,297.4,80"/>
			<g>
				<defs>
					<path id="SVGID_138_" d="M274.8,75.8v29.3c0,1,1.3,0.8,1.9-0.4l8-13.5c0.2-0.4,0.5-0.7,0.8-0.8l13.3-7.7c1-0.6,1.5-2.1,0.7-2.4
						l-23-6.5c-0.1,0-0.1,0-0.2,0C275.7,73.9,274.8,74.9,274.8,75.8"/>
				</defs>
				<linearGradient id="SVGID_139_" gradientUnits="userSpaceOnUse" x1="274.7724" y1="89.8366" x2="300.0003" y2="89.8366">
					<stop  offset="0" style="stop-color:#969696"/>
					<stop  offset="1" style="stop-color:#C8C8C8"/>
				</linearGradient>
				<use xlink:href="#SVGID_138_"  overflow="visible" fill="url(#SVGID_139_)"/>
				<clipPath id="SVGID_140_">
					<use xlink:href="#SVGID_138_"  overflow="visible"/>
				</clipPath>
			</g>
		</g>
	</g>
</g>
</svg>
