<?xml version="1.0" encoding="utf-8"?>
<!-- Generator: Adobe Illustrator 19.2.0, SVG Export Plug-In . SVG Version: 6.00 Build 0)  -->
<svg version="1.1" id="Ebene_1" xmlns="http://www.w3.org/2000/svg" xmlns:xlink="http://www.w3.org/1999/xlink" x="0px" y="0px"
	 width="110.6px" height="82px" viewBox="0 0 110.6 82" style="enable-background:new 0 0 110.6 82;" xml:space="preserve">
<style type="text/css">
	.st0{fill:#79B540;}
	.st1{fill:#004C90;}
</style>
<g>
	<path class="st0" d="M16.7,40.9c-0.2,0-0.5-0.1-0.6-0.2c-5-4.2-7.8-10.3-7.8-16.8C8.2,11.9,18,2.1,30,2.1c8.9,0,16.8,5.3,20.2,13.6
		l-1.9,0.8C45.3,8.9,38.1,4.1,30,4.1c-10.9,0-19.8,8.9-19.8,19.8c0,5.9,2.6,11.4,7.1,15.2l-0.5,0.6l0.2,1.1l-0.2,0
		C16.8,40.9,16.7,40.9,16.7,40.9z"/>
	<path class="st0" d="M62.1,65.7H48.5c-0.3,0-0.6-0.1-0.8-0.4c-0.2-0.2-0.3-0.5-0.2-0.8l2.9-14.2c-1.8-1.5-2.9-3.7-2.9-6.1
		c0-4.3,3.5-7.8,7.8-7.8s7.8,3.5,7.8,7.8c0,2.4-1.1,4.6-2.9,6.1l2.9,14.2c0.1,0.3,0,0.6-0.2,0.8C62.7,65.6,62.4,65.7,62.1,65.7z
		 M49.7,63.7h11.2l-2.7-13.6c-0.1-0.4,0.1-0.8,0.4-1c1.6-1.1,2.5-2.9,2.5-4.8c0-3.2-2.6-5.8-5.8-5.8s-5.8,2.6-5.8,5.8
		c0,1.9,1,3.7,2.5,4.8c0.3,0.2,0.5,0.6,0.4,1L49.7,63.7z"/>
	<path class="st1" d="M92.1,79.9H20.7C9.3,79.9,0,70.6,0,59.2c0-9.6,6.7-18,16-20.2C17.2,32.1,23.3,27,30.4,27c1.7,0,3.4,0.3,5,0.9
		c5.9-10.1,16.8-16.3,28.5-16.3c17.8,0,32.5,14.3,33.1,32c8,2.2,13.6,9.4,13.6,17.9C110.6,71.6,102.3,79.9,92.1,79.9z M30.4,29
		c-6.3,0-11.7,4.7-12.6,11c-0.1,0.4-0.4,0.8-0.8,0.9C8.3,42.6,2,50.3,2,59.2c0,10.3,8.4,18.7,18.7,18.7h71.4
		c9.1,0,16.5-7.4,16.5-16.5c0-7.7-5.3-14.4-12.8-16.1c-0.5-0.1-0.8-0.5-0.8-1c-0.2-17-14.1-30.8-31.1-30.8
		c-11.3,0-21.8,6.2-27.2,16.1c-0.2,0.4-0.8,0.6-1.3,0.4C33.8,29.3,32.2,29,30.4,29z"/>
</g>
</svg>
