<?xml version="1.0" encoding="utf-8"?>
<!-- Generator: Adobe Illustrator 22.0.0, SVG Export Plug-In . SVG Version: 6.00 Build 0)  -->
<svg version="1.0" id="Ebene_1" xmlns="http://www.w3.org/2000/svg" xmlns:xlink="http://www.w3.org/1999/xlink" x="0px" y="0px"
	 width="250px" height="auto" viewBox="0 0 300 294.1" enable-background="new 0 0 300 294.1" xml:space="preserve">
<g>
	<g>
		<g>
			<defs>
				<path id="SVGID_1_" d="M218.1,222v36c0,12-4.7,20.1-12.4,23.7l0,0l-16.9,9.7l0,0c7-3.8,11.2-11.7,11.2-23.1v-39.2
					c0-1.6-0.4-3.2-1.2-4.6l17.6-9.3C217.5,217.3,218.1,219.6,218.1,222"/>
			</defs>

				<linearGradient id="SVGID_2_" gradientUnits="userSpaceOnUse" x1="310.4086" y1="281.9648" x2="310.4086" y2="221.6211" gradientTransform="matrix(-1 0 0 1 513.8862 0)">
				<stop  offset="0" style="stop-color:#6E788C"/>
				<stop  offset="1" style="stop-color:#C8C8C8"/>
			</linearGradient>
			<use xlink:href="#SVGID_1_"  overflow="visible" fill="url(#SVGID_2_)"/>
			<clipPath id="SVGID_3_">
				<use xlink:href="#SVGID_1_"  overflow="visible"/>
			</clipPath>
		</g>
		<g>
			<defs>
				<path id="SVGID_4_" d="M142,169.7l68.7,39.5c2.5,1.4,4.5,3.5,5.8,6l-17.6,9.3c-0.8-1.4-2-2.6-3.5-3.5L122.3,179
					c-0.9-0.5-1.9-0.7-2.8-0.5l15.4-8.8c1.1-0.6,2.3-0.9,3.5-0.9C139.6,168.7,140.9,169.1,142,169.7"/>
			</defs>

				<linearGradient id="SVGID_5_" gradientUnits="userSpaceOnUse" x1="386.1606" y1="175.0451" x2="302.1486" y2="218.5437" gradientTransform="matrix(-1 0 0 1 513.8862 0)">
				<stop  offset="0" style="stop-color:#6E788C"/>
				<stop  offset="1" style="stop-color:#C8C8C8"/>
			</linearGradient>
			<use xlink:href="#SVGID_4_"  overflow="visible" fill="url(#SVGID_5_)"/>
			<clipPath id="SVGID_6_">
				<use xlink:href="#SVGID_4_"  overflow="visible"/>
			</clipPath>
		</g>
		<g>
			<defs>
				<path id="SVGID_7_" d="M122.3,179l73.1,42.1c1.5,0.8,2.6,2.1,3.5,3.5c0.8,1.4,1.2,3,1.2,4.6v39.2c0,11.3-4.2,19.2-11.2,23.1
					c-8.2,4.5-20.1,3.4-33.4-4.2c-24.6-14.2-39.6-42.8-39.6-67.4v-37.1c0-2.3,1.7-3.9,3.6-4.3c0.2,0,0.5-0.1,0.7-0.1
					C120.9,178.4,121.6,178.6,122.3,179"/>
			</defs>

				<linearGradient id="SVGID_8_" gradientUnits="userSpaceOnUse" x1="313.849" y1="236.2491" x2="398.0149" y2="236.2491" gradientTransform="matrix(-1 0 0 1 513.8862 0)">
				<stop  offset="0" style="stop-color:#6ECA44"/>
				<stop  offset="1" style="stop-color:#86D776"/>
			</linearGradient>
			<use xlink:href="#SVGID_7_"  overflow="visible" fill="url(#SVGID_8_)"/>
			<clipPath id="SVGID_9_">
				<use xlink:href="#SVGID_7_"  overflow="visible"/>
			</clipPath>
		</g>
		<g>
			<defs>
				<path id="SVGID_10_" d="M154.9,221.2c7.3,4.2,13.2,13.5,13.2,20.8c0,4.3-2.1,7-5.3,7.5v10.6c0,4.4-3.5,5.9-7.9,3.3
					c-4.4-2.5-7.9-8.1-7.9-12.5v-10.6c-3.2-4.3-5.3-9.3-5.3-13.6c0-4.9,2.7-7.6,6.6-7.6C150.2,219.2,152.5,219.8,154.9,221.2"/>
			</defs>

				<linearGradient id="SVGID_11_" gradientUnits="userSpaceOnUse" x1="368.9576" y1="246.3911" x2="347.7497" y2="234.9958" gradientTransform="matrix(-1 0 0 1 513.8862 0)">
				<stop  offset="0" style="stop-color:#167E3D"/>
				<stop  offset="1" style="stop-color:#084823"/>
			</linearGradient>
			<use xlink:href="#SVGID_10_"  overflow="visible" fill="url(#SVGID_11_)"/>
			<clipPath id="SVGID_12_">
				<use xlink:href="#SVGID_10_"  overflow="visible"/>
			</clipPath>
		</g>
	</g>
	<g>
		<defs>
			<path id="SVGID_13_" d="M144.7,12c-22.1,12.8-42.1,33.5-56.2,56.5c-6.7,1.6-13.9,4.6-21.3,8.9C30.1,98.8,0,146.3,0,183.4
				c0,16.5,6,28.2,15.8,34.2l0,0l19.9,12.6l2.8-8.2c8.7-0.9,18.4-4.2,28.7-10.1c13.8-8,26.6-19.5,37.3-32.8
				c11.7,0.4,25.5-3.5,40.3-12c16.3-9.4,31.4-23.1,43.9-38.9c9.6,2.9,22.3,0.7,36.1-7.3c30.3-17.5,54.8-56.1,54.8-86.4
				c0-7.2-1.4-13.3-3.9-18.1l13.6,4.6L267.7,7.4v0c-10-6.9-25.6-6.1-43,4c-2,1.1-3.9,2.4-5.8,3.7L206.5,7c-1.2-0.9-2.4-1.7-3.7-2.4
				l0,0v0C197.2,1.6,190.7,0,183.4,0C172,0,158.8,3.9,144.7,12"/>
		</defs>
		<linearGradient id="SVGID_14_" gradientUnits="userSpaceOnUse" x1="188.9987" y1="62.8847" x2="104.8362" y2="127.9791">
			<stop  offset="0" style="stop-color:#003366"/>
			<stop  offset="1" style="stop-color:#0066BA"/>
		</linearGradient>
		<use xlink:href="#SVGID_13_"  overflow="visible" fill="url(#SVGID_14_)"/>
		<clipPath id="SVGID_15_">
			<use xlink:href="#SVGID_13_"  overflow="visible"/>
		</clipPath>
	</g>
	<g>
		<defs>
			<path id="SVGID_16_" d="M165.2,25c-22.1,12.8-42.1,33.5-56.2,56.5c-6.7,1.6-13.9,4.6-21.3,8.9c-37.1,21.4-67.2,68.9-67.2,106
				c0,37.1,30.1,49.8,67.2,28.4c13.8-8,26.6-19.5,37.3-32.8c11.7,0.4,25.5-3.5,40.3-12c16.3-9.4,31.4-23.1,43.9-38.9
				c9.6,2.9,22.3,0.7,36.1-7.3c30.3-17.5,54.8-56.1,54.8-86.4c0-30.3-24.5-40.6-54.8-23.1c-3.1,1.8-6.1,3.8-9,6
				C229.5,19,218.1,13,203.9,13C192.6,13,179.3,16.8,165.2,25"/>
		</defs>
		<linearGradient id="SVGID_17_" gradientUnits="userSpaceOnUse" x1="20.5366" y1="124.061" x2="300" y2="124.061">
			<stop  offset="0" style="stop-color:#003366"/>
			<stop  offset="1" style="stop-color:#0066BA"/>
		</linearGradient>
		<use xlink:href="#SVGID_16_"  overflow="visible" fill="url(#SVGID_17_)"/>
		<clipPath id="SVGID_18_">
			<use xlink:href="#SVGID_16_"  overflow="visible"/>
		</clipPath>
	</g>
	<g>
		<defs>
			<path id="SVGID_19_" d="M158.7,123.3c-4.8,2.8-8.7,9-8.7,13.8c0,3,1.6,4.8,3.9,5c0.5,0,0.9,0,1.5-0.1c0,0,0,0,0,0
				c1-0.2,2.2-0.6,3.4-1.3c4.8-2.8,8.8-9,8.8-13.8c0-2.6-1.1-4.3-3-4.8c-0.3-0.1-0.6-0.2-0.9-0.2h0c-0.1,0-0.3,0-0.5,0
				C161.8,121.9,160.3,122.4,158.7,123.3"/>
		</defs>
		<use xlink:href="#SVGID_19_"  overflow="visible" fill="#003266"/>
		<clipPath id="SVGID_20_">
			<use xlink:href="#SVGID_19_"  overflow="visible"/>
		</clipPath>
	</g>
	<g>
		<defs>
			<path id="SVGID_21_" d="M158.7,126.3c-3.1,1.8-5.7,5.8-5.7,9c0,2,1,3.1,2.5,3.3c0.3,0,0.6,0,0.9,0c0,0,0,0,0,0c0,0,0.1,0,0.1,0
				c3,0,6.6,1,10.3,3.2c5.7,3.3,10.9,8.6,14.6,14.5c3.7,5.9,6.1,12.4,6.1,18.1v35.3c0,0,0,0,0,0.1c0,1.1,0.7,2.2,2.2,3.1
				c1.5,0.8,3.4,1.3,5.3,1.2h0c0.9,0,1.7-0.1,2.5-0.3c0.9-0.2,1.8-0.5,2.6-1c1.4-0.8,2.2-1.9,2.2-3v-27c0-9.8-2.7-22-9.1-32.2
				c-6.4-10.1-13.2-17.7-26.3-23.7c-1.4-0.7-2.9-1.1-4.5-1.5c-0.2,0-0.4-0.1-0.6-0.1h0c-0.1,0-0.2,0-0.3,0
				C160.7,125.5,159.7,125.7,158.7,126.3"/>
		</defs>
		<linearGradient id="SVGID_22_" gradientUnits="userSpaceOnUse" x1="188.8686" y1="208.8732" x2="179.964" y2="167.0488">
			<stop  offset="0" style="stop-color:#6E788C"/>
			<stop  offset="1" style="stop-color:#C8C8C8"/>
		</linearGradient>
		<use xlink:href="#SVGID_21_"  overflow="visible" fill="url(#SVGID_22_)"/>
		<clipPath id="SVGID_23_">
			<use xlink:href="#SVGID_21_"  overflow="visible"/>
		</clipPath>
	</g>
</g>
</svg>
