<?xml version="1.0" encoding="utf-8"?>
<!-- Generator: Adobe Illustrator 22.0.0, SVG Export Plug-In . SVG Version: 6.00 Build 0)  -->
<svg version="1.1" id="Ebene_1" xmlns="http://www.w3.org/2000/svg" xmlns:xlink="http://www.w3.org/1999/xlink" x="0px" y="0px"
	 width="350px" height="320px" viewBox="0 0 350 320" style="enable-background:new 0 0 350 320;" xml:space="preserve">
<style type="text/css">
	.st0{fill:url(#SVGID_2_);}
	.st1{fill:none;stroke:url(#SVGID_3_);stroke-width:1.8745;stroke-miterlimit:10;}
	.st2{fill:none;stroke:url(#SVGID_4_);stroke-width:1.8745;stroke-miterlimit:10;}
	.st3{fill:none;stroke:url(#SVGID_5_);stroke-width:1.8745;stroke-miterlimit:10;}
	.st4{fill:none;stroke:url(#SVGID_6_);stroke-width:1.8745;stroke-miterlimit:10;}
	.st5{fill:none;stroke:url(#SVGID_7_);stroke-width:1.8745;stroke-miterlimit:10;}
	.st6{fill:none;stroke:url(#SVGID_8_);stroke-width:1.8745;stroke-miterlimit:10;}
	.st7{fill:#FFD0A4;}
	.st8{fill:#707A8D;}
	.st9{fill:#FF4B5F;}
	.st10{fill:url(#SVGID_9_);}
	.st11{fill:url(#SVGID_11_);}
	.st12{fill:url(#SVGID_13_);}
	.st13{fill:url(#SVGID_14_);}
	.st14{fill:url(#SVGID_15_);}
	.st15{fill:url(#SVGID_17_);}
	.st16{fill:url(#SVGID_19_);}
	.st17{fill:url(#SVGID_21_);}
	.st18{fill:#116632;}
	.st19{fill:#FFBC00;}
	.st20{fill:url(#SVGID_23_);}
	.st21{fill:#0A4F26;}
	.st22{fill:url(#SVGID_25_);}
	.st23{fill:url(#SVGID_26_);}
	.st24{fill:#453131;}
	.st25{fill:url(#SVGID_28_);}
	.st26{fill:#167E3D;}
	.st27{fill:url(#SVGID_29_);}
	.st28{fill:url(#SVGID_31_);}
	.st29{fill:url(#SVGID_32_);}
	.st30{fill:url(#SVGID_34_);}
	.st31{fill:url(#SVGID_35_);}
	.st32{fill:url(#SVGID_36_);}
	.st33{fill:url(#SVGID_38_);}
	.st34{fill:url(#SVGID_39_);}
	.st35{fill:url(#SVGID_41_);}
	.st36{fill:url(#SVGID_42_);}
	.st37{fill:url(#SVGID_44_);}
	.st38{fill:url(#SVGID_45_);}
	.st39{fill:url(#SVGID_47_);}
	.st40{fill:url(#SVGID_49_);}
	.st41{fill:url(#SVGID_51_);}
	.st42{fill:url(#SVGID_52_);}
	.st43{fill:url(#SVGID_54_);}
	.st44{fill:url(#SVGID_55_);}
	.st45{fill:url(#SVGID_56_);}
	.st46{fill:url(#SVGID_58_);}
	.st47{fill:#FFFFFF;}
	.st48{fill:url(#SVGID_59_);}
	.st49{fill:url(#SVGID_61_);}
	.st50{fill:url(#SVGID_62_);}
	.st51{fill:url(#SVGID_64_);}
	.st52{fill:url(#SVGID_65_);}
</style>
<g>
	<g>
		<g>

				<linearGradient id="SVGID_2_" gradientUnits="userSpaceOnUse" x1="37.2" y1="193.9256" x2="272.6" y2="193.9256" gradientTransform="matrix(1 0 0 -1 0 321.6756)">
				<stop  offset="0" style="stop-color:#003366"/>
				<stop  offset="1" style="stop-color:#0066BA"/>
			</linearGradient>
			<path id="SVGID_1_" class="st0" d="M37.2,127.8c0,65,52.7,117.7,117.7,117.7s117.7-52.7,117.7-117.7S219.9,10,154.9,10
				S37.2,62.7,37.2,127.8"/>
		</g>
	</g>
	<g>

			<linearGradient id="SVGID_3_" gradientUnits="userSpaceOnUse" x1="36.2628" y1="193.9755" x2="273.5373" y2="193.9755" gradientTransform="matrix(1 0 0 -1 0 321.6756)">
			<stop  offset="0" style="stop-color:#B2B2B2"/>
			<stop  offset="5.778944e-02" style="stop-color:#BABABA"/>
			<stop  offset="0.2807" style="stop-color:#D4D4D4"/>
			<stop  offset="0.5095" style="stop-color:#E7E7E7"/>
			<stop  offset="0.7455" style="stop-color:#F2F2F2"/>
			<stop  offset="1" style="stop-color:#F6F6F6"/>
		</linearGradient>
		<path class="st1" d="M272.6,127.7c0-65-52.7-117.7-117.7-117.7S37.2,62.7,37.2,127.7s52.7,117.7,117.7,117.7
			C219.9,245.5,272.6,192.8,272.6,127.7z"/>

			<linearGradient id="SVGID_4_" gradientUnits="userSpaceOnUse" x1="85.8627" y1="193.9756" x2="223.9373" y2="193.9756" gradientTransform="matrix(1 0 0 -1 0 321.6756)">
			<stop  offset="0" style="stop-color:#B2B2B2"/>
			<stop  offset="5.778944e-02" style="stop-color:#BABABA"/>
			<stop  offset="0.2807" style="stop-color:#D4D4D4"/>
			<stop  offset="0.5095" style="stop-color:#E7E7E7"/>
			<stop  offset="0.7455" style="stop-color:#F2F2F2"/>
			<stop  offset="1" style="stop-color:#F6F6F6"/>
		</linearGradient>
		<path class="st2" d="M223,127.7c0-55.9-21.6-102.9-50.8-116.4c-5.6-0.8-11.4-1.3-17.3-1.3c-5.9,0-11.6,0.4-17.3,1.3
			c-29.2,13.5-50.8,60.5-50.8,116.4s21.6,102.9,50.8,116.4c5.6,0.8,11.4,1.3,17.3,1.3s11.6-0.4,17.3-1.3
			C201.4,230.7,223,183.7,223,127.7z"/>

			<linearGradient id="SVGID_5_" gradientUnits="userSpaceOnUse" x1="63.0858" y1="256.1988" x2="246.7166" y2="256.1988" gradientTransform="matrix(1 0 0 -1 0 321.6756)">
			<stop  offset="0" style="stop-color:#B2B2B2"/>
			<stop  offset="5.778944e-02" style="stop-color:#BABABA"/>
			<stop  offset="0.2807" style="stop-color:#D4D4D4"/>
			<stop  offset="0.5095" style="stop-color:#E7E7E7"/>
			<stop  offset="0.7455" style="stop-color:#F2F2F2"/>
			<stop  offset="1" style="stop-color:#F6F6F6"/>
		</linearGradient>
		<path class="st3" d="M63.6,53.5c22.1,14.5,54.8,23.8,91.3,23.8s69.2-9.2,91.3-23.8"/>

			<linearGradient id="SVGID_6_" gradientUnits="userSpaceOnUse" x1="63.0858" y1="131.6524" x2="246.7166" y2="131.6524" gradientTransform="matrix(1 0 0 -1 0 321.6756)">
			<stop  offset="0" style="stop-color:#B2B2B2"/>
			<stop  offset="5.778944e-02" style="stop-color:#BABABA"/>
			<stop  offset="0.2807" style="stop-color:#D4D4D4"/>
			<stop  offset="0.5095" style="stop-color:#E7E7E7"/>
			<stop  offset="0.7455" style="stop-color:#F2F2F2"/>
			<stop  offset="1" style="stop-color:#F6F6F6"/>
		</linearGradient>
		<path class="st4" d="M63.6,202c22.1-14.5,54.8-23.8,91.3-23.8s69.2,9.2,91.3,23.8"/>

			<linearGradient id="SVGID_7_" gradientUnits="userSpaceOnUse" x1="153.9627" y1="193.9256" x2="155.8372" y2="193.9256" gradientTransform="matrix(1 0 0 -1 0 321.6756)">
			<stop  offset="0" style="stop-color:#B2B2B2"/>
			<stop  offset="5.778944e-02" style="stop-color:#BABABA"/>
			<stop  offset="0.2807" style="stop-color:#D4D4D4"/>
			<stop  offset="0.5095" style="stop-color:#E7E7E7"/>
			<stop  offset="0.7455" style="stop-color:#F2F2F2"/>
			<stop  offset="1" style="stop-color:#F6F6F6"/>
		</linearGradient>
		<line class="st5" x1="154.9" y1="10" x2="154.9" y2="245.5"/>

			<linearGradient id="SVGID_8_" gradientUnits="userSpaceOnUse" x1="37.2" y1="193.6756" x2="272.6" y2="193.6756" gradientTransform="matrix(1 0 0 -1 0 321.6756)">
			<stop  offset="0" style="stop-color:#B2B2B2"/>
			<stop  offset="5.778944e-02" style="stop-color:#BABABA"/>
			<stop  offset="0.2807" style="stop-color:#D4D4D4"/>
			<stop  offset="0.5095" style="stop-color:#E7E7E7"/>
			<stop  offset="0.7455" style="stop-color:#F2F2F2"/>
			<stop  offset="1" style="stop-color:#F6F6F6"/>
		</linearGradient>
		<line class="st6" x1="37.2" y1="128" x2="272.6" y2="128"/>
	</g>
	<g>
		<path class="st7" d="M256.5,227l-17.7-15.1c-1.4-1.2-2.6-2.7-3.4-4.4l-1-1.9c-1.4-2.9-1.1-6.3,0.9-8.9l5.8-7.5
			c0.2-0.2,0.4-0.4,0.6-0.5l9.7-4.2c0.7-0.3,1.1-1.2,0.8-1.9l-12.3-29.1c-0.3-0.7,0-1.5,0.7-1.9c1.8-1,4.1-0.3,5.2,1.5l15.2,25.7
			c0.1,0.1,0.1,0.2,0.2,0.3l9,9.5c0.9,1,2.6,0.3,2.6-1.1l-0.4-13.3c-0.1-3,1.8-5.6,4.6-6.5l0.3-0.1c1-0.3,2,0.4,1.9,1.5l-0.1,8.2
			c0,2.4,0.3,4.8,1,7.1l2.5,7.8c0.8,2.5,0.5,5.2-0.7,7.5l-4,7.3c-0.2,0.3-0.2,0.7-0.1,1.1l2.2,8.4c0.2,0.7-0.2,1.5-0.8,1.7l-21.2,9
			C257.5,227.5,256.9,227.4,256.5,227"/>
	</g>
	<g>
		<g>
			<g>
				<path id="SVGID_10_" class="st8" d="M95.5,282.5L95.5,282.5l-6.3,3.7l3.9-0.3c-0.2,0.7-0.3,1.5-0.3,2.4c0,6.3,5.1,14.4,11.4,18
					c1.6,0.9,3,1.4,4.4,1.7l-2.1,3.1l6.2-3.6c0.1-0.1,0.3-0.2,0.4-0.2l0,0l0,0c1.6-1,2.6-3,2.6-5.7c0-6.3-5.1-14.4-11.4-18
					c-2.1-1.2-4-1.8-5.7-1.8C97.3,281.7,96.3,282,95.5,282.5"/>
			</g>
		</g>
		<g>
			<path class="st9" d="M105.9,303.2c0,4.4-3.6,6-8,3.4s-8-8.2-8-12.7c0-4.4,3.6-6,8-3.4S105.9,298.7,105.9,303.2"/>
		</g>
		<g>
			<g>
				<path id="SVGID_12_" class="st8" d="M139.1,261.6L139.1,261.6l-6.3,3.7l3.9-0.3c-0.2,0.7-0.3,1.5-0.3,2.4
					c0,6.3,5.1,14.4,11.4,18c1.6,0.9,3,1.4,4.4,1.7l-2.1,3.1l6.2-3.6c0.1-0.1,0.3-0.2,0.4-0.2l0,0l0,0c1.6-1,2.6-3,2.6-5.7
					c0-6.3-5.1-14.4-11.4-18c-2.1-1.2-4-1.8-5.7-1.8C140.9,260.9,139.9,261.2,139.1,261.6"/>
			</g>
		</g>
		<g>
			<g>
				<path id="SVGID_16_" class="st8" d="M130,271.1c0,6.3,5.1,14.4,11.4,18c6.3,3.6,11.4,1.5,11.4-4.8s-5.1-14.4-11.4-18
					c-2.1-1.2-4-1.8-5.7-1.8C132.3,264.5,130,266.9,130,271.1"/>
			</g>
		</g>
		<g>
			<g>
				<path id="SVGID_18_" class="st8" d="M34,246.9L34,246.9l-6.3,3.7l3.9-0.3c-0.2,0.7-0.3,1.5-0.3,2.4c0,6.3,5.1,14.4,11.4,18
					c1.6,0.9,3,1.4,4.4,1.7l-2.1,3.1l6.2-3.6c0.1-0.1,0.3-0.2,0.4-0.2l0,0l0,0c1.6-1,2.6-3,2.6-5.7c0-6.3-5.1-14.4-11.4-18
					c-2.1-1.2-4-1.8-5.7-1.8C35.9,246.2,34.9,246.4,34,246.9"/>
			</g>
		</g>
		<g>
			<g>
				<path id="SVGID_20_" class="st8" d="M25,256.4c0,6.3,5.1,14.4,11.4,18s11.4,1.5,11.4-4.8s-5.1-14.4-11.4-18
					c-2.1-1.2-4-1.8-5.7-1.8C27.3,249.8,25,252.2,25,256.4"/>
			</g>
		</g>
		<g>
			<g>
				<path id="SVGID_22_" class="st8" d="M86.2,292c0,6.3,5.1,14.4,11.4,18c6.3,3.6,11.4,1.5,11.4-4.8s-5.1-14.4-11.4-18
					c-2.1-1.2-4-1.8-5.7-1.8C88.5,285.5,86.2,287.8,86.2,292"/>
			</g>
		</g>
		<g>
			<g>

					<linearGradient id="SVGID_9_" gradientUnits="userSpaceOnUse" x1="61.252" y1="58.6016" x2="77.3178" y2="58.6016" gradientTransform="matrix(1 0 0 -1 -32.8782 321.6756)">
					<stop  offset="0" style="stop-color:#6E788C"/>
					<stop  offset="1" style="stop-color:#C8C8C8"/>
				</linearGradient>
				<path id="SVGID_24_" class="st10" d="M28.4,258.4c0,4.4,3.6,10.1,8,12.7s8,1,8-3.4s-3.6-10.1-8-12.7c-1.5-0.8-2.8-1.2-4-1.2
					C30,253.7,28.4,255.4,28.4,258.4"/>
			</g>
		</g>
		<g>
			<g>

					<linearGradient id="SVGID_11_" gradientUnits="userSpaceOnUse" x1="122.6782" y1="23.0994" x2="138.7438" y2="23.0994" gradientTransform="matrix(1 0 0 -1 -32.8782 321.6756)">
					<stop  offset="0" style="stop-color:#6E788C"/>
					<stop  offset="1" style="stop-color:#C8C8C8"/>
				</linearGradient>
				<path id="SVGID_27_" class="st11" d="M89.8,293.9c0,4.4,3.6,10.1,8,12.7s8,1,8-3.4s-3.6-10.1-8-12.7c-1.5-0.8-2.8-1.2-4-1.2
					C91.4,289.3,89.8,290.9,89.8,293.9"/>
			</g>
		</g>
		<g>
			<g>

					<linearGradient id="SVGID_13_" gradientUnits="userSpaceOnUse" x1="166.2782" y1="43.9016" x2="182.3439" y2="43.9016" gradientTransform="matrix(1 0 0 -1 -32.8782 321.6756)">
					<stop  offset="0" style="stop-color:#6E788C"/>
					<stop  offset="1" style="stop-color:#C8C8C8"/>
				</linearGradient>
				<path id="SVGID_30_" class="st12" d="M133.4,273.1c0,4.4,3.6,10.1,8,12.7c4.4,2.6,8,1,8-3.4s-3.6-10.1-8-12.7
					c-1.5-0.8-2.8-1.2-4-1.2C135,268.4,133.4,270.1,133.4,273.1"/>
			</g>
		</g>
		<g>
			<g>

					<linearGradient id="SVGID_14_" gradientUnits="userSpaceOnUse" x1="63.0782" y1="55.0256" x2="146.5782" y2="55.0256" gradientTransform="matrix(1 0 0 -1 -32.8782 321.6756)">
					<stop  offset="0" style="stop-color:#6E788C"/>
					<stop  offset="1" style="stop-color:#C8C8C8"/>
				</linearGradient>
				<path id="SVGID_33_" class="st13" d="M30.2,244.6L30.2,244.6c0,1,0.6,2.1,1.6,2.7l76.2,44c1.8,1,3.7,1.5,5.7,1.5v-4
					c-2,0-3.9-0.5-5.7-1.5l-76.2-44c-1.1-0.6-1.6-1.7-1.6-2.8C30.2,240.5,30.2,244.6,30.2,244.6z"/>
			</g>
		</g>
		<g>

				<linearGradient id="SVGID_15_" gradientUnits="userSpaceOnUse" x1="162.1639" y1="86.4621" x2="128.1167" y2="67.4188" gradientTransform="matrix(1 0 0 -1 -32.8782 321.6756)">
				<stop  offset="0" style="stop-color:#6E788C"/>
				<stop  offset="1" style="stop-color:#C8C8C8"/>
			</linearGradient>
			<path class="st14" d="M33,240.9l-2.9-0.5l0,0v0.1c0,1.1,0.5,2.2,1.6,2.8l76.2,44c1.8,1,3.7,1.5,5.7,1.5v4c1.8,0,3.7-0.5,5.3-1.5
				l36-20.8c1-0.6,1.5-1.6,1.6-2.6l0,0v-4.2l-5.4-1L78,220.4c-1.4-0.8-3.1-1.3-4.7-1.3c-1.6,0-3.2,0.4-4.7,1.3"/>
		</g>
		<g>
			<g>

					<linearGradient id="SVGID_17_" gradientUnits="userSpaceOnUse" x1="63.0282" y1="69.7256" x2="189.5282" y2="69.7256" gradientTransform="matrix(1 0 0 -1 -32.8782 321.6756)">
					<stop  offset="0" style="stop-color:#6E788C"/>
					<stop  offset="1" style="stop-color:#C8C8C8"/>
				</linearGradient>
				<path id="SVGID_37_" class="st15" d="M68.6,216.4l-36.8,21.3c-2.2,1.2-2.2,4.4,0,5.6l76.2,44c3.4,2,7.6,2,11,0l36-20.8
					c2.2-1.2,2.2-4.4,0-5.6l-77-44.5c-1.4-0.8-3.1-1.3-4.7-1.3C71.7,215.1,70.1,215.6,68.6,216.4"/>
			</g>
		</g>
		<g>
			<g>

					<linearGradient id="SVGID_19_" gradientUnits="userSpaceOnUse" x1="70.3782" y1="122.4764" x2="100.0213" y2="122.4764" gradientTransform="matrix(1 0 0 -1 -32.8782 321.6756)">
					<stop  offset="0" style="stop-color:#167E3D"/>
					<stop  offset="1" style="stop-color:#084823"/>
				</linearGradient>
				<path id="SVGID_40_" class="st16" d="M37.5,204.1c0,1.5,0.1,3.2,0.3,5l5.5-3.3c2.7-1.6,6-2.6,9.8-2.9c1.8-0.1,3.8-0.1,5.5,0.2
					c5.5,1.1,8-1.2,8.4-2.9c0.2-0.8-0.1-2.4-1.5-4.1c-1.6-2.1-4.8-4.6-10.5-6.1c-1.8-0.5-3.5-0.7-5.1-0.7
					C43,189.2,37.6,193.7,37.5,204.1"/>
			</g>
		</g>
		<g>
			<g>

					<linearGradient id="SVGID_21_" gradientUnits="userSpaceOnUse" x1="70.3782" y1="124.9764" x2="98.5103" y2="124.9764" gradientTransform="matrix(1 0 0 -1 -32.8782 321.6756)">
					<stop  offset="0" style="stop-color:#6ECA44"/>
					<stop  offset="1" style="stop-color:#86D776"/>
				</linearGradient>
				<path id="SVGID_43_" class="st17" d="M37.5,204.1l4.4-2.6c2.7-1.6,6-2.6,9.8-2.9c1.8-0.2,3.8-0.1,5.5,0.2c5.3,1.1,7.8-1,8.4-2.7
					c-1.6-2.1-4.8-4.6-10.5-6.1c-1.8-0.5-3.5-0.7-5.1-0.7C43,189.2,37.6,193.7,37.5,204.1"/>
			</g>
		</g>
		<g>
			<g>
				<path id="SVGID_46_" class="st18" d="M121.1,223.7l2,9c0.7,2.9,0.5,6-0.3,8.8c0.3,0.4,0.6,0.8,0.8,1.3l0.6,1.2
					c1.3-2.7,1.9-5.7,1.9-8.8c0-2.1-0.3-4.2-0.8-6.3l-0.9-3.8l-1.6-1.7c-0.4-0.4-0.8-0.6-1.1-0.6C121.2,222.8,121,223.1,121.1,223.7
					"/>
			</g>
		</g>
		<g>
			<g>
				<path id="SVGID_48_" class="st18" d="M63.5,197.3c-0.8,0-1.5,0.2-2.2,0.5l-0.9,0.5l-0.5,0.3l0,0l0.5,0.4
					c-1.9,2.6-2.2,6.4-1.5,8.7c1.5,3.1,2.3,6.1,2.3,8.5s-0.9,4.2-3,4.7c-0.2,0.1-0.4,0.1-0.6,0.2c-0.1,0-0.2,0.1-0.3,0.1
					c-0.2,0.1-0.5,0.2-0.6,0.3l-2.2,1.3l0,0l-0.7,0.4l0,0l1.8,0.1c-0.1,0.7-0.1,1.7-0.1,3l-2.4,9.1c0,1.6-0.4,1.6,1.2,2.3l0.4,0.2
					l-0.3,1.8l0,0l0,0l2.5-1.4l0,0c0.3-0.2,0.5-0.4,0.6-0.8l1.1-3.1c0-0.2,0.2-0.6,0.5-1.2c0.4-1,1.1-2.2,1.4-2.4c0,0,0,0,0.1,0
					l0.8-0.5c0.6-0.8,1.1-1.5,1.5-1.9c0.2-0.2,0.4-0.4,0.6-0.6c0.7-0.6,1.4-1,2.2-1.1c1.2-1.2,2.6-1.8,4.5-1.3
					c0.1,0,0.3,0.1,0.4,0.1c0.9,0.3,1.8,0.8,3,1.5c0,0,22.6,13.5,34.6,17.2l1.3,0.4c1.5,0.5,3,1.9,3.9,3.7l3.3,6.7
					c0.3,0.7,0.5,1.4,0.6,2l0.9,10.9c0.2,1.9,1.7,4.2,3.6,5.3l0,0v1.8l0,0l0.1-0.1l2.4-1.4c0.1,0,0.1-0.1,0.2-0.1l0,0l0,0
					c0.6-0.4,0.9-1.3,0.7-2.5l-1.7-12c0-0.2-0.1-0.4-0.1-0.6l-1.7-8.7c-0.3-1,0.2-2.2,0.5-2.8c0.2-0.3,0.3-0.4,0.3-0.4
					c0.6-0.8,1.1-1.7,1.5-2.6l-0.6-1.2c-0.2-0.4-0.5-0.9-0.8-1.3c0.9-2.8,1-5.8,0.3-8.8l-2-9c-0.2-1.1,0.8-1.3,1.7-0.3l1.6,1.7
					l-0.7-2.8c-0.2-1.1,0.8-1.3,1.7-0.3l2.7,2.9c0.6,0.7,1.1,1.5,1.3,2.3l1.3,4.8c0.2,0.6,0.5,1.3,0.9,1.8l1.2,1.5l0.8,1.1
					c0.3,0.3,0.5,0.6,0.8,0.9c0.5,0.5,1.1,0.8,1.6,0.9l-0.1,1.6l0.3-0.2c0.3-0.3,0.5-0.7,0.5-1.3v-3.8c0-0.8-0.4-1.7-1-2.6
					c0,0,0,0-0.1-0.1c-1.1-1.6-2-3.2-2.6-4.8s-0.9-3.2-0.9-4.7v-0.6c0-1.4-0.3-3-0.8-4.7c-0.4-1.3-1-2.6-1.7-3.9l-0.8-1.5
					c-1.7-3-4-5.7-6.5-7.6c-1.1-0.9-2.3-1.6-3.5-2.1l-0.4-0.2c-0.3-0.1-0.6-0.2-0.9-0.4c-0.6-0.2-1.1-0.4-1.7-0.5
					c-1.4-0.3-2.7-0.2-3.8,0.2c0,0-0.1,0-0.1,0.1c-0.9,0.7-1.7,1.5-2.4,2.4c-0.8,1-1.5,2.2-2,3.5c-0.3,0.6-0.5,1.3-0.7,2
					c-0.1,0.2-0.1,0.4-0.2,0.7l-0.9,4c-0.2,0.9-1,1.3-2,0.9l-0.5-0.2l-0.1,0.7c-0.2,0.9-1,1.3-2,0.9l-4.5-1.5
					c-11-3.6-12-2.8-22.8-12.7c-0.6-0.6-1.3-1.1-1.9-1.6c-1.2-0.9-2.4-1.6-3.6-2.2c-0.7-0.3-1.3-0.5-1.9-0.7c-0.1,0-0.1,0-0.2-0.1
					c-0.8-0.2-1.6-0.3-2.4-0.3C63.8,197.3,63.7,197.3,63.5,197.3"/>
			</g>
		</g>
		<g>
			<path class="st19" d="M70.2,192.8L70.2,192.8c-0.1,0-0.1,0.1-0.1,0.1L70.2,192.8z"/>
			<path class="st19" d="M72.2,200.6l-3.7-1.9l-1.9-1c0.6,0.2,1.3,0.4,1.9,0.7C69.7,198.9,71,199.7,72.2,200.6"/>
			<path class="st19" d="M70.3,192.7C70.3,192.7,70.3,192.8,70.3,192.7L70.3,192.7c-0.1,0.1-0.1,0.1-0.1,0.1h-0.1l0,0H70
				c-0.1,0-0.1,0.1-0.2,0.1l0,0L70.3,192.7z"/>
			<path class="st19" d="M64.4,234.1L64.4,234.1L64.4,234.1z"/>
		</g>
		<g>
			<g>

					<linearGradient id="SVGID_23_" gradientUnits="userSpaceOnUse" x1="97.3413" y1="90.9256" x2="102.1432" y2="90.9256" gradientTransform="matrix(1 0 0 -1 -32.8782 321.6756)">
					<stop  offset="0" style="stop-color:#167E3D"/>
					<stop  offset="1" style="stop-color:#084823"/>
				</linearGradient>
				<path id="SVGID_50_" class="st20" d="M68.2,228.5l-1,0.7c-0.5,0.1-0.8,0.4-0.9,0.9l-1.3,3.1c-0.1,0.4-0.3,0.7-0.6,0.8l2.5-1.4
					l0,0c0.3-0.2,0.5-0.4,0.6-0.8l1.1-3.1c0-0.2,0.2-0.6,0.5-1.2C68.9,228,68.5,228.3,68.2,228.5"/>
			</g>
		</g>
		<g>
			<g>
				<path id="SVGID_53_" class="st21" d="M131,218.1l2,9c0.6,2.8,0.5,5.6-0.2,8.3c-0.3,1.1-0.7,2.1-1.2,3.2
					c-0.4,0.7-0.8,1.4-1.2,2.1l0,0c-0.5,0.7-1.1,1.4-1.7,2.1c-0.5,0.6-0.6,1.6-0.3,2.8l2.5,8.7c0.1,0.2,0.1,0.4,0.1,0.6l1.7,12
					c0.2,1.2-0.1,2.1-0.8,2.5l2.4-1.3c0.1,0,0.1-0.1,0.2-0.1l0,0l0,0c0.6-0.4,0.9-1.3,0.7-2.5l-1.7-12c0-0.2-0.1-0.4-0.1-0.6
					l-1.7-8.7c-0.4-1.5,0.8-3.2,0.8-3.2c0.3-0.4,0.5-0.8,0.8-1.2c0.4-0.7,0.8-1.5,1.1-2.3c0.7-1.7,1.1-3.6,1.3-5.4
					c-1.1-1.6-2-3.2-2.6-4.8c-0.6-1.6-0.9-3.2-0.9-4.7V222c0-1.4-0.3-3-0.8-4.7C131.1,217.2,130.9,217.5,131,218.1"/>
			</g>
		</g>
		<g>
			<path class="st19" d="M120.1,196.7l-1.9,1.1C118.8,197.3,119.4,197,120.1,196.7"/>
		</g>
		<g>
			<g>

					<linearGradient id="SVGID_25_" gradientUnits="userSpaceOnUse" x1="155.1782" y1="64.8256" x2="164.7146" y2="64.8256" gradientTransform="matrix(1 0 0 -1 -32.8782 321.6756)">
					<stop  offset="0" style="stop-color:#167E3D"/>
					<stop  offset="1" style="stop-color:#084823"/>
				</linearGradient>
				<path id="SVGID_57_" class="st22" d="M122.6,246.6c0,0-0.1,0.2-0.3,0.4l1.9,3.9c0.3,0.7,0.5,1.4,0.6,2l0.9,10.9
					c0.2,1.9,1.7,4.2,3.6,5.3c0.7,0.4,1.3,0.6,1.8,0.6c0.3,0,0.6-0.1,0.8-0.2v-1.8l0,0c-1.8-1.1-3.4-3.3-3.6-5.3l-0.9-10.9
					c-0.1-0.6-0.3-1.3-0.6-2l-2.7-5.5C123.7,244.9,123.2,245.7,122.6,246.6"/>
			</g>
		</g>
		<g>
			<g>

					<linearGradient id="SVGID_26_" gradientUnits="userSpaceOnUse" x1="156.9782" y1="74.3256" x2="165.6742" y2="74.3256" gradientTransform="matrix(1 0 0 -1 -32.8782 321.6756)">
					<stop  offset="0" style="stop-color:#167E3D"/>
					<stop  offset="1" style="stop-color:#084823"/>
				</linearGradient>
				<path id="SVGID_60_" class="st23" d="M125.2,228.9c0.5,2.1,0.8,4.2,0.8,6.3c0,3-0.6,6-1.9,8.8l2.7,5.5c0.3,0.7,0.5,1.4,0.6,2
					l0.9,10.9c0.2,1.9,1.7,4.2,3.6,5.3l0,0v1.8l0.1-0.1l0,0c0.6-0.4,1-1.3,0.8-2.5l-1.7-12c0-0.2-0.1-0.4-0.1-0.6l-2.5-8.7
					c-0.3-1.2-0.2-2.2,0.3-2.8c0.6-0.7,1.2-1.3,1.7-2.1l0,0c0.5-0.7,0.9-1.3,1.2-2.1c-0.2-0.2-0.4-0.4-0.5-0.6l-2-2.6
					c-0.4-0.6-0.8-1.2-0.9-1.8l-1.3-4.8c-0.2-0.8-0.7-1.6-1.3-2.3l-1.2-1.3L125.2,228.9z"/>
			</g>
		</g>
		<g>
			<path class="st24" d="M65.7,216.7L65.7,216.7L65.7,216.7z"/>
			<path class="st24" d="M70.4,225.4L70.4,225.4L70.4,225.4z"/>
		</g>
		<g>
			<g>

					<linearGradient id="SVGID_28_" gradientUnits="userSpaceOnUse" x1="94.1791" y1="118.3318" x2="138.91" y2="118.3318" gradientTransform="matrix(1 0 0 -1 -32.8782 321.6756)">
					<stop  offset="0" style="stop-color:#167E3D"/>
					<stop  offset="1" style="stop-color:#084823"/>
				</linearGradient>
				<path id="SVGID_63_" class="st25" d="M73.6,190.9L73.6,190.9c-0.1,0.1-0.2,0.1-0.3,0.2l-0.3,0.1l-2.7,1.5l0,0l0,0h-0.1l0,0
					l-0.8,0.4l-5.4,3.1l0,0c-0.1,0.1-0.3,0.1-0.4,0.2l0,0l0,0c-0.1,0.1-0.2,0.1-0.3,0.2l-1.9,1.1c0.7-0.3,1.4-0.5,2.2-0.5
					c0.1,0,0.3,0,0.5,0c0.8,0,1.6,0.1,2.4,0.3c0.1,0,0.1,0,0.2,0.1c0.6,0.2,1.3,0.4,1.9,0.7c1.2,0.5,2.4,1.3,3.6,2.2
					c0.7,0.5,1.3,1,1.9,1.6c10.8,9.8,11.7,9.1,22.8,12.7l4.5,1.5c1,0.3,1.8,0,2-0.9l0.1-0.7l0.8-3.4c0.2-1,0.5-1.9,0.8-2.7
					c0.3-0.7,0.6-1.3,0.9-1.9c-8-2.5-9.8-2.9-19.4-11.6c-3.5-3.1-7.1-4.8-10.2-4.8C75.4,190.2,74.4,190.4,73.6,190.9"/>
			</g>
		</g>
		<g>
			<g>
				<path id="SVGID_66_" class="st26" d="M68.5,198.7c-0.1,1.3,0.1,2.4,0.4,3.4c1.5,3.1,2.3,6.1,2.3,8.5s-0.9,4.2-3,4.7
					c-0.2,0.1-0.4,0.1-0.6,0.2c-0.5,0.6-1.1,1-2,1.3c-0.4,0.1-0.8,0.2-1.1,0.4l0,0l-0.7,0.4c-0.8,0.6-0.9,1.6-0.9,3.5
					c0,0.3,0,0.7,0,1.1l-2.3,8.8l-0.1,0.4c0,0.2,0,0.3,0,0.4c-0.1,1.2-0.3,1.3,1.2,1.9l1,0.5c0.6,0.3,1.2,0.3,1.6,0.1l0,0l0,0
					c0,0,0,0,0.1,0c0.3-0.2,0.5-0.4,0.6-0.8l1.1-3.1c0.1-0.5,0.5-0.8,0.9-0.9l1-0.7c0.3-0.2,0.7-0.6,1.1-1v-0.1
					c0.3-0.7,0.8-1.6,1.1-2c0.1-0.2,0.2-0.3,0.3-0.3l0.8-0.5c0.6-0.8,1.1-1.5,1.5-1.9c0.9-0.9,1.7-1.5,2.8-1.7
					c1.9-1.8,3.9-2.3,7.9,0.4c0,0,22.6,13.5,34.6,17.2l1.3,0.4c1.1,0.3,2.2,1.2,3.1,2.4"/>
			</g>
		</g>
		<g>
			<g>

					<linearGradient id="SVGID_29_" gradientUnits="userSpaceOnUse" x1="83.5338" y1="85.4756" x2="169.7782" y2="85.4756" gradientTransform="matrix(1 0 0 -1 -32.8782 321.6756)">
					<stop  offset="0" style="stop-color:#6ECA44"/>
					<stop  offset="1" style="stop-color:#86D776"/>
				</linearGradient>
				<path id="SVGID_68_" class="st27" d="M63.5,197.3c-0.8,0-1.5,0.2-2.2,0.5l-0.9,0.5l-0.1,0.1c-0.1,0.1-0.2,0.1-0.3,0.2
					c-2.8,1.5-3.9,5-3.9,7.9c0,1,0.1,1.9,0.4,2.7c1.5,3.1,2.3,6.1,2.3,8.5c0,1.4-0.3,2.6-1,3.4c-0.5,0.6-1.1,1-2,1.3
					c-0.4,0.1-0.8,0.2-1.1,0.4l0,0c-0.3,0.1-0.5,0.2-0.7,0.4l0,0c-0.8,0.6-0.9,1.6-0.9,3.5c0,0.3,0,0.7,0,1.1l-2.4,9.1
					c0,1.6-0.4,1.6,1.2,2.3l1,0.5c0.6,0.3,1.2,0.3,1.7,0.1l0,0c0.3-0.2,0.5-0.4,0.6-0.8l1.1-3.1c0.1-0.5,0.5-0.8,0.9-0.9l1-0.7
					c0.3-0.2,0.7-0.6,1.1-1c0.4-0.5,0.8-1,1.3-1.6c0.3-0.5,0.7-0.9,1-1.3c0.6-0.8,1.1-1.5,1.5-1.9c0.2-0.2,0.4-0.4,0.6-0.6
					c0.7-0.6,1.4-1,2.2-1.1c1-0.2,2.1,0,3.4,0.7l0,0c0.6,0.3,1.2,0.6,1.9,1.1c0,0,22.6,13.5,34.6,17.2l1.3,0.4
					c1.5,0.5,3,1.9,3.9,3.7l3.3,6.7c0.3,0.7,0.5,1.4,0.6,2l0.9,10.9c0.2,1.9,1.7,4.2,3.6,5.3c0.7,0.4,1.3,0.6,1.8,0.6
					c0.3,0,0.6-0.1,0.8-0.2l0,0l0.1-0.1c0.7-0.4,1-1.3,0.8-2.5l-1.7-12c0-0.2-0.1-0.4-0.1-0.6l-2.5-8.7c-0.4-1.2-0.2-2.2,0.3-2.8
					c0.6-0.7,1.2-1.3,1.7-2.1l0,0c0.3-0.4,0.6-0.9,0.9-1.4c0.6-1.1,1.1-2.2,1.5-3.4c0.9-2.8,1-5.8,0.3-8.8l-2-9
					c-0.2-1.1,0.8-1.3,1.7-0.3l1.6,1.7l1.2,1.3c0.6,0.7,1.1,1.5,1.3,2.3l1.3,4.8c0.2,0.6,0.5,1.3,0.9,1.8l2,2.6
					c0.2,0.2,0.3,0.4,0.5,0.6c0.5,0.6,1.2,1,1.7,1.1c0.1,0,0.3,0.1,0.4,0.1l1.5,0.2c0.3,0,0.5,0,0.7-0.1c0.1,0,0.2-0.1,0.3-0.2
					c0.3-0.3,0.5-0.7,0.5-1.3v-3.8c0-0.8-0.4-1.7-1-2.6c0,0,0,0-0.1-0.1c-1.1-1.6-2-3.2-2.6-4.8s-0.9-3.2-0.9-4.7v-0.6
					c0-1.4-0.3-3-0.8-4.7c-0.4-1.3-1-2.6-1.7-3.9l-0.8-1.5c-1.7-3-4-5.7-6.5-7.6c-1.1-0.9-2.3-1.6-3.5-2.1l-0.4-0.2
					c-0.3-0.1-0.6-0.2-0.9-0.4c-0.6-0.2-1.1-0.4-1.7-0.5c-1.4-0.3-2.7-0.2-3.8,0.2h-0.1c-2,0.8-3.7,2.1-5,3.8c-0.4,0.5-0.7,1-1,1.6
					c-0.4,0.6-0.7,1.3-0.9,1.9c-0.3,0.9-0.6,1.8-0.8,2.7l-0.8,3.4l-0.1,0.7c-0.2,0.9-1,1.3-2,0.9l-4.5-1.5c-11-3.6-12-2.8-22.8-12.7
					c-0.6-0.6-1.3-1.1-1.9-1.6c-1.2-0.9-2.4-1.6-3.6-2.2c-0.7-0.3-1.3-0.5-1.9-0.7c-0.1,0-0.1,0-0.2-0.1c-0.8-0.2-1.6-0.3-2.4-0.3
					C63.8,197.3,63.7,197.3,63.5,197.3"/>
			</g>
		</g>
		<g>
			<g>

					<linearGradient id="SVGID_31_" gradientUnits="userSpaceOnUse" x1="145.0288" y1="104.4443" x2="180.7288" y2="104.4443" gradientTransform="matrix(1 0 0 -1 -32.8782 321.6756)">
					<stop  offset="0" style="stop-color:#167E3D"/>
					<stop  offset="1" style="stop-color:#084823"/>
				</linearGradient>
				<path id="SVGID_71_" class="st28" d="M123.1,195c-0.3,0.1-0.6,0.3-0.9,0.4l0,0l-0.9,0.5l-1.2,0.7l-1.9,1.1l-3.9,2.2
					c-0.7,0.3-1.4,0.7-2,1.2l-0.1,0.1c1.1-0.4,2.4-0.5,3.8-0.2c0.5,0.1,1.1,0.3,1.7,0.5c0.3,0.1,0.6,0.2,0.9,0.4l0.4,0.2
					c1.2,0.5,2.4,1.3,3.5,2.1c2.5,1.9,4.8,4.6,6.5,7.6l0.8,1.5c0.7,1.3,1.3,2.6,1.7,3.9c0.5,1.6,0.8,3.2,0.8,4.7v0.6
					c0,1.5,0.3,3.1,0.9,4.7c0.6,1.6,1.5,3.3,2.6,4.8c0,0,0,0,0.1,0.1c0.6,0.9,1,1.8,1,2.6v3.8c0,0.6-0.2,1-0.5,1.3l2.4-1.3l0,0l0,0
					l0,0l0,0l0,0l6.7-3.8l1.7-0.9l0,0c0.5-0.2,0.7-0.7,0.7-1.4v-3.8c0-0.8-0.4-1.7-1-2.6c-2.2-3.2-3.3-7.4-3.3-10.3v-0.6
					c0-2.6-1.1-5-2.8-7.9l-0.8-1.5c-2.4-4.4-6.2-8-10-9.8l-0.4-0.2c-1.5-0.7-2.9-1-4.2-1C124.5,194.6,123.8,194.7,123.1,195"/>
			</g>
		</g>
		<g>
			<path class="st19" d="M138.7,238.4L138.7,238.4L138.7,238.4L138.7,238.4"/>
		</g>
	</g>
	<g>
		<g>

				<linearGradient id="SVGID_32_" gradientUnits="userSpaceOnUse" x1="237.1373" y1="63.2634" x2="276.4995" y2="63.2634" gradientTransform="matrix(1 0 0 -1 0 321.6756)">
				<stop  offset="0" style="stop-color:#6ECA44"/>
				<stop  offset="1" style="stop-color:#86D776"/>
			</linearGradient>
			<path id="SVGID_74_" class="st29" d="M243.4,246.3c-1.1,0.7-2.2,1.5-3.2,2.3c-0.1,0.1-0.2,0.2-0.4,0.3c-3.1,2.9-3.2,6.8-2.2,10.3
				c1.9,6.7,7.2,11.7,13.9,13.5c4.7,1.2,10.8,1.6,17.6-1.1c3-1.2,5-2.9,6.1-4.7c4.3-7.2-3.9-17.8-10-21l-0.3-0.1
				c-3.3-1.7-6.9-2.6-10.4-2.6C250.7,243.2,246.8,244.3,243.4,246.3"/>
		</g>
	</g>
	<g>
		<g>

				<linearGradient id="SVGID_34_" gradientUnits="userSpaceOnUse" x1="274.2855" y1="52.8833" x2="275.7237" y2="52.8833" gradientTransform="matrix(1 0 0 -1 0 321.6756)">
				<stop  offset="0" style="stop-color:#003366"/>
				<stop  offset="1" style="stop-color:#0066BA"/>
			</linearGradient>
			<path id="SVGID_77_" class="st30" d="M274.3,262.3v13c0,0.4,0.3,0.7,0.7,0.7s0.7-0.3,0.7-0.7v-13c0-0.4-0.3-0.7-0.7-0.7
				C274.6,261.5,274.3,261.9,274.3,262.3"/>
		</g>
	</g>
	<g>
		<g>

				<linearGradient id="SVGID_35_" gradientUnits="userSpaceOnUse" x1="264.9591" y1="57.7756" x2="279.4148" y2="57.7756" gradientTransform="matrix(1 0 0 -1 0 321.6756)">
				<stop  offset="0" style="stop-color:#167E3D"/>
				<stop  offset="1" style="stop-color:#084823"/>
			</linearGradient>
			<path id="SVGID_80_" class="st31" d="M265,263.9c0,4,3.2,7.2,7.2,7.2s7.2-3.2,7.2-7.2c0-4-3.2-7.2-7.2-7.2S265,259.9,265,263.9"
				/>
		</g>
	</g>
	<g>
		<g>

				<linearGradient id="SVGID_36_" gradientUnits="userSpaceOnUse" x1="253.8706" y1="52.9836" x2="244.3597" y2="40.9762" gradientTransform="matrix(1 0 0 -1 0 321.6756)">
				<stop  offset="0" style="stop-color:#003366"/>
				<stop  offset="1" style="stop-color:#0066BA"/>
			</linearGradient>
			<path id="SVGID_83_" class="st32" d="M255.8,268.1l-8.6,4.2c-0.2,0.1-0.4,0.4-0.4,0.6v7.6c0,0.4,0.3,0.7,0.7,0.7s0.7-0.3,0.7-0.7
				v-7.1l8.2-4c0.4-0.2,0.5-0.6,0.3-1c-0.1-0.3-0.4-0.4-0.6-0.4C256,268,255.9,268.1,255.8,268.1"/>
		</g>
	</g>
	<g>
		<g>

				<linearGradient id="SVGID_38_" gradientUnits="userSpaceOnUse" x1="247.2278" y1="57.6372" x2="237.717" y2="45.6298" gradientTransform="matrix(1 0 0 -1 0 321.6756)">
				<stop  offset="0" style="stop-color:#003366"/>
				<stop  offset="1" style="stop-color:#0066BA"/>
			</linearGradient>
			<path id="SVGID_86_" class="st33" d="M246.5,264.5l-6.5,3.2c-0.2,0.1-0.4,0.4-0.4,0.6v8.9c0,0.4,0.3,0.7,0.7,0.7s0.7-0.3,0.7-0.7
				v-8.5l6.1-3c0.4-0.2,0.5-0.6,0.3-1c-0.1-0.3-0.4-0.4-0.6-0.4C246.7,264.4,246.6,264.4,246.5,264.5"/>
		</g>
	</g>
	<g>
		<g>

				<linearGradient id="SVGID_39_" gradientUnits="userSpaceOnUse" x1="241.4961" y1="62.2971" x2="231.9853" y2="50.2897" gradientTransform="matrix(1 0 0 -1 0 321.6756)">
				<stop  offset="0" style="stop-color:#003366"/>
				<stop  offset="1" style="stop-color:#0066BA"/>
			</linearGradient>
			<path id="SVGID_89_" class="st34" d="M240.8,258.4l-6.5,3.2c-0.2,0.1-0.4,0.4-0.4,0.6v11.7c0,0.4,0.3,0.7,0.7,0.7
				s0.7-0.3,0.7-0.7v-11.3l6.1-3c0.4-0.2,0.5-0.6,0.3-1c-0.1-0.3-0.4-0.4-0.6-0.4C241,258.3,240.9,258.3,240.8,258.4"/>
		</g>
	</g>
	<g>
		<g>

				<linearGradient id="SVGID_41_" gradientUnits="userSpaceOnUse" x1="-841.9955" y1="47.5467" x2="-821.6107" y2="47.5467" gradientTransform="matrix(-1 0 0 -1 -632.5425 321.6756)">
				<stop  offset="0" style="stop-color:#6E788C"/>
				<stop  offset="1" style="stop-color:#C8C8C8"/>
			</linearGradient>
			<path id="SVGID_92_" class="st35" d="M206.2,267.8c0.6,0.3,1.1,0.8,1.7,1.2c0.1,0.1,0.1,0.1,0.2,0.2c1.6,1.5,1.6,3.5,1.1,5.4
				c-1,3.4-3.8,6.1-7.2,7c-2.4,0.6-5.6,0.8-9.1-0.6c-1.6-0.6-2.6-1.5-3.2-2.5c-2.2-3.7,2-9.2,5.2-10.9l0.1-0.1
				c1.7-0.9,3.5-1.3,5.4-1.3C202.4,266.2,204.4,266.7,206.2,267.8"/>
		</g>
	</g>
	<g>
		<g>

				<linearGradient id="SVGID_42_" gradientUnits="userSpaceOnUse" x1="-822.7639" y1="42.2756" x2="-822.0194" y2="42.2756" gradientTransform="matrix(-1 0 0 -1 -632.5425 321.6756)">
				<stop  offset="0" style="stop-color:#003366"/>
				<stop  offset="1" style="stop-color:#0066BA"/>
			</linearGradient>
			<path id="SVGID_95_" class="st36" d="M190.2,276v6.8c0,0.2-0.2,0.4-0.4,0.4s-0.4-0.2-0.4-0.4V276c0-0.2,0.2-0.4,0.4-0.4
				C190.1,275.7,190.2,275.8,190.2,276"/>
		</g>
	</g>
	<g>
		<g>

				<linearGradient id="SVGID_44_" gradientUnits="userSpaceOnUse" x1="-827.5922" y1="44.7756" x2="-820.1085" y2="44.7756" gradientTransform="matrix(-1 0 0 -1 -632.5425 321.6756)">
				<stop  offset="0" style="stop-color:#6E788C"/>
				<stop  offset="1" style="stop-color:#C8C8C8"/>
			</linearGradient>
			<path id="SVGID_98_" class="st37" d="M195,276.9c0,2.1-1.7,3.7-3.7,3.7c-2.1,0-3.7-1.7-3.7-3.7c0-2.1,1.7-3.7,3.7-3.7
				C193.4,273.2,195,274.8,195,276.9"/>
		</g>
	</g>
	<g>
		<g>

				<linearGradient id="SVGID_45_" gradientUnits="userSpaceOnUse" x1="-833.2579" y1="42.2469" x2="-838.1816" y2="36.0307" gradientTransform="matrix(-1 0 0 -1 -632.5425 321.6756)">
				<stop  offset="0" style="stop-color:#003366"/>
				<stop  offset="1" style="stop-color:#0066BA"/>
			</linearGradient>
			<path id="SVGID_101_" class="st38" d="M199.8,279.1l4.4,2.2c0.1,0.1,0.2,0.2,0.2,0.3v3.9c0,0.2-0.2,0.4-0.4,0.4s-0.4-0.2-0.4-0.4
				v-3.7l-4.2-2.1c-0.2-0.1-0.3-0.3-0.2-0.5c0.1-0.1,0.2-0.2,0.3-0.2C199.7,279,199.7,279,199.8,279.1"/>
		</g>
	</g>
	<g>
		<g>

				<linearGradient id="SVGID_47_" gradientUnits="userSpaceOnUse" x1="-836.7926" y1="44.7319" x2="-841.7163" y2="38.5157" gradientTransform="matrix(-1 0 0 -1 -632.5425 321.6756)">
				<stop  offset="0" style="stop-color:#003366"/>
				<stop  offset="1" style="stop-color:#0066BA"/>
			</linearGradient>
			<path id="SVGID_104_" class="st39" d="M204.6,277.2l3.4,1.6c0.1,0.1,0.2,0.2,0.2,0.3v4.6c0,0.2-0.2,0.4-0.4,0.4s-0.4-0.2-0.4-0.4
				v-4.4l-3.1-1.5c-0.2-0.1-0.3-0.3-0.2-0.5c0.1-0.1,0.2-0.2,0.3-0.2C204.5,277.2,204.5,277.2,204.6,277.2"/>
		</g>
	</g>
	<g>
		<g>

				<linearGradient id="SVGID_49_" gradientUnits="userSpaceOnUse" x1="-839.7982" y1="47.1748" x2="-844.722" y2="40.9585" gradientTransform="matrix(-1 0 0 -1 -632.5425 321.6756)">
				<stop  offset="0" style="stop-color:#003366"/>
				<stop  offset="1" style="stop-color:#0066BA"/>
			</linearGradient>
			<path id="SVGID_107_" class="st40" d="M207.6,274l3.4,1.6c0.1,0.1,0.2,0.2,0.2,0.3v6.1c0,0.2-0.2,0.4-0.4,0.4s-0.4-0.2-0.4-0.4
				v-5.8l-3.1-1.5c-0.2-0.1-0.3-0.3-0.2-0.5c0.1-0.1,0.2-0.2,0.3-0.2C207.5,274,207.5,274,207.6,274"/>
		</g>
	</g>
	<g>
		<g>
			<g>

					<linearGradient id="SVGID_51_" gradientUnits="userSpaceOnUse" x1="113.9" y1="179.2964" x2="113.9" y2="225.3993" gradientTransform="matrix(1 0 0 -1 0 321.6756)">
					<stop  offset="0" style="stop-color:#6E788C"/>
					<stop  offset="1" style="stop-color:#C8C8C8"/>
				</linearGradient>
				<path id="SVGID_110_" class="st41" d="M112.5,96.5v48.2c0,0.5,0.3,0.9,0.7,1.2l0,0c0,0,0,0,0.1,0l2,1.1
					c-0.3-0.2-0.6-0.6-0.6-1.1l0,0l0,0V97.7c0-0.2,0.1-0.5,0.2-0.7l-2.1-1.2C112.6,96,112.5,96.3,112.5,96.5"/>
			</g>
		</g>
		<g>
			<g>

					<linearGradient id="SVGID_52_" gradientUnits="userSpaceOnUse" x1="220.7903" y1="287.06" x2="131.4076" y2="235.5038" gradientTransform="matrix(1 0 0 -1 0 321.6756)">
					<stop  offset="0" style="stop-color:#6E788C"/>
					<stop  offset="1" style="stop-color:#C8C8C8"/>
				</linearGradient>
				<path id="SVGID_113_" class="st42" d="M263.5,8.4L113.2,95.3c-0.2,0.1-0.4,0.3-0.5,0.6l2.1,1.2c0.1-0.2,0.3-0.4,0.5-0.6
					L265.6,9.6l0,0l0,0l0,0c0.4-0.3,0.9-0.2,1.3,0l-2-1.2l0,0l0,0c-0.2-0.1-0.4-0.2-0.7-0.2C264,8.2,263.7,8.3,263.5,8.4"/>
			</g>
		</g>
		<g>
			<g>

					<linearGradient id="SVGID_54_" gradientUnits="userSpaceOnUse" x1="114.6" y1="243.3059" x2="267.7" y2="243.3059" gradientTransform="matrix(1 0 0 -1 0 321.6756)">
					<stop  offset="0" style="stop-color:#6E788C"/>
					<stop  offset="1" style="stop-color:#C8C8C8"/>
				</linearGradient>
				<path id="SVGID_116_" class="st43" d="M265.6,9.6L265.6,9.6L265.6,9.6L115.3,96.5c-0.2,0.1-0.4,0.3-0.5,0.6
					c-0.1,0.2-0.2,0.4-0.2,0.7V146l0,0c0,0.5,0.3,0.9,0.6,1.1l0.2,0.1c0.4,0.2,0.9,0.2,1.3-0.1L267,60.2c0.4-0.3,0.7-0.7,0.7-1.2
					V10.8c0-0.5-0.3-1-0.7-1.2h-0.1c-0.2-0.1-0.4-0.2-0.7-0.2C266.1,9.4,265.8,9.5,265.6,9.6"/>
			</g>
		</g>
		<g>
			<g>
				<g>

						<linearGradient id="SVGID_55_" gradientUnits="userSpaceOnUse" x1="141.1" y1="185.5756" x2="143.8137" y2="185.5756" gradientTransform="matrix(1 0 0 -1 0 321.6756)">
						<stop  offset="0" style="stop-color:#003366"/>
						<stop  offset="1" style="stop-color:#0066BA"/>
					</linearGradient>
					<path id="SVGID_119_" class="st44" d="M141.1,111.2v48.2c0,0.5,0.3,0.9,0.7,1.2l0,0c0,0,0,0,0.1,0l2,1.1
						c-0.3-0.2-0.6-0.6-0.6-1.1l0,0l0,0v-48.2c0-0.2,0.1-0.5,0.2-0.7l-2.1-1.2C141.2,110.8,141.1,111,141.1,111.2"/>
				</g>
			</g>
			<g>
				<g>

						<linearGradient id="SVGID_56_" gradientUnits="userSpaceOnUse" x1="141.3" y1="254.3256" x2="295.5" y2="254.3256" gradientTransform="matrix(1 0 0 -1 0 321.6756)">
						<stop  offset="0" style="stop-color:#003366"/>
						<stop  offset="1" style="stop-color:#0066BA"/>
					</linearGradient>
					<path id="SVGID_122_" class="st45" d="M292.1,23.1L141.8,110c-0.2,0.1-0.4,0.3-0.5,0.6l2.1,1.2c0.1-0.2,0.3-0.4,0.5-0.6
						l150.3-86.9l0,0l0,0l0,0c0.4-0.3,0.9-0.2,1.3,0l-2-1.2l0,0l0,0c-0.2-0.1-0.4-0.2-0.7-0.2C292.5,22.9,292.3,23,292.1,23.1"/>
				</g>
			</g>
			<g>
				<g>

						<linearGradient id="SVGID_58_" gradientUnits="userSpaceOnUse" x1="143.2" y1="228.5559" x2="296.3" y2="228.5559" gradientTransform="matrix(1 0 0 -1 0 321.6756)">
						<stop  offset="0" style="stop-color:#003366"/>
						<stop  offset="1" style="stop-color:#0066BA"/>
					</linearGradient>
					<path id="SVGID_125_" class="st46" d="M294.2,24.3L294.2,24.3C294.2,24.3,294.2,24.4,294.2,24.3l-150.3,86.9
						c-0.2,0.1-0.4,0.3-0.5,0.6c-0.1,0.2-0.2,0.4-0.2,0.7v48.2l0,0c0,0.5,0.3,0.9,0.6,1.1l0.2,0.1c0.4,0.2,0.9,0.2,1.3-0.1
						l150.3-86.9c0.4-0.3,0.7-0.7,0.7-1.2V25.6c0-0.5-0.3-1-0.7-1.2c0,0,0,0-0.1,0c-0.2-0.1-0.4-0.2-0.7-0.2
						C294.6,24.2,294.4,24.2,294.2,24.3"/>
				</g>
			</g>
			<path class="st47" d="M180.1,116.5c0,4.1-3.3,9.3-7.4,11.6c-4.1,2.4-7.4,1-7.4-3.1c0-4.1,3.3-9.3,7.4-11.6
				C176.8,111,180.1,112.4,180.1,116.5"/>
			<path class="st47" d="M204.4,103.2c0,4.1-3.3,9.3-7.4,11.6c-4.1,2.4-7.4,1-7.4-3.1s3.3-9.3,7.4-11.6
				C201.1,97.7,204.4,99.1,204.4,103.2"/>
			<path class="st47" d="M228.6,89.2c0,4.1-3.3,9.3-7.4,11.6c-4.1,2.4-7.4,1-7.4-3.1s3.3-9.3,7.4-11.6
				C225.3,83.7,228.6,85.1,228.6,89.2"/>
			<path class="st47" d="M252.9,75.1c0,4.1-3.3,9.3-7.4,11.6c-4.1,2.4-7.4,1-7.4-3.1s3.3-9.3,7.4-11.6
				C249.6,69.7,252.9,71.1,252.9,75.1"/>
			<path class="st47" d="M277.1,61.2c0,4.1-3.3,9.3-7.4,11.6c-4.1,2.4-7.4,1-7.4-3.1s3.3-9.3,7.4-11.6
				C273.8,55.8,277.1,57.2,277.1,61.2"/>
			<g>
				<g>

						<linearGradient id="SVGID_59_" gradientUnits="userSpaceOnUse" x1="262.8" y1="204.1542" x2="262.8" y2="235.5952" gradientTransform="matrix(1 0 0 -1 0 321.6756)">
						<stop  offset="0" style="stop-color:#6ECA44"/>
						<stop  offset="1" style="stop-color:#86D776"/>
					</linearGradient>
					<path id="SVGID_128_" class="st48" d="M261.6,84.4v31.8c0,0.3,0.2,0.6,0.4,0.8l0,0l0,0l2,1.2c-0.2-0.2-0.4-0.4-0.4-0.7V85.6
						c0-0.2,0.1-0.4,0.2-0.5l-2.2-1.1C261.7,84.1,261.6,84.2,261.6,84.4"/>
				</g>
			</g>
			<g>
				<g>

						<linearGradient id="SVGID_61_" gradientUnits="userSpaceOnUse" x1="309.9895" y1="264.4975" x2="262.549" y2="236.9634" gradientTransform="matrix(1 0 0 -1 0 321.6756)">
						<stop  offset="0" style="stop-color:#6ECA44"/>
						<stop  offset="1" style="stop-color:#86D776"/>
					</linearGradient>
					<path id="SVGID_131_" class="st49" d="M312.3,54.4l-50.2,29.2c-0.2,0.1-0.3,0.2-0.4,0.4l2.2,1.1c0.1-0.1,0.2-0.2,0.3-0.3
						l50.2-29.2c0.3-0.2,0.6-0.2,0.8,0l-2-1.2l0,0l0,0l0,0c-0.1-0.1-0.3-0.1-0.5-0.1C312.6,54.3,312.4,54.3,312.3,54.4"/>
				</g>
			</g>
			<g>
				<g>

						<linearGradient id="SVGID_62_" gradientUnits="userSpaceOnUse" x1="263.7756" y1="234.7927" x2="315.7934" y2="234.7927" gradientTransform="matrix(1 0 0 -1 0 321.6756)">
						<stop  offset="0" style="stop-color:#6ECA44"/>
						<stop  offset="1" style="stop-color:#86D776"/>
					</linearGradient>
					<path id="SVGID_134_" class="st50" d="M314.4,55.6l-50.2,29.2c-0.1,0.1-0.2,0.2-0.3,0.3c-0.1,0.1-0.2,0.3-0.2,0.5v31.9
						c0,0.3,0.2,0.6,0.4,0.7l0.2,0.1l0,0c0.3,0.1,0.6,0.1,0.8-0.1L315.3,89c0.3-0.2,0.5-0.5,0.5-0.8V56.4c0-0.4-0.2-0.7-0.6-0.9
						c-0.1-0.1-0.2-0.1-0.4-0.1C314.7,55.5,314.5,55.5,314.4,55.6"/>
				</g>
			</g>

				<linearGradient id="SVGID_64_" gradientUnits="userSpaceOnUse" x1="309.3" y1="238.8707" x2="309.3" y2="212.1337" gradientTransform="matrix(1 0 0 -1 0 321.6756)">
				<stop  offset="0" style="stop-color:#969696"/>
				<stop  offset="1" style="stop-color:#C8C8C8"/>
			</linearGradient>
			<path class="st51" d="M322.4,88.2l-1.3-0.6c0,0-0.1,0-0.1-0.1L298,81c-0.7-0.2-1.8,1-1.8,1.9v29.3c0,0.4,0.2,0.6,0.4,0.6l0,0
				l3.7,1l-0.2-1c0.2-0.2,0.3-0.3,0.5-0.6l1.2-19.1c0.2-0.4,2.2-3.9,2.5-4l16,0.7c0.6-0.3,1-1,1.1-1.5
				C321.8,88.3,322.4,88.2,322.4,88.2"/>
			<g>
				<g>

						<linearGradient id="SVGID_65_" gradientUnits="userSpaceOnUse" x1="299.7724" y1="223.7054" x2="325.0003" y2="223.7054" gradientTransform="matrix(1 0 0 -1 0 321.6756)">
						<stop  offset="0" style="stop-color:#969696"/>
						<stop  offset="1" style="stop-color:#C8C8C8"/>
					</linearGradient>
					<path id="SVGID_138_" class="st52" d="M299.8,84v29.3c0,1,1.3,0.8,1.9-0.4l8-13.5c0.2-0.4,0.5-0.7,0.8-0.8l13.3-7.7
						c1-0.6,1.5-2.1,0.7-2.4l-23-6.5c-0.1,0-0.1,0-0.2,0C300.7,82.1,299.8,83.1,299.8,84"/>
				</g>
			</g>
		</g>
	</g>
</g>
</svg>
