<?xml version="1.0" encoding="utf-8"?>
<!-- Generator: Adobe Illustrator 19.2.0, SVG Export Plug-In . SVG Version: 6.00 Build 0)  -->
<svg version="1.1" id="Ebene_1" xmlns="http://www.w3.org/2000/svg" xmlns:xlink="http://www.w3.org/1999/xlink" x="0px" y="0px"
	 width="42px" height="42px" viewBox="0 0 42 42" style="enable-background:new 0 0 42 42;" xml:space="preserve">
<style type="text/css">
	.st0{fill:#FEFEFE;}
	.st1{fill-rule:evenodd;clip-rule:evenodd;fill:#004C92;}
</style>
<g>
	<circle class="st0" cx="21" cy="21" r="21"/>
	<path class="st1" d="M33.5,14c-0.9,0.4-1.8,0.6-2.8,0.8c1-0.6,1.8-1.5,2.1-2.7c-0.9,0.5-2,0.9-3.1,1.2c-0.9-0.9-2.1-1.5-3.5-1.5
		c-2.7,0-4.9,2.1-4.9,4.8c0,0.4,0,0.7,0.1,1.1c-4-0.2-7.6-2.1-10-5c-0.4,0.7-0.7,1.5-0.7,2.4c0,1.7,0.9,3.1,2.2,4
		c-0.8,0-1.5-0.2-2.2-0.6v0.1c0,2.3,1.7,4.3,3.9,4.7c-0.4,0.1-0.8,0.2-1.3,0.2c-0.3,0-0.6,0-0.9-0.1c0.6,1.9,2.4,3.3,4.5,3.3
		c-1.7,1.3-3.8,2.1-6,2.1c-0.4,0-0.8,0-1.2-0.1c2.1,1.4,4.7,2.2,7.4,2.2c8.9,0,13.8-7.3,13.8-13.6c0-0.2,0-0.4,0-0.6
		C32,15.8,32.8,15,33.5,14"/>
</g>
</svg>
