<?xml version="1.0" encoding="utf-8"?>
<!-- Generator: Adobe Illustrator 22.0.0, SVG Export Plug-In . SVG Version: 6.00 Build 0)  -->
<svg version="1.1" id="Ebene_1" xmlns="http://www.w3.org/2000/svg" xmlns:xlink="http://www.w3.org/1999/xlink" x="0px" y="0px"
	 width="350px" height="320px" viewBox="0 0 350 320" style="enable-background:new 0 0 350 320;" xml:space="preserve">
<style type="text/css">
	.st0{fill:url(#SVGID_11_);}
	.st1{fill:url(#SVGID_12_);}
	.st2{fill:#FFFFFF;}
	.st3{fill:#878787;}
</style>
<g>
	<g>
		<defs>
			<path id="SVGID_3_" d="M0,113.2v123.4c0,1.7,0.6,2.9,1.7,3.5l14.8,8.6c-1-0.6-1.6-1.8-1.6-3.4V121.9c0-1.5,0.5-3.1,1.3-4.7
				l-14.9-8.8C0.5,110,0,111.7,0,113.2"/>
		</defs>
		<linearGradient id="SVGID_1_" gradientUnits="userSpaceOnUse" x1="8.2502" y1="119.6516" x2="8.2502" y2="289.7361">
			<stop  offset="0" style="stop-color:#167E3D"/>
			<stop  offset="1" style="stop-color:#084823"/>
		</linearGradient>
		<use xlink:href="#SVGID_3_"  style="overflow:visible;fill:url(#SVGID_1_);"/>
		<clipPath id="SVGID_4_">
			<use xlink:href="#SVGID_3_"  style="overflow:visible;"/>
		</clipPath>
	</g>
	<g>
		<defs>
			<path id="SVGID_69_" d="M67.9,67.1l-61,35.2c-2.3,1.3-4.3,3.6-5.5,6l14.9,8.8c1.2-2.5,3.3-4.8,5.6-6.1l61-35.2
				c1.9-1.1,3.6-1.3,4.9-0.8l-14.8-8.6v0c-0.5-0.2-1-0.4-1.6-0.4C70.3,66.1,69.1,66.4,67.9,67.1"/>
		</defs>
		<linearGradient id="SVGID_5_" gradientUnits="userSpaceOnUse" x1="6.7903" y1="112.3832" x2="92.7534" y2="63.0854">
			<stop  offset="0" style="stop-color:#167E3D"/>
			<stop  offset="1" style="stop-color:#084823"/>
		</linearGradient>
		<use xlink:href="#SVGID_69_"  style="overflow:visible;fill:url(#SVGID_5_);"/>
		<clipPath id="SVGID_6_">
			<use xlink:href="#SVGID_69_"  style="overflow:visible;"/>
		</clipPath>
	</g>
	<g>
		<defs>
			<path id="SVGID_72_" d="M168,41.9L99.7,81.6c-0.6,0.4-1.3,0.6-1.8,0.8c-1.4,0.4-2.7,0.3-3.6-0.4l-8.7-6.4l2.7-0.3l-0.5-0.3
				c-1.3-0.6-3.1-0.3-4.9,0.8l-61,35.2c-2.3,1.3-4.3,3.7-5.6,6.1c-0.8,1.6-1.3,3.2-1.3,4.7v123.4c0,1.6,0.6,2.8,1.6,3.4l0.2,0.1
				l27.1-30.7L168,146.2c3.8-2.2,6.9-7,6.9-10.8V64.8l13.2-14.9l-0.3-0.2l-14.4-8.4c-0.5-0.3-1.2-0.5-1.9-0.5
				C170.4,40.8,169.3,41.2,168,41.9"/>
		</defs>
		<linearGradient id="SVGID_7_" gradientUnits="userSpaceOnUse" x1="212.9026" y1="74.0187" x2="129.5502" y2="119.1458">
			<stop  offset="0" style="stop-color:#167E3D"/>
			<stop  offset="1" style="stop-color:#084823"/>
		</linearGradient>
		<use xlink:href="#SVGID_72_"  style="overflow:visible;fill:url(#SVGID_7_);"/>
		<clipPath id="SVGID_8_">
			<use xlink:href="#SVGID_72_"  style="overflow:visible;"/>
		</clipPath>
	</g>
	<g>
		<defs>
			<path id="SVGID_75_" d="M183,50.6l-68.3,39.7c-2.1,1.2-4.2,1.4-5.5,0.5l-11.3-8.3l-9.6-7c-0.2-0.1-0.3-0.2-0.5-0.3
				c-1.3-0.6-3.1-0.3-4.9,0.8l-61,35.2c-2.3,1.3-4.3,3.7-5.6,6.1c-0.8,1.6-1.3,3.2-1.3,4.7v123.4c0,1.6,0.6,2.8,1.6,3.4l0.2,0.1
				c1.3,0.7,3.1,0.5,5.1-0.7L183,154.9c3.8-2.2,6.9-7,6.9-10.8V53.5c0-2-0.8-3.3-2.1-3.7c-0.4-0.1-0.8-0.2-1.3-0.2
				C185.4,49.5,184.2,49.8,183,50.6"/>
		</defs>
		<linearGradient id="SVGID_9_" gradientUnits="userSpaceOnUse" x1="14.9502" y1="149.3613" x2="189.8445" y2="149.3613">
			<stop  offset="0" style="stop-color:#6ECA44"/>
			<stop  offset="1" style="stop-color:#86D776"/>
		</linearGradient>
		<use xlink:href="#SVGID_75_"  style="overflow:visible;fill:url(#SVGID_9_);"/>
		<clipPath id="SVGID_10_">
			<use xlink:href="#SVGID_75_"  style="overflow:visible;"/>
		</clipPath>
	</g>
	<g>
		<linearGradient id="SVGID_11_" gradientUnits="userSpaceOnUse" x1="100.811" y1="261.1855" x2="100.811" y2="162.8488">
			<stop  offset="0" style="stop-color:#003366"/>
			<stop  offset="1" style="stop-color:#0066BA"/>
		</linearGradient>
		<path class="st0" d="M104.4,264.8l-5-2.9c-1.4-0.6-2.3-2.1-2.3-4.2v-94.7c0-1.9,0.7-4,1.8-6l5.5,3.3c-1.1,2-1.7,4-1.7,5.9v94.7
			C102.7,262.7,103.4,264.1,104.4,264.8"/>
		<linearGradient id="SVGID_12_" gradientUnits="userSpaceOnUse" x1="248.7353" y1="72.3311" x2="114.2799" y2="149.9284">
			<stop  offset="0" style="stop-color:#003366"/>
			<stop  offset="1" style="stop-color:#0066BA"/>
		</linearGradient>
		<path class="st1" d="M257.3,71.5c-1.4-0.7-3.5-0.4-5.7,0.9l-140.9,81.4c-2.5,1.5-4.8,4-6.2,6.6l-5.5-3.3c1.5-2.6,3.7-5.1,6.2-6.5
			L246,69.2c2.5-1.4,4.7-1.6,6.2-0.6L257.3,71.5z"/>
	</g>
	<g>
		<defs>
			<path id="SVGID_2_" d="M246,69.2l-140.9,81.4c-2.5,1.4-4.7,3.9-6.2,6.5l5.5,3.3c1.5-2.7,3.7-5.2,6.2-6.6l140.9-81.4
				c2.2-1.3,4.3-1.5,5.7-0.9l-5.1-2.9c-0.6-0.4-1.4-0.6-2.2-0.6C248.8,67.9,247.4,68.3,246,69.2"/>
		</defs>
		<clipPath id="SVGID_13_">
			<use xlink:href="#SVGID_2_"  style="overflow:visible;"/>
		</clipPath>
	</g>
	<g>
		<defs>
			<path id="SVGID_82_" d="M97.2,163.1v94.7c0,2.2,0.9,3.6,2.3,4.2l5,2.9c-1-0.7-1.7-2.1-1.7-3.9v-94.7c0-1.8,0.6-3.9,1.7-5.9
				l-5.5-3.3C97.8,159,97.2,161.2,97.2,163.1"/>
		</defs>
		<clipPath id="SVGID_14_">
			<use xlink:href="#SVGID_82_"  style="overflow:visible;"/>
		</clipPath>
	</g>
	<g>
		<defs>
			<path id="SVGID_84_" d="M251.5,72.4l-140.9,81.4c-2.5,1.5-4.8,4-6.2,6.6c-1.1,2-1.7,4-1.7,5.9v94.7c0,1.8,0.6,3.2,1.7,3.9
				c0.2,0.1,0.3,0.2,0.5,0.3c0.7,0.3,1.6,0.4,2.6,0.3c1-0.1,2-0.5,3.2-1.2l140.9-81.4c4.4-2.5,7.9-8.1,7.9-12.5V75.7
				c0-0.2,0-0.3,0-0.5c-0.1-1.6-0.7-2.8-1.7-3.5l0,0c-0.2-0.1-0.3-0.2-0.5-0.3c-0.5-0.2-1.1-0.4-1.8-0.4
				C254.3,71.1,253,71.5,251.5,72.4"/>
		</defs>
		<linearGradient id="SVGID_15_" gradientUnits="userSpaceOnUse" x1="102.7467" y1="168.3085" x2="259.4881" y2="168.3085">
			<stop  offset="0" style="stop-color:#003366"/>
			<stop  offset="1" style="stop-color:#0066BA"/>
		</linearGradient>
		<use xlink:href="#SVGID_84_"  style="overflow:visible;fill:url(#SVGID_15_);"/>
		<clipPath id="SVGID_16_">
			<use xlink:href="#SVGID_84_"  style="overflow:visible;"/>
		</clipPath>
	</g>
	<g>
		<g>
			<defs>
				<path id="SVGID_87_" d="M29.2,155.1v19.2c0,6.4,2.5,10.7,6.6,12.6l0,0l9,5.2l0,0c-3.7-2-6-6.3-6-12.3V159c0-0.9,0.2-1.7,0.6-2.4
					l-9.4-5C29.5,152.6,29.2,153.9,29.2,155.1"/>
			</defs>
			<linearGradient id="SVGID_17_" gradientUnits="userSpaceOnUse" x1="36.9755" y1="187.0778" x2="36.9755" y2="154.9335">
				<stop  offset="0" style="stop-color:#6E788C"/>
				<stop  offset="1" style="stop-color:#C8C8C8"/>
			</linearGradient>
			<use xlink:href="#SVGID_87_"  style="overflow:visible;fill:url(#SVGID_17_);"/>
			<clipPath id="SVGID_18_">
				<use xlink:href="#SVGID_87_"  style="overflow:visible;"/>
			</clipPath>
		</g>
		<g>
			<defs>
				<path id="SVGID_90_" d="M69.7,127.3l-36.6,21.1c-1.3,0.8-2.4,1.9-3.1,3.2l9.4,5c0.4-0.8,1.1-1.4,1.8-1.9l38.9-22.4
					c0.5-0.3,1-0.4,1.5-0.3l-8.2-4.7c-0.6-0.3-1.2-0.5-1.9-0.5C71,126.8,70.3,126.9,69.7,127.3"/>
			</defs>
			<linearGradient id="SVGID_19_" gradientUnits="userSpaceOnUse" x1="77.3277" y1="130.123" x2="32.5755" y2="153.2942">
				<stop  offset="0" style="stop-color:#6E788C"/>
				<stop  offset="1" style="stop-color:#C8C8C8"/>
			</linearGradient>
			<use xlink:href="#SVGID_90_"  style="overflow:visible;fill:url(#SVGID_19_);"/>
			<clipPath id="SVGID_20_">
				<use xlink:href="#SVGID_90_"  style="overflow:visible;"/>
			</clipPath>
		</g>
		<g>
			<defs>
				<path id="SVGID_93_" d="M80.2,132.2l-38.9,22.4c-0.8,0.5-1.4,1.1-1.8,1.9c-0.4,0.7-0.6,1.6-0.6,2.4v20.9c0,6,2.3,10.2,6,12.3
					c4.3,2.4,10.7,1.8,17.8-2.3c13.1-7.6,21.1-22.8,21.1-35.9v-19.8c0-1.2-0.9-2.1-1.9-2.3c-0.1,0-0.2,0-0.4,0
					C81,131.9,80.6,132,80.2,132.2"/>
			</defs>
			<linearGradient id="SVGID_21_" gradientUnits="userSpaceOnUse" x1="70.4098" y1="144.2365" x2="37.2282" y2="203.9635">
				<stop  offset="0" style="stop-color:#167E3D"/>
				<stop  offset="1" style="stop-color:#084823"/>
			</linearGradient>
			<use xlink:href="#SVGID_93_"  style="overflow:visible;fill:url(#SVGID_21_);"/>
			<clipPath id="SVGID_22_">
				<use xlink:href="#SVGID_93_"  style="overflow:visible;"/>
			</clipPath>
		</g>
		<g>
			<defs>
				<path id="SVGID_96_" d="M62.9,154.7c-3.9,2.2-7,7.2-7,11.1c0,2.3,1.1,3.7,2.8,4v5.6c0,2.3,1.9,3.1,4.2,1.8
					c2.3-1.3,4.2-4.3,4.2-6.7V165c1.7-2.3,2.8-5,2.8-7.3c0-2.6-1.4-4.1-3.5-4.1C65.3,153.6,64.1,154,62.9,154.7"/>
			</defs>
			<linearGradient id="SVGID_23_" gradientUnits="userSpaceOnUse" x1="79.9825" y1="172.498" x2="62.4825" y2="165.248">
				<stop  offset="0" style="stop-color:#167E3D"/>
				<stop  offset="1" style="stop-color:#083623"/>
			</linearGradient>
			<use xlink:href="#SVGID_96_"  style="overflow:visible;fill:url(#SVGID_23_);"/>
			<clipPath id="SVGID_24_">
				<use xlink:href="#SVGID_96_"  style="overflow:visible;"/>
			</clipPath>
		</g>
		<g>
			<defs>
				<path id="SVGID_99_" d="M55.5,104.3c-7,3.2-10.6,7.3-14.1,12.7c-3.4,5.4-4.8,12-4.8,17.2v14.4c0,0.6,0.4,1.2,1.2,1.6
					c0.4,0.2,0.9,0.4,1.4,0.5c0.4,0.1,0.9,0.1,1.3,0.2h0c1,0,2-0.2,2.8-0.7c0.8-0.5,1.2-1,1.2-1.6c0,0,0,0,0,0v-18.9
					c0-3.1,1.2-6.5,3.2-9.7c2-3.2,4.8-6,7.8-7.8c2.6-1.5,5-2,6.9-1.6h0c1,0.2,1.9,0.7,2.6,1.5c1,1.1,1.5,2.7,1.5,4.7v14.4
					c0,0.6,0.4,1.2,1.2,1.6c0.4,0.2,0.9,0.4,1.4,0.5c0.4,0.1,0.9,0.1,1.3,0.1c1,0,2.1-0.2,2.8-0.7c0.8-0.5,1.2-1,1.1-1.6h0v-15.3
					c0-4-2.1-7.4-5-9.6c-2.6-1.9-5.8-3-8.9-3C58.8,103.3,57.1,103.6,55.5,104.3"/>
			</defs>
			<linearGradient id="SVGID_25_" gradientUnits="userSpaceOnUse" x1="36.5979" y1="127.0692" x2="74.4222" y2="127.0692">
				<stop  offset="0" style="stop-color:#6E788C"/>
				<stop  offset="1" style="stop-color:#C8C8C8"/>
			</linearGradient>
			<use xlink:href="#SVGID_99_"  style="overflow:visible;fill:url(#SVGID_25_);"/>
			<clipPath id="SVGID_26_">
				<use xlink:href="#SVGID_99_"  style="overflow:visible;"/>
			</clipPath>
		</g>
		<g>
			<defs>
				<path id="SVGID_102_" d="M65,112.1c1,1.1,1.5,2.7,1.5,4.7v14.4c0,0.6,0.4,1.2,1.2,1.6v-16.8c0-2.9-2.3-5.4-5.3-5.5
					C63.5,110.9,64.4,111.4,65,112.1"/>
			</defs>
			<linearGradient id="SVGID_27_" gradientUnits="userSpaceOnUse" x1="65.0858" y1="108.3875" x2="65.0858" y2="128.0766">
				<stop  offset="0" style="stop-color:#6E788C"/>
				<stop  offset="1" style="stop-color:#C8C8C8"/>
			</linearGradient>
			<use xlink:href="#SVGID_102_"  style="overflow:visible;fill:url(#SVGID_27_);"/>
			<clipPath id="SVGID_28_">
				<use xlink:href="#SVGID_102_"  style="overflow:visible;"/>
			</clipPath>
		</g>
	</g>
	<g>
		<defs>
			<path id="SVGID_105_" d="M143.9,149.1l-24.7,14.3c-1.8,1.1-3,3-3,5.1v20.9c0,1.7,1.8,2.7,3.3,1.9l25.4-14.7
				c1.3-0.7,2.1-2.1,2.1-3.6v-22.2c0-1.2-1-2.1-2.1-2.1C144.5,148.8,144.2,148.9,143.9,149.1"/>
		</defs>
		<linearGradient id="SVGID_29_" gradientUnits="userSpaceOnUse" x1="116.1579" y1="170.2266" x2="146.9388" y2="170.2266">
			<stop  offset="0" style="stop-color:#6E788C"/>
			<stop  offset="1" style="stop-color:#C8C8C8"/>
		</linearGradient>
		<use xlink:href="#SVGID_105_"  style="overflow:visible;fill:url(#SVGID_29_);"/>
		<clipPath id="SVGID_30_">
			<use xlink:href="#SVGID_105_"  style="overflow:visible;"/>
		</clipPath>
	</g>
	<g>
		<defs>
			<path id="SVGID_108_" d="M141.2,153.7l-19.3,11.2c-1.4,0.8-2.3,2.4-2.3,4v16.4c0,1.3,1.4,2.1,2.6,1.5l19.9-11.5
				c1-0.6,1.6-1.6,1.6-2.8v-17.3c0-0.9-0.8-1.6-1.6-1.6C141.7,153.5,141.4,153.6,141.2,153.7"/>
		</defs>
		<linearGradient id="SVGID_31_" gradientUnits="userSpaceOnUse" x1="141.4113" y1="161.5094" x2="121.9164" y2="179.0002">
			<stop  offset="0" style="stop-color:#6E788C"/>
			<stop  offset="1" style="stop-color:#C8C8C8"/>
		</linearGradient>
		<use xlink:href="#SVGID_108_"  style="overflow:visible;fill:url(#SVGID_31_);"/>
		<clipPath id="SVGID_32_">
			<use xlink:href="#SVGID_108_"  style="overflow:visible;"/>
		</clipPath>
	</g>
	<path class="st2" d="M137.8,205.9l-19.9,11.5c-0.7,0.4-1.6-0.1-1.6-0.9v-5.6c0-0.4,0.2-0.8,0.5-0.9l19.9-11.5
		c0.7-0.4,1.6,0.1,1.6,0.9v5.6C138.3,205.4,138.1,205.7,137.8,205.9"/>
	<path class="st2" d="M231.3,149.4l-74.7,43.5c-0.7,0.4-1.6-0.1-1.6-0.9v-5.6c0-0.4,0.2-0.8,0.5-0.9l74.7-43.5
		c0.7-0.4,1.6,0.1,1.6,0.9v5.6C231.8,148.8,231.6,149.2,231.3,149.4"/>
	<path class="st2" d="M136.4,224.7l-18.7,10.8c-0.8,0.5-1.8-0.1-1.8-1v-6.2c0-0.4,0.2-0.8,0.6-1l18.7-10.8c0.8-0.5,1.8,0.1,1.8,1
		v6.2C137,224.1,136.7,224.5,136.4,224.7"/>
	<path class="st2" d="M230.2,169.3l-73.5,42.8c-0.8,0.5-1.8-0.1-1.8-1v-6.2c0-0.4,0.2-0.8,0.6-1L229,161c0.8-0.5,1.8,0.1,1.8,1v6.2
		C230.8,168.7,230.5,169.1,230.2,169.3"/>
	<g>
		<defs>
			<polygon id="SVGID_111_" points="198.4,199.2 198.4,199.5 350,112.9 350,112.6 274.2,102.4 			"/>
		</defs>
		<linearGradient id="SVGID_33_" gradientUnits="userSpaceOnUse" x1="274.5956" y1="157.252" x2="234.7244" y2="38.2664">
			<stop  offset="0" style="stop-color:#167E3D"/>
			<stop  offset="1" style="stop-color:#084823"/>
		</linearGradient>
		<use xlink:href="#SVGID_111_"  style="overflow:visible;fill:url(#SVGID_33_);"/>
		<clipPath id="SVGID_34_">
			<use xlink:href="#SVGID_111_"  style="overflow:visible;"/>
		</clipPath>
	</g>
	<g>
		<defs>
			<polygon id="SVGID_114_" points="198.4,199.5 215.4,199.4 217.4,199.3 283.5,195.5 333.8,131.8 350,112.9 			"/>
		</defs>
		<linearGradient id="SVGID_35_" gradientUnits="userSpaceOnUse" x1="276.1551" y1="159.9554" x2="306.6079" y2="218.0354">
			<stop  offset="0" style="stop-color:#167E3D"/>
			<stop  offset="1" style="stop-color:#084823"/>
		</linearGradient>
		<use xlink:href="#SVGID_114_"  style="overflow:visible;fill:url(#SVGID_35_);"/>
		<clipPath id="SVGID_36_">
			<use xlink:href="#SVGID_114_"  style="overflow:visible;"/>
		</clipPath>
	</g>
	<g>
		<defs>
			<polygon id="SVGID_117_" points="333.8,131.8 283.5,195.5 215.4,199.4 198.4,199.5 198.4,209.1 198.4,279.2 350,192.6 350,122.5
				350,112.9 			"/>
		</defs>
		<linearGradient id="SVGID_37_" gradientUnits="userSpaceOnUse" x1="198.3982" y1="196.063" x2="350" y2="196.063">
			<stop  offset="0" style="stop-color:#6ECA44"/>
			<stop  offset="1" style="stop-color:#86D776"/>
		</linearGradient>
		<use xlink:href="#SVGID_117_"  style="overflow:visible;fill:url(#SVGID_37_);"/>
		<clipPath id="SVGID_38_">
			<use xlink:href="#SVGID_117_"  style="overflow:visible;"/>
		</clipPath>
	</g>
	<g>
		<defs>
			<polygon id="SVGID_120_" points="193.4,276.3 198.4,279.2 198.4,199.5 193.4,196.6 			"/>
		</defs>
		<linearGradient id="SVGID_39_" gradientUnits="userSpaceOnUse" x1="195.8871" y1="277.8003" x2="195.8871" y2="196.2258">
			<stop  offset="0" style="stop-color:#6ECA44"/>
			<stop  offset="1" style="stop-color:#86D776"/>
		</linearGradient>
		<use xlink:href="#SVGID_120_"  style="overflow:visible;fill:url(#SVGID_39_);"/>
		<clipPath id="SVGID_40_">
			<use xlink:href="#SVGID_120_"  style="overflow:visible;"/>
		</clipPath>
	</g>
	<g>
		<defs>
			<polygon id="SVGID_123_" points="193.4,196.6 198.4,199.5 274.2,102.4 269.2,99.5 			"/>
		</defs>
		<linearGradient id="SVGID_41_" gradientUnits="userSpaceOnUse" x1="193.3767" y1="149.5091" x2="274.1994" y2="149.5091">
			<stop  offset="0" style="stop-color:#6ECA44"/>
			<stop  offset="1" style="stop-color:#86D776"/>
		</linearGradient>
		<use xlink:href="#SVGID_123_"  style="overflow:visible;fill:url(#SVGID_41_);"/>
		<clipPath id="SVGID_42_">
			<use xlink:href="#SVGID_123_"  style="overflow:visible;"/>
		</clipPath>
	</g>
	<g>
		<defs>
			<polygon id="SVGID_126_" points="274.2,102.4 350,112.6 345,109.8 269.2,99.5 			"/>
		</defs>
		<linearGradient id="SVGID_43_" gradientUnits="userSpaceOnUse" x1="269.1759" y1="106.0705" x2="350" y2="106.0705">
			<stop  offset="0" style="stop-color:#6ECA44"/>
			<stop  offset="1" style="stop-color:#86D776"/>
		</linearGradient>
		<use xlink:href="#SVGID_126_"  style="overflow:visible;fill:url(#SVGID_43_);"/>
		<clipPath id="SVGID_44_">
			<use xlink:href="#SVGID_126_"  style="overflow:visible;"/>
		</clipPath>
	</g>
	<g>
		<defs>
			<polygon id="SVGID_129_" points="217.7,124.9 217.7,199.3 283.5,195.5 330.7,135.6 330.7,60.4 			"/>
		</defs>
		<use xlink:href="#SVGID_129_"  style="overflow:visible;fill:#EBEBEB;"/>
		<clipPath id="SVGID_45_">
			<use xlink:href="#SVGID_129_"  style="overflow:visible;"/>
		</clipPath>
	</g>
	<g>
		<path class="st3" d="M269.2,133l-37.6,21.7c-0.5,0.3-1.1-0.1-1.1-0.6v-6.5c0-0.3,0.1-0.5,0.4-0.6l37.6-21.7
			c0.5-0.3,1.1,0.1,1.1,0.6v6.5C269.6,132.6,269.4,132.8,269.2,133"/>
		<path class="st3" d="M317.5,127.5L234,175.7c-0.5,0.3-1.1-0.1-1.1-0.6v-6.5c0-0.3,0.1-0.5,0.4-0.6l83.5-48.2
			c0.5-0.3,1.1,0.1,1.1,0.6v6.5C317.8,127.2,317.7,127.4,317.5,127.5"/>
		<path class="st3" d="M317.5,146.8L234,195c-0.5,0.3-1.1-0.1-1.1-0.6v-6.5c0-0.3,0.1-0.5,0.4-0.6l83.5-48.2
			c0.5-0.3,1.1,0.1,1.1,0.6v6.5C317.8,146.5,317.7,146.7,317.5,146.8"/>
		<polygon class="st3" points="245,197.7 260.7,196.8 300.9,173.6 312.5,158.8 		"/>
	</g>
</g>
</svg>
