<?xml version="1.0" encoding="utf-8"?>
<!-- Generator: Adobe Illustrator 19.2.0, SVG Export Plug-In . SVG Version: 6.00 Build 0)  -->
<svg version="1.1" id="Ebene_1" xmlns="http://www.w3.org/2000/svg" xmlns:xlink="http://www.w3.org/1999/xlink" x="0px" y="0px"
	 width="42px" height="42px" viewBox="0 0 42 42" style="enable-background:new 0 0 42 42;" xml:space="preserve">
<style type="text/css">
	.st0{fill:#FEFEFE;}
	.st1{fill-rule:evenodd;clip-rule:evenodd;fill:#004C92;}
</style>
<g>
	<circle class="st0" cx="21" cy="21" r="21"/>
	<path class="st1" d="M14.7,26.1h-3.5c-0.2,0-0.4-0.1-0.5-0.2c-0.1-0.2-0.1-0.3,0-0.5l3.8-6.6c0,0,0,0,0,0l-2.4-4.1
		c-0.1-0.2-0.1-0.4,0-0.5c0.1-0.1,0.2-0.2,0.5-0.2h3.5c0.4,0,0.7,0.2,1,0.7l2.4,4.2c-0.1,0.2-1.4,2.4-3.8,6.7
		C15.4,25.9,15.1,26.1,14.7,26.1"/>
	<path class="st1" d="M31.5,9.9l-7.8,13.7v0l5,9c0.1,0.2,0.1,0.4,0,0.5c-0.1,0.1-0.3,0.2-0.5,0.2h-3.5c-0.4,0-0.7-0.2-1-0.7l-5-9.1
		c0.2-0.3,2.8-4.9,7.9-13.8c0.2-0.4,0.6-0.7,1-0.7H31c0.2,0,0.4,0.1,0.5,0.2C31.6,9.5,31.6,9.7,31.5,9.9"/>
</g>
</svg>
