<?xml version="1.0" encoding="utf-8"?>
<!-- Generator: Adobe Illustrator 22.0.0, SVG Export Plug-In . SVG Version: 6.00 Build 0)  -->
<svg version="1.0" id="Ebene_1" xmlns="http://www.w3.org/2000/svg" xmlns:xlink="http://www.w3.org/1999/xlink" x="0px" y="0px"
	 width="42px" height="42px" viewBox="0 0 42 42" enable-background="new 0 0 42 42" xml:space="preserve">
<g>
	<path fill="#FFFFFF" d="M42,21C42,9.4,32.6,0,21,0C9.4,0,0,9.4,0,21c0,11.6,9.4,21,21,21C32.6,42,42,32.6,42,21"/>
	<path fill="#004C92" d="M18.2,25.2c2.4-1.4,4.8-2.8,7.3-4.2c-2.4-1.4-4.8-2.8-7.3-4.2V25.2z M21.4,30.8c-1.4,0-2.7,0-4.1-0.1
		c-0.9,0-1.9,0-2.8-0.1c-1,0-1.9-0.1-2.9-0.2c-0.5,0-1-0.1-1.5-0.2c-1.4-0.4-2.2-1.2-2.6-2.6c-0.2-0.6-0.3-1.3-0.3-2
		c-0.1-1-0.2-2-0.2-3c-0.1-1.1,0-2.2,0-3.3c0-0.7,0.1-1.4,0.1-2c0.1-1,0.2-2,0.4-2.9c0.3-1.3,1.5-2.4,2.8-2.6
		c0.9-0.1,1.7-0.2,2.6-0.3c2.4-0.2,4.7-0.2,7.1-0.2c1.9,0,3.9,0,5.8,0.1c1,0,2,0.1,3,0.1c0.8,0,1.7,0.1,2.5,0.3
		c0.9,0.1,1.6,0.5,2.2,1.2c0.4,0.5,0.7,1.1,0.8,1.7c0.2,0.7,0.2,1.5,0.3,2.2c0.2,1.6,0.2,3.3,0.2,4.9c0,1.2-0.1,2.3-0.2,3.5
		c-0.1,0.9-0.2,1.7-0.4,2.5c-0.4,1.4-1.3,2.2-2.7,2.5c-0.6,0.1-1.2,0.2-1.8,0.2c-2.6,0.2-5.2,0.3-7.8,0.3
		C21.8,30.8,21.6,30.8,21.4,30.8C21.4,30.8,21.4,30.8,21.4,30.8"/>
	<path fill="#FFFFFF" d="M18.2,25.2v-8.4c2.4,1.4,4.8,2.8,7.3,4.2C23.1,22.4,20.6,23.8,18.2,25.2"/>
</g>
</svg>
